<svg width="394" height="73" viewBox="0 0 394 73" fill="none" xmlns="http://www.w3.org/2000/svg">
<path d="M389.958 16.6636H196.405V56.5196H389.958V16.6636Z" fill="#1D1D1B" stroke="white" stroke-miterlimit="10"/>
<path d="M198.9 0.724487H191.068C190.536 0.724487 190.105 1.14694 190.105 1.66802V71.5207C190.105 72.0418 190.536 72.4641 191.068 72.4641H198.9C199.431 72.4641 199.862 72.0418 199.862 71.5207V1.66802C199.862 1.14694 199.431 0.724487 198.9 0.724487Z" fill="#1D1D1B" stroke="white" stroke-miterlimit="10"/>
<path d="M203.57 6.45801V9.67932H205.12C205.189 9.6779 205.257 9.66072 205.319 9.6291C205.37 9.60706 205.418 9.57892 205.461 9.54534C205.545 9.46726 205.603 9.36599 205.627 9.25502C205.63 9.22159 205.63 9.188 205.627 9.15457V6.97724C205.627 6.89971 205.61 6.82304 205.575 6.7533C205.54 6.68357 205.49 6.62261 205.427 6.57523V6.57523C205.364 6.52689 205.29 6.49436 205.211 6.48036H205.091L203.57 6.45801Z" fill="#1D1D1B" stroke="white" stroke-miterlimit="10"/>
<path d="M199.879 12.0409H203.388C203.46 12.0395 203.529 12.0108 203.58 11.9608C203.631 11.9109 203.66 11.8436 203.661 11.773V4.35891C203.66 4.28828 203.631 4.22097 203.58 4.17102C203.529 4.12107 203.46 4.09237 203.388 4.09094H199.879V12.0409Z" fill="#1D1D1B" stroke="white" stroke-miterlimit="10"/>
<path d="M205.216 6.47485C205.236 7.50219 205.318 8.52748 205.461 9.54542C205.544 9.46734 205.602 9.36607 205.626 9.2551C205.512 8.36592 205.448 7.47133 205.432 6.57531V6.57531C205.37 6.52497 205.295 6.4905 205.216 6.47485V6.47485Z" fill="#1D1D1B" stroke="white" stroke-miterlimit="10"/>
<path d="M204.863 6.45801C204.881 7.53591 204.966 8.61173 205.119 9.67932C205.188 9.6779 205.257 9.66072 205.318 9.6291C205.162 8.57886 205.081 7.51929 205.074 6.45801H204.863Z" fill="#1D1D1B" stroke="white" stroke-miterlimit="10"/>
<path d="M204.487 6.45801C204.508 7.53617 204.597 8.61202 204.754 9.67932H204.959C204.801 8.61212 204.712 7.53621 204.692 6.45801H204.487Z" fill="#1D1D1B" stroke="white" stroke-miterlimit="10"/>
<path d="M204.128 6.45801C204.144 7.53621 204.232 8.61225 204.39 9.67932H204.601C204.443 8.61212 204.353 7.53621 204.333 6.45801H204.128Z" fill="#1D1D1B" stroke="white" stroke-miterlimit="10"/>
<path d="M203.724 6.45801C203.743 7.53626 203.833 8.61222 203.991 9.67932H204.196C204.035 8.6124 203.944 7.5364 203.923 6.45801H203.724Z" fill="#1D1D1B" stroke="white" stroke-miterlimit="10"/>
<path d="M203.57 26.3833V29.6045H205.12C205.188 29.6016 205.256 29.5865 205.319 29.5599C205.37 29.536 205.418 29.506 205.461 29.4706C205.546 29.3954 205.604 29.2956 205.627 29.1858C205.63 29.1505 205.63 29.1151 205.627 29.0798V26.9025C205.627 26.8257 205.61 26.7499 205.575 26.681C205.54 26.6122 205.49 26.5523 205.427 26.5061V26.5061C205.363 26.4599 205.289 26.4276 205.211 26.4112H205.091L203.57 26.3833Z" fill="#1D1D1B" stroke="white" stroke-miterlimit="10"/>
<path d="M199.879 31.9661H203.388C203.46 31.9661 203.53 31.9378 203.581 31.8876C203.632 31.8373 203.661 31.7691 203.661 31.6981V24.2897C203.661 24.2181 203.633 24.1493 203.582 24.0982C203.53 24.047 203.461 24.0176 203.388 24.0161H199.879V31.9661Z" fill="#1D1D1B" stroke="white" stroke-miterlimit="10"/>
<path d="M205.216 26.428C205.236 27.4553 205.318 28.4806 205.461 29.4985C205.545 29.4233 205.603 29.3236 205.626 29.2138C205.512 28.3246 205.448 27.43 205.432 26.534C205.369 26.4839 205.295 26.4477 205.216 26.428Z" fill="#1D1D1B" stroke="white" stroke-miterlimit="10"/>
<path d="M204.863 26.3833C204.881 27.4612 204.966 28.537 205.119 29.6045C205.188 29.6016 205.255 29.5865 205.318 29.5599C205.163 28.5078 205.081 27.4464 205.074 26.3833H204.863Z" fill="#1D1D1B" stroke="white" stroke-miterlimit="10"/>
<path d="M204.487 26.3833C204.508 27.4615 204.597 28.5372 204.754 29.6045H204.959C204.801 28.5374 204.712 27.4615 204.692 26.3833H204.487Z" fill="#1D1D1B" stroke="white" stroke-miterlimit="10"/>
<path d="M204.128 26.3833C204.144 27.4615 204.232 28.5375 204.39 29.6045H204.601C204.443 28.5374 204.353 27.4615 204.333 26.3833H204.128Z" fill="#1D1D1B" stroke="white" stroke-miterlimit="10"/>
<path d="M203.724 26.3833C203.743 27.4616 203.832 28.5375 203.991 29.6045H204.196C204.034 28.5377 203.943 27.4617 203.923 26.3833H203.724Z" fill="#1D1D1B" stroke="white" stroke-miterlimit="10"/>
<path d="M203.57 62.2532V65.4744H205.12C205.188 65.4714 205.256 65.4563 205.319 65.4298C205.37 65.4059 205.418 65.3759 205.461 65.3404C205.546 65.2652 205.604 65.1655 205.627 65.0557C205.63 65.0204 205.63 64.985 205.627 64.9497V62.7723C205.628 62.6955 205.61 62.6196 205.576 62.5506C205.541 62.4817 205.49 62.4219 205.427 62.376C205.363 62.3298 205.289 62.2975 205.211 62.281H205.091L203.57 62.2532Z" fill="#1D1D1B" stroke="white" stroke-miterlimit="10"/>
<path d="M199.879 67.836H203.388C203.46 67.836 203.53 67.8077 203.581 67.7575C203.632 67.7072 203.661 67.639 203.661 67.5679V60.1595C203.661 60.0879 203.633 60.0192 203.582 59.968C203.53 59.9169 203.461 59.8874 203.388 59.886H199.879V67.836Z" fill="#1D1D1B" stroke="white" stroke-miterlimit="10"/>
<path d="M205.216 62.2698C205.236 63.2971 205.318 64.3224 205.461 65.3403C205.545 65.2651 205.603 65.1654 205.626 65.0556C205.512 64.1664 205.448 63.2719 205.432 62.3759V62.3759C205.369 62.3257 205.295 62.2895 205.216 62.2698Z" fill="#1D1D1B" stroke="white" stroke-miterlimit="10"/>
<path d="M204.863 62.2532C204.881 63.3311 204.966 64.4068 205.119 65.4744C205.188 65.4714 205.255 65.4563 205.318 65.4298C205.163 64.3777 205.081 63.3163 205.074 62.2532H204.863Z" fill="#1D1D1B" stroke="white" stroke-miterlimit="10"/>
<path d="M204.487 62.2532C204.508 63.3313 204.597 64.4071 204.754 65.4744H204.959C204.801 64.4072 204.712 63.3314 204.692 62.2532H204.487Z" fill="#1D1D1B" stroke="white" stroke-miterlimit="10"/>
<path d="M204.128 62.2532C204.144 63.3314 204.232 64.4074 204.39 65.4744H204.601C204.443 64.4072 204.353 63.3314 204.333 62.2532H204.128Z" fill="#1D1D1B" stroke="white" stroke-miterlimit="10"/>
<path d="M203.724 62.2532C203.743 63.3314 203.832 64.4074 203.991 65.4744H204.196C204.034 64.4075 203.943 63.3316 203.923 62.2532H203.724Z" fill="#1D1D1B" stroke="white" stroke-miterlimit="10"/>
<path d="M203.57 42.3279V45.5492H205.12C205.189 45.5445 205.256 45.5274 205.319 45.499C205.371 45.4772 205.419 45.447 205.461 45.4096C205.546 45.3344 205.604 45.2346 205.627 45.1249C205.63 45.0915 205.63 45.0579 205.627 45.0244V42.8471C205.627 42.7696 205.61 42.6929 205.575 42.6232C205.54 42.5534 205.49 42.4925 205.427 42.4451V42.4451C205.364 42.3968 205.29 42.3642 205.211 42.3502H205.091L203.57 42.3279Z" fill="#1D1D1B" stroke="white" stroke-miterlimit="10"/>
<path d="M199.879 47.9107H203.388C203.46 47.9092 203.529 47.8805 203.58 47.8306C203.631 47.7806 203.66 47.7133 203.661 47.6427V40.2287C203.66 40.158 203.631 40.0907 203.58 40.0408C203.529 39.9908 203.46 39.9621 203.388 39.9607H199.879V47.9107Z" fill="#1D1D1B" stroke="white" stroke-miterlimit="10"/>
<path d="M205.216 42.3447C205.24 43.3704 205.325 44.3939 205.472 45.4097C205.557 45.3345 205.614 45.2347 205.637 45.125C205.523 44.2358 205.459 43.3412 205.444 42.4452C205.378 42.3932 205.299 42.3586 205.216 42.3447V42.3447Z" fill="#1D1D1B" stroke="white" stroke-miterlimit="10"/>
<path d="M204.863 42.3279C204.881 43.4058 204.966 44.4816 205.119 45.5492C205.188 45.5445 205.255 45.5274 205.318 45.499C205.162 44.4487 205.081 43.3892 205.074 42.3279H204.863Z" fill="#1D1D1B" stroke="white" stroke-miterlimit="10"/>
<path d="M204.487 42.3279C204.508 43.406 204.597 44.4819 204.754 45.5492H204.959C204.801 44.482 204.712 43.4061 204.692 42.3279H204.487Z" fill="#1D1D1B" stroke="white" stroke-miterlimit="10"/>
<path d="M204.128 42.3279C204.144 43.4061 204.232 44.4821 204.39 45.5492H204.601C204.443 44.482 204.353 43.4061 204.333 42.3279H204.128Z" fill="#1D1D1B" stroke="white" stroke-miterlimit="10"/>
<path d="M203.724 42.3279C203.743 43.4061 203.833 44.4821 203.991 45.5492H204.196C204.035 44.4823 203.944 43.4063 203.923 42.3279H203.724Z" fill="#1D1D1B" stroke="white" stroke-miterlimit="10"/>
<path d="M392.037 0.724487H384.205C383.674 0.724487 383.243 1.14694 383.243 1.66802V71.5207C383.243 72.0418 383.674 72.4641 384.205 72.4641H392.037C392.569 72.4641 393 72.0418 393 71.5207V1.66802C393 1.14694 392.569 0.724487 392.037 0.724487Z" fill="#1D1D1B" stroke="white" stroke-miterlimit="10"/>
<path d="M379.54 6.45801V9.67932H377.985C377.918 9.67725 377.851 9.66008 377.792 9.6291C377.74 9.60576 377.69 9.57772 377.643 9.54534C377.563 9.46534 377.508 9.36465 377.484 9.25502C377.478 9.22178 377.478 9.18781 377.484 9.15457V6.97724C377.484 6.89932 377.503 6.82253 377.539 6.75282C377.574 6.68312 377.626 6.62232 377.689 6.57523C377.751 6.52805 377.823 6.49561 377.9 6.48036C377.941 6.47491 377.983 6.47491 378.025 6.48036L379.54 6.45801Z" fill="#1D1D1B" stroke="white" stroke-miterlimit="10"/>
<path d="M383.231 12.0409H379.722C379.65 12.0409 379.58 12.0127 379.529 11.9624C379.478 11.9122 379.449 11.844 379.449 11.773V4.35891C379.449 4.28784 379.478 4.21971 379.529 4.16945C379.58 4.1192 379.65 4.09094 379.722 4.09094H383.231V12.0409Z" fill="#1D1D1B" stroke="white" stroke-miterlimit="10"/>
<path d="M377.888 6.47485C377.868 7.50219 377.786 8.52748 377.643 9.54542C377.563 9.46542 377.508 9.36473 377.484 9.2551C377.595 8.36564 377.659 7.4712 377.677 6.57531V6.57531C377.739 6.52613 377.811 6.49176 377.888 6.47485V6.47485Z" fill="#1D1D1B" stroke="white" stroke-miterlimit="10"/>
<path d="M378.247 6.45801C378.227 7.53601 378.139 8.6118 377.985 9.67932C377.918 9.67725 377.851 9.66008 377.792 9.6291C377.948 8.57886 378.029 7.51929 378.036 6.45801H378.247Z" fill="#1D1D1B" stroke="white" stroke-miterlimit="10"/>
<path d="M378.628 6.45801C378.607 7.53617 378.518 8.61202 378.361 9.67932H378.156C378.314 8.61212 378.403 7.53621 378.423 6.45801H378.628Z" fill="#1D1D1B" stroke="white" stroke-miterlimit="10"/>
<path d="M378.982 6.45801C378.966 7.53621 378.878 8.61225 378.72 9.67932H378.51C378.667 8.61212 378.757 7.53621 378.777 6.45801H378.982Z" fill="#1D1D1B" stroke="white" stroke-miterlimit="10"/>
<path d="M379.386 6.45801C379.367 7.53626 379.277 8.61222 379.119 9.67932H378.914C379.073 8.61231 379.163 7.5363 379.181 6.45801H379.386Z" fill="#1D1D1B" stroke="white" stroke-miterlimit="10"/>
<path d="M379.54 26.3833V29.6045H377.985C377.918 29.6017 377.853 29.5865 377.792 29.5599C377.739 29.5347 377.69 29.5048 377.643 29.4706C377.563 29.3932 377.507 29.2941 377.484 29.1858C377.478 29.1507 377.478 29.1149 377.484 29.0798V26.9025C377.484 26.8253 377.503 26.7494 377.539 26.6806C377.574 26.6118 377.626 26.552 377.689 26.5061V26.5061C377.752 26.4606 377.824 26.4283 377.9 26.4112H378.025L379.54 26.3833Z" fill="#1D1D1B" stroke="white" stroke-miterlimit="10"/>
<path d="M383.231 31.9661H379.722C379.686 31.9669 379.65 31.9604 379.617 31.9472C379.583 31.934 379.553 31.9143 379.527 31.8893C379.502 31.8642 379.482 31.8344 379.468 31.8015C379.455 31.7687 379.448 31.7335 379.449 31.6981V24.2897C379.448 24.254 379.455 24.2186 379.468 24.1854C379.482 24.1522 379.502 24.122 379.527 24.0965C379.553 24.0711 379.583 24.0509 379.616 24.037C379.65 24.0232 379.686 24.0161 379.722 24.0161H383.231V31.9661Z" fill="#1D1D1B" stroke="white" stroke-miterlimit="10"/>
<path d="M377.888 26.428C377.868 27.4553 377.786 28.4806 377.643 29.4985C377.563 29.4212 377.507 29.3221 377.484 29.2138C377.594 28.3243 377.659 27.4299 377.677 26.534V26.534C377.739 26.4846 377.811 26.4485 377.888 26.428Z" fill="#1D1D1B" stroke="white" stroke-miterlimit="10"/>
<path d="M378.247 26.3833C378.227 27.4613 378.139 28.5371 377.985 29.6045C377.918 29.6017 377.853 29.5865 377.792 29.5599C377.947 28.5078 378.029 27.4464 378.036 26.3833H378.247Z" fill="#1D1D1B" stroke="white" stroke-miterlimit="10"/>
<path d="M378.628 26.3833C378.607 27.4615 378.518 28.5372 378.361 29.6045H378.156C378.314 28.5374 378.403 27.4615 378.423 26.3833H378.628Z" fill="#1D1D1B" stroke="white" stroke-miterlimit="10"/>
<path d="M378.982 26.3833C378.966 27.4615 378.878 28.5375 378.72 29.6045H378.51C378.668 28.5374 378.757 27.4615 378.777 26.3833H378.982Z" fill="#1D1D1B" stroke="white" stroke-miterlimit="10"/>
<path d="M379.386 26.3833C379.367 27.4616 379.278 28.5375 379.119 29.6045H378.914C379.074 28.5376 379.163 27.4616 379.181 26.3833H379.386Z" fill="#1D1D1B" stroke="white" stroke-miterlimit="10"/>
<path d="M379.54 62.2532V65.4744H377.985C377.918 65.4715 377.853 65.4564 377.792 65.4298C377.739 65.4046 377.69 65.3747 377.643 65.3404C377.563 65.2631 377.507 65.164 377.484 65.0557C377.478 65.0206 377.478 64.9848 377.484 64.9497V62.7723C377.483 62.695 377.502 62.6188 377.538 62.5498C377.573 62.4809 377.625 62.4213 377.689 62.376V62.376C377.752 62.3305 377.824 62.2982 377.9 62.281H378.025L379.54 62.2532Z" fill="#1D1D1B" stroke="white" stroke-miterlimit="10"/>
<path d="M383.231 67.836H379.722C379.686 67.8367 379.65 67.8303 379.617 67.8171C379.583 67.8039 379.553 67.7842 379.527 67.7592C379.502 67.7341 379.482 67.7042 379.468 67.6714C379.455 67.6385 379.448 67.6033 379.449 67.5679V60.1595C379.448 60.1239 379.455 60.0884 379.468 60.0553C379.482 60.0221 379.502 59.9919 379.527 59.9664C379.553 59.9409 379.583 59.9207 379.616 59.9069C379.65 59.8931 379.686 59.886 379.722 59.886H383.231V67.836Z" fill="#1D1D1B" stroke="white" stroke-miterlimit="10"/>
<path d="M377.888 62.2698C377.868 63.2971 377.786 64.3224 377.643 65.3403C377.563 65.263 377.507 65.1639 377.484 65.0556C377.594 64.1661 377.659 63.2718 377.677 62.3759V62.3759C377.739 62.3264 377.811 62.2903 377.888 62.2698Z" fill="#1D1D1B" stroke="white" stroke-miterlimit="10"/>
<path d="M378.247 62.2532C378.227 63.3312 378.139 64.4069 377.985 65.4744C377.918 65.4715 377.853 65.4564 377.792 65.4298C377.947 64.3777 378.029 63.3163 378.036 62.2532H378.247Z" fill="#1D1D1B" stroke="white" stroke-miterlimit="10"/>
<path d="M378.628 62.2532C378.607 63.3313 378.518 64.4071 378.361 65.4744H378.156C378.314 64.4072 378.403 63.3314 378.423 62.2532H378.628Z" fill="#1D1D1B" stroke="white" stroke-miterlimit="10"/>
<path d="M378.982 62.2532C378.966 63.3314 378.878 64.4074 378.72 65.4744H378.51C378.668 64.4072 378.757 63.3314 378.777 62.2532H378.982Z" fill="#1D1D1B" stroke="white" stroke-miterlimit="10"/>
<path d="M379.386 62.2532C379.367 63.3314 379.278 64.4074 379.119 65.4744H378.914C379.074 64.4075 379.163 63.3315 379.181 62.2532H379.386Z" fill="#1D1D1B" stroke="white" stroke-miterlimit="10"/>
<path d="M379.54 42.3279V45.5492H377.985C377.918 45.5438 377.853 45.5268 377.792 45.499C377.738 45.4759 377.688 45.4458 377.643 45.4096C377.563 45.3323 377.507 45.2332 377.484 45.1249C377.478 45.0917 377.478 45.0577 377.484 45.0244V42.8471C377.484 42.7692 377.503 42.6924 377.539 42.6227C377.574 42.553 377.626 42.4922 377.689 42.4451V42.4451C377.751 42.3979 377.823 42.3655 377.9 42.3502C377.941 42.3448 377.983 42.3448 378.025 42.3502L379.54 42.3279Z" fill="#1D1D1B" stroke="white" stroke-miterlimit="10"/>
<path d="M383.231 47.9107H379.722C379.65 47.9107 379.58 47.8824 379.529 47.8322C379.478 47.7819 379.449 47.7138 379.449 47.6427V40.2287C379.449 40.1935 379.456 40.1586 379.47 40.1261C379.484 40.0936 379.504 40.0641 379.529 40.0392C379.554 40.0143 379.585 39.9945 379.618 39.9811C379.651 39.9676 379.686 39.9607 379.722 39.9607H383.231V47.9107Z" fill="#1D1D1B" stroke="white" stroke-miterlimit="10"/>
<path d="M377.888 42.3447C377.868 43.3702 377.786 44.3937 377.643 45.4097C377.563 45.3324 377.507 45.2333 377.484 45.125C377.595 44.2355 377.659 43.3411 377.677 42.4452V42.4452C377.739 42.396 377.811 42.3616 377.888 42.3447V42.3447Z" fill="#1D1D1B" stroke="white" stroke-miterlimit="10"/>
<path d="M378.247 42.3279C378.227 43.4059 378.139 44.4817 377.985 45.5492C377.918 45.5438 377.853 45.5268 377.792 45.499C377.948 44.4487 378.029 43.3892 378.036 42.3279H378.247Z" fill="#1D1D1B" stroke="white" stroke-miterlimit="10"/>
<path d="M378.628 42.3279C378.607 43.406 378.518 44.4819 378.361 45.5492H378.156C378.314 44.482 378.403 43.4061 378.423 42.3279H378.628Z" fill="#1D1D1B" stroke="white" stroke-miterlimit="10"/>
<path d="M378.982 42.3279C378.966 43.4061 378.878 44.4821 378.72 45.5492H378.51C378.667 44.482 378.757 43.4061 378.777 42.3279H378.982Z" fill="#1D1D1B" stroke="white" stroke-miterlimit="10"/>
<path d="M379.386 42.3279C379.367 43.4061 379.277 44.4821 379.119 45.5492H378.914C379.073 44.4822 379.163 43.4062 379.181 42.3279H379.386Z" fill="#1D1D1B" stroke="white" stroke-miterlimit="10"/>
<path d="M192.161 16.6636H7.02588V56.5196H192.161V16.6636Z" fill="#1D1D1B" stroke="white" stroke-miterlimit="10"/>
<path d="M9.41203 0.724487H1.92075C1.41223 0.724487 1 1.14694 1 1.66802V71.5207C1 72.0418 1.41223 72.4641 1.92075 72.4641H9.41203C9.92055 72.4641 10.3328 72.0418 10.3328 71.5207V1.66802C10.3328 1.14694 9.92055 0.724487 9.41203 0.724487Z" fill="#1D1D1B" stroke="white" stroke-miterlimit="10"/>
<path d="M13.8796 6.45801V9.67932H15.3616C15.4281 9.6779 15.4933 9.66072 15.5522 9.6291C15.6008 9.60706 15.6466 9.57892 15.6884 9.54534C15.7687 9.46726 15.8238 9.36599 15.8465 9.25502C15.8494 9.22159 15.8494 9.188 15.8465 9.15457V6.97724C15.8471 6.89971 15.8302 6.82304 15.7971 6.7533C15.764 6.68357 15.7157 6.62261 15.6558 6.57523V6.57523C15.5953 6.52689 15.5242 6.49436 15.4487 6.48036H15.3343L13.8796 6.45801Z" fill="#1D1D1B" stroke="white" stroke-miterlimit="10"/>
<path d="M10.3491 12.0409H13.7052C13.7742 12.0395 13.8398 12.0108 13.8886 11.9608C13.9373 11.9109 13.9653 11.8436 13.9667 11.773V4.35891C13.9653 4.28828 13.9373 4.22097 13.8886 4.17102C13.8398 4.12107 13.7742 4.09237 13.7052 4.09094H10.3491V12.0409Z" fill="#1D1D1B" stroke="white" stroke-miterlimit="10"/>
<path d="M15.4539 6.47485C15.4732 7.50219 15.5513 8.52748 15.6878 9.54542C15.7679 9.46734 15.823 9.36607 15.8457 9.2551C15.737 8.36592 15.6752 7.47133 15.6606 6.57531V6.57531C15.6008 6.52497 15.5298 6.4905 15.4539 6.47485V6.47485Z" fill="#1D1D1B" stroke="white" stroke-miterlimit="10"/>
<path d="M15.1162 6.45801C15.1333 7.53591 15.2151 8.61173 15.3611 9.67932C15.4275 9.6779 15.4927 9.66072 15.5515 9.6291C15.4025 8.57886 15.3243 7.51929 15.3175 6.45801H15.1162Z" fill="#1D1D1B" stroke="white" stroke-miterlimit="10"/>
<path d="M14.7566 6.45801C14.7768 7.53617 14.8622 8.61202 15.0123 9.67932H15.2082C15.0572 8.61212 14.9718 7.53621 14.9525 6.45801H14.7566Z" fill="#1D1D1B" stroke="white" stroke-miterlimit="10"/>
<path d="M14.4136 6.45801C14.4289 7.53621 14.5125 8.61225 14.6639 9.67932H14.8652C14.7142 8.61212 14.6288 7.53621 14.6095 6.45801H14.4136Z" fill="#1D1D1B" stroke="white" stroke-miterlimit="10"/>
<path d="M14.0266 6.45801C14.0451 7.53626 14.1306 8.61222 14.2824 9.67932H14.4783C14.3241 8.6124 14.2369 7.5364 14.2171 6.45801H14.0266Z" fill="#1D1D1B" stroke="white" stroke-miterlimit="10"/>
<path d="M13.8796 26.3833V29.6045H15.3616C15.4272 29.6016 15.4918 29.5865 15.5522 29.5599C15.6011 29.536 15.6468 29.506 15.6884 29.4706C15.7694 29.3954 15.8248 29.2956 15.8465 29.1858C15.8493 29.1505 15.8493 29.1151 15.8465 29.0798V26.9025C15.8471 26.8257 15.8302 26.7499 15.7971 26.681C15.7639 26.6122 15.7155 26.5523 15.6558 26.5061V26.5061C15.594 26.4599 15.5235 26.4276 15.4487 26.4112H15.3343L13.8796 26.3833Z" fill="#1D1D1B" stroke="white" stroke-miterlimit="10"/>
<path d="M10.3491 31.9661H13.7052C13.7746 31.9661 13.8411 31.9378 13.8901 31.8876C13.9392 31.8373 13.9667 31.7691 13.9667 31.6981V24.2897C13.9668 24.2181 13.9394 24.1493 13.8905 24.0982C13.8416 24.047 13.7751 24.0176 13.7052 24.0161H10.3491V31.9661Z" fill="#1D1D1B" stroke="white" stroke-miterlimit="10"/>
<path d="M15.4539 26.428C15.4728 27.4553 15.5509 28.4806 15.6878 29.4985C15.7687 29.4233 15.824 29.3236 15.8457 29.2138C15.7374 28.3246 15.6756 27.43 15.6606 26.534C15.5999 26.4839 15.5294 26.4477 15.4539 26.428Z" fill="#1D1D1B" stroke="white" stroke-miterlimit="10"/>
<path d="M15.1162 26.3833C15.1331 27.4612 15.2149 28.537 15.3611 29.6045C15.4267 29.6016 15.4912 29.5865 15.5515 29.5599C15.4027 28.5078 15.3245 27.4464 15.3175 26.3833H15.1162Z" fill="#1D1D1B" stroke="white" stroke-miterlimit="10"/>
<path d="M14.7566 26.3833C14.7768 27.4615 14.8622 28.5372 15.0123 29.6045H15.2082C15.057 28.5374 14.9716 27.4615 14.9525 26.3833H14.7566Z" fill="#1D1D1B" stroke="white" stroke-miterlimit="10"/>
<path d="M14.4136 26.3833C14.4289 27.4615 14.5125 28.5375 14.6639 29.6045H14.8652C14.714 28.5374 14.6286 27.4615 14.6095 26.3833H14.4136Z" fill="#1D1D1B" stroke="white" stroke-miterlimit="10"/>
<path d="M14.0266 26.3833C14.0447 27.4616 14.1301 28.5375 14.2824 29.6045H14.4783C14.3237 28.5377 14.2365 27.4617 14.2171 26.3833H14.0266Z" fill="#1D1D1B" stroke="white" stroke-miterlimit="10"/>
<path d="M13.8796 62.2532V65.4744H15.3616C15.4272 65.4714 15.4918 65.4563 15.5522 65.4298C15.6011 65.4059 15.6468 65.3759 15.6884 65.3404C15.7694 65.2652 15.8248 65.1655 15.8465 65.0557C15.8493 65.0204 15.8493 64.985 15.8465 64.9497V62.7723C15.8475 62.6955 15.8308 62.6196 15.7977 62.5506C15.7645 62.4817 15.7159 62.4219 15.6558 62.376C15.594 62.3298 15.5235 62.2975 15.4487 62.281H15.3343L13.8796 62.2532Z" fill="#1D1D1B" stroke="white" stroke-miterlimit="10"/>
<path d="M10.3491 67.836H13.7052C13.7746 67.836 13.8411 67.8077 13.8901 67.7575C13.9392 67.7072 13.9667 67.639 13.9667 67.5679V60.1595C13.9668 60.0879 13.9394 60.0192 13.8905 59.968C13.8416 59.9169 13.7751 59.8874 13.7052 59.886H10.3491V67.836Z" fill="#1D1D1B" stroke="white" stroke-miterlimit="10"/>
<path d="M15.4539 62.2698C15.4728 63.2971 15.5509 64.3224 15.6878 65.3403C15.7687 65.2651 15.824 65.1654 15.8457 65.0556C15.7374 64.1664 15.6756 63.2719 15.6606 62.3759V62.3759C15.5999 62.3257 15.5294 62.2895 15.4539 62.2698Z" fill="#1D1D1B" stroke="white" stroke-miterlimit="10"/>
<path d="M15.1162 62.2532C15.1331 63.3311 15.2149 64.4068 15.3611 65.4744C15.4267 65.4714 15.4912 65.4563 15.5515 65.4298C15.4027 64.3777 15.3245 63.3163 15.3175 62.2532H15.1162Z" fill="#1D1D1B" stroke="white" stroke-miterlimit="10"/>
<path d="M14.7566 62.2532C14.7768 63.3313 14.8622 64.4071 15.0123 65.4744H15.2082C15.057 64.4072 14.9716 63.3314 14.9525 62.2532H14.7566Z" fill="#1D1D1B" stroke="white" stroke-miterlimit="10"/>
<path d="M14.4136 62.2532C14.4289 63.3314 14.5125 64.4074 14.6639 65.4744H14.8652C14.714 64.4072 14.6286 63.3314 14.6095 62.2532H14.4136Z" fill="#1D1D1B" stroke="white" stroke-miterlimit="10"/>
<path d="M14.0266 62.2532C14.0447 63.3314 14.1301 64.4074 14.2824 65.4744H14.4783C14.3237 64.4075 14.2365 63.3316 14.2171 62.2532H14.0266Z" fill="#1D1D1B" stroke="white" stroke-miterlimit="10"/>
<path d="M13.8796 42.3279V45.5492H15.3616C15.4276 45.5445 15.4922 45.5274 15.5522 45.499C15.6022 45.4772 15.6482 45.447 15.6884 45.4096C15.7694 45.3344 15.8248 45.2346 15.8465 45.1249C15.8494 45.0915 15.8494 45.0579 15.8465 45.0244V42.8471C15.8471 42.7696 15.8302 42.6929 15.7971 42.6232C15.764 42.5534 15.7157 42.4925 15.6558 42.4451V42.4451C15.5953 42.3968 15.5242 42.3642 15.4487 42.3502H15.3343L13.8796 42.3279Z" fill="#1D1D1B" stroke="white" stroke-miterlimit="10"/>
<path d="M10.3491 47.9107H13.7052C13.7742 47.9092 13.8398 47.8805 13.8886 47.8306C13.9373 47.7806 13.9653 47.7133 13.9667 47.6427V40.2287C13.9653 40.158 13.9373 40.0907 13.8886 40.0408C13.8398 39.9908 13.7742 39.9621 13.7052 39.9607H10.3491V47.9107Z" fill="#1D1D1B" stroke="white" stroke-miterlimit="10"/>
<path d="M15.4539 42.3447C15.4766 43.3704 15.5584 44.3939 15.6987 45.4097C15.7796 45.3345 15.8349 45.2347 15.8565 45.125C15.7479 44.2358 15.6861 43.3412 15.6715 42.4452C15.6085 42.3932 15.5336 42.3586 15.4539 42.3447V42.3447Z" fill="#1D1D1B" stroke="white" stroke-miterlimit="10"/>
<path d="M15.1162 42.3279C15.1333 43.4058 15.2151 44.4816 15.3611 45.5492C15.427 45.5445 15.4915 45.5274 15.5515 45.499C15.4025 44.4487 15.3243 43.3892 15.3175 42.3279H15.1162Z" fill="#1D1D1B" stroke="white" stroke-miterlimit="10"/>
<path d="M14.7566 42.3279C14.7768 43.406 14.8622 44.4819 15.0123 45.5492H15.2082C15.0572 44.482 14.9718 43.4061 14.9525 42.3279H14.7566Z" fill="#1D1D1B" stroke="white" stroke-miterlimit="10"/>
<path d="M14.4136 42.3279C14.4289 43.4061 14.5125 44.4821 14.6639 45.5492H14.8652C14.7142 44.482 14.6288 43.4061 14.6095 42.3279H14.4136Z" fill="#1D1D1B" stroke="white" stroke-miterlimit="10"/>
<path d="M14.0266 42.3279C14.0451 43.4061 14.1306 44.4821 14.2824 45.5492H14.4783C14.3241 44.4823 14.2369 43.4063 14.2171 42.3279H14.0266Z" fill="#1D1D1B" stroke="white" stroke-miterlimit="10"/>
<path d="M194.15 0.724487H186.659C186.15 0.724487 185.738 1.14694 185.738 1.66802V71.5207C185.738 72.0418 186.15 72.4641 186.659 72.4641H194.15C194.659 72.4641 195.071 72.0418 195.071 71.5207V1.66802C195.071 1.14694 194.659 0.724487 194.15 0.724487Z" fill="#1D1D1B" stroke="white" stroke-miterlimit="10"/>
<path d="M182.196 6.45801V9.67932H180.709C180.644 9.67725 180.581 9.66008 180.524 9.6291C180.474 9.60576 180.427 9.57772 180.382 9.54534C180.306 9.46534 180.253 9.36465 180.23 9.25502C180.224 9.22178 180.224 9.18781 180.23 9.15457V6.97724C180.23 6.89932 180.248 6.82253 180.282 6.75282C180.316 6.68312 180.365 6.62232 180.426 6.57523C180.485 6.52805 180.554 6.49561 180.627 6.48036C180.667 6.47491 180.707 6.47491 180.747 6.48036L182.196 6.45801Z" fill="#1D1D1B" stroke="white" stroke-miterlimit="10"/>
<path d="M185.727 12.0409H182.371C182.301 12.0409 182.235 12.0127 182.186 11.9624C182.137 11.9122 182.109 11.844 182.109 11.773V4.35891C182.109 4.28784 182.137 4.21971 182.186 4.16945C182.235 4.1192 182.301 4.09094 182.371 4.09094H185.727V12.0409Z" fill="#1D1D1B" stroke="white" stroke-miterlimit="10"/>
<path d="M180.616 6.47485C180.597 7.50219 180.518 8.52748 180.382 9.54542C180.305 9.46542 180.252 9.36473 180.229 9.2551C180.335 8.36564 180.397 7.4712 180.415 6.57531V6.57531C180.473 6.52613 180.542 6.49176 180.616 6.47485V6.47485Z" fill="#1D1D1B" stroke="white" stroke-miterlimit="10"/>
<path d="M180.959 6.45801C180.94 7.53601 180.856 8.6118 180.709 9.67932C180.644 9.67725 180.581 9.66008 180.524 9.6291C180.673 8.57886 180.751 7.51929 180.758 6.45801H180.959Z" fill="#1D1D1B" stroke="white" stroke-miterlimit="10"/>
<path d="M181.324 6.45801C181.304 7.53617 181.218 8.61202 181.068 9.67932H180.872C181.023 8.61212 181.109 7.53621 181.128 6.45801H181.324Z" fill="#1D1D1B" stroke="white" stroke-miterlimit="10"/>
<path d="M181.662 6.45801C181.647 7.53621 181.563 8.61225 181.412 9.67932H181.21C181.361 8.61212 181.447 7.53621 181.466 6.45801H181.662Z" fill="#1D1D1B" stroke="white" stroke-miterlimit="10"/>
<path d="M182.049 6.45801C182.03 7.53626 181.945 8.61222 181.793 9.67932H181.597C181.75 8.61231 181.835 7.5363 181.853 6.45801H182.049Z" fill="#1D1D1B" stroke="white" stroke-miterlimit="10"/>
<path d="M182.196 26.3833V29.6045H180.709C180.645 29.6017 180.582 29.5865 180.524 29.5599C180.474 29.5347 180.427 29.5048 180.382 29.4706C180.305 29.3932 180.252 29.2941 180.23 29.1858C180.224 29.1507 180.224 29.1149 180.23 29.0798V26.9025C180.23 26.8253 180.248 26.7494 180.282 26.6806C180.316 26.6118 180.365 26.552 180.426 26.5061V26.5061C180.486 26.4606 180.554 26.4283 180.627 26.4112H180.747L182.196 26.3833Z" fill="#1D1D1B" stroke="white" stroke-miterlimit="10"/>
<path d="M185.727 31.9661H182.371C182.336 31.9669 182.302 31.9604 182.27 31.9472C182.238 31.934 182.209 31.9143 182.184 31.8893C182.16 31.8642 182.14 31.8344 182.128 31.8015C182.115 31.7687 182.108 31.7335 182.109 31.6981V24.2897C182.108 24.254 182.115 24.2186 182.128 24.1854C182.14 24.1522 182.159 24.122 182.184 24.0965C182.208 24.0711 182.237 24.0509 182.269 24.037C182.301 24.0232 182.336 24.0161 182.371 24.0161H185.727V31.9661Z" fill="#1D1D1B" stroke="white" stroke-miterlimit="10"/>
<path d="M180.616 26.428C180.597 27.4553 180.519 28.4806 180.382 29.4985C180.305 29.4212 180.252 29.3221 180.229 29.2138C180.335 28.3243 180.397 27.4299 180.415 26.534V26.534C180.474 26.4846 180.542 26.4485 180.616 26.428Z" fill="#1D1D1B" stroke="white" stroke-miterlimit="10"/>
<path d="M180.959 26.3833C180.94 27.4613 180.857 28.5371 180.709 29.6045C180.645 29.6017 180.582 29.5865 180.524 29.5599C180.673 28.5078 180.751 27.4464 180.758 26.3833H180.959Z" fill="#1D1D1B" stroke="white" stroke-miterlimit="10"/>
<path d="M181.324 26.3833C181.304 27.4615 181.218 28.5372 181.068 29.6045H180.872C181.023 28.5374 181.109 27.4615 181.128 26.3833H181.324Z" fill="#1D1D1B" stroke="white" stroke-miterlimit="10"/>
<path d="M181.662 26.3833C181.647 27.4615 181.563 28.5375 181.412 29.6045H181.21C181.362 28.5374 181.447 27.4615 181.466 26.3833H181.662Z" fill="#1D1D1B" stroke="white" stroke-miterlimit="10"/>
<path d="M182.049 26.3833C182.031 27.4616 181.945 28.5375 181.793 29.6045H181.597C181.75 28.5376 181.836 27.4616 181.853 26.3833H182.049Z" fill="#1D1D1B" stroke="white" stroke-miterlimit="10"/>
<path d="M182.196 62.2532V65.4744H180.709C180.645 65.4715 180.582 65.4564 180.524 65.4298C180.474 65.4046 180.427 65.3747 180.382 65.3404C180.305 65.2631 180.252 65.164 180.23 65.0557C180.224 65.0206 180.224 64.9848 180.23 64.9497V62.7723C180.229 62.695 180.247 62.6188 180.281 62.5498C180.315 62.4809 180.365 62.4213 180.426 62.376V62.376C180.486 62.3305 180.554 62.2982 180.627 62.281H180.747L182.196 62.2532Z" fill="#1D1D1B" stroke="white" stroke-miterlimit="10"/>
<path d="M185.727 67.836H182.371C182.336 67.8367 182.302 67.8303 182.27 67.8171C182.238 67.8039 182.209 67.7842 182.184 67.7592C182.16 67.7341 182.14 67.7042 182.128 67.6714C182.115 67.6385 182.108 67.6033 182.109 67.5679V60.1595C182.108 60.1239 182.115 60.0884 182.128 60.0553C182.14 60.0221 182.159 59.9919 182.184 59.9664C182.208 59.9409 182.237 59.9207 182.269 59.9069C182.301 59.8931 182.336 59.886 182.371 59.886H185.727V67.836Z" fill="#1D1D1B" stroke="white" stroke-miterlimit="10"/>
<path d="M180.616 62.2698C180.597 63.2971 180.519 64.3224 180.382 65.3403C180.305 65.263 180.252 65.1639 180.229 65.0556C180.335 64.1661 180.397 63.2718 180.415 62.3759V62.3759C180.474 62.3264 180.542 62.2903 180.616 62.2698Z" fill="#1D1D1B" stroke="white" stroke-miterlimit="10"/>
<path d="M180.959 62.2532C180.94 63.3312 180.857 64.4069 180.709 65.4744C180.645 65.4715 180.582 65.4564 180.524 65.4298C180.673 64.3777 180.751 63.3163 180.758 62.2532H180.959Z" fill="#1D1D1B" stroke="white" stroke-miterlimit="10"/>
<path d="M181.324 62.2532C181.304 63.3313 181.218 64.4071 181.068 65.4744H180.872C181.023 64.4072 181.109 63.3314 181.128 62.2532H181.324Z" fill="#1D1D1B" stroke="white" stroke-miterlimit="10"/>
<path d="M181.662 62.2532C181.647 63.3314 181.563 64.4074 181.412 65.4744H181.21C181.362 64.4072 181.447 63.3314 181.466 62.2532H181.662Z" fill="#1D1D1B" stroke="white" stroke-miterlimit="10"/>
<path d="M182.049 62.2532C182.031 63.3314 181.945 64.4074 181.793 65.4744H181.597C181.75 64.4075 181.836 63.3315 181.853 62.2532H182.049Z" fill="#1D1D1B" stroke="white" stroke-miterlimit="10"/>
<path d="M182.196 42.3279V45.5492H180.709C180.645 45.5438 180.582 45.5268 180.524 45.499C180.473 45.4759 180.425 45.4458 180.382 45.4096C180.305 45.3323 180.252 45.2332 180.23 45.1249C180.224 45.0917 180.224 45.0577 180.23 45.0244V42.8471C180.23 42.7692 180.248 42.6924 180.282 42.6227C180.316 42.553 180.365 42.4922 180.426 42.4451V42.4451C180.485 42.3979 180.554 42.3655 180.627 42.3502C180.667 42.3448 180.707 42.3448 180.747 42.3502L182.196 42.3279Z" fill="#1D1D1B" stroke="white" stroke-miterlimit="10"/>
<path d="M185.727 47.9107H182.371C182.301 47.9107 182.235 47.8824 182.186 47.8322C182.137 47.7819 182.109 47.7138 182.109 47.6427V40.2287C182.109 40.1935 182.116 40.1586 182.129 40.1261C182.142 40.0936 182.161 40.0641 182.186 40.0392C182.21 40.0143 182.239 39.9945 182.271 39.9811C182.302 39.9676 182.336 39.9607 182.371 39.9607H185.727V47.9107Z" fill="#1D1D1B" stroke="white" stroke-miterlimit="10"/>
<path d="M180.616 42.3447C180.597 43.3702 180.519 44.3937 180.382 45.4097C180.305 45.3324 180.252 45.2333 180.229 45.125C180.335 44.2355 180.397 43.3411 180.415 42.4452V42.4452C180.473 42.396 180.542 42.3616 180.616 42.3447V42.3447Z" fill="#1D1D1B" stroke="white" stroke-miterlimit="10"/>
<path d="M180.959 42.3279C180.94 43.4059 180.856 44.4817 180.709 45.5492C180.645 45.5438 180.582 45.5268 180.524 45.499C180.673 44.4487 180.751 43.3892 180.758 42.3279H180.959Z" fill="#1D1D1B" stroke="white" stroke-miterlimit="10"/>
<path d="M181.324 42.3279C181.304 43.406 181.218 44.4819 181.068 45.5492H180.872C181.023 44.482 181.109 43.4061 181.128 42.3279H181.324Z" fill="#1D1D1B" stroke="white" stroke-miterlimit="10"/>
<path d="M181.662 42.3279C181.647 43.4061 181.563 44.4821 181.412 45.5492H181.21C181.361 44.482 181.447 43.4061 181.466 42.3279H181.662Z" fill="#1D1D1B" stroke="white" stroke-miterlimit="10"/>
<path d="M182.049 42.3279C182.03 43.4061 181.945 44.4821 181.793 45.5492H181.597C181.75 44.4822 181.835 43.4062 181.853 42.3279H182.049Z" fill="#1D1D1B" stroke="white" stroke-miterlimit="10"/>
</svg>
