<svg preserveAspectRatio="xMidYMax meet" width="124" height="70" viewBox="0 0 124 70" fill="none" xmlns="http://www.w3.org/2000/svg">
<path d="M91.8862 32.0261C91.8406 32.0265 91.7955 32.0358 91.7535 32.0535C91.7115 32.0712 91.6734 32.0971 91.6414 32.1295C91.6093 32.162 91.5841 32.2004 91.5669 32.2426C91.5498 32.2848 91.5411 32.33 91.5415 32.3755V35.5207C91.5402 35.5368 91.5402 35.553 91.5415 35.5692V38.3404H89.7445C89.6989 38.3401 89.6537 38.3489 89.6114 38.3661C89.5692 38.3833 89.5308 38.4087 89.4984 38.4407C89.466 38.4728 89.4402 38.5109 89.4226 38.5529C89.4049 38.5949 89.3957 38.6399 89.3955 38.6855V39.584H88.6932V38.6855C88.6927 38.5936 88.6558 38.5057 88.5906 38.441C88.5253 38.3763 88.437 38.3401 88.345 38.3404H86.4902C86.4446 38.3401 86.3994 38.3489 86.3571 38.3661C86.3149 38.3833 86.2765 38.4087 86.2441 38.4407C86.2117 38.4728 86.1859 38.5109 86.1683 38.5529C86.1506 38.5949 86.1414 38.6399 86.1412 38.6855V39.584H85.4347V38.6855C85.434 38.594 85.3973 38.5065 85.3324 38.4419C85.2676 38.3773 85.1798 38.3408 85.0882 38.3404H83.2342C83.1426 38.3408 83.0549 38.3773 82.99 38.4419C82.9252 38.5065 82.8884 38.594 82.8878 38.6855V39.584H82.1829V38.6855C82.1827 38.6399 82.1735 38.5949 82.1559 38.5529C82.1382 38.5109 82.1124 38.4728 82.08 38.4407C82.0476 38.4087 82.0092 38.3833 81.967 38.3661C81.9247 38.3489 81.8796 38.3401 81.8339 38.3404H80.0378V36.7542C80.0376 36.7086 80.0284 36.6635 80.0107 36.6215C79.9931 36.5796 79.9673 36.5415 79.9349 36.5094C79.9025 36.4774 79.8641 36.452 79.8219 36.4348C79.7796 36.4175 79.7344 36.4088 79.6888 36.409H78.3915C78.3 36.4095 78.2124 36.446 78.1476 36.5106C78.0829 36.5752 78.0464 36.6628 78.0459 36.7542V37.1613H77.8953V36.7542C77.895 36.7086 77.8858 36.6635 77.8682 36.6215C77.8505 36.5796 77.8247 36.5415 77.7923 36.5094C77.7599 36.4774 77.7215 36.452 77.6793 36.4348C77.6371 36.4175 77.5919 36.4088 77.5462 36.409H76.4286C76.3371 36.4095 76.2494 36.446 76.1847 36.5106C76.12 36.5752 76.0834 36.6628 76.083 36.7542V37.1613H75.9323V36.7542C75.9318 36.6623 75.8949 36.5744 75.8297 36.5097C75.7644 36.445 75.6761 36.4088 75.5841 36.409H74.4647C74.3726 36.4086 74.2839 36.4447 74.2183 36.5094C74.1528 36.5741 74.1156 36.6621 74.1149 36.7542V37.1613H73.9651V36.7542C73.9644 36.6627 73.9277 36.5752 73.8628 36.5106C73.798 36.4459 73.7102 36.4095 73.6186 36.409H72.3256C72.28 36.4088 72.2348 36.4175 72.1925 36.4348C72.1503 36.452 72.1119 36.4774 72.0795 36.5094C72.0471 36.5415 72.0213 36.5796 72.0037 36.6215C71.986 36.6635 71.9768 36.7086 71.9766 36.7542V69.6394C71.9762 69.6853 71.985 69.7308 72.0024 69.7733C72.0198 69.8158 72.0455 69.8544 72.078 69.8869C72.1105 69.9194 72.1491 69.9452 72.1916 69.9627C72.2341 69.9801 72.2796 69.989 72.3256 69.9888H123.651C123.697 69.989 123.743 69.9801 123.785 69.9627C123.828 69.9452 123.866 69.9194 123.899 69.8869C123.931 69.8544 123.957 69.8158 123.974 69.7733C123.992 69.7308 124 69.6853 124 69.6394V36.7558C124 36.7103 123.991 36.6652 123.973 36.6233C123.955 36.5813 123.93 36.5431 123.897 36.5111C123.865 36.4791 123.826 36.4537 123.784 36.4365C123.742 36.4192 123.697 36.4105 123.651 36.4107H122.355C122.263 36.4112 122.175 36.4476 122.11 36.5123C122.046 36.5769 122.009 36.6644 122.008 36.7558V37.163H121.858V36.7558C121.858 36.7102 121.849 36.6651 121.831 36.6231C121.813 36.581 121.788 36.5429 121.755 36.5108C121.723 36.4787 121.684 36.4534 121.642 36.4362C121.599 36.4191 121.554 36.4104 121.508 36.4107H120.389C120.297 36.4105 120.209 36.4467 120.144 36.5114C120.078 36.5761 120.041 36.664 120.041 36.7558V37.163H119.889V36.7558C119.889 36.6647 119.852 36.5774 119.788 36.5128C119.723 36.4483 119.636 36.4116 119.545 36.4107H118.425C118.38 36.4105 118.334 36.4192 118.292 36.4365C118.25 36.4537 118.212 36.4791 118.179 36.5111C118.147 36.5431 118.121 36.5813 118.103 36.6233C118.086 36.6652 118.076 36.7103 118.076 36.7558V37.163H117.926V36.7558C117.925 36.6645 117.889 36.5769 117.824 36.5123C117.759 36.4477 117.672 36.4112 117.58 36.4107H116.284C116.238 36.4104 116.193 36.4191 116.15 36.4362C116.108 36.4534 116.069 36.4787 116.037 36.5108C116.004 36.5429 115.979 36.581 115.961 36.6231C115.943 36.6651 115.934 36.7102 115.934 36.7558V38.3421H114.138C114.092 38.3418 114.047 38.3506 114.005 38.3678C113.962 38.385 113.924 38.4104 113.892 38.4424C113.859 38.4745 113.833 38.5126 113.816 38.5546C113.798 38.5966 113.789 38.6416 113.789 38.6872V39.5857H113.083V38.6872C113.082 38.5958 113.046 38.5083 112.981 38.4436C112.916 38.379 112.829 38.3425 112.737 38.3421H110.883C110.792 38.3425 110.704 38.379 110.639 38.4436C110.574 38.5082 110.538 38.5957 110.537 38.6872V39.5857H109.832V38.6872C109.832 38.6416 109.823 38.5966 109.805 38.5546C109.787 38.5126 109.762 38.4745 109.729 38.4424C109.697 38.4104 109.658 38.385 109.616 38.3678C109.574 38.3506 109.529 38.3418 109.483 38.3421H107.632C107.54 38.3418 107.451 38.378 107.386 38.4427C107.321 38.5074 107.284 38.5953 107.283 38.6872V39.5857H106.581V38.6872C106.581 38.6416 106.572 38.5966 106.554 38.5546C106.536 38.5126 106.511 38.4745 106.478 38.4424C106.446 38.4104 106.407 38.385 106.365 38.3678C106.323 38.3506 106.278 38.3418 106.232 38.3421H104.435V35.5709C104.436 35.5547 104.436 35.5385 104.435 35.5224V32.3772C104.436 32.3317 104.427 32.2865 104.41 32.2443C104.393 32.2021 104.367 32.1637 104.335 32.1312C104.303 32.0988 104.265 32.0729 104.223 32.0552C104.181 32.0375 104.136 32.0282 104.09 32.0278H101.944C101.899 32.0275 101.853 32.0362 101.81 32.0536C101.768 32.0709 101.729 32.0966 101.697 32.129C101.631 32.1951 101.595 32.2843 101.595 32.3772V33.2757H100.891V32.3755C100.891 32.3298 100.882 32.2846 100.865 32.2423C100.847 32.2001 100.822 32.1616 100.79 32.1292C100.758 32.0967 100.719 32.0709 100.677 32.0532C100.635 32.0356 100.59 32.0264 100.544 32.0261H98.6893C98.6437 32.0265 98.5986 32.0358 98.5566 32.0535C98.5146 32.0712 98.4765 32.0971 98.4445 32.1295C98.4125 32.162 98.3872 32.2004 98.37 32.2426C98.3529 32.2848 98.3442 32.33 98.3446 32.3755V33.274H97.6389V32.3755C97.6393 32.3296 97.6305 32.2841 97.6131 32.2417C97.5957 32.1992 97.5701 32.1606 97.5376 32.1281C97.4721 32.0629 97.3833 32.0262 97.2907 32.0261H95.4384C95.3925 32.0259 95.3469 32.0348 95.3044 32.0523C95.2619 32.0698 95.2233 32.0955 95.1908 32.128C95.1584 32.1605 95.1327 32.1991 95.1153 32.2416C95.0979 32.2841 95.0891 32.3296 95.0894 32.3755V33.274H94.3888V32.3755C94.3888 32.2826 94.3521 32.1934 94.2867 32.1273C94.2542 32.0949 94.2156 32.0692 94.173 32.0519C94.1305 32.0345 94.0849 32.0258 94.039 32.0261H91.8862ZM92.2361 32.7198H93.6832V33.6259C93.6852 33.717 93.7229 33.8036 93.7881 33.8672C93.8534 33.9307 93.941 33.9662 94.0322 33.966H95.4316C95.5238 33.9662 95.6123 33.9299 95.6778 33.865C95.7432 33.8002 95.7802 33.7121 95.7806 33.62V32.7198H96.9375V33.6259C96.9383 33.7174 96.9751 33.8049 97.0399 33.8696C97.1047 33.9343 97.1923 33.971 97.2839 33.9719H98.6825C98.7282 33.9721 98.7735 33.9634 98.8159 33.9461C98.8582 33.9288 98.8967 33.9034 98.9292 33.8713C98.9617 33.8392 98.9875 33.801 99.0052 33.7589C99.0229 33.7168 99.0322 33.6716 99.0324 33.6259V32.7198H100.188V33.6259C100.189 33.718 100.226 33.8061 100.291 33.871C100.357 33.9358 100.445 33.9721 100.537 33.9719H101.938C102.029 33.9712 102.117 33.9346 102.182 33.8698C102.246 33.805 102.283 33.7174 102.283 33.6259V32.7198H103.73V35.2215H92.2361V32.7198ZM92.2361 35.9151H103.736V43.8003H101.622V38.7552C101.622 37.9901 101.057 37.3203 100.311 37.3203C99.5652 37.3203 99 37.9876 99 38.7552V43.8003H96.9749V38.7552C96.9749 37.9901 96.4089 37.3203 95.6632 37.3203C94.9175 37.3203 94.3531 37.9876 94.3531 38.7552V43.8003H92.2361V35.9151ZM72.6712 37.1052H73.2671V37.5107C73.2675 37.6025 73.3044 37.6904 73.3697 37.7551C73.435 37.8198 73.5232 37.856 73.6152 37.8558H74.4613C74.5534 37.8561 74.6418 37.8199 74.7072 37.7552C74.7726 37.6905 74.8097 37.6026 74.8103 37.5107V37.1052H75.2309V37.5107C75.231 37.5563 75.2401 37.6015 75.2578 37.6436C75.2755 37.6857 75.3013 37.7239 75.3339 37.756C75.3664 37.7881 75.4049 37.8134 75.4473 37.8305C75.4897 37.8477 75.535 37.8563 75.5807 37.8558H76.4252C76.4708 37.8562 76.5161 37.8475 76.5585 37.8303C76.6008 37.8131 76.6393 37.7878 76.6718 37.7558C76.7043 37.7237 76.7301 37.6855 76.7478 37.6435C76.7655 37.6014 76.7748 37.5563 76.775 37.5107V37.1052H77.2006V37.5107C77.2013 37.6022 77.238 37.6897 77.3029 37.7543C77.3677 37.8189 77.4555 37.8554 77.5471 37.8558H78.3924C78.4844 37.8561 78.5728 37.8199 78.6382 37.7552C78.7036 37.6905 78.7407 37.6026 78.7414 37.5107V37.1052H79.3432V38.3421H72.6703L72.6712 37.1052ZM116.626 37.1052H117.228V37.5107C117.228 37.6026 117.265 37.6905 117.331 37.7552C117.396 37.8199 117.485 37.8561 117.577 37.8558H118.422C118.513 37.8554 118.601 37.8189 118.666 37.7543C118.731 37.6897 118.768 37.6022 118.768 37.5107V37.1052H119.194V37.5107C119.194 37.5563 119.203 37.6014 119.221 37.6435C119.239 37.6855 119.265 37.7237 119.297 37.7558C119.33 37.7878 119.368 37.8131 119.411 37.8303C119.453 37.8475 119.498 37.8562 119.544 37.8558H120.388C120.434 37.8563 120.479 37.8477 120.522 37.8305C120.564 37.8134 120.603 37.7881 120.635 37.756C120.668 37.7239 120.693 37.6857 120.711 37.6436C120.729 37.6015 120.738 37.5563 120.738 37.5107V37.1052H121.159V37.5107C121.159 37.6026 121.196 37.6905 121.262 37.7552C121.327 37.8199 121.416 37.8561 121.508 37.8558H122.354C122.446 37.856 122.534 37.8198 122.599 37.7551C122.665 37.6904 122.701 37.6025 122.702 37.5107V37.1052H123.304V38.3421H116.628L116.626 37.1052ZM95.6606 38.0131C95.9832 38.0131 96.2769 38.3165 96.2769 38.7552V43.779H95.0451V38.7552C95.0451 38.3165 95.3388 38.0131 95.6606 38.0131ZM100.308 38.0131C100.631 38.0131 100.925 38.3165 100.925 38.7552V43.779H99.6921V38.7552C99.6921 38.3165 99.9909 38.0131 100.308 38.0131ZM72.6712 39.0331H79.3441V45.8753H72.6712V39.0331ZM80.0395 39.0331H81.4866V39.9317C81.4864 39.9772 81.4952 40.0224 81.5124 40.0645C81.5296 40.1067 81.555 40.145 81.5871 40.1774C81.6192 40.2098 81.6574 40.2355 81.6994 40.2531C81.7415 40.2708 81.7866 40.28 81.8322 40.2802H83.2325C83.2783 40.2803 83.3237 40.2714 83.3661 40.2539C83.4084 40.2364 83.4469 40.2107 83.4793 40.1783C83.5116 40.1459 83.5372 40.1074 83.5546 40.0651C83.572 40.0228 83.5809 39.9774 83.5807 39.9317V39.0331H84.7383V39.9317C84.7381 39.9774 84.747 40.0228 84.7644 40.0651C84.7818 40.1074 84.8074 40.1459 84.8398 40.1783C84.8721 40.2107 84.9106 40.2364 84.9529 40.2539C84.9953 40.2714 85.0407 40.2803 85.0865 40.2802H86.4868C86.5324 40.28 86.5775 40.2708 86.6196 40.2531C86.6616 40.2355 86.6998 40.2098 86.7319 40.1774C86.764 40.145 86.7894 40.1067 86.8066 40.0645C86.8239 40.0224 86.8326 39.9772 86.8324 39.9317V39.0331H87.9884V39.9317C87.9883 40.0244 88.0251 40.1133 88.0905 40.179C88.1231 40.2114 88.1617 40.2371 88.2042 40.2545C88.2468 40.2718 88.2923 40.2806 88.3382 40.2802H89.7377C89.7836 40.2807 89.8291 40.2719 89.8715 40.2544C89.914 40.2368 89.9524 40.2109 89.9846 40.1782C90.017 40.1458 90.0427 40.1074 90.0602 40.0651C90.0778 40.0228 90.0867 39.9774 90.0867 39.9317V39.0331H91.5338V41.5315H80.0395V39.0331ZM104.432 39.0331H105.883V39.9317C105.883 39.9772 105.892 40.0224 105.909 40.0645C105.926 40.1067 105.952 40.145 105.984 40.1774C106.016 40.2098 106.054 40.2355 106.096 40.2531C106.138 40.2708 106.183 40.28 106.229 40.2802H107.628C107.674 40.2806 107.72 40.2718 107.762 40.2545C107.805 40.2371 107.843 40.2114 107.876 40.179C107.941 40.1133 107.978 40.0244 107.978 39.9317V39.0331H109.134V39.9317C109.134 39.9772 109.143 40.0224 109.16 40.0645C109.177 40.1067 109.202 40.145 109.235 40.1774C109.267 40.2098 109.305 40.2355 109.347 40.2531C109.389 40.2708 109.434 40.28 109.48 40.2802H110.88C110.926 40.2803 110.971 40.2714 111.013 40.2539C111.056 40.2364 111.094 40.2107 111.127 40.1783C111.159 40.1459 111.185 40.1074 111.202 40.0651C111.219 40.0228 111.228 39.9774 111.228 39.9317V39.0331H112.386V39.9317C112.386 39.9774 112.394 40.0228 112.412 40.0651C112.429 40.1074 112.455 40.1459 112.487 40.1783C112.52 40.2107 112.558 40.2364 112.6 40.2539C112.643 40.2714 112.688 40.2803 112.734 40.2802H114.134C114.18 40.28 114.225 40.2708 114.267 40.2531C114.309 40.2355 114.347 40.2098 114.379 40.1774C114.411 40.145 114.437 40.1067 114.454 40.0645C114.471 40.0224 114.48 39.9772 114.48 39.9317V39.0331H115.927V41.5315H104.432V39.0331ZM116.626 39.0331H123.301V45.8744H116.626V39.0331ZM80.0395 42.2285H91.5381V69.2943H80.0395V42.2285ZM104.432 42.2285H115.93V69.2943H104.432V47.3526C104.433 47.3499 104.433 47.3469 104.432 47.3442V42.2311V42.2285ZM92.2361 44.4939H103.736V46.9922H92.2361V44.4939ZM82.9133 44.5653C82.1685 44.5653 81.6033 45.2326 81.6033 46.0002V48.7569C81.603 48.8489 81.6392 48.9371 81.704 49.0024C81.7688 49.0677 81.8568 49.1048 81.9488 49.1055H83.8752C83.9678 49.1055 84.0565 49.0688 84.122 49.0034C84.1874 48.938 84.2242 48.8494 84.2242 48.7569V46.0028C84.2242 45.2352 83.6581 44.5679 82.9133 44.5679V44.5653ZM88.6626 44.5653C87.9177 44.5653 87.3517 45.2326 87.3517 46.0002V48.7569C87.3517 48.8028 87.3607 48.8482 87.3783 48.8905C87.3959 48.9329 87.4217 48.9713 87.4542 49.0037C87.4867 49.0361 87.5253 49.0617 87.5677 49.0792C87.6102 49.0966 87.6556 49.1056 87.7015 49.1055H89.6279C89.7204 49.1055 89.8092 49.0688 89.8747 49.0034C89.9401 48.938 89.9769 48.8494 89.9769 48.7569V46.0028C89.9769 45.2352 89.4082 44.5679 88.6626 44.5679V44.5653ZM107.305 44.5653C106.559 44.5653 105.993 45.2326 105.993 46.0002V48.7569C105.993 48.8489 106.03 48.937 106.095 49.0022C106.159 49.0675 106.247 49.1046 106.339 49.1055H108.266C108.358 49.1055 108.447 49.0688 108.513 49.0034C108.578 48.938 108.615 48.8494 108.615 48.7569V46.0028C108.617 45.2352 108.052 44.5679 107.312 44.5679L107.305 44.5653ZM113.054 44.5653C112.309 44.5653 111.743 45.2326 111.743 46.0002V48.7569C111.743 48.8027 111.752 48.8481 111.769 48.8904C111.786 48.9327 111.812 48.9712 111.844 49.0036C111.877 49.036 111.915 49.0617 111.958 49.0791C112 49.0966 112.045 49.1056 112.091 49.1055H114.018C114.11 49.1048 114.198 49.0677 114.263 49.0024C114.328 48.9371 114.364 48.8489 114.364 48.7569V46.0028C114.367 45.2352 113.801 44.5679 113.057 44.5679L113.054 44.5653ZM82.9108 45.259C83.2334 45.259 83.527 45.5616 83.527 46.0002V48.4169H82.2953V46.0028C82.2979 45.5641 82.5915 45.2615 82.9133 45.2615L82.9108 45.259ZM88.66 45.259C88.9826 45.259 89.2763 45.5616 89.2763 46.0002V48.4169H88.0471V46.0028C88.0497 45.5641 88.3408 45.2615 88.6626 45.2615L88.66 45.259ZM107.302 45.259C107.624 45.259 107.914 45.5616 107.914 46.0002V48.4169H106.686V46.0028C106.691 45.5641 106.985 45.2615 107.312 45.2615L107.302 45.259ZM113.051 45.259C113.374 45.259 113.667 45.5616 113.667 46.0002V48.4169H112.435V46.0028C112.44 45.5641 112.734 45.2615 113.057 45.2615L113.051 45.259ZM72.6661 46.568H79.339V69.2943H72.6661V46.568ZM116.621 46.568H123.296V69.2943H116.621V46.568ZM92.2309 47.6893H103.736V69.2943H102.136V52.4725C102.136 52.427 102.127 52.3819 102.109 52.3399C102.091 52.298 102.065 52.2598 102.033 52.2278C102.001 52.1957 101.962 52.1704 101.92 52.1532C101.878 52.1359 101.833 52.1272 101.787 52.1274H94.1829C94.1372 52.1272 94.092 52.1359 94.0498 52.1532C94.0076 52.1704 93.9692 52.1957 93.9368 52.2278C93.9043 52.2598 93.8786 52.298 93.8609 52.3399C93.8433 52.3819 93.8341 52.427 93.8338 52.4725V69.2969H92.2361L92.2309 47.6893ZM94.5293 52.8185H101.438V69.2943H100.914V56.9251C100.901 56.1579 100.587 55.4265 100.039 54.8885C99.491 54.3506 98.7533 54.0491 97.9849 54.0491C97.2165 54.0491 96.4788 54.3506 95.9308 54.8885C95.3829 55.4265 95.0685 56.1579 95.0554 56.9251V69.2969H94.5319L94.5293 52.8185ZM97.9819 54.6886C98.2758 54.6871 98.5671 54.7437 98.8389 54.8553C99.1107 54.9669 99.3577 55.1312 99.5655 55.3387C99.7733 55.5462 99.9378 55.7928 100.05 56.0643C100.161 56.3357 100.218 56.6266 100.216 56.92V69.2918H95.7474V56.9251C95.7458 56.6314 95.8027 56.3404 95.9146 56.0688C96.0264 55.7972 96.1912 55.5504 96.3993 55.3429C96.6074 55.1353 96.8546 54.9711 97.1267 54.8596C97.3988 54.7482 97.6904 54.6918 97.9845 54.6937L97.9819 54.6886ZM82.9108 56.9914C82.1659 56.9914 81.6007 57.6621 81.6007 58.4306V61.1856C81.6005 61.2775 81.6367 61.3656 81.7015 61.4308C81.7663 61.496 81.8543 61.5328 81.9463 61.5333H83.8726C83.9185 61.5339 83.964 61.5252 84.0064 61.5079C84.0488 61.4905 84.0873 61.4647 84.1195 61.4321C84.1519 61.3998 84.1777 61.3614 84.1952 61.319C84.2127 61.2767 84.2217 61.2314 84.2217 61.1856V58.4306C84.2242 57.6672 83.6581 56.9965 82.9133 56.9965L82.9108 56.9914ZM88.66 56.9914C87.9152 56.9914 87.3491 57.6621 87.3491 58.4306V61.1856C87.349 61.2314 87.358 61.2768 87.3755 61.3192C87.3931 61.3615 87.4189 61.4 87.4514 61.4323C87.4839 61.4647 87.5226 61.4902 87.5651 61.5076C87.6076 61.5249 87.6531 61.5336 87.699 61.5333H89.6253C89.6711 61.5335 89.7166 61.5247 89.7589 61.5073C89.8013 61.4899 89.8398 61.4643 89.8723 61.432C89.9047 61.3997 89.9305 61.3613 89.948 61.319C89.9655 61.2767 89.9744 61.2314 89.9743 61.1856V58.4306C89.9769 57.6672 89.4082 56.9965 88.6626 56.9965L88.66 56.9914ZM107.302 56.9914C106.556 56.9914 105.99 57.6621 105.99 58.4306V61.1856C105.99 61.2775 106.027 61.3657 106.092 61.4309C106.157 61.496 106.245 61.5328 106.337 61.5333H108.263C108.309 61.5335 108.354 61.5247 108.397 61.5073C108.439 61.4899 108.478 61.4643 108.51 61.432C108.543 61.3997 108.568 61.3613 108.586 61.319C108.603 61.2767 108.612 61.2314 108.612 61.1856V58.4306C108.617 57.6672 108.052 56.9965 107.312 56.9965L107.302 56.9914ZM113.051 56.9914C112.307 56.9914 111.74 57.6621 111.74 58.4306V61.1856C111.74 61.2314 111.749 61.2767 111.766 61.3191C111.784 61.3614 111.809 61.3999 111.842 61.4322C111.874 61.4646 111.913 61.4902 111.955 61.5075C111.997 61.5249 112.043 61.5336 112.089 61.5333H114.016C114.108 61.5328 114.196 61.496 114.261 61.4308C114.325 61.3656 114.362 61.2775 114.361 61.1856V58.4306C114.367 57.6672 113.801 56.9965 113.057 56.9965L113.051 56.9914ZM82.9082 57.6893C83.2308 57.6893 83.5245 57.992 83.5245 58.4306V60.8362H82.2927V58.4306C82.2978 57.9971 82.5915 57.6944 82.9133 57.6944L82.9082 57.6893ZM88.6574 57.6893C88.9801 57.6893 89.2738 57.992 89.2738 58.4306V60.8362H88.0446V58.4306C88.0497 57.9971 88.3408 57.6944 88.6626 57.6944L88.6574 57.6893ZM107.3 57.6893C107.621 57.6893 107.912 57.992 107.912 58.4306V60.8362H106.683V58.4306C106.691 57.9971 106.985 57.6944 107.312 57.6944L107.3 57.6893ZM113.049 57.6893C113.371 57.6893 113.664 57.992 113.664 58.4306V60.8362H112.433V58.4306C112.44 57.9971 112.734 57.6944 113.057 57.6944L113.049 57.6893Z" fill="#1C1C1A"/>
<path d="M11.2066 0.000357995H11.1836C11.0993 0.0103141 11.0216 0.0504937 10.9648 0.113417L6.56305 4.93919C6.52481 4.98037 6.49711 5.03015 6.48229 5.08432C6.46747 5.13849 6.46596 5.19544 6.47792 5.25031L7.39812 9.17162V12.7147H4.92441C4.85511 12.714 4.78719 12.7341 4.72937 12.7723C4.67155 12.8104 4.62646 12.865 4.59986 12.9289C4.57325 12.9928 4.56636 13.0632 4.58005 13.131C4.59374 13.1988 4.62739 13.2611 4.67671 13.3097C4.70894 13.3425 4.74752 13.3685 4.7901 13.3861C4.83267 13.4036 4.87836 13.4123 4.92441 13.4117H6.1536V15.4824H4.92441C4.87859 15.4822 4.83317 15.4911 4.79078 15.5084C4.74839 15.5258 4.70988 15.5514 4.67744 15.5837C4.64499 15.616 4.61928 15.6544 4.60177 15.6967C4.58426 15.739 4.5753 15.7844 4.57542 15.8301C4.57587 15.9222 4.61286 16.0103 4.67829 16.0752C4.74372 16.14 4.83222 16.1763 4.92441 16.1761H6.1536V22.8295H3.66119C3.56862 22.8295 3.47985 22.8662 3.4144 22.9316C3.34895 22.9969 3.31217 23.0856 3.31217 23.178C3.31217 23.2704 3.34895 23.3591 3.4144 23.4245C3.47985 23.4898 3.56862 23.5265 3.66119 23.5265H5.20788V26.1617H3.66119C3.61419 26.1594 3.5672 26.1666 3.52309 26.183C3.47898 26.1993 3.43865 26.2245 3.40457 26.2569C3.37048 26.2893 3.34333 26.3282 3.32478 26.3714C3.30624 26.4146 3.29669 26.4611 3.29669 26.5081C3.29669 26.5551 3.30624 26.6016 3.32478 26.6448C3.34333 26.688 3.37048 26.7269 3.40457 26.7593C3.43865 26.7917 3.47898 26.8169 3.52309 26.8332C3.5672 26.8496 3.61419 26.8568 3.66119 26.8545H5.20788V64.9422H2.64223C2.59629 64.9418 2.55074 64.9505 2.50821 64.9679C2.46568 64.9852 2.42704 65.0109 2.39453 65.0433C2.32912 65.1091 2.2924 65.198 2.29239 65.2907V67.1089H0.345592C0.254207 67.1098 0.166833 67.1465 0.102211 67.211C0.0375893 67.2755 0.000891508 67.3628 4.2148e-06 67.4541V69.6506C-0.000449073 69.7427 0.0356761 69.8312 0.100465 69.8967C0.165255 69.9622 0.253402 69.9993 0.345592 70H74.3728C74.4188 70.0002 74.4644 69.9913 74.5069 69.9738C74.5494 69.9563 74.588 69.9305 74.6205 69.898C74.686 69.8323 74.7227 69.7433 74.7227 69.6506V67.4541C74.722 67.362 74.6848 67.274 74.6192 67.2093C74.5536 67.1446 74.465 67.1085 74.3728 67.1089H72.426V65.2907C72.4265 65.2448 72.4178 65.1993 72.4004 65.1568C72.383 65.1143 72.3573 65.0757 72.3248 65.0432C72.2923 65.0108 72.2536 64.9851 72.2111 64.9678C72.1685 64.9504 72.123 64.9417 72.077 64.9422H69.5165V26.8596H71.0589C71.1286 26.8611 71.1971 26.8415 71.2555 26.8035C71.3139 26.7655 71.3594 26.7108 71.3862 26.6465C71.4129 26.5823 71.4196 26.5114 71.4054 26.4433C71.3913 26.3751 71.3568 26.3129 71.3066 26.2646C71.2744 26.2317 71.2358 26.2057 71.1933 26.1882C71.1507 26.1707 71.105 26.1619 71.0589 26.1626H69.5165V23.5274H71.0589C71.1049 23.5278 71.1504 23.519 71.1929 23.5017C71.2355 23.4843 71.2741 23.4586 71.3066 23.4262C71.3721 23.3605 71.4089 23.2716 71.4088 23.1789C71.4092 23.133 71.4002 23.0874 71.3825 23.0451C71.3648 23.0027 71.3387 22.9644 71.3058 22.9323C71.2734 22.8999 71.2349 22.8743 71.1925 22.8568C71.1502 22.8392 71.1048 22.8303 71.0589 22.8303H68.5716V16.1701H69.7991C69.8912 16.1701 69.9795 16.1336 70.0447 16.0686C70.1098 16.0035 70.1464 15.9153 70.1464 15.8233C70.1464 15.7313 70.1098 15.6431 70.0447 15.5781C69.9795 15.513 69.8912 15.4765 69.7991 15.4765H68.5716V13.4058H69.7991C69.845 13.4061 69.8906 13.3974 69.9331 13.38C69.9756 13.3627 70.0143 13.337 70.0468 13.3046C70.1122 13.2388 70.1489 13.1499 70.149 13.0572C70.1487 13.0116 70.1395 12.9664 70.1218 12.9243C70.1041 12.8822 70.0782 12.844 70.0458 12.8119C70.0133 12.7798 69.9748 12.7543 69.9324 12.7371C69.8901 12.7198 69.8448 12.711 69.7991 12.7113H67.3254V9.17672L68.2464 5.25201C68.2588 5.19715 68.2574 5.14012 68.2426 5.08588C68.2278 5.03165 68.1999 4.98186 68.1613 4.94089L63.7604 0.115119C63.7284 0.0789381 63.6891 0.0499612 63.6451 0.0301131C63.6011 0.010265 63.5533 0 63.505 0C63.4567 0 63.409 0.010265 63.3649 0.0301131C63.3209 0.0499612 63.2816 0.0789381 63.2496 0.115119L58.8488 4.94089C58.8106 4.9821 58.7829 5.0319 58.7681 5.08605C58.7533 5.14021 58.7517 5.19714 58.7636 5.25201L59.6847 9.17672V12.7147H57.2101C57.163 12.7123 57.1159 12.7196 57.0717 12.736C57.0274 12.7524 56.987 12.7776 56.9529 12.8101C56.9187 12.8425 56.8915 12.8816 56.8729 12.9249C56.8543 12.9682 56.8447 13.0148 56.8447 13.0619C56.8447 13.109 56.8543 13.1556 56.8729 13.1989C56.8915 13.2422 56.9187 13.2813 56.9529 13.3138C56.987 13.3462 57.0274 13.3714 57.0717 13.3878C57.1159 13.4042 57.163 13.4115 57.2101 13.4092H58.4393V15.4799H57.2101C57.118 15.4799 57.0296 15.5164 56.9645 15.5815C56.8994 15.6465 56.8628 15.7347 56.8628 15.8267C56.8628 15.9187 56.8994 16.0069 56.9645 16.072C57.0296 16.137 57.118 16.1735 57.2101 16.1735H58.4393V22.8269H55.9477C55.9019 22.8269 55.8565 22.836 55.8141 22.8535C55.7718 22.871 55.7333 22.8967 55.7009 22.929C55.6685 22.9614 55.6428 22.9998 55.6253 23.0421C55.6077 23.0844 55.5987 23.1297 55.5987 23.1755C55.5982 23.2214 55.607 23.2669 55.6243 23.3094C55.6417 23.3519 55.6674 23.3905 55.6999 23.4229C55.7324 23.4554 55.7711 23.481 55.8136 23.4984C55.8562 23.5157 55.9018 23.5244 55.9477 23.524H57.491V26.1592H55.9477C55.8556 26.1592 55.7673 26.1957 55.7021 26.2607C55.637 26.3258 55.6004 26.414 55.6004 26.506C55.6004 26.598 55.637 26.6862 55.7021 26.7512C55.7673 26.8163 55.8556 26.8528 55.9477 26.8528H57.491V64.9396H56.6014V42.9146C56.6027 42.9002 56.6027 42.8857 56.6014 42.8713C56.6027 42.8563 56.6027 42.8412 56.6014 42.8262V38.7145C56.6016 38.6687 56.5926 38.6234 56.5751 38.5811C56.5576 38.5388 56.5319 38.5004 56.4994 38.4681C56.467 38.4358 56.4285 38.4102 56.3861 38.3928C56.3437 38.3754 56.2983 38.3666 56.2525 38.3668H53.5489V34.023H53.8673C53.9365 34.0235 54.0043 34.0033 54.062 33.9651C54.1197 33.9268 54.1647 33.8723 54.1912 33.8084C54.2177 33.7446 54.2245 33.6743 54.2107 33.6065C54.197 33.5387 54.1634 33.4766 54.1141 33.428C54.0484 33.3632 53.9597 33.3268 53.8673 33.3268H53.5489V30.1612H53.8673C53.9144 30.1636 53.9615 30.1563 54.0057 30.1399C54.0499 30.1235 54.0903 30.0983 54.1245 30.0658C54.1587 30.0333 54.1859 29.9943 54.2045 29.951C54.2231 29.9077 54.2326 29.8611 54.2326 29.814C54.2326 29.7669 54.2231 29.7203 54.2045 29.677C54.1859 29.6337 54.1587 29.5946 54.1245 29.5621C54.0903 29.5297 54.0499 29.5045 54.0057 29.4881C53.9615 29.4717 53.9144 29.4644 53.8673 29.4667H53.5489V28.1772C53.5506 28.1551 53.5506 28.133 53.5489 28.1109V24.4556C53.5506 24.433 53.5506 24.4103 53.5489 24.3876V24.0765C53.5489 22.8014 52.5096 21.5986 51.5298 20.6618C51.1476 20.2972 50.7832 19.9937 50.4598 19.7353C50.4571 19.7322 50.4543 19.7294 50.4512 19.7268C50.4297 19.7046 50.4051 19.6857 50.378 19.6707C49.9133 19.3043 49.5711 19.0663 49.5711 19.0663C49.516 19.0303 49.4521 19.0103 49.3864 19.0085C49.3139 19.006 49.2425 19.0262 49.1821 19.0663C48.4903 19.5486 47.8358 20.0823 47.2242 20.6627C46.2436 21.5978 45.2051 22.8006 45.2051 24.0765V29.4659H44.8825C44.7899 29.4659 44.7011 29.5026 44.6356 29.5679C44.603 29.6 44.5772 29.6385 44.5598 29.6808C44.5423 29.7232 44.5337 29.7686 44.5343 29.8144C44.5347 29.9063 44.5716 29.9943 44.6369 30.0591C44.7021 30.124 44.7904 30.1604 44.8825 30.1604H45.2051V33.3209H44.8825C44.7903 33.3209 44.702 33.3574 44.6369 33.4225C44.5717 33.4875 44.5351 33.5757 44.5351 33.6677C44.5351 33.7597 44.5717 33.8479 44.6369 33.913C44.702 33.978 44.7903 34.0145 44.8825 34.0145H45.2051V38.3583H43.0182V32.1478H43.5996C43.6924 32.1478 43.7814 32.111 43.847 32.0455C43.9126 31.98 43.9495 31.8911 43.9495 31.7984C43.9495 31.7058 43.9126 31.6169 43.847 31.5514C43.7814 31.4859 43.6924 31.4491 43.5996 31.4491H43.0182V26.8537H43.5996C43.6917 26.8537 43.7801 26.8171 43.8452 26.7521C43.9104 26.687 43.9469 26.5988 43.9469 26.5068C43.9469 26.4148 43.9104 26.3266 43.8452 26.2616C43.7801 26.1965 43.6917 26.16 43.5996 26.16H43.0182V24.2508C43.0216 24.2225 43.0216 24.194 43.0182 24.1658V19.1377C43.0216 19.1114 43.0216 19.0849 43.0182 19.0586V18.6277C43.0182 16.9505 41.6086 15.3124 40.2568 14.0314C39.7248 13.5282 39.2157 13.1099 38.7663 12.7563L38.7578 12.7453C38.7327 12.7204 38.704 12.6994 38.6726 12.6832C38.0283 12.18 37.5541 11.8544 37.5541 11.8544C37.4992 11.8173 37.4348 11.7966 37.3686 11.7949C37.2966 11.7937 37.2259 11.8145 37.166 11.8544C36.2123 12.5109 35.3097 13.2383 34.4658 14.0305C33.1149 15.3056 31.7019 16.9496 31.7019 18.6277V26.1592H31.1256C31.0335 26.1592 30.9451 26.1957 30.88 26.2607C30.8149 26.3258 30.7783 26.414 30.7783 26.506C30.7783 26.598 30.8149 26.6862 30.88 26.7512C30.9451 26.8163 31.0335 26.8528 31.1256 26.8528H31.7044V31.4491H31.1256C31.0568 31.4497 30.9897 31.4704 30.9327 31.5088C30.8757 31.5472 30.8312 31.6014 30.8048 31.6648C30.7784 31.7282 30.7713 31.798 30.7842 31.8654C30.7972 31.9329 30.8298 31.995 30.8779 32.0441C30.9437 32.1094 31.0328 32.1461 31.1256 32.1461H31.7044V38.3583H29.521V34.0145H29.8393C29.8863 34.0169 29.9333 34.0096 29.9774 33.9933C30.0215 33.9769 30.0619 33.9518 30.096 33.9194C30.13 33.887 30.1572 33.848 30.1757 33.8048C30.1943 33.7616 30.2038 33.7151 30.2038 33.6681C30.2038 33.6211 30.1943 33.5746 30.1757 33.5315C30.1572 33.4883 30.13 33.4493 30.096 33.4169C30.0619 33.3845 30.0215 33.3594 29.9774 33.343C29.9333 33.3266 29.8863 33.3194 29.8393 33.3217H29.521V30.1612H29.8393C29.8864 30.1636 29.9335 30.1563 29.9778 30.1399C30.022 30.1235 30.0624 30.0983 30.0966 30.0658C30.1307 30.0333 30.158 29.9943 30.1765 29.951C30.1951 29.9077 30.2047 29.8611 30.2047 29.814C30.2047 29.7669 30.1951 29.7203 30.1765 29.677C30.158 29.6337 30.1307 29.5946 30.0966 29.5621C30.0624 29.5297 30.022 29.5045 29.9778 29.4881C29.9335 29.4717 29.8864 29.4644 29.8393 29.4667H29.521V28.1772C29.5227 28.1551 29.5227 28.133 29.521 28.1109V24.4556C29.5227 24.433 29.5227 24.4103 29.521 24.3876V24.0774C29.521 22.8023 28.4816 21.5995 27.5018 20.6627C27.1196 20.298 26.7553 19.9945 26.4318 19.7361L26.4233 19.7276C26.4015 19.7058 26.3768 19.687 26.3501 19.6715C25.8853 19.3043 25.5431 19.0671 25.5431 19.0671C25.4852 19.0293 25.4174 19.0092 25.3482 19.0092C25.279 19.0092 25.2113 19.0293 25.1533 19.0671C24.4616 19.5496 23.8071 20.0832 23.1954 20.6635C22.2148 21.5986 21.1763 22.8014 21.1763 24.0774V29.4667H20.8537C20.7616 29.4667 20.6732 29.5033 20.6081 29.5683C20.543 29.6334 20.5064 29.7216 20.5064 29.8136C20.5064 29.9055 20.543 29.9937 20.6081 30.0588C20.6732 30.1238 20.7616 30.1604 20.8537 30.1604H21.1763V33.3217H20.8537C20.7616 33.3217 20.6732 33.3583 20.6081 33.4233C20.543 33.4884 20.5064 33.5766 20.5064 33.6686C20.5064 33.7605 20.543 33.8488 20.6081 33.9138C20.6732 33.9788 20.7616 34.0154 20.8537 34.0154H21.1763V38.3592H18.4693C18.4235 38.359 18.3781 38.3678 18.3357 38.3852C18.2933 38.4025 18.2548 38.4281 18.2223 38.4605C18.1899 38.4928 18.1642 38.5312 18.1467 38.5735C18.1292 38.6158 18.1202 38.6611 18.1203 38.7068V42.8186C18.1195 42.833 18.1195 42.8475 18.1203 42.8619C18.1195 42.8769 18.1195 42.892 18.1203 42.907V64.932H17.2299V26.8494H18.7826C18.8747 26.8494 18.963 26.8129 19.0282 26.7478C19.0933 26.6828 19.1299 26.5946 19.1299 26.5026C19.1299 26.4106 19.0933 26.3224 19.0282 26.2573C18.963 26.1923 18.8747 26.1558 18.7826 26.1558H17.2359V23.5206H18.7826C18.8752 23.5206 18.9639 23.4839 19.0294 23.4185C19.0948 23.3531 19.1316 23.2645 19.1316 23.1721C19.1316 23.0796 19.0948 22.991 19.0294 22.9256C18.9639 22.8603 18.8752 22.8235 18.7826 22.8235H16.2885V16.1701H17.5211C17.6132 16.1701 17.7015 16.1336 17.7666 16.0686C17.8318 16.0035 17.8684 15.9153 17.8684 15.8233C17.8684 15.7313 17.8318 15.6431 17.7666 15.5781C17.7015 15.513 17.6132 15.4765 17.5211 15.4765H16.2885V13.4058H17.5211C17.6103 13.4013 17.6944 13.3628 17.756 13.2982C17.8176 13.2336 17.852 13.1477 17.852 13.0585C17.852 12.9693 17.8176 12.8835 17.756 12.8188C17.6944 12.7542 17.6103 12.7157 17.5211 12.7113H15.0371V9.19287L15.9582 5.25201C15.9702 5.19714 15.9688 5.14018 15.9539 5.086C15.9391 5.03181 15.9114 4.98202 15.8731 4.94089L11.473 0.115119C11.4394 0.0780257 11.3983 0.0485754 11.3523 0.0287745C11.3063 0.00897366 11.2566 -0.00071721 11.2066 0.000357995ZM11.2202 0.860615L15.2414 5.27156L14.4208 8.77209H8.02294L7.19892 5.27581L11.2202 0.860615ZM63.5042 0.860615L67.5254 5.27156L66.7074 8.77209H60.306L59.4855 5.27156L63.5042 0.860615ZM8.10124 9.48444H14.3468V12.7147H8.10124V9.48444ZM60.381 9.48444H66.6308V12.7147H60.381V9.48444ZM37.3677 12.588C37.4375 12.6356 37.6733 12.7988 37.9763 13.0232L37.4324 13.5486L36.8289 12.9697C37.0953 12.7767 37.3047 12.6297 37.3677 12.5889V12.588ZM36.2739 13.3947L36.9319 14.0297L35.9146 15.0132L35.2115 14.3026C35.6025 13.9489 35.9566 13.6463 36.2739 13.3947ZM6.85587 13.4032H7.62198C7.66457 13.4211 7.71029 13.4303 7.75649 13.4304H14.6966C14.7423 13.43 14.7874 13.4208 14.8294 13.4032H15.5956V15.4773H6.85587V13.4032ZM59.1356 13.4032H59.9017C59.9446 13.421 59.9906 13.4302 60.0371 13.4304H66.9772C67.024 13.4303 67.0702 13.4211 67.1134 13.4032H67.8795V15.4773H59.1356V13.4032ZM38.5288 13.4517C38.848 13.7067 39.2004 14.0067 39.5886 14.3629L38.9493 15.0115L37.9355 14.0322L38.5288 13.4517ZM8.53538 13.7449C8.44363 13.7449 8.35558 13.7811 8.29038 13.8456C8.22519 13.91 8.18812 13.9976 8.18722 14.0892V14.7862C8.18722 14.8782 8.22382 14.9664 8.28895 15.0315C8.35408 15.0965 8.44242 15.1331 8.53453 15.1331C8.62664 15.1331 8.71498 15.0965 8.78012 15.0315C8.84525 14.9664 8.88182 14.8782 8.88182 14.7862V14.0892C8.88005 13.9985 8.84281 13.912 8.77808 13.8483C8.71334 13.7846 8.62626 13.7488 8.53538 13.7483V13.7449ZM9.87777 13.7449C9.78631 13.7454 9.69872 13.7817 9.63389 13.8462C9.56906 13.9106 9.53222 13.9979 9.53133 14.0892V14.7862C9.53133 14.8782 9.56791 14.9664 9.63304 15.0315C9.69817 15.0965 9.78651 15.1331 9.87862 15.1331C9.97073 15.1331 10.0591 15.0965 10.1242 15.0315C10.1893 14.9664 10.2259 14.8782 10.2259 14.7862V14.0892C10.2242 13.9982 10.1867 13.9115 10.1216 13.8477C10.0565 13.784 9.96894 13.7483 9.87777 13.7483V13.7449ZM11.2219 13.7449C11.1314 13.7467 11.0452 13.7837 10.9816 13.848C10.918 13.9123 10.882 13.9988 10.8814 14.0892V14.7862C10.8814 14.8782 10.918 14.9664 10.9831 15.0315C11.0482 15.0965 11.1366 15.1331 11.2287 15.1331C11.3208 15.1331 11.4091 15.0965 11.4743 15.0315C11.5394 14.9664 11.576 14.8782 11.576 14.7862V14.0892C11.5742 13.9971 11.5359 13.9095 11.4695 13.8456C11.4032 13.7817 11.3141 13.7467 11.2219 13.7483V13.7449ZM12.5677 13.7449C12.4762 13.7454 12.3886 13.7817 12.3238 13.8462C12.259 13.9106 12.2221 13.9979 12.2212 14.0892V14.7862C12.2212 14.8782 12.2578 14.9664 12.323 15.0315C12.3881 15.0965 12.4764 15.1331 12.5685 15.1331C12.6607 15.1331 12.749 15.0965 12.8141 15.0315C12.8793 14.9664 12.9159 14.8782 12.9159 14.7862V14.0892C12.9141 13.9983 12.8767 13.9118 12.8118 13.848C12.7469 13.7843 12.6596 13.7485 12.5685 13.7483L12.5677 13.7449ZM13.9118 13.7449C13.8198 13.7445 13.7314 13.7805 13.666 13.845C13.6006 13.9095 13.5635 13.9974 13.5628 14.0892V14.7862C13.5628 14.8787 13.5996 14.9673 13.665 15.0327C13.7305 15.0981 13.8192 15.1348 13.9118 15.1348C14.0044 15.1348 14.0931 15.0981 14.1586 15.0327C14.224 14.9673 14.2608 14.8787 14.2608 14.7862V14.0892C14.259 13.998 14.2214 13.9112 14.1562 13.8474C14.0909 13.7837 14.0031 13.7481 13.9118 13.7483V13.7449ZM60.8151 13.7449C60.7236 13.7454 60.6361 13.7817 60.5712 13.8462C60.5064 13.9106 60.4695 13.9979 60.4686 14.0892V14.7862C60.4686 14.8785 60.5053 14.9669 60.5706 15.0321C60.6359 15.0973 60.7244 15.1339 60.8168 15.1339C60.9091 15.1339 60.9977 15.0973 61.063 15.0321C61.1283 14.9669 61.165 14.8785 61.165 14.7862V14.0892C61.1632 13.998 61.1256 13.9112 61.0603 13.8474C60.995 13.7837 60.9073 13.7481 60.816 13.7483L60.8151 13.7449ZM62.1601 13.7449C62.0688 13.7456 61.9813 13.7821 61.9167 13.8464C61.8521 13.9108 61.8153 13.998 61.8145 14.0892V14.7862C61.8145 14.8782 61.851 14.9664 61.9162 15.0315C61.9813 15.0965 62.0697 15.1331 62.1618 15.1331C62.2539 15.1331 62.3422 15.0965 62.4073 15.0315C62.4725 14.9664 62.5091 14.8782 62.5091 14.7862V14.0892C62.5073 13.9982 62.4698 13.9115 62.4047 13.8477C62.3396 13.784 62.2521 13.7483 62.1609 13.7483L62.1601 13.7449ZM63.505 13.7449C63.413 13.7445 63.3245 13.7804 63.2589 13.845C63.1934 13.9095 63.1561 13.9973 63.1552 14.0892V14.7862C63.1596 14.8758 63.1983 14.9603 63.2634 15.0221C63.3284 15.0839 63.4148 15.1184 63.5046 15.1184C63.5944 15.1184 63.6807 15.0839 63.7458 15.0221C63.8108 14.9603 63.8496 14.8758 63.854 14.7862V14.0892C63.8522 13.9982 63.8148 13.9115 63.7497 13.8477C63.6846 13.784 63.597 13.7483 63.5059 13.7483L63.505 13.7449ZM64.85 13.7449C64.7581 13.7447 64.6698 13.7808 64.6044 13.8453C64.539 13.9097 64.5019 13.9974 64.501 14.0892V14.7862C64.501 14.8787 64.5377 14.9673 64.6032 15.0327C64.6686 15.0981 64.7574 15.1348 64.85 15.1348C64.9426 15.1348 65.0313 15.0981 65.0968 15.0327C65.1622 14.9673 65.199 14.8787 65.199 14.7862V14.0892C65.1974 13.9981 65.16 13.9113 65.0949 13.8475C65.0297 13.7837 64.9421 13.7481 64.8508 13.7483L64.85 13.7449ZM66.1949 13.7449C66.103 13.7445 66.0146 13.7805 65.9492 13.845C65.8837 13.9095 65.8466 13.9974 65.8459 14.0892V14.7862C65.8503 14.8751 65.8888 14.959 65.9534 15.0203C66.0179 15.0817 66.1037 15.1159 66.1928 15.1159C66.2819 15.1159 66.3677 15.0817 66.4322 15.0203C66.4968 14.959 66.5353 14.8751 66.5397 14.7862V14.0892C66.5381 13.999 66.5015 13.9129 66.4374 13.8493C66.3734 13.7856 66.287 13.7494 66.1966 13.7483L66.1949 13.7449ZM37.4299 14.51L38.4598 15.5037L37.4299 16.5467L36.4033 15.5105L37.4299 14.51ZM34.7059 14.7743L35.4158 15.4926L34.2394 16.6283L33.6044 15.9967C33.9455 15.5687 34.3134 15.1627 34.7059 14.7811V14.7743ZM40.0925 14.839C40.4824 15.2254 40.8469 15.6366 41.1838 16.0698L40.6254 16.6266L39.4481 15.4901L40.0925 14.839ZM38.957 15.9925L40.1291 17.1256L39.0523 18.1975L37.9185 17.0499L38.957 15.9925ZM35.9002 15.9925L36.9438 17.0499L35.8074 18.1984L34.7306 17.1256L35.9002 15.9925ZM6.85333 16.1693H15.5904V22.8065H12.4034V17.6373C12.4038 17.5915 12.395 17.546 12.3776 17.5035C12.3603 17.461 12.3346 17.4224 12.3021 17.39C12.2363 17.3246 12.1472 17.2879 12.0544 17.288H10.3843C10.2921 17.2886 10.2039 17.3258 10.1391 17.3913C10.0743 17.4568 10.0382 17.5453 10.0387 17.6373V22.8074H6.85333V16.1693ZM59.1331 16.1693H67.8727V22.8065H64.6899V17.6373C64.6903 17.5915 64.6816 17.546 64.6642 17.5035C64.6468 17.461 64.6211 17.4224 64.5886 17.39C64.5228 17.3246 64.4338 17.2879 64.341 17.288H62.6708C62.578 17.288 62.4889 17.3246 62.4231 17.39C62.3906 17.4224 62.365 17.461 62.3476 17.5035C62.3302 17.546 62.3214 17.5915 62.3218 17.6373V22.8074H59.1356L59.1331 16.1693ZM33.1873 16.5714L33.7363 17.118L32.7574 18.0641L32.5471 17.8549C32.7018 17.4001 32.918 16.9685 33.1898 16.5722L33.1873 16.5714ZM41.589 16.6564C41.8584 17.0574 42.0678 17.4955 42.2104 17.957L42.1014 18.0649L41.1234 17.1197L41.589 16.6564ZM37.4282 17.5421L38.5612 18.6897L37.4282 19.8177L36.296 18.6897L37.4282 17.5421ZM34.2275 17.611L35.3162 18.6948L34.362 19.6613L33.2503 18.5562L34.2275 17.611ZM40.6297 17.611L41.6069 18.5546L40.4952 19.6596L39.5426 18.6948L40.6297 17.611ZM10.7367 17.985H11.7122V22.8074H10.7367V17.985ZM63.0198 17.985H63.9919V22.8074H63.0198V17.985ZM32.7523 19.0357L33.8768 20.1535L32.7838 21.2586L32.4773 20.9492C32.456 20.9277 32.432 20.9091 32.4058 20.8939V19.3638L32.4297 19.3426L32.7523 19.0357ZM42.11 19.0357L42.3262 19.2439V21.0112L42.0793 21.2603L40.9872 20.1552L42.11 19.0357ZM35.8108 19.181L36.9404 20.3057L35.9776 21.2637L34.8549 20.1484L35.8108 19.181ZM39.0549 19.181L40.0074 20.1459L38.8846 21.2611L37.9261 20.3057L39.0549 19.181ZM25.3499 19.8007C25.3908 19.8288 25.5406 19.941 25.6368 20.0098L25.3959 20.2462L25.115 19.9716C25.189 19.924 25.3193 19.8262 25.3525 19.8033L25.3499 19.8007ZM49.377 19.8007C49.417 19.8296 49.5668 19.9418 49.6638 20.0107L49.4238 20.2453L49.1429 19.9707C49.2161 19.924 49.3463 19.8262 49.3795 19.8033L49.377 19.8007ZM24.5566 20.3958L24.8971 20.7307L24.3012 21.3121L23.9309 20.9322C24.1624 20.7242 24.3718 20.5462 24.5591 20.3983L24.5566 20.3958ZM48.5836 20.3958L48.9241 20.7358L48.3283 21.3164L47.9571 20.9364C48.1892 20.7256 48.3989 20.5462 48.5862 20.3983L48.5836 20.3958ZM26.196 20.4374C26.3842 20.5904 26.5902 20.7706 26.8166 20.9781L26.4914 21.3113L25.8956 20.7307L26.196 20.4374ZM50.2231 20.4374C50.4113 20.5904 50.6164 20.7706 50.8428 20.9781L50.5185 21.3113L49.9226 20.7298L50.2231 20.4374ZM34.3688 20.6389L35.4882 21.7516L34.373 22.8626L33.2724 21.7508L34.3688 20.6389ZM40.4977 20.6389L41.5933 21.7482L40.4892 22.8643L39.3766 21.7593L40.4977 20.6389ZM37.4333 20.7936L38.3918 21.7499L37.4324 22.7028L36.4739 21.7499L37.4333 20.7936ZM25.3984 21.2152L26.0045 21.8103L25.3984 22.43L24.7932 21.8103L25.3984 21.2152ZM49.4272 21.2152L50.0324 21.8103L49.4272 22.43L48.8211 21.8103L49.4272 21.2152ZM23.4355 21.4099L23.8117 21.7958L23.1018 22.4895L22.7732 22.1579C22.9801 21.8983 23.2006 21.6497 23.4338 21.4133L23.4355 21.4099ZM47.4626 21.4099L47.8388 21.7958L47.1289 22.4903L46.8003 22.1596C47.0065 21.8989 47.227 21.6497 47.4608 21.4133L47.4626 21.4099ZM27.3197 21.46C27.552 21.699 27.771 21.9505 27.976 22.2132L27.701 22.4903L26.9902 21.7967L27.3197 21.46ZM51.3467 21.46C51.5788 21.6993 51.7979 21.9507 52.003 22.2132L51.7256 22.4903L51.0156 21.7967L51.3467 21.46ZM35.9776 22.2446L36.9361 23.1967L35.8074 24.3179L34.8591 23.3599L35.9776 22.2446ZM38.8804 22.2446L39.9972 23.3582L39.0472 24.3171L37.9219 23.1976L38.8804 22.2446ZM32.7787 22.2446L33.8768 23.3497L32.8485 24.3698L32.4305 23.9533L32.4024 23.9354V22.5107C32.4838 22.5035 32.56 22.468 32.6178 22.4104L32.7787 22.2446ZM42.0776 22.2446L42.2385 22.4079C42.2635 22.4325 42.2923 22.4532 42.3236 22.4691V24.0621L42.0087 24.3766L40.9804 23.3523L42.0776 22.2446ZM24.2944 22.2931L24.9107 22.9255L24.2297 23.6268L23.5904 22.9825L24.2944 22.2931ZM48.3206 22.2931L48.9378 22.9255L48.2568 23.6268L47.6183 22.9833L48.3206 22.2931ZM26.4999 22.2931L27.2056 22.9825L26.568 23.626L25.887 22.9247L26.4999 22.2931ZM50.527 22.2931L51.2327 22.9825L50.5943 23.626L49.9133 22.9247L50.527 22.2931ZM22.3612 22.7343L22.6004 22.9748L22.0326 23.5291L21.9909 23.4874C22.0868 23.2247 22.2119 22.9735 22.3638 22.7385L22.3612 22.7343ZM46.3874 22.7343L46.6266 22.9748L46.0589 23.5291L46.0171 23.4874C46.1134 23.2248 46.2385 22.9737 46.39 22.7385L46.3874 22.7343ZM28.3709 22.7946C28.5028 23.0072 28.6129 23.2324 28.6995 23.467L28.1939 22.9731L28.3709 22.7946ZM52.398 22.7946C52.5299 23.0072 52.64 23.2324 52.7266 23.467L52.221 22.9731L52.398 22.7946ZM25.3993 23.4254L26.0803 24.1216L25.3993 24.8076L24.7183 24.1216L25.3993 23.4254ZM49.4272 23.4254L50.1082 24.1216L49.4272 24.8076L48.7462 24.1216L49.4272 23.4254ZM23.0933 23.4713L23.7436 24.1267L23.1903 24.6937L22.5263 24.0264L23.0933 23.4713ZM27.7053 23.4713L28.2722 24.0264L27.6099 24.6911L27.0566 24.1258L27.7053 23.4713ZM47.1203 23.4713L47.7699 24.1267L47.2174 24.6937L46.5534 24.0264L47.1203 23.4713ZM51.7324 23.4713L52.2993 24.0264L51.6362 24.6911L51.0829 24.1258L51.7324 23.4713ZM5.9093 23.5197H16.5413V26.1549H5.9093V23.5197ZM58.1916 23.5197H68.8218V26.1549H58.195L58.1916 23.5197ZM37.4333 23.6897L38.5629 24.8127L37.4316 25.9534L36.3028 24.8144L37.4333 23.6897ZM34.3688 23.8521L35.3179 24.8101L34.2964 25.8234L33.3448 24.8705L34.3688 23.8521ZM40.4977 23.8521L41.5192 24.8722L40.5658 25.8242L39.5443 24.8042L40.4977 23.8521ZM8.53962 24.1454C8.44766 24.1451 8.35937 24.1814 8.2941 24.2461C8.22884 24.3108 8.19193 24.3987 8.19148 24.4905V25.1875C8.19148 25.2795 8.22806 25.3677 8.29319 25.4328C8.35832 25.4978 8.44666 25.5344 8.53877 25.5344C8.63088 25.5344 8.71922 25.4978 8.78436 25.4328C8.84949 25.3677 8.88608 25.2795 8.88608 25.1875V24.4905C8.88608 24.4446 8.87699 24.3992 8.85934 24.3569C8.84168 24.3145 8.81581 24.2761 8.78321 24.2437C8.75061 24.2114 8.71192 24.1859 8.66939 24.1686C8.62685 24.1512 8.58132 24.1425 8.53538 24.1428L8.53962 24.1454ZM9.88203 24.1454C9.79036 24.1456 9.70251 24.182 9.63761 24.2467C9.57271 24.3113 9.53604 24.399 9.53559 24.4905V25.1875C9.53559 25.2795 9.57217 25.3677 9.6373 25.4328C9.70243 25.4978 9.79077 25.5344 9.88288 25.5344C9.97499 25.5344 10.0633 25.4978 10.1285 25.4328C10.1936 25.3677 10.2302 25.2795 10.2302 25.1875V24.4905C10.2303 24.4445 10.2213 24.3988 10.2035 24.3563C10.1858 24.3138 10.1598 24.2752 10.127 24.2429C10.0942 24.2105 10.0552 24.185 10.0125 24.1678C9.96967 24.1506 9.92388 24.1421 9.87777 24.1428L9.88203 24.1454ZM11.2261 24.1454C11.1356 24.1474 11.0494 24.1845 10.9858 24.249C10.9222 24.3134 10.8863 24.4 10.8856 24.4905V25.1875C10.8856 25.2795 10.9222 25.3677 10.9874 25.4328C11.0525 25.4978 11.1408 25.5344 11.233 25.5344C11.3251 25.5344 11.4134 25.4978 11.4785 25.4328C11.5437 25.3677 11.5802 25.2795 11.5802 25.1875V24.4905C11.5803 24.444 11.5709 24.3979 11.5528 24.355C11.5347 24.3122 11.5081 24.2734 11.4747 24.241C11.4413 24.2086 11.4017 24.1832 11.3583 24.1663C11.3148 24.1494 11.2685 24.1415 11.2219 24.1428L11.2261 24.1454ZM12.572 24.1454C12.4804 24.1458 12.3926 24.1823 12.3278 24.2469C12.2629 24.3115 12.2262 24.399 12.2255 24.4905V25.1875C12.2255 25.2795 12.2621 25.3677 12.3272 25.4328C12.3924 25.4978 12.4807 25.5344 12.5728 25.5344C12.6649 25.5344 12.7533 25.4978 12.8184 25.4328C12.8835 25.3677 12.9201 25.2795 12.9201 25.1875V24.4905C12.9202 24.4445 12.9112 24.399 12.8935 24.3565C12.8758 24.3141 12.8499 24.2755 12.8172 24.2432C12.7845 24.2108 12.7457 24.1853 12.703 24.1681C12.6603 24.1508 12.6146 24.1423 12.5685 24.1428L12.572 24.1454ZM13.9161 24.1454C13.8705 24.1451 13.8252 24.1539 13.783 24.1711C13.7408 24.1883 13.7024 24.2137 13.67 24.2458C13.6376 24.2778 13.6118 24.3159 13.5941 24.3579C13.5765 24.3999 13.5673 24.445 13.567 24.4905V25.1875C13.567 25.28 13.6038 25.3686 13.6693 25.434C13.7347 25.4993 13.8235 25.5361 13.9161 25.5361C14.0086 25.5361 14.0974 25.4993 14.1629 25.434C14.2283 25.3686 14.2651 25.28 14.2651 25.1875V24.4905C14.2652 24.4444 14.2561 24.3987 14.2383 24.3561C14.2205 24.3136 14.1944 24.275 14.1615 24.2426C14.1286 24.2102 14.0896 24.1847 14.0467 24.1676C14.0039 24.1504 13.958 24.142 13.9118 24.1428L13.9161 24.1454ZM60.8194 24.1454C60.7278 24.1458 60.64 24.1823 60.5752 24.2469C60.5103 24.3115 60.4736 24.399 60.4729 24.4905V25.1875C60.4729 25.2798 60.5096 25.3682 60.5749 25.4334C60.6402 25.4986 60.7287 25.5352 60.8211 25.5352C60.9134 25.5352 61.002 25.4986 61.0673 25.4334C61.1325 25.3682 61.1692 25.2798 61.1692 25.1875V24.4905C61.1692 24.4444 61.16 24.3988 61.1422 24.3563C61.1244 24.3137 61.0983 24.2752 61.0654 24.2428C61.0326 24.2105 60.9936 24.185 60.9507 24.1678C60.9079 24.1506 60.8621 24.1421 60.816 24.1428L60.8194 24.1454ZM62.1643 24.1454C62.0728 24.1458 61.9852 24.1823 61.9204 24.247C61.8557 24.3116 61.8191 24.3991 61.8187 24.4905V25.1875C61.8187 25.2795 61.8553 25.3677 61.9204 25.4328C61.9856 25.4978 62.0739 25.5344 62.166 25.5344C62.2581 25.5344 62.3465 25.4978 62.4116 25.4328C62.4767 25.3677 62.5133 25.2795 62.5133 25.1875V24.4905C62.5134 24.4445 62.5044 24.3988 62.4866 24.3563C62.4689 24.3138 62.4429 24.2752 62.4101 24.2429C62.3773 24.2105 62.3383 24.185 62.2956 24.1678C62.2528 24.1506 62.207 24.1421 62.1609 24.1428L62.1643 24.1454ZM63.5093 24.1454C63.4171 24.1449 63.3285 24.181 63.2629 24.2457C63.1973 24.3104 63.1601 24.3984 63.1594 24.4905V25.1875C63.1638 25.2771 63.2026 25.3615 63.2676 25.4234C63.3327 25.4852 63.419 25.5197 63.5088 25.5197C63.5986 25.5197 63.685 25.4852 63.7501 25.4234C63.8151 25.3615 63.8538 25.2771 63.8583 25.1875V24.4905C63.8583 24.4445 63.8491 24.3989 63.8314 24.3565C63.8136 24.314 63.7876 24.2755 63.7548 24.2431C63.722 24.2108 63.6832 24.1853 63.6404 24.1681C63.5977 24.1508 63.552 24.1423 63.5059 24.1428L63.5093 24.1454ZM64.8542 24.1454C64.8086 24.1451 64.7634 24.1539 64.7212 24.1711C64.679 24.1883 64.6406 24.2137 64.6082 24.2458C64.5758 24.2778 64.55 24.3159 64.5323 24.3579C64.5147 24.3999 64.5054 24.445 64.5052 24.4905V25.1875C64.5052 25.28 64.542 25.3686 64.6075 25.434C64.6729 25.4993 64.7617 25.5361 64.8542 25.5361C64.9468 25.5361 65.0355 25.4993 65.101 25.434C65.1665 25.3686 65.2032 25.28 65.2032 25.1875V24.4905C65.2034 24.4445 65.1943 24.3988 65.1766 24.3563C65.1588 24.3138 65.1328 24.2752 65.1 24.2429C65.0672 24.2105 65.0283 24.185 64.9855 24.1678C64.9427 24.1506 64.8969 24.1421 64.8508 24.1428L64.8542 24.1454ZM66.1992 24.1454C66.1536 24.1451 66.1084 24.1539 66.0662 24.1711C66.0239 24.1883 65.9855 24.2137 65.9531 24.2458C65.9207 24.2778 65.8949 24.3159 65.8773 24.3579C65.8596 24.3999 65.8504 24.445 65.8502 24.4905V25.1875C65.8546 25.2764 65.8931 25.3603 65.9576 25.4216C66.0222 25.483 66.1079 25.5172 66.1971 25.5172C66.2862 25.5172 66.3719 25.483 66.4365 25.4216C66.5011 25.3603 66.5395 25.2764 66.5439 25.1875V24.4905C66.5441 24.4449 66.5352 24.3997 66.5178 24.3575C66.5004 24.3153 66.4748 24.277 66.4425 24.2447C66.4103 24.2124 66.3719 24.1868 66.3297 24.1693C66.2875 24.1518 66.2423 24.1428 66.1966 24.1428L66.1992 24.1454ZM22.0326 24.5143L22.7085 25.1943L22.0548 25.8633L21.9024 25.7078L21.8794 25.6857V24.6656L22.0326 24.5143ZM28.771 24.5143L28.8289 24.5713V25.7809L28.7506 25.8608L28.0977 25.1918L28.771 24.5143ZM46.0597 24.5143L46.7348 25.1943L46.081 25.8633L45.9295 25.7078C45.9219 25.7 45.914 25.6926 45.9056 25.6857V24.6656L46.0597 24.5143ZM52.7981 24.5143L52.856 24.5713V25.7809L52.7769 25.8608L52.124 25.1918L52.7981 24.5143ZM26.568 24.6223L27.1213 25.1884L26.4489 25.8642L25.893 25.3032L26.568 24.6223ZM50.5951 24.6223L51.1484 25.1884L50.4759 25.8642L49.9184 25.3032L50.5951 24.6223ZM24.2356 24.6223L24.9166 25.3023L24.3599 25.8633L23.6866 25.1875L24.2356 24.6223ZM48.2627 24.6223L48.9395 25.3023L48.3827 25.8633L47.7103 25.1875L48.2627 24.6223ZM39.0583 25.3023L39.9223 26.1617H38.2087L39.0583 25.3023ZM35.8116 25.3023L36.6629 26.16H34.9527L35.8116 25.3023ZM32.8544 25.3618L33.6529 26.16H32.4024V25.5998C32.4571 25.6092 32.5133 25.6052 32.5662 25.5884C32.6191 25.5715 32.6672 25.5422 32.7063 25.5029L32.8544 25.3618ZM42.0138 25.3618L42.1551 25.5029C42.2016 25.55 42.2607 25.5828 42.3253 25.5973V26.16H41.2102L42.0138 25.3618ZM27.6057 25.6831L28.2629 26.3572L27.6057 27.0279L26.9375 26.3547L27.6057 25.6831ZM51.6328 25.6831L52.2899 26.3572L51.6328 27.0279L50.9646 26.3547L51.6328 25.6831ZM23.2014 25.6831L23.8705 26.3547L23.2022 27.0279L22.5442 26.3564L23.2014 25.6831ZM47.2285 25.6831L47.8975 26.3547L47.2293 27.0279L46.5713 26.3564L47.2285 25.6831ZM25.4052 25.7945L25.9611 26.3555L25.4052 26.914L24.8494 26.3555L25.4052 25.7945ZM49.4323 25.7945L49.9882 26.3555L49.4272 26.9106L48.8714 26.3521L49.4323 25.7945ZM5.91527 26.8452H16.5472V45.6969H5.91527V26.8452ZM58.1975 26.8452H68.8278V45.6969H58.195L58.1975 26.8452ZM24.3608 26.8452L24.9158 27.4036L24.239 28.0837L23.6874 27.5226L24.3608 26.8452ZM26.4506 26.8452L27.123 27.5252L26.5714 28.0862L25.8956 27.4062L26.4506 26.8452ZM48.387 26.8452L48.942 27.4036L48.2661 28.0837L47.7145 27.5226L48.387 26.8452ZM50.4768 26.8452L51.1501 27.5252L50.5985 28.0862L49.9175 27.4062L50.4768 26.8452ZM28.7515 26.8503L28.7983 26.8987C28.8093 26.9089 28.8204 26.9191 28.8323 26.9285V28.0012L28.7046 28.1287L28.0977 27.5175L28.7515 26.8503ZM32.4118 26.8503H42.3321V31.4465H32.4024L32.4118 26.8503ZM52.7777 26.8503L52.8245 26.8987C52.8353 26.9093 52.8466 26.9192 52.8586 26.9285V28.0012L52.7309 28.1287L52.124 27.5175L52.7777 26.8503ZM22.0582 26.8503L22.7119 27.5175L22.105 28.1279L21.8811 27.9035V26.9837C21.9475 26.9539 22.0061 26.9091 22.0522 26.8528L22.0582 26.8503ZM46.0844 26.8503L46.7381 27.5175L46.1321 28.1279L45.9082 27.9035V26.9837C45.9744 26.954 46.0327 26.9092 46.0784 26.8528L46.0844 26.8503ZM33.6308 27.5056C33.5391 27.5061 33.4513 27.5427 33.3866 27.6075C33.3218 27.6723 33.2854 27.7601 33.2852 27.8516V30.4519C33.2852 30.5439 33.3218 30.6321 33.3869 30.6972C33.452 30.7622 33.5404 30.7988 33.6325 30.7988C33.7246 30.7988 33.8129 30.7622 33.878 30.6972C33.9432 30.6321 33.9798 30.5439 33.9798 30.4519V27.8508C33.9787 27.759 33.9414 27.6713 33.8761 27.6068C33.8108 27.5422 33.7227 27.5059 33.6308 27.5056ZM35.4984 27.5056C35.4064 27.5056 35.318 27.542 35.2528 27.6069C35.1875 27.6717 35.1507 27.7597 35.1502 27.8516V30.4519C35.1503 30.5444 35.187 30.633 35.2524 30.6985C35.3009 30.7481 35.3631 30.7821 35.4311 30.796C35.4991 30.8099 35.5698 30.8032 35.6339 30.7767C35.698 30.7501 35.7527 30.705 35.7909 30.6471C35.8292 30.5893 35.8491 30.5213 35.8482 30.4519V27.8508C35.8473 27.7588 35.8101 27.6709 35.7445 27.6062C35.679 27.5416 35.5905 27.5054 35.4984 27.5056ZM37.3643 27.5056C37.2726 27.5061 37.1847 27.5427 37.1198 27.6075C37.0549 27.6723 37.0183 27.76 37.0178 27.8516V30.4519C37.0177 30.4975 37.0266 30.5426 37.044 30.5847C37.0613 30.6269 37.0868 30.6651 37.119 30.6974C37.1511 30.7297 37.1894 30.7554 37.2315 30.7729C37.2736 30.7904 37.3187 30.7995 37.3643 30.7996C37.4101 30.7998 37.4555 30.791 37.4979 30.7736C37.5403 30.7562 37.5788 30.7307 37.6113 30.6983C37.6437 30.666 37.6694 30.6276 37.687 30.5853C37.7045 30.543 37.7134 30.4977 37.7133 30.4519V27.8508C37.7124 27.7589 37.6752 27.6712 37.6099 27.6065C37.5445 27.5419 37.4563 27.5056 37.3643 27.5056ZM39.2328 27.5056C39.1871 27.5054 39.1417 27.5142 39.0994 27.5315C39.0571 27.5487 39.0186 27.5742 38.9861 27.6063C38.9536 27.6384 38.9278 27.6766 38.9101 27.7187C38.8924 27.7608 38.8831 27.806 38.8829 27.8516V30.4519C38.8829 30.5439 38.9195 30.6321 38.9846 30.6972C39.0498 30.7622 39.1381 30.7988 39.2302 30.7988C39.3223 30.7988 39.4107 30.7622 39.4758 30.6972C39.5409 30.6321 39.5775 30.5439 39.5775 30.4519V27.8508C39.5766 27.7597 39.5401 27.6725 39.4756 27.608C39.4112 27.5435 39.324 27.5068 39.2328 27.5056ZM41.0978 27.5056C41.0057 27.5056 40.9173 27.542 40.852 27.6068C40.7866 27.6716 40.7495 27.7596 40.7488 27.8516V30.4519C40.7483 30.4978 40.7571 30.5433 40.7747 30.5856C40.7922 30.628 40.8182 30.6664 40.851 30.6985C40.8998 30.7472 40.962 30.7805 41.0297 30.7939C41.0974 30.8074 41.1676 30.8005 41.2314 30.7741C41.2952 30.7477 41.3497 30.703 41.3881 30.6456C41.4264 30.5883 41.4469 30.5209 41.4468 30.4519V27.8508C41.4457 27.759 41.4085 27.6713 41.3432 27.6068C41.2779 27.5422 41.1897 27.5059 41.0978 27.5056ZM25.3984 27.8984L26.0794 28.5784L25.3984 29.2729L24.7174 28.5784L25.3984 27.8984ZM49.4255 27.8984L50.1065 28.5784L49.4255 29.2729L48.7445 28.5784L49.4255 27.8984ZM23.192 28.0157L23.7428 28.5784L23.1418 29.1803L22.5893 28.6235L23.192 28.0157ZM27.6048 28.0157L28.2092 28.6243L27.6568 29.1828L27.0549 28.5784L27.6048 28.0157ZM47.2191 28.0157L47.769 28.5784L47.1689 29.1803L46.6156 28.6235L47.2191 28.0157ZM51.6319 28.0157L52.2355 28.6243L51.6838 29.1828L51.0812 28.5784L51.6319 28.0157ZM24.2305 29.074L24.6153 29.4659H23.8398L24.2305 29.074ZM26.5714 29.074L26.9622 29.4659H26.1884L26.5714 29.074ZM48.2576 29.074L48.6424 29.4659H47.8669L48.2576 29.074ZM50.5985 29.074L50.9893 29.4659H50.2138L50.5985 29.074ZM22.1024 29.1208L22.448 29.4693H21.8786V29.2491C21.9656 29.233 22.0446 29.1877 22.1024 29.1208ZM46.1295 29.1208L46.4751 29.4693H45.9056V29.2491C45.9913 29.2319 46.0689 29.1867 46.1261 29.1208H46.1295ZM28.7021 29.1208L28.7327 29.1514C28.7607 29.1793 28.7932 29.2023 28.8289 29.2194V29.4684H28.3565L28.7021 29.1208ZM52.7292 29.1208L52.7598 29.1514C52.7878 29.1793 52.8203 29.2023 52.856 29.2194V29.4684H52.3836L52.7292 29.1208ZM21.8786 30.1629H28.8272V33.3243H21.8769L21.8786 30.1629ZM45.9056 30.1629H52.856V33.3243H45.9056V30.1629ZM22.6668 30.4502C22.6208 30.4499 22.5753 30.4586 22.5328 30.476C22.4902 30.4933 22.4516 30.519 22.4191 30.5514C22.3543 30.6175 22.318 30.7063 22.3178 30.7988V32.691C22.3178 32.7834 22.3546 32.8721 22.42 32.9374C22.4855 33.0028 22.5742 33.0395 22.6668 33.0395C22.7594 33.0395 22.8481 33.0028 22.9136 32.9374C22.979 32.8721 23.0158 32.7834 23.0158 32.691V30.7962C23.0163 30.7503 23.0075 30.7048 22.9902 30.6623C22.9728 30.6198 22.9471 30.5812 22.9146 30.5488C22.8821 30.5163 22.8434 30.4907 22.8009 30.4733C22.7584 30.4559 22.7128 30.4472 22.6668 30.4477V30.4502ZM24.0118 30.4502C23.9658 30.4498 23.9202 30.4585 23.8777 30.4759C23.8351 30.4932 23.7965 30.5189 23.764 30.5513C23.7315 30.5838 23.7058 30.6224 23.6884 30.6649C23.671 30.7073 23.6623 30.7529 23.6628 30.7988V32.691C23.6628 32.783 23.6993 32.8712 23.7645 32.9362C23.8296 33.0013 23.9179 33.0378 24.01 33.0378C24.1022 33.0378 24.1905 33.0013 24.2556 32.9362C24.3208 32.8712 24.3574 32.783 24.3574 32.691V30.7962C24.3576 30.7503 24.3487 30.7048 24.3312 30.6624C24.3137 30.6199 24.2879 30.5814 24.2553 30.549C24.2228 30.5166 24.1841 30.4909 24.1416 30.4735C24.0991 30.4561 24.0535 30.4474 24.0075 30.4477L24.0118 30.4502ZM25.3567 30.4502C25.3108 30.4499 25.2652 30.4586 25.2227 30.476C25.1802 30.4933 25.1415 30.519 25.109 30.5514C25.0435 30.6171 25.0068 30.7061 25.0069 30.7988V32.691C25.0113 32.7801 25.0498 32.8641 25.1146 32.9257C25.1793 32.9872 25.2652 33.0215 25.3546 33.0215C25.444 33.0215 25.5299 32.9872 25.5946 32.9257C25.6593 32.8641 25.6979 32.7801 25.7023 32.691V30.7962C25.7026 30.7503 25.6937 30.7048 25.6761 30.6624C25.6586 30.6199 25.6328 30.5814 25.6003 30.549C25.5678 30.5166 25.5291 30.4909 25.4865 30.4735C25.444 30.4561 25.3984 30.4474 25.3525 30.4477L25.3567 30.4502ZM26.7008 30.4502C26.6549 30.4499 26.6094 30.4587 26.567 30.4761C26.5245 30.4935 26.486 30.5192 26.4536 30.5516C26.4212 30.5841 26.3955 30.6226 26.3782 30.6651C26.3609 30.7075 26.3522 30.7529 26.3527 30.7988V32.691C26.3527 32.783 26.3893 32.8712 26.4544 32.9362C26.5195 33.0013 26.6079 33.0378 26.7 33.0378C26.7921 33.0378 26.8804 33.0013 26.9456 32.9362C27.0107 32.8712 27.0473 32.783 27.0473 32.691V30.7962C27.0474 30.7505 27.0385 30.7052 27.021 30.6629C27.0036 30.6206 26.9779 30.5822 26.9456 30.5498C26.9133 30.5175 26.8748 30.4918 26.8325 30.4742C26.7902 30.4567 26.7449 30.4477 26.6991 30.4477L26.7008 30.4502ZM28.0432 30.4502C27.951 30.4507 27.8628 30.4876 27.7978 30.553C27.7329 30.6183 27.6965 30.7067 27.6968 30.7988V32.691C27.6968 32.783 27.7334 32.8712 27.7985 32.9362C27.8636 33.0013 27.952 33.0378 28.0441 33.0378C28.1362 33.0378 28.2245 33.0013 28.2897 32.9362C28.3548 32.8712 28.3914 32.783 28.3914 32.691V30.7962C28.3918 30.7504 28.3832 30.7049 28.3658 30.6625C28.3485 30.6201 28.3229 30.5815 28.2905 30.5491C28.2581 30.5166 28.2195 30.491 28.1771 30.4735C28.1346 30.4561 28.0891 30.4474 28.0432 30.4477V30.4502ZM46.693 30.4502C46.6471 30.4499 46.6017 30.4587 46.5592 30.4761C46.5168 30.4935 46.4782 30.5192 46.4458 30.5516C46.4134 30.5841 46.3878 30.6226 46.3704 30.6651C46.3531 30.7075 46.3444 30.7529 46.3449 30.7988V32.691C46.3449 32.7834 46.3817 32.8721 46.4471 32.9374C46.5126 33.0028 46.6013 33.0395 46.6939 33.0395C46.7864 33.0395 46.8752 33.0028 46.9407 32.9374C47.0061 32.8721 47.0429 32.7834 47.0429 32.691V30.7962C47.043 30.7035 47.0062 30.6146 46.9408 30.5489C46.9077 30.5159 46.8684 30.49 46.8251 30.4726C46.7818 30.4552 46.7354 30.4467 46.6888 30.4477L46.693 30.4502ZM48.0388 30.4502C47.9929 30.4498 47.9473 30.4585 47.9048 30.4759C47.8622 30.4932 47.8236 30.5189 47.7911 30.5513C47.7586 30.5838 47.7328 30.6224 47.7155 30.6649C47.6981 30.7073 47.6894 30.7529 47.6898 30.7988V32.691C47.6943 32.7799 47.7327 32.8637 47.7973 32.9251C47.8619 32.9864 47.9476 33.0207 48.0367 33.0207C48.1259 33.0207 48.2116 32.9864 48.2762 32.9251C48.3407 32.8637 48.3792 32.7799 48.3836 32.691V30.7962C48.3838 30.7504 48.375 30.705 48.3575 30.6626C48.34 30.6202 48.3143 30.5817 48.2819 30.5493C48.2494 30.5169 48.2109 30.4912 48.1684 30.4738C48.126 30.4563 48.0805 30.4475 48.0346 30.4477L48.0388 30.4502ZM49.3838 30.4502C49.3379 30.4499 49.2922 30.4587 49.2497 30.4761C49.2072 30.4935 49.1685 30.5191 49.136 30.5515C49.1034 30.5839 49.0776 30.6225 49.0601 30.6649C49.0426 30.7074 49.0337 30.7529 49.0339 30.7988V32.691C49.0384 32.7801 49.0769 32.8641 49.1417 32.9257C49.2064 32.9872 49.2923 33.0215 49.3817 33.0215C49.471 33.0215 49.557 32.9872 49.6217 32.9257C49.6864 32.8641 49.725 32.7801 49.7294 32.691V30.7962C49.7296 30.7503 49.7207 30.7048 49.7032 30.6624C49.6857 30.6199 49.6599 30.5814 49.6274 30.549C49.5948 30.5166 49.5562 30.4909 49.5136 30.4735C49.4711 30.4561 49.4255 30.4474 49.3795 30.4477L49.3838 30.4502ZM50.7279 30.4502C50.682 30.4499 50.6365 30.4587 50.5941 30.4761C50.5516 30.4935 50.5131 30.5192 50.4807 30.5516C50.4483 30.5841 50.4226 30.6226 50.4053 30.6651C50.388 30.7075 50.3793 30.7529 50.3797 30.7988V32.691C50.3842 32.7799 50.4226 32.8637 50.4872 32.9251C50.5518 32.9864 50.6375 33.0207 50.7266 33.0207C50.8158 33.0207 50.9015 32.9864 50.9661 32.9251C51.0306 32.8637 51.0691 32.7799 51.0735 32.691V30.7962C51.0738 30.7503 51.065 30.7047 51.0476 30.6622C51.0301 30.6198 51.0043 30.5812 50.9718 30.5487C50.9392 30.5163 50.9005 30.4906 50.8579 30.4733C50.8153 30.4559 50.7697 30.4472 50.7237 30.4477L50.7279 30.4502ZM52.0695 30.4502C52.0239 30.4505 51.9787 30.4597 51.9367 30.4773C51.8946 30.4949 51.8565 30.5207 51.8244 30.553C51.7923 30.5854 51.7669 30.6238 51.7496 30.6659C51.7324 30.7081 51.7236 30.7532 51.7239 30.7988V32.691C51.7239 32.783 51.7604 32.8712 51.8256 32.9362C51.8907 33.0013 51.9791 33.0378 52.0712 33.0378C52.1633 33.0378 52.2516 33.0013 52.3167 32.9362C52.3819 32.8712 52.4185 32.783 52.4185 32.691V30.7962C52.4189 30.7503 52.4102 30.7048 52.3928 30.6623C52.3755 30.6198 52.3498 30.5812 52.3173 30.5488C52.2848 30.5163 52.2461 30.4907 52.2036 30.4733C52.161 30.4559 52.1154 30.4472 52.0695 30.4477V30.4502ZM8.19742 30.6687C8.10546 30.6685 8.01717 30.7047 7.9519 30.7694C7.88663 30.8341 7.84973 30.922 7.84928 31.0138V41.8818C7.84995 41.9735 7.88695 42.0612 7.95219 42.1257C8.01744 42.1902 8.10561 42.2263 8.19742 42.2261H14.2583C14.3497 42.2256 14.4373 42.1893 14.5021 42.1249C14.567 42.0604 14.6038 41.9731 14.6047 41.8818V31.0113C14.604 30.9198 14.5673 30.8323 14.5024 30.7677C14.4376 30.7031 14.3499 30.6666 14.2583 30.6662L8.19742 30.6687ZM60.4814 30.6687C60.3894 30.6687 60.3012 30.705 60.2358 30.7696C60.1705 30.8342 60.1333 30.922 60.1324 31.0138V41.8818C60.1335 41.9735 60.1708 42.0611 60.2361 42.1255C60.3015 42.1899 60.3896 42.2261 60.4814 42.2261H66.5371C66.629 42.2261 66.7171 42.1899 66.7824 42.1255C66.8478 42.0611 66.885 41.9735 66.8861 41.8818V31.0113C66.8853 30.9194 66.8481 30.8317 66.7827 30.767C66.7174 30.7024 66.6291 30.6662 66.5371 30.6662L60.4814 30.6687ZM8.54729 31.3624H13.9101V41.5316H8.54729V31.3624ZM60.827 31.3624H66.1898V41.5316H60.827V31.3624ZM32.4024 32.1461H42.3228V38.3345H32.4024V32.1461ZM21.8717 34.0162H28.8272V38.3354H21.8769L21.8717 34.0162ZM45.8988 34.0162H52.8492V38.3354H45.8988V34.0162ZM18.82 39.0528H55.9052V42.4734H18.8235L18.82 39.0528ZM20.411 39.443C20.3654 39.4428 20.3202 39.4515 20.278 39.4687C20.2358 39.486 20.1973 39.5113 20.1649 39.5434C20.1325 39.5754 20.1068 39.6135 20.0891 39.6555C20.0714 39.6975 20.0622 39.7426 20.062 39.7881V41.7432C20.062 41.8352 20.0986 41.9235 20.1637 41.9885C20.2289 42.0535 20.3172 42.0901 20.4093 42.0901C20.5014 42.0901 20.5898 42.0535 20.6549 41.9885C20.72 41.9235 20.7566 41.8352 20.7566 41.7432V39.7881C20.7564 39.6972 20.7204 39.6099 20.6564 39.5452C20.5924 39.4805 20.5055 39.4435 20.4144 39.4422L20.411 39.443ZM22.4029 39.443C22.3113 39.4434 22.2236 39.4799 22.1587 39.5445C22.0939 39.6091 22.0571 39.6966 22.0565 39.7881V41.7432C22.0565 41.8352 22.0931 41.9235 22.1582 41.9885C22.2233 42.0535 22.3117 42.0901 22.4038 42.0901C22.4959 42.0901 22.5842 42.0535 22.6494 41.9885C22.7145 41.9235 22.7511 41.8352 22.7511 41.7432V39.7881C22.7509 39.6967 22.7145 39.6091 22.65 39.5443C22.5854 39.4795 22.4978 39.4428 22.4063 39.4422L22.4029 39.443ZM24.3974 39.443C24.3054 39.4428 24.2171 39.479 24.1518 39.5437C24.0866 39.6084 24.0497 39.6963 24.0492 39.7881V41.7432C24.0536 41.8326 24.0923 41.9168 24.1572 41.9785C24.2221 42.0402 24.3082 42.0746 24.3978 42.0746C24.4874 42.0746 24.5735 42.0402 24.6384 41.9785C24.7033 41.9168 24.742 41.8326 24.7464 41.7432V39.7881C24.7462 39.6966 24.7097 39.6088 24.645 39.544C24.5802 39.4792 24.4924 39.4426 24.4008 39.4422L24.3974 39.443ZM26.3927 39.443C26.3471 39.4428 26.3019 39.4515 26.2596 39.4687C26.2174 39.486 26.179 39.5113 26.1466 39.5434C26.1142 39.5754 26.0884 39.6135 26.0708 39.6555C26.0531 39.6975 26.0439 39.7426 26.0437 39.7881V41.7432C26.0437 41.8357 26.0805 41.9243 26.1459 41.9897C26.2114 42.0551 26.3001 42.0918 26.3927 42.0918C26.4852 42.0918 26.574 42.0551 26.6395 41.9897C26.7049 41.9243 26.7417 41.8357 26.7417 41.7432V39.7881C26.7415 39.6966 26.705 39.6088 26.6403 39.544C26.5755 39.4792 26.4877 39.4426 26.3961 39.4422L26.3927 39.443ZM28.388 39.443C28.3424 39.4428 28.2972 39.4515 28.2549 39.4687C28.2127 39.486 28.1743 39.5113 28.1419 39.5434C28.1095 39.5754 28.0837 39.6135 28.0661 39.6555C28.0484 39.6975 28.0392 39.7426 28.039 39.7881V41.7432C28.039 41.8352 28.0756 41.9235 28.1407 41.9885C28.2058 42.0535 28.2942 42.0901 28.3863 42.0901C28.4784 42.0901 28.5667 42.0535 28.6319 41.9885C28.697 41.9235 28.7336 41.8352 28.7336 41.7432V39.7881C28.7334 39.6972 28.6974 39.6099 28.6334 39.5452C28.5694 39.4805 28.4825 39.4435 28.3914 39.4422L28.388 39.443ZM30.3799 39.443C30.2883 39.4434 30.2005 39.4799 30.1357 39.5445C30.0708 39.6091 30.0341 39.6966 30.0334 39.7881V41.7432C30.0334 41.8352 30.07 41.9235 30.1352 41.9885C30.2003 42.0535 30.2886 42.0901 30.3807 42.0901C30.4728 42.0901 30.5612 42.0535 30.6263 41.9885C30.6915 41.9235 30.728 41.8352 30.728 41.7432V39.7881C30.7278 39.6967 30.6915 39.6091 30.6269 39.5443C30.5624 39.4795 30.4748 39.4428 30.3833 39.4422L30.3799 39.443ZM32.3743 39.443C32.283 39.4437 32.1955 39.4803 32.131 39.5449C32.0665 39.6095 32.03 39.6969 32.0296 39.7881V41.7432C32.0296 41.8352 32.0662 41.9235 32.1313 41.9885C32.1964 42.0535 32.2848 42.0901 32.3769 42.0901C32.469 42.0901 32.5573 42.0535 32.6225 41.9885C32.6876 41.9235 32.7242 41.8352 32.7242 41.7432V39.7881C32.7238 39.6965 32.6871 39.6088 32.6222 39.544C32.5573 39.4792 32.4695 39.4426 32.3777 39.4422L32.3743 39.443ZM34.3697 39.443C34.324 39.4428 34.2788 39.4515 34.2366 39.4687C34.1944 39.486 34.156 39.5113 34.1236 39.5434C34.0912 39.5754 34.0654 39.6135 34.0477 39.6555C34.0301 39.6975 34.0209 39.7426 34.0206 39.7881V41.7432C34.0206 41.8357 34.0574 41.9243 34.1229 41.9897C34.1883 42.0551 34.2771 42.0918 34.3697 42.0918C34.4622 42.0918 34.551 42.0551 34.6164 41.9897C34.6819 41.9243 34.7186 41.8357 34.7186 41.7432V39.7881C34.7184 39.6966 34.682 39.6088 34.6172 39.544C34.5525 39.4792 34.4647 39.4426 34.373 39.4422L34.3697 39.443ZM36.365 39.443C36.3193 39.4428 36.2741 39.4515 36.2319 39.4687C36.1897 39.486 36.1513 39.5113 36.1189 39.5434C36.0865 39.5754 36.0607 39.6135 36.043 39.6555C36.0254 39.6975 36.0162 39.7426 36.0159 39.7881V41.7432C36.0159 41.8352 36.0525 41.9235 36.1177 41.9885C36.1828 42.0535 36.2711 42.0901 36.3632 42.0901C36.4554 42.0901 36.5437 42.0535 36.6088 41.9885C36.674 41.9235 36.7106 41.8352 36.7106 41.7432V39.7881C36.7103 39.6972 36.6744 39.6099 36.6103 39.5452C36.5463 39.4805 36.4594 39.4435 36.3684 39.4422L36.365 39.443ZM38.3603 39.443C38.2681 39.4425 38.1794 39.4786 38.1139 39.5433C38.0483 39.608 38.0111 39.6961 38.0104 39.7881V41.7432C38.0104 41.8352 38.047 41.9235 38.1121 41.9885C38.1772 42.0535 38.2656 42.0901 38.3577 42.0901C38.4498 42.0901 38.5381 42.0535 38.6033 41.9885C38.6684 41.9235 38.705 41.8352 38.705 41.7432V39.7881C38.7046 39.6969 38.6683 39.6096 38.6039 39.5449C38.5396 39.4801 38.4524 39.4433 38.3611 39.4422L38.3603 39.443ZM40.3513 39.443C40.26 39.4439 40.1727 39.4806 40.1082 39.5451C40.0437 39.6097 40.0072 39.6969 40.0066 39.7881V41.7432C40.0066 41.8352 40.0431 41.9235 40.1083 41.9885C40.1734 42.0535 40.2617 42.0901 40.3538 42.0901C40.446 42.0901 40.5343 42.0535 40.5994 41.9885C40.6646 41.9235 40.7012 41.8352 40.7012 41.7432V39.7881C40.7007 39.6965 40.6641 39.6088 40.5992 39.544C40.5343 39.4792 40.4464 39.4426 40.3547 39.4422L40.3513 39.443ZM42.3466 39.443C42.301 39.4428 42.2558 39.4515 42.2136 39.4687C42.1713 39.486 42.1329 39.5113 42.1005 39.5434C42.0681 39.5754 42.0424 39.6135 42.0247 39.6555C42.007 39.6975 41.9978 39.7426 41.9976 39.7881V41.7432C41.9976 41.8357 42.0344 41.9243 42.0998 41.9897C42.1653 42.0551 42.2541 42.0918 42.3466 42.0918C42.4392 42.0918 42.528 42.0551 42.5934 41.9897C42.6589 41.9243 42.6956 41.8357 42.6956 41.7432V39.7881C42.6954 39.6966 42.6589 39.6088 42.5942 39.544C42.5295 39.4792 42.4417 39.4426 42.35 39.4422L42.3466 39.443ZM44.3411 39.443C44.2491 39.4428 44.1608 39.479 44.0955 39.5437C44.0303 39.6084 43.9933 39.6963 43.9929 39.7881V41.7432C43.9929 41.8357 44.0297 41.9243 44.0951 41.9897C44.1606 42.0551 44.2494 42.0918 44.3419 42.0918C44.4345 42.0918 44.5233 42.0551 44.5887 41.9897C44.6542 41.9243 44.6909 41.8357 44.6909 41.7432V39.7881C44.6905 39.6965 44.6538 39.6088 44.589 39.544C44.5241 39.4792 44.4362 39.4426 44.3445 39.4422L44.3411 39.443ZM46.3372 39.443C46.245 39.4425 46.1564 39.4786 46.0908 39.5433C46.0253 39.608 45.988 39.6961 45.9874 39.7881V41.7432C45.9918 41.8324 46.0303 41.9164 46.0951 41.9779C46.1598 42.0394 46.2457 42.0737 46.3351 42.0737C46.4245 42.0737 46.5104 42.0394 46.5751 41.9779C46.6398 41.9164 46.6784 41.8324 46.6828 41.7432V39.7881C46.6826 39.6972 46.6466 39.6099 46.5826 39.5452C46.5186 39.4805 46.4317 39.4435 46.3406 39.4422L46.3372 39.443ZM48.3283 39.443C48.2369 39.4437 48.1495 39.4803 48.0849 39.5449C48.0204 39.6095 47.984 39.6969 47.9835 39.7881V41.7432C47.9835 41.8352 48.0201 41.9235 48.0852 41.9885C48.1504 42.0535 48.2387 42.0901 48.3308 42.0901C48.4229 42.0901 48.5113 42.0535 48.5764 41.9885C48.6415 41.9235 48.6781 41.8352 48.6781 41.7432V39.7881C48.6777 39.6965 48.641 39.6088 48.5761 39.544C48.5113 39.4792 48.4234 39.4426 48.3317 39.4422L48.3283 39.443ZM50.3236 39.443C50.232 39.4434 50.1444 39.48 50.0797 39.5446C50.015 39.6092 49.9784 39.6967 49.978 39.7881V41.7432C49.978 41.8352 50.0146 41.9235 50.0797 41.9885C50.1448 42.0535 50.2331 42.0901 50.3253 42.0901C50.4174 42.0901 50.5057 42.0535 50.5709 41.9885C50.636 41.9235 50.6726 41.8352 50.6726 41.7432V39.7881C50.6721 39.6966 50.6356 39.609 50.5709 39.5443C50.5062 39.4795 50.4186 39.4428 50.327 39.4422L50.3236 39.443ZM52.3189 39.443C52.2733 39.4428 52.2281 39.4515 52.1858 39.4687C52.1436 39.486 52.1052 39.5113 52.0728 39.5434C52.0404 39.5754 52.0146 39.6135 51.9969 39.6555C51.9793 39.6975 51.9701 39.7426 51.9699 39.7881V41.7432C51.9699 41.8357 52.0066 41.9243 52.0721 41.9897C52.1375 42.0551 52.2263 42.0918 52.3189 42.0918C52.4115 42.0918 52.5002 42.0551 52.5657 41.9897C52.6311 41.9243 52.6679 41.8357 52.6679 41.7432V39.7881C52.6676 39.6964 52.6311 39.6086 52.5662 39.5437C52.5012 39.4789 52.4132 39.4424 52.3214 39.4422L52.3189 39.443ZM54.3142 39.443C54.222 39.4425 54.1334 39.4786 54.0678 39.5433C54.0022 39.608 53.965 39.6961 53.9643 39.7881V41.7432C53.9687 41.8324 54.0073 41.9164 54.072 41.9779C54.1368 42.0394 54.2227 42.0737 54.312 42.0737C54.4014 42.0737 54.4873 42.0394 54.5521 41.9779C54.6168 41.9164 54.6554 41.8324 54.6598 41.7432V39.7881C54.6596 39.6972 54.6236 39.6099 54.5596 39.5452C54.4956 39.4805 54.4087 39.4435 54.3176 39.4422L54.3142 39.443ZM28.6987 43.1671H33.9525V64.9286H28.6987V43.1671ZM40.7684 43.1671H46.0223V64.9286H40.7684V43.1671ZM18.82 43.2572H20.0033V64.8308H18.82V43.2572ZM20.6987 43.2572H21.3661V50.5422C21.3662 50.6344 21.4026 50.723 21.4674 50.7887C21.533 50.8537 21.6218 50.8901 21.7143 50.8899H25.1065C25.1523 50.8902 25.1977 50.8814 25.2401 50.8641C25.2825 50.8467 25.321 50.8211 25.3534 50.7888C25.3858 50.7564 25.4114 50.718 25.4288 50.6756C25.4462 50.6333 25.4549 50.5879 25.4546 50.5422V43.2564H26.122V64.8299H25.4546V57.5441C25.4549 57.4983 25.4462 57.4528 25.4288 57.4104C25.4115 57.368 25.3859 57.3294 25.3535 57.2969C25.3211 57.2644 25.2826 57.2387 25.2402 57.2211C25.1978 57.2036 25.1524 57.1946 25.1065 57.1947H21.7143C21.6684 57.1946 21.6229 57.2036 21.5805 57.2211C21.5381 57.2387 21.4996 57.2644 21.4672 57.2969C21.4348 57.3294 21.4092 57.368 21.3919 57.4104C21.3745 57.4528 21.3658 57.4983 21.3661 57.5441V64.8299H20.6987V43.2572ZM22.0607 43.2572H24.7566V50.1971H22.0684L22.0607 43.2572ZM26.8166 43.2572H28.0015V64.8308H26.8166V43.2572ZM34.6437 43.2572H35.3145V50.5422C35.3143 50.5876 35.323 50.6327 35.3402 50.6747C35.3574 50.7168 35.3828 50.755 35.4148 50.7873C35.4468 50.8196 35.4849 50.8453 35.5268 50.8629C35.5688 50.8805 35.6138 50.8896 35.6593 50.8899H39.0549C39.1007 50.8902 39.1461 50.8814 39.1885 50.8641C39.2309 50.8467 39.2694 50.8211 39.3018 50.7888C39.3342 50.7564 39.3598 50.718 39.3772 50.6756C39.3946 50.6333 39.4034 50.5879 39.403 50.5422V43.2564H40.0713V64.8299H39.403V57.5441C39.4034 57.4983 39.3946 57.4528 39.3773 57.4104C39.3599 57.368 39.3343 57.3294 39.3019 57.2969C39.2695 57.2644 39.231 57.2387 39.1886 57.2211C39.1462 57.2036 39.1008 57.1946 39.0549 57.1947H35.6593C35.5672 57.1956 35.4793 57.2329 35.4147 57.2984C35.3501 57.3638 35.3141 57.4522 35.3145 57.5441V64.8299H34.6437V43.2572ZM36.0057 43.2572H38.7016V50.1971H36.0057V43.2572ZM46.7135 43.2572H47.8975V64.8308H46.7135V43.2572ZM48.5921 43.2572H49.2595V50.5422C49.2594 50.5879 49.2683 50.6333 49.2859 50.6756C49.3034 50.7179 49.3291 50.7563 49.3615 50.7886C49.394 50.8209 49.4325 50.8465 49.4749 50.8639C49.5173 50.8813 49.5627 50.8901 49.6085 50.8899H52.9999C53.0457 50.89 53.0911 50.8811 53.1335 50.8637C53.1759 50.8462 53.2144 50.8207 53.2469 50.7884C53.2794 50.7561 53.3052 50.7177 53.3228 50.6755C53.3405 50.6333 53.3496 50.588 53.3497 50.5422V43.2564H54.0197V64.8299H53.3497V57.5441C53.3498 57.4982 53.3409 57.4527 53.3233 57.4103C53.3058 57.3678 53.28 57.3293 53.2475 57.2968C53.215 57.2643 53.1764 57.2386 53.1339 57.2211C53.0914 57.2036 53.0459 57.1946 52.9999 57.1947H49.6085C49.5157 57.1948 49.4267 57.2314 49.3608 57.2967C49.3284 57.3292 49.3027 57.3678 49.2853 57.4103C49.2679 57.4527 49.2591 57.4982 49.2595 57.5441V64.8299H48.5921V43.2572ZM49.9541 43.2572H52.6619V50.1971H49.9652L49.9541 43.2572ZM54.7108 43.2572H55.8949V64.8308H54.7108V43.2572ZM5.89484 46.3905H16.5268V49.4286H5.89484V46.3905ZM58.1771 46.3905H68.8074V49.4286H58.195L58.1771 46.3905ZM5.89484 50.1257H16.5268V64.8316H11.5581V55.9273C11.5581 55.8353 11.5215 55.7471 11.4564 55.6821C11.3913 55.617 11.3029 55.5805 11.2108 55.5805C11.1187 55.5805 11.0304 55.617 10.9652 55.6821C10.9001 55.7471 10.8635 55.8353 10.8635 55.9273V64.8299H5.89484V50.1257ZM58.1771 50.1257H68.8074V64.8316H63.8413V55.9273C63.8413 55.8815 63.8323 55.8362 63.8148 55.7939C63.7973 55.7516 63.7715 55.7131 63.7391 55.6808C63.6901 55.6324 63.628 55.5996 63.5604 55.5863C63.4928 55.5731 63.4228 55.5801 63.3592 55.6064C63.2956 55.6327 63.2411 55.6772 63.2027 55.7343C63.1643 55.7914 63.1436 55.8585 63.1432 55.9273V64.8299H58.195L58.1771 50.1257ZM21.7041 52.5908C21.6582 52.5907 21.6127 52.5997 21.5703 52.6172C21.5279 52.6348 21.4894 52.6605 21.457 52.693C21.4246 52.7255 21.399 52.7641 21.3817 52.8065C21.3643 52.8489 21.3556 52.8944 21.3559 52.9402V55.1503C21.3577 55.2413 21.3952 55.3279 21.4603 55.3915C21.5254 55.4551 21.613 55.4906 21.7041 55.4904H25.0962C25.1874 55.4908 25.2751 55.4554 25.3402 55.3917C25.4054 55.3281 25.4428 55.2414 25.4444 55.1503V52.9402C25.4447 52.8944 25.436 52.8489 25.4186 52.8065C25.4013 52.7641 25.3756 52.7255 25.3433 52.693C25.3109 52.6605 25.2724 52.6348 25.23 52.6172C25.1876 52.5997 25.1421 52.5907 25.0962 52.5908H21.7041ZM35.6525 52.5908C35.6068 52.5912 35.5617 52.6005 35.5197 52.6182C35.4777 52.6359 35.4396 52.6618 35.4076 52.6942C35.3756 52.7267 35.3503 52.7651 35.3332 52.8073C35.316 52.8495 35.3074 52.8946 35.3077 52.9402V55.1503C35.3095 55.2407 35.3465 55.3268 35.4109 55.3903C35.4753 55.4538 35.562 55.4897 35.6525 55.4904H39.0481C39.1392 55.4908 39.2269 55.4554 39.292 55.3917C39.3572 55.3281 39.3946 55.2414 39.3962 55.1503V52.9402C39.3965 52.8944 39.3878 52.8489 39.3704 52.8065C39.3531 52.7641 39.3275 52.7255 39.2951 52.693C39.2627 52.6605 39.2242 52.6348 39.1818 52.6172C39.1394 52.5997 39.094 52.5907 39.0481 52.5908H35.6525ZM49.6051 52.5908C49.5123 52.5908 49.4233 52.6275 49.3574 52.6928C49.325 52.7253 49.2993 52.7639 49.2819 52.8064C49.2645 52.8488 49.2558 52.8943 49.2561 52.9402V55.1503C49.2579 55.2414 49.2955 55.3282 49.3608 55.3918C49.4261 55.4554 49.5139 55.4908 49.6051 55.4904H52.9965C53.0878 55.4908 53.1756 55.4555 53.2411 55.3918C53.3065 55.3282 53.3443 55.2415 53.3463 55.1503V52.9402C53.3464 52.8943 53.3375 52.8488 53.3199 52.8064C53.3024 52.7639 53.2766 52.7254 53.2441 52.6929C53.2116 52.6604 53.173 52.6347 53.1305 52.6172C53.088 52.5997 53.0425 52.5907 52.9965 52.5908H49.6051ZM22.0539 53.2853H24.7498V54.7993H22.0684L22.0539 53.2853ZM36.0023 53.2853H38.6982V54.7993H36.0023V53.2853ZM49.9541 53.2853H52.6619V54.7993H49.9652L49.9541 53.2853ZM22.0539 57.8884H24.7498V64.8291H22.0684L22.0539 57.8884ZM36.0023 57.8884H38.6982V64.8291H36.0023V57.8884ZM49.9541 57.8884H52.6619V64.8291H49.9652L49.9541 57.8884ZM2.98188 65.6239H71.7229V67.097H2.99551L2.98188 65.6239ZM0.683531 67.7907H2.48732C2.53256 67.811 2.5816 67.8214 2.63118 67.8213H72.0659C72.1155 67.8214 72.1646 67.811 72.2098 67.7907H74.028V69.2936H0.698869L0.683531 67.7907Z" fill="#1C1C1A"/>
</svg>
