<svg preserveAspectRatio="xMidYMax meet" width="108" height="122" viewBox="0 0 108 122" fill="none" xmlns="http://www.w3.org/2000/svg">
<g clip-path="url(#clip0_87_42330)">
<path d="M56.0116 26.1842C56.5656 26.1842 57.0148 25.7348 57.0148 25.1804C57.0148 24.626 56.5656 24.1766 56.0116 24.1766C55.4576 24.1766 55.0084 24.626 55.0084 25.1804C55.0084 25.7348 55.4576 26.1842 56.0116 26.1842Z" fill="#1D1E1B"/>
<path d="M56.0116 30.2101C56.5656 30.2101 57.0148 29.7607 57.0148 29.2063C57.0148 28.6519 56.5656 28.2025 56.0116 28.2025C55.4576 28.2025 55.0084 28.6519 55.0084 29.2063C55.0084 29.7607 55.4576 30.2101 56.0116 30.2101Z" fill="#1D1E1B"/>
<path d="M44.9499 80.555H51.3873C51.494 80.555 51.5964 80.5126 51.6718 80.4371C51.7473 80.3616 51.7897 80.2592 51.7897 80.1524V67.2697C51.7883 67.1633 51.7454 67.0617 51.6703 66.9865C51.5951 66.9113 51.4936 66.8685 51.3873 66.8671H44.9499C44.8432 66.8671 44.7408 66.9095 44.6654 66.985C44.5899 67.0605 44.5475 67.1629 44.5475 67.2697V80.1524C44.5468 80.2055 44.5567 80.2582 44.5767 80.3074C44.5966 80.3565 44.6263 80.4012 44.6638 80.4387C44.7013 80.4763 44.7459 80.5059 44.795 80.5259C44.8442 80.5458 44.8968 80.5558 44.9499 80.555ZM46.5592 68.88H49.778V78.5421H46.5592V68.88Z" fill="#1D1E1B"/>
<path d="M60.6411 80.555H67.0786C67.1853 80.555 67.2876 80.5126 67.3631 80.4371C67.4385 80.3616 67.4809 80.2592 67.4809 80.1524V67.2697C67.4795 67.1633 67.4367 67.0617 67.3616 66.9865C67.2864 66.9113 67.1849 66.8685 67.0786 66.8671H60.6411C60.5344 66.8671 60.4321 66.9095 60.3566 66.985C60.2812 67.0605 60.2388 67.1629 60.2388 67.2697V80.1524C60.2381 80.2055 60.248 80.2582 60.268 80.3074C60.2879 80.3565 60.3175 80.4012 60.355 80.4387C60.3925 80.4763 60.4372 80.5059 60.4863 80.5259C60.5355 80.5458 60.5881 80.5558 60.6411 80.555ZM62.2505 68.88H65.4692V78.5421H62.2505V68.88Z" fill="#1D1E1B"/>
<path d="M60.6411 39.4697H67.0786C67.1853 39.4697 67.2876 39.4273 67.3631 39.3518C67.4385 39.2763 67.4809 39.1739 67.4809 39.0671V28.5999C67.4795 28.4935 67.4367 28.3919 67.3616 28.3167C67.2864 28.2415 67.1849 28.1987 67.0786 28.1973H60.6411C60.5344 28.1973 60.4321 28.2397 60.3566 28.3152C60.2812 28.3907 60.2388 28.4931 60.2388 28.5999V39.0671C60.2381 39.1202 60.248 39.1729 60.268 39.222C60.2879 39.2712 60.3175 39.3159 60.355 39.3534C60.3925 39.3909 60.4372 39.4206 60.4863 39.4405C60.5355 39.4605 60.5881 39.4704 60.6411 39.4697ZM62.2505 30.2102H65.4692V37.4568H62.2505V30.2102Z" fill="#1D1E1B"/>
<path d="M60.6411 103.884H67.0786C67.1853 103.884 67.2876 103.841 67.3631 103.766C67.4385 103.69 67.4809 103.588 67.4809 103.481V88.9879C67.4795 88.8816 67.4367 88.78 67.3616 88.7048C67.2864 88.6296 67.1849 88.5867 67.0786 88.5853H60.6411C60.5344 88.5853 60.4321 88.6277 60.3566 88.7032C60.2812 88.7787 60.2388 88.8811 60.2388 88.9879V103.481C60.2381 103.534 60.248 103.587 60.268 103.636C60.2879 103.685 60.3175 103.73 60.355 103.767C60.3925 103.805 60.4372 103.834 60.4863 103.854C60.5355 103.874 60.5881 103.884 60.6411 103.884ZM62.2505 90.5983H65.4692V101.871H62.2505V90.5983Z" fill="#1D1E1B"/>
<path d="M60.6411 59.6205H67.0786C67.1853 59.6205 67.2876 59.578 67.3631 59.5025C67.4385 59.427 67.4809 59.3246 67.4809 59.2179V46.3351C67.4795 46.2287 67.4367 46.1271 67.3616 46.0519C67.2864 45.9767 67.1849 45.9339 67.0786 45.9325H60.6411C60.5344 45.9325 60.4321 45.9749 60.3566 46.0504C60.2812 46.1259 60.2388 46.2283 60.2388 46.3351V59.2179C60.2381 59.2709 60.248 59.3236 60.268 59.3728C60.2879 59.422 60.3175 59.4666 60.355 59.5042C60.3925 59.5417 60.4372 59.5713 60.4863 59.5913C60.5355 59.6113 60.5881 59.6212 60.6411 59.6205ZM62.2505 47.9454H65.4692V57.6075H62.2505V47.9454Z" fill="#1D1E1B"/>
<path d="M56.0116 74.4948C56.5656 74.4948 57.0148 74.0453 57.0148 73.491C57.0148 72.9366 56.5656 72.4872 56.0116 72.4872C55.4576 72.4872 55.0084 72.9366 55.0084 73.491C55.0084 74.0453 55.4576 74.4948 56.0116 74.4948Z" fill="#1D1E1B"/>
<path d="M56.0116 70.4689C56.5656 70.4689 57.0148 70.0195 57.0148 69.4651C57.0148 68.9107 56.5656 68.4613 56.0116 68.4613C55.4576 68.4613 55.0084 68.9107 55.0084 69.4651C55.0084 70.0195 55.4576 70.4689 56.0116 70.4689Z" fill="#1D1E1B"/>
<path d="M56.0116 82.5464C56.5656 82.5464 57.0148 82.097 57.0148 81.5426C57.0148 80.9882 56.5656 80.5388 56.0116 80.5388C55.4576 80.5388 55.0084 80.9882 55.0084 81.5426C55.0084 82.097 55.4576 82.5464 56.0116 82.5464Z" fill="#1D1E1B"/>
<path d="M56.0116 66.443C56.5656 66.443 57.0148 65.9936 57.0148 65.4392C57.0148 64.8848 56.5656 64.4354 56.0116 64.4354C55.4576 64.4354 55.0084 64.8848 55.0084 65.4392C55.0084 65.9936 55.4576 66.443 56.0116 66.443Z" fill="#1D1E1B"/>
<path d="M56.0116 78.5205C56.5656 78.5205 57.0148 78.0711 57.0148 77.5167C57.0148 76.9624 56.5656 76.5129 56.0116 76.5129C55.4576 76.5129 55.0084 76.9624 55.0084 77.5167C55.0084 78.0711 55.4576 78.5205 56.0116 78.5205Z" fill="#1D1E1B"/>
<path d="M56.0116 38.2618C56.5656 38.2618 57.0148 37.8124 57.0148 37.2581C57.0148 36.7037 56.5656 36.2543 56.0116 36.2543C55.4576 36.2543 55.0084 36.7037 55.0084 37.2581C55.0084 37.8124 55.4576 38.2618 56.0116 38.2618Z" fill="#1D1E1B"/>
<path d="M56.0116 62.4171C56.5656 62.4171 57.0148 61.9677 57.0148 61.4133C57.0148 60.859 56.5656 60.4095 56.0116 60.4095C55.4576 60.4095 55.0084 60.859 55.0084 61.4133C55.0084 61.9677 55.4576 62.4171 56.0116 62.4171Z" fill="#1D1E1B"/>
<path d="M56.0116 58.3912C56.5656 58.3912 57.0148 57.9418 57.0148 57.3875C57.0148 56.8331 56.5656 56.3837 56.0116 56.3837C55.4576 56.3837 55.0084 56.8331 55.0084 57.3875C55.0084 57.9418 55.4576 58.3912 56.0116 58.3912Z" fill="#1D1E1B"/>
<path d="M56.0116 46.3137C56.5656 46.3137 57.0148 45.8643 57.0148 45.3099C57.0148 44.7556 56.5656 44.3062 56.0116 44.3062C55.4576 44.3062 55.0084 44.7556 55.0084 45.3099C55.0084 45.8643 55.4576 46.3137 56.0116 46.3137Z" fill="#1D1E1B"/>
<path d="M56.0116 42.2877C56.5656 42.2877 57.0148 41.8383 57.0148 41.2839C57.0148 40.7296 56.5656 40.2802 56.0116 40.2802C55.4576 40.2802 55.0084 40.7296 55.0084 41.2839C55.0084 41.8383 55.4576 42.2877 56.0116 42.2877Z" fill="#1D1E1B"/>
<path d="M56.0116 54.3655C56.5656 54.3655 57.0148 53.9161 57.0148 53.3617C57.0148 52.8073 56.5656 52.3579 56.0116 52.3579C55.4576 52.3579 55.0084 52.8073 55.0084 53.3617C55.0084 53.9161 55.4576 54.3655 56.0116 54.3655Z" fill="#1D1E1B"/>
<path d="M56.0116 50.3396C56.5656 50.3396 57.0148 49.8902 57.0148 49.3358C57.0148 48.7814 56.5656 48.332 56.0116 48.332C55.4576 48.332 55.0084 48.7814 55.0084 49.3358C55.0084 49.8902 55.4576 50.3396 56.0116 50.3396Z" fill="#1D1E1B"/>
<path d="M44.9499 59.6205H51.3873C51.494 59.6205 51.5964 59.578 51.6718 59.5025C51.7473 59.427 51.7897 59.3246 51.7897 59.2179V46.3351C51.7883 46.2287 51.7454 46.1271 51.6703 46.0519C51.5951 45.9767 51.4936 45.9339 51.3873 45.9325H44.9499C44.8432 45.9325 44.7408 45.9749 44.6654 46.0504C44.5899 46.1259 44.5475 46.2283 44.5475 46.3351V59.2179C44.5468 59.2709 44.5567 59.3236 44.5767 59.3728C44.5966 59.422 44.6263 59.4666 44.6638 59.5042C44.7013 59.5417 44.7459 59.5713 44.795 59.5913C44.8442 59.6113 44.8968 59.6212 44.9499 59.6205ZM46.5592 47.9454H49.778V57.6075H46.5592V47.9454Z" fill="#1D1E1B"/>
<path d="M56.0116 94.624C56.5656 94.624 57.0148 94.1746 57.0148 93.6202C57.0148 93.0659 56.5656 92.6165 56.0116 92.6165C55.4576 92.6165 55.0084 93.0659 55.0084 93.6202C55.0084 94.1746 55.4576 94.624 56.0116 94.624Z" fill="#1D1E1B"/>
<path d="M44.9499 39.4697H51.3873C51.494 39.4697 51.5964 39.4273 51.6718 39.3518C51.7473 39.2763 51.7897 39.1739 51.7897 39.0671V28.5999C51.7883 28.4935 51.7454 28.3919 51.6703 28.3167C51.5951 28.2415 51.4936 28.1987 51.3873 28.1973H44.9499C44.8432 28.1973 44.7408 28.2397 44.6654 28.3152C44.5899 28.3907 44.5475 28.4931 44.5475 28.5999V39.0671C44.5468 39.1202 44.5567 39.1729 44.5767 39.222C44.5966 39.2712 44.6263 39.3159 44.6638 39.3534C44.7013 39.3909 44.7459 39.4206 44.795 39.4405C44.8442 39.4605 44.8968 39.4704 44.9499 39.4697ZM46.5592 30.2102H49.778V37.4568H46.5592V30.2102Z" fill="#1D1E1B"/>
<path d="M56.0116 90.5981C56.5656 90.5981 57.0148 90.1487 57.0148 89.5944C57.0148 89.04 56.5656 88.5906 56.0116 88.5906C55.4576 88.5906 55.0084 89.04 55.0084 89.5944C55.0084 90.1487 55.4576 90.5981 56.0116 90.5981Z" fill="#1D1E1B"/>
<path d="M56.0116 34.236C56.5656 34.236 57.0148 33.7866 57.0148 33.2322C57.0148 32.6778 56.5656 32.2284 56.0116 32.2284C55.4576 32.2284 55.0084 32.6778 55.0084 33.2322C55.0084 33.7866 55.4576 34.236 56.0116 34.236Z" fill="#1D1E1B"/>
<path d="M56.0116 86.5723C56.5656 86.5723 57.0148 86.1229 57.0148 85.5685C57.0148 85.0141 56.5656 84.5647 56.0116 84.5647C55.4576 84.5647 55.0084 85.0141 55.0084 85.5685C55.0084 86.1229 55.4576 86.5723 56.0116 86.5723Z" fill="#1D1E1B"/>
<path d="M23.2182 25.8032C22.3068 25.802 21.4172 26.0821 20.6707 26.6051C19.9242 27.1282 19.357 27.8689 19.0464 28.7262C18.7359 29.5835 18.6971 30.5158 18.9353 31.3961C19.1735 32.2763 19.6772 33.0616 20.3777 33.6449C21.0782 34.2283 21.9414 34.5814 22.8497 34.656C23.758 34.7306 24.6672 34.5232 25.4534 34.062C26.2396 33.6008 26.8646 32.9083 27.2431 32.0787C27.6217 31.2492 27.7354 30.3231 27.5688 29.4265C27.3798 28.4096 26.8415 27.4908 26.047 26.8292C25.2525 26.1675 24.2518 25.8046 23.2182 25.8032ZM23.2182 32.6472C22.5783 32.6458 21.9652 32.3908 21.5127 31.9382C21.0603 31.4855 20.8055 30.8719 20.8041 30.2317C20.8051 30.0855 20.8213 29.9398 20.8524 29.7969C20.9548 29.2432 21.2478 28.7428 21.6804 28.3827C22.1131 28.0226 22.6581 27.8254 23.2208 27.8254C23.7836 27.8254 24.3286 28.0226 24.7613 28.3827C25.1939 28.7428 25.4869 29.2432 25.5893 29.7969C25.6182 29.9418 25.6326 30.0893 25.6322 30.2371C25.6251 30.873 25.3677 31.4806 24.9157 31.9278C24.4638 32.375 23.8538 32.6258 23.2182 32.6257V32.6472Z" fill="#1D1E1B"/>
<path d="M16.7861 93.8188H9.54398C9.43727 93.8188 9.33494 93.8613 9.25948 93.9368C9.18403 94.0123 9.14164 94.1147 9.14164 94.2214V107.104C9.14092 107.157 9.15083 107.21 9.1708 107.259C9.19076 107.308 9.22037 107.353 9.25787 107.391C9.29538 107.428 9.34002 107.458 9.38916 107.478C9.4383 107.498 9.49094 107.508 9.54398 107.507H16.7861C16.8928 107.507 16.9952 107.464 17.0706 107.389C17.1461 107.313 17.1884 107.211 17.1884 107.104V94.2214C17.1871 94.1151 17.1442 94.0135 17.0691 93.9383C16.9939 93.8631 16.8924 93.8202 16.7861 93.8188ZM15.1767 105.494H11.1533V95.8318H15.1767V105.494Z" fill="#1D1E1B"/>
<path d="M16.7861 44.7032H9.54398C9.43727 44.7032 9.33494 44.7457 9.25948 44.8212C9.18403 44.8967 9.14164 44.9991 9.14164 45.1058V50.7421C9.14092 50.7951 9.15083 50.8478 9.1708 50.897C9.19076 50.9461 9.22037 50.9908 9.25787 51.0283C9.29538 51.0659 9.34002 51.0955 9.38916 51.1155C9.4383 51.1354 9.49094 51.1454 9.54398 51.1446H16.7861C16.8928 51.1446 16.9952 51.1022 17.0706 51.0267C17.1461 50.9512 17.1884 50.8488 17.1884 50.7421V45.1273C17.1906 45.0728 17.1818 45.0185 17.1626 44.9675C17.1435 44.9165 17.1142 44.8698 17.0767 44.8303C17.0392 44.7908 16.9942 44.7592 16.9443 44.7373C16.8944 44.7155 16.8406 44.7039 16.7861 44.7032ZM15.1767 49.1317H11.1533V46.7377H15.1767V49.1317Z" fill="#1D1E1B"/>
<path d="M26.8446 73.6896H19.6025C19.4957 73.6896 19.3934 73.732 19.318 73.8075C19.2425 73.883 19.2001 73.9854 19.2001 74.0922V86.9749C19.1994 87.028 19.2093 87.0807 19.2293 87.1299C19.2492 87.179 19.2788 87.2237 19.3163 87.2612C19.3539 87.2987 19.3985 87.3284 19.4476 87.3484C19.4968 87.3683 19.5494 87.3782 19.6025 87.3775H26.8446C26.9513 87.3775 27.0536 87.3351 27.1291 87.2596C27.2045 87.1841 27.2469 87.0817 27.2469 86.9749V74.1136C27.2491 74.0592 27.2403 74.0048 27.2211 73.9538C27.2019 73.9028 27.1727 73.8561 27.1352 73.8166C27.0977 73.7771 27.0527 73.7455 27.0028 73.7237C26.9528 73.7018 26.899 73.6902 26.8446 73.6896ZM25.2352 85.3646H21.2118V75.724H25.2352V85.3646Z" fill="#1D1E1B"/>
<path d="M16.7861 59.1964H9.54398C9.43727 59.1964 9.33494 59.2388 9.25948 59.3143C9.18403 59.3898 9.14164 59.4922 9.14164 59.599V66.8456C9.14092 66.8986 9.15083 66.9513 9.1708 67.0005C9.19076 67.0496 9.22037 67.0943 9.25787 67.1318C9.29538 67.1694 9.34002 67.199 9.38916 67.219C9.4383 67.239 9.49094 67.2489 9.54398 67.2482H16.7861C16.8928 67.2482 16.9952 67.2057 17.0706 67.1302C17.1461 67.0547 17.1884 66.9523 17.1884 66.8456V59.6205C17.1906 59.566 17.1818 59.5117 17.1626 59.4606C17.1435 59.4096 17.1142 59.363 17.0767 59.3234C17.0392 59.2839 16.9942 59.2523 16.9443 59.2305C16.8944 59.2087 16.8406 59.1971 16.7861 59.1964ZM15.1767 65.2352H11.1533V61.2308H15.1767V65.2352Z" fill="#1D1E1B"/>
<path d="M36.9031 115.961H29.661C29.4388 115.961 29.2587 116.141 29.2587 116.364V117.571C29.2587 117.794 29.4388 117.974 29.661 117.974H36.9031C37.1253 117.974 37.3055 117.794 37.3055 117.571V116.364C37.3055 116.141 37.1253 115.961 36.9031 115.961Z" fill="#1D1E1B"/>
<path d="M23.6151 44.7246C23.0564 44.6691 22.4923 44.7314 21.9592 44.9074C21.426 45.0834 20.9356 45.3693 20.5196 45.7466C20.1037 46.1239 19.7713 46.5842 19.5441 47.0979C19.3168 47.6116 19.1996 48.1672 19.2001 48.729V53.9627C19.1994 54.0157 19.2093 54.0684 19.2293 54.1176C19.2492 54.1667 19.2788 54.2114 19.3163 54.2489C19.3539 54.2865 19.3985 54.3161 19.4476 54.3361C19.4968 54.356 19.5494 54.366 19.6025 54.3652H26.8446C26.9513 54.3652 27.0536 54.3228 27.1291 54.2473C27.2045 54.1718 27.2469 54.0694 27.2469 53.9627V48.8847C27.2586 47.8658 26.8947 46.8783 26.2248 46.1109C25.5548 45.3435 24.6257 44.85 23.6151 44.7246ZM25.2245 52.3523H21.2011V48.729C21.2081 48.1984 21.4238 47.6919 21.8013 47.3192C22.1788 46.9465 22.6878 46.7375 23.2182 46.7376H23.4274C23.9351 46.8199 24.3964 47.0819 24.7273 47.476C25.0581 47.8701 25.2365 48.37 25.2299 48.8847L25.2245 52.3523Z" fill="#1D1E1B"/>
<path d="M36.9031 111.935H29.661C29.4388 111.935 29.2587 112.116 29.2587 112.338V113.546C29.2587 113.768 29.4388 113.948 29.661 113.948H36.9031C37.1253 113.948 37.3055 113.768 37.3055 113.546V112.338C37.3055 112.116 37.1253 111.935 36.9031 111.935Z" fill="#1D1E1B"/>
<path d="M36.903 73.6896H29.6609C29.5542 73.6896 29.4519 73.732 29.3764 73.8075C29.301 73.883 29.2586 73.9854 29.2586 74.0922V86.9749C29.2579 87.028 29.2678 87.0807 29.2877 87.1299C29.3077 87.179 29.3373 87.2237 29.3748 87.2612C29.4123 87.2987 29.457 87.3284 29.5061 87.3484C29.5552 87.3683 29.6079 87.3782 29.6609 87.3775H36.903C37.0098 87.3775 37.1121 87.3351 37.1876 87.2596C37.263 87.1841 37.3054 87.0817 37.3054 86.9749V74.1136C37.3075 74.0592 37.2988 74.0048 37.2796 73.9538C37.2604 73.9028 37.2312 73.8561 37.1937 73.8166C37.1562 73.7771 37.1111 73.7455 37.0612 73.7237C37.0113 73.7018 36.9575 73.6902 36.903 73.6896ZM35.2937 85.3646H31.2703V75.724H35.2937V85.3646Z" fill="#1D1E1B"/>
<path d="M16.7861 73.6896H9.54398C9.43727 73.6896 9.33494 73.732 9.25948 73.8075C9.18403 73.883 9.14164 73.9854 9.14164 74.0922V86.9749C9.14092 87.028 9.15083 87.0807 9.1708 87.1299C9.19076 87.179 9.22037 87.2237 9.25787 87.2612C9.29538 87.2987 9.34002 87.3284 9.38916 87.3484C9.4383 87.3683 9.49094 87.3782 9.54398 87.3775H16.7861C16.8928 87.3775 16.9952 87.3351 17.0706 87.2596C17.1461 87.1841 17.1884 87.0817 17.1884 86.9749V74.1136C17.1906 74.0592 17.1818 74.0048 17.1626 73.9538C17.1435 73.9028 17.1142 73.8561 17.0767 73.8166C17.0392 73.7771 16.9942 73.7455 16.9443 73.7237C16.8944 73.7018 16.8406 73.6902 16.7861 73.6896ZM15.1767 85.3646H11.1533V75.724H15.1767V85.3646Z" fill="#1D1E1B"/>
<path d="M26.8446 59.1964H19.6025C19.4957 59.1964 19.3934 59.2388 19.318 59.3143C19.2425 59.3898 19.2001 59.4922 19.2001 59.599V66.8456C19.1994 66.8986 19.2093 66.9513 19.2293 67.0005C19.2492 67.0496 19.2788 67.0943 19.3163 67.1318C19.3539 67.1694 19.3985 67.199 19.4476 67.219C19.4968 67.239 19.5494 67.2489 19.6025 67.2482H26.8446C26.9513 67.2482 27.0536 67.2057 27.1291 67.1302C27.2045 67.0547 27.2469 66.9523 27.2469 66.8456V59.6205C27.2491 59.566 27.2403 59.5117 27.2211 59.4606C27.2019 59.4096 27.1727 59.363 27.1352 59.3234C27.0977 59.2839 27.0527 59.2523 27.0028 59.2305C26.9528 59.2087 26.899 59.1971 26.8446 59.1964ZM25.2352 65.2352H21.2118V61.2308H25.2352V65.2352Z" fill="#1D1E1B"/>
<path d="M36.903 59.1964H29.6609C29.5542 59.1964 29.4519 59.2388 29.3764 59.3143C29.301 59.3898 29.2586 59.4922 29.2586 59.599V66.8456C29.2579 66.8986 29.2678 66.9513 29.2877 67.0005C29.3077 67.0496 29.3373 67.0943 29.3748 67.1318C29.4123 67.1694 29.457 67.199 29.5061 67.219C29.5552 67.239 29.6079 67.2489 29.6609 67.2482H36.903C37.0098 67.2482 37.1121 67.2057 37.1876 67.1302C37.263 67.0547 37.3054 66.9523 37.3054 66.8456V59.6205C37.3075 59.566 37.2988 59.5117 37.2796 59.4606C37.2604 59.4096 37.2312 59.363 37.1937 59.3234C37.1562 59.2839 37.1111 59.2523 37.0612 59.2305C37.0113 59.2087 36.9575 59.1971 36.903 59.1964ZM35.2937 65.2352H31.2703V61.2308H35.2937V65.2352Z" fill="#1D1E1B"/>
<path d="M33.6736 93.8403C33.1149 93.7848 32.5508 93.8471 32.0176 94.0231C31.4845 94.1992 30.9941 94.485 30.5781 94.8623C30.1621 95.2396 29.8298 95.6999 29.6025 96.2136C29.3753 96.7273 29.2581 97.283 29.2586 97.8448V109.541C29.2579 109.594 29.2678 109.647 29.2877 109.696C29.3077 109.745 29.3373 109.79 29.3748 109.828C29.4123 109.865 29.457 109.895 29.5061 109.915C29.5552 109.935 29.6079 109.945 29.6609 109.944H36.903C37.0098 109.944 37.1121 109.901 37.1875 109.826C37.263 109.75 37.3054 109.648 37.3054 109.541V98.0165C37.3211 96.9949 36.959 96.0034 36.2886 95.2326C35.6183 94.4618 34.687 93.966 33.6736 93.8403ZM35.283 107.909H31.2596V97.8448C31.261 97.3113 31.4734 96.8001 31.8503 96.423C32.2273 96.0458 32.7382 95.8332 33.2713 95.8318H33.4805C33.9929 95.9148 34.4579 96.1807 34.7893 96.5805C35.1207 96.9802 35.2961 97.4866 35.283 98.0058V107.909Z" fill="#1D1E1B"/>
<path d="M36.903 44.7032H29.6609C29.5542 44.7032 29.4519 44.7457 29.3764 44.8212C29.301 44.8967 29.2586 44.9991 29.2586 45.1058V50.7421C29.2579 50.7951 29.2678 50.8478 29.2877 50.897C29.3077 50.9461 29.3373 50.9908 29.3748 51.0283C29.4123 51.0659 29.457 51.0955 29.5061 51.1155C29.5552 51.1354 29.6079 51.1454 29.6609 51.1446H36.903C37.0098 51.1446 37.1121 51.1022 37.1876 51.0267C37.263 50.9512 37.3054 50.8488 37.3054 50.7421V45.1273C37.3075 45.0728 37.2988 45.0185 37.2796 44.9675C37.2604 44.9165 37.2312 44.8698 37.1937 44.8303C37.1562 44.7908 37.1111 44.7592 37.0612 44.7373C37.0113 44.7155 36.9575 44.7039 36.903 44.7032ZM35.2937 49.1317H31.2703V46.7377H35.2937V49.1317Z" fill="#1D1E1B"/>
<path d="M84.7816 75.2998H75.9301C75.8234 75.2998 75.721 75.3422 75.6456 75.4177C75.5701 75.4932 75.5277 75.5956 75.5277 75.7024V88.5852C75.527 88.6382 75.5369 88.6909 75.5569 88.7401C75.5769 88.7892 75.6065 88.8339 75.644 88.8714C75.6815 88.909 75.7261 88.9386 75.7753 88.9586C75.8244 88.9786 75.8771 88.9885 75.9301 88.9878H84.7816C84.8883 88.9878 84.9906 88.9453 85.0661 88.8698C85.1415 88.7943 85.1839 88.6919 85.1839 88.5852V75.7239C85.1861 75.6694 85.1773 75.615 85.1581 75.564C85.1389 75.513 85.1097 75.4664 85.0722 75.4268C85.0347 75.3873 84.9897 75.3557 84.9397 75.3339C84.8898 75.3121 84.836 75.3005 84.7816 75.2998ZM83.1722 86.9748H77.5394V81.3386H83.1722V86.9748ZM83.1722 79.3257H77.5394V77.3342H83.1722V79.3257Z" fill="#1D1E1B"/>
<path d="M84.7816 59.1964H75.9301C75.8234 59.1964 75.721 59.2388 75.6456 59.3143C75.5701 59.3898 75.5277 59.4922 75.5277 59.599V68.4559C75.527 68.509 75.5369 68.5617 75.5569 68.6108C75.5769 68.66 75.6065 68.7047 75.644 68.7422C75.6815 68.7797 75.7261 68.8094 75.7753 68.8293C75.8244 68.8493 75.8771 68.8592 75.9301 68.8585H84.7816C84.8883 68.8585 84.9906 68.8161 85.0661 68.7406C85.1415 68.6651 85.1839 68.5627 85.1839 68.4559V59.6205C85.1861 59.566 85.1773 59.5117 85.1581 59.4606C85.1389 59.4096 85.1097 59.363 85.0722 59.3234C85.0347 59.2839 84.9897 59.2523 84.9397 59.2305C84.8898 59.2087 84.836 59.1971 84.7816 59.1964ZM83.1722 66.8456H77.5394V61.2308H83.1722V66.8456Z" fill="#1D1E1B"/>
<path d="M97.6565 59.1964H88.805C88.6983 59.1964 88.5959 59.2388 88.5205 59.3143C88.445 59.3898 88.4026 59.4922 88.4026 59.599V68.4559C88.4019 68.509 88.4118 68.5617 88.4318 68.6108C88.4517 68.66 88.4814 68.7047 88.5189 68.7422C88.5564 68.7797 88.601 68.8094 88.6501 68.8293C88.6993 68.8493 88.7519 68.8592 88.805 68.8585H97.6565C97.7632 68.8585 97.8655 68.8161 97.9409 68.7406C98.0164 68.6651 98.0588 68.5627 98.0588 68.4559V59.6205C98.0609 59.566 98.0522 59.5117 98.033 59.4606C98.0138 59.4096 97.9846 59.363 97.9471 59.3234C97.9096 59.2839 97.8645 59.2523 97.8146 59.2305C97.7647 59.2087 97.7109 59.1971 97.6565 59.1964ZM96.0471 66.8456H90.4143V61.2308H96.0471V66.8456Z" fill="#1D1E1B"/>
<path d="M97.6565 96.2344H88.805C88.6983 96.2344 88.5959 96.2768 88.5205 96.3523C88.445 96.4278 88.4026 96.5302 88.4026 96.637V101.871C88.4019 101.924 88.4118 101.976 88.4318 102.026C88.4517 102.075 88.4814 102.119 88.5189 102.157C88.5564 102.194 88.601 102.224 88.6501 102.244C88.6993 102.264 88.7519 102.274 88.805 102.273H97.6565C97.7632 102.273 97.8655 102.231 97.9409 102.155C98.0164 102.08 98.0588 101.977 98.0588 101.871V96.6584C98.0609 96.604 98.0522 96.5496 98.033 96.4986C98.0138 96.4476 97.9846 96.4009 97.9471 96.3614C97.9096 96.3219 97.8645 96.2903 97.8146 96.2685C97.7647 96.2466 97.7109 96.235 97.6565 96.2344ZM96.0471 100.26H90.4143V98.2688H96.0471V100.26Z" fill="#1D1E1B"/>
<path d="M97.6565 53.5603H75.9302C75.708 53.5603 75.5278 53.7405 75.5278 53.9629V55.1706C75.5278 55.393 75.708 55.5732 75.9302 55.5732H97.6565C97.8787 55.5732 98.0589 55.393 98.0589 55.1706V53.9629C98.0589 53.7405 97.8787 53.5603 97.6565 53.5603Z" fill="#1D1E1B"/>
<path d="M97.6565 75.2998H88.805C88.6983 75.2998 88.5959 75.3422 88.5205 75.4177C88.445 75.4932 88.4026 75.5956 88.4026 75.7024V88.5852C88.4019 88.6382 88.4118 88.6909 88.4318 88.7401C88.4517 88.7892 88.4814 88.8339 88.5189 88.8714C88.5564 88.909 88.601 88.9386 88.6501 88.9586C88.6993 88.9786 88.7519 88.9885 88.805 88.9878H97.6565C97.7632 88.9878 97.8655 88.9453 97.9409 88.8698C98.0164 88.7943 98.0588 88.6919 98.0588 88.5852V75.7239C98.0609 75.6694 98.0522 75.615 98.033 75.564C98.0138 75.513 97.9846 75.4664 97.9471 75.4268C97.9096 75.3873 97.8645 75.3557 97.8146 75.3339C97.7647 75.3121 97.7109 75.3005 97.6565 75.2998ZM96.0471 86.9748H90.4143V81.3386H96.0471V86.9748ZM96.0471 79.3257H90.4143V77.3342H96.0471V79.3257Z" fill="#1D1E1B"/>
<path d="M106.642 119.987H102.887V51.9499C102.886 51.3097 102.631 50.6962 102.178 50.2435C101.726 49.7908 101.113 49.5358 100.473 49.5344H98.8635V47.9241C98.8621 47.2839 98.6073 46.6703 98.1549 46.2176C97.7025 45.7649 97.0893 45.51 96.4495 45.5085H94.8401V43.8982C94.8387 43.258 94.5839 42.6444 94.1315 42.1917C93.6791 41.739 93.0659 41.4841 92.4261 41.4827H90.8167V39.8723C90.8153 39.2321 90.5605 38.6185 90.1081 38.1659C89.6557 37.7132 89.0425 37.4582 88.4027 37.4568H85.184C84.5437 37.4568 83.9297 37.7113 83.477 38.1643C83.0242 38.6173 82.7699 39.2317 82.7699 39.8723V41.4827H81.1605C80.5203 41.4827 79.9063 41.7372 79.4536 42.1902C79.0008 42.6432 78.7465 43.2576 78.7465 43.8982V45.5085H77.1371C76.4969 45.5085 75.8829 45.763 75.4302 46.216C74.9774 46.669 74.7231 47.2834 74.7231 47.9241V49.5344H72.706V22.1048C73.1604 22.011 73.5686 21.7633 73.8617 21.4034C74.1549 21.0436 74.3151 20.5937 74.3154 20.1294V16.5062C74.3154 15.8655 74.0611 15.2511 73.6083 14.7981C73.1556 14.3451 72.5416 14.0906 71.9013 14.0906H71.7458C72.0247 13.6269 72.2046 13.1103 72.2738 12.5735C72.3431 12.0367 72.3003 11.4913 72.1481 10.9719C71.9389 10.249 71.5323 9.59887 70.9742 9.09441C70.416 8.58996 69.7283 8.25122 68.9884 8.11624C68.3062 7.99433 67.604 8.05249 66.9511 8.285C66.2983 8.51751 65.7172 8.91632 65.2654 9.4421V9.32937C65.2747 6.8736 64.3086 4.51473 62.5797 2.7717C60.8508 1.02866 58.5007 0.0442316 56.0465 0.0349779C53.5922 0.0257243 51.2348 0.992402 49.4928 2.72235C47.7508 4.4523 46.767 6.80382 46.7578 9.25959V9.4421C46.3059 8.91632 45.7249 8.51751 45.072 8.285C44.4191 8.05249 43.717 7.99433 43.0348 8.11624C42.2948 8.25122 41.6072 8.58996 41.049 9.09441C40.4908 9.59887 40.0843 10.249 39.875 10.9719C39.7229 11.4913 39.6801 12.0367 39.7494 12.5735C39.8186 13.1103 39.9984 13.6269 40.2774 14.0906H40.1165C39.4767 14.0921 38.8634 14.347 38.411 14.7997C37.9586 15.2524 37.7038 15.866 37.7024 16.5062V20.1294C37.7027 20.5937 37.8629 21.0436 38.1561 21.4034C38.4492 21.7633 38.8574 22.011 39.3118 22.1048C39.3118 22.1048 39.3118 22.1048 39.3118 22.1424V27.4136H31.1845C30.6036 25.7644 29.5256 24.3362 28.0993 23.3259C26.6729 22.3156 24.9684 21.7731 23.2208 21.7731C21.4733 21.7731 19.7688 22.3156 18.3424 23.3259C16.916 24.3362 15.8381 25.7644 15.2572 27.4136H7.52688C6.88707 27.415 6.27387 27.67 5.82146 28.1226C5.36905 28.5753 5.11425 29.1889 5.11284 29.8291V36.2705C5.11471 36.7787 5.27817 37.2732 5.57955 37.6822C5.27825 38.0893 5.11473 38.5821 5.11284 39.0886V40.2964C5.11471 40.8046 5.27817 41.299 5.57955 41.7081C5.27825 42.1152 5.11473 42.6079 5.11284 43.1145V119.987H1.35766C1.0916 119.987 0.836444 120.093 0.648314 120.281C0.460183 120.469 0.354492 120.725 0.354492 120.991C0.354492 121.257 0.460183 121.512 0.648314 121.701C0.836444 121.889 1.0916 121.995 1.35766 121.995H106.642C106.908 121.995 107.163 121.889 107.351 121.701C107.54 121.512 107.645 121.257 107.645 120.991C107.645 120.725 107.54 120.469 107.351 120.281C107.163 120.093 106.908 119.987 106.642 119.987ZM68.2857 10.0648C68.6835 10.0648 69.0725 10.1828 69.4033 10.404C69.7341 10.6252 69.992 10.9396 70.1442 11.3074C70.2965 11.6752 70.3363 12.0799 70.2587 12.4704C70.1811 12.8609 69.9895 13.2195 69.7081 13.5011C69.4268 13.7826 69.0683 13.9743 68.6781 14.052C68.2879 14.1296 67.8834 14.0898 67.5158 13.9374C67.1482 13.7851 66.834 13.5271 66.613 13.196C66.3919 12.865 66.2739 12.4758 66.2739 12.0777C66.2739 11.5438 66.4859 11.0318 66.8632 10.6543C67.2404 10.2768 67.7521 10.0648 68.2857 10.0648ZM48.7695 9.47967C48.7463 7.7269 49.3464 6.02292 50.4627 4.67194C51.5789 3.32096 53.1387 2.41092 54.8636 2.10428C55.8981 1.94084 56.9557 2.00337 57.9638 2.28756C58.9719 2.57175 59.9066 3.07087 60.7037 3.75065C61.5008 4.43044 62.1414 5.27478 62.5816 6.22571C63.0218 7.17664 63.251 8.21162 63.2537 9.25959V13.6881C63.2537 13.7948 63.2113 13.8972 63.1359 13.9727C63.0604 14.0482 62.9581 14.0906 62.8514 14.0906H49.1718C49.0651 14.0906 48.9627 14.0482 48.8873 13.9727C48.8118 13.8972 48.7695 13.7948 48.7695 13.6881V9.47967ZM43.7429 10.0648C44.1408 10.0648 44.5297 10.1828 44.8605 10.404C45.1914 10.6252 45.4492 10.9396 45.6015 11.3074C45.7537 11.6752 45.7935 12.0799 45.7159 12.4704C45.6383 12.8609 45.4467 13.2195 45.1654 13.5011C44.884 13.7826 44.5256 13.9743 44.1353 14.052C43.7451 14.1296 43.3406 14.0898 42.973 13.9374C42.6054 13.7851 42.2913 13.5271 42.0702 13.196C41.8492 12.865 41.7312 12.4758 41.7312 12.0777C41.7312 11.5438 41.9431 11.0318 42.3204 10.6543C42.6977 10.2768 43.2094 10.0648 43.7429 10.0648ZM39.3118 27.4136C39.3118 27.4136 39.3064 27.4136 39.3118 27.4136V27.4136ZM39.3118 119.568C39.3118 119.675 39.2694 119.778 39.1939 119.853C39.1185 119.929 39.0161 119.971 38.9094 119.971H27.6439C27.5913 119.971 27.5393 119.961 27.4907 119.94C27.4422 119.92 27.3982 119.89 27.3613 119.853C27.3243 119.815 27.2952 119.771 27.2756 119.722C27.256 119.673 27.2462 119.621 27.2469 119.568V94.2216C27.2455 94.1152 27.2027 94.0137 27.1275 93.9385C27.0524 93.8633 26.9509 93.8204 26.8446 93.819H19.6025C19.4957 93.819 19.3934 93.8614 19.318 93.9369C19.2425 94.0124 19.2001 94.1148 19.2001 94.2216V107.104C19.1994 107.157 19.2093 107.21 19.2293 107.259C19.2492 107.308 19.2788 107.353 19.3164 107.391C19.3539 107.428 19.3985 107.458 19.4476 107.478C19.4968 107.498 19.5494 107.508 19.6025 107.507H25.2352V119.585C25.2352 119.691 25.1928 119.794 25.1174 119.869C25.0419 119.945 24.9396 119.987 24.8329 119.987H7.52688C7.47429 119.987 7.42223 119.977 7.37371 119.956C7.3252 119.936 7.2812 119.906 7.24426 119.869C7.20733 119.831 7.1782 119.787 7.15857 119.738C7.13894 119.689 7.12919 119.637 7.12991 119.585V43.093C7.12991 42.9862 7.17229 42.8838 7.24775 42.8083C7.3232 42.7328 7.42554 42.6904 7.53225 42.6904H38.9148C39.0211 42.6918 39.1226 42.7347 39.1978 42.8099C39.2729 42.8851 39.3158 42.9867 39.3171 43.093L39.3118 119.568ZM25.2299 95.8319V105.494H21.2065V95.8319H25.2299ZM39.3171 40.2964C39.3171 40.4032 39.2747 40.5056 39.1993 40.5811C39.1238 40.6565 39.0215 40.699 38.9148 40.699H7.53225C7.47921 40.6997 7.42657 40.6898 7.37743 40.6698C7.32829 40.6498 7.28365 40.6202 7.24614 40.5827C7.20863 40.5451 7.17902 40.5005 7.15906 40.4513C7.1391 40.4021 7.12918 40.3494 7.12991 40.2964V39.0886C7.12991 38.9818 7.17229 38.8794 7.24775 38.8039C7.3232 38.7284 7.42554 38.686 7.53225 38.686H38.9148C39.0211 38.6874 39.1226 38.7303 39.1978 38.8055C39.2729 38.8807 39.3158 38.9823 39.3171 39.0886V40.2964ZM39.3171 36.2705C39.3171 36.3773 39.2747 36.4797 39.1993 36.5552C39.1238 36.6307 39.0215 36.6731 38.9148 36.6731H7.53225C7.47921 36.6738 7.42657 36.6639 7.37743 36.6439C7.32829 36.6239 7.28365 36.5943 7.24614 36.5568C7.20863 36.5193 7.17902 36.4746 7.15906 36.4254C7.1391 36.3763 7.12918 36.3236 7.12991 36.2705V29.8291C7.12991 29.7223 7.17229 29.6199 7.24775 29.5444C7.3232 29.4689 7.42554 29.4265 7.53225 29.4265H16.1692C16.3482 29.428 16.5224 29.3688 16.6636 29.2587C16.8048 29.1486 16.9047 28.994 16.947 28.82C17.2733 27.3995 18.0715 26.1317 19.211 25.2238C20.3506 24.3159 21.7642 23.8216 23.2208 23.8216C24.6775 23.8216 26.0911 24.3159 27.2306 25.2238C28.3702 26.1317 29.1683 27.3995 29.4947 28.82C29.537 28.994 29.6369 29.1486 29.7781 29.2587C29.9193 29.3688 30.0935 29.428 30.2725 29.4265H38.9148C39.0211 29.4279 39.1226 29.4708 39.1978 29.546C39.2729 29.6212 39.3158 29.7228 39.3171 29.8291V36.2705ZM55.0084 119.606C55.0084 119.713 54.966 119.815 54.8906 119.891C54.8151 119.966 54.7128 120.009 54.6061 120.009H41.7312C41.6786 120.009 41.6265 119.998 41.578 119.978C41.5295 119.958 41.4855 119.928 41.4486 119.89C41.4116 119.853 41.3825 119.809 41.3629 119.76C41.3432 119.711 41.3335 119.659 41.3342 119.606V118.398C41.3342 118.292 41.3766 118.189 41.452 118.114C41.5275 118.038 41.6298 117.996 41.7365 117.996H54.6114C54.7177 117.997 54.8192 118.04 54.8944 118.115C54.9696 118.19 55.0124 118.292 55.0138 118.398L55.0084 119.606ZM55.0084 115.58C55.0084 115.687 54.966 115.789 54.8906 115.865C54.8151 115.94 54.7128 115.983 54.6061 115.983H41.7312C41.6781 115.983 41.6255 115.974 41.5764 115.954C41.5272 115.934 41.4826 115.904 41.4451 115.866C41.4076 115.829 41.378 115.784 41.358 115.735C41.338 115.686 41.3281 115.633 41.3288 115.58V114.372C41.3288 114.266 41.3712 114.163 41.4467 114.088C41.5221 114.012 41.6245 113.97 41.7312 113.97H54.6061C54.7124 113.971 54.8139 114.014 54.889 114.089C54.9642 114.164 55.007 114.266 55.0084 114.372V115.58ZM55.0084 111.554C55.0084 111.661 54.966 111.763 54.8906 111.839C54.8151 111.914 54.7128 111.957 54.6061 111.957H41.7312C41.6781 111.958 41.6255 111.948 41.5764 111.928C41.5272 111.908 41.4826 111.878 41.4451 111.841C41.4076 111.803 41.378 111.758 41.358 111.709C41.338 111.66 41.3281 111.607 41.3288 111.554V110.347C41.3288 110.24 41.3712 110.137 41.4467 110.062C41.5221 109.986 41.6245 109.944 41.7312 109.944H54.6061C54.7124 109.945 54.8139 109.988 54.889 110.063C54.9642 110.139 55.007 110.24 55.0084 110.347V111.554ZM46.5539 107.931V90.5983H49.7726V107.931H46.5539ZM65.4639 119.606C65.4646 119.659 65.4547 119.712 65.4347 119.761C65.4148 119.81 65.3852 119.855 65.3477 119.892C65.3102 119.93 65.2655 119.959 65.2164 119.979C65.1672 119.999 65.1146 120.009 65.0616 120.009H62.6475C62.5408 120.009 62.4385 119.966 62.363 119.891C62.2876 119.815 62.2452 119.713 62.2452 119.606V117.593C62.2466 117.487 62.2894 117.385 62.3646 117.31C62.4397 117.235 62.5412 117.192 62.6475 117.191H65.0616C65.1683 117.191 65.2706 117.233 65.3461 117.308C65.4215 117.384 65.4639 117.486 65.4639 117.593V119.606ZM70.6997 119.606C70.6997 119.713 70.6573 119.815 70.5818 119.891C70.5064 119.966 70.4041 120.009 70.2974 120.009H67.8779C67.8254 120.009 67.7733 119.998 67.7248 119.978C67.6763 119.958 67.6323 119.928 67.5953 119.89C67.5584 119.853 67.5293 119.809 67.5096 119.76C67.49 119.711 67.4803 119.659 67.481 119.606V117.593C67.4796 116.953 67.2248 116.339 66.7723 115.887C66.3199 115.434 65.7067 115.179 65.0669 115.178H62.6529C62.0126 115.178 61.3986 115.432 60.9459 115.885C60.4932 116.338 60.2388 116.952 60.2388 117.593V119.606C60.2388 119.713 60.1964 119.815 60.121 119.891C60.0455 119.966 59.9432 120.009 59.8365 120.009H57.4171C57.3645 120.009 57.3124 119.998 57.2639 119.978C57.2154 119.958 57.1714 119.928 57.1345 119.89C57.0975 119.853 57.0684 119.809 57.0488 119.76C57.0291 119.711 57.0194 119.659 57.0201 119.606V97.6463C57.0302 97.5079 57.0117 97.369 56.9657 97.2381C56.9198 97.1072 56.8473 96.9872 56.7529 96.8856C56.6586 96.784 56.5442 96.703 56.4171 96.6476C56.29 96.5922 56.1529 96.5636 56.0143 96.5636C55.8756 96.5636 55.7385 96.5922 55.6114 96.6476C55.4843 96.703 55.37 96.784 55.2756 96.8856C55.1812 96.9872 55.1088 97.1072 55.0628 97.2381C55.0168 97.369 54.9983 97.5079 55.0084 97.6463V107.507C55.0084 107.614 54.966 107.716 54.8906 107.792C54.8151 107.867 54.7128 107.91 54.6061 107.91H52.192C52.139 107.91 52.0864 107.9 52.0372 107.88C51.9881 107.86 51.9434 107.831 51.9059 107.793C51.8684 107.756 51.8388 107.711 51.8189 107.662C51.7989 107.613 51.789 107.56 51.7897 107.507V88.988C51.7883 88.8816 51.7455 88.78 51.6703 88.7048C51.5952 88.6296 51.4936 88.5868 51.3874 88.5854H44.9499C44.8432 88.5854 44.7409 88.6278 44.6654 88.7033C44.59 88.7788 44.5476 88.8812 44.5476 88.988V107.507C44.5476 107.614 44.5052 107.716 44.4297 107.792C44.3543 107.867 44.2519 107.91 44.1452 107.91H41.7312C41.6781 107.91 41.6255 107.9 41.5764 107.88C41.5272 107.86 41.4826 107.831 41.4451 107.793C41.4076 107.756 41.378 107.711 41.358 107.662C41.338 107.613 41.3281 107.56 41.3288 107.507V22.1585H70.6997V119.606ZM72.3091 19.7644C72.3091 19.8712 72.2667 19.9736 72.1912 20.0491C72.1158 20.1246 72.0134 20.167 71.9067 20.167H40.1218C40.0688 20.1677 40.0161 20.1578 39.967 20.1378C39.9179 20.1179 39.8732 20.0882 39.8357 20.0507C39.7982 20.0132 39.7686 19.9685 39.7486 19.9193C39.7287 19.8702 39.7188 19.8175 39.7195 19.7644V16.5437C39.7195 16.437 39.7619 16.3346 39.8373 16.2591C39.9128 16.1836 40.0151 16.1411 40.1218 16.1411H71.9067C72.013 16.1425 72.1145 16.1854 72.1897 16.2606C72.2648 16.3358 72.3077 16.4374 72.3091 16.5437V19.7644ZM96.0471 120.025H90.4144V106.321H96.0471V120.025ZM100.875 119.622C100.875 119.729 100.833 119.831 100.757 119.907C100.682 119.982 100.58 120.025 100.473 120.025H98.4558C98.4032 120.025 98.3512 120.014 98.3027 119.994C98.2541 119.974 98.2101 119.944 98.1732 119.906C98.1363 119.869 98.1071 119.825 98.0875 119.776C98.0679 119.727 98.0581 119.675 98.0588 119.622V104.71C98.0575 104.604 98.0146 104.502 97.9395 104.427C97.8643 104.352 97.7628 104.309 97.6565 104.308H88.805C88.6983 104.308 88.596 104.35 88.5205 104.426C88.4451 104.501 88.4027 104.604 88.4027 104.71V119.606C88.4027 119.713 88.3603 119.815 88.2848 119.891C88.2094 119.966 88.107 120.009 88.0003 120.009H73.1084C73.0558 120.009 73.0037 119.998 72.9552 119.978C72.9067 119.958 72.8627 119.928 72.8258 119.89C72.7888 119.853 72.7597 119.809 72.7401 119.76C72.7204 119.711 72.7107 119.659 72.7114 119.606V51.9714C72.7114 51.8646 72.7538 51.7622 72.8292 51.6867C72.9047 51.6112 73.007 51.5688 73.1137 51.5688H76.7348V47.9455C76.7348 47.8388 76.7772 47.7364 76.8526 47.6609C76.9281 47.5854 77.0304 47.5429 77.1371 47.5429H80.7582V43.9197C80.7582 43.8129 80.8006 43.7105 80.876 43.635C80.9515 43.5595 81.0538 43.5171 81.1605 43.5171H84.7816V39.8938C84.7816 39.787 84.824 39.6846 84.8995 39.6091C84.9749 39.5336 85.0772 39.4912 85.184 39.4912H88.4027C88.5089 39.4926 88.6105 39.5355 88.6856 39.6107C88.7608 39.6859 88.8036 39.7875 88.805 39.8938V43.5171H92.4261C92.5324 43.5185 92.6339 43.5613 92.709 43.6365C92.7842 43.7117 92.827 43.8133 92.8284 43.9197V47.5429H96.4495C96.5558 47.5443 96.6573 47.5872 96.7324 47.6624C96.8076 47.7376 96.8504 47.8392 96.8518 47.9455V51.5688H100.473C100.579 51.5702 100.681 51.6131 100.756 51.6883C100.831 51.7635 100.874 51.8651 100.875 51.9714V119.622Z" fill="#1D1E1B"/>
<path d="M93.6331 49.5344H79.9535C79.7313 49.5344 79.5511 49.7147 79.5511 49.937V51.1448C79.5511 51.3671 79.7313 51.5474 79.9535 51.5474H93.6331C93.8553 51.5474 94.0354 51.3671 94.0354 51.1448V49.937C94.0354 49.7147 93.8553 49.5344 93.6331 49.5344Z" fill="#1D1E1B"/>
<path d="M84.7816 96.2344H75.9301C75.8234 96.2344 75.721 96.2768 75.6456 96.3523C75.5701 96.4278 75.5277 96.5302 75.5277 96.637V113.546C75.527 113.599 75.5369 113.651 75.5569 113.701C75.5769 113.75 75.6065 113.794 75.644 113.832C75.6815 113.869 75.7261 113.899 75.7753 113.919C75.8244 113.939 75.8771 113.949 75.9301 113.948H84.7816C84.8883 113.948 84.9906 113.906 85.0661 113.83C85.1415 113.755 85.1839 113.652 85.1839 113.546V96.6584C85.1861 96.604 85.1773 96.5496 85.1581 96.4986C85.1389 96.4476 85.1097 96.4009 85.0722 96.3614C85.0347 96.3219 84.9897 96.2903 84.9397 96.2685C84.8898 96.2466 84.836 96.235 84.7816 96.2344ZM83.1722 111.935H77.5394V102.273H83.1722V111.935ZM83.1722 100.26H77.5394V98.2688H83.1722V100.26Z" fill="#1D1E1B"/>
</g>
<defs>
<clipPath id="clip0_87_42330">
<rect width="107.291" height="122" fill="white" transform="translate(0.354492)"/>
</clipPath>
</defs>
</svg>
