<svg preserveAspectRatio="xMidYMax meet" width="123" height="139" viewBox="0 0 123 139" fill="none" xmlns="http://www.w3.org/2000/svg">
<g clip-path="url(#clip0_87_43587)">
<path d="M4.9134 94.1532H3.58545V98.4208H4.9134V94.1532Z" fill="#25221E"/>
<path d="M8.63166 94.1532H7.30371V98.4208H8.63166V94.1532Z" fill="#25221E"/>
<path d="M4.9134 101.755H3.58545V106.022H4.9134V101.755Z" fill="#25221E"/>
<path d="M8.63166 101.755H7.30371V106.022H8.63166V101.755Z" fill="#25221E"/>
<path d="M37.0499 94.1532H35.7219V98.4208H37.0499V94.1532Z" fill="#25221E"/>
<path d="M37.0499 101.755H35.7219V106.022H37.0499V101.755Z" fill="#25221E"/>
<path d="M4.9134 109.356H3.58545V113.624H4.9134V109.356Z" fill="#25221E"/>
<path d="M8.63166 109.356H7.30371V113.624H8.63166V109.356Z" fill="#25221E"/>
<path d="M4.9134 116.958H3.58545V121.226H4.9134V116.958Z" fill="#25221E"/>
<path d="M8.63166 116.958H7.30371V121.226H8.63166V116.958Z" fill="#25221E"/>
<path d="M49.2457 50.4106H47.9177V105.089H49.2457V50.4106Z" fill="#25221E"/>
<path d="M51.9017 133.628H50.5737V136.295H51.9017V133.628Z" fill="#25221E"/>
<path d="M49.2457 133.628H47.9177V136.295H49.2457V133.628Z" fill="#25221E"/>
<path d="M54.5574 133.628H53.2295V136.295H54.5574V133.628Z" fill="#25221E"/>
<path d="M57.2134 133.628H55.8855V136.295H57.2134V133.628Z" fill="#25221E"/>
<path d="M49.2457 109.09H47.9177V129.627H49.2457V109.09Z" fill="#25221E"/>
<path d="M55.3543 65.0804H54.0264V112.29H55.3543V65.0804Z" fill="#25221E"/>
<path d="M58.4085 116.291H57.0806V129.627H58.4085V116.291Z" fill="#25221E"/>
<path d="M43.137 65.0804H41.8091V112.29H43.137V65.0804Z" fill="#25221E"/>
<path d="M41.2779 133.628H39.95V136.295H41.2779V133.628Z" fill="#25221E"/>
<path d="M40.0828 116.291H38.7549V129.627H40.0828V116.291Z" fill="#25221E"/>
<path d="M43.9339 133.628H42.606V136.295H43.9339V133.628Z" fill="#25221E"/>
<path d="M35.9661 133.628H34.6382V136.295H35.9661V133.628Z" fill="#25221E"/>
<path d="M38.6221 133.628H37.2942V136.295H38.6221V133.628Z" fill="#25221E"/>
<path d="M33.3104 133.628H31.9824V136.295H33.3104V133.628Z" fill="#25221E"/>
<path d="M46.5897 133.628H45.2617V136.295H46.5897V133.628Z" fill="#25221E"/>
<path d="M123 100.512C122.859 100.233 122.623 100.014 122.336 99.8931V97.85C122.336 97.4256 122.168 97.0185 121.869 96.7184C121.57 96.4182 121.165 96.2496 120.742 96.2496H119.813V94.6493C119.813 94.2249 119.645 93.8178 119.346 93.5177C119.047 93.2176 118.642 93.049 118.219 93.049H117.688V91.4486H120.875C121.298 91.4486 121.703 91.28 122.002 90.9799C122.301 90.6798 122.469 90.2727 122.469 89.8483V88.248C122.469 87.8235 122.301 87.4165 122.002 87.1163C121.703 86.8162 121.298 86.6476 120.875 86.6476H117.688C117.514 86.6469 117.341 86.6809 117.179 86.7477C117.018 86.8145 116.871 86.9127 116.748 87.0367C116.624 87.1606 116.526 87.3079 116.46 87.47C116.393 87.6322 116.36 87.8059 116.36 87.9812V93.049H116.095C115.672 93.049 115.267 93.2176 114.968 93.5177C114.669 93.8178 114.501 94.2249 114.501 94.6493V96.2496H113.848V87.2184C113.848 86.794 113.68 86.3869 113.381 86.0868C113.082 85.7867 112.677 85.6181 112.254 85.6181H109.455V55.249C109.455 54.8246 109.287 54.4175 108.988 54.1174C108.689 53.8173 108.284 53.6487 107.861 53.6487H106.831V49.9145C106.831 49.7377 106.761 49.5681 106.636 49.443C106.512 49.318 106.343 49.2477 106.167 49.2477C105.991 49.2477 105.822 49.318 105.697 49.443C105.573 49.5681 105.503 49.7377 105.503 49.9145V53.6487H102.666V49.9145C102.666 49.7377 102.596 49.5681 102.472 49.443C102.347 49.318 102.179 49.2477 102.002 49.2477C101.826 49.2477 101.657 49.318 101.533 49.443C101.408 49.5681 101.338 49.7377 101.338 49.9145V53.6487H100.409C99.9862 53.6487 99.5809 53.8173 99.2821 54.1174C98.9832 54.4175 98.8153 54.8246 98.8153 55.249V85.6181H96.8234V66.1686C96.822 65.9251 96.7653 65.6852 96.6576 65.467C96.5499 65.2488 96.3941 65.0582 96.2019 64.9097C96.2617 64.7605 96.2924 64.6011 96.2922 64.4403V57.4148C96.2915 57.0952 96.1954 56.7831 96.0165 56.5188C95.8376 56.2545 95.5839 56.0501 95.2883 55.9318L93.291 55.1156C93.294 55.0944 93.294 55.0728 93.291 55.0516C93.2847 55.019 93.2758 54.9869 93.2645 54.9556C93.2418 54.8667 93.2134 54.7794 93.1795 54.6942C93.1694 54.6613 93.157 54.6293 93.1423 54.5982C93.1423 54.5715 93.1423 54.5448 93.1423 54.5235V52.8325C93.1407 52.6983 93.1283 52.5645 93.1051 52.4324V52.3097C93.1051 52.1977 93.052 52.091 93.0202 51.9843L92.983 51.883C92.983 51.8083 92.9245 51.7336 92.8927 51.6589V49.8985C92.8899 49.7753 92.8793 49.6523 92.8608 49.5305C92.8546 49.4873 92.8457 49.4445 92.8342 49.4024C92.8342 49.3224 92.7971 49.2424 92.7758 49.1677C92.7546 49.093 92.7333 49.045 92.7121 48.9917C92.6908 48.9383 92.6589 48.8583 92.6271 48.7943V46.9646C92.627 46.8518 92.6163 46.7393 92.5952 46.6285C92.5952 46.5858 92.5952 46.5432 92.5952 46.5005C92.5807 46.4374 92.563 46.3751 92.5421 46.3138C92.5421 46.2604 92.5102 46.2124 92.489 46.1591C92.459 46.0785 92.4235 46 92.3827 45.9244V44.0306C92.3812 43.9088 92.3687 43.7874 92.3456 43.6679C92.3486 43.6288 92.3486 43.5896 92.3456 43.5505C92.3456 43.4758 92.3031 43.4012 92.2765 43.3265C92.2499 43.2518 92.2393 43.2358 92.2181 43.1931C92.1968 43.1504 92.1596 43.0811 92.1278 43.0224C92.0959 42.9637 92.0693 42.9264 92.0375 42.8784C92.0185 42.8563 92.0008 42.8331 91.9844 42.809C91.8825 42.6791 91.7647 42.5626 91.6338 42.4623C91.5618 42.4064 91.4854 42.3565 91.4054 42.3129H91.3682C91.2838 42.2702 91.1969 42.2327 91.1079 42.2009V33.3617C91.1079 33.1849 91.038 33.0153 90.9134 32.8902C90.7889 32.7651 90.62 32.6949 90.4439 32.6949C90.2678 32.6949 90.099 32.7651 89.9744 32.8902C89.8499 33.0153 89.78 33.1849 89.78 33.3617V42.1582C89.6909 42.1901 89.604 42.2275 89.5197 42.2703H89.4825C89.4025 42.3138 89.3261 42.3637 89.2541 42.4196C89.1232 42.52 89.0054 42.6364 88.9035 42.7664C88.8871 42.7904 88.8694 42.8136 88.8504 42.8357C88.8185 42.8837 88.7867 42.9317 88.7601 42.9797C88.7335 43.0277 88.6964 43.0918 88.6698 43.1504C88.6432 43.2091 88.6326 43.2411 88.6114 43.2838C88.5901 43.3265 88.5635 43.4332 88.5423 43.5078C88.5393 43.5469 88.5393 43.5861 88.5423 43.6252C88.5191 43.7448 88.5067 43.8662 88.5051 43.988V45.8817C88.4644 45.9574 88.4289 46.0358 88.3989 46.1164C88.3989 46.1697 88.3617 46.2178 88.3458 46.2711C88.3249 46.3324 88.3072 46.3947 88.2927 46.4578C88.2927 46.5005 88.2927 46.5432 88.2927 46.5858C88.2715 46.6966 88.2609 46.8091 88.2608 46.9219V48.7516C88.2289 48.8156 88.2023 48.8797 88.1758 48.949C88.1492 49.0183 88.1333 49.061 88.112 49.125C88.0908 49.189 88.0695 49.2797 88.0536 49.3597C88.0422 49.4018 88.0333 49.4446 88.0271 49.4878C88.0086 49.6097 87.9979 49.7326 87.9952 49.8559V51.6376C87.9633 51.7122 87.9315 51.7869 87.9049 51.8616L87.8677 51.963C87.8358 52.0697 87.8093 52.1763 87.7827 52.2884V52.4111C87.7596 52.5432 87.7471 52.677 87.7455 52.8111V54.5022C87.7455 54.5022 87.7455 54.5502 87.7455 54.5768C87.7308 54.6079 87.7184 54.64 87.7084 54.6729C87.6745 54.7581 87.6461 54.8454 87.6234 54.9343C87.6121 54.9655 87.6032 54.9976 87.5968 55.0303C87.5938 55.0604 87.5938 55.0908 87.5968 55.121L85.6049 55.9105C85.3092 56.0287 85.0556 56.2332 84.8767 56.4975C84.6977 56.7618 84.6017 57.0738 84.6009 57.3934V64.4403C84.6001 64.6029 84.6308 64.7642 84.6912 64.915C84.4991 65.0636 84.3433 65.2542 84.2356 65.4723C84.1279 65.6905 84.0712 65.9305 84.0698 66.174V67.4382C83.2056 67.119 82.2922 66.9547 81.3714 66.9528C79.9416 66.9537 78.539 67.3446 77.3132 68.0837L76.8617 28.7901C76.8617 28.3656 76.6938 27.9586 76.3949 27.6585C76.0961 27.3583 75.6908 27.1897 75.2681 27.1897H75.1088C75.2126 26.9358 75.2667 26.6641 75.2681 26.3896V25.8561C75.2681 25.2902 75.0443 24.7475 74.6458 24.3473C74.2473 23.9472 73.7069 23.7223 73.1434 23.7223H70.8859V17.4543C71.0519 17.3052 71.185 17.1228 71.2765 16.9188C71.368 16.7148 71.4159 16.4938 71.4171 16.2701V15.4699C71.4171 15.0455 71.2492 14.6384 70.9503 14.3383C70.6515 14.0382 70.2462 13.8696 69.8235 13.8696H69.5579V0.666807C69.5579 0.489959 69.488 0.320356 69.3635 0.195305C69.239 0.0702542 69.0701 0 68.894 0C68.7179 0 68.549 0.0702542 68.4245 0.195305C68.2999 0.320356 68.23 0.489959 68.23 0.666807V13.8696H67.9644C67.5418 13.8696 67.1365 14.0382 66.8376 14.3383C66.5388 14.6384 66.3708 15.0455 66.3708 15.4699V16.2701C66.372 16.4938 66.4199 16.7148 66.5114 16.9188C66.6029 17.1228 66.736 17.3052 66.902 17.4543V23.7383H64.6445C64.081 23.7383 63.5406 23.9632 63.1421 24.3633C62.7436 24.7635 62.5198 25.3062 62.5198 25.8721V26.4056C62.5216 26.6795 62.5739 26.9508 62.6739 27.2057H62.5145C62.0918 27.2057 61.6865 27.3743 61.3877 27.6745C61.0889 27.9746 60.9209 28.3816 60.9209 28.8061L60.7085 47.2313H54.175C54.1059 47.2313 54.0475 47.2313 53.9837 47.2313C53.92 47.2313 53.8616 47.2313 53.7978 47.2313C53.8059 47.1444 53.8059 47.0569 53.7978 46.9699L53.2667 44.3027C53.1976 43.9559 52.7673 43.0117 52.6877 42.7877L51.7687 40.9686C51.6204 40.5435 51.545 40.0962 51.5456 39.6457V36.5517C51.5442 36.1588 51.4466 35.7723 51.2613 35.4262C51.076 35.0802 50.8088 34.7852 50.4833 34.5673V27.4725C50.4816 27.0602 50.3531 26.6585 50.1154 26.3224C49.8777 25.9863 49.5424 25.7321 49.1553 25.5947V16.6702C49.1553 16.4933 49.0854 16.3237 48.9608 16.1987C48.8363 16.0736 48.6674 16.0034 48.4914 16.0034C48.3153 16.0034 48.1464 16.0736 48.0218 16.1987C47.8973 16.3237 47.8274 16.4933 47.8274 16.6702V25.5947C47.4403 25.7321 47.105 25.9863 46.8673 26.3224C46.6296 26.6585 46.5011 27.0602 46.4994 27.4725V34.5673C46.1739 34.7852 45.9067 35.0802 45.7214 35.4262C45.5361 35.7723 45.4385 36.1588 45.4371 36.5517V39.6457C45.4373 40.0961 45.3619 40.5434 45.214 40.9686L44.5819 42.777C44.5022 43.0011 44.0507 43.9453 44.0029 44.292L43.4717 46.9592C43.4636 47.0462 43.4636 47.1337 43.4717 47.2206C43.0491 47.2206 42.6437 47.3892 42.3449 47.6894C42.046 47.9895 41.8782 48.3965 41.8782 48.821V52.8218C41.4704 52.8437 41.0866 53.0219 40.8059 53.3197C40.5252 53.6175 40.369 54.0121 40.3696 54.4222V62.4238C39.947 62.4238 39.5417 62.5924 39.2428 62.8926C38.944 63.1927 38.7761 63.5997 38.7761 64.0242V74.9598H35.0844V31.1479C35.0844 30.7235 34.9165 30.3164 34.6176 30.0163C34.3188 29.7162 33.9135 29.5476 33.4908 29.5476C33.2002 29.5489 32.9155 29.6301 32.6675 29.7823L11.4203 42.793C11.1879 42.9364 10.996 43.1372 10.863 43.3763C10.73 43.6154 10.6604 43.8848 10.6607 44.1586V90.9525H1.63065C1.20802 90.9525 0.802716 91.1211 0.503869 91.4212C0.205023 91.7214 0.0371094 92.1284 0.0371094 92.5529V137.362C0.0371094 137.787 0.205023 138.194 0.503869 138.494C0.802716 138.794 1.20802 138.963 1.63065 138.963H100.09C100.2 138.986 100.312 138.998 100.425 139H107.861C107.974 138.999 108.086 138.986 108.196 138.963H112.254C112.456 138.962 112.657 138.923 112.844 138.845C113.033 138.922 113.235 138.962 113.439 138.963H120.875C121.298 138.963 121.703 138.794 122.002 138.494C122.301 138.194 122.469 137.787 122.469 137.362V126.533C122.634 126.385 122.766 126.205 122.857 126.003C122.949 125.801 122.997 125.582 123 125.36V124.293V100.512ZM117.688 87.9812H120.875C120.946 87.9812 121.013 88.0093 121.063 88.0593C121.113 88.1094 121.141 88.1772 121.141 88.248V89.8483C121.141 89.919 121.113 89.9869 121.063 90.0369C121.013 90.0869 120.946 90.115 120.875 90.115H117.688V87.9812ZM121.805 103.878V101.099V103.878ZM119.149 97.85C119.149 97.7792 119.177 97.7114 119.227 97.6614C119.276 97.6114 119.344 97.5833 119.414 97.5833H120.726C120.797 97.5833 120.865 97.6114 120.914 97.6614C120.964 97.7114 120.992 97.7792 120.992 97.85V98.6502C120.992 98.7209 120.964 98.7887 120.914 98.8388C120.865 98.8888 120.797 98.9169 120.726 98.9169H119.399C119.328 98.9169 119.261 98.8888 119.211 98.8388C119.161 98.7887 119.133 98.7209 119.133 98.6502L119.149 97.85ZM119.149 100.25H120.477V119.492H119.133L119.149 100.25ZM115.829 94.6493C115.829 94.5786 115.857 94.5107 115.907 94.4607C115.957 94.4107 116.024 94.3826 116.095 94.3826H118.219C118.29 94.3826 118.357 94.4107 118.407 94.4607C118.457 94.5107 118.485 94.5786 118.485 94.6493V95.4495C118.485 95.5202 118.457 95.5881 118.407 95.6381C118.357 95.6881 118.29 95.7162 118.219 95.7162H116.095C116.024 95.7162 115.957 95.6881 115.907 95.6381C115.857 95.5881 115.829 95.5202 115.829 95.4495V94.6493ZM117.821 97.0498V119.492H116.477V97.0498H117.821ZM115.123 97.5833V98.9169H113.529C113.459 98.9169 113.391 98.8888 113.341 98.8388C113.291 98.7887 113.263 98.7209 113.263 98.6502V97.85C113.263 97.7792 113.291 97.7114 113.341 97.6614C113.391 97.6114 113.459 97.5833 113.529 97.5833H115.123ZM115.165 100.25V119.492H113.821V100.25H115.165ZM103.729 113.773C104.504 113.331 105.264 112.861 105.997 112.354V115.358H104.26V114.958C104.259 114.734 104.211 114.513 104.119 114.309C104.028 114.105 103.895 113.922 103.729 113.773ZM83.5439 99.7544V97.3539C83.5439 97.2831 83.5719 97.2153 83.6217 97.1653C83.6715 97.1152 83.7391 97.0872 83.8095 97.0872H86.9966V127.494H85.6686V99.7544H83.5439ZM81.6848 103.489V101.088C81.6848 101.017 81.7127 100.949 81.7626 100.899C81.8124 100.849 81.8799 100.821 81.9504 100.821H84.3407V103.489H81.6848ZM84.3407 104.822V113.357H80.0912V105.089C80.0912 105.018 80.1192 104.95 80.169 104.9C80.2188 104.85 80.2864 104.822 80.3568 104.822H84.3407ZM88.3245 97.0872H89.6525V127.494H88.3245V97.0872ZM90.9804 97.0872H92.3084V127.494H90.9804V97.0872ZM93.6363 97.0872H96.8234C96.8938 97.0872 96.9614 97.1152 97.0112 97.1653C97.061 97.2153 97.089 97.2831 97.089 97.3539V99.7544H94.9643V127.494H93.6363V97.0872ZM108.541 104.689H101.811C101.723 104.347 101.525 104.043 101.247 103.826C100.969 103.609 100.628 103.49 100.276 103.489V101.088C100.276 100.953 100.256 100.818 100.218 100.688H111.229C110.495 102.124 109.593 103.467 108.541 104.689ZM101.87 110.023V106.049H107.309C105.771 107.59 104.049 108.933 102.183 110.05L101.87 110.023ZM96.2922 100.821H98.6825C98.753 100.821 98.8205 100.849 98.8703 100.899C98.9202 100.949 98.9481 101.017 98.9481 101.088V103.489H96.2922V100.821ZM96.2922 113.357V104.822H100.276C100.347 104.822 100.414 104.85 100.464 104.9C100.514 104.95 100.542 105.018 100.542 105.089V113.357H96.2922ZM106.002 116.718V119.519H104.26V116.718H106.002ZM107.33 116.718H112.509V119.519H107.33V116.718ZM107.33 115.384V111.384H112.488V115.384H107.33ZM108.924 110.05C110.229 108.887 111.422 107.602 112.488 106.214V110.05H108.924ZM101.848 113.32V111.752C106.751 109.084 110.512 105.206 112.472 101.125V103.905C109.793 107.891 106.143 111.123 101.87 113.293L101.848 113.32ZM111.941 97.8766V99.381H98.4169V97.3539C98.4169 96.9295 98.2491 96.5224 97.9502 96.2223C97.6514 95.9221 97.246 95.7535 96.8234 95.7535V95.3801H112.52V96.6497C112.342 96.7957 112.198 96.9785 112.097 97.1857C111.996 97.3929 111.941 97.6195 111.935 97.85L111.941 97.8766ZM96.8234 94.0198V92.7129H112.52V94.0465L96.8234 94.0198ZM107.861 54.9823C107.932 54.9823 107.999 55.0104 108.049 55.0604C108.099 55.1104 108.127 55.1783 108.127 55.249V85.6181H106.831V54.9823H107.861ZM105.503 54.9823V85.6181H102.666V54.9823H105.503ZM100.159 55.249C100.159 55.1783 100.187 55.1104 100.237 55.0604C100.287 55.0104 100.354 54.9823 100.425 54.9823H101.354V85.6181H100.159V55.249ZM112.254 86.9517C112.325 86.9517 112.392 86.9798 112.442 87.0298C112.492 87.0798 112.52 87.1477 112.52 87.2184V91.3526H96.8234V86.9517H112.254ZM93.6629 56.7L94.8262 57.1694C94.8751 57.1888 94.917 57.2226 94.9464 57.2664C94.9758 57.3102 94.9913 57.362 94.9908 57.4148V64.4403H93.6363L93.6629 56.7ZM89.679 44.0306C89.679 43.8538 89.749 43.6842 89.8735 43.5591C89.998 43.4341 90.1669 43.3638 90.343 43.3638C90.5191 43.3638 90.688 43.4341 90.8125 43.5591C90.937 43.6842 91.007 43.8538 91.007 44.0306V44.8095C90.5768 44.6603 90.1092 44.6603 89.679 44.8095V44.0306ZM89.4134 46.9646C89.4134 46.717 89.5114 46.4795 89.6857 46.3045C89.86 46.1294 90.0965 46.0311 90.343 46.0311C90.5895 46.0311 90.826 46.1294 91.0003 46.3045C91.1746 46.4795 91.2726 46.717 91.2726 46.9646V47.5514C90.978 47.4281 90.6621 47.3647 90.343 47.3647C90.0239 47.3647 89.708 47.4281 89.4134 47.5514V46.9646ZM89.1478 49.8985C89.1478 49.5802 89.2738 49.2749 89.4979 49.0498C89.722 48.8247 90.026 48.6983 90.343 48.6983C90.66 48.6983 90.964 48.8247 91.1881 49.0498C91.4122 49.2749 91.5382 49.5802 91.5382 49.8985V50.3146C91.1674 50.127 90.7581 50.0293 90.343 50.0293C89.9279 50.0293 89.5186 50.127 89.1478 50.3146V49.8985ZM88.8823 52.8325C88.8823 52.4434 89.0362 52.0703 89.3101 51.7952C89.5841 51.5201 89.9556 51.3655 90.343 51.3655C90.7304 51.3655 91.102 51.5201 91.3759 51.7952C91.6499 52.0703 91.8037 52.4434 91.8037 52.8325V53.0779C91.3566 52.8294 90.854 52.6991 90.343 52.6991C89.832 52.6991 89.3294 52.8294 88.8823 53.0779V52.8325ZM88.6167 55.7664C88.6167 55.3066 88.7985 54.8657 89.1223 54.5405C89.446 54.2154 89.8851 54.0327 90.343 54.0327C90.8008 54.0327 91.24 54.2154 91.5637 54.5405C91.8875 54.8657 92.0693 55.3066 92.0693 55.7664V55.8625C91.5515 55.538 90.9534 55.366 90.343 55.366C89.7326 55.366 89.1345 55.538 88.6167 55.8625V55.7664ZM85.6952 57.4148C85.6947 57.362 85.7102 57.3102 85.7396 57.2664C85.769 57.2226 85.8109 57.1888 85.8598 57.1694L87.0231 56.7V64.4403H85.6686L85.6952 57.4148ZM85.164 67.2355V66.1686C85.164 66.0979 85.192 66.03 85.2418 65.98C85.2916 65.93 85.3591 65.9019 85.4296 65.9019H88.3245V58.7004C88.325 58.4022 88.3918 58.1078 88.5202 57.8389C88.6485 57.57 88.8351 57.3333 89.0663 57.1461C89.2975 56.959 89.5674 56.8261 89.8563 56.7572C90.1452 56.6883 90.4458 56.6852 90.7361 56.748C91.1922 56.8466 91.6003 57.1008 91.8908 57.4675C92.1813 57.8341 92.3364 58.2905 92.3296 58.7591V65.9019H95.2299C95.3003 65.9019 95.3679 65.93 95.4177 65.98C95.4675 66.03 95.4955 66.0979 95.4955 66.1686V95.7535H93.6363V67.2355H92.3084V95.7535H90.9804V58.7004C90.9804 58.5235 90.9105 58.3539 90.786 58.2289C90.6614 58.1038 90.4925 58.0336 90.3164 58.0336C90.1404 58.0336 89.9715 58.1038 89.8469 58.2289C89.7224 58.3539 89.6525 58.5235 89.6525 58.7004V95.7535H88.3245V67.2355H86.9966V95.7535H85.1374L85.164 67.2355ZM81.1376 68.3024C82.068 68.3019 82.9878 68.5001 83.836 68.8839V95.7535C83.4134 95.7535 83.0081 95.9221 82.7092 96.2223C82.4104 96.5224 82.2425 96.9295 82.2425 97.3539V99.4877H81.9504C81.5277 99.4877 81.1224 99.6563 80.8236 99.9564C80.5247 100.257 80.3568 100.664 80.3568 101.088V103.489C79.9342 103.489 79.5289 103.657 79.23 103.957C78.9312 104.257 78.7633 104.664 78.7633 105.089V113.357H77.9665C77.8355 113.359 77.7053 113.376 77.5788 113.411L77.0741 69.668C78.2299 68.7698 79.6497 68.282 81.1111 68.2811L81.1376 68.3024ZM75.0344 28.5607C75.069 28.56 75.1034 28.5662 75.1356 28.579C75.1678 28.5919 75.1971 28.611 75.2219 28.6353C75.2466 28.6597 75.2663 28.6887 75.2797 28.7208C75.2931 28.7529 75.3 28.7873 75.3 28.8221L76.3623 120.847L69.9882 28.5607H75.0344ZM68.6602 28.5607L75.0344 120.847H62.2861L68.6602 28.5607ZM64.6764 25.0933H67.9963V16.5582H67.7307C67.6602 16.5582 67.5927 16.5301 67.5429 16.48C67.4931 16.43 67.4651 16.3622 67.4651 16.2914V15.4913C67.4651 15.4205 67.4931 15.3527 67.5429 15.3027C67.5927 15.2526 67.6602 15.2245 67.7307 15.2245H69.5898C69.6602 15.2245 69.7278 15.2526 69.7776 15.3027C69.8274 15.3527 69.8554 15.4205 69.8554 15.4913V16.2914C69.854 16.3617 69.8256 16.4288 69.7761 16.4785C69.7266 16.5283 69.6598 16.5568 69.5898 16.5582H69.3242V25.0933H72.6441C72.9258 25.0933 73.1961 25.2057 73.3953 25.4058C73.5945 25.6059 73.7064 25.8772 73.7064 26.1602C73.7064 26.4431 73.5945 26.7145 73.3953 26.9146C73.1961 27.1147 72.9258 27.2271 72.6441 27.2271H64.6764C64.3946 27.2271 64.1244 27.1147 63.9252 26.9146C63.726 26.7145 63.614 26.4431 63.614 26.1602C63.614 25.8772 63.726 25.6059 63.9252 25.4058C64.1244 25.2057 64.3946 25.0933 64.6764 25.0933ZM62.2808 28.5607H67.3323L60.9581 120.847L62.0205 28.8221C62.0159 28.7539 62.0377 28.6865 62.0811 28.6339C62.1246 28.5812 62.1866 28.5474 62.2542 28.5394L62.2808 28.5607ZM59.6249 133.65H58.5625V136.317H59.6249V137.65H30.7818C30.7959 137.562 30.8048 137.473 30.8084 137.384V132.316H59.6036L59.6249 133.65ZM5.59858 137.384V128.849C5.59858 128.778 5.62655 128.71 5.67636 128.66C5.72616 128.61 5.79373 128.582 5.86417 128.582H14.6286V137.65H5.86417C5.82569 137.654 5.78696 137.648 5.7507 137.635C5.71443 137.622 5.68149 137.601 5.65418 137.573C5.62687 137.546 5.60586 137.513 5.59258 137.476C5.57931 137.44 5.57409 137.401 5.57731 137.362L5.59858 137.384ZM38.7708 86.1729H35.0791V81.5105H38.7708V86.1729ZM35.0791 87.5065H38.7708V90.9739H35.0791V87.5065ZM38.7708 113.645H37.0444V108.023C37.0444 107.952 37.0724 107.884 37.1222 107.834C37.172 107.784 37.2396 107.756 37.31 107.756H38.7708V113.645ZM41.8251 114.979V130.982H37.0444V114.979H41.8251ZM38.7708 106.444H37.31C36.8874 106.444 36.4821 106.612 36.1832 106.913C35.8844 107.213 35.7165 107.62 35.7165 108.044V117.379H35.0791V92.3075H38.7708V106.444ZM33.7511 95.5081H11.9727V94.1745H33.7511V95.5081ZM33.7511 96.8418V98.1754H11.9727V96.8418H33.7511ZM33.7511 99.509V100.843H11.9727V99.509H33.7511ZM33.7511 102.176V103.51H11.9727V102.176H33.7511ZM33.7511 104.843V106.177H11.9727V104.843H33.7511ZM33.7511 107.511V108.844H11.9727V107.511H33.7511ZM33.7511 110.178V111.512H11.9727V110.178H33.7511ZM33.7511 112.845V114.179H11.9727V112.845H33.7511ZM33.7511 115.512V116.846H11.9727V115.512H33.7511ZM33.7511 118.18V119.513H11.9727V118.18H33.7511ZM33.9901 125.824C34.3059 125.718 34.5808 125.515 34.7761 125.245C34.9714 124.974 35.0773 124.649 35.0791 124.314V118.692H35.7165V130.961H33.9901V125.824ZM33.7511 91.5073V92.8409H11.9727V91.5073H33.7511ZM11.9727 120.847H33.7511V124.314C33.7498 124.385 33.7213 124.452 33.6718 124.501C33.6223 124.551 33.5555 124.58 33.4855 124.581H12.2383C12.1679 124.581 12.1003 124.553 12.0505 124.503C12.0007 124.453 11.9727 124.385 11.9727 124.314V120.847ZM32.6622 125.915V130.982H30.8296V125.915H32.6622ZM18.8781 125.915H22.5963V137.65H18.8781V125.915ZM23.9243 125.915H25.5178V137.65H23.9243V125.915ZM17.5501 125.915V137.65H15.9566V125.915H17.5501ZM26.8458 125.915H29.5017V137.384C29.5003 137.454 29.4719 137.521 29.4224 137.571C29.3729 137.62 29.3061 137.649 29.2361 137.65H26.8458V125.915ZM46.2073 107.777H50.9879V130.982H46.2073V107.777ZM56.8309 63.7681C56.9013 63.7681 56.9689 63.7962 57.0187 63.8462C57.0685 63.8963 57.0965 63.9641 57.0965 64.0349V113.645H54.0422V130.982H52.3159V63.7681H56.8309ZM52.3159 62.4345V54.1448H55.2373C55.3078 54.1448 55.3753 54.1729 55.4251 54.2229C55.4749 54.2729 55.5029 54.3407 55.5029 54.4115V62.4132L52.3159 62.4345ZM59.7046 113.645H58.4244V107.777H59.7736L59.7046 113.645ZM59.7046 114.979L59.6408 120.847C59.6408 121.098 59.6408 121.951 59.6408 122.196V130.998H55.3914V114.995L59.7046 114.979ZM59.8055 106.444H58.4403V64.0135C58.4403 63.5891 58.2725 63.182 57.9736 62.8819C57.6748 62.5818 57.2694 62.4132 56.8468 62.4132V54.4115C56.8468 53.987 56.6789 53.58 56.3801 53.2799C56.0812 52.9797 55.6759 52.8111 55.2533 52.8111H55.1683V48.8103C55.1764 48.7216 55.1764 48.6323 55.1683 48.5436H60.4801L59.8055 106.444ZM47.8646 27.4938C47.8646 27.317 47.9345 27.1473 48.059 27.0223C48.1835 26.8972 48.3524 26.827 48.5285 26.827C48.7046 26.827 48.8735 26.8972 48.998 27.0223C49.1225 27.1473 49.1925 27.317 49.1925 27.4938V34.1619H47.8646V27.4938ZM46.5047 41.4167C46.7017 40.8509 46.8022 40.2558 46.8022 39.6564V36.5624C46.8022 36.2794 46.9141 36.0081 47.1133 35.808C47.3126 35.6079 47.5828 35.4955 47.8646 35.4955H49.1925C49.4743 35.4955 49.7445 35.6079 49.9437 35.808C50.1429 36.0081 50.2549 36.2794 50.2549 36.5624V39.6564C50.2548 40.2558 50.3554 40.8509 50.5523 41.4167L51.1844 43.2305H45.8301L46.5047 41.4167ZM45.299 44.5427H51.6731L52.2043 47.21H44.7678L45.299 44.5427ZM43.1742 48.8103C43.1742 48.7396 43.2022 48.6717 43.252 48.6217C43.3018 48.5717 43.3694 48.5436 43.4398 48.5436H53.5322C53.6027 48.5436 53.6702 48.5717 53.7201 48.6217C53.7699 48.6717 53.7978 48.7396 53.7978 48.8103V52.8111H50.9613V106.422H46.1807V52.8111H43.1742V48.8103ZM41.6657 54.4115C41.6657 54.3407 41.6937 54.2729 41.7435 54.2229C41.7933 54.1729 41.8608 54.1448 41.9313 54.1448H44.8527V62.4132H41.6657V54.4115ZM40.0721 64.0135C40.0721 63.9428 40.1001 63.8749 40.1499 63.8249C40.1997 63.7749 40.2673 63.7468 40.3377 63.7468H44.8527V130.961H43.1264V113.624H40.0721V64.0135ZM38.7442 76.2828V80.1502H35.0525V76.2828H38.7442ZM11.9515 44.1693C11.9512 44.1233 11.9628 44.078 11.9852 44.0378C12.0075 43.9976 12.0398 43.9639 12.079 43.9399L33.3262 30.9292C33.3666 30.9045 33.4128 30.8911 33.46 30.8903C33.5073 30.8896 33.5539 30.9015 33.5951 30.9249C33.6362 30.9483 33.6704 30.9822 33.6941 31.0233C33.7178 31.0644 33.7301 31.1111 33.7298 31.1586V50.1439H11.9515V44.1693ZM11.9515 51.4882H33.7298V52.8218H11.9515V51.4882ZM11.9515 54.1554H33.7298V55.489H11.9515V54.1554ZM11.9515 56.8227H33.7298V58.1563H11.9515V56.8227ZM11.9515 59.4899H33.7298V60.8235H11.9515V59.4899ZM11.9515 62.1571H33.7298V63.4907H11.9515V62.1571ZM11.9515 64.8243H33.7298V66.158H11.9515V64.8243ZM11.9515 67.4916H33.7298V68.8252H11.9515V67.4916ZM11.9515 70.1588H33.7298V71.4924H11.9515V70.1588ZM11.9515 72.826H33.7298V74.1597H11.9515V72.826ZM11.9515 75.4933H33.7298V76.8269H11.9515V75.4933ZM11.9515 78.1605H33.7298V79.4941H11.9515V78.1605ZM11.9515 80.8277H33.7298V82.1613H11.9515V80.8277ZM11.9515 83.495H33.7298V84.8286H11.9515V83.495ZM11.9515 86.1622H33.7298V87.4958H11.9515V86.1622ZM11.9515 88.8294H33.7298V90.163H11.9515V88.8294ZM1.32787 137.373V92.5635C1.32787 92.4928 1.35587 92.4249 1.40568 92.3749C1.45549 92.3249 1.52302 92.2968 1.59346 92.2968H10.6235V124.304C10.6235 124.728 10.7914 125.135 11.0903 125.435C11.3891 125.735 11.7944 125.904 12.2171 125.904H14.6074V127.238H8.64755V124.57H7.3196V127.238H5.85885C5.52452 127.236 5.19858 127.343 4.92929 127.542V124.56H3.60134V128.827H4.26531V137.362C4.25748 137.451 4.25748 137.54 4.26531 137.629H1.60941C1.57322 137.631 1.53696 137.626 1.50288 137.614C1.46879 137.601 1.4376 137.582 1.41123 137.557C1.38485 137.532 1.36386 137.502 1.34953 137.468C1.3352 137.435 1.32781 137.399 1.32787 137.362V137.373ZM72.0863 137.64V133.372H65.181V137.64H60.9316V122.17H76.3358V137.64H72.0863ZM88.0217 137.64H86.6938V135.506H85.3658V137.64H83.7723V135.506H82.4444V137.64H80.8508V135.506H79.5229V137.64H77.9665C77.8961 137.64 77.8285 137.612 77.7787 137.562C77.7289 137.512 77.7009 137.444 77.7009 137.373V134.172H88.0164L88.0217 137.64ZM91.2088 137.64H89.3497V132.305C89.3497 132.235 89.3777 132.167 89.4275 132.117C89.4773 132.067 89.5448 132.039 89.6153 132.039H90.9432C91.0137 132.039 91.0812 132.067 91.1311 132.117C91.1809 132.167 91.2088 132.235 91.2088 132.305V137.64ZM92.0056 130.705H88.5529C88.412 130.705 88.2769 130.761 88.1773 130.861C88.0777 130.961 88.0217 131.097 88.0217 131.238V132.839H77.7009V114.958C77.7009 114.887 77.7289 114.819 77.7787 114.769C77.8285 114.719 77.8961 114.691 77.9665 114.691H84.3407V128.827H96.2922V114.691H102.666C102.737 114.691 102.804 114.719 102.854 114.769C102.904 114.819 102.932 114.887 102.932 114.958V132.828H92.5315V131.228C92.5315 131.086 92.4755 130.951 92.3759 130.85C92.2763 130.75 92.1412 130.694 92.0003 130.694L92.0056 130.705ZM111.473 126.037H104.26V124.293H111.314V125.36C111.315 125.591 111.368 125.819 111.468 126.027L111.473 126.037ZM104.26 137.629C104.268 137.54 104.268 137.451 104.26 137.362V132.721H111.845V137.389C111.846 137.479 111.855 137.568 111.872 137.656L104.26 137.629ZM104.26 131.361V127.387H111.845V131.388L104.26 131.361ZM92.5315 134.162H102.932V137.362C102.932 137.433 102.904 137.501 102.854 137.551C102.804 137.601 102.737 137.629 102.666 137.629H101.03V135.495H99.7024V137.629H98.1088V135.495H96.7809V137.629H95.1874V135.495H93.8594V137.629H92.5315V134.162ZM114.501 137.629H113.439C113.368 137.629 113.301 137.601 113.251 137.551C113.201 137.501 113.173 137.433 113.173 137.362V126.96H114.501V137.629ZM114.501 125.627H112.908C112.837 125.627 112.77 125.598 112.72 125.548C112.67 125.498 112.642 125.431 112.642 125.36V124.293H114.501V125.627ZM118.485 137.362C118.485 137.433 118.457 137.501 118.407 137.551C118.357 137.601 118.29 137.629 118.219 137.629H116.095C116.024 137.629 115.957 137.601 115.907 137.551C115.857 137.501 115.829 137.433 115.829 137.362V126.96H118.485V137.362ZM118.485 125.627H115.829V124.293H118.485V125.627ZM121.141 137.362C121.141 137.433 121.113 137.501 121.063 137.551C121.013 137.601 120.946 137.629 120.875 137.629H119.813V126.96H121.141V137.362ZM121.672 125.36C121.672 125.431 121.644 125.498 121.594 125.548C121.544 125.598 121.477 125.627 121.406 125.627H119.813V124.293H121.672V125.36ZM104.26 122.959V120.826V122.959Z" fill="#25221E"/>
<path d="M83.0128 116.025H81.6848V131.494H83.0128V116.025Z" fill="#25221E"/>
<path d="M82.88 106.156H81.552V112.024H82.88V106.156Z" fill="#25221E"/>
<path d="M80.357 116.025H79.0291V131.494H80.357V116.025Z" fill="#25221E"/>
<path d="M98.9481 116.025H97.6201V131.494H98.9481V116.025Z" fill="#25221E"/>
<path d="M101.604 116.025H100.276V131.494H101.604V116.025Z" fill="#25221E"/>
<path d="M99.0809 106.156H97.7529V112.024H99.0809V106.156Z" fill="#25221E"/>
<path d="M25.4968 45.8763H19.6538C19.5071 45.8763 19.3882 45.9958 19.3882 46.1431V46.9432C19.3882 47.0905 19.5071 47.21 19.6538 47.21H25.4968C25.6434 47.21 25.7623 47.0905 25.7623 46.9432V46.1431C25.7623 45.9958 25.6434 45.8763 25.4968 45.8763Z" fill="#25221E"/>
</g>
<defs>
<clipPath id="clip0_87_43587">
<rect width="123" height="139" fill="white"/>
</clipPath>
</defs>
</svg>
