<svg preserveAspectRatio="xMidYMax meet" width="123" height="69" viewBox="0 0 123 69" fill="none" xmlns="http://www.w3.org/2000/svg">
<g clip-path="url(#clip0_87_43138)">
<path d="M111.068 32.9556L111.115 32.9934C111.096 32.9493 111.084 32.9304 111.068 32.9556Z" fill="#25221E"/>
<path d="M118.705 45.8706H111.79L112.133 52.5455H120.922C120.45 50.2403 119.705 47.9996 118.705 45.8706ZM112.604 46.6468H117.714L112.846 51.3254L112.604 46.6468ZM118.389 47.0752C119.045 48.5921 119.57 50.1626 119.959 51.7694H113.502L118.389 47.0752Z" fill="#25221E"/>
<path d="M121.065 53.3217H112.174L112.52 59.9966H121.399C121.43 59.2825 121.449 58.5343 121.449 57.7302C121.445 56.2524 121.317 54.7776 121.065 53.3217ZM112.991 54.0978H119.649L113.236 58.7734L112.991 54.0978ZM120.668 59.2204H113.948L120.451 54.4735C120.595 55.55 120.667 56.6348 120.668 57.7209C120.668 58.2425 120.668 58.7361 120.668 59.2204Z" fill="#25221E"/>
<path d="M112.907 67.4446H120.396C120.896 65.2504 121.218 63.0192 121.359 60.7728H112.561L112.907 67.4446ZM119.77 66.6685H114.09L120.485 62.0116C120.338 63.5765 120.099 65.1315 119.77 66.6685ZM119.804 61.549L113.61 66.06L113.375 61.549H119.804Z" fill="#25221E"/>
<path d="M119.055 43.0889C119.674 42.8157 120.036 42.3779 120.036 41.847C120.036 41.6412 119.955 41.4438 119.81 41.2982C119.664 41.1526 119.467 41.0709 119.262 41.0709H117.856C117.856 41.0709 117.677 40.7604 117.593 40.6486C115.801 37.8566 113.651 35.3128 111.198 33.0827V25.0697C111.2 24.9508 111.175 24.833 111.124 24.7254C111.074 24.6178 110.999 24.5231 110.907 24.4488L110.133 23.8279C109.995 23.7181 109.825 23.6579 109.65 23.6571C109.444 23.6571 109.247 23.7389 109.102 23.8844C108.957 24.03 108.875 24.2274 108.875 24.4333V32.5052C108.875 32.5239 108.875 32.5425 108.875 32.5611C108.695 32.6252 108.538 32.7437 108.427 32.9004C108.316 33.0572 108.257 33.2445 108.256 33.4366V40.7325C108.256 40.7511 108.256 40.7697 108.256 40.7884C108.075 40.8524 107.919 40.9709 107.808 41.1277C107.697 41.2844 107.637 41.4717 107.637 41.6639V42.44H107.172C106.823 42.44 106.488 42.579 106.241 42.8265C105.995 43.0739 105.856 43.4095 105.856 43.7595C105.856 44.1094 105.995 44.445 106.241 44.6925C106.488 44.9399 106.823 45.0789 107.172 45.0789H107.637V48.3388L108.411 49.2701V45.0789H109.804V52.9491C109.905 53.101 109.959 53.2791 109.959 53.4614V53.9271C109.958 54.1083 109.904 54.2852 109.804 54.4362V68.2083H109.324C109.29 68.4112 109.189 68.5969 109.037 68.7362C108.886 68.8755 108.693 68.9606 108.488 68.9782H108.566H120.894C121.105 68.9785 121.31 68.9067 121.475 68.7746C121.64 68.6426 121.755 68.4582 121.802 68.2517C122.629 64.7953 123.031 61.2504 123 57.6961C123 52.8001 121.671 47.8762 119.055 43.0889ZM119.262 41.847C119.262 42.2755 118.429 42.6232 117.404 42.6232C116.379 42.6232 115.546 42.2755 115.546 41.847H119.262ZM112.592 42.4679H112.384V42.4276L112.121 37.3702C113.201 38.5816 114.205 39.8601 115.125 41.1982C115.016 41.2679 114.927 41.364 114.866 41.4773C114.804 41.5907 114.772 41.7179 114.772 41.847C114.772 42.5828 115.441 43.123 116.5 43.3155L117.054 44.3307H113.787C113.879 44.1302 113.919 43.9096 113.904 43.6894C113.889 43.4691 113.818 43.2563 113.699 43.0707C113.58 42.885 113.416 42.7324 113.222 42.6271C113.029 42.5217 112.812 42.467 112.592 42.4679ZM111.111 33.0051L111.065 32.9678C111.083 32.9306 111.096 32.9492 111.111 32.9927V33.0051ZM116.943 41.0771H115.976C114.586 39.0087 113 37.0792 111.241 35.3149L111.61 42.4742H110.489L110.458 33.4708C112.957 35.6922 115.141 38.2449 116.952 41.0585L116.943 41.0771ZM109.65 24.4674L110.424 25.0883V32.5394H109.65V24.4674ZM109.03 33.4708C109.03 33.4296 109.047 33.3901 109.076 33.361C109.105 33.3319 109.144 33.3156 109.185 33.3156H109.804V40.7666H109.03V33.4708ZM108.411 41.698C108.411 41.6568 108.427 41.6173 108.456 41.5882C108.485 41.5591 108.525 41.5428 108.566 41.5428H109.804V42.4742H108.411V41.698ZM107.172 44.3369C107.028 44.3369 106.891 44.2797 106.789 44.1778C106.687 44.0759 106.63 43.9377 106.63 43.7936C106.63 43.6495 106.687 43.5113 106.789 43.4094C106.891 43.3075 107.028 43.2503 107.172 43.2503H112.592C112.735 43.2503 112.873 43.3075 112.975 43.4094C113.076 43.5113 113.134 43.6495 113.134 43.7936C113.134 43.9377 113.076 44.0759 112.975 44.1778C112.873 44.2797 112.735 44.3369 112.592 44.3369H107.172ZM121.046 68.1213C121.039 68.1561 121.02 68.1873 120.992 68.2094C120.964 68.2315 120.93 68.2432 120.894 68.2424H110.579L110.498 45.1131H118.333C118.023 44.5232 117.732 43.9551 117.423 43.4055C117.715 43.4057 118.008 43.3808 118.296 43.331C120.464 47.2832 122.226 52.1916 122.226 57.7488C122.253 61.2353 121.857 64.7122 121.046 68.1027V68.1213Z" fill="#25221E"/>
<path d="M76.9006 62.353C76.9414 62.3522 76.9803 62.3356 77.0092 62.3067C77.038 62.2777 77.0546 62.2387 77.0554 62.1978V60.8007C77.0567 60.4102 76.9111 60.0335 76.6477 59.7457C76.3842 59.458 76.0222 59.2804 75.634 59.2484C76.0801 58.8555 76.4376 58.3718 76.6827 57.8295C76.9278 57.2872 77.0549 56.6988 77.0554 56.1035C77.0554 53.9923 73.5746 51.341 72.9645 50.8939C72.938 50.8745 72.906 50.864 72.8731 50.864C72.8403 50.864 72.8083 50.8745 72.7818 50.8939C72.1624 51.341 68.6939 53.9985 68.6939 56.1035C68.6903 56.7031 68.8154 57.2965 69.0606 57.8434C69.3059 58.3903 69.6656 58.878 70.1154 59.2733C69.7271 59.3053 69.3651 59.4829 69.1017 59.7706C68.8382 60.0583 68.6926 60.435 68.6939 60.8256V62.2226C68.6939 62.2638 68.7102 62.3033 68.7393 62.3324C68.7683 62.3615 68.8077 62.3779 68.8488 62.3779L76.9006 62.353ZM76.2812 60.8007V61.5769H74.2156V60.1519H75.9127C76.0234 60.2204 76.1151 60.3158 76.1795 60.4292C76.2439 60.5425 76.2788 60.6703 76.2812 60.8007ZM75.1199 58.6772C75.0238 58.7636 74.9511 58.8729 74.9083 58.995C74.8655 59.1171 74.8542 59.248 74.8752 59.3757H74.2156V58.5996H75.1973L75.1199 58.6772ZM75.8198 57.8234H74.2156V57.0472H76.1418C76.0668 57.3183 75.9586 57.579 75.8198 57.8234ZM76.2812 56.1159C76.2812 56.1686 76.2812 56.2214 76.2812 56.2711H74.2156V55.4949H76.1418C76.2259 55.6916 76.2731 55.9021 76.2812 56.1159ZM75.7331 54.7188H74.2156V53.9426H75.1446C75.3572 54.1884 75.5538 54.4476 75.7331 54.7188ZM74.2187 53.1665V52.9678L74.4262 53.1665H74.2187ZM72.8747 51.8222C73.0667 51.9712 73.2556 52.1326 73.4445 52.2848V61.5986H72.5154V52.0954C72.6362 51.9961 72.7539 51.8998 72.8747 51.8222ZM69.4681 60.8256C69.4705 60.6319 69.5448 60.446 69.6765 60.3042C69.8082 60.1624 69.9878 60.0749 70.1804 60.0587C70.3318 60.046 70.476 59.9889 70.5952 59.8945C70.7145 59.8002 70.8034 59.6728 70.8509 59.5282C70.8985 59.3836 70.9025 59.2282 70.8626 59.0813C70.8227 58.9344 70.7405 58.8025 70.6263 58.702C70.263 58.382 69.9718 57.9881 69.7721 57.5464C69.5723 57.1048 69.4687 56.6256 69.4681 56.1407C69.4681 55.2435 70.4901 53.9457 71.7412 52.7939V61.6017H69.4681V60.8256Z" fill="#25221E"/>
<path d="M109.324 68.2238C109.328 68.1721 109.328 68.1203 109.324 68.0686V54.8181C109.515 54.75 109.678 54.6213 109.789 54.4518C109.889 54.3008 109.943 54.1238 109.944 53.9426V53.4769C109.944 53.2299 109.846 52.993 109.672 52.8183C109.497 52.6437 109.261 52.5455 109.015 52.5455V51.4589C109.014 51.3415 108.986 51.2258 108.934 51.1205C108.985 51.0609 109.027 50.9952 109.061 50.9249C109.136 50.7641 109.164 50.5852 109.141 50.4092C109.118 50.2332 109.045 50.0674 108.931 49.9315L108.395 49.2857L107.621 48.3543L107.596 48.3233C107.524 48.236 107.433 48.1658 107.33 48.1175C107.227 48.0693 107.115 48.0441 107.002 48.0438C106.888 48.0435 106.776 48.0683 106.673 48.1166C106.57 48.165 106.48 48.2355 106.407 48.3233L105.069 49.9315C104.956 50.0677 104.884 50.2336 104.861 50.4096C104.839 50.5856 104.867 50.7644 104.942 50.9249C104.976 50.9952 105.019 51.0609 105.069 51.1205C105.017 51.2258 104.99 51.3415 104.989 51.4589V52.5455C104.742 52.5455 104.506 52.6437 104.332 52.8183C104.158 52.993 104.06 53.2299 104.06 53.4769V54.0978H96.7822V49.4409C96.7822 49.4223 96.7822 49.4037 96.7822 49.385C96.9629 49.321 97.1195 49.2025 97.2304 49.0457C97.3412 48.889 97.4011 48.7017 97.4016 48.5095V48.0438C97.4016 47.7968 97.3037 47.5599 97.1295 47.3853C96.9553 47.2106 96.7189 47.1125 96.4725 47.1125V46.0259C96.4716 45.9084 96.4441 45.7927 96.392 45.6875C96.4424 45.6279 96.485 45.5621 96.519 45.4919C96.594 45.3311 96.6216 45.1521 96.5986 44.9761C96.5755 44.8001 96.5028 44.6343 96.3889 44.4984L95.0542 42.8902C94.9814 42.8029 94.8905 42.7327 94.7878 42.6845C94.6851 42.6362 94.573 42.611 94.4596 42.6108C94.346 42.6104 94.2338 42.6353 94.131 42.6836C94.0282 42.7319 93.9374 42.8025 93.865 42.8902L93.7133 43.0703V25.4671C93.7135 25.3108 93.6745 25.1568 93.5998 25.0196C93.5251 24.8823 93.4172 24.7661 93.2859 24.6817L85.197 19.497V14.9797C85.197 14.8768 85.1562 14.7781 85.0836 14.7053C85.011 14.6326 84.9125 14.5917 84.8099 14.5917C84.7072 14.5917 84.6087 14.6326 84.5361 14.7053C84.4635 14.7781 84.4228 14.8768 84.4228 14.9797V28.4848C84.4243 28.614 84.4527 28.7414 84.506 28.859C84.5593 28.9765 84.6364 29.0817 84.7325 29.1678V33.238C84.6368 33.3237 84.5599 33.4284 84.5066 33.5454C84.4533 33.6624 84.4248 33.7892 84.4228 33.9179V49.4409H82.4594V46.3363C82.4594 46.3177 82.4594 46.3022 82.4594 46.2835C82.6406 46.2193 82.7975 46.1003 82.9084 45.943C83.0193 45.7856 83.0788 45.5976 83.0787 45.4049V44.9392C83.0787 44.6922 82.9809 44.4553 82.8066 44.2807C82.6324 44.106 82.3961 44.0079 82.1497 44.0079V42.9212C82.1487 42.8038 82.1212 42.6881 82.0692 42.5828C82.1195 42.5232 82.1622 42.4575 82.1962 42.3873C82.2712 42.2264 82.2988 42.0475 82.2757 41.8715C82.2527 41.6955 82.1799 41.5297 82.0661 41.3938L81.0286 40.1302C81.0282 40.0013 81.0003 39.874 80.9469 39.7568C80.8935 39.6395 80.8158 39.535 80.719 39.4503V35.3677C80.8159 35.2824 80.8936 35.1773 80.947 35.0596C81.0004 34.9418 81.0282 34.8141 81.0286 34.6847V21.1797C81.0286 21.0767 80.9879 20.978 80.9153 20.9052C80.8427 20.8325 80.7442 20.7916 80.6415 20.7916C80.5389 20.7916 80.4404 20.8325 80.3678 20.9052C80.2952 20.978 80.2544 21.0767 80.2544 21.1797V25.7434L72.2274 30.0899C72.0797 30.1695 71.9561 30.2877 71.87 30.432C71.7838 30.5763 71.7383 30.7413 71.7381 30.9095V43.4956L70.5892 44.7902C70.4701 44.9242 70.3921 45.0898 70.3646 45.2672C70.3371 45.4445 70.3614 45.626 70.4344 45.7899C70.5042 45.9518 70.6206 46.0891 70.7688 46.1842H68.1179C68.2462 46.0995 68.3515 45.9843 68.4244 45.8489C68.4974 45.7134 68.5357 45.562 68.536 45.408V44.9423C68.536 44.6953 68.4381 44.4584 68.2639 44.2838C68.0897 44.1091 67.8534 44.011 67.607 44.011V42.9244C67.606 42.8069 67.5785 42.6912 67.5265 42.5859C67.5768 42.5263 67.6194 42.4606 67.6534 42.3904C67.7284 42.2296 67.756 42.0506 67.733 41.8746C67.7099 41.6986 67.6372 41.5328 67.5234 41.3969L66.1886 39.7887C66.1159 39.7014 66.0249 39.6312 65.9222 39.5829C65.8195 39.5347 65.7075 39.5095 65.594 39.5093C65.4805 39.5089 65.3682 39.5338 65.2654 39.5821C65.1626 39.6304 65.0718 39.701 64.9994 39.7887L63.8319 41.1951V26.7773C63.8313 26.625 63.7934 26.4751 63.7216 26.3409C63.6498 26.2066 63.5463 26.0921 63.4201 26.0073C63.2681 25.902 63.0876 25.8457 62.9029 25.8459H60.9519V21.8099C60.9519 21.5629 60.854 21.326 60.6798 21.1513C60.5055 20.9766 60.2692 20.8785 60.0228 20.8785H51.9711C51.7247 20.8785 51.4884 20.9766 51.3141 21.1513C51.1399 21.326 51.042 21.5629 51.042 21.8099V42.6511C50.8995 42.6934 50.7725 42.7765 50.6766 42.8902L49.7227 44.0389V29.261C49.7227 29.0139 49.6249 28.777 49.4506 28.6024C49.2764 28.4277 49.0401 28.3296 48.7937 28.3296H44.4581C44.2117 28.3296 43.9754 28.4277 43.8012 28.6024C43.627 28.777 43.5291 29.0139 43.5291 29.261V47.5782H37.1806V20.2576C37.1806 20.0106 37.0827 19.7737 36.9085 19.599C36.7342 19.4243 36.4979 19.3262 36.2515 19.3262H31.916C31.6696 19.3262 31.4333 19.4243 31.259 19.599C31.0848 19.7737 30.9869 20.0106 30.9869 20.2576V47.5782H29.0018V43.6974C29.0009 43.5107 28.944 43.3285 28.8385 43.1746C28.7331 43.0207 28.5839 42.9022 28.4104 42.8343V32.8313C28.4088 32.7021 28.3805 32.5747 28.3271 32.4571C28.2738 32.3395 28.1967 32.2343 28.1007 32.1482V21.3442C28.1007 21.0972 28.0028 20.8603 27.8286 20.6856C27.6543 20.5109 27.418 20.4128 27.1716 20.4128H26.7071V7.45107C26.7102 7.22873 26.6338 7.01262 26.4919 6.8418C26.3499 6.67098 26.1516 6.55672 25.9329 6.51968V0.155231C25.9321 0.11431 25.9155 0.0752855 25.8867 0.0463446C25.8578 0.0174037 25.8189 0.000794803 25.7781 0H25.3135C25.2725 0 25.2331 0.0163545 25.204 0.0454659C25.175 0.0745772 25.1587 0.114061 25.1587 0.155231V6.5352C24.94 6.57224 24.7417 6.6865 24.5997 6.85732C24.4577 7.02814 24.3814 7.24425 24.3845 7.46659V14.6072C24.1658 14.6442 23.9675 14.7585 23.8255 14.9293C23.6835 15.1001 23.6072 15.3162 23.6103 15.5386V27.274C23.5142 27.3601 23.4371 27.4653 23.3838 27.5829C23.3305 27.7005 23.3021 27.8279 23.3006 27.957V39.4441C23.2991 39.4627 23.2991 39.4814 23.3006 39.5C23.1199 39.564 22.9633 39.6825 22.8525 39.8393C22.7416 39.996 22.6818 40.1833 22.6812 40.3755V47.5937H20.8231V39.531C20.8219 39.3394 20.7618 39.1528 20.651 38.9967C20.5401 38.8405 20.384 38.7225 20.2038 38.6586L12.152 35.6316C12.0862 35.6073 12.0174 35.5916 11.9476 35.585H11.8887H11.8237H11.7463H11.6751C11.6233 35.5937 11.5725 35.6073 11.5233 35.6254H11.48C11.4187 35.6496 11.3605 35.6808 11.3065 35.7186C11.2918 35.7282 11.2782 35.7397 11.2663 35.7527C11.2263 35.7814 11.189 35.8136 11.1548 35.8489L11.1083 35.9048C11.0801 35.9392 11.0542 35.9755 11.0309 36.0135C11.0177 36.0342 11.0063 36.056 10.9969 36.0787C10.9756 36.1205 10.958 36.1642 10.9442 36.2091C10.9442 36.2308 10.9442 36.2525 10.9225 36.2743C10.9063 36.3445 10.898 36.4164 10.8978 36.4885V51.0429C10.2094 50.8416 9.49655 50.7371 8.77954 50.7324C8.25943 50.7334 7.74072 50.7865 7.23112 50.8908C6.98016 50.9418 6.73206 51.006 6.48787 51.0833C5.88793 51.2706 5.31289 51.5301 4.77533 51.8563C4.45749 52.0516 4.15328 52.2684 3.86485 52.5052C3.67341 52.663 3.49044 52.8309 3.31672 53.0081C2.60881 53.7138 2.04498 54.5511 1.65682 55.4732C1.60727 55.5912 1.56081 55.706 1.51746 55.8271C0.889816 57.5504 0.889816 59.4406 1.51746 61.1639C1.56081 61.2819 1.60727 61.3999 1.65682 61.5148C2.04421 62.4382 2.6081 63.2766 3.31672 63.9829C3.48968 64.16 3.67269 64.3269 3.86485 64.4828C4.13273 64.7095 4.41629 64.917 4.71339 65.1037H1.30688C0.957811 65.1037 0.623037 65.2427 0.376211 65.4902C0.129384 65.7376 -0.00927734 66.0732 -0.00927734 66.4231V67.665C-0.00927734 68.0149 0.129384 68.3506 0.376211 68.598C0.623037 68.8454 0.957811 68.9845 1.30688 68.9845H50.7478C50.9942 68.9845 51.2305 68.8863 51.4047 68.7117C51.579 68.537 51.6768 68.3001 51.6768 68.0531V67.5253C51.684 67.4894 51.7034 67.4572 51.7316 67.434C51.7599 67.4108 51.7952 67.3982 51.8317 67.3982C51.8682 67.3982 51.9035 67.4108 51.9318 67.434C51.96 67.4572 51.9793 67.4894 51.9865 67.5253V68.0531C51.9865 68.3001 52.0844 68.537 52.2587 68.7117C52.4329 68.8863 52.6692 68.9845 52.9156 68.9845H53.7765C54.0229 68.9845 54.2592 68.8863 54.4335 68.7117C54.6077 68.537 54.7056 68.3001 54.7056 68.0531V67.5253C54.7127 67.4894 54.7321 67.4572 54.7603 67.434C54.7886 67.4108 54.8239 67.3982 54.8604 67.3982C54.8969 67.3982 54.9322 67.4108 54.9605 67.434C54.9887 67.4572 55.0081 67.4894 55.0152 67.5253V68.0531C55.0152 68.3001 55.1131 68.537 55.2873 68.7117C55.4616 68.8863 55.6979 68.9845 55.9443 68.9845H56.8114C57.0578 68.9845 57.2941 68.8863 57.4683 68.7117C57.6426 68.537 57.7405 68.3001 57.7405 68.0531V67.5253C57.7476 67.4894 57.767 67.4572 57.7952 67.434C57.8235 67.4108 57.8588 67.3982 57.8953 67.3982C57.9318 67.3982 57.9672 67.4108 57.9954 67.434C58.0236 67.4572 58.0429 67.4894 58.0501 67.5253V68.0531C58.0501 68.3001 58.148 68.537 58.3222 68.7117C58.4965 68.8863 58.7328 68.9845 58.9792 68.9845H59.8463C60.0927 68.9845 60.329 68.8863 60.5032 68.7117C60.6775 68.537 60.7753 68.3001 60.7753 68.0531V67.5253C60.7825 67.4894 60.8019 67.4572 60.8301 67.434C60.8583 67.4108 60.8937 67.3982 60.9302 67.3982C60.9667 67.3982 61.002 67.4108 61.0303 67.434C61.0585 67.4572 61.0778 67.4894 61.085 67.5253V68.0531C61.085 68.3001 61.1829 68.537 61.3572 68.7117C61.5314 68.8863 61.7677 68.9845 62.0141 68.9845H83.7229C83.9693 68.9845 84.2056 68.8863 84.3798 68.7117C84.5541 68.537 84.6519 68.3001 84.6519 68.0531V67.5253C84.6591 67.4894 84.6785 67.4572 84.7067 67.434C84.7349 67.4108 84.7703 67.3982 84.8068 67.3982C84.8433 67.3982 84.8786 67.4108 84.9068 67.434C84.9351 67.4572 84.9544 67.4894 84.9616 67.5253V68.0531C84.9616 68.3001 85.0595 68.537 85.2337 68.7117C85.408 68.8863 85.6443 68.9845 85.8907 68.9845H86.7578C87.0042 68.9845 87.2405 68.8863 87.4147 68.7117C87.589 68.537 87.6868 68.3001 87.6868 68.0531V67.5253C87.694 67.4894 87.7134 67.4572 87.7416 67.434C87.7698 67.4108 87.8052 67.3982 87.8417 67.3982C87.8782 67.3982 87.9135 67.4108 87.9417 67.434C87.97 67.4572 87.9893 67.4894 87.9965 67.5253V68.0531C87.9965 68.3001 88.0944 68.537 88.2686 68.7117C88.4428 68.8863 88.6792 68.9845 88.9256 68.9845H89.7927C90.0391 68.9845 90.2754 68.8863 90.4496 68.7117C90.6238 68.537 90.7217 68.3001 90.7217 68.0531V67.5253C90.7289 67.4894 90.7483 67.4572 90.7765 67.434C90.8047 67.4108 90.8401 67.3982 90.8766 67.3982C90.913 67.3982 90.9484 67.4108 90.9766 67.434C91.0049 67.4572 91.0242 67.4894 91.0314 67.5253V68.0531C91.0314 68.3001 91.1293 68.537 91.3035 68.7117C91.4777 68.8863 91.7141 68.9845 91.9604 68.9845H92.8276C93.074 68.9845 93.3103 68.8863 93.4845 68.7117C93.6587 68.537 93.7566 68.3001 93.7566 68.0531V67.5253C93.7638 67.4894 93.7832 67.4572 93.8114 67.434C93.8396 67.4108 93.875 67.3982 93.9115 67.3982C93.9479 67.3982 93.9833 67.4108 94.0115 67.434C94.0398 67.4572 94.0591 67.4894 94.0663 67.5253V68.0531C94.0663 68.3001 94.1642 68.537 94.3384 68.7117C94.5126 68.8863 94.7489 68.9845 94.9953 68.9845H108.405H108.482C108.687 68.9686 108.88 68.8855 109.032 68.7479C109.185 68.6103 109.287 68.426 109.324 68.2238ZM81.487 41.8874C81.5057 41.91 81.5177 41.9375 81.5215 41.9666C81.5253 41.9957 81.5208 42.0254 81.5085 42.052C81.4962 42.0787 81.4765 42.1013 81.4519 42.1172C81.4273 42.1332 81.3986 42.1417 81.3693 42.142H78.9321C78.9028 42.1417 78.8741 42.1332 78.8495 42.1172C78.8248 42.1013 78.8052 42.0787 78.7929 42.052C78.7806 42.0254 78.776 41.9957 78.7798 41.9666C78.7837 41.9375 78.7956 41.91 78.8144 41.8874L80.1522 40.2792L81.487 41.8874ZM77.8296 49.2826H74.965V46.9541H77.8296V49.2826ZM77.2102 45.4018H75.3924C75.3927 45.1729 75.3089 44.9519 75.157 44.7809L75.0177 44.6226H77.266C77.2302 44.7222 77.2114 44.8272 77.2102 44.933V45.4018ZM79.4028 39.9688L78.7556 40.7449H74.2156V39.9688H79.4028ZM74.2187 39.0374V35.6223H74.9929V39.0374H74.2187ZM75.7671 39.0374V35.6223H76.5413V39.0374H75.7671ZM77.3155 39.0374V35.6223H78.0897V39.0374H77.3155ZM79.9478 39.0374H78.8609V35.6223H79.9447L79.9478 39.0374ZM78.13 41.5211C78.0629 41.6376 78.0218 41.7673 78.0095 41.9013C77.9972 42.0353 78.014 42.1704 78.0588 42.2972H74.2156V41.5211H78.13ZM78.13 43.0734V43.8495H74.3271L74.2156 43.7502V43.092L78.13 43.0734ZM78.9042 44.0048V42.9181H81.3817V44.0048H78.9042ZM72.5898 30.7667L80.2482 26.6189V31.8968H78.0804V32.6729H80.2482V34.6909C80.2482 34.7321 80.2319 34.7716 80.2029 34.8007C80.1738 34.8298 80.1345 34.8462 80.0934 34.8462H73.4352V42.8623C73.3215 42.7337 73.1677 42.6478 72.9989 42.6184C72.8301 42.5891 72.6563 42.6182 72.5061 42.7008V30.9033C72.5078 30.8746 72.5173 30.8469 72.5337 30.8234C72.5501 30.7998 72.5728 30.7812 72.5991 30.7698L72.5898 30.7667ZM71.1683 45.3025L72.8747 43.3869L74.5779 45.3025C74.5975 45.3248 74.6102 45.3523 74.6147 45.3816C74.6191 45.411 74.6151 45.441 74.6031 45.4682C74.591 45.4953 74.5714 45.5184 74.5466 45.5347C74.5219 45.551 74.493 45.5598 74.4633 45.5602H71.2829C71.2533 45.5598 71.2244 45.551 71.1996 45.5347C71.1749 45.5184 71.1553 45.4953 71.1432 45.4682C71.1311 45.441 71.1271 45.411 71.1315 45.3816C71.136 45.3523 71.1488 45.3248 71.1683 45.3025ZM74.1908 46.3363V49.2857H71.5585V46.3363H74.1908ZM67.9197 46.9572H70.7843V49.2857H67.9197V46.9572ZM67.9197 50.0618H77.8296V63.1012H67.9197V50.0618ZM64.2593 41.8874L65.5971 40.2792L66.9318 41.8874C66.9506 41.91 66.9626 41.9375 66.9664 41.9666C66.9702 41.9957 66.9657 42.0254 66.9534 42.052C66.941 42.0787 66.9214 42.1013 66.8968 42.1172C66.8721 42.1332 66.8435 42.1417 66.8142 42.142H64.377C64.3476 42.1417 64.319 42.1332 64.2944 42.1172C64.2697 42.1013 64.2501 42.0787 64.2378 42.052C64.2254 42.0254 64.2209 41.9957 64.2247 41.9666C64.2285 41.9375 64.2405 41.91 64.2593 41.8874ZM66.8358 42.9181V44.0048H64.3584V42.9181H66.8358ZM57.6413 45.7899V46.4108H53.2872V46.0228C53.2854 45.9433 53.2708 45.8647 53.2439 45.7899H57.6413ZM52.513 46.0228V47.1094H50.0355V46.0228H52.513ZM53.6557 47.187H57.6413V49.4378H53.5969C53.5969 49.4192 53.5969 49.4006 53.5969 49.3819C53.7776 49.3179 53.9341 49.1994 54.045 49.0426C54.1559 48.8859 54.2157 48.6986 54.2163 48.5064V48.0408C54.2154 47.8597 54.162 47.6828 54.0624 47.5317C53.9629 47.3806 53.8215 47.2619 53.6557 47.1901V47.187ZM53.5969 50.214H63.2745V52.5424H53.5969V50.214ZM62.906 26.6189C62.9468 26.6197 62.9857 26.6363 63.0146 26.6653C63.0435 26.6942 63.06 26.7332 63.0608 26.7742V44.16C62.9362 44.2452 62.8341 44.3595 62.7634 44.4931C62.6927 44.6267 62.6556 44.7756 62.6551 44.9268V45.3925C62.6561 45.5432 62.6935 45.6915 62.7641 45.8245C62.8348 45.9575 62.9366 46.0714 63.0608 46.1562V49.4285H62.3826V27.6062H61.6084V49.4409H59.9516V27.6062H59.1774V49.4409H58.4218V26.7773C58.4218 26.7361 58.4381 26.6966 58.4671 26.6675C58.4961 26.6384 58.5355 26.622 58.5766 26.622L62.906 26.6189ZM51.9742 21.6516H60.0259C60.067 21.6516 60.1064 21.6679 60.1354 21.697C60.1645 21.7261 60.1808 21.7656 60.1808 21.8068V23.2815H51.8193V24.0576H60.1808V24.6786H51.8193V25.4547H60.1808V25.8428H58.5704C58.324 25.8428 58.0877 25.9409 57.9135 26.1156C57.7392 26.2902 57.6413 26.5271 57.6413 26.7742V28.7146H51.8193V29.4907H57.6413V30.1116H51.8193V30.8878H57.6413V34.1476H51.8193V34.9238H57.6413V35.5447H51.8193V36.3208H57.6413V39.5807H51.8193V40.3568H57.6413V40.9778H51.8193V41.7539H57.6413V45.0138H53.4142C53.3987 44.8234 53.3252 44.6424 53.2036 44.4953L51.8689 42.8871L51.8193 42.8405V21.8099C51.8193 21.7687 51.8356 21.7292 51.8647 21.7001C51.8937 21.671 51.9331 21.6547 51.9742 21.6547V21.6516ZM49.9364 44.992L51.2743 43.3838L52.609 44.992C52.6278 45.0146 52.6398 45.0421 52.6436 45.0712C52.6474 45.1003 52.6429 45.13 52.6305 45.1566C52.6182 45.1833 52.5986 45.2059 52.5739 45.2218C52.5493 45.2378 52.5206 45.2464 52.4913 45.2466H50.0603C50.0305 45.2476 50.001 45.2398 49.9754 45.2244C49.9498 45.2089 49.9293 45.1864 49.9162 45.1595C49.9031 45.1326 49.898 45.1025 49.9016 45.0728C49.9052 45.043 49.9173 45.015 49.9364 44.992ZM53.2872 47.8855C53.328 47.8863 53.3669 47.9029 53.3958 47.9319C53.4247 47.9608 53.4413 47.9998 53.442 48.0408V48.5064C53.442 48.5476 53.4257 48.5871 53.3967 48.6162C53.3677 48.6453 53.3283 48.6617 53.2872 48.6617H49.2613C49.2203 48.6617 49.1809 48.6453 49.1518 48.6162C49.1228 48.5871 49.1065 48.5476 49.1065 48.5064V48.0408C49.1065 47.9996 49.1228 47.9601 49.1518 47.931C49.1809 47.9019 49.2203 47.8855 49.2613 47.8855H53.2872ZM41.0547 64.9609V57.9755H48.9516V64.9609H41.0547ZM41.0547 57.1994V54.8709H48.9516V57.1994H41.0547ZM52.8227 49.4378V64.9609H49.7258V49.4378H52.8227ZM44.4612 29.1026H48.7968C48.8376 29.1034 48.8765 29.12 48.9054 29.149C48.9343 29.1779 48.9508 29.2169 48.9516 29.2579V41.1827L44.3064 43.0951V29.261C44.3064 29.2198 44.3227 29.1803 44.3518 29.1512C44.3808 29.1221 44.4202 29.1057 44.4612 29.1057V29.1026ZM44.3064 44.3369L48.9516 42.4245V47.1652C48.7714 47.2291 48.6152 47.3472 48.5044 47.5033C48.3936 47.6594 48.3334 47.846 48.3323 48.0376V48.5033C48.3328 48.6955 48.3926 48.8828 48.5035 49.0395C48.6144 49.1963 48.7709 49.3148 48.9516 49.3788V54.0916H44.3064V44.3369ZM43.5322 54.0947H41.6741V53.4738C41.6741 53.2268 41.5762 52.9899 41.402 52.8152C41.2277 52.6406 40.9914 52.5424 40.745 52.5424V51.4558C40.7441 51.3384 40.7165 51.2227 40.6645 51.1174C40.7148 51.0578 40.7575 50.9921 40.7915 50.9218C40.8665 50.761 40.8941 50.5821 40.8711 50.4061C40.848 50.2301 40.7753 50.0643 40.6614 49.9284L39.3515 48.3512H43.5322V54.0947ZM36.7192 54.0947C36.6781 54.0947 36.6387 54.0784 36.6097 54.0493C36.5806 54.0202 36.5643 53.9807 36.5643 53.9395V53.4738C36.5643 53.4327 36.5806 53.3932 36.6097 53.3641C36.6387 53.3349 36.6781 53.3186 36.7192 53.3186H40.745C40.7859 53.3194 40.8248 53.336 40.8536 53.3649C40.8825 53.3939 40.8991 53.4329 40.8999 53.4738V53.9395C40.8999 53.9807 40.8836 54.0202 40.8545 54.0493C40.8255 54.0784 40.7861 54.0947 40.745 54.0947H36.7192ZM40.2805 54.8709V64.9609H37.1837V54.8709H40.2805ZM39.9491 50.6797H37.5119C37.4826 50.6794 37.454 50.6708 37.4293 50.6549C37.4047 50.639 37.3851 50.6164 37.3727 50.5897C37.3604 50.563 37.3559 50.5334 37.3597 50.5043C37.3635 50.4751 37.3755 50.4477 37.3943 50.4251L38.7321 48.8169L40.0668 50.4251C40.0866 50.4476 40.0994 50.4754 40.1037 50.505C40.108 50.5346 40.1037 50.5649 40.0913 50.5922C40.0789 50.6194 40.0588 50.6425 40.0336 50.6585C40.0084 50.6746 39.979 50.683 39.9491 50.6828V50.6797ZM39.9708 51.4558V52.5424H37.4934V51.4558H39.9708ZM38.1127 48.3512L37.1837 49.4689V48.3512H38.1127ZM30.99 48.3512V63.1167C30.8337 63.0046 30.6465 62.9439 30.4543 62.9429H30.2406V59.9159C30.2398 59.7279 30.1823 59.5446 30.0756 59.39C29.9689 59.2354 29.8181 59.1167 29.6429 59.0497C29.6429 59.028 29.6429 53.0857 29.6429 53.0857C29.6417 52.8891 29.5784 52.6979 29.4621 52.5395C29.3459 52.3811 29.1826 52.2637 28.9956 52.204V48.3543L30.99 48.3512ZM26.8929 65.5818V63.719H30.4543C30.4953 63.719 30.5347 63.7354 30.5638 63.7645C30.5928 63.7936 30.6091 63.8331 30.6091 63.8743V65.8923H27.6671V65.5818H26.8929ZM28.8811 53.0857V58.9845H27.7972V52.9305H28.7262C28.767 52.9321 28.8056 52.9495 28.8339 52.979C28.8622 53.0085 28.878 53.0479 28.878 53.0888L28.8811 53.0857ZM29.3177 59.7607C29.3588 59.7607 29.3982 59.777 29.4272 59.8061C29.4562 59.8352 29.4726 59.8747 29.4726 59.9159V62.9429H28.0728V59.7638L29.3177 59.7607ZM28.079 43.5391C28.1201 43.5391 28.1594 43.5554 28.1885 43.5845C28.2175 43.6136 28.2338 43.6531 28.2338 43.6943V52.1544H27.0199V59.7607H27.3296V62.9429H26.2457V43.5391H28.079ZM27.6423 32.8282V42.7629H26.2488V32.6729H27.4875C27.5283 32.6745 27.5669 32.6919 27.5952 32.7214C27.6235 32.751 27.6393 32.7903 27.6392 32.8313L27.6423 32.8282ZM27.1778 21.1859C27.2186 21.1867 27.2575 21.2033 27.2864 21.2322C27.3153 21.2612 27.3319 21.3002 27.3327 21.3411V31.8968H26.2488V27.0101H25.9391V21.189L27.1778 21.1859ZM25.1649 7.44796C25.1649 7.40679 25.1812 7.36731 25.2102 7.3382C25.2393 7.30909 25.2786 7.29273 25.3197 7.29273H25.7842C25.8251 7.29353 25.864 7.31014 25.8928 7.33908C25.9217 7.36802 25.9383 7.40704 25.9391 7.44796V14.5886H25.1649V7.44796ZM24.3907 15.52C24.3907 15.4788 24.407 15.4393 24.436 15.4102C24.4651 15.3811 24.5044 15.3647 24.5455 15.3647H25.9391V20.4097H25.1649V27.007H24.3907V15.52ZM24.081 27.9384C24.081 27.8972 24.0973 27.8577 24.1263 27.8286C24.1554 27.7995 24.1948 27.7832 24.2358 27.7832H25.4746V39.4255H24.081V27.9384ZM23.4616 40.3568C23.4616 40.3157 23.4779 40.2762 23.507 40.2471C23.536 40.218 23.5754 40.2016 23.6165 40.2016H25.4746V63.5638H24.2358V57.901H24.7003V49.3633H23.4616V40.3568ZM26.1187 64.34V65.5818H25.3445V64.34H26.1187ZM24.5703 65.5818H23.9509V66.2027H20.8541V64.4952C20.8541 64.454 20.8704 64.4145 20.8994 64.3854C20.9285 64.3563 20.9679 64.34 21.0089 64.34H24.5703V65.5818ZM22.8422 50.2916C22.8422 50.2504 22.8586 50.2109 22.8876 50.1818C22.9166 50.1527 22.956 50.1364 22.9971 50.1364H23.9261V57.1217H22.8422V50.2916ZM23.4616 57.8979V63.5638H22.068V58.0562C22.068 58.0151 22.0844 57.9756 22.1134 57.9465C22.1424 57.9173 22.1818 57.901 22.2229 57.901L23.4616 57.8979ZM22.6874 48.3512V49.4192C22.5072 49.4831 22.351 49.6011 22.2402 49.7572C22.1293 49.9134 22.0692 50.1 22.068 50.2916V57.1373C21.852 57.1739 21.6558 57.2859 21.5141 57.4535C21.3724 57.6211 21.2944 57.8334 21.2938 58.0531V63.5638H21.0089C20.9486 63.5637 20.8884 63.5699 20.8293 63.5824V48.3543L22.6874 48.3512ZM8.80122 51.5334C9.5202 51.5335 10.2348 51.6456 10.9194 51.8656V53.0423H4.48113C5.70888 52.0654 7.23068 51.5346 8.79812 51.5365L8.80122 51.5334ZM3.60782 53.8588H10.9163V55.5818H2.48057C2.76937 54.9548 3.14925 54.3742 3.60782 53.8588ZM2.15231 56.3922H10.9163V58.1183H1.84262C1.87774 57.5317 1.98594 56.9518 2.1647 56.3922H2.15231ZM1.84262 58.9286H10.9163V60.5492H2.13064C1.97293 60.0219 1.87629 59.4781 1.84262 58.9286ZM2.43412 61.3595H10.9163V63.0329H3.48395C3.05762 62.5271 2.70423 61.9638 2.43412 61.3595ZM10.9163 68.0686C10.9116 68.1202 10.9116 68.1722 10.9163 68.2238H1.31617C1.17243 68.2238 1.03458 68.1666 0.932947 68.0647C0.831312 67.9628 0.774221 67.8246 0.774221 67.6805V66.4387C0.774221 66.2946 0.831312 66.1564 0.932947 66.0545C1.03458 65.9526 1.17243 65.8954 1.31617 65.8954H10.9163V68.0686ZM6.51265 65.1192C5.69976 64.8361 4.94673 64.4034 4.29223 63.8432H10.9163V65.1192H6.51265ZM19.7671 68.2238H16.2584V42.1979H15.4842V68.2176H15.0196V41.2665H14.2454V68.2176H13.7809V40.3351H13.0067V68.2176H11.8454C11.8043 68.2176 11.7649 68.2013 11.7359 68.1721C11.7069 68.143 11.6905 68.1036 11.6905 68.0624V36.504C11.6905 36.4634 11.7064 36.4244 11.7348 36.3953C11.7632 36.3663 11.8018 36.3496 11.8423 36.3488C11.8608 36.3458 11.8796 36.3458 11.898 36.3488L19.9498 39.3758C19.9793 39.3874 20.0046 39.4074 20.0228 39.4333C20.041 39.4593 20.0511 39.49 20.052 39.5217V68.0593C20.052 68.1004 20.0357 68.1399 20.0066 68.1691C19.9776 68.1982 19.9382 68.2145 19.8972 68.2145L19.7671 68.2238ZM20.8107 68.2238C20.8191 68.1725 20.8243 68.1206 20.8262 68.0686V66.982H23.9478V68.2238H20.8107ZM24.722 68.2238V66.3611H26.8898V68.2238H24.722ZM27.664 66.6715H31.5351C31.5761 66.6715 31.6155 66.6879 31.6446 66.717C31.6736 66.7461 31.6899 66.7856 31.6899 66.8267V68.0686C31.6899 68.1098 31.6736 68.1493 31.6446 68.1784C31.6155 68.2075 31.5761 68.2238 31.5351 68.2238H27.664V66.6715ZM32.4486 68.2238C32.4534 68.1722 32.4534 68.1202 32.4486 68.0686V66.8267C32.4479 66.6197 32.3785 66.4188 32.2512 66.2557C32.1239 66.0927 31.946 65.9768 31.7456 65.9264V20.2576C31.7464 20.2167 31.763 20.1776 31.7919 20.1487C31.8207 20.1198 31.8597 20.1032 31.9005 20.1024H36.236C36.2771 20.1024 36.3165 20.1187 36.3455 20.1478C36.3746 20.1769 36.3909 20.2164 36.3909 20.2576V52.6045C36.2107 52.6684 36.0545 52.7865 35.9437 52.9426C35.8328 53.0987 35.7727 53.2853 35.7715 53.4769V53.9426C35.7727 54.1342 35.8328 54.3208 35.9437 54.477C36.0545 54.6331 36.2107 54.7511 36.3909 54.815V68.0686C36.3909 68.1098 36.3746 68.1493 36.3455 68.1784C36.3165 68.2075 36.2771 68.2238 36.236 68.2238H32.4486ZM36.6139 68.9286C36.6781 68.8995 36.7393 68.8641 36.7966 68.823C36.7393 68.8641 36.6781 68.8995 36.6139 68.9286ZM47.7439 68.2238C47.7028 68.2238 47.6634 68.2075 47.6344 68.1784C47.6054 68.1493 47.589 68.1098 47.589 68.0686V67.1372C47.589 66.7957 46.9697 66.5163 46.9697 66.5163C46.9697 66.5163 46.3503 66.7957 46.3503 67.1372V68.0686C46.3503 68.1098 46.334 68.1493 46.3049 68.1784C46.2759 68.2075 46.2365 68.2238 46.1955 68.2238H45.1425C45.1015 68.2238 45.0621 68.2075 45.033 68.1784C45.004 68.1493 44.9877 68.1098 44.9877 68.0686V67.1372C44.9877 66.7957 44.3683 66.5163 44.3683 66.5163C44.3683 66.5163 43.749 66.7957 43.749 67.1372V68.0686C43.749 68.1098 43.7327 68.1493 43.7036 68.1784C43.6746 68.2075 43.6352 68.2238 43.5941 68.2238H42.5412C42.5001 68.2238 42.4608 68.2075 42.4317 68.1784C42.4027 68.1493 42.3863 68.1098 42.3863 68.0686V67.1372C42.3863 66.7957 41.767 66.5163 41.767 66.5163C41.767 66.5163 41.1476 66.7957 41.1476 67.1372V68.0686C41.1476 68.1098 41.1313 68.1493 41.1023 68.1784C41.0732 68.2075 41.0338 68.2238 40.9928 68.2238H39.9399C39.8988 68.2238 39.8594 68.2075 39.8304 68.1784C39.8013 68.1493 39.785 68.1098 39.785 68.0686V67.1372C39.785 66.7957 39.1657 66.5163 39.1657 66.5163C39.1657 66.5163 38.5463 66.7957 38.5463 67.1372V68.0686C38.5463 68.1098 38.53 68.1493 38.5009 68.1784C38.4719 68.2075 38.4325 68.2238 38.3914 68.2238H37.3385C37.2975 68.2238 37.2581 68.2075 37.229 68.1784C37.2 68.1493 37.1837 68.1098 37.1837 68.0686V65.7401H48.9516V68.0686C48.9516 68.1098 48.9353 68.1493 48.9063 68.1784C48.8773 68.2075 48.8379 68.2238 48.7968 68.2238H47.7439ZM63.2745 68.0686C63.2745 68.1098 63.2582 68.1493 63.2291 68.1784C63.2001 68.2075 63.1607 68.2238 63.1196 68.2238H62.0203C61.9792 68.2238 61.9398 68.2075 61.9108 68.1784C61.8817 68.1493 61.8654 68.1098 61.8654 68.0686V67.4477C61.8654 66.9354 60.9364 66.5163 60.9364 66.5163C60.9364 66.5163 60.0073 66.9354 60.0073 67.4477V68.0686C60.0073 68.1098 59.991 68.1493 59.962 68.1784C59.933 68.2075 59.8936 68.2238 59.8525 68.2238H58.9854C58.9443 68.2238 58.9049 68.2075 58.8759 68.1784C58.8468 68.1493 58.8305 68.1098 58.8305 68.0686V67.4477C58.8305 66.9354 57.9015 66.5163 57.9015 66.5163C57.9015 66.5163 56.9724 66.9354 56.9724 67.4477V68.0686C56.9724 68.1098 56.9561 68.1493 56.9271 68.1784C56.898 68.2075 56.8587 68.2238 56.8176 68.2238H55.9443C55.9032 68.2238 55.8638 68.2075 55.8348 68.1784C55.8058 68.1493 55.7895 68.1098 55.7895 68.0686V67.4477C55.7895 66.9354 54.8604 66.5163 54.8604 66.5163C54.8604 66.5163 53.9314 66.9354 53.9314 67.4477V68.0686C53.9314 68.1098 53.915 68.1493 53.886 68.1784C53.857 68.2075 53.8176 68.2238 53.7765 68.2238H52.9094C52.8683 68.2238 52.8289 68.2075 52.7999 68.1784C52.7709 68.1493 52.7546 68.1098 52.7546 68.0686V67.4477C52.7546 66.9354 51.8255 66.5163 51.8255 66.5163C51.8255 66.5163 50.8965 66.9354 50.8965 67.4477V68.0686C50.8965 68.1098 50.8801 68.1493 50.8511 68.1784C50.8221 68.2075 50.7827 68.2238 50.7416 68.2238H49.8745C49.8334 68.2238 49.794 68.2075 49.765 68.1784C49.736 68.1493 49.7197 68.1098 49.7197 68.0686V65.7401H63.2683L63.2745 68.0686ZM53.5969 64.964V53.3217H63.2745V64.964H53.5969ZM67.1455 68.0686C67.1455 68.1098 67.1292 68.1493 67.1002 68.1784C67.0711 68.2075 67.0318 68.2238 66.9907 68.2238H66.3713C66.3303 68.2238 66.2909 68.2075 66.2618 68.1784C66.2328 68.1493 66.2165 68.1098 66.2165 68.0686V67.1372C66.2165 66.7957 65.5971 66.5163 65.5971 66.5163C65.5971 66.5163 64.9777 66.7957 64.9777 67.1372V68.0686C64.9777 68.1098 64.9614 68.1493 64.9324 68.1784C64.9034 68.2075 64.864 68.2238 64.8229 68.2238H64.2035C64.1625 68.2238 64.1231 68.2075 64.0941 68.1784C64.065 68.1493 64.0487 68.1098 64.0487 68.0686V65.7401H67.1455V68.0686ZM64.0487 64.964V46.3363H67.1455V64.964H64.0487ZM67.7649 45.4049C67.7649 45.4461 67.7486 45.4856 67.7196 45.5147C67.6905 45.5438 67.6511 45.5602 67.6101 45.5602H63.5842C63.5431 45.5602 63.5037 45.5438 63.4747 45.5147C63.4457 45.4856 63.4293 45.4461 63.4293 45.4049V44.9392C63.4293 44.8981 63.4457 44.8586 63.4747 44.8295C63.5037 44.8004 63.5431 44.784 63.5842 44.784H67.6101C67.6509 44.7848 67.6898 44.8014 67.7187 44.8304C67.7475 44.8593 67.7641 44.8983 67.7649 44.9392V45.4049ZM77.6748 68.2238H76.9006C76.8595 68.2238 76.8201 68.2075 76.7911 68.1784C76.762 68.1493 76.7457 68.1098 76.7457 68.0686V65.2744C76.7457 64.9329 76.1263 64.6535 76.1263 64.6535C76.1263 64.6535 75.507 64.9329 75.507 65.2744V68.0686C75.507 68.1098 75.4907 68.1493 75.4616 68.1784C75.4326 68.2075 75.3932 68.2238 75.3521 68.2238H74.7328C74.6917 68.2238 74.6523 68.2075 74.6233 68.1784C74.5943 68.1493 74.5779 68.1098 74.5779 68.0686V65.2744C74.5779 64.9329 73.9586 64.6535 73.9586 64.6535C73.9586 64.6535 73.3392 64.9329 73.3392 65.2744V68.0686C73.3392 68.1098 73.3229 68.1493 73.2939 68.1784C73.2648 68.2075 73.2254 68.2238 73.1844 68.2238H72.565C72.5239 68.2238 72.4846 68.2075 72.4555 68.1784C72.4265 68.1493 72.4101 68.1098 72.4101 68.0686V65.2744C72.4101 64.9329 71.7908 64.6535 71.7908 64.6535C71.7908 64.6535 71.1714 64.9329 71.1714 65.2744V68.0686C71.1714 68.1098 71.1551 68.1493 71.1261 68.1784C71.097 68.2075 71.0576 68.2238 71.0166 68.2238H70.3972C70.3561 68.2238 70.3168 68.2075 70.2877 68.1784C70.2587 68.1493 70.2424 68.1098 70.2424 68.0686V65.2744C70.2424 64.9329 69.623 64.6535 69.623 64.6535C69.623 64.6535 69.0036 64.9329 69.0036 65.2744V68.0686C69.0036 68.1098 68.9873 68.1493 68.9583 68.1784C68.9292 68.2075 68.8899 68.2238 68.8488 68.2238H68.0746C68.0335 68.2238 67.9941 68.2075 67.9651 68.1784C67.9361 68.1493 67.9197 68.1098 67.9197 68.0686V63.8774H77.8296V68.0686C77.8296 68.1098 77.8133 68.1493 77.7843 68.1784C77.7552 68.2075 77.7158 68.2238 77.6748 68.2238ZM81.7006 68.0686C81.7006 68.1098 81.6843 68.1493 81.6553 68.1784C81.6263 68.2075 81.5869 68.2238 81.5458 68.2238H80.9264C80.8854 68.2238 80.846 68.2075 80.817 68.1784C80.7879 68.1493 80.7716 68.1098 80.7716 68.0686V67.1372C80.7716 66.7957 80.1522 66.5163 80.1522 66.5163C80.1522 66.5163 79.5329 66.7957 79.5329 67.1372V68.0686C79.5329 68.1098 79.5166 68.1493 79.4875 68.1784C79.4585 68.2075 79.4191 68.2238 79.378 68.2238H78.7587C78.7176 68.2238 78.6782 68.2075 78.6492 68.1784C78.6201 68.1493 78.6038 68.1098 78.6038 68.0686V65.7401H81.7006V68.0686ZM81.7006 64.964H78.6038V46.3363H81.7006V64.964ZM82.32 45.4049C82.32 45.4461 82.3037 45.4856 82.2747 45.5147C82.2456 45.5438 82.2062 45.5602 82.1652 45.5602H78.1393C78.0982 45.5602 78.0588 45.5438 78.0298 45.5147C78.0008 45.4856 77.9844 45.4461 77.9844 45.4049V44.9392C77.9844 44.8981 78.0008 44.8586 78.0298 44.8295C78.0588 44.8004 78.0982 44.784 78.1393 44.784H82.1652C82.206 44.7848 82.2449 44.8014 82.2738 44.8304C82.3026 44.8593 82.3192 44.8983 82.32 44.9392V45.4049ZM94.4751 43.3869L95.8098 44.9951C95.8286 45.0177 95.8406 45.0452 95.8444 45.0743C95.8482 45.1035 95.8437 45.1331 95.8313 45.1598C95.819 45.1864 95.7994 45.209 95.7747 45.2249C95.7501 45.2409 95.7215 45.2495 95.6921 45.2497H93.2549C93.2256 45.2495 93.197 45.2409 93.1723 45.2249C93.1477 45.209 93.1281 45.1864 93.1157 45.1598C93.1034 45.1331 93.0989 45.1035 93.1027 45.0743C93.1065 45.0452 93.1185 45.0177 93.1372 44.9951L94.4751 43.3869ZM95.7138 46.0259V47.1125H93.2363V46.0259H95.7138ZM85.2125 26.4668H87.3802V25.6907H85.2125V20.4128L92.8833 25.3367C92.9055 25.3503 92.9238 25.3695 92.9363 25.3924C92.9488 25.4153 92.9551 25.441 92.9545 25.4671V44.0017L92.5427 44.4984C92.4293 44.6347 92.3571 44.8006 92.3346 44.9766C92.3121 45.1526 92.3403 45.3313 92.4157 45.4919C92.4497 45.5621 92.4923 45.6279 92.5427 45.6875C92.4906 45.7927 92.4631 45.9084 92.4621 46.0259V47.1125C92.3093 47.1133 92.1591 47.1528 92.0255 47.2273V28.64H85.3642C85.3231 28.64 85.2837 28.6237 85.2547 28.5946C85.2257 28.5655 85.2094 28.526 85.2094 28.4848L85.2125 26.4668ZM91.2513 32.8313H90.4771V29.4162H91.2482L91.2513 32.8313ZM92.0255 49.3292C92.0677 49.3504 92.1111 49.3691 92.1556 49.385C92.1556 49.4037 92.1556 49.4223 92.1556 49.4409H92.0286L92.0255 49.3292ZM89.6998 29.4162V32.8313H88.9256V29.4162H89.6998ZM88.1514 29.4162V32.8313H87.3771V29.4162H88.1514ZM86.6029 29.4162V32.8313H85.519V29.4162H86.6029ZM85.2094 33.9179C85.2102 33.877 85.2267 33.8379 85.2556 33.809C85.2845 33.78 85.3234 33.7634 85.3642 33.7626H91.2482V34.5388H85.2094V33.9179ZM85.2094 35.3149H91.2482V36.0911H85.2094V35.3149ZM85.2094 36.8673H91.2482V37.6434H85.2094V36.8673ZM85.2094 38.4196H91.2482V39.1957H85.2094V38.4196ZM85.2094 39.9719H91.2482V40.748H85.2094V39.9719ZM85.2094 41.5242H91.2482V42.3003H85.2094V41.5242ZM85.2094 43.0765H91.2482V43.8526H85.2094V43.0765ZM85.2094 44.6288H91.2482V45.4049H85.2094V44.6288ZM85.2094 46.1811H91.2482V46.9572H85.2094V46.1811ZM85.2094 47.7334H91.2482V48.5095H85.2094V47.7334ZM85.2094 49.2857H91.2482V49.4409H85.2094V49.2857ZM82.4718 50.2171H92.1494V52.5455H82.4749L82.4718 50.2171ZM82.4718 53.3217H92.1494V64.964H82.4749L82.4718 53.3217ZM96.0204 68.0686C96.0204 68.1098 96.0041 68.1493 95.9751 68.1784C95.946 68.2075 95.9066 68.2238 95.8656 68.2238H94.9984C94.9574 68.2238 94.918 68.2075 94.889 68.1784C94.8599 68.1493 94.8436 68.1098 94.8436 68.0686V67.4477C94.8436 66.9354 93.9146 66.5163 93.9146 66.5163C93.9146 66.5163 92.9855 66.9354 92.9855 67.4477V68.0686C92.9855 68.1098 92.9692 68.1493 92.9402 68.1784C92.9111 68.2075 92.8717 68.2238 92.8307 68.2238H91.9636C91.9225 68.2238 91.8831 68.2075 91.8541 68.1784C91.825 68.1493 91.8087 68.1098 91.8087 68.0686V67.4477C91.8087 66.9354 90.8797 66.5163 90.8797 66.5163C90.8797 66.5163 89.9506 66.9354 89.9506 67.4477V68.0686C89.9506 68.1098 89.9343 68.1493 89.9053 68.1784C89.8762 68.2075 89.8368 68.2238 89.7958 68.2238H88.9287C88.8876 68.2238 88.8482 68.2075 88.8192 68.1784C88.7901 68.1493 88.7738 68.1098 88.7738 68.0686V67.4477C88.7738 66.9354 87.8448 66.5163 87.8448 66.5163C87.8448 66.5163 86.9157 66.9354 86.9157 67.4477V68.0686C86.9157 68.1098 86.8994 68.1493 86.8704 68.1784C86.8413 68.2075 86.8019 68.2238 86.7609 68.2238H85.8938C85.8527 68.2238 85.8133 68.2075 85.7843 68.1784C85.7552 68.1493 85.7389 68.1098 85.7389 68.0686V67.4477C85.7389 66.9354 84.8099 66.5163 84.8099 66.5163C84.8099 66.5163 83.8808 66.9354 83.8808 67.4477V68.0686C83.8808 68.1098 83.8645 68.1493 83.8355 68.1784C83.8064 68.2075 83.7671 68.2238 83.726 68.2238H82.6266C82.5855 68.2238 82.5462 68.2075 82.5171 68.1784C82.4881 68.1493 82.4718 68.1098 82.4718 68.0686V65.7401H96.0204V68.0686ZM96.0204 64.964H92.9236V49.4409H96.0204V64.964ZM96.6398 48.5095C96.6398 48.5507 96.6235 48.5902 96.5944 48.6193C96.5654 48.6484 96.526 48.6648 96.4849 48.6648H92.459C92.418 48.6648 92.3786 48.6484 92.3496 48.6193C92.3205 48.5902 92.3042 48.5507 92.3042 48.5095V48.0438C92.3042 48.0027 92.3205 47.9632 92.3496 47.9341C92.3786 47.905 92.418 47.8886 92.459 47.8886H96.4849C96.5257 47.8894 96.5647 47.906 96.5935 47.935C96.6224 47.9639 96.639 48.0029 96.6398 48.0438V48.5095ZM108.563 64.964H105.466V54.874H108.563V64.964ZM105.676 50.4282L107.014 48.82L108.349 50.4282C108.368 50.4508 108.38 50.4782 108.383 50.5074C108.387 50.5365 108.383 50.5662 108.37 50.5928C108.358 50.6195 108.338 50.6421 108.314 50.658C108.289 50.6739 108.261 50.6825 108.231 50.6828H105.803C105.773 50.6837 105.744 50.676 105.718 50.6606C105.693 50.6451 105.672 50.6226 105.659 50.5957C105.646 50.5688 105.641 50.5387 105.645 50.5089C105.648 50.4792 105.66 50.4512 105.679 50.4282H105.676ZM108.253 51.4589V52.5455H105.775V51.4589H108.253ZM104.846 53.4769C104.846 53.4357 104.863 53.3963 104.892 53.3672C104.921 53.338 104.96 53.3217 105.001 53.3217H109.027C109.068 53.3225 109.107 53.3391 109.136 53.368C109.165 53.397 109.181 53.436 109.182 53.4769V53.9426C109.182 53.9838 109.166 54.0233 109.137 54.0524C109.108 54.0815 109.068 54.0978 109.027 54.0978H105.001C104.96 54.0978 104.921 54.0815 104.892 54.0524C104.863 54.0233 104.846 53.9838 104.846 53.9426V53.4769ZM96.7946 54.874H104.692V57.2025H96.7946V54.874ZM96.7946 57.9786H104.692V64.964H96.7946V57.9786ZM107.2 68.0686V67.1372C107.2 66.7957 106.581 66.5163 106.581 66.5163C106.581 66.5163 105.961 66.7957 105.961 67.1372V68.0686C105.961 68.1098 105.945 68.1493 105.916 68.1784C105.887 68.2075 105.847 68.2238 105.806 68.2238H104.753C104.712 68.2238 104.673 68.2075 104.644 68.1784C104.615 68.1493 104.599 68.1098 104.599 68.0686V67.1372C104.599 66.7957 103.979 66.5163 103.979 66.5163C103.979 66.5163 103.36 66.7957 103.36 67.1372V68.0686C103.36 68.1098 103.344 68.1493 103.315 68.1784C103.286 68.2075 103.246 68.2238 103.205 68.2238H102.152C102.111 68.2238 102.072 68.2075 102.043 68.1784C102.014 68.1493 101.997 68.1098 101.997 68.0686V67.1372C101.997 66.7957 101.378 66.5163 101.378 66.5163C101.378 66.5163 100.759 66.7957 100.759 67.1372V68.0686C100.759 68.1098 100.742 68.1493 100.713 68.1784C100.684 68.2075 100.645 68.2238 100.604 68.2238H99.5508C99.5097 68.2238 99.4703 68.2075 99.4413 68.1784C99.4123 68.1493 99.396 68.1098 99.396 68.0686V67.1372C99.396 66.7957 98.7766 66.5163 98.7766 66.5163C98.7766 66.5163 98.1572 66.7957 98.1572 67.1372V68.0686C98.1572 68.1098 98.1409 68.1493 98.1119 68.1784C98.0828 68.2075 98.0434 68.2238 98.0024 68.2238H96.9494C96.9084 68.2238 96.869 68.2075 96.84 68.1784C96.8109 68.1493 96.7946 68.1098 96.7946 68.0686V65.7401H108.563V68.0686C108.563 68.1098 108.546 68.1493 108.517 68.1784C108.488 68.2075 108.449 68.2238 108.408 68.2238H107.352C107.312 68.2222 107.274 68.2052 107.246 68.1762C107.218 68.1473 107.203 68.1087 107.203 68.0686H107.2Z" fill="#25221E"/>
<path d="M39.5062 55.6501H37.9578V56.4263H39.5062V55.6501Z" fill="#25221E"/>
<path d="M39.5062 57.2025H37.9578V57.9787H39.5062V57.2025Z" fill="#25221E"/>
<path d="M39.5062 58.7548H37.9578V59.5309H39.5062V58.7548Z" fill="#25221E"/>
<path d="M39.5062 60.3071H37.9578V61.0833H39.5062V60.3071Z" fill="#25221E"/>
<path d="M39.5062 61.8594H37.9578V62.6355H39.5062V61.8594Z" fill="#25221E"/>
<path d="M39.5062 63.4117H37.9578V64.1879H39.5062V63.4117Z" fill="#25221E"/>
<path d="M52.0484 55.6501H50.5V56.4263H52.0484V55.6501Z" fill="#25221E"/>
<path d="M52.0484 57.2025H50.5V57.9787H52.0484V57.2025Z" fill="#25221E"/>
<path d="M52.0484 58.7548H50.5V59.5309H52.0484V58.7548Z" fill="#25221E"/>
<path d="M52.0484 60.3071H50.5V61.0833H52.0484V60.3071Z" fill="#25221E"/>
<path d="M52.0484 61.8594H50.5V62.6355H52.0484V61.8594Z" fill="#25221E"/>
<path d="M52.0484 63.4117H50.5V64.1879H52.0484V63.4117Z" fill="#25221E"/>
<path d="M66.3714 55.6501H64.823V56.4263H66.3714V55.6501Z" fill="#25221E"/>
<path d="M52.0484 54.0979H50.5V54.8741H52.0484V54.0979Z" fill="#25221E"/>
<path d="M66.3714 54.0979H64.823V54.8741H66.3714V54.0979Z" fill="#25221E"/>
<path d="M66.3714 52.5455H64.823V53.3217H66.3714V52.5455Z" fill="#25221E"/>
<path d="M50.5 52.2351V53.3217H52.0484V52.2351C52.0484 52.0704 51.9832 51.9124 51.867 51.796C51.7509 51.6796 51.5933 51.6141 51.4291 51.6141H51.1194C50.9551 51.6141 50.7976 51.6796 50.6814 51.796C50.5653 51.9124 50.5 52.0704 50.5 52.2351Z" fill="#25221E"/>
<path d="M66.3714 50.9933H64.823V51.7694H66.3714V50.9933Z" fill="#25221E"/>
<path d="M65.752 48.5095H65.4424C65.2781 48.5095 65.1206 48.5749 65.0044 48.6914C64.8883 48.8078 64.823 48.9658 64.823 49.1304V50.2171H66.3714V49.1304C66.3714 48.9658 66.3061 48.8078 66.19 48.6914C66.0738 48.5749 65.9163 48.5095 65.752 48.5095Z" fill="#25221E"/>
<path d="M66.3714 57.2025H64.823V57.9787H66.3714V57.2025Z" fill="#25221E"/>
<path d="M66.3714 58.7548H64.823V59.5309H66.3714V58.7548Z" fill="#25221E"/>
<path d="M66.3714 60.3071H64.823V61.0833H66.3714V60.3071Z" fill="#25221E"/>
<path d="M66.3714 61.8594H64.823V62.6355H66.3714V61.8594Z" fill="#25221E"/>
<path d="M66.3714 63.4117H64.823V64.1879H66.3714V63.4117Z" fill="#25221E"/>
<path d="M42.8353 63.4117H41.8289V64.1879H42.8353V63.4117Z" fill="#25221E"/>
<path d="M44.6161 63.4117H43.6096V64.1879H44.6161V63.4117Z" fill="#25221E"/>
<path d="M46.3969 63.4117H45.3904V64.1879H46.3969V63.4117Z" fill="#25221E"/>
<path d="M48.1774 63.4117H47.1709V64.1879H48.1774V63.4117Z" fill="#25221E"/>
<path d="M42.8353 61.8594H41.8289V62.6355H42.8353V61.8594Z" fill="#25221E"/>
<path d="M44.6161 61.8594H43.6096V62.6355H44.6161V61.8594Z" fill="#25221E"/>
<path d="M46.3969 61.8594H45.3904V62.6355H46.3969V61.8594Z" fill="#25221E"/>
<path d="M48.1774 61.8594H47.1709V62.6355H48.1774V61.8594Z" fill="#25221E"/>
<path d="M42.8353 60.3071H41.8289V61.0833H42.8353V60.3071Z" fill="#25221E"/>
<path d="M44.6161 60.3071H43.6096V61.0833H44.6161V60.3071Z" fill="#25221E"/>
<path d="M46.3969 60.3071H45.3904V61.0833H46.3969V60.3071Z" fill="#25221E"/>
<path d="M48.1774 60.3071H47.1709V61.0833H48.1774V60.3071Z" fill="#25221E"/>
<path d="M42.8353 58.7548H41.8289V59.5309H42.8353V58.7548Z" fill="#25221E"/>
<path d="M44.6161 58.7548H43.6096V59.5309H44.6161V58.7548Z" fill="#25221E"/>
<path d="M46.3969 58.7548H45.3904V59.5309H46.3969V58.7548Z" fill="#25221E"/>
<path d="M48.1774 58.7548H47.1709V59.5309H48.1774V58.7548Z" fill="#25221E"/>
<path d="M42.8353 55.6501H41.8289V56.4263H42.8353V55.6501Z" fill="#25221E"/>
<path d="M44.6161 55.6501H43.6096V56.4263H44.6161V55.6501Z" fill="#25221E"/>
<path d="M46.3969 55.6501H45.3904V56.4263H46.3969V55.6501Z" fill="#25221E"/>
<path d="M48.1774 55.6501H47.1709V56.4263H48.1774V55.6501Z" fill="#25221E"/>
<path d="M55.3776 63.4117H54.3711V64.1879H55.3776V63.4117Z" fill="#25221E"/>
<path d="M57.1583 63.4117H56.1519V64.1879H57.1583V63.4117Z" fill="#25221E"/>
<path d="M58.9388 63.4117H57.9324V64.1879H58.9388V63.4117Z" fill="#25221E"/>
<path d="M60.7196 63.4117H59.7131V64.1879H60.7196V63.4117Z" fill="#25221E"/>
<path d="M55.3776 61.8594H54.3711V62.6355H55.3776V61.8594Z" fill="#25221E"/>
<path d="M57.1583 61.8594H56.1519V62.6355H57.1583V61.8594Z" fill="#25221E"/>
<path d="M58.9388 61.8594H57.9324V62.6355H58.9388V61.8594Z" fill="#25221E"/>
<path d="M60.7196 61.8594H59.7131V62.6355H60.7196V61.8594Z" fill="#25221E"/>
<path d="M55.3776 60.3071H54.3711V61.0833H55.3776V60.3071Z" fill="#25221E"/>
<path d="M57.1583 60.3071H56.1519V61.0833H57.1583V60.3071Z" fill="#25221E"/>
<path d="M58.9388 60.3071H57.9324V61.0833H58.9388V60.3071Z" fill="#25221E"/>
<path d="M60.7196 60.3071H59.7131V61.0833H60.7196V60.3071Z" fill="#25221E"/>
<path d="M55.3776 58.7548H54.3711V59.5309H55.3776V58.7548Z" fill="#25221E"/>
<path d="M57.1583 58.7548H56.1519V59.5309H57.1583V58.7548Z" fill="#25221E"/>
<path d="M58.9388 58.7548H57.9324V59.5309H58.9388V58.7548Z" fill="#25221E"/>
<path d="M60.7196 58.7548H59.7131V59.5309H60.7196V58.7548Z" fill="#25221E"/>
<path d="M62.5004 63.4117H61.4939V64.1879H62.5004V63.4117Z" fill="#25221E"/>
<path d="M62.5004 61.8594H61.4939V62.6355H62.5004V61.8594Z" fill="#25221E"/>
<path d="M55.3776 57.2025H54.3711V57.9787H55.3776V57.2025Z" fill="#25221E"/>
<path d="M57.1583 57.2025H56.1519V57.9787H57.1583V57.2025Z" fill="#25221E"/>
<path d="M58.9388 57.2025H57.9324V57.9787H58.9388V57.2025Z" fill="#25221E"/>
<path d="M60.7196 57.2025H59.7131V57.9787H60.7196V57.2025Z" fill="#25221E"/>
<path d="M62.5004 57.2025H61.4939V57.9787H62.5004V57.2025Z" fill="#25221E"/>
<path d="M62.5004 60.3071H61.4939V61.0833H62.5004V60.3071Z" fill="#25221E"/>
<path d="M62.5004 58.7548H61.4939V59.5309H62.5004V58.7548Z" fill="#25221E"/>
<path d="M55.3776 55.6501H54.3711V56.4263H55.3776V55.6501Z" fill="#25221E"/>
<path d="M57.1583 55.6501H56.1519V56.4263H57.1583V55.6501Z" fill="#25221E"/>
<path d="M58.9388 55.6501H57.9324V56.4263H58.9388V55.6501Z" fill="#25221E"/>
<path d="M60.7196 55.6501H59.7131V56.4263H60.7196V55.6501Z" fill="#25221E"/>
<path d="M55.3776 54.0979H54.3711V54.8741H55.3776V54.0979Z" fill="#25221E"/>
<path d="M57.1583 54.0979H56.1519V54.8741H57.1583V54.0979Z" fill="#25221E"/>
<path d="M58.9388 54.0979H57.9324V54.8741H58.9388V54.0979Z" fill="#25221E"/>
<path d="M60.7196 54.0979H59.7131V54.8741H60.7196V54.0979Z" fill="#25221E"/>
<path d="M62.5004 55.6501H61.4939V56.4263H62.5004V55.6501Z" fill="#25221E"/>
<path d="M62.5004 54.0979H61.4939V54.8741H62.5004V54.0979Z" fill="#25221E"/>
<path d="M55.3776 50.9933H54.3711V51.7694H55.3776V50.9933Z" fill="#25221E"/>
<path d="M57.1583 50.9933H56.1519V51.7694H57.1583V50.9933Z" fill="#25221E"/>
<path d="M58.9388 50.9933H57.9324V51.7694H58.9388V50.9933Z" fill="#25221E"/>
<path d="M60.7196 50.9933H59.7131V51.7694H60.7196V50.9933Z" fill="#25221E"/>
<path d="M62.5004 50.9933H61.4939V51.7694H62.5004V50.9933Z" fill="#25221E"/>
<path d="M107.791 55.6501H106.243V56.4263H107.791V55.6501Z" fill="#25221E"/>
<path d="M107.791 57.2025H106.243V57.9787H107.791V57.2025Z" fill="#25221E"/>
<path d="M107.791 58.7548H106.243V59.5309H107.791V58.7548Z" fill="#25221E"/>
<path d="M107.791 60.3071H106.243V61.0833H107.791V60.3071Z" fill="#25221E"/>
<path d="M107.791 61.8594H106.243V62.6355H107.791V61.8594Z" fill="#25221E"/>
<path d="M107.791 63.4117H106.243V64.1879H107.791V63.4117Z" fill="#25221E"/>
<path d="M95.2493 55.6501H93.7009V56.4263H95.2493V55.6501Z" fill="#25221E"/>
<path d="M95.2493 57.2025H93.7009V57.9787H95.2493V57.2025Z" fill="#25221E"/>
<path d="M95.2493 58.7548H93.7009V59.5309H95.2493V58.7548Z" fill="#25221E"/>
<path d="M95.2493 60.3071H93.7009V61.0833H95.2493V60.3071Z" fill="#25221E"/>
<path d="M95.2493 61.8594H93.7009V62.6355H95.2493V61.8594Z" fill="#25221E"/>
<path d="M95.2493 63.4117H93.7009V64.1879H95.2493V63.4117Z" fill="#25221E"/>
<path d="M80.9263 55.6501H79.3779V56.4263H80.9263V55.6501Z" fill="#25221E"/>
<path d="M95.2493 54.0979H93.7009V54.8741H95.2493V54.0979Z" fill="#25221E"/>
<path d="M80.9263 54.0979H79.3779V54.8741H80.9263V54.0979Z" fill="#25221E"/>
<path d="M80.9263 52.5455H79.3779V53.3217H80.9263V52.5455Z" fill="#25221E"/>
<path d="M93.7009 52.2351V53.3217H95.2493V52.2351C95.2493 52.0704 95.1841 51.9124 95.0679 51.796C94.9518 51.6796 94.7942 51.6141 94.63 51.6141H94.3203C94.156 51.6141 93.9985 51.6796 93.8823 51.796C93.7662 51.9124 93.7009 52.0704 93.7009 52.2351Z" fill="#25221E"/>
<path d="M80.9263 50.9933H79.3779V51.7694H80.9263V50.9933Z" fill="#25221E"/>
<path d="M80.307 48.5095H79.9973C79.833 48.5095 79.6755 48.5749 79.5593 48.6914C79.4432 48.8078 79.3779 48.9658 79.3779 49.1304V50.2171H80.9263V49.1304C80.9263 48.9658 80.8611 48.8078 80.7449 48.6914C80.6288 48.5749 80.4712 48.5095 80.307 48.5095Z" fill="#25221E"/>
<path d="M80.9263 57.2025H79.3779V57.9787H80.9263V57.2025Z" fill="#25221E"/>
<path d="M80.9263 58.7548H79.3779V59.5309H80.9263V58.7548Z" fill="#25221E"/>
<path d="M80.9263 60.3071H79.3779V61.0833H80.9263V60.3071Z" fill="#25221E"/>
<path d="M80.9263 61.8594H79.3779V62.6355H80.9263V61.8594Z" fill="#25221E"/>
<path d="M80.9263 63.4117H79.3779V64.1879H80.9263V63.4117Z" fill="#25221E"/>
<path d="M103.921 63.4117H102.914V64.1879H103.921V63.4117Z" fill="#25221E"/>
<path d="M102.14 63.4117H101.133V64.1879H102.14V63.4117Z" fill="#25221E"/>
<path d="M100.359 63.4117H99.3525V64.1879H100.359V63.4117Z" fill="#25221E"/>
<path d="M98.5785 63.4117H97.572V64.1879H98.5785V63.4117Z" fill="#25221E"/>
<path d="M103.921 61.8594H102.914V62.6355H103.921V61.8594Z" fill="#25221E"/>
<path d="M102.14 61.8594H101.133V62.6355H102.14V61.8594Z" fill="#25221E"/>
<path d="M100.359 61.8594H99.3525V62.6355H100.359V61.8594Z" fill="#25221E"/>
<path d="M98.5785 61.8594H97.572V62.6355H98.5785V61.8594Z" fill="#25221E"/>
<path d="M103.921 60.3071H102.914V61.0833H103.921V60.3071Z" fill="#25221E"/>
<path d="M102.14 60.3071H101.133V61.0833H102.14V60.3071Z" fill="#25221E"/>
<path d="M100.359 60.3071H99.3525V61.0833H100.359V60.3071Z" fill="#25221E"/>
<path d="M98.5785 60.3071H97.572V61.0833H98.5785V60.3071Z" fill="#25221E"/>
<path d="M103.921 58.7548H102.914V59.5309H103.921V58.7548Z" fill="#25221E"/>
<path d="M102.14 58.7548H101.133V59.5309H102.14V58.7548Z" fill="#25221E"/>
<path d="M100.359 58.7548H99.3525V59.5309H100.359V58.7548Z" fill="#25221E"/>
<path d="M98.5785 58.7548H97.572V59.5309H98.5785V58.7548Z" fill="#25221E"/>
<path d="M103.921 55.6501H102.914V56.4263H103.921V55.6501Z" fill="#25221E"/>
<path d="M102.14 55.6501H101.133V56.4263H102.14V55.6501Z" fill="#25221E"/>
<path d="M100.359 55.6501H99.3525V56.4263H100.359V55.6501Z" fill="#25221E"/>
<path d="M98.5785 55.6501H97.572V56.4263H98.5785V55.6501Z" fill="#25221E"/>
<path d="M91.3783 63.4117H90.3718V64.1879H91.3783V63.4117Z" fill="#25221E"/>
<path d="M89.5975 63.4117H88.5911V64.1879H89.5975V63.4117Z" fill="#25221E"/>
<path d="M87.8168 63.4117H86.8103V64.1879H87.8168V63.4117Z" fill="#25221E"/>
<path d="M86.0363 63.4117H85.0298V64.1879H86.0363V63.4117Z" fill="#25221E"/>
<path d="M91.3783 61.8594H90.3718V62.6355H91.3783V61.8594Z" fill="#25221E"/>
<path d="M89.5975 61.8594H88.5911V62.6355H89.5975V61.8594Z" fill="#25221E"/>
<path d="M87.8168 61.8594H86.8103V62.6355H87.8168V61.8594Z" fill="#25221E"/>
<path d="M86.0363 61.8594H85.0298V62.6355H86.0363V61.8594Z" fill="#25221E"/>
<path d="M91.3783 60.3071H90.3718V61.0833H91.3783V60.3071Z" fill="#25221E"/>
<path d="M89.5975 60.3071H88.5911V61.0833H89.5975V60.3071Z" fill="#25221E"/>
<path d="M87.8168 60.3071H86.8103V61.0833H87.8168V60.3071Z" fill="#25221E"/>
<path d="M86.0363 60.3071H85.0298V61.0833H86.0363V60.3071Z" fill="#25221E"/>
<path d="M91.3783 58.7548H90.3718V59.5309H91.3783V58.7548Z" fill="#25221E"/>
<path d="M89.5975 58.7548H88.5911V59.5309H89.5975V58.7548Z" fill="#25221E"/>
<path d="M87.8168 58.7548H86.8103V59.5309H87.8168V58.7548Z" fill="#25221E"/>
<path d="M86.0363 58.7548H85.0298V59.5309H86.0363V58.7548Z" fill="#25221E"/>
<path d="M84.2555 63.4117H83.249V64.1879H84.2555V63.4117Z" fill="#25221E"/>
<path d="M84.2555 61.8594H83.249V62.6355H84.2555V61.8594Z" fill="#25221E"/>
<path d="M91.3783 57.2025H90.3718V57.9787H91.3783V57.2025Z" fill="#25221E"/>
<path d="M89.5975 57.2025H88.5911V57.9787H89.5975V57.2025Z" fill="#25221E"/>
<path d="M87.8168 57.2025H86.8103V57.9787H87.8168V57.2025Z" fill="#25221E"/>
<path d="M86.0363 57.2025H85.0298V57.9787H86.0363V57.2025Z" fill="#25221E"/>
<path d="M84.2555 57.2025H83.249V57.9787H84.2555V57.2025Z" fill="#25221E"/>
<path d="M84.2555 60.3071H83.249V61.0833H84.2555V60.3071Z" fill="#25221E"/>
<path d="M84.2555 58.7548H83.249V59.5309H84.2555V58.7548Z" fill="#25221E"/>
<path d="M91.3783 55.6501H90.3718V56.4263H91.3783V55.6501Z" fill="#25221E"/>
<path d="M89.5975 55.6501H88.5911V56.4263H89.5975V55.6501Z" fill="#25221E"/>
<path d="M87.8168 55.6501H86.8103V56.4263H87.8168V55.6501Z" fill="#25221E"/>
<path d="M86.0363 55.6501H85.0298V56.4263H86.0363V55.6501Z" fill="#25221E"/>
<path d="M91.3783 54.0979H90.3718V54.8741H91.3783V54.0979Z" fill="#25221E"/>
<path d="M89.5975 54.0979H88.5911V54.8741H89.5975V54.0979Z" fill="#25221E"/>
<path d="M87.8168 54.0979H86.8103V54.8741H87.8168V54.0979Z" fill="#25221E"/>
<path d="M86.0363 54.0979H85.0298V54.8741H86.0363V54.0979Z" fill="#25221E"/>
<path d="M84.2555 55.6501H83.249V56.4263H84.2555V55.6501Z" fill="#25221E"/>
<path d="M84.2555 54.0979H83.249V54.8741H84.2555V54.0979Z" fill="#25221E"/>
<path d="M91.3783 50.9933H90.3718V51.7694H91.3783V50.9933Z" fill="#25221E"/>
<path d="M89.5975 50.9933H88.5911V51.7694H89.5975V50.9933Z" fill="#25221E"/>
<path d="M87.8168 50.9933H86.8103V51.7694H87.8168V50.9933Z" fill="#25221E"/>
<path d="M86.0363 50.9933H85.0298V51.7694H86.0363V50.9933Z" fill="#25221E"/>
<path d="M84.2555 50.9933H83.249V51.7694H84.2555V50.9933Z" fill="#25221E"/>
</g>
<defs>
<clipPath id="clip0_87_43138">
<rect width="123" height="69" fill="white"/>
</clipPath>
</defs>
</svg>
