<svg preserveAspectRatio="xMidYMax meet" width="124" height="79" viewBox="0 0 124 79" fill="none" xmlns="http://www.w3.org/2000/svg">
<g clip-path="url(#clip0_87_42610)">
<path d="M112.281 29.5423C112.192 29.5422 112.104 29.5161 112.029 29.4672C111.955 29.4183 111.896 29.3487 111.86 29.2669C111.771 29.0621 111.635 28.882 111.461 28.7423C111.288 28.6026 111.083 28.5074 110.865 28.465C110.647 28.4227 110.421 28.4345 110.208 28.4993C109.996 28.5641 109.802 28.6801 109.644 28.8371C109.558 28.9204 109.443 28.9669 109.323 28.9669C109.204 28.9669 109.089 28.9204 109.003 28.8371C108.845 28.6801 108.651 28.5642 108.438 28.4994C108.225 28.4346 107.999 28.4229 107.78 28.4652C107.562 28.5075 107.357 28.6027 107.183 28.7423C107.01 28.882 106.872 29.0621 106.784 29.2669C106.76 29.3221 106.725 29.3721 106.681 29.4138C106.638 29.4556 106.586 29.4883 106.53 29.5101C106.474 29.532 106.414 29.5425 106.354 29.5411C106.294 29.5397 106.235 29.5264 106.179 29.5019C106.124 29.478 106.075 29.4434 106.033 29.4001C105.992 29.3568 105.959 29.3057 105.937 29.2497C105.915 29.1937 105.905 29.1339 105.906 29.0738C105.908 29.0138 105.921 28.9545 105.945 28.8996C106.079 28.5908 106.279 28.3154 106.531 28.0929C106.783 27.8705 107.081 27.7064 107.403 27.6125C107.725 27.5185 108.064 27.4969 108.396 27.5492C108.728 27.6015 109.044 27.7265 109.322 27.9152C109.6 27.7265 109.916 27.6015 110.247 27.5492C110.579 27.4969 110.918 27.5185 111.24 27.6125C111.563 27.7064 111.86 27.8705 112.112 28.0929C112.364 28.3154 112.564 28.5908 112.698 28.8996C112.723 28.9545 112.736 29.0138 112.737 29.0738C112.738 29.1339 112.728 29.1937 112.706 29.2497C112.684 29.3057 112.652 29.3568 112.61 29.4001C112.569 29.4434 112.519 29.478 112.464 29.5019C112.407 29.5297 112.344 29.5435 112.281 29.5423Z" fill="#26231E"/>
<path d="M100.378 35.7792C100.318 35.7783 100.259 35.7655 100.204 35.7415C100.149 35.7175 100.099 35.6829 100.057 35.6396C100.015 35.5963 99.9822 35.5451 99.9601 35.489C99.938 35.433 99.9271 35.3731 99.928 35.3128C99.9364 34.8663 100.074 34.432 100.325 34.0629C100.575 33.6937 100.927 33.4056 101.338 33.2338C101.761 33.0575 102.227 33.014 102.675 33.1089C102.924 32.725 103.285 32.4265 103.707 32.2531C104.119 32.0826 104.57 32.0359 105.007 32.1188C105.444 32.2016 105.848 32.4104 106.168 32.7196C106.215 32.7604 106.254 32.8103 106.281 32.8664C106.308 32.9224 106.323 32.9834 106.326 33.0457C106.329 33.1079 106.319 33.1701 106.297 33.2284C106.276 33.2868 106.242 33.34 106.199 33.385C106.156 33.4299 106.104 33.4655 106.047 33.4898C105.99 33.514 105.928 33.5263 105.866 33.5259C105.804 33.5255 105.743 33.5124 105.686 33.4875C105.629 33.4625 105.577 33.4262 105.535 33.3807C105.343 33.1976 105.103 33.0739 104.844 33.0244C104.584 32.9749 104.315 33.0017 104.07 33.1016C103.905 33.169 103.756 33.2687 103.63 33.3948C103.504 33.521 103.405 33.671 103.338 33.8362C103.29 33.9464 103.201 34.0335 103.09 34.0788C102.979 34.1241 102.855 34.1241 102.744 34.0786C102.538 33.9943 102.314 33.9618 102.092 33.9839C101.87 34.006 101.657 34.0821 101.472 34.2055C101.286 34.3289 101.133 34.496 101.026 34.6921C100.919 34.8883 100.861 35.1076 100.858 35.3311C100.857 35.3925 100.844 35.4531 100.819 35.5093C100.794 35.5654 100.758 35.6159 100.714 35.6578C100.669 35.6997 100.616 35.732 100.558 35.7529C100.501 35.7737 100.44 35.7827 100.378 35.7792Z" fill="#26231E"/>
<path d="M94.182 67.2462H87.0406H94.182ZM91.5599 70.9193H87.8976V67.9808H91.5599V70.9193Z" fill="#26231E"/>
<path d="M112.189 44.9325C112.072 45.017 111.955 45.0978 111.823 45.1712C111.94 45.0978 112.057 45.017 112.189 44.9325Z" fill="#26231E"/>
<path d="M94.6105 38.2401L94.5446 38.3209H94.6654L94.6105 38.2401Z" fill="#26231E"/>
<path d="M116.522 50.5082H117.987V50.8755C117.987 51.0703 117.909 51.2572 117.772 51.3949C117.635 51.5327 117.448 51.6101 117.254 51.6101C117.06 51.6101 116.874 51.5327 116.736 51.3949C116.599 51.2572 116.522 51.0703 116.522 50.8755V50.5082ZM113.317 61.9644V62.3317C113.317 62.5266 113.24 62.7134 113.103 62.8512C112.965 62.9889 112.779 63.0663 112.585 63.0663C112.39 63.0663 112.204 62.9889 112.067 62.8512C111.929 62.7134 111.852 62.5266 111.852 62.3317V61.9644H113.317ZM110.296 54.7616H112.127V55.4962C112.127 55.7397 112.031 55.9733 111.859 56.1455C111.687 56.3177 111.454 56.4144 111.211 56.4144C110.969 56.4144 110.736 56.3177 110.564 56.1455C110.392 55.9733 110.296 55.7397 110.296 55.4962V54.7616ZM108.985 57.7H110.816V58.4346C110.816 58.6782 110.719 58.9117 110.548 59.0839C110.376 59.2561 110.143 59.3529 109.9 59.3529C109.658 59.3529 109.425 59.2561 109.253 59.0839C109.081 58.9117 108.985 58.6782 108.985 58.4346V57.7ZM105.81 59.1178H107.641V59.8524C107.641 60.096 107.544 60.3295 107.373 60.5017C107.201 60.6739 106.968 60.7707 106.725 60.7707C106.482 60.7707 106.249 60.6739 106.078 60.5017C105.906 60.3295 105.81 60.096 105.81 59.8524V59.1178ZM101.378 47.3457C101.184 47.3457 100.998 47.2683 100.86 47.1305C100.723 46.9928 100.646 46.8059 100.646 46.6111V46.2438H102.111V46.6111C102.113 46.7088 102.095 46.8059 102.059 46.8967C102.023 46.9875 101.97 47.0703 101.901 47.14C101.833 47.2098 101.752 47.2653 101.662 47.3031C101.572 47.3409 101.476 47.3604 101.378 47.3604V47.3457ZM101.712 53.3291V53.6964C101.712 53.8912 101.634 54.0781 101.497 54.2158C101.36 54.3536 101.173 54.431 100.979 54.431C100.785 54.431 100.599 54.3536 100.461 54.2158C100.324 54.0781 100.247 53.8912 100.247 53.6964V53.3291H101.712ZM101.378 49.0794V49.4467C101.378 49.6415 101.301 49.8284 101.164 49.9661C101.026 50.1039 100.84 50.1813 100.646 50.1813C100.452 50.1813 100.265 50.1039 100.128 49.9661C99.9906 49.8284 99.9134 49.6415 99.9134 49.4467V49.0794H101.378ZM98.8989 49.4467C98.8989 49.6415 98.8218 49.8284 98.6844 49.9661C98.547 50.1039 98.3607 50.1813 98.1665 50.1813C97.9722 50.1813 97.7859 50.1039 97.6486 49.9661C97.5112 49.8284 97.434 49.6415 97.434 49.4467V49.0794H98.8989V49.4467ZM99.6314 50.4935V50.8608C99.6314 51.0556 99.5542 51.2425 99.4169 51.3802C99.2795 51.518 99.0932 51.5954 98.8989 51.5954C98.7047 51.5954 98.5184 51.518 98.381 51.3802C98.2437 51.2425 98.1665 51.0556 98.1665 50.8608V50.4935H99.6314ZM97.8442 51.9113H99.3091V52.2786C99.3091 52.4734 99.2319 52.6603 99.0946 52.798C98.9572 52.9358 98.7709 53.0132 98.5767 53.0132C98.3824 53.0132 98.1961 52.9358 98.0587 52.798C97.9214 52.6603 97.8442 52.4734 97.8442 52.2786V51.9113ZM98.8989 53.3291V53.6964C98.8989 53.8912 98.8218 54.0781 98.6844 54.2158C98.547 54.3536 98.3607 54.431 98.1665 54.431C97.9722 54.431 97.7859 54.3536 97.6486 54.2158C97.5112 54.0781 97.434 53.8912 97.434 53.6964V53.3291H98.8989ZM97.8442 54.7469H99.3091V55.1142C99.3091 55.309 99.2319 55.4959 99.0946 55.6336C98.9572 55.7714 98.7709 55.8488 98.5767 55.8488C98.3824 55.8488 98.1961 55.7714 98.0587 55.6336C97.9214 55.4959 97.8442 55.309 97.8442 55.1142V54.7469ZM99.1333 57.6853V58.0526C99.1333 58.2475 99.0562 58.4343 98.9188 58.5721C98.7814 58.7098 98.5951 58.7872 98.4009 58.7872C98.2066 58.7872 98.0203 58.7098 97.883 58.5721C97.7456 58.4343 97.6684 58.2475 97.6684 58.0526V57.6853H99.1333ZM99.364 57.2482C99.1698 57.2482 98.9835 57.1708 98.8461 57.0331C98.7088 56.8953 98.6316 56.7085 98.6316 56.5136V56.1463H100.096V56.5136C100.096 56.7085 100.019 56.8953 99.882 57.0331C99.7446 57.1708 99.5583 57.2482 99.364 57.2482ZM100.364 48.0583C100.364 48.2531 100.287 48.4399 100.149 48.5777C100.012 48.7155 99.8256 48.7929 99.6314 48.7929C99.4371 48.7929 99.2508 48.7155 99.1135 48.5777C98.9761 48.4399 98.8989 48.2531 98.8989 48.0583V47.691H100.364V48.0583ZM99.0674 46.6405C99.0674 46.8353 98.9902 47.0221 98.8529 47.1599C98.7155 47.2977 98.5292 47.3751 98.335 47.3751C98.1407 47.3751 97.9544 47.2977 97.817 47.1599C97.6797 47.0221 97.6025 46.8353 97.6025 46.6405V46.2732H99.0674V46.6405ZM97.8442 45.2263C97.8442 45.4212 97.767 45.608 97.6297 45.7458C97.4923 45.8835 97.306 45.9609 97.1118 45.9609C96.9175 45.9609 96.7312 45.8835 96.5938 45.7458C96.4565 45.608 96.3793 45.4212 96.3793 45.2263V44.859H97.8442V45.2263ZM97.3022 46.2732V46.6405C97.3022 46.8353 97.225 47.0221 97.0877 47.1599C96.9503 47.2977 96.764 47.3751 96.5698 47.3751C96.3755 47.3751 96.1892 47.2977 96.0518 47.1599C95.9145 47.0221 95.8373 46.8353 95.8373 46.6405V46.2732H97.3022ZM96.5698 47.691H98.0346V48.0583C98.0346 48.2531 97.9575 48.4399 97.8201 48.5777C97.6828 48.7155 97.4965 48.7929 97.3022 48.7929C97.1079 48.7929 96.9216 48.7155 96.7843 48.5777C96.6469 48.4399 96.5698 48.2531 96.5698 48.0583V47.691ZM97.7856 50.5229V50.8902C97.7856 51.085 97.7085 51.2719 97.5711 51.4096C97.4337 51.5474 97.2474 51.6248 97.0532 51.6248C96.8589 51.6248 96.6726 51.5474 96.5352 51.4096C96.3979 51.2719 96.3207 51.085 96.3207 50.8902V50.5229H97.7856ZM97.4194 51.9407V52.308C97.4194 52.5028 97.3422 52.6897 97.2049 52.8274C97.0675 52.9652 96.8812 53.0426 96.6869 53.0426C96.4927 53.0426 96.3064 52.9652 96.169 52.8274C96.0317 52.6897 95.9545 52.5028 95.9545 52.308V51.9407H97.4194ZM97.196 53.3585V53.7258C97.196 53.9206 97.1188 54.1075 96.9815 54.2452C96.8441 54.383 96.6578 54.4604 96.4635 54.4604C96.2693 54.4604 96.083 54.383 95.9456 54.2452C95.8083 54.1075 95.7311 53.9206 95.7311 53.7258V53.3585H97.196ZM96.1889 54.7763H97.6538V55.1436C97.6538 55.3384 97.5766 55.5253 97.4392 55.663C97.3019 55.8008 97.1156 55.8782 96.9213 55.8782C96.7271 55.8782 96.5408 55.8008 96.4034 55.663C96.266 55.5253 96.1889 55.3384 96.1889 55.1436V54.7763ZM96.5551 56.1904H98.02V56.5577C98.02 56.7525 97.9428 56.9394 97.8055 57.0771C97.6681 57.2149 97.4818 57.2923 97.2875 57.2923C97.0933 57.2923 96.907 57.2149 96.7696 57.0771C96.6323 56.9394 96.5551 56.7525 96.5551 56.5577V56.1904ZM97.5879 59.1472V59.5145C97.5879 59.7093 97.5107 59.8962 97.3733 60.034C97.236 60.1717 97.0497 60.2491 96.8554 60.2491C96.6611 60.2491 96.4748 60.1717 96.3375 60.034C96.2001 59.8962 96.123 59.7093 96.123 59.5145V59.1472H97.5879ZM97.4194 60.565V60.9323C97.4194 61.1271 97.3422 61.314 97.2049 61.4517C97.0675 61.5895 96.8812 61.6669 96.6869 61.6669C96.4927 61.6669 96.3064 61.5895 96.169 61.4517C96.0317 61.314 95.9545 61.1271 95.9545 60.9323V60.565H97.4194ZM100.964 59.5145C100.964 59.7093 100.887 59.8962 100.75 60.034C100.613 60.1717 100.426 60.2491 100.232 60.2491C100.038 60.2491 99.8514 60.1717 99.7141 60.034C99.5767 59.8962 99.4995 59.7093 99.4995 59.5145V59.1472H100.964V59.5145ZM102.429 55.1436C102.429 55.3384 102.352 55.5253 102.215 55.663C102.077 55.8008 101.891 55.8782 101.697 55.8782C101.503 55.8782 101.316 55.8008 101.179 55.663C101.042 55.5253 100.964 55.3384 100.964 55.1436V54.7763H102.429V55.1436ZM103.561 53.7258C103.561 53.9206 103.484 54.1075 103.346 54.2452C103.209 54.383 103.023 54.4604 102.829 54.4604C102.634 54.4604 102.448 54.383 102.311 54.2452C102.173 54.1075 102.096 53.9206 102.096 53.7258V53.3585H103.561V53.7258ZM103.561 49.4761C103.561 49.6709 103.484 49.8577 103.346 49.9955C103.209 50.1333 103.023 50.2107 102.829 50.2107C102.634 50.2107 102.448 50.1333 102.311 49.9955C102.173 49.8577 102.096 49.6709 102.096 49.4761V49.1087H103.561V49.4761ZM104.011 48.0583C104.011 48.2531 103.934 48.4399 103.797 48.5777C103.66 48.7155 103.473 48.7929 103.279 48.7929C103.085 48.7929 102.898 48.7155 102.761 48.5777C102.624 48.4399 102.547 48.2531 102.547 48.0583V47.691H104.011V48.0583ZM104.627 46.6405C104.627 46.8353 104.55 47.0221 104.412 47.1599C104.275 47.2977 104.088 47.3751 103.894 47.3751C103.7 47.3751 103.514 47.2977 103.376 47.1599C103.239 47.0221 103.162 46.8353 103.162 46.6405V46.2732H104.627V46.6405ZM103.689 44.859H105.154V45.2263C105.154 45.4212 105.077 45.608 104.94 45.7458C104.802 45.8835 104.616 45.9609 104.422 45.9609C104.227 45.9609 104.041 45.8835 103.904 45.7458C103.766 45.608 103.689 45.4212 103.689 45.2263V44.859ZM103.345 44.859V45.2263C103.345 45.4212 103.268 45.608 103.13 45.7458C102.993 45.8835 102.807 45.9609 102.612 45.9609C102.418 45.9609 102.232 45.8835 102.095 45.7458C101.957 45.608 101.88 45.4212 101.88 45.2263V44.859H103.345ZM101.697 43.4412H103.162V43.8085C103.162 44.0034 103.085 44.1902 102.947 44.328C102.81 44.4657 102.624 44.5431 102.429 44.5431C102.235 44.5431 102.049 44.4657 101.911 44.328C101.774 44.1902 101.697 44.0034 101.697 43.8085V43.4412ZM101.697 45.2263C101.697 45.4212 101.62 45.608 101.482 45.7458C101.345 45.8835 101.159 45.9609 100.964 45.9609C100.77 45.9609 100.584 45.8835 100.447 45.7458C100.309 45.608 100.232 45.4212 100.232 45.2263V44.859H101.697V45.2263ZM99.6167 43.4412H101.082V43.8085C101.082 44.0034 101.004 44.1902 100.867 44.328C100.73 44.4657 100.543 44.5431 100.349 44.5431C100.155 44.5431 99.9686 44.4657 99.8313 44.328C99.6939 44.1902 99.6167 44.0034 99.6167 43.8085V43.4412ZM99.408 45.2263C99.408 45.4212 99.3308 45.608 99.1935 45.7458C99.0561 45.8835 98.8698 45.9609 98.6755 45.9609C98.4813 45.9609 98.295 45.8835 98.1576 45.7458C98.0203 45.608 97.9431 45.4212 97.9431 45.2263V44.859H99.408V45.2263ZM99.1187 43.8085C99.1187 44.0034 99.0415 44.1902 98.9041 44.328C98.7668 44.4657 98.5805 44.5431 98.3862 44.5431C98.192 44.5431 98.0057 44.4657 97.8683 44.328C97.7309 44.1902 97.6538 44.0034 97.6538 43.8085V43.4412H99.1187V43.8085ZM96.1889 42.0234H97.6538V42.3907C97.6538 42.5856 97.5766 42.7724 97.4392 42.9102C97.3019 43.048 97.1156 43.1254 96.9213 43.1254C96.7271 43.1254 96.5408 43.048 96.4034 42.9102C96.266 42.7724 96.1889 42.5856 96.1889 42.3907V42.0234ZM95.7311 43.4412H97.196V43.8085C97.196 44.0034 97.1188 44.1902 96.9815 44.328C96.8441 44.4657 96.6578 44.5431 96.4635 44.5431C96.2693 44.5431 96.083 44.4657 95.9456 44.328C95.8083 44.1902 95.7311 44.0034 95.7311 43.8085V43.4412ZM95.3429 49.0941H96.8078V49.4614C96.8078 49.6562 96.7306 49.843 96.5933 49.9808C96.4559 50.1186 96.2696 50.196 96.0753 50.196C95.8811 50.196 95.6948 50.1186 95.5574 49.9808C95.4201 49.843 95.3429 49.6562 95.3429 49.4614V49.0941ZM95.3429 57.7147H96.8078V58.082C96.8078 58.2768 96.7306 58.4637 96.5933 58.6015C96.4559 58.7392 96.2696 58.8166 96.0753 58.8166C95.8811 58.8166 95.6948 58.7392 95.5574 58.6015C95.4201 58.4637 95.3429 58.2768 95.3429 58.082V57.7147Z" fill="#26231E"/>
<path d="M88.5055 53.7111C88.5055 53.9059 88.4284 54.0928 88.291 54.2305C88.1537 54.3683 87.9674 54.4457 87.7731 54.4457C87.5788 54.4457 87.3925 54.3683 87.2552 54.2305C87.1178 54.0928 87.0406 53.9059 87.0406 53.7111V53.3438H88.5055V53.7111ZM90.2927 55.1289V54.7616H91.7576V55.1289C91.7576 55.3237 91.6805 55.5106 91.5431 55.6483C91.4057 55.7861 91.2194 55.8635 91.0252 55.8635C90.8309 55.8635 90.6446 55.7861 90.5073 55.6483C90.3699 55.5106 90.2927 55.3237 90.2927 55.1289ZM91.2852 54.4457C91.0909 54.4457 90.9046 54.3683 90.7673 54.2305C90.6299 54.0928 90.5528 53.9059 90.5528 53.7111V53.3438H92.0177V53.7111C92.0177 53.9059 91.9405 54.0928 91.8031 54.2305C91.6658 54.3683 91.4795 54.4457 91.2852 54.4457ZM93.0065 57.2776C92.8122 57.2776 92.6259 57.2002 92.4885 57.0625C92.3512 56.9247 92.274 56.7378 92.274 56.543V56.1757H93.7389V56.543C93.7389 56.7378 93.6617 56.9247 93.5244 57.0625C93.387 57.2002 93.2007 57.2776 93.0065 57.2776ZM91.7576 48.0583V47.691H93.2225V48.0583C93.2225 48.2531 93.1454 48.4399 93.008 48.5777C92.8706 48.7155 92.6843 48.7929 92.4901 48.7929C92.2958 48.7929 92.1095 48.7155 91.9722 48.5777C91.8348 48.4399 91.7576 48.2531 91.7576 48.0583ZM91.9261 49.1087V49.4761C91.9261 49.6709 91.8489 49.8577 91.7116 49.9955C91.5742 50.1333 91.3879 50.2107 91.1936 50.2107C90.9994 50.2107 90.8131 50.1333 90.6757 49.9955C90.5384 49.8577 90.4612 49.6709 90.4612 49.4761V49.1087H91.9261ZM91.9261 50.5229V50.8902C91.9261 51.085 91.8489 51.2719 91.7116 51.4096C91.5742 51.5474 91.3879 51.6248 91.1936 51.6248C90.9994 51.6248 90.8131 51.5474 90.6757 51.4096C90.5384 51.2719 90.4612 51.085 90.4612 50.8902V50.5229H91.9261ZM91.9554 57.7294V58.0967C91.9554 58.2915 91.8782 58.4784 91.7409 58.6162C91.6035 58.7539 91.4172 58.8313 91.2229 58.8313C91.0287 58.8313 90.8424 58.7539 90.705 58.6162C90.5677 58.4784 90.4905 58.2915 90.4905 58.0967V57.7294H91.9554ZM92.0177 60.9323C92.0177 61.1271 91.9405 61.314 91.8031 61.4517C91.6658 61.5895 91.4795 61.6669 91.2852 61.6669C91.0909 61.6669 90.9046 61.5895 90.7673 61.4517C90.6299 61.314 90.5528 61.1271 90.5528 60.9323V60.565H92.0177V60.9323ZM89.7873 56.6826C89.7873 56.8774 89.7102 57.0643 89.5728 57.202C89.4354 57.3398 89.2491 57.4172 89.0549 57.4172C88.8606 57.4172 88.6743 57.3398 88.537 57.202C88.3996 57.0643 88.3224 56.8774 88.3224 56.6826V56.3153H89.7873V56.6826ZM90.095 59.1472V59.5145C90.095 59.7093 90.0178 59.8962 89.8804 60.0339C89.7431 60.1717 89.5568 60.2491 89.3625 60.2491C89.1683 60.2491 88.982 60.1717 88.8446 60.0339C88.7072 59.8962 88.6301 59.7093 88.6301 59.5145V59.1472H90.095ZM88.6301 57.7294V58.0967C88.6301 58.2915 88.5529 58.4784 88.4155 58.6162C88.2782 58.7539 88.0919 58.8313 87.8976 58.8313C87.7034 58.8313 87.5171 58.7539 87.3797 58.6162C87.2423 58.4784 87.1652 58.2915 87.1652 58.0967V57.7294H88.6301ZM90.8274 63.081C90.6332 63.081 90.4469 63.0036 90.3095 62.8659C90.1721 62.7281 90.095 62.5413 90.095 62.3464V61.9791H91.5599V62.3464C91.556 62.5387 91.4772 62.7218 91.3402 62.8564C91.2033 62.991 91.0192 63.0664 90.8274 63.0663V63.081ZM94.182 59.5145C94.182 59.7093 94.1049 59.8962 93.9675 60.0339C93.8301 60.1717 93.6438 60.2491 93.4496 60.2491C93.2553 60.2491 93.069 60.1717 92.9317 60.0339C92.7943 59.8962 92.7171 59.7093 92.7171 59.5145V59.1472H94.182V59.5145ZM93.955 51.9407V52.308C93.955 52.5028 93.8778 52.6897 93.7404 52.8274C93.6031 52.9652 93.4168 53.0426 93.2225 53.0426C93.0283 53.0426 92.842 52.9652 92.7046 52.8274C92.5672 52.6897 92.4901 52.5028 92.4901 52.308V51.9407H93.955ZM92.1238 44.859H93.5887V45.2263C93.5887 45.4212 93.5116 45.608 93.3742 45.7458C93.2369 45.8835 93.0506 45.9609 92.8563 45.9609C92.662 45.9609 92.4757 45.8835 92.3384 45.7458C92.201 45.608 92.1238 45.4212 92.1238 45.2263V44.859ZM91.8785 46.6405C91.8785 46.8353 91.8013 47.0221 91.664 47.1599C91.5266 47.2977 91.3403 47.3751 91.146 47.3751C90.9518 47.3751 90.7655 47.2977 90.6281 47.1599C90.4908 47.0221 90.4136 46.8353 90.4136 46.6405V46.2732H91.8785V46.6405ZM91.8345 43.8085C91.8345 44.0034 91.7574 44.1902 91.62 44.328C91.4826 44.4657 91.2963 44.5431 91.1021 44.5431C90.9078 44.5431 90.7215 44.4657 90.5842 44.328C90.4468 44.1902 90.3696 44.0034 90.3696 43.8085V43.4412H91.8345V43.8085ZM90.095 42.0234H91.5599V42.3907C91.5599 42.5856 91.4827 42.7724 91.3453 42.9102C91.208 43.048 91.0217 43.1254 90.8274 43.1254C90.6332 43.1254 90.4469 43.048 90.3095 42.9102C90.1721 42.7724 90.095 42.5856 90.095 42.3907V42.0234ZM90.095 52.308C90.095 52.5028 90.0178 52.6897 89.8804 52.8274C89.7431 52.9652 89.5568 53.0426 89.3625 53.0426C89.1683 53.0426 88.982 52.9652 88.8446 52.8274C88.7072 52.6897 88.6301 52.5028 88.6301 52.308V51.9407H90.095V52.308ZM88.4616 47.691H89.9265V48.0583C89.9265 48.2531 89.8493 48.4399 89.712 48.5777C89.5746 48.7155 89.3883 48.7929 89.1941 48.7929C88.9998 48.7929 88.8135 48.7155 88.6761 48.5777C88.5388 48.4399 88.4616 48.2531 88.4616 48.0583V47.691ZM88.2162 47.3751C88.022 47.3751 87.8357 47.2977 87.6983 47.1599C87.561 47.0221 87.4838 46.8353 87.4838 46.6405V46.2732H88.9487V46.6405C88.9449 46.8327 88.866 47.0158 88.729 47.1504C88.5921 47.285 88.408 47.3604 88.2162 47.3604V47.3751ZM88.9963 50.5229V50.8902C88.9963 51.085 88.9191 51.2719 88.7818 51.4096C88.6444 51.5474 88.4581 51.6248 88.2638 51.6248C88.0696 51.6248 87.8833 51.5474 87.7459 51.4096C87.6086 51.2719 87.5314 51.085 87.5314 50.8902V50.5229H88.9963ZM89.9265 45.2263C89.9265 45.4212 89.8493 45.608 89.712 45.7458C89.5746 45.8835 89.3883 45.9609 89.1941 45.9609C88.9998 45.9609 88.8135 45.8835 88.6761 45.7458C88.5388 45.608 88.4616 45.4212 88.4616 45.2263V44.859H89.9265V45.2263ZM87.4398 43.4412H88.9047V43.8085C88.9047 44.0034 88.8276 44.1902 88.6902 44.328C88.5529 44.4657 88.3666 44.5431 88.1723 44.5431C87.978 44.5431 87.7917 44.4657 87.6544 44.328C87.517 44.1902 87.4398 44.0034 87.4398 43.8085V43.4412ZM87.1652 49.1087H88.6301V49.4761C88.6301 49.6709 88.5529 49.8577 88.4155 49.9955C88.2782 50.1333 88.0919 50.2107 87.8976 50.2107C87.7034 50.2107 87.5171 50.1333 87.3797 49.9955C87.2423 49.8577 87.1652 49.6709 87.1652 49.4761V49.1087ZM90.062 54.7763V55.1436C90.062 55.3384 89.9848 55.5252 89.8475 55.663C89.7101 55.8008 89.5238 55.8782 89.3296 55.8782C89.1353 55.8782 88.949 55.8008 88.8116 55.663C88.6743 55.5252 88.5971 55.3384 88.5971 55.1436V54.7763H90.062Z" fill="#26231E"/>
<path d="M90.6442 68.8844H88.8131V69.9863H90.6442V68.8844Z" fill="#26231E"/>
<path d="M87.8976 67.9662V70.9046H91.5598V67.9662H87.8976ZM90.6443 69.9864H88.8131V68.8845H90.6443V69.9864Z" fill="#26231E"/>
<path d="M88.1723 44.5284C88.3665 44.5284 88.5528 44.451 88.6902 44.3133C88.8275 44.1755 88.9047 43.9887 88.9047 43.7938V43.4265H87.4398V43.7938C87.4398 43.9887 87.517 44.1755 87.6543 44.3133C87.7917 44.451 87.978 44.5284 88.1723 44.5284Z" fill="#26231E"/>
<path d="M90.3696 43.7938C90.3696 43.9887 90.4468 44.1755 90.5842 44.3133C90.7215 44.451 90.9078 44.5284 91.1021 44.5284C91.2963 44.5284 91.4826 44.451 91.62 44.3133C91.7574 44.1755 91.8345 43.9887 91.8345 43.7938V43.4265H90.3696V43.7938Z" fill="#26231E"/>
<path d="M96.4782 44.5284C96.6724 44.5284 96.8587 44.451 96.9961 44.3133C97.1335 44.1755 97.2106 43.9887 97.2106 43.7938V43.4265H95.7457V43.7938C95.7457 43.9887 95.8229 44.1755 95.9603 44.3133C96.0976 44.451 96.2839 44.5284 96.4782 44.5284Z" fill="#26231E"/>
<path d="M97.6685 43.7938C97.6685 43.9887 97.7456 44.1755 97.883 44.3133C98.0203 44.451 98.2066 44.5284 98.4009 44.5284C98.5952 44.5284 98.7815 44.451 98.9188 44.3133C99.0562 44.1755 99.1334 43.9887 99.1334 43.7938V43.4265H97.6685V43.7938Z" fill="#26231E"/>
<path d="M100.364 44.5284C100.558 44.5284 100.744 44.451 100.882 44.3133C101.019 44.1755 101.096 43.9887 101.096 43.7938V43.4265H99.6315V43.7938C99.6315 43.9887 99.7086 44.1755 99.846 44.3133C99.9834 44.451 100.17 44.5284 100.364 44.5284Z" fill="#26231E"/>
<path d="M102.444 44.5284C102.638 44.5284 102.825 44.451 102.962 44.3133C103.099 44.1755 103.176 43.9887 103.176 43.7938V43.4265H101.712V43.7938C101.712 43.9887 101.789 44.1755 101.926 44.3133C102.063 44.451 102.25 44.5284 102.444 44.5284Z" fill="#26231E"/>
<path d="M90.8274 43.1106C91.0217 43.1106 91.208 43.0332 91.3453 42.8954C91.4827 42.7577 91.5599 42.5708 91.5599 42.376V42.0087H90.095V42.376C90.095 42.5708 90.1721 42.7577 90.3095 42.8954C90.4469 43.0332 90.6332 43.1106 90.8274 43.1106Z" fill="#26231E"/>
<path d="M96.9361 43.1106C97.1303 43.1106 97.3166 43.0332 97.454 42.8954C97.5913 42.7577 97.6685 42.5708 97.6685 42.376V42.0087H96.2036V42.376C96.2036 42.5708 96.2808 42.7577 96.4181 42.8954C96.5555 43.0332 96.7418 43.1106 96.9361 43.1106Z" fill="#26231E"/>
<path d="M88.9487 46.6257V46.2584H87.4838V46.6257C87.4838 46.8206 87.5609 47.0074 87.6983 47.1452C87.8357 47.2829 88.022 47.3603 88.2162 47.3603C88.4105 47.3603 88.5968 47.2829 88.7341 47.1452C88.8715 47.0074 88.9487 46.8206 88.9487 46.6257Z" fill="#26231E"/>
<path d="M90.4136 46.6257C90.4136 46.8206 90.4907 47.0074 90.6281 47.1452C90.7655 47.2829 90.9518 47.3603 91.146 47.3603C91.3403 47.3603 91.5266 47.2829 91.6639 47.1452C91.8013 47.0074 91.8785 46.8206 91.8785 46.6257V46.2584H90.4136V46.6257Z" fill="#26231E"/>
<path d="M95.8373 46.6257C95.8373 46.8206 95.9144 47.0074 96.0518 47.1452C96.1892 47.2829 96.3755 47.3603 96.5697 47.3603C96.764 47.3603 96.9503 47.2829 97.0877 47.1452C97.225 47.0074 97.3022 46.8206 97.3022 46.6257V46.2584H95.8373V46.6257Z" fill="#26231E"/>
<path d="M97.6025 46.6257C97.6025 46.8206 97.6797 47.0074 97.8171 47.1452C97.9544 47.2829 98.1407 47.3603 98.335 47.3603C98.5292 47.3603 98.7155 47.2829 98.8529 47.1452C98.9903 47.0074 99.0674 46.8206 99.0674 46.6257V46.2584H97.6025V46.6257Z" fill="#26231E"/>
<path d="M102.111 46.6257V46.2584H100.646V46.6257C100.646 46.8206 100.723 47.0074 100.86 47.1452C100.998 47.2829 101.184 47.3603 101.378 47.3603C101.573 47.3603 101.759 47.2829 101.896 47.1452C102.034 47.0074 102.111 46.8206 102.111 46.6257Z" fill="#26231E"/>
<path d="M103.177 46.6257C103.177 46.8206 103.254 47.0074 103.391 47.1452C103.528 47.2829 103.715 47.3603 103.909 47.3603C104.103 47.3603 104.29 47.2829 104.427 47.1452C104.564 47.0074 104.641 46.8206 104.641 46.6257V46.2584H103.177V46.6257Z" fill="#26231E"/>
<path d="M88.4615 45.2115C88.4615 45.4064 88.5387 45.5932 88.6761 45.731C88.8134 45.8688 88.9997 45.9462 89.194 45.9462C89.3883 45.9462 89.5746 45.8688 89.7119 45.731C89.8493 45.5932 89.9264 45.4064 89.9264 45.2115V44.8442H88.4615V45.2115Z" fill="#26231E"/>
<path d="M92.8562 45.9462C93.0505 45.9462 93.2368 45.8688 93.3741 45.731C93.5115 45.5932 93.5887 45.4064 93.5887 45.2115V44.8442H92.1238V45.2115C92.1238 45.4064 92.2009 45.5932 92.3383 45.731C92.4757 45.8688 92.662 45.9462 92.8562 45.9462Z" fill="#26231E"/>
<path d="M96.3794 45.2115C96.3794 45.4064 96.4566 45.5932 96.5939 45.731C96.7313 45.8688 96.9176 45.9462 97.1118 45.9462C97.3061 45.9462 97.4924 45.8688 97.6298 45.731C97.7671 45.5932 97.8443 45.4064 97.8443 45.2115V44.8442H96.3794V45.2115Z" fill="#26231E"/>
<path d="M97.9578 45.2115C97.9578 45.4064 98.0349 45.5932 98.1723 45.731C98.3097 45.8688 98.496 45.9462 98.6902 45.9462C98.8845 45.9462 99.0708 45.8688 99.2081 45.731C99.3455 45.5932 99.4227 45.4064 99.4227 45.2115V44.8442H97.9578V45.2115Z" fill="#26231E"/>
<path d="M100.247 45.2115C100.247 45.4064 100.324 45.5932 100.461 45.731C100.599 45.8688 100.785 45.9462 100.979 45.9462C101.173 45.9462 101.36 45.8688 101.497 45.731C101.634 45.5932 101.712 45.4064 101.712 45.2115V44.8442H100.247V45.2115Z" fill="#26231E"/>
<path d="M101.895 45.2115C101.895 45.4064 101.972 45.5932 102.109 45.731C102.247 45.8688 102.433 45.9462 102.627 45.9462C102.821 45.9462 103.008 45.8688 103.145 45.731C103.282 45.5932 103.36 45.4064 103.36 45.2115V44.8442H101.895V45.2115Z" fill="#26231E"/>
<path d="M104.436 45.9462C104.631 45.9462 104.817 45.8688 104.954 45.731C105.092 45.5932 105.169 45.4064 105.169 45.2115V44.8442H103.704V45.2115C103.704 45.4064 103.781 45.5932 103.918 45.731C104.056 45.8688 104.242 45.9462 104.436 45.9462Z" fill="#26231E"/>
<path d="M87.8976 50.1959C88.0919 50.1959 88.2782 50.1185 88.4155 49.9807C88.5529 49.843 88.63 49.6561 88.63 49.4613V49.094H87.1652V49.4613C87.1652 49.6561 87.2423 49.843 87.3797 49.9807C87.517 50.1185 87.7033 50.1959 87.8976 50.1959Z" fill="#26231E"/>
<path d="M90.4612 49.4613C90.4612 49.6561 90.5383 49.843 90.6757 49.9807C90.8131 50.1185 90.9994 50.1959 91.1936 50.1959C91.3879 50.1959 91.5742 50.1185 91.7116 49.9807C91.8489 49.843 91.9261 49.6561 91.9261 49.4613V49.094H90.4612V49.4613Z" fill="#26231E"/>
<path d="M96.0753 50.1959C96.2696 50.1959 96.4559 50.1185 96.5933 49.9807C96.7306 49.843 96.8078 49.6561 96.8078 49.4613V49.094H95.3429V49.4613C95.3429 49.6561 95.4201 49.843 95.5574 49.9807C95.6948 50.1185 95.8811 50.1959 96.0753 50.1959Z" fill="#26231E"/>
<path d="M97.4341 49.4613C97.4341 49.6561 97.5112 49.843 97.6486 49.9807C97.786 50.1185 97.9723 50.1959 98.1665 50.1959C98.3608 50.1959 98.5471 50.1185 98.6845 49.9807C98.8218 49.843 98.899 49.6561 98.899 49.4613V49.094H97.4341V49.4613Z" fill="#26231E"/>
<path d="M99.9135 49.4613C99.9135 49.6561 99.9906 49.843 100.128 49.9807C100.265 50.1185 100.452 50.1959 100.646 50.1959C100.84 50.1959 101.026 50.1185 101.164 49.9807C101.301 49.843 101.378 49.6561 101.378 49.4613V49.094H99.9135V49.4613Z" fill="#26231E"/>
<path d="M102.111 49.4613C102.111 49.6561 102.188 49.843 102.325 49.9807C102.463 50.1185 102.649 50.1959 102.843 50.1959C103.037 50.1959 103.224 50.1185 103.361 49.9807C103.498 49.843 103.576 49.6561 103.576 49.4613V49.094H102.111V49.4613Z" fill="#26231E"/>
<path d="M87.5314 50.8755C87.5314 51.0703 87.6085 51.2572 87.7459 51.3949C87.8833 51.5327 88.0696 51.6101 88.2638 51.6101C88.4581 51.6101 88.6444 51.5327 88.7817 51.3949C88.9191 51.2572 88.9963 51.0703 88.9963 50.8755V50.5082H87.5314V50.8755Z" fill="#26231E"/>
<path d="M90.4612 50.8755C90.4612 51.0703 90.5383 51.2572 90.6757 51.3949C90.8131 51.5327 90.9994 51.6101 91.1936 51.6101C91.3879 51.6101 91.5742 51.5327 91.7116 51.3949C91.8489 51.2572 91.9261 51.0703 91.9261 50.8755V50.5082H90.4612V50.8755Z" fill="#26231E"/>
<path d="M96.3208 50.8755C96.3208 51.0703 96.398 51.2572 96.5353 51.3949C96.6727 51.5327 96.859 51.6101 97.0533 51.6101C97.2475 51.6101 97.4338 51.5327 97.5712 51.3949C97.7085 51.2572 97.7857 51.0703 97.7857 50.8755V50.5082H96.3208V50.8755Z" fill="#26231E"/>
<path d="M98.1665 50.8755C98.1665 51.0703 98.2437 51.2572 98.381 51.3949C98.5184 51.5327 98.7047 51.6101 98.899 51.6101C99.0932 51.6101 99.2795 51.5327 99.4169 51.3949C99.5542 51.2572 99.6314 51.0703 99.6314 50.8755V50.5082H98.1665V50.8755Z" fill="#26231E"/>
<path d="M117.254 51.6101C117.448 51.6101 117.635 51.5327 117.772 51.3949C117.909 51.2572 117.987 51.0703 117.987 50.8755V50.5082H116.522V50.8755C116.522 51.0703 116.599 51.2572 116.736 51.3949C116.874 51.5327 117.06 51.6101 117.254 51.6101Z" fill="#26231E"/>
<path d="M88.63 52.2932C88.63 52.488 88.7072 52.6749 88.8445 52.8127C88.9819 52.9504 89.1682 53.0278 89.3625 53.0278C89.5567 53.0278 89.743 52.9504 89.8804 52.8127C90.0177 52.6749 90.0949 52.488 90.0949 52.2932V51.9259H88.63V52.2932Z" fill="#26231E"/>
<path d="M92.49 52.2932C92.49 52.488 92.5672 52.6749 92.7045 52.8127C92.8419 52.9504 93.0282 53.0278 93.2224 53.0278C93.4167 53.0278 93.603 52.9504 93.7404 52.8127C93.8777 52.6749 93.9549 52.488 93.9549 52.2932V51.9259H92.49V52.2932Z" fill="#26231E"/>
<path d="M95.9691 52.2932C95.9691 52.488 96.0463 52.6749 96.1836 52.8127C96.321 52.9504 96.5073 53.0278 96.7016 53.0278C96.8958 53.0278 97.0821 52.9504 97.2195 52.8127C97.3569 52.6749 97.434 52.488 97.434 52.2932V51.9259H95.9691V52.2932Z" fill="#26231E"/>
<path d="M98.5767 53.0278C98.7709 53.0278 98.9572 52.9504 99.0946 52.8127C99.232 52.6749 99.3091 52.488 99.3091 52.2932V51.9259H97.8442V52.2932C97.8442 52.488 97.9214 52.6749 98.0588 52.8127C98.1961 52.9504 98.3824 53.0278 98.5767 53.0278Z" fill="#26231E"/>
<path d="M87.0406 53.3438V53.7111C87.0406 53.9059 87.1178 54.0927 87.2552 54.2305C87.3925 54.3683 87.5788 54.4457 87.7731 54.4457C87.9674 54.4457 88.1537 54.3683 88.291 54.2305C88.4284 54.0927 88.5055 53.9059 88.5055 53.7111V53.3438H87.0406Z" fill="#26231E"/>
<path d="M90.5527 53.3438V53.7111C90.5527 53.9059 90.6299 54.0927 90.7673 54.2305C90.9046 54.3683 91.0909 54.4457 91.2852 54.4457C91.4794 54.4457 91.6657 54.3683 91.8031 54.2305C91.9405 54.0927 92.0176 53.9059 92.0176 53.7111V53.3438H90.5527Z" fill="#26231E"/>
<path d="M95.7457 53.7111C95.7457 53.9059 95.8229 54.0927 95.9603 54.2305C96.0976 54.3683 96.2839 54.4457 96.4782 54.4457C96.6724 54.4457 96.8587 54.3683 96.9961 54.2305C97.1335 54.0927 97.2106 53.9059 97.2106 53.7111V53.3438H95.7457V53.7111Z" fill="#26231E"/>
<path d="M97.4341 53.7111C97.4341 53.9059 97.5112 54.0927 97.6486 54.2305C97.786 54.3683 97.9723 54.4457 98.1665 54.4457C98.3608 54.4457 98.5471 54.3683 98.6845 54.2305C98.8218 54.0927 98.899 53.9059 98.899 53.7111V53.3438H97.4341V53.7111Z" fill="#26231E"/>
<path d="M100.247 53.7111C100.247 53.9059 100.324 54.0927 100.461 54.2305C100.599 54.3683 100.785 54.4457 100.979 54.4457C101.173 54.4457 101.36 54.3683 101.497 54.2305C101.634 54.0927 101.712 53.9059 101.712 53.7111V53.3438H100.247V53.7111Z" fill="#26231E"/>
<path d="M102.111 53.7111C102.111 53.9059 102.188 54.0927 102.325 54.2305C102.463 54.3683 102.649 54.4457 102.843 54.4457C103.037 54.4457 103.224 54.3683 103.361 54.2305C103.498 54.0927 103.576 53.9059 103.576 53.7111V53.3438H102.111V53.7111Z" fill="#26231E"/>
<path d="M88.597 54.7615V55.1288C88.597 55.3236 88.6742 55.5105 88.8116 55.6482C88.9489 55.786 89.1352 55.8634 89.3295 55.8634C89.5238 55.8634 89.7101 55.786 89.8474 55.6482C89.9848 55.5105 90.062 55.3236 90.062 55.1288V54.7615H88.597Z" fill="#26231E"/>
<path d="M91.0252 55.8634C91.2194 55.8634 91.4057 55.786 91.5431 55.6482C91.6805 55.5105 91.7576 55.3236 91.7576 55.1288V54.7615H90.2927V55.1288C90.2927 55.3236 90.3699 55.5105 90.5073 55.6482C90.6446 55.786 90.8309 55.8634 91.0252 55.8634Z" fill="#26231E"/>
<path d="M96.9361 55.8634C97.1303 55.8634 97.3166 55.786 97.454 55.6482C97.5913 55.5105 97.6685 55.3236 97.6685 55.1288V54.7615H96.2036V55.1288C96.2036 55.3236 96.2808 55.5105 96.4181 55.6482C96.5555 55.786 96.7418 55.8634 96.9361 55.8634Z" fill="#26231E"/>
<path d="M98.5767 55.8634C98.7709 55.8634 98.9572 55.786 99.0946 55.6482C99.232 55.5105 99.3091 55.3236 99.3091 55.1288V54.7615H97.8442V55.1288C97.8442 55.3236 97.9214 55.5105 98.0588 55.6482C98.1961 55.786 98.3824 55.8634 98.5767 55.8634Z" fill="#26231E"/>
<path d="M100.979 55.1288C100.979 55.3236 101.056 55.5105 101.194 55.6482C101.331 55.786 101.517 55.8634 101.712 55.8634C101.906 55.8634 102.092 55.786 102.229 55.6482C102.367 55.5105 102.444 55.3236 102.444 55.1288V54.7615H100.979V55.1288Z" fill="#26231E"/>
<path d="M88.3224 56.3005V56.6678C88.3224 56.8627 88.3996 57.0495 88.5369 57.1873C88.6743 57.3251 88.8606 57.4025 89.0548 57.4025C89.2491 57.4025 89.4354 57.3251 89.5728 57.1873C89.7101 57.0495 89.7873 56.8627 89.7873 56.6678V56.3005H88.3224Z" fill="#26231E"/>
<path d="M93.7388 56.1757H92.2739V56.543C92.2739 56.7378 92.3511 56.9246 92.4885 57.0624C92.6258 57.2002 92.8121 57.2776 93.0064 57.2776C93.2006 57.2776 93.3869 57.2002 93.5243 57.0624C93.6617 56.9246 93.7388 56.7378 93.7388 56.543V56.1757Z" fill="#26231E"/>
<path d="M97.3023 57.2776C97.4965 57.2776 97.6828 57.2002 97.8202 57.0624C97.9576 56.9246 98.0347 56.7378 98.0347 56.543V56.1757H96.5698V56.543C96.5698 56.7378 96.647 56.9246 96.7844 57.0624C96.9217 57.2002 97.108 57.2776 97.3023 57.2776Z" fill="#26231E"/>
<path d="M100.104 56.543V56.1757H98.6389V56.543C98.6389 56.7378 98.7161 56.9246 98.8534 57.0624C98.9908 57.2002 99.1771 57.2776 99.3714 57.2776C99.5656 57.2776 99.7519 57.2002 99.8893 57.0624C100.027 56.9246 100.104 56.7378 100.104 56.543Z" fill="#26231E"/>
<path d="M90.4905 58.0819C90.4905 58.2767 90.5676 58.4636 90.705 58.6014C90.8424 58.7391 91.0287 58.8165 91.2229 58.8165C91.4172 58.8165 91.6035 58.7391 91.7408 58.6014C91.8782 58.4636 91.9554 58.2767 91.9554 58.0819V57.7146H90.4905V58.0819Z" fill="#26231E"/>
<path d="M96.0753 58.8165C96.2696 58.8165 96.4559 58.7391 96.5933 58.6014C96.7306 58.4636 96.8078 58.2767 96.8078 58.0819V57.7146H95.3429V58.0819C95.3429 58.2767 95.4201 58.4636 95.5574 58.6014C95.6948 58.7391 95.8811 58.8165 96.0753 58.8165Z" fill="#26231E"/>
<path d="M97.6685 58.0819C97.6685 58.2767 97.7456 58.4636 97.883 58.6014C98.0203 58.7391 98.2066 58.8165 98.4009 58.8165C98.5952 58.8165 98.7815 58.7391 98.9188 58.6014C99.0562 58.4636 99.1334 58.2767 99.1334 58.0819V57.7146H97.6685V58.0819Z" fill="#26231E"/>
<path d="M87.1652 58.0819C87.1652 58.2767 87.2423 58.4636 87.3797 58.6014C87.517 58.7391 87.7033 58.8165 87.8976 58.8165C88.0919 58.8165 88.2782 58.7391 88.4155 58.6014C88.5529 58.4636 88.63 58.2767 88.63 58.0819V57.7146H87.1652V58.0819Z" fill="#26231E"/>
<path d="M88.63 59.4997C88.63 59.6946 88.7072 59.8814 88.8445 60.0192C88.9819 60.157 89.1682 60.2344 89.3625 60.2344C89.5567 60.2344 89.743 60.157 89.8804 60.0192C90.0177 59.8814 90.0949 59.6946 90.0949 59.4997V59.1324H88.63V59.4997Z" fill="#26231E"/>
<path d="M92.717 59.1324V59.4997C92.717 59.6946 92.7942 59.8814 92.9316 60.0192C93.0689 60.157 93.2552 60.2344 93.4495 60.2344C93.6437 60.2344 93.83 60.157 93.9674 60.0192C94.1048 59.8814 94.1819 59.6946 94.1819 59.4997V59.1324H92.717Z" fill="#26231E"/>
<path d="M96.1377 59.4997C96.1377 59.6946 96.2149 59.8814 96.3522 60.0192C96.4896 60.157 96.6759 60.2344 96.8701 60.2344C97.0644 60.2344 97.2507 60.157 97.3881 60.0192C97.5254 59.8814 97.6026 59.6946 97.6026 59.4997V59.1324H96.1377V59.4997Z" fill="#26231E"/>
<path d="M99.5143 59.4997C99.5143 59.6946 99.5915 59.8814 99.7288 60.0192C99.8662 60.157 100.052 60.2344 100.247 60.2344C100.441 60.2344 100.627 60.157 100.765 60.0192C100.902 59.8814 100.979 59.6946 100.979 59.4997V59.1324H99.5143V59.4997Z" fill="#26231E"/>
<path d="M90.5527 60.5466V60.9139C90.5527 61.1088 90.6299 61.2956 90.7673 61.4334C90.9046 61.5711 91.0909 61.6485 91.2852 61.6485C91.4794 61.6485 91.6657 61.5711 91.8031 61.4334C91.9405 61.2956 92.0176 61.1088 92.0176 60.9139V60.5466H90.5527Z" fill="#26231E"/>
<path d="M95.9691 60.9139C95.9691 61.1088 96.0463 61.2956 96.1836 61.4334C96.321 61.5711 96.5073 61.6485 96.7016 61.6485C96.8958 61.6485 97.0821 61.5711 97.2195 61.4334C97.3569 61.2956 97.434 61.1088 97.434 60.9139V60.5466H95.9691V60.9139Z" fill="#26231E"/>
<path d="M91.5599 61.9644H90.095V62.3317C90.095 62.5265 90.1721 62.7133 90.3095 62.8511C90.4469 62.9889 90.6332 63.0663 90.8274 63.0663C91.0217 63.0663 91.208 62.9889 91.3453 62.8511C91.4827 62.7133 91.5599 62.5265 91.5599 62.3317V61.9644Z" fill="#26231E"/>
<path d="M111.852 62.3317C111.852 62.5265 111.929 62.7133 112.067 62.8511C112.204 62.9889 112.39 63.0663 112.585 63.0663C112.779 63.0663 112.965 62.9889 113.103 62.8511C113.24 62.7133 113.317 62.5265 113.317 62.3317V61.9644H111.852V62.3317Z" fill="#26231E"/>
<path d="M89.194 48.7928C89.3883 48.7928 89.5746 48.7154 89.7119 48.5777C89.8493 48.4399 89.9264 48.2531 89.9264 48.0582V47.6909H88.4615V48.0582C88.4615 48.2531 88.5387 48.4399 88.6761 48.5777C88.8134 48.7154 88.9997 48.7928 89.194 48.7928Z" fill="#26231E"/>
<path d="M93.2225 48.0582V47.6909H91.7576V48.0582C91.7576 48.2531 91.8347 48.4399 91.9721 48.5777C92.1095 48.7154 92.2958 48.7928 92.49 48.7928C92.6843 48.7928 92.8706 48.7154 93.0079 48.5777C93.1453 48.4399 93.2225 48.2531 93.2225 48.0582Z" fill="#26231E"/>
<path d="M97.3023 48.7928C97.4965 48.7928 97.6828 48.7154 97.8202 48.5777C97.9576 48.4399 98.0347 48.2531 98.0347 48.0582V47.6909H96.5698V48.0582C96.5698 48.2531 96.647 48.4399 96.7844 48.5777C96.9217 48.7154 97.108 48.7928 97.3023 48.7928Z" fill="#26231E"/>
<path d="M98.8989 48.0582C98.8989 48.2531 98.9761 48.4399 99.1135 48.5777C99.2508 48.7154 99.4371 48.7928 99.6314 48.7928C99.8256 48.7928 100.012 48.7154 100.149 48.5777C100.287 48.4399 100.364 48.2531 100.364 48.0582V47.6909H98.8989V48.0582Z" fill="#26231E"/>
<path d="M102.561 48.0582C102.561 48.2531 102.638 48.4399 102.776 48.5777C102.913 48.7154 103.099 48.7928 103.294 48.7928C103.488 48.7928 103.674 48.7154 103.812 48.5777C103.949 48.4399 104.026 48.2531 104.026 48.0582V47.6909H102.561V48.0582Z" fill="#26231E"/>
<path d="M106.725 60.7853C106.968 60.7853 107.201 60.6886 107.373 60.5164C107.544 60.3442 107.641 60.1106 107.641 59.8671V59.1324H105.81V59.8671C105.811 60.1103 105.907 60.3433 106.079 60.5153C106.25 60.6873 106.483 60.7843 106.725 60.7853Z" fill="#26231E"/>
<path d="M109.9 59.3675C110.143 59.3665 110.375 59.2695 110.547 59.0975C110.718 58.9255 110.815 58.6925 110.816 58.4492V57.7146H108.985V58.4492C108.985 58.6927 109.081 58.9263 109.253 59.0985C109.425 59.2707 109.657 59.3675 109.9 59.3675Z" fill="#26231E"/>
<path d="M111.211 56.4144C111.454 56.4134 111.686 56.3163 111.858 56.1443C112.029 55.9723 112.126 55.7393 112.127 55.4961V54.7615H110.296V55.4961C110.297 55.7393 110.394 55.9723 110.565 56.1443C110.737 56.3163 110.969 56.4134 111.211 56.4144Z" fill="#26231E"/>
<path d="M4.67664 43.6174H7.60643V46.5559H4.67664V43.6174ZM4.67664 49.4943L6.14153 48.0251L7.60643 49.4943V53.1674H4.67664V49.4943Z" fill="#26231E"/>
<path d="M6.14156 40.4954C5.55879 40.4954 4.99988 40.2632 4.5878 39.8499C4.17572 39.4366 3.94421 38.876 3.94421 38.2915C3.94421 38.2144 3.94421 38.1373 3.94421 38.0638C4.00264 37.5236 4.25797 37.0241 4.66116 36.6613C5.06436 36.2984 5.587 36.0977 6.12874 36.0977C6.67048 36.0977 7.19313 36.2984 7.59632 36.6613C7.99952 37.0241 8.25484 37.5236 8.31327 38.0638C8.31885 38.1396 8.31885 38.2157 8.31327 38.2915C8.31331 38.8716 8.08533 39.4283 7.67877 39.8408C7.27222 40.2534 6.71988 40.4886 6.14156 40.4954Z" fill="#26231E"/>
<path d="M6.14162 20.9364C6.26303 20.9364 6.37947 20.888 6.46532 20.8019C6.55117 20.7158 6.5994 20.599 6.5994 20.4772V14.0384H8.33897L7.08282 13.4029L8.35728 12.7638H6.5994C6.5994 12.642 6.55117 12.5253 6.46532 12.4392C6.37947 12.3531 6.26303 12.3047 6.14162 12.3047C6.02021 12.3047 5.90377 12.3531 5.81792 12.4392C5.73207 12.5253 5.68384 12.642 5.68384 12.7638V20.4772C5.68384 20.599 5.73207 20.7158 5.81792 20.8019C5.90377 20.888 6.02021 20.9364 6.14162 20.9364Z" fill="#26231E"/>
<path d="M6.14153 39.5771C6.84944 39.5771 7.42331 39.0015 7.42331 38.2915C7.42331 37.5815 6.84944 37.006 6.14153 37.006C5.43362 37.006 4.85974 37.5815 4.85974 38.2915C4.85974 39.0015 5.43362 39.5771 6.14153 39.5771Z" fill="#26231E"/>
<path d="M7.53688 36.591C7.23052 36.338 6.86158 36.173 6.46923 36.1135C6.07688 36.0539 5.67577 36.102 5.30849 36.2526C4.9412 36.4033 4.62145 36.6509 4.38318 36.9692C4.14491 37.2874 3.99702 37.6644 3.9552 38.0602C3.9552 38.1337 3.9552 38.2108 3.9552 38.2879C3.9552 38.8724 4.18671 39.433 4.59879 39.8463C5.01087 40.2596 5.56978 40.4918 6.15255 40.4918C6.73532 40.4918 7.29422 40.2596 7.70631 39.8463C8.11839 39.433 8.3499 38.8724 8.3499 38.2879C8.35548 38.2121 8.35548 38.136 8.3499 38.0602C8.31813 37.7735 8.2299 37.496 8.09034 37.2438C7.95077 36.9916 7.76264 36.7697 7.53688 36.591ZM6.14156 39.5772C5.88805 39.5772 5.64023 39.5018 5.42944 39.3605C5.21865 39.2193 5.05436 39.0185 4.95735 38.7836C4.86033 38.5487 4.83495 38.2902 4.88441 38.0408C4.93386 37.7914 5.05594 37.5624 5.2352 37.3826C5.41446 37.2028 5.64286 37.0804 5.8915 37.0308C6.14014 36.9811 6.39786 37.0066 6.63208 37.1039C6.86629 37.2012 7.06648 37.366 7.20733 37.5774C7.34817 37.7888 7.42335 38.0374 7.42335 38.2916C7.42335 38.6326 7.2883 38.9596 7.04792 39.2007C6.80754 39.4417 6.48151 39.5772 6.14156 39.5772Z" fill="#26231E"/>
<path d="M6.69096 44.5358H5.59229V45.6377H6.69096V44.5358Z" fill="#26231E"/>
<path d="M7.60643 43.6174H4.67664V46.5559H7.60643V43.6174ZM6.69087 45.6376H5.5922V44.5357H6.69087V45.6376Z" fill="#26231E"/>
<path fill-rule="evenodd" clip-rule="evenodd" d="M5.59229 49.8727V52.2492H6.69096V49.8727L6.14162 49.3218L5.59229 49.8727Z" fill="#26231E"/>
<path d="M7.60643 49.4944L6.14153 48.0251L4.67664 49.4944V53.1674H7.60643V49.4944ZM6.69087 52.2492H5.5922V49.8727L6.14153 49.3217L6.69087 49.8727V52.2492Z" fill="#26231E"/>
<path d="M9.89539 61.9461L10.5473 61.3694H9.89539V61.9461Z" fill="#26231E"/>
<path d="M8.33521 63.3087L8.97977 62.7504V61.373H8.06421V63.643L8.1814 63.485C8.22791 63.4223 8.27935 63.3633 8.33521 63.3087Z" fill="#26231E"/>
<path d="M8.06421 60.4511H8.97977H9.89533H10.8915L11.2394 58.7982H8.06421V60.4511Z" fill="#26231E"/>
<path d="M7.0572 22.4974C7.25146 22.4974 7.43776 22.42 7.57512 22.2822C7.71248 22.1445 7.78965 21.9576 7.78965 21.7628C7.78965 21.568 7.71248 21.3811 7.57512 21.2433C7.43776 21.1056 7.25146 21.0282 7.0572 21.0282H6.86676C6.98872 20.8704 7.05563 20.6768 7.0572 20.4772C7.05651 20.3164 7.01389 20.1586 6.93359 20.0194C6.85329 19.8802 6.73808 19.7646 6.59942 19.6838V20.4772C6.59942 20.599 6.55119 20.7158 6.46534 20.8019C6.37949 20.888 6.26305 20.9364 6.14164 20.9364C6.02023 20.9364 5.90379 20.888 5.81794 20.8019C5.73209 20.7158 5.68386 20.599 5.68386 20.4772V19.6838C5.5714 19.7483 5.47397 19.8361 5.39812 19.9414C5.32227 20.0466 5.26975 20.167 5.24409 20.2943C5.21842 20.4216 5.2202 20.553 5.24931 20.6796C5.27842 20.8061 5.33418 20.925 5.41285 21.0282H5.22608C5.06334 21.0307 4.90608 21.0875 4.77911 21.1896C4.65214 21.2917 4.56269 21.4333 4.5249 21.5921C4.48711 21.7509 4.50312 21.9178 4.57041 22.0664C4.63769 22.215 4.75242 22.337 4.89648 22.4129C4.9979 22.4674 5.11101 22.4964 5.22608 22.4974H7.0572Z" fill="#26231E"/>
<path d="M10.5362 70.427C10.5358 70.339 10.5526 70.2516 10.5859 70.1701C10.6192 70.0886 10.6682 70.0144 10.7302 69.952C10.7921 69.8895 10.8657 69.8399 10.9469 69.8061C11.028 69.7723 11.1149 69.7549 11.2028 69.7549H11.6972C11.8749 69.7549 12.0454 69.8257 12.1711 69.9518C12.2968 70.0778 12.3674 70.2488 12.3674 70.427V74.5299H10.5362V70.427ZM7.97267 70.427C7.97218 70.339 7.98907 70.2516 8.02235 70.1701C8.05563 70.0886 8.10465 70.0144 8.16659 69.952C8.22853 69.8895 8.30217 69.8399 8.38328 69.8061C8.46438 69.7723 8.55136 69.7549 8.6392 69.7549H9.1336C9.31134 69.7549 9.48181 69.8257 9.6075 69.9518C9.73318 70.0778 9.80379 70.2488 9.80379 70.427V74.5299H7.97267V70.427Z" fill="#26231E"/>
<path d="M29.8546 74.5299H28.0234V70.427C28.023 70.339 28.0398 70.2516 28.0731 70.1701C28.1064 70.0886 28.1554 70.0144 28.2174 69.952C28.2793 69.8895 28.353 69.8399 28.4341 69.8061C28.5152 69.7723 28.6021 69.7549 28.69 69.7549H29.1844C29.3621 69.7549 29.5326 69.8257 29.6583 69.9518C29.784 70.0778 29.8546 70.2488 29.8546 70.427V74.5299ZM31.7479 69.7549C31.9257 69.7549 32.0962 69.8257 32.2218 69.9518C32.3475 70.0778 32.4181 70.2488 32.4181 70.427V74.5299H30.587V70.427C30.5865 70.339 30.6034 70.2516 30.6367 70.1701C30.67 70.0886 30.719 70.0144 30.7809 69.952C30.8429 69.8895 30.9165 69.8399 30.9976 69.8061C31.0787 69.7723 31.1657 69.7549 31.2535 69.7549H31.7479Z" fill="#26231E"/>
<path d="M14.4731 67.7972L17.9523 74.5042V71.6503C17.9523 71.0658 18.1838 70.5052 18.5959 70.0919C19.0079 69.6786 19.5669 69.4464 20.1496 69.4464C20.7324 69.4464 21.2913 69.6786 21.7034 70.0919C22.1155 70.5052 22.347 71.0658 22.347 71.6503V74.5042L14.4731 67.7972ZM23.171 70.4235C23.1705 70.3354 23.1874 70.2481 23.2207 70.1665C23.2539 70.085 23.303 70.0109 23.3649 69.9484C23.4268 69.8859 23.5005 69.8364 23.5816 69.8025C23.6627 69.7687 23.7497 69.7513 23.8375 69.7513H24.3319C24.5097 69.7513 24.6801 69.8221 24.8058 69.9482C24.9315 70.0742 25.0021 70.2452 25.0021 70.4235V74.5263H23.171V70.4235ZM15.2971 70.4235C15.2967 70.3354 15.3136 70.2481 15.3468 70.1665C15.3801 70.085 15.4291 70.0109 15.4911 69.9484C15.553 69.8859 15.6267 69.8364 15.7078 69.8025C15.7889 69.7687 15.8758 69.7513 15.9637 69.7513H16.4581C16.6358 69.7513 16.8063 69.8221 16.932 69.9482C17.0577 70.0742 17.1283 70.2452 17.1283 70.4235V74.5263H15.2971V70.4235Z" fill="#26231E"/>
<path d="M14.6563 62.5925C14.5476 62.5925 14.4414 62.5602 14.3511 62.4997C14.2607 62.4391 14.1903 62.3531 14.1487 62.2524C14.1072 62.1517 14.0963 62.0409 14.1175 61.9341C14.1387 61.8272 14.191 61.729 14.2678 61.652C14.3447 61.5749 14.4425 61.5224 14.5491 61.5012C14.6557 61.4799 14.7661 61.4908 14.8665 61.5325C14.9669 61.5742 15.0527 61.6449 15.113 61.7355C15.1734 61.8261 15.2056 61.9326 15.2056 62.0416C15.2056 62.1877 15.1477 62.3278 15.0447 62.4311C14.9417 62.5345 14.802 62.5925 14.6563 62.5925Z" fill="#26231E"/>
<path d="M12.3674 66.2655H10.5363V65.3472C10.5363 65.1037 10.6327 64.8701 10.8044 64.6979C10.9761 64.5257 11.209 64.429 11.4518 64.429C11.6946 64.429 11.9275 64.5257 12.0992 64.6979C12.2709 64.8701 12.3674 65.1037 12.3674 65.3472V66.2655Z" fill="#26231E"/>
<path d="M20.1497 70.3683C19.8098 70.3683 19.4837 70.5037 19.2433 70.7448C19.003 70.9859 18.8679 71.3129 18.8679 71.6539V74.3242H21.4315V71.6539C21.4315 71.3129 21.2964 70.9859 21.0561 70.7448C20.8157 70.5037 20.4897 70.3683 20.1497 70.3683Z" fill="#26231E"/>
<path d="M17.1284 70.427C17.1284 70.2488 17.0578 70.0778 16.9321 69.9518C16.8064 69.8257 16.6359 69.7549 16.4582 69.7549H15.9638C15.8759 69.7549 15.789 69.7723 15.7079 69.8061C15.6268 69.8399 15.5531 69.8895 15.4912 69.952C15.4292 70.0144 15.3802 70.0886 15.3469 70.1701C15.3137 70.2516 15.2968 70.339 15.2973 70.427V74.5299H17.1284V70.427Z" fill="#26231E"/>
<path d="M12.3674 70.427C12.3674 70.2488 12.2968 70.0778 12.1711 69.9518C12.0454 69.8257 11.8749 69.7549 11.6972 69.7549H11.2028C11.115 69.7549 11.028 69.7723 10.9469 69.8061C10.8658 69.8399 10.7921 69.8895 10.7302 69.952C10.6682 70.0144 10.6192 70.0886 10.5859 70.1701C10.5527 70.2516 10.5358 70.339 10.5363 70.427V74.5299H12.3674V70.427Z" fill="#26231E"/>
<path d="M11.4518 64.429C11.3315 64.4285 11.2122 64.4519 11.1009 64.4979C10.9896 64.5438 10.8885 64.6115 10.8033 64.6968C10.7182 64.7822 10.6508 64.8836 10.605 64.9952C10.5591 65.1069 10.5358 65.2265 10.5363 65.3472V66.2655H12.3674V65.3472C12.3674 65.1037 12.2709 64.8701 12.0992 64.6979C11.9275 64.5257 11.6946 64.429 11.4518 64.429Z" fill="#26231E"/>
<path d="M9.80379 70.427C9.80379 70.2488 9.73318 70.0778 9.6075 69.9518C9.48181 69.8257 9.31135 69.7549 9.1336 69.7549H8.6392C8.55136 69.7549 8.46438 69.7723 8.38328 69.8061C8.30217 69.8399 8.22853 69.8895 8.16659 69.952C8.10465 70.0144 8.05563 70.0886 8.02235 70.1701C7.98907 70.2516 7.97218 70.339 7.97267 70.427V74.5299H9.80379V70.427Z" fill="#26231E"/>
<path d="M30.587 70.427V74.5299H32.4182V70.427C32.4182 70.2488 32.3476 70.0778 32.2219 69.9518C32.0962 69.8257 31.9257 69.7549 31.748 69.7549H31.2536C31.1657 69.7549 31.0788 69.7723 30.9977 69.8061C30.9165 69.8399 30.8429 69.8895 30.781 69.952C30.719 70.0144 30.67 70.0886 30.6367 70.1701C30.6034 70.2516 30.5866 70.339 30.587 70.427Z" fill="#26231E"/>
<path d="M29.1844 69.7549H28.69C28.6021 69.7549 28.5152 69.7723 28.4341 69.8061C28.353 69.8399 28.2793 69.8895 28.2174 69.952C28.1554 70.0144 28.1064 70.0886 28.0731 70.1701C28.0398 70.2516 28.023 70.339 28.0234 70.427V74.5299H29.8546V70.427C29.8546 70.3388 29.8372 70.2514 29.8036 70.1698C29.7699 70.0883 29.7205 70.0142 29.6583 69.9518C29.596 69.8893 29.5222 69.8398 29.4409 69.806C29.3595 69.7723 29.2724 69.7549 29.1844 69.7549Z" fill="#26231E"/>
<path d="M25.0022 70.427C25.0022 70.2488 24.9315 70.0778 24.8059 69.9518C24.6802 69.8257 24.5097 69.7549 24.332 69.7549H23.8376C23.7497 69.7549 23.6627 69.7723 23.5816 69.8061C23.5005 69.8399 23.4269 69.8895 23.365 69.952C23.303 70.0144 23.254 70.0886 23.2207 70.1701C23.1874 70.2516 23.1705 70.339 23.171 70.427V74.5299H25.0022V70.427Z" fill="#26231E"/>
<path d="M14.6563 62.5962C14.9597 62.5962 15.2056 62.3495 15.2056 62.0452C15.2056 61.7409 14.9597 61.4943 14.6563 61.4943C14.3529 61.4943 14.1069 61.7409 14.1069 62.0452C14.1069 62.3495 14.3529 62.5962 14.6563 62.5962Z" fill="#26231E"/>
<path d="M26.3938 62.5962C26.6972 62.5962 26.9432 62.3495 26.9432 62.0452C26.9432 61.7409 26.6972 61.4943 26.3938 61.4943C26.0904 61.4943 25.8445 61.7409 25.8445 62.0452C25.8445 62.3495 26.0904 62.5962 26.3938 62.5962Z" fill="#26231E"/>
<path d="M20.1497 62.5925C20.041 62.5925 19.9348 62.5602 19.8445 62.4997C19.7541 62.4391 19.6837 62.3531 19.6422 62.2524C19.6006 62.1517 19.5897 62.0409 19.6109 61.9341C19.6321 61.8272 19.6844 61.729 19.7612 61.652C19.8381 61.5749 19.9359 61.5224 20.0425 61.5012C20.1491 61.4799 20.2595 61.4908 20.3599 61.5325C20.4603 61.5742 20.5461 61.6449 20.6064 61.7355C20.6668 61.8261 20.699 61.9326 20.699 62.0416C20.699 62.1877 20.6411 62.3278 20.5381 62.4311C20.4351 62.5345 20.2954 62.5925 20.1497 62.5925Z" fill="#26231E"/>
<path d="M20.1497 62.5962C20.4531 62.5962 20.699 62.3495 20.699 62.0452C20.699 61.7409 20.4531 61.4943 20.1497 61.4943C19.8463 61.4943 19.6003 61.7409 19.6003 62.0452C19.6003 62.3495 19.8463 62.5962 20.1497 62.5962Z" fill="#26231E"/>
<path d="M120.825 72.6236L123.96 65.5823C123.99 65.5265 124.009 65.4648 124.015 65.4012C124.02 65.3377 124.013 65.2736 123.992 65.2132C123.972 65.1527 123.939 65.0972 123.896 65.0502C123.853 65.0032 123.801 64.9656 123.743 64.94C123.684 64.9144 123.622 64.9012 123.558 64.9013C123.494 64.9015 123.431 64.9149 123.373 64.9408C123.315 64.9667 123.263 65.0044 123.22 65.0516C123.177 65.0988 123.145 65.1545 123.125 65.215L119.909 72.4362V75.3343H119.268V67.2756L120.023 65.5823C120.053 65.5265 120.072 65.4648 120.078 65.4012C120.084 65.3377 120.076 65.2736 120.056 65.2132C120.035 65.1527 120.002 65.0972 119.959 65.0502C119.916 65.0032 119.864 64.9656 119.806 64.94C119.748 64.9144 119.685 64.9012 119.621 64.9013C119.557 64.9015 119.494 64.9149 119.436 64.9408C119.378 64.9667 119.326 65.0044 119.283 65.0516C119.24 65.0988 119.208 65.1545 119.188 65.215L118.69 66.3353H118.17V64.4988C118.461 64.4988 118.74 64.3827 118.947 64.176C119.153 63.9694 119.268 63.6891 119.268 63.3969V48.6202C119.268 48.5749 119.259 48.53 119.243 48.4879V48.4586C119.225 48.4208 119.202 48.3861 119.173 48.3557C119.145 48.3303 119.113 48.3093 119.078 48.2933C119.078 48.2933 119.06 48.2933 119.049 48.2933C119.01 48.277 118.969 48.2682 118.928 48.2676H118.873H118.84C118.809 48.275 118.779 48.2874 118.752 48.3043C118.634 48.3708 118.511 48.4297 118.386 48.4806L118.294 48.521C118.192 48.5614 118.089 48.5981 117.99 48.6275H117.939C117.825 48.6569 117.716 48.6789 117.602 48.6973H117.518C117.427 48.6973 117.336 48.7046 117.243 48.7193H117.177C117.055 48.7185 116.932 48.7099 116.811 48.6936H116.738C116.621 48.6716 116.503 48.6495 116.39 48.6165H116.364C116.254 48.5828 116.145 48.5436 116.038 48.499L115.976 48.4732C115.87 48.4255 115.764 48.3741 115.661 48.319L115.595 48.2822C115.493 48.2198 115.39 48.161 115.291 48.0912C115.188 48.0232 115.089 47.9496 114.994 47.8709L114.932 47.8231C114.841 47.746 114.749 47.6688 114.661 47.588L114.61 47.5403L114.368 47.3015L114.343 47.2722L114.097 47.0077C114.073 46.989 114.047 46.9718 114.02 46.9563C113.945 46.8681 113.871 46.78 113.801 46.6918L113.764 46.6477L113.577 46.4016L113.544 46.3576C113.478 46.2694 113.42 46.1813 113.361 46.0968L113.321 46.038C113.262 45.9535 113.207 45.8691 113.156 45.7882L113.138 45.7625C113.09 45.6854 113.043 45.6119 113.002 45.5421C112.992 45.5283 112.984 45.5135 112.977 45.4981C112.933 45.4246 112.889 45.3548 112.852 45.2887L112.83 45.2483C112.793 45.1859 112.757 45.1234 112.728 45.0647C112.702 45.0263 112.671 44.9916 112.636 44.9618C112.629 44.9537 112.62 44.9474 112.61 44.9434C112.575 44.9178 112.535 44.8991 112.493 44.8883H112.471C112.45 44.8863 112.43 44.8863 112.409 44.8883H112.361H112.325C112.277 44.899 112.232 44.9189 112.193 44.9471C112.076 45.0316 111.958 45.1124 111.827 45.1859L111.713 45.252L111.479 45.3842L111.347 45.4466C111.274 45.4834 111.2 45.5128 111.127 45.5421L110.995 45.5972L110.772 45.6707L110.655 45.7074L110.387 45.7662H110.318C110.204 45.7846 110.094 45.7993 109.985 45.8066H109.893H109.706H109.549H109.329H109.223C109.146 45.8066 109.065 45.7846 108.985 45.7662H108.911L108.608 45.6891L108.538 45.667L108.307 45.5862L108.208 45.5495C108.142 45.5201 108.073 45.4944 108.007 45.4613L107.912 45.4209L107.674 45.2997L107.63 45.2777C107.534 45.2263 107.443 45.1712 107.351 45.1124L107.278 45.0683L107.077 44.9361L106.989 44.8737L106.802 44.7341L106.725 44.679C106.553 44.5468 106.388 44.4035 106.227 44.2603L106.157 44.1941C106.099 44.1427 106.04 44.0913 105.985 44.0362L105.912 43.9627C105.854 43.9076 105.799 43.8489 105.744 43.7938L105.685 43.735L105.469 43.5036L105.443 43.4742C105.381 43.4081 105.322 43.3383 105.264 43.2722L105.202 43.1987L105.062 43.0335L105.004 42.96C104.953 42.9012 104.905 42.8388 104.857 42.78L104.821 42.7323L104.649 42.5082L104.616 42.4605C104.572 42.4017 104.528 42.3466 104.487 42.2878L104.44 42.2217L104.334 42.0711L104.29 42.0087C104.249 41.9536 104.213 41.8948 104.176 41.8397L104.158 41.814C104.114 41.7516 104.074 41.6891 104.037 41.6303L104.004 41.5789L103.927 41.4577L103.894 41.4026L103.825 41.2961L103.799 41.252L103.722 41.1235C103.7 41.0859 103.67 41.0533 103.634 41.028L103.612 41.0096C103.578 40.9848 103.539 40.9662 103.499 40.9545C103.468 40.9509 103.438 40.9509 103.407 40.9545H103.345C103.303 40.9613 103.262 40.9749 103.224 40.9949C103.103 41.0684 102.982 41.1345 102.858 41.1969L102.744 41.252C102.664 41.2924 102.579 41.3292 102.499 41.3622L102.374 41.4136C102.294 41.4467 102.217 41.4724 102.136 41.4981L102.019 41.5385C101.928 41.5679 101.832 41.5899 101.741 41.612L101.679 41.6303C101.565 41.6524 101.451 41.6744 101.342 41.6891H101.246H101.012H100.734C100.573 41.6892 100.413 41.6782 100.254 41.6561H100.206C100.06 41.6341 99.9142 41.6047 99.7705 41.5679L99.679 41.5459C99.5288 41.5018 99.3823 41.454 99.2395 41.3989L99.1516 41.3622C99.0198 41.3071 98.8916 41.2484 98.7634 41.1822L98.7085 41.1529C98.573 41.0831 98.4375 41.0023 98.3056 40.9178L98.2177 40.859C98.0859 40.7745 97.9577 40.6827 97.8332 40.5872L97.8039 40.5652C97.6867 40.4733 97.5732 40.3778 97.4596 40.2823L97.3864 40.2162C97.2692 40.1134 97.1593 40.0105 97.0531 39.904L96.9872 39.8379L96.7052 39.5404L96.6576 39.489C96.5587 39.3788 96.4635 39.2649 96.3683 39.1547L96.306 39.0739C96.2145 38.9637 96.1229 38.8498 96.0387 38.7397C95.9545 38.6295 95.8776 38.5229 95.8006 38.4164C95.8006 38.3907 95.7677 38.3687 95.753 38.3466C95.6761 38.2401 95.6066 38.1336 95.5406 38.0344L95.504 37.9793C95.4454 37.8875 95.3868 37.7994 95.3355 37.7112C95.3245 37.6974 95.3147 37.6826 95.3062 37.6671C95.2476 37.5716 95.1927 37.4835 95.1451 37.399L95.1121 37.3439L94.9803 37.1125C94.965 37.0838 94.9452 37.0578 94.9217 37.0354L94.8997 37.0133L94.8485 36.9766H94.8155L94.7679 36.9582H94.7276H94.6763H94.6544C94.6051 36.9604 94.5567 36.9716 94.5115 36.9913C94.4644 37.018 94.4222 37.0528 94.387 37.0941C94.2589 37.2631 94.1343 37.4247 94.0208 37.579L93.8999 37.7259C93.8157 37.8287 93.7315 37.9316 93.6472 38.0271L93.5117 38.1409L93.281 38.3907L93.1382 38.5376C93.0613 38.6184 92.9844 38.6919 92.9075 38.7654L92.7793 38.8756L92.5303 39.0996L92.4277 39.1914C92.3105 39.2906 92.1933 39.3861 92.0798 39.4743L92.0395 39.5037C91.9406 39.5808 91.8418 39.6542 91.7392 39.724L91.6293 39.7975L91.406 39.9407L91.2814 40.0142L91.08 40.1281L90.9555 40.1942L90.7541 40.2897L90.6405 40.3411L90.4171 40.4329L90.3329 40.466L90.0363 40.5615H89.9813L89.747 40.6203L89.6481 40.6386L89.465 40.6717H89.3588L89.1903 40.69H89.0878H88.8314C88.7215 40.69 88.6117 40.69 88.5054 40.69H88.4432C88.337 40.69 88.2308 40.6643 88.1319 40.646H88.1136L87.8279 40.5762H87.7803C87.6888 40.5505 87.5972 40.5211 87.513 40.488L87.4617 40.4697C87.3775 40.4403 87.2933 40.4036 87.2163 40.3705L86.993 40.2566L86.9527 40.2383L86.7586 40.1244L86.7219 40.1024L86.5425 39.9848C86.5135 39.9639 86.4814 39.9478 86.4473 39.9371H86.4106H86.3447H86.3228C86.2878 39.9375 86.2532 39.9437 86.2202 39.9554H86.1909C86.1521 39.973 86.1163 39.9966 86.0847 40.0252C86.0586 40.054 86.0365 40.0861 86.0188 40.1207V40.1501C85.9996 40.1915 85.9896 40.2367 85.9895 40.2823V50.4493L76.5189 39.871V32.7893C76.5194 32.7651 76.515 32.741 76.506 32.7184C76.497 32.6959 76.4835 32.6755 76.4664 32.6583C76.4493 32.6412 76.4289 32.6277 76.4065 32.6186C76.384 32.6096 76.36 32.6052 76.3358 32.6057C76.3068 32.6048 76.2781 32.6114 76.2525 32.6249C76.2268 32.6385 76.2051 32.6584 76.1893 32.6828L75.7865 33.2448L75.3873 32.6828C75.3715 32.6584 75.3498 32.6385 75.3241 32.6249C75.2985 32.6114 75.2698 32.6048 75.2408 32.6057C75.2164 32.6052 75.1922 32.6096 75.1696 32.6186C75.147 32.6276 75.1263 32.641 75.1089 32.6581C75.0916 32.6752 75.0777 32.6956 75.0683 32.7182C75.0589 32.7407 75.054 32.7649 75.054 32.7893V39.882L54.9886 60.3152H52.3481H49.7149L39.7426 50.1371L39.5669 41.8691H39.6291L41.7349 41.263C41.8709 41.2241 41.9927 41.1464 42.0856 41.0395C42.1785 40.9326 42.2386 40.8011 42.2586 40.6607L42.504 38.938C42.5132 38.8895 42.5132 38.8396 42.504 38.7911C42.491 38.7439 42.4688 38.6997 42.4386 38.6613C42.4085 38.6228 42.3709 38.5907 42.3282 38.567C42.2855 38.5425 42.238 38.5275 42.189 38.5229C41.6141 38.4642 40.4897 38.3503 39.4973 38.2769L39.446 35.9922H39.6364L42.2879 35.1033L42.5003 35.0335C42.63 34.9894 42.7452 34.9106 42.8336 34.8058C42.9202 34.7008 42.976 34.5736 42.9947 34.4385L43.0277 34.2145L43.0497 34.0602L43.2438 32.7012C43.2509 32.6517 43.248 32.6014 43.2351 32.5532C43.2222 32.5049 43.1996 32.4599 43.1688 32.4207C43.1379 32.3815 43.0994 32.349 43.0557 32.3252C43.0119 32.3015 42.9637 32.2869 42.9142 32.2824C42.1817 32.22 40.6216 32.0841 39.3618 32.007L39.3325 30.5745H40.4092C40.5306 30.5745 40.647 30.5261 40.7329 30.44C40.8187 30.3539 40.867 30.2371 40.867 30.1153C40.867 29.9936 40.8187 29.8768 40.7329 29.7907C40.647 29.7046 40.5306 29.6562 40.4092 29.6562H39.2629L39.2189 27.636H40.867C40.9884 27.636 41.1048 27.5877 41.1907 27.5015C41.2765 27.4154 41.3247 27.2987 41.3247 27.1769C41.3247 27.0551 41.2765 26.9383 41.1907 26.8522C41.1048 26.7661 40.9884 26.7178 40.867 26.7178H39.2006L39.1677 25.0649H40.5007C40.6221 25.0649 40.7386 25.0165 40.8244 24.9304C40.9103 24.8443 40.9585 24.7275 40.9585 24.6058C40.9585 24.484 40.9103 24.3672 40.8244 24.2811C40.7386 24.195 40.6221 24.1466 40.5007 24.1466H39.1494L39.1274 23.2284H40.1345C40.2559 23.2284 40.3724 23.18 40.4582 23.0939C40.5441 23.0078 40.5923 22.891 40.5923 22.7692C40.5923 22.6475 40.5441 22.5307 40.4582 22.4446C40.3724 22.3585 40.2559 22.3101 40.1345 22.3101H39.1091L39.0908 21.3918H39.7683C39.8897 21.3918 40.0061 21.3435 40.092 21.2574C40.1778 21.1713 40.2261 21.0545 40.2261 20.9327C40.2261 20.8109 40.1778 20.6941 40.092 20.608C40.0061 20.5219 39.8897 20.4736 39.7683 20.4736H39.0725L39.0505 19.5553H39.4167C39.5381 19.5553 39.6546 19.5069 39.7404 19.4208C39.8263 19.3347 39.8745 19.2179 39.8745 19.0962C39.8745 18.9744 39.8263 18.8576 39.7404 18.7715C39.6546 18.6854 39.5381 18.637 39.4167 18.637H38.8674V8.12477C38.8668 7.97827 38.8225 7.83529 38.7403 7.71421C38.6581 7.59312 38.5416 7.49946 38.4059 7.44525V0.466456C38.4059 0.344686 38.3577 0.227904 38.2718 0.1418C38.186 0.0556965 38.0696 0.00732422 37.9481 0.00732422C37.8267 0.00732422 37.7103 0.0556965 37.6244 0.1418C37.5386 0.227904 37.4904 0.344686 37.4904 0.466456V7.44525C37.3553 7.50003 37.2397 7.59394 37.1581 7.71498C37.0766 7.83602 37.0329 7.97869 37.0326 8.12477V18.6407H36.4832C36.3618 18.6407 36.2454 18.6891 36.1595 18.7752C36.0737 18.8613 36.0255 18.9781 36.0255 19.0998C36.0255 19.2216 36.0737 19.3384 36.1595 19.4245C36.2454 19.5106 36.3618 19.559 36.4832 19.559H36.8495L36.8312 20.4772H36.1353C36.0139 20.4772 35.8975 20.5256 35.8116 20.6117C35.7258 20.6978 35.6776 20.8146 35.6776 20.9364C35.6776 21.0581 35.7258 21.1749 35.8116 21.261C35.8975 21.3471 36.0139 21.3955 36.1353 21.3955H36.8128L36.7909 22.3138H35.7691C35.6477 22.3138 35.5313 22.3621 35.4454 22.4482C35.3596 22.5343 35.3113 22.6511 35.3113 22.7729C35.3113 22.8947 35.3596 23.0115 35.4454 23.0976C35.5313 23.1837 35.6477 23.232 35.7691 23.232H36.7469V24.1503H35.3956C35.2741 24.1503 35.1577 24.1987 35.0719 24.2848C34.986 24.3709 34.9378 24.4877 34.9378 24.6094C34.9378 24.7312 34.986 24.848 35.0719 24.9341C35.1577 25.0202 35.2741 25.0686 35.3956 25.0686H36.7286L36.692 26.7214H35.0293C34.9079 26.7214 34.7915 26.7698 34.7056 26.8559C34.6198 26.942 34.5716 27.0588 34.5716 27.1806C34.5716 27.3023 34.6198 27.4191 34.7056 27.5052C34.7915 27.5913 34.9079 27.6397 35.0293 27.6397H36.6737L36.6297 29.6599H35.4871C35.3657 29.6599 35.2493 29.7082 35.1634 29.7944C35.0776 29.8805 35.0293 29.9972 35.0293 30.119C35.0293 30.2408 35.0776 30.3576 35.1634 30.4437C35.2493 30.5298 35.3657 30.5781 35.4871 30.5781H36.6114L36.5821 32.0106L36.2159 32.0363L35.4835 32.0878L35.1172 32.1135L34.4177 32.1686L33.7805 32.2237L33.2495 32.2677L33.0371 32.2861C32.9875 32.2906 32.9393 32.3051 32.8956 32.3289C32.8518 32.3527 32.8133 32.3851 32.7824 32.4243C32.7516 32.4635 32.729 32.5086 32.7161 32.5568C32.7033 32.6051 32.7003 32.6554 32.7075 32.7048L32.9528 34.4422C32.9718 34.5777 33.0281 34.7052 33.1155 34.8104C33.2029 34.9155 33.3177 34.9941 33.4472 35.0372L36.3148 35.9959H36.5016L36.4539 38.2805L36.7689 38.2548L36.172 38.3026L35.8643 38.3283C35.4542 38.3613 35.044 38.3981 34.6778 38.4348L34.1687 38.4862L33.7622 38.5266C33.7133 38.5316 33.6659 38.5464 33.6228 38.5701C33.5797 38.5939 33.5418 38.6261 33.5114 38.6648C33.481 38.7035 33.4587 38.748 33.4458 38.7956C33.4328 38.8431 33.4296 38.8928 33.4363 38.9417L33.6816 40.6643C33.7016 40.8047 33.7617 40.9363 33.8547 41.0432C33.9476 41.1501 34.0694 41.2277 34.2053 41.2667L36.3148 41.8728H36.377L36.2745 46.6184L29.5946 39.8306V32.7893C29.5951 32.7651 29.5907 32.741 29.5816 32.7184C29.5726 32.6959 29.5591 32.6755 29.542 32.6583C29.5249 32.6412 29.5046 32.6277 29.4821 32.6186C29.4597 32.6096 29.4356 32.6052 29.4114 32.6057C29.3825 32.6048 29.3538 32.6114 29.3281 32.6249C29.3025 32.6385 29.2807 32.6584 29.265 32.6828L28.8621 33.2448L28.4629 32.6828C28.4472 32.6584 28.4254 32.6385 28.3998 32.6249C28.3741 32.6114 28.3454 32.6048 28.3164 32.6057C28.2921 32.6052 28.2679 32.6096 28.2452 32.6186C28.2226 32.6276 28.202 32.641 28.1846 32.6581C28.1672 32.6752 28.1534 32.6956 28.1439 32.7182C28.1345 32.7407 28.1297 32.7649 28.1297 32.7893V39.9481L12.0158 57.902C11.9839 57.8904 11.9507 57.883 11.9169 57.8799H10.9025V41.9646C10.9025 41.7698 10.8253 41.5829 10.6879 41.4451C10.5506 41.3074 10.3643 41.23 10.17 41.23V35.1695C10.1713 34.989 10.1063 34.8143 9.98744 34.6788C9.86856 34.5433 9.7041 34.4565 9.52545 34.4348V30.3945C9.7041 30.3728 9.86856 30.286 9.98744 30.1505C10.1063 30.015 10.1713 29.8404 10.17 29.6599V28.558C10.1696 28.4237 10.1325 28.2921 10.0628 28.1775C9.99308 28.0629 9.89336 27.9696 9.77448 27.9078C9.72036 27.0273 9.57054 26.1553 9.32769 25.3073C9.24712 25.0392 9.15557 24.7747 9.05302 24.5213C8.98344 24.3523 8.9102 24.1907 8.82963 24.0328C8.74906 23.8748 8.66116 23.7242 8.56594 23.5773C8.38857 23.2974 8.17421 23.0429 7.92871 22.8207C7.75904 22.664 7.56939 22.5306 7.36473 22.424C7.26874 22.4706 7.16375 22.4957 7.0571 22.4974H5.22598C5.11091 22.4964 4.9978 22.4675 4.89637 22.4129C3.19709 23.2724 2.62212 25.8913 2.50126 27.9225C2.38431 27.985 2.28644 28.0781 2.21807 28.1919C2.14971 28.3058 2.11342 28.4361 2.11307 28.569V29.6709C2.11166 29.8508 2.17614 30.025 2.29427 30.1604C2.4124 30.2958 2.57597 30.383 2.75396 30.4055V34.4642C2.57597 34.4867 2.4124 34.5739 2.29427 34.7093C2.17614 34.8447 2.11166 35.0189 2.11307 35.1988V41.2594C1.91881 41.2594 1.73251 41.3368 1.59515 41.4745C1.45779 41.6123 1.38062 41.7992 1.38062 41.994V57.9093H0.366175C0.311463 57.9091 0.257404 57.9212 0.207972 57.9448C0.158539 57.9683 0.114988 58.0026 0.0805192 58.0452C0.046102 58.0879 0.0216579 58.1377 0.0089826 58.1911C-0.00369267 58.2445 -0.00427641 58.3001 0.00727472 58.3538L0.58591 61.1085C0.597616 61.1564 0.618788 61.2013 0.648168 61.2408V70.3977C0.551039 70.3977 0.457888 70.4364 0.389208 70.5053C0.320527 70.5742 0.281943 70.6676 0.281943 70.765V77.9275C0.281943 78.2197 0.397696 78.5 0.603737 78.7066C0.809779 78.9133 1.08923 79.0294 1.38062 79.0294H39.5632C39.7575 79.0294 39.9438 78.952 40.0811 78.8142C40.2185 78.6764 40.2956 78.4896 40.2956 78.2948L39.966 62.9047L40.6326 62.8863C44.5219 62.8128 48.4112 62.7761 52.3005 62.7761C58.6655 62.7761 65.0268 62.8777 71.3845 63.081L73.5415 66.912V77.9311C73.5421 78.1513 73.6084 78.3662 73.732 78.5482C73.7698 78.6068 73.814 78.661 73.8638 78.7098C74.0696 78.9165 74.3489 79.0328 74.6402 79.033H76.8375C77.1289 79.033 77.4084 78.9169 77.6144 78.7103C77.8205 78.5036 77.9362 78.2234 77.9362 77.9311V66.912L79.5256 64.0947L79.9102 63.4079C81.9354 63.4997 83.9606 63.6062 85.9822 63.7164C86.0442 63.9507 86.1815 64.1579 86.3729 64.306C86.5642 64.4541 86.7989 64.5347 87.0406 64.5355V66.372C86.7492 66.372 86.4697 66.4881 86.2637 66.6948C86.0576 66.9014 85.9419 67.1817 85.9419 67.4739V75.371H84.8432C84.5518 75.371 84.2724 75.4871 84.0663 75.6937C83.8603 75.9004 83.7445 76.1807 83.7445 76.4729V77.9421C83.7445 78.2344 83.8603 78.5147 84.0663 78.7213C84.2724 78.928 84.5518 79.0441 84.8432 79.0441H120.733C121.025 79.0441 121.304 78.928 121.51 78.7213C121.716 78.5147 121.832 78.2344 121.832 77.9421V76.4729C121.833 76.1959 121.73 75.9287 121.543 75.7245C121.356 75.5203 121.1 75.3941 120.825 75.371V72.6603V72.6236ZM37.7284 19.6508H38.1349L38.1532 20.4772H37.7138L37.7284 19.6508ZM37.6954 21.3955H38.1715L38.1899 22.3138H37.6735L37.6954 21.3955ZM37.6552 23.232H38.2118V24.1503H37.6222L37.6552 23.232ZM37.6185 25.0686H38.2485L38.2814 26.7214H37.5819L37.6185 25.0686ZM37.5636 27.6397H38.2961L38.34 29.6599H37.516L37.5636 27.6397ZM37.5014 30.5781H38.362L38.3913 31.9629H37.9335H37.472L37.5014 30.5781ZM36.4906 35.0776H36.432L33.8171 34.1998L33.667 33.1493C34.8682 33.0464 37.0509 32.8738 37.9372 32.8738C38.8234 32.8738 41.0025 33.0464 42.2037 33.1493L42.0535 34.1998L41.9473 34.2365L39.435 35.0776H36.5052H36.4906ZM38.5231 38.2181C38.2961 38.2181 38.091 38.1997 37.9335 38.1997C37.776 38.1997 37.5673 38.1997 37.3402 38.2181L37.3878 35.9959H38.4865L38.5231 38.2181ZM36.2196 47.8305V48.0839L34.9524 46.5229L36.2196 47.8305ZM36.1829 49.4797V50.2143L33.7988 46.5118L36.1829 49.4797ZM36.1317 51.8671L36.0914 53.7367L32.7954 46.6845L36.1317 51.8671ZM36.0474 55.8891L35.9595 60.014L31.6747 46.6845L36.0474 55.8891ZM12.9423 60.4951C12.976 60.4663 13.0189 60.4506 13.0632 60.4511H19.0143L15.8392 63.0222H10.0528L12.9423 60.4951ZM9.90633 61.9423V61.3693H10.5582L9.90633 61.9423ZM20.1606 60.7118L23.0098 63.0222H17.2967L20.1606 60.7118ZM16.1541 63.9552H16.1761H19.4721L14.9785 66.7908L16.1541 63.9552ZM20.0691 64.6567L23.5592 66.8605H16.5643L20.0691 64.6567ZM20.633 63.9405H24.1232H24.1451L25.3464 66.8789H25.2585L20.633 63.9405ZM21.2739 60.4511H27.551L30.3453 63.0222H24.4564L21.2739 60.4511ZM29.7484 61.2334L32.6379 63.0222H31.6857L29.7484 61.2334ZM33.4509 62.1113L33.341 61.5273L35.9376 61.4575V62.0452C35.0879 62.0672 34.2639 62.0856 33.4509 62.1113ZM35.9046 62.9561L35.8717 64.5098L35.1099 63.5401C35.0708 63.4892 35.0267 63.4424 34.9781 63.4005C34.9305 63.3594 34.8803 63.3214 34.8279 63.2867L34.3591 62.9965H34.8096L35.9046 62.9561ZM35.1722 60.5502L33.1616 60.6127L32.7185 58.2215L30.5651 46.8351L35.1722 60.5502ZM28.8658 45.8029L31.2169 58.2215L31.6784 60.6641L30.6456 60.7045L29.0233 59.6981C28.9213 59.6355 28.81 59.5896 28.6936 59.5622V58.7982C28.6961 58.7143 28.6698 58.6321 28.6192 58.5652C28.5685 58.4984 28.4966 58.451 28.4153 58.4309V57.542L29.1111 57.3106C29.1844 57.2865 29.2482 57.2397 29.2934 57.1771C29.3387 57.1144 29.363 57.039 29.363 56.9617C29.363 56.8843 29.3387 56.8089 29.2934 56.7463C29.2482 56.6836 29.1844 56.6369 29.1111 56.6127L28.4153 56.3813V56.2271C28.4153 56.1053 28.3671 55.9885 28.2812 55.9024C28.1954 55.8163 28.0789 55.7679 27.9575 55.7679C27.8361 55.7679 27.7197 55.8163 27.6338 55.9024C27.548 55.9885 27.4998 56.1053 27.4998 56.2271V58.4309C27.4185 58.451 27.3466 58.4984 27.2959 58.5652C27.2453 58.6321 27.219 58.7143 27.2214 58.7982V59.5328H26.2656L28.8658 45.8029ZM24.775 59.5328H23.0575L27.1262 47.0995L24.775 59.5328ZM22.0796 59.5328H20.124L26.0129 47.0995L22.0796 59.5328ZM19.1095 59.5328H17.3627L24.9215 47.1656L19.1095 59.5328ZM16.2896 59.5328H14.5134L23.713 47.386L16.2896 59.5328ZM12.0927 59.1655L22.6473 47.375L13.3781 59.5328H13.0522C12.7831 59.5304 12.5225 59.6271 12.3197 59.8046L11.8693 60.2013L12.0927 59.1655ZM11.2357 58.7982L10.8915 60.4511H8.06422V58.7982H11.2357ZM8.97978 61.3693V62.7504L8.33522 63.3124C8.2795 63.3658 8.22807 63.4235 8.18141 63.485L8.07154 63.6393V61.3693H8.97978ZM4.03575 24.8629C4.76819 23.0484 5.80095 23.0484 6.14154 23.0484C7.89942 23.0484 8.67947 25.6416 8.8516 27.8233H3.42049C3.4759 26.8111 3.68332 25.813 4.03575 24.8629ZM3.02863 28.7416H9.25445V29.4762H3.02863V28.7416ZM7.69799 30.3945H8.61355V34.4348H7.69799V30.3945ZM5.50064 30.3945H6.78243V34.4348H5.50064V30.3945ZM3.66952 30.3945H4.58508V34.4348H3.66952V30.3945ZM3.02863 35.3531H9.25445V41.23H3.02863V35.3531ZM2.29618 42.1483H9.9869V57.8799H7.60644V55.7385C7.60644 55.4463 7.49068 55.166 7.28464 54.9594C7.0786 54.7527 6.79915 54.6366 6.50776 54.6366H5.77531C5.48393 54.6366 5.20447 54.7527 4.99843 54.9594C4.79239 55.166 4.67664 55.4463 4.67664 55.7385V57.8799H2.29618V42.1483ZM7.14865 58.7982V60.4511H5.13442V58.7982H7.14865ZM5.5922 57.8799V55.7385C5.5922 55.6898 5.61149 55.6431 5.64583 55.6087C5.68017 55.5742 5.72675 55.5549 5.77531 55.5549H6.50776C6.55633 55.5549 6.6029 55.5742 6.63724 55.6087C6.67158 55.6431 6.69087 55.6898 6.69087 55.7385V57.8799H5.5922ZM4.21886 58.7982V60.4511H1.38794L1.04369 58.7982H4.21886ZM4.21886 61.3693V70.3683H3.3033V61.3693H4.21886ZM2.38773 61.3693V70.3683H1.56373V61.3693H2.38773ZM5.68376 78.0817H1.38062C1.33205 78.0817 1.28548 78.0624 1.25114 78.0279C1.2168 77.9935 1.1975 77.9468 1.1975 77.8981V71.2866H5.68376V78.0817ZM5.68376 67.2425V70.3646H5.13442V61.3657H7.14865V64.8808L5.89617 66.5851C5.7569 66.7757 5.68243 67.0062 5.68376 67.2425ZM13.5576 78.0817H6.59932V67.7972H13.5576V78.0817ZM13.9531 66.8789H6.81905L8.91386 64.0323L8.94316 64.0029L9.01274 63.9405H15.1653L13.9531 66.8789ZM21.4314 78.0817H18.8678V75.2388H21.4314V78.0817ZM21.4314 74.3242H18.8678V71.6539C18.8678 71.3129 19.0029 70.9859 19.2433 70.7448C19.4836 70.5037 19.8097 70.3683 20.1496 70.3683C20.4896 70.3683 20.8156 70.5037 21.056 70.7448C21.2964 70.9859 21.4314 71.3129 21.4314 71.6539V74.3242ZM25.8261 78.0817H22.347V71.6539C22.347 71.0694 22.1155 70.5088 21.7034 70.0955C21.2913 69.6822 20.7324 69.45 20.1496 69.45C19.5669 69.45 19.008 69.6822 18.5959 70.0955C18.1838 70.5088 17.9523 71.0694 17.9523 71.6539V78.0817H14.4731V67.7972H25.8261V78.0817ZM26.3425 66.8789L25.1339 63.9405H31.3598L31.6088 64.1682L33.5974 66.8789H26.3425ZM33.6999 78.0817H26.7417V67.7972H33.6999V78.0817ZM32.5646 63.9405H34.1284L34.3335 64.069C34.3517 64.0795 34.3678 64.0932 34.3811 64.1094L36.5602 66.8789H34.729L32.5646 63.9405ZM36.8128 77.8981C36.8128 77.9468 36.7936 77.9935 36.7592 78.0279C36.7249 78.0624 36.6783 78.0817 36.6297 78.0817H34.6155V67.7972H36.8128V77.8981ZM37.7101 78.0817C37.72 78.0209 37.7261 77.9596 37.7284 77.8981V67.7972V67.2609C37.7221 67.0223 37.64 66.7919 37.494 66.6034L36.7616 65.6668L37.2706 41.8985H38.611L39.3837 78.1074L37.7101 78.0817ZM36.4137 40.9545L34.5496 40.4182L34.4031 39.3824C35.4358 39.2796 37.212 39.118 37.9408 39.118C38.4828 39.118 39.7719 39.2135 41.4749 39.3824L41.3284 40.4182L39.4607 40.9545H36.4137ZM75.7389 45.8029L78.1559 58.5631L78.5918 60.8808C76.7069 60.8 74.8196 60.7278 72.9299 60.6641L75.7389 45.8029ZM71.4467 60.6127L69.8756 60.5613H69.8097L74.2044 46.5265L71.4467 60.6127ZM68.8575 60.5355L66.3818 60.4731L73.2375 46.3723L68.8575 60.5355ZM65.3784 60.4474L62.9833 60.4033L72.1022 46.3649L65.3784 60.4474ZM61.9066 60.385L59.5993 60.3519L70.8498 46.5302L61.9066 60.385ZM70.0111 46.2804L58.4274 60.3372H59.1379L56.2081 60.3078L70.0111 46.2804ZM39.7243 51.4227L48.3892 60.3225H46.4446H46.1772L39.7426 52.4108L39.7243 51.4227ZM39.7756 53.902L45.009 60.3519L42.7017 60.385L39.8196 55.9002L39.7756 53.902ZM39.8562 57.6522L41.6214 60.3996L39.9148 60.4327L39.8562 57.6522ZM77.0316 77.8981C77.0316 77.9468 77.0123 77.9935 76.978 78.0279C76.9437 78.0624 76.8971 78.0817 76.8485 78.0817H74.6512C74.6026 78.0817 74.556 78.0624 74.5217 78.0279C74.4874 77.9935 74.4681 77.9468 74.4681 77.8981V66.339H77.0316V77.8981ZM78.2805 63.294L77.8556 64.0507L77.0829 65.4207H74.4205L73.1021 63.1177C74.8111 63.1765 76.5336 63.2414 78.2695 63.3124L78.2805 63.294ZM78.7859 62.3978C69.9525 62.0305 61.1009 61.8138 52.3115 61.8138C48.2049 61.8138 44.0873 61.8578 39.9587 61.946V61.3583C44.0849 61.2726 48.2061 61.2285 52.3225 61.2261C61.1119 61.2261 69.9598 61.4244 78.7895 61.8101L78.8737 62.2582L78.7859 62.3978ZM79.6575 58.5631L77.3795 46.5229L82.0489 61.0351C81.4044 61.002 80.7561 60.9763 80.1079 60.9469L79.6575 58.5631ZM78.4453 46.6845L85.2717 61.2077C84.5209 61.1673 83.7702 61.1232 83.0157 61.0865L78.4453 46.6845ZM85.9419 62.7504C84.0924 62.6512 82.2393 62.552 80.3826 62.4676L80.2727 61.8762C82.1624 61.9607 84.0522 62.0599 85.9419 62.1627V62.7504ZM85.9419 60.4805L79.5037 46.8351L85.9419 57.3914V60.4805ZM85.9419 55.6394L80.5694 46.824L85.9419 53.9791V55.6394ZM85.9419 52.5907L81.5472 46.824L85.9419 51.768V52.5907ZM115.694 66.3279L116.024 65.5933C116.054 65.5375 116.073 65.4758 116.079 65.4122C116.084 65.3487 116.077 65.2846 116.056 65.2242C116.036 65.1638 116.003 65.1082 115.96 65.0612C115.917 65.0142 115.865 64.9766 115.807 64.951C115.748 64.9254 115.685 64.9122 115.622 64.9124C115.558 64.9125 115.495 64.9259 115.437 64.9518C115.379 64.9777 115.327 65.0154 115.284 65.0626C115.241 65.1099 115.209 65.1655 115.189 65.226L114.691 66.3463H108.911L108.996 66.3206L107.992 62.9634L108.062 62.9855L108.197 63.0332C108.278 63.0626 108.362 63.0957 108.443 63.1324L108.582 63.2022L108.776 63.3087L108.93 63.4152L109.058 63.5144C109.113 63.5596 109.164 63.6087 109.212 63.6613L109.296 63.7458C109.344 63.8009 109.38 63.856 109.421 63.9111C109.461 63.9662 109.494 64.0176 109.523 64.0727C109.58 64.2023 109.674 64.3125 109.792 64.39C109.91 64.4676 110.048 64.5092 110.19 64.5098H117.254V66.3463H115.694V66.3279ZM115.972 67.2462V72.4289V75.3269H115.057V67.7531L115.284 67.2462H115.972ZM111.977 72.4289V75.3269H111.028V67.2462H114.141V67.5584L111.977 72.4289ZM114.141 69.8137V75.3233H112.892V72.6199L114.141 69.8137ZM110.113 67.2425V75.3233H109.197V67.2425H110.113ZM108.282 67.2425V75.3233H105.169V67.2425H108.282ZM105.403 66.3243L106.469 62.7724H106.689H106.762C106.839 62.7724 106.912 62.7724 106.985 62.7724L108.047 66.3243H105.403ZM116.888 72.6199L118.353 69.3141V75.3086H116.888V72.6199ZM118.28 67.2425L116.888 70.3683V67.2425H118.28ZM95.189 39.0812C96.372 40.7011 98.2983 42.6037 100.818 42.6037C101.659 42.5965 102.486 42.3927 103.235 42.0087C105.912 46.2621 108.651 46.7322 109.728 46.7322C110.614 46.7218 111.481 46.4677 112.233 45.9976C113.083 47.3934 114.822 49.6413 117.177 49.6413C117.576 49.6407 117.973 49.5775 118.353 49.4539V63.3748C118.353 63.4235 118.333 63.4702 118.299 63.5047C118.265 63.5391 118.218 63.5585 118.17 63.5585H110.303C109.735 62.5043 108.344 61.8285 106.725 61.8285C105.106 61.8285 103.715 62.5043 103.147 63.5585H95.189V39.0812ZM94.6141 38.2364L94.669 38.3173H94.5482L94.6141 38.2364ZM94.7313 64.4877H103.264C103.405 64.4845 103.542 64.4418 103.66 64.3646C103.778 64.2873 103.871 64.1786 103.931 64.0507C103.961 63.9944 103.995 63.9404 104.033 63.889C104.07 63.8327 104.11 63.7776 104.154 63.7238L104.238 63.6356C104.287 63.5851 104.338 63.5372 104.392 63.4924L104.524 63.3932C104.573 63.3547 104.625 63.3192 104.678 63.2867C104.737 63.2499 104.802 63.2169 104.868 63.1801L105.011 63.1104C105.091 63.0729 105.173 63.0398 105.257 63.0112L105.388 62.9634L105.462 62.9414L104.455 66.2986L104.539 66.3243H87.9561V64.4877H94.7313ZM104.253 67.2425V75.3233H103.338V67.2425H104.253ZM102.422 67.2425V75.3233H99.3091V67.2425H102.422ZM98.3935 67.2425V75.3233H97.478V67.2425H98.3935ZM96.5624 67.2425V75.3233H95.0975V67.2425H96.5624ZM86.8574 63.3858V41.2373C87.4799 41.5153 88.1537 41.6592 88.8351 41.6597C90.6662 41.6597 92.4973 40.6423 94.2735 38.6368V63.5695H87.0406C86.9926 63.5695 86.9466 63.5507 86.9124 63.517C86.8781 63.4833 86.8584 63.4376 86.8574 63.3895V63.3858ZM86.8574 67.4262C86.8574 67.3775 86.8767 67.3308 86.9111 67.2963C86.9454 67.2619 86.992 67.2425 87.0406 67.2425H94.1819V75.3233H86.8574V67.4262ZM120.916 76.4252V77.8944C120.916 77.9431 120.897 77.9898 120.863 78.0243C120.828 78.0587 120.782 78.078 120.733 78.078H84.8432C84.7946 78.078 84.7481 78.0587 84.7137 78.0243C84.6794 77.9898 84.6601 77.9431 84.6601 77.8944V76.4252C84.6601 76.3765 84.6794 76.3298 84.7137 76.2953C84.7481 76.2609 84.7946 76.2415 84.8432 76.2415H120.733C120.758 76.2415 120.782 76.2464 120.804 76.2558C120.827 76.2653 120.847 76.2792 120.864 76.2966C120.881 76.314 120.894 76.3347 120.903 76.3574C120.912 76.3801 120.917 76.4044 120.916 76.4288V76.4252Z" fill="#26231E"/>
<path d="M99.3421 0.921948C98.4009 0.921465 97.4825 1.21267 96.7126 1.75573C96.1192 1.28519 95.4354 0.942627 94.7039 0.7495C93.9724 0.556374 93.209 0.516848 92.4615 0.633399C91.7141 0.74995 90.9987 1.02007 90.3602 1.42682C89.7217 1.83358 89.1738 2.36821 88.7509 2.99722C88.1167 2.75612 87.4283 2.69635 86.7623 2.82459C85.8675 2.9972 85.069 3.49815 84.5228 4.2296C83.9765 4.96105 83.7218 5.87046 83.8083 6.7802C83.8948 7.68994 84.3163 8.53467 84.9905 9.14939C85.6648 9.76412 86.5433 10.1047 87.4544 10.1046H99.3567C99.9695 10.1048 100.576 9.98174 101.14 9.74255C101.705 9.50337 102.216 9.15297 102.643 8.71213C103.07 8.27128 103.404 7.74897 103.626 7.17615C103.848 6.60332 103.953 5.99164 103.935 5.37736C103.89 4.1839 103.387 3.05385 102.532 2.22351C101.676 1.39316 100.533 0.926804 99.3421 0.921948ZM99.3421 9.18631H87.4398C87.0117 9.19026 86.5885 9.09377 86.2042 8.90454C85.8198 8.71531 85.4849 8.43859 85.2262 8.09646C84.9674 7.75433 84.792 7.35627 84.7139 6.93405C84.6358 6.51184 84.6573 6.07716 84.7765 5.66472C84.8956 5.25228 85.1093 4.8735 85.4004 4.55861C85.6916 4.24373 86.052 4.00146 86.4531 3.85114C86.8542 3.70083 87.2847 3.64663 87.7104 3.69288C88.136 3.73913 88.545 3.88454 88.9047 4.1175C88.9265 4.13221 88.9513 4.14202 88.9772 4.14627C89.0032 4.15052 89.0298 4.14911 89.0551 4.14214C89.0805 4.13517 89.1041 4.1228 89.1242 4.10587C89.1444 4.08894 89.1607 4.06786 89.172 4.04404C89.4931 3.38431 89.9676 2.81165 90.5556 2.37432C91.1435 1.93699 91.8276 1.64782 92.5503 1.53116C93.273 1.41449 94.013 1.47377 94.7081 1.70398C95.4032 1.9342 96.0329 2.32861 96.5441 2.85397C96.5612 2.87119 96.5814 2.88485 96.6037 2.89417C96.626 2.9035 96.65 2.9083 96.6742 2.9083C96.6983 2.9083 96.7223 2.9035 96.7446 2.89417C96.7669 2.88485 96.7871 2.87119 96.8042 2.85397C97.4826 2.20062 98.3869 1.83601 99.3275 1.83654C100.277 1.84701 101.186 2.22241 101.867 2.88532C102.549 3.54823 102.95 4.44811 102.99 5.3994C103.005 5.89032 102.922 6.37931 102.745 6.83744C102.569 7.29557 102.302 7.71354 101.962 8.06661C101.621 8.41969 101.214 8.7007 100.763 8.89302C100.313 9.08535 99.8282 9.18508 99.3384 9.18631H99.3421Z" fill="#26231E"/>
<path d="M69.9306 18.1449C69.8419 17.3482 69.4957 16.6024 68.9449 16.0215C68.3941 15.4405 67.6689 15.0563 66.8799 14.9273C66.6849 14.8967 66.4878 14.8807 66.2903 14.8796C65.9674 14.8796 65.6459 14.9228 65.3345 15.0081C64.822 14.2697 64.1044 13.6987 63.2709 13.3661C62.4374 13.0335 61.5248 12.9541 60.6467 13.1377C59.7685 13.3213 58.9636 13.7598 58.3319 14.3986C57.7003 15.0375 57.27 15.8485 57.0944 16.7308C57.0028 16.7308 56.9113 16.7308 56.8197 16.7308C56.6202 16.731 56.4212 16.7532 56.2264 16.7969C55.5667 16.9446 54.9844 17.331 54.591 17.8823C54.1976 18.4336 54.0207 19.111 54.0942 19.7849C54.1676 20.4589 54.4863 21.082 54.9891 21.535C55.492 21.988 56.1438 22.2392 56.8197 22.2404H66.2903C66.8056 22.2405 67.3151 22.1315 67.7855 21.9206C68.256 21.7097 68.6767 21.4016 69.0203 21.0164C69.3639 20.6313 69.6225 20.1777 69.7794 19.6855C69.9363 19.1932 69.9878 18.6732 69.9306 18.1596V18.1449ZM66.2903 21.3074H56.8197C56.3688 21.3075 55.9336 21.1407 55.5977 20.839C55.2618 20.5373 55.0487 20.1218 54.9992 19.6723C54.9498 19.2227 55.0675 18.7707 55.3297 18.4028C55.592 18.0349 55.9804 17.7769 56.4205 17.6785C56.8526 17.5801 57.3058 17.6469 57.6913 17.8658C57.7939 17.9319 57.9221 17.8107 57.9184 17.6785V17.6344C57.9201 16.8086 58.1992 16.0075 58.7106 15.3603C59.2221 14.7132 59.936 14.2578 60.7372 14.0676C61.5384 13.8774 62.3802 13.9636 63.1266 14.3122C63.873 14.6608 64.4805 15.2514 64.851 15.9889C64.8616 16.0111 64.8764 16.0309 64.8948 16.0473C64.9131 16.0636 64.9345 16.0761 64.9577 16.0839C64.981 16.0918 65.0055 16.0949 65.03 16.0931C65.0544 16.0913 65.0783 16.0846 65.1001 16.0733C65.608 15.8258 66.1799 15.7423 66.7371 15.8346C67.4175 15.9472 68.0308 16.3123 68.4552 16.8575C68.8795 17.4027 69.0839 18.0881 69.0276 18.7774C68.9713 19.4668 68.6585 20.1097 68.1514 20.5784C67.6443 21.0471 66.9799 21.3074 66.2903 21.3074Z" fill="#26231E"/>
</g>
<defs>
<clipPath id="clip0_87_42610">
<rect width="124" height="79" fill="white"/>
</clipPath>
</defs>
</svg>
