<svg preserveAspectRatio="xMidYMax meet" width="124" height="74" viewBox="0 0 124 74" fill="none" xmlns="http://www.w3.org/2000/svg">
<path d="M43.7246 0H43.1455V3.73303H43.7246V0Z" fill="#1C1C1A"/>
<path d="M124 73.9999H123.421V56.6841H122.707V55.9483H118.441V56.6841H117.725V62.822H116.092V48.9524H110.398V74H109.819V48.3647H116.671V62.2343H117.146V56.0964H117.861V55.3606H123.286V56.0964H124V73.9999Z" fill="#1C1C1A"/>
<path d="M65.0217 62.1661H59.6777V50.7014H65.0217V62.1661ZM60.2568 61.5784H64.4426V51.2891H60.2568V61.5784Z" fill="#1C1C1A"/>
<path d="M61.1463 57.6458H60.7363V58.2993H61.1463V57.6458Z" fill="#1C1C1A"/>
<path d="M62.9903 61.2658H61.7024V57.7396H62.9833L62.9903 61.2658ZM62.2954 60.6781H62.4182V58.3273H62.2954V60.6781Z" fill="#1C1C1A"/>
<path d="M63.9932 57.6173H63.5554V58.2708H63.9932V57.6173Z" fill="#1C1C1A"/>
<path d="M49.2724 59.7778L49.0408 59.2418C50.5516 58.5431 51.9558 57.6279 53.2103 56.5243C54.3696 55.5169 55.4407 54.4095 56.4116 53.2144C57.1441 52.319 57.8277 51.3836 58.4593 50.4123C58.647 50.1231 58.8277 49.834 58.9944 49.5543C59.0361 49.4837 59.1496 49.2957 59.1659 49.2581C59.1536 49.2862 59.1473 49.3166 59.1473 49.3474H59.7264C59.7264 49.4602 59.7056 49.4978 59.4948 49.8599C59.3234 50.1443 59.1404 50.4405 58.9481 50.7367C58.3038 51.7227 57.6079 52.673 56.8633 53.5835C55.8727 54.8024 54.779 55.9311 53.5949 56.9568C52.2958 58.104 50.8399 59.0541 49.2724 59.7778Z" fill="#1C1C1A"/>
<path d="M49.2632 57.5633L49.0593 57.0132C50.4795 56.4586 51.8313 55.7384 53.0876 54.867C54.22 54.0867 55.2938 53.2224 56.3004 52.2811C57.3361 51.3367 58.3008 50.3152 59.1867 49.2251L59.6499 49.5824C58.7435 50.7043 57.7547 51.755 56.6919 52.7254C55.6632 53.6822 54.5669 54.5614 53.4119 55.3559C52.1179 56.2524 50.7257 56.9932 49.2632 57.5633Z" fill="#1C1C1A"/>
<path d="M67.1459 63.9058H57.3011V63.0689H48.8647V61.5668H67.1459V63.9058ZM57.8687 63.3181H66.5668V62.1639H49.4438V62.4906H57.8687V63.3181Z" fill="#1C1C1A"/>
<path d="M67.4157 74H66.8937V65.2191H57.4104V74H56.8884V63.4286H67.4157V74Z" fill="#1C1C1A"/>
<path d="M67.3589 63.9408L66.4092 61.7993L78.077 56.4607L78.6815 57.8241L67.3589 63.9408ZM67.1736 62.0931L67.6369 63.1275L77.9357 57.5656L77.792 57.2388L67.1736 62.0931Z" fill="#1C1C1A"/>
<path d="M90.361 63.941L79.0383 57.829L79.6429 56.4656L91.313 61.8042L90.361 63.941ZM79.7888 57.5657L90.0876 63.1277L90.5509 62.0933L79.9348 57.239L79.7888 57.5657Z" fill="#1C1C1A"/>
<path d="M64.3244 56.5856H60.375V57.1733H64.3244V56.5856Z" fill="#1C1C1A"/>
<path d="M57.0047 52.4222H56.4255V61.8724H57.0047V52.4222Z" fill="#1C1C1A"/>
<path d="M54.7669 54.2205H54.1877V61.8722H54.7669V54.2205Z" fill="#1C1C1A"/>
<path d="M52.5293 55.65H51.9502V61.8725H52.5293V55.65Z" fill="#1C1C1A"/>
<path d="M50.2939 56.8792H49.7148V61.8722H50.2939V56.8792Z" fill="#1C1C1A"/>
<path d="M61.2298 46.8556H60.6506V48.8608H61.2298V46.8556Z" fill="#1C1C1A"/>
<path d="M62.6821 46.8556H62.103V48.8608H62.6821V46.8556Z" fill="#1C1C1A"/>
<path d="M64.1368 46.8556H63.5576V48.8608H64.1368V46.8556Z" fill="#1C1C1A"/>
<path d="M64.3244 53.0994H60.375V53.6871H64.3244V53.0994Z" fill="#1C1C1A"/>
<path d="M64.3244 52.1119H60.375V52.6996H64.3244V52.1119Z" fill="#1C1C1A"/>
<path d="M66.0224 44.3356H58.6377V44.9233H66.0224V44.3356Z" fill="#1C1C1A"/>
<path d="M60.6206 38.6163H60.0415V41.0447H60.6206V38.6163Z" fill="#1C1C1A"/>
<path d="M62.6404 34.5846H62.0613V37.0129H62.6404V34.5846Z" fill="#1C1C1A"/>
<path d="M64.614 38.6163H64.0349V41.0447H64.614V38.6163Z" fill="#1C1C1A"/>
<path d="M98.1395 62.1661H92.7979V50.7014H98.1395V62.1661ZM93.377 61.5784H97.5604V51.2891H93.377V61.5784Z" fill="#1C1C1A"/>
<path d="M97.0855 57.6458H96.6755V58.2993H97.0855V57.6458Z" fill="#1C1C1A"/>
<path d="M96.1102 61.2658H94.8269V57.7396H96.1079L96.1102 61.2658ZM95.4153 60.6781H95.5218V58.3273H95.3991L95.4153 60.6781Z" fill="#1C1C1A"/>
<path d="M94.2642 57.6173H93.8264V58.2708H94.2642V57.6173Z" fill="#1C1C1A"/>
<path d="M109.99 60.4595C108.547 59.8154 105.666 58.2004 104.232 56.9639C103.046 55.936 101.952 54.8049 100.961 53.5835C100.216 52.673 99.5205 51.7227 98.8762 50.7367C98.626 50.3512 98.4407 50.0479 98.3295 49.8599C98.1141 49.4978 98.0979 49.4602 98.0979 49.3474H98.677C98.677 49.3166 98.6707 49.2862 98.6585 49.2581C98.6747 49.2957 98.7882 49.4931 98.8299 49.5566C98.9388 49.7376 99.1194 50.0268 99.365 50.4123C99.9953 51.3811 100.677 52.3141 101.408 53.2074C102.379 54.4018 103.449 55.5092 104.607 56.5172C105.951 57.6715 108.777 59.2794 110.227 59.9235L109.99 60.4595Z" fill="#1C1C1A"/>
<path d="M110.004 58.2168C108.568 57.669 105.749 56.2703 104.408 55.3559C103.252 54.5615 102.156 53.6823 101.128 52.7254C100.069 51.7553 99.0827 50.7071 98.1765 49.5894L98.6398 49.2274C99.5274 50.316 100.492 51.3373 101.526 52.2834C102.533 53.2237 103.607 54.088 104.739 54.8693C106.05 55.7649 108.809 57.1331 110.217 57.669L110.004 58.2168Z" fill="#1C1C1A"/>
<path d="M100.53 63.9058H90.6736V61.5762H110.396V63.0689H100.53V63.9058ZM91.2643 63.3181H99.9624V62.4906H109.828V62.1639H91.2527L91.2643 63.3181Z" fill="#1C1C1A"/>
<path d="M90.3736 74H89.7864V63.4286H101.63V74H101.042V65.334H90.3736V74Z" fill="#1C1C1A"/>
<path d="M98.5936 50.8755H92.3393V48.9032H65.4689V50.8755H59.2146V44.2228H59.1104V43.4565H59.2771L60.3242 39.1639L60.8453 41.329L62.3487 35.1653L63.8358 41.3243L64.3617 39.1639L65.4087 43.4565H65.5755V44.2228H65.4735V46.4231H70.4886V46.2351H72.6521V46.4231H77.4286V46.1011H77.9173C77.9827 45.8882 78.1131 45.702 78.2896 45.5693C78.4662 45.4366 78.6798 45.3643 78.8995 45.3629C79.1196 45.3638 79.3337 45.4358 79.5107 45.5686C79.6877 45.7013 79.8185 45.8878 79.884 46.1011H80.3797V46.4231H85.1561V46.2351H87.322V46.4231H92.337V44.2228H92.2328V43.4565H92.3995L93.4373 39.1639L93.9631 41.3243L95.4503 35.1653L96.9513 41.329L97.4748 39.1639L98.5334 43.4565H98.7002V44.2228H98.5983L98.5936 50.8755ZM92.9254 50.2878H98.0215V43.7926L97.4933 41.6276L96.9629 43.7926L95.4618 37.6265L93.9747 43.7926L93.4489 41.6346L92.9254 43.7973V47.0202H86.7521V46.8322H85.7445V47.0202H79.8098V46.6982H79.3651V46.409C79.3597 46.288 79.3085 46.1738 79.2222 46.0902C79.1359 46.0065 79.0211 45.9599 78.9018 45.96C78.7845 45.9635 78.6728 46.012 78.5894 46.0958C78.506 46.1796 78.4571 46.2924 78.4524 46.4114V46.6982H78.0053V47.0202H72.073V46.8322H71.0677V47.0202H64.8944V43.7926L64.3709 41.6299L63.8451 43.7926L62.358 37.6312L60.8546 43.7926L60.3334 41.6276L59.8053 43.7926V50.2925H64.9014V48.3202H92.93L92.9254 50.2878Z" fill="#1C1C1A"/>
<path d="M97.4446 56.5856H93.4951V57.1733H97.4446V56.5856Z" fill="#1C1C1A"/>
<path d="M101.394 52.4222H100.815V61.8724H101.394V52.4222Z" fill="#1C1C1A"/>
<path d="M103.632 54.2205H103.053V61.8722H103.632V54.2205Z" fill="#1C1C1A"/>
<path d="M105.869 55.65H105.29V61.8725H105.869V55.65Z" fill="#1C1C1A"/>
<path d="M108.105 56.8792H107.526V61.8722H108.105V56.8792Z" fill="#1C1C1A"/>
<path d="M97.1689 46.8556H96.5898V48.8608H97.1689V46.8556Z" fill="#1C1C1A"/>
<path d="M95.7141 46.8556H95.135V48.8608H95.7141V46.8556Z" fill="#1C1C1A"/>
<path d="M94.262 46.8556H93.6829V48.8608H94.262V46.8556Z" fill="#1C1C1A"/>
<path d="M97.4446 53.0994H93.4951V53.6871H97.4446V53.0994Z" fill="#1C1C1A"/>
<path d="M97.4446 52.1119H93.4951V52.6996H97.4446V52.1119Z" fill="#1C1C1A"/>
<path d="M99.1818 44.3356H91.7971V44.9233H99.1818V44.3356Z" fill="#1C1C1A"/>
<path d="M97.7781 38.6163H97.199V41.0447H97.7781V38.6163Z" fill="#1C1C1A"/>
<path d="M95.7605 34.5846H95.1814V37.0129H95.7605V34.5846Z" fill="#1C1C1A"/>
<path d="M93.7847 38.6163H93.2056V41.0447H93.7847V38.6163Z" fill="#1C1C1A"/>
<path d="M95.4247 67.3001C95.0055 67.2994 94.5942 67.184 94.2343 66.966C93.8743 66.7479 93.5789 66.4354 93.3793 66.0613C93.1797 66.4354 92.8843 66.7479 92.5244 66.966C92.1644 67.184 91.7531 67.2994 91.3339 67.3001C90.9149 67.2997 90.5038 67.1846 90.1439 66.967C89.7839 66.7494 89.4884 66.4373 89.2885 66.0636C89.0898 66.4383 88.7945 66.7512 88.4343 66.969C88.0741 67.1867 87.6624 67.3012 87.2431 67.3001C86.8241 67.2997 86.413 67.1846 86.0531 66.967C85.6931 66.7494 85.3976 66.4373 85.1977 66.0636C84.999 66.4383 84.7038 66.7512 84.3435 66.969C83.9833 67.1867 83.5716 67.3012 83.1523 67.3001C82.7333 67.2997 82.3222 67.1846 81.9623 66.967C81.6023 66.7494 81.3068 66.4373 81.1069 66.0636C80.9093 66.4362 80.6163 66.7477 80.2587 66.9653C79.9012 67.183 79.4924 67.2986 79.0754 67.3001C78.6562 67.2996 78.2448 67.1845 77.8845 66.9669C77.5241 66.7493 77.2282 66.4373 77.0277 66.0636C76.8282 66.4397 76.5316 66.7535 76.1696 66.9714C75.8076 67.1892 75.3939 67.3029 74.9731 67.3001C74.5538 67.2994 74.1426 67.184 73.7826 66.966C73.4226 66.7479 73.1273 66.4354 72.9277 66.0613C72.7281 66.4354 72.4327 66.7479 72.0727 66.966C71.7128 67.184 71.3015 67.2994 70.8823 67.3001C70.4631 67.2994 70.0518 67.184 69.6918 66.966C69.3318 66.7479 69.0365 66.4354 68.8369 66.0613C68.6378 66.4343 68.3436 66.7462 67.9849 66.9642C67.6263 67.1821 67.2165 67.2982 66.7984 67.3001C66.3794 67.2997 65.9683 67.1846 65.6084 66.967C65.2484 66.7494 64.9529 66.4373 64.753 66.0636C64.5537 66.4394 64.2574 66.7529 63.8959 66.9708C63.5343 67.1886 63.1211 67.3025 62.7007 67.3001V66.7124C63.1639 66.7118 63.6081 66.525 63.9358 66.1927C64.2636 65.8605 64.4484 65.4101 64.4496 64.94V64.6461H65.0287L65.0449 64.94C65.044 65.174 65.0887 65.406 65.1765 65.6224C65.2642 65.8389 65.3933 66.0356 65.5563 66.2012C65.7193 66.3668 65.9129 66.4981 66.1261 66.5874C66.3393 66.6768 66.5678 66.7225 66.7984 66.7218C67.2615 66.7212 67.7054 66.5343 68.0328 66.202C68.3602 65.8697 68.5444 65.4193 68.545 64.9494V64.6555H69.1148L69.1334 64.9494C69.134 65.4193 69.3182 65.8697 69.6456 66.202C69.973 66.5343 70.4169 66.7212 70.88 66.7218C71.343 66.7212 71.7869 66.5343 72.1143 66.202C72.4417 65.8697 72.6259 65.4193 72.6265 64.9494V64.6555H73.2056L73.2242 64.9494C73.2248 65.4193 73.409 65.8697 73.7364 66.202C74.0638 66.5343 74.5077 66.7212 74.9708 66.7218C75.4338 66.7212 75.8777 66.5343 76.2051 66.202C76.5325 65.8697 76.7167 65.4193 76.7173 64.9494V64.6555H77.2964L77.3126 64.9494C77.3133 65.1833 77.3594 65.4149 77.4484 65.6307C77.5374 65.8466 77.6675 66.0425 77.8313 66.2071C77.9951 66.3718 78.1893 66.5021 78.4028 66.5904C78.6163 66.6787 78.8449 66.7234 79.0754 66.7218C79.5385 66.7212 79.9824 66.5343 80.3098 66.202C80.6372 65.8697 80.8214 65.4193 80.822 64.9494V64.6555H81.3919L81.4081 64.9494C81.4087 65.4193 81.5929 65.8697 81.9203 66.202C82.2477 66.5343 82.6916 66.7212 83.1546 66.7218C83.6179 66.7212 84.062 66.5344 84.3898 66.2022C84.7176 65.87 84.9023 65.4195 84.9035 64.9494V64.6555H85.4826L85.4989 64.9494C85.4995 65.4193 85.6837 65.8697 86.0111 66.202C86.3385 66.5343 86.7824 66.7212 87.2454 66.7218C87.7087 66.7212 88.1528 66.5344 88.4806 66.2022C88.8084 65.87 88.9931 65.4195 88.9943 64.9494V64.6555H89.5734L89.5897 64.9494C89.5903 65.4193 89.7745 65.8697 90.1019 66.202C90.4293 66.5343 90.8732 66.7212 91.3362 66.7218C91.7993 66.7212 92.2432 66.5343 92.5706 66.202C92.898 65.8697 93.0822 65.4193 93.0828 64.9494V64.6555H93.6689V64.9494C93.6695 65.4193 93.8537 65.8697 94.1811 66.202C94.5085 66.5343 94.9524 66.7212 95.4154 66.7218L95.4247 67.3001Z" fill="#1C1C1A"/>
<path d="M49.8719 74H49.2614V35.3401H49.6985V35.0178H37.7604V35.3401H38.1975V74H37.587V36.0007H37.1499V34.3572H50.309V36.0007H49.8719V74Z" fill="#1C1C1A"/>
<path d="M49.8284 21.1313H37.0371L39.0547 16.559V15.6187H39.2539V12.1278H39.0547V11.1358H40.6229L43.4374 2.26868L46.3074 11.1358H47.82V12.1278H47.6162V15.6281H47.82V16.5684L49.8284 21.1313ZM37.9313 20.5436H48.9342L46.9444 16.0325H47.0325V11.7235H45.8742L43.4304 4.16811L41.0399 11.7235H39.833V16.0325H39.928L37.9313 20.5436Z" fill="#1C1C1A"/>
<path d="M49.9371 34.6247H36.8958V20.7551H49.9371V34.6247ZM37.4749 34.037H49.358V21.3428H37.4749V34.037Z" fill="#1C1C1A"/>
<path d="M43.4164 31.0138C42.545 31.0125 41.7097 30.6607 41.0935 30.0354C40.4773 29.4101 40.1306 28.5624 40.1294 27.678C40.1306 26.7937 40.4773 25.946 41.0935 25.3207C41.7097 24.6954 42.545 24.3435 43.4164 24.3423C44.2878 24.3435 45.1232 24.6954 45.7393 25.3207C46.3555 25.946 46.7022 26.7937 46.7034 27.678C46.7028 28.5625 46.3563 29.4106 45.74 30.0361C45.1237 30.6615 44.288 31.0132 43.4164 31.0138ZM43.4164 24.93C42.6986 24.9312 42.0105 25.2211 41.503 25.7362C40.9954 26.2513 40.7097 26.9496 40.7085 27.678C40.7091 28.4067 40.9946 29.1053 41.5023 29.6205C42.01 30.1357 42.6984 30.4255 43.4164 30.4261C44.1344 30.4255 44.8228 30.1357 45.3305 29.6205C45.8382 29.1053 46.1237 28.4067 46.1243 27.678C46.1237 26.9494 45.8382 26.2508 45.3305 25.7356C44.8228 25.2203 44.1344 24.9306 43.4164 24.93Z" fill="#1C1C1A"/>
<path d="M43.4167 28.4539C43.2143 28.4533 43.0205 28.3713 42.8776 28.2259C42.7348 28.0805 42.6545 27.8835 42.6545 27.6782C42.6552 27.4733 42.7356 27.2769 42.8784 27.132C43.0212 26.9871 43.2147 26.9054 43.4167 26.9048C43.5167 26.9048 43.6158 26.9248 43.7083 26.9637C43.8008 27.0025 43.8848 27.0595 43.9555 27.1313C44.0263 27.2031 44.0825 27.2884 44.1208 27.3822C44.1591 27.4761 44.1788 27.5766 44.1788 27.6782C44.1791 27.78 44.1596 27.8808 44.1214 27.9749C44.0833 28.069 44.0272 28.1545 43.9564 28.2266C43.8856 28.2987 43.8014 28.3558 43.7088 28.3948C43.6162 28.4339 43.5169 28.4539 43.4167 28.4539ZM43.4167 27.4925C43.3926 27.4925 43.3688 27.4973 43.3466 27.5066C43.3244 27.5159 43.3042 27.5296 43.2872 27.5469C43.2703 27.5641 43.2568 27.5846 43.2476 27.6071C43.2384 27.6297 43.2337 27.6538 43.2337 27.6782C43.2333 27.7028 43.2379 27.7272 43.2469 27.75C43.256 27.7728 43.2694 27.7935 43.2864 27.811C43.3035 27.8285 43.3237 27.8424 43.3461 27.8519C43.3684 27.8614 43.3924 27.8663 43.4167 27.8663C43.4409 27.8663 43.4649 27.8614 43.4872 27.8519C43.5096 27.8424 43.5299 27.8285 43.5469 27.811C43.5639 27.7935 43.5773 27.7728 43.5864 27.75C43.5954 27.7272 43.6 27.7028 43.5997 27.6782C43.5997 27.6538 43.5949 27.6297 43.5857 27.6071C43.5765 27.5846 43.563 27.5641 43.5461 27.5469C43.5291 27.5296 43.5089 27.5159 43.4867 27.5066C43.4645 27.4973 43.4407 27.4925 43.4167 27.4925Z" fill="#1C1C1A"/>
<path d="M43.4166 32.1633C42.2455 32.1608 41.1233 31.6873 40.2957 30.8466C39.4681 30.0058 39.0027 28.8664 39.0015 27.678C39.0027 26.4888 39.4687 25.3487 40.2973 24.5078C41.1259 23.667 42.2494 23.194 43.4212 23.1927C44.5932 23.194 45.7169 23.6669 46.5459 24.5077C47.3748 25.3485 47.8414 26.4886 47.8432 27.678C47.8414 28.8682 47.3742 30.0091 46.5442 30.85C45.7143 31.691 44.5894 32.1633 43.4166 32.1633ZM43.4166 23.7804C42.3983 23.7817 41.4222 24.1927 40.7022 24.9234C39.9822 25.6541 39.5772 26.6447 39.5759 27.678C39.579 28.7101 39.9848 29.699 40.7046 30.4281C41.4244 31.1573 42.3995 31.5673 43.4166 31.5686C44.4352 31.5679 45.4119 31.1572 46.1324 30.4264C46.8529 29.6957 47.2583 28.7047 47.2595 27.671C47.2564 26.6385 46.8503 25.6493 46.13 24.9201C45.4097 24.1909 44.434 23.7811 43.4166 23.7804Z" fill="#1C1C1A"/>
<path d="M43.4187 28.0964L41.7139 26.3686L42.1239 25.9525L43.4187 27.2642L44.9128 25.7456L45.3228 26.1617L43.4187 28.0964Z" fill="#1C1C1A"/>
<path d="M43.7085 30.72H43.1294V31.8695H43.7085V30.72Z" fill="#1C1C1A"/>
<path d="M43.7085 23.4867H43.1294V24.6362H43.7085V23.4867Z" fill="#1C1C1A"/>
<path d="M43.7085 30.72H43.1294V31.8695H43.7085V30.72Z" fill="#1C1C1A"/>
<path d="M43.7085 23.4867H43.1294V24.6362H43.7085V23.4867Z" fill="#1C1C1A"/>
<path d="M40.4216 27.3842H39.2888V27.9718H40.4216V27.3842Z" fill="#1C1C1A"/>
<path d="M47.5489 27.3842H46.4163V27.9718H47.5489V27.3842Z" fill="#1C1C1A"/>
<path d="M40.7096 24.5085L40.3 24.924L41.1009 25.7369L41.5104 25.3214L40.7096 24.5085Z" fill="#1C1C1A"/>
<path d="M45.7487 29.6255L45.3391 30.0409L46.1398 30.854L46.5494 30.4386L45.7487 29.6255Z" fill="#1C1C1A"/>
<path d="M46.1335 24.5072L45.3325 25.3201L45.742 25.7356L46.543 24.9228L46.1335 24.5072Z" fill="#1C1C1A"/>
<path d="M41.093 29.6232L40.292 30.436L40.7015 30.8516L41.5025 30.0388L41.093 29.6232Z" fill="#1C1C1A"/>
<path d="M48.9135 33.3387H37.9221V22.0198H48.9135V33.3387ZM38.4896 32.7511H48.3229V22.6075H38.5012L38.4896 32.7511Z" fill="#1C1C1A"/>
<path d="M40.1318 36.437H39.5527V43.4682H40.1318V36.437Z" fill="#1C1C1A"/>
<path d="M42.0127 36.437H41.4336V43.4682H42.0127V36.437Z" fill="#1C1C1A"/>
<path d="M43.8914 36.437H43.3123V43.4682H43.8914V36.437Z" fill="#1C1C1A"/>
<path d="M45.7725 36.437H45.1934V43.4682H45.7725V36.437Z" fill="#1C1C1A"/>
<path d="M47.6533 36.437H47.0742V43.4682H47.6533V36.437Z" fill="#1C1C1A"/>
<path d="M40.1318 46.2655H39.5527V53.2966H40.1318V46.2655Z" fill="#1C1C1A"/>
<path d="M42.0127 46.2655H41.4336V53.2966H42.0127V46.2655Z" fill="#1C1C1A"/>
<path d="M43.8914 46.2655H43.3123V53.2966H43.8914V46.2655Z" fill="#1C1C1A"/>
<path d="M45.7725 46.2655H45.1934V53.2966H45.7725V46.2655Z" fill="#1C1C1A"/>
<path d="M47.6533 46.2655H47.0742V53.2966H47.6533V46.2655Z" fill="#1C1C1A"/>
<path d="M40.1318 56.0917H39.5527V63.1228H40.1318V56.0917Z" fill="#1C1C1A"/>
<path d="M42.0127 56.0917H41.4336V63.1228H42.0127V56.0917Z" fill="#1C1C1A"/>
<path d="M43.8914 56.0917H43.3123V63.1228H43.8914V56.0917Z" fill="#1C1C1A"/>
<path d="M45.7725 56.0917H45.1934V63.1228H45.7725V56.0917Z" fill="#1C1C1A"/>
<path d="M47.6533 56.0917H47.0742V63.1228H47.6533V56.0917Z" fill="#1C1C1A"/>
<path d="M1.45484 42.9274H0.875732V45.532H1.45484V42.9274Z" fill="#1C1C1A"/>
<path d="M5.7378 42.9274H5.15869V45.532H5.7378V42.9274Z" fill="#1C1C1A"/>
<path d="M0.572169 48.5058L0.00927734 48.3648L1.1698 43.6068L1.95507 46.8626L4.70929 46.8603L5.5015 43.6068L6.65045 48.3671L6.08756 48.5058L5.49919 46.0657L5.16331 47.4456L1.50105 47.4527L1.16749 46.0657L0.572169 48.5058Z" fill="#1C1C1A"/>
<path d="M12.6755 42.9274H12.0964V45.532H12.6755V42.9274Z" fill="#1C1C1A"/>
<path d="M16.9585 42.9274H16.3794V45.532H16.9585V42.9274Z" fill="#1C1C1A"/>
<path d="M11.793 48.5058L11.2324 48.3648L12.3906 43.6068L13.1782 46.8626L15.9301 46.8603L16.7223 43.6068L17.8713 48.3671L17.3084 48.5058L16.72 46.0657L16.3841 47.4456L12.7219 47.4527L12.3883 46.0657L11.793 48.5058Z" fill="#1C1C1A"/>
<path d="M21.5728 42.9274H20.9937V45.532H21.5728V42.9274Z" fill="#1C1C1A"/>
<path d="M25.8557 42.9274H25.2766V45.532H25.8557V42.9274Z" fill="#1C1C1A"/>
<path d="M20.6901 48.5058L20.1272 48.3648L21.2854 43.6068L22.073 46.8626L24.8272 46.8603L25.6194 43.6068L26.7684 48.3671L26.2055 48.5058L25.6171 46.0657L25.2812 47.4456L21.619 47.4527L21.2854 46.0657L20.6901 48.5058Z" fill="#1C1C1A"/>
<path d="M32.5132 42.9274H31.9341V45.532H32.5132V42.9274Z" fill="#1C1C1A"/>
<path d="M36.7986 42.9274H36.2195V45.532H36.7986V42.9274Z" fill="#1C1C1A"/>
<path d="M31.633 48.5058L31.0701 48.3648L32.2283 43.6068L33.0159 46.8626L35.7678 46.8603L36.56 43.6068L37.7089 48.3671L37.1483 48.5058L36.5577 46.0657L36.2218 47.4456L32.5618 47.4527L32.226 46.0657L31.633 48.5058Z" fill="#1C1C1A"/>
<path d="M0.579104 62.3142H0V52.3352H37.7089V52.9229H0.579104V62.3142Z" fill="#1C1C1A"/>
<path d="M6.62256 48.6587H6.04346V74H6.62256V48.6587Z" fill="#1C1C1A"/>
<path d="M0.579107 48.6587H0V74H0.579107V48.6587Z" fill="#1C1C1A"/>
<path d="M31.6584 48.6587H31.0793V74H31.6584V48.6587Z" fill="#1C1C1A"/>
<path d="M11.802 64.2043H11.2229V48.3647H26.7753V61.5338H26.1962V48.9524H11.802V64.2043Z" fill="#1C1C1A"/>
<path d="M5.23269 57.178H1.2832V57.7657H5.23269V57.178Z" fill="#1C1C1A"/>
<path d="M5.23269 48.3647H1.2832V48.9524H5.23269V48.3647Z" fill="#1C1C1A"/>
<path d="M5.23269 61.24H1.2832V61.8277H5.23269V61.24Z" fill="#1C1C1A"/>
<path d="M36.3631 57.178H32.4136V57.7657H36.3631V57.178Z" fill="#1C1C1A"/>
<path d="M36.3631 61.24H32.4136V61.8277H36.3631V61.24Z" fill="#1C1C1A"/>
<path d="M2.22142 49.5801H1.64233V51.5853H2.22142V49.5801Z" fill="#1C1C1A"/>
<path d="M4.88526 49.5801H4.30615V51.5853H4.88526V49.5801Z" fill="#1C1C1A"/>
<path d="M13.5093 49.5801H12.9302V51.5853H13.5093V49.5801Z" fill="#1C1C1A"/>
<path d="M15.821 49.5801H15.2419V51.5853H15.821V49.5801Z" fill="#1C1C1A"/>
<path d="M18.1328 49.5801H17.5537V51.5853H18.1328V49.5801Z" fill="#1C1C1A"/>
<path d="M20.4446 49.5801H19.8655V51.5853H20.4446V49.5801Z" fill="#1C1C1A"/>
<path d="M22.7566 49.5801H22.1775V51.5853H22.7566V49.5801Z" fill="#1C1C1A"/>
<path d="M25.0706 49.5801H24.4915V51.5853H25.0706V49.5801Z" fill="#1C1C1A"/>
<path d="M36.3631 48.3647H32.4136V48.9524H36.3631V48.3647Z" fill="#1C1C1A"/>
<path d="M33.354 49.5801H32.7749V51.5853H33.354V49.5801Z" fill="#1C1C1A"/>
<path d="M36.0178 49.5801H35.4387V51.5853H36.0178V49.5801Z" fill="#1C1C1A"/>
<path d="M2.22142 53.9102H1.64233V55.9154H2.22142V53.9102Z" fill="#1C1C1A"/>
<path d="M4.88526 53.9102H4.30615V55.9154H4.88526V53.9102Z" fill="#1C1C1A"/>
<path d="M9.07104 53.9102H8.49194V55.9154H9.07104V53.9102Z" fill="#1C1C1A"/>
<path d="M9.07104 58.2429H8.49194V60.2481H9.07104V58.2429Z" fill="#1C1C1A"/>
<path d="M9.07104 62.573H8.49194V64.5782H9.07104V62.573Z" fill="#1C1C1A"/>
<path d="M29.189 53.9102H28.6099V55.9154H29.189V53.9102Z" fill="#1C1C1A"/>
<path d="M29.189 58.2429H28.6099V60.2481H29.189V58.2429Z" fill="#1C1C1A"/>
<path d="M29.189 62.573H28.6099V64.5782H29.189V62.573Z" fill="#1C1C1A"/>
<path d="M13.5093 53.9102H12.9302V55.9154H13.5093V53.9102Z" fill="#1C1C1A"/>
<path d="M15.821 53.9102H15.2419V55.9154H15.821V53.9102Z" fill="#1C1C1A"/>
<path d="M18.1328 53.9102H17.5537V55.9154H18.1328V53.9102Z" fill="#1C1C1A"/>
<path d="M20.4446 53.9102H19.8655V55.9154H20.4446V53.9102Z" fill="#1C1C1A"/>
<path d="M22.7566 53.9102H22.1775V55.9154H22.7566V53.9102Z" fill="#1C1C1A"/>
<path d="M25.0706 53.9102H24.4915V55.9154H25.0706V53.9102Z" fill="#1C1C1A"/>
<path d="M33.354 53.9102H32.7749V55.9154H33.354V53.9102Z" fill="#1C1C1A"/>
<path d="M36.0178 53.9102H35.4387V55.9154H36.0178V53.9102Z" fill="#1C1C1A"/>
<path d="M2.22142 58.2429H1.64233V60.2481H2.22142V58.2429Z" fill="#1C1C1A"/>
<path d="M4.88526 58.2429H4.30615V60.2481H4.88526V58.2429Z" fill="#1C1C1A"/>
<path d="M13.5093 58.2429H12.9302V60.2481H13.5093V58.2429Z" fill="#1C1C1A"/>
<path d="M15.821 58.2429H15.2419V60.2481H15.821V58.2429Z" fill="#1C1C1A"/>
<path d="M18.1328 58.2429H17.5537V60.2481H18.1328V58.2429Z" fill="#1C1C1A"/>
<path d="M20.4446 58.2429H19.8655V60.2481H20.4446V58.2429Z" fill="#1C1C1A"/>
<path d="M22.7566 58.2429H22.1775V60.2481H22.7566V58.2429Z" fill="#1C1C1A"/>
<path d="M25.0706 58.2429H24.4915V60.2481H25.0706V58.2429Z" fill="#1C1C1A"/>
<path d="M33.354 58.2429H32.7749V60.2481H33.354V58.2429Z" fill="#1C1C1A"/>
<path d="M36.0178 58.2429H35.4387V60.2481H36.0178V58.2429Z" fill="#1C1C1A"/>
<path d="M2.22142 62.573H1.64233V64.5782H2.22142V62.573Z" fill="#1C1C1A"/>
<path d="M4.88526 62.573H4.30615V64.5782H4.88526V62.573Z" fill="#1C1C1A"/>
<path d="M13.5093 62.573H12.9302V64.5782H13.5093V62.573Z" fill="#1C1C1A"/>
<path d="M15.821 62.573H15.2419V64.5782H15.821V62.573Z" fill="#1C1C1A"/>
<path d="M18.1328 62.573H17.5537V64.5782H18.1328V62.573Z" fill="#1C1C1A"/>
<path d="M20.4446 62.573H19.8655V64.5782H20.4446V62.573Z" fill="#1C1C1A"/>
<path d="M22.7566 62.573H22.1775V64.5782H22.7566V62.573Z" fill="#1C1C1A"/>
<path d="M25.0706 62.573H24.4915V64.5782H25.0706V62.573Z" fill="#1C1C1A"/>
<path d="M33.354 62.573H32.7749V64.5782H33.354V62.573Z" fill="#1C1C1A"/>
<path d="M36.0178 62.573H35.4387V64.5782H36.0178V62.573Z" fill="#1C1C1A"/>
</svg>
