<svg preserveAspectRatio="xMidYMax meet" width="124" height="77" viewBox="0 0 124 77" fill="none" xmlns="http://www.w3.org/2000/svg">
<g clip-path="url(#clip0_87_43468)">
<path d="M44.6484 12.1855H44.0578C43.9263 11.085 43.0951 6.5047 39.2481 4.15339C39.3439 3.96165 39.3804 3.74619 39.3533 3.53397C39.3462 3.3355 39.2828 3.14304 39.1705 2.97856C39.0582 2.81409 38.9015 2.68425 38.7182 2.60389V0.759682C38.7182 0.513125 38.5989 0.310669 38.3481 0.310669C38.0973 0.310669 37.9779 0.51112 37.9779 0.759682V2.60389C37.7918 2.76826 37.4258 3.103 37.4258 3.49188C37.4263 3.71647 37.4916 3.93623 37.6139 4.1253C36.1194 5.05084 34.9257 6.38359 34.1755 7.964H33.9105V8.33481C33.7245 8.93617 33.4332 9.61573 33.2714 10.167H33.1703V10.2812C32.9842 11.083 32.8568 11.8187 32.8163 12.1855H32.2439V13.1036H44.6565L44.6484 12.1855ZM38.431 3.39366C38.4506 3.39366 38.4697 3.39941 38.486 3.4102C38.5023 3.421 38.5151 3.43635 38.5226 3.4543C38.5301 3.47224 38.532 3.49196 38.5282 3.51102C38.5244 3.53007 38.5149 3.54759 38.501 3.56133C38.4872 3.57506 38.4696 3.5844 38.4504 3.58819C38.4312 3.59198 38.4112 3.59005 38.3931 3.58261C38.375 3.57518 38.3594 3.5626 38.3486 3.54645C38.3377 3.5303 38.3319 3.51131 38.3319 3.49188C38.3319 3.46583 38.3423 3.44086 38.3609 3.42244C38.3795 3.40402 38.4047 3.39366 38.431 3.39366ZM33.9571 11.085H40.5709V10.167H34.2281C34.368 9.72673 34.5404 9.29724 34.7439 8.88204H39.8225V7.964H35.207C35.4074 7.49587 35.6804 7.06162 36.0161 6.67706H38.8921V5.75902H36.8514C37.3085 5.57661 37.8282 5.04136 38.4208 4.71662C42.0231 6.68307 42.9454 11.085 43.1274 12.1855H33.7143C33.7735 11.8143 33.8546 11.4468 33.9571 11.085Z" fill="#1C1C1A"/>
<path d="M77.6244 23.9381H69.4734V24.8562H77.6244V23.9381Z" fill="#1C1C1A"/>
<path d="M67.8048 23.9381H66.8784V24.8562H67.8048V23.9381Z" fill="#1C1C1A"/>
<path d="M41.1271 22.4688H35.7551V23.2044H41.1271V22.4688Z" fill="#1C1C1A"/>
<path d="M37.6077 13.6569H36.6814V21.7351H37.6077V13.6569Z" fill="#1C1C1A"/>
<path d="M40.3868 13.6569H39.4604V21.7351H40.3868V13.6569Z" fill="#1C1C1A"/>
<path d="M36.1251 15.6754H35.1987V19.3477H36.1251V15.6754Z" fill="#1C1C1A"/>
<path d="M38.9041 15.6754H37.9778V19.3477H38.9041V15.6754Z" fill="#1C1C1A"/>
<path d="M42.0555 15.8599H41.1292V19.5322H42.0555V15.8599Z" fill="#1C1C1A"/>
<path d="M51.3775 57.4979C51.3775 57.4097 51.8893 48.9666 61.9395 44.4905C63.7928 45.3 65.5167 46.3738 67.0565 47.6777C67.1012 47.7164 67.153 47.746 67.2092 47.7648C67.2654 47.7836 67.3248 47.7913 67.3839 47.7874C67.4431 47.7835 67.5008 47.7681 67.554 47.7421C67.6071 47.716 67.6546 47.6798 67.6936 47.6356C67.7327 47.5914 67.7626 47.54 67.7816 47.4843C67.8006 47.4286 67.8083 47.3698 67.8043 47.3112C67.8004 47.2526 67.7849 47.1953 67.7586 47.1426C67.7323 47.0899 67.6958 47.0429 67.6512 47.0042C66.1583 45.7366 64.4963 44.6789 62.712 43.8611C62.7104 43.8047 62.6988 43.7491 62.6777 43.6967C62.6304 43.5872 62.5414 43.5006 62.43 43.456C62.3186 43.4113 62.1939 43.412 62.083 43.4582C62.0345 43.4782 61.99 43.5003 61.9435 43.5183C61.897 43.5003 61.8525 43.4782 61.8059 43.4582C61.7511 43.435 61.6922 43.4229 61.6326 43.4224C61.573 43.4219 61.5139 43.433 61.4587 43.4552C61.4035 43.4773 61.3532 43.5101 61.3108 43.5515C61.2683 43.593 61.2345 43.6423 61.2113 43.6967C61.1893 43.7488 61.1776 43.8046 61.1769 43.8611C56.0174 46.2665 53.3961 49.6562 52.0956 52.1659C51.3289 53.6822 50.7957 55.3038 50.5139 56.9767H49.5026C49.3784 56.9881 49.2633 57.0462 49.181 57.1391C49.0954 57.2289 49.0483 57.3482 49.0496 57.4719L49.0759 75.9496C49.0745 76.0729 49.1206 76.1922 49.2047 76.283C49.2889 76.3739 49.4049 76.4295 49.529 76.4387C49.6545 76.4266 49.7707 76.3681 49.8547 76.2749C49.9386 76.1816 49.9841 76.0605 49.982 75.9355L49.9557 57.8948H50.9184C51.0321 57.9014 51.144 57.8636 51.2299 57.7894C51.3157 57.7151 51.3687 57.6105 51.3775 57.4979Z" fill="#1C1C1A"/>
<path d="M72.837 58.823H71.4374C71.4106 57.2844 71.1036 55.7632 70.5313 54.3328C69.5403 51.8331 67.2527 48.3613 61.9819 45.988L61.9678 45.9599H61.9435L61.9192 45.9479L61.907 45.9779C56.6342 48.3493 54.3467 51.8232 53.3556 54.3228C52.7847 55.7536 52.4784 57.2746 52.4515 58.8129H51.0479L51.0964 76.7234H51.8731V77H72.0664V76.6833H72.9017L72.837 58.823ZM53.4203 59.741L53.3738 59.2379C53.3738 59.1577 52.7468 51.3019 61.9435 46.9682C65.754 48.7602 68.357 51.328 69.6737 54.6195C70.685 57.1612 70.5232 59.2179 70.5211 59.2299L70.4767 59.733H71.937L71.9875 76.0739H52.0167L51.9621 59.733L53.4203 59.741Z" fill="#1C1C1A"/>
<path d="M74.4084 64.1469C74.3525 64.1402 74.2959 64.1452 74.242 64.1614C74.1882 64.1776 74.1383 64.2048 74.0957 64.2413C74.053 64.2777 74.0185 64.3225 73.9943 64.3729C73.9702 64.4232 73.9569 64.4781 73.9553 64.5339L73.9898 76.1481L74.8959 76.128L74.8635 64.5379C74.8625 64.4816 74.8496 64.4261 74.8256 64.3751C74.8015 64.3241 74.7669 64.2786 74.724 64.2417C74.681 64.2049 74.6308 64.1774 74.5764 64.161C74.522 64.1447 74.4648 64.1399 74.4084 64.1469Z" fill="#1C1C1A"/>
<path d="M74.4084 63.2911C74.491 63.2923 74.5724 63.271 74.6437 63.2297C74.715 63.1883 74.7735 63.1284 74.813 63.0565C74.8544 62.9795 74.874 62.8928 74.8697 62.8057C74.8655 62.7185 74.8375 62.6341 74.7887 62.5614C74.7364 62.48 74.6592 62.4174 74.5682 62.3829C74.4773 62.3484 74.3775 62.3439 74.2838 62.37C74.1901 62.3961 74.1073 62.4514 74.0478 62.5278C73.9883 62.6041 73.9552 62.6974 73.9534 62.7939C73.9505 62.8603 73.9609 62.9266 73.9842 62.9889C74.0074 63.0512 74.043 63.1083 74.0889 63.1567C74.1737 63.2411 74.2883 63.2893 74.4084 63.2911ZM74.73 62.5253C74.8063 62.6011 74.8505 62.7029 74.8534 62.81H74.4489L74.73 62.5253ZM74.014 62.6236L74.37 62.824L74.018 63.0465C73.9778 62.9837 73.9554 62.9113 73.9529 62.8369C73.9504 62.7626 73.968 62.6889 74.0039 62.6236H74.014Z" fill="#1C1C1A"/>
<path d="M74.366 61.5772H74.3801C74.5015 61.5772 74.6147 61.4389 74.6956 61.3527C74.6966 61.338 74.6966 61.3233 74.6956 61.3086C74.7778 61.2204 74.8253 61.1059 74.8292 60.9859C74.8292 60.9859 74.8413 60.9558 74.8413 60.9498C74.8373 60.8917 74.8215 60.8351 74.7949 60.7833C74.7683 60.7314 74.7314 60.6854 74.6865 60.648C74.6415 60.6106 74.5895 60.5825 74.5334 60.5655C74.4773 60.5485 74.4182 60.5428 74.3599 60.5489C74.2446 60.5698 74.1406 60.6307 74.0665 60.7207C73.9923 60.8107 73.953 60.9238 73.9554 61.04H73.915V60.9638C73.915 60.9638 73.915 61.048 73.915 61.05C73.9117 61.1774 73.9559 61.3016 74.0391 61.3988C74.1223 61.496 74.2386 61.5595 74.366 61.5772Z" fill="#1C1C1A"/>
<path d="M73.9331 59.4564C73.933 59.5774 73.9801 59.6938 74.0645 59.7812C74.149 59.8686 74.2642 59.9203 74.3862 59.9254C74.4459 59.9252 74.5051 59.9133 74.5602 59.8904C74.6153 59.8675 74.6653 59.834 74.7073 59.7919C74.7494 59.7498 74.7827 59.7 74.8053 59.6452C74.8279 59.5904 74.8394 59.5317 74.8392 59.4724C74.8392 57.8989 74.8392 57.4679 74.8392 57.4679C74.8394 57.3461 74.7926 57.2288 74.7083 57.1401C74.6241 57.0514 74.5089 56.998 74.3862 56.9908H73.3749C72.9635 54.4362 71.9427 52.0158 70.3976 49.9308C70.3615 49.8842 70.3166 49.8451 70.2652 49.8157C70.2138 49.7863 70.1571 49.7673 70.0983 49.7597C70.0395 49.752 69.9798 49.7559 69.9225 49.7712C69.8652 49.7865 69.8116 49.8128 69.7646 49.8487C69.6674 49.9206 69.6026 50.0275 69.5841 50.1463C69.5655 50.2651 69.5947 50.3864 69.6654 50.4841C72.311 54.0762 72.5072 57.4639 72.5092 57.4999C72.518 57.6118 72.57 57.7159 72.6545 57.7906C72.7389 57.8653 72.8492 57.9048 72.9623 57.9009H73.929C73.929 58.2717 73.9311 58.7107 73.9331 59.4564Z" fill="#1C1C1A"/>
<path d="M68.4681 48.8403C68.5914 48.8385 68.709 48.7888 68.7958 48.702C68.8375 48.6569 68.8698 48.604 68.8908 48.5464C68.9118 48.4888 68.9211 48.4277 68.9181 48.3666C68.915 48.3055 68.8998 48.2455 68.8732 48.1902C68.8467 48.1349 68.8094 48.0854 68.7634 48.0445C68.7309 48.0115 68.6934 47.9837 68.6522 47.9623C68.5569 47.8993 68.4411 47.8743 68.328 47.8925C68.2149 47.9107 68.1129 47.9707 68.0427 48.0604C67.9724 48.1501 67.9391 48.2629 67.9493 48.3759C67.9596 48.489 68.0127 48.5941 68.098 48.6699C68.1972 48.7682 68.3283 48.8286 68.4681 48.8403Z" fill="#1C1C1A"/>
<path d="M40.1096 62.854L40.7588 62.2266L40.6213 62.0823L40.2269 61.6814L39.5776 62.3088C39.8224 62.5553 39.8993 62.6375 39.9599 62.7097C40.0206 62.7819 40.0367 62.7819 40.1096 62.854Z" fill="#1C1C1A"/>
<path d="M36.9667 62.6997L37.1164 62.854L37.7656 62.2266L37.6281 62.0823L37.2337 61.6814L36.5845 62.3088C36.8292 62.5533 36.906 62.6355 36.9667 62.6997Z" fill="#1C1C1A"/>
<path d="M40.2917 33.6801L40.9409 33.0507C40.8722 32.9845 40.8418 32.9505 40.8014 32.9084C40.7609 32.8663 40.6598 32.758 40.409 32.5074L39.7598 33.1348C40.0025 33.3814 40.0814 33.4636 40.1421 33.5358L40.2917 33.6801Z" fill="#1C1C1A"/>
<path d="M46.2645 39.814L45.6152 40.4414C45.86 40.69 45.9368 40.7722 45.9995 40.8423L46.1471 40.9946L46.7964 40.3672L46.6588 40.2249C46.5961 40.1527 46.5173 40.0705 46.2645 39.814Z" fill="#1C1C1A"/>
<path d="M50.702 39.814L50.0527 40.4414C50.2975 40.69 50.3763 40.7722 50.437 40.8423L50.5846 40.9946L51.2339 40.3672L51.0964 40.2249C51.0337 40.1527 50.9467 40.0705 50.702 39.814Z" fill="#1C1C1A"/>
<path d="M55.1395 39.814L54.4902 40.4414C54.735 40.69 54.8138 40.7722 54.8745 40.8423L55.0221 40.9946L55.6714 40.3672L55.5339 40.2249C55.4712 40.1527 55.3963 40.0705 55.1395 39.814Z" fill="#1C1C1A"/>
<path d="M59.5769 39.814L58.9297 40.4414C59.1744 40.69 59.2512 40.7722 59.3119 40.8423L59.4595 40.9946L60.1088 40.3672L59.9713 40.2249C59.9086 40.1527 59.8297 40.0705 59.5769 39.814Z" fill="#1C1C1A"/>
<path d="M64.0164 39.814L63.3672 40.4414C63.6099 40.69 63.6887 40.7701 63.7494 40.8423L63.897 40.9946L64.5464 40.3672L64.4088 40.2249C64.3461 40.1527 64.2652 40.0685 64.0164 39.814Z" fill="#1C1C1A"/>
<path d="M68.4539 39.814L67.8047 40.4414C68.0474 40.69 68.1263 40.7701 68.187 40.8423L68.3346 40.9946L68.9839 40.3672L68.8463 40.2249C68.7836 40.1527 68.7047 40.0685 68.4539 39.814Z" fill="#1C1C1A"/>
<path d="M72.8917 39.814L72.2424 40.4414C72.4872 40.69 72.564 40.7701 72.6247 40.8423L72.7743 40.9946L73.4216 40.3672L73.284 40.2249C73.2213 40.1527 73.1425 40.0685 72.8917 39.814Z" fill="#1C1C1A"/>
<path d="M77.7215 40.2189C77.6588 40.1527 77.58 40.0686 77.3292 39.818L76.6799 40.4454C76.9247 40.6939 77.0015 40.7741 77.0622 40.8463L77.2118 40.9986L77.8591 40.3712L77.7215 40.2189Z" fill="#1C1C1A"/>
<path d="M37.1164 33.6801L37.7656 33.0507C37.6989 32.9845 37.6665 32.9505 37.6281 32.9084C37.5896 32.8663 37.4845 32.758 37.2337 32.5074L36.5845 33.1348C36.8292 33.3814 36.906 33.4636 36.9667 33.5358L37.1164 33.6801Z" fill="#1C1C1A"/>
<path d="M35.6561 47.4513C35.7706 47.4513 35.8825 47.4176 35.9776 47.3545C36.0728 47.2915 36.147 47.2018 36.1908 47.0969C36.2345 46.992 36.2457 46.8767 36.2232 46.7654C36.2008 46.6541 36.1455 46.552 36.0644 46.4719C35.9833 46.3918 35.88 46.3374 35.7677 46.3155C35.6553 46.2936 35.5389 46.3052 35.4333 46.3489C35.3276 46.3926 35.2374 46.4664 35.1741 46.5609C35.1108 46.6555 35.0772 46.7665 35.0776 46.88C35.0782 47.0317 35.1394 47.177 35.2478 47.2841C35.3562 47.3911 35.503 47.4513 35.6561 47.4513Z" fill="#1C1C1A"/>
<path d="M38.6231 47.4513C38.7376 47.4513 38.8496 47.4176 38.9448 47.3545C39.0399 47.2915 39.1141 47.2018 39.1578 47.0969C39.2015 46.992 39.2129 46.8767 39.1904 46.7654C39.1679 46.6541 39.1126 46.552 39.0315 46.4719C38.9504 46.3918 38.847 46.3374 38.7347 46.3155C38.6224 46.2936 38.5061 46.3052 38.4004 46.3489C38.2947 46.3926 38.2045 46.4664 38.1412 46.5609C38.0779 46.6555 38.0443 46.7665 38.0447 46.88C38.0452 47.0317 38.1064 47.177 38.2148 47.2841C38.3233 47.3911 38.47 47.4513 38.6231 47.4513Z" fill="#1C1C1A"/>
<path d="M41.6429 47.4513C41.7574 47.4517 41.8696 47.4183 41.965 47.3555C42.0605 47.2926 42.1349 47.2031 42.1789 47.0983C42.223 46.9935 42.2346 46.878 42.2123 46.7666C42.1901 46.6552 42.1349 46.5529 42.0539 46.4726C41.9729 46.3923 41.8696 46.3377 41.7572 46.3156C41.6448 46.2936 41.5284 46.3051 41.4226 46.3487C41.3169 46.3923 41.2265 46.4661 41.1631 46.5607C41.0997 46.6553 41.066 46.7664 41.0664 46.88C41.0664 47.0315 41.1272 47.1768 41.2353 47.284C41.3434 47.3911 41.49 47.4513 41.6429 47.4513Z" fill="#1C1C1A"/>
<path d="M42.0555 36.0554H35.385V36.9735H42.0555V36.0554Z" fill="#1C1C1A"/>
<path d="M6.16885 49.8727L6.89698 49.3957L5.25465 47.2568H9.36856L9.03889 47.2408L9.87825 49.8888L10.7459 49.7104L9.95713 47.2568H13.1568L13.4279 49.7565L14.3299 49.7204L14.067 47.2568H16.757L16.9755 49.7464L17.8796 49.7304L17.6672 47.2568H20.3592L20.521 49.7364L21.4272 49.7384L21.2674 47.2568H23.9614L24.0686 49.7284L24.9747 49.7485L24.8676 47.2568H27.5616L27.6162 49.7184L28.5223 49.7585L28.4677 47.2568H31.1234V49.6422H32.0497V47.2568H32.792V46.3387H0V47.2568H4.12807L6.16885 49.8727Z" fill="#1C1C1A"/>
<path d="M12.4124 53.8657H11.4861V75.8995H12.4124V53.8657Z" fill="#1C1C1A"/>
<path d="M3.88937 39.6336V43.4562C3.88937 43.7047 4.01074 43.9052 4.25952 43.9052C4.50829 43.9052 4.63164 43.7047 4.63164 43.4562V39.5032C4.63596 39.4748 4.63414 39.4457 4.62611 39.418C4.61808 39.3904 4.60404 39.3647 4.58512 39.3429L3.99257 38.4428H32.7697C32.8926 38.4428 33.0104 38.3945 33.0973 38.3084C33.1842 38.2223 33.2329 38.1056 33.2329 37.9838C33.2329 37.8621 33.1842 37.7453 33.0973 37.6592C33.0104 37.5732 32.8926 37.5248 32.7697 37.5248H5.00179V36.2379H11.6763C11.7936 36.2302 11.9036 36.1786 11.9839 36.0935C12.0642 36.0085 12.1088 35.8963 12.1088 35.7798C12.1088 35.6633 12.0642 35.5512 11.9839 35.4661C11.9036 35.3811 11.7936 35.3295 11.6763 35.3218H5.00179V34.5861H32.7111C32.8339 34.5861 32.9518 34.5378 33.0386 34.4517C33.1255 34.3656 33.1742 34.2489 33.1742 34.1271C33.1742 34.0054 33.1255 33.8886 33.0386 33.8025C32.9518 33.7164 32.8339 33.6681 32.7111 33.6681H4.64379C4.39299 33.6681 4.07543 33.8465 4.07543 34.095V35.3218H3.33316C3.21587 35.3295 3.10595 35.3811 3.02563 35.4661C2.9453 35.5512 2.9006 35.6633 2.9006 35.7798C2.9006 35.8963 2.9453 36.0085 3.02563 36.0935C3.10595 36.1786 3.21587 36.2302 3.33316 36.2379H4.07543V37.5248H3.17544C3.00959 37.5248 2.8579 37.5468 2.77093 37.6891C2.74112 37.7591 2.73193 37.8359 2.74446 37.9108C2.75699 37.9857 2.79075 38.0555 2.84174 38.1121L3.88937 39.6336Z" fill="#1C1C1A"/>
<path d="M11.4861 40.1266V43.4562C11.4861 43.5779 11.5349 43.6947 11.6218 43.7808C11.7086 43.8669 11.8264 43.9152 11.9493 43.9152C12.0721 43.9152 12.1899 43.8669 12.2767 43.7808C12.3636 43.6947 12.4124 43.5779 12.4124 43.4562V40.1266C12.4124 40.0049 12.3636 39.8881 12.2767 39.802C12.1899 39.716 12.0721 39.6676 11.9493 39.6676C11.8264 39.6676 11.7086 39.716 11.6218 39.802C11.5349 39.8881 11.4861 40.0049 11.4861 40.1266Z" fill="#1C1C1A"/>
<path d="M14.7182 42.8488C14.5954 42.8488 14.4776 42.8972 14.3908 42.9833C14.3039 43.0694 14.2551 43.1861 14.2551 43.3079C14.2551 43.4296 14.3039 43.5464 14.3908 43.6325C14.4776 43.7186 14.5954 43.7669 14.7182 43.7669H29.4102C29.661 43.7669 29.8269 43.4963 29.8269 43.2478V40.7521C29.8313 40.6938 29.824 40.6353 29.8054 40.5799C29.7867 40.5244 29.7571 40.4732 29.7184 40.4292C29.6796 40.3852 29.6324 40.3493 29.5795 40.3235C29.5266 40.2977 29.4691 40.2826 29.4102 40.2791H14.2996C14.1768 40.2791 14.059 40.3274 13.9721 40.4135C13.8853 40.4996 13.8364 40.6164 13.8364 40.7381C13.8364 40.8598 13.8853 40.9766 13.9721 41.0627C14.059 41.1487 14.1768 41.1971 14.2996 41.1971H29.0846V42.8488H14.7182Z" fill="#1C1C1A"/>
<path d="M14.2651 53.8657H30.3264L30.4275 70.802L31.3336 70.832L31.2264 52.9476H14.2651V53.8657Z" fill="#1C1C1A"/>
<path d="M16.1179 76.084H17.0443V63.9646H27.9743V76.6332H28.9006V63.0465H16.1179V76.084Z" fill="#1C1C1A"/>
<path d="M14.6353 57.538H13.709V76.0819H14.6353V57.538Z" fill="#1C1C1A"/>
<path d="M16.486 62.5232H16.5042C16.6212 62.5228 16.7336 62.4775 16.8176 62.3967C16.9017 62.316 16.951 62.2062 16.9552 62.0903C17.0482 59.6568 17.9463 58.005 22.5456 55.8301C22.7095 55.9303 22.9177 56.0426 23.1706 56.1749C24.7623 57.0208 27.7254 58.5944 27.8043 61.8758C27.8056 61.9347 27.8186 61.9929 27.8426 62.0468C27.8666 62.1008 27.9011 62.1496 27.9442 62.1904C27.9872 62.2311 28.0378 62.2631 28.0933 62.2844C28.1488 62.3058 28.208 62.3161 28.2675 62.3148C28.327 62.3134 28.3857 62.3005 28.4401 62.2767C28.4946 62.253 28.5438 62.2188 28.5849 62.1762C28.626 62.1335 28.6583 62.0833 28.6798 62.0283C28.7014 61.9733 28.7118 61.9147 28.7104 61.8557C28.6194 58.0471 25.2276 56.243 23.5994 55.3831C23.3521 55.2664 23.1135 55.1324 22.8854 54.9822C22.8189 54.9262 22.7378 54.8903 22.6514 54.8786C22.565 54.8669 22.4771 54.8799 22.398 54.9161C17.7744 57.0629 16.1725 58.867 16.0491 62.0682C16.0479 62.1855 16.093 62.2985 16.1745 62.3835C16.2561 62.4684 16.3678 62.5186 16.486 62.5232Z" fill="#1C1C1A"/>
<path d="M14.8214 54.7838H13.895V56.2531H14.8214V54.7838Z" fill="#1C1C1A"/>
<path d="M22.6306 64.8205L22.3758 64.6521L22.123 64.8245C21.7993 65.043 18.9556 67.0175 18.7796 68.6852C18.6218 70.2047 18.7796 76.0859 18.7796 76.3345L19.6857 76.3125C19.6857 76.2523 19.532 70.2407 19.6857 68.7774C19.7787 67.9015 21.3038 66.5304 22.3859 65.7426C23.2859 66.3861 24.9788 67.8012 25.0799 68.8777C25.2336 70.4953 25.0799 76.6673 25.0799 76.7294L25.986 76.7515C25.986 76.4949 26.1417 70.4633 25.986 68.7935C25.808 66.9774 22.9562 65.035 22.6306 64.8205Z" fill="#1C1C1A"/>
<path d="M47.7974 46.7056H46.8711V69.473H47.7974V46.7056Z" fill="#1C1C1A"/>
<path d="M28.5305 35.3218H18.1567V36.2398H28.5305V35.3218Z" fill="#1C1C1A"/>
<path d="M13.7736 35.3218C13.6563 35.3295 13.5464 35.381 13.4661 35.4661C13.3858 35.5511 13.3411 35.6633 13.3411 35.7798C13.3411 35.8963 13.3858 36.0084 13.4661 36.0935C13.5464 36.1785 13.6563 36.2301 13.7736 36.2378H16.0834C16.2007 36.2301 16.3107 36.1785 16.391 36.0935C16.4713 36.0084 16.516 35.8963 16.516 35.7798C16.516 35.6633 16.4713 35.5511 16.391 35.4661C16.3107 35.381 16.2007 35.3295 16.0834 35.3218H13.7736Z" fill="#1C1C1A"/>
<path d="M91.1474 11.8187H90.573C90.4415 10.9006 89.6123 6.16588 85.7653 3.81657C85.8868 3.63892 85.9529 3.4298 85.9554 3.21521C85.9649 3.02553 85.9178 2.83733 85.8199 2.67404C85.7221 2.51076 85.5779 2.37967 85.4053 2.29717V0.454968C85.4053 0.333224 85.3565 0.216493 85.2697 0.130406C85.1828 0.0443201 85.065 -0.00402832 84.9422 -0.00402832C84.8193 -0.00402832 84.7015 0.0443201 84.6147 0.130406C84.5278 0.216493 84.479 0.333224 84.479 0.454968V2.29717C84.3088 2.37371 84.166 2.49946 84.0692 2.65794C83.9725 2.81643 83.9263 3.00023 83.9369 3.18516C83.9409 3.40568 84.0114 3.62 84.1392 3.80056C81.5806 5.36209 80.361 7.96998 79.7887 9.80412H79.3012V10.7222H79.5419C79.4245 11.2735 79.3639 11.6423 79.3396 11.8247H78.749V12.7427H91.1616L91.1474 11.8187ZM84.9482 3.08293C84.9674 3.08293 84.9861 3.08855 85.0021 3.09913C85.0181 3.1097 85.0305 3.12476 85.0379 3.14234C85.0452 3.15992 85.0471 3.17927 85.0434 3.19793C85.0396 3.2166 85.0304 3.23371 85.0168 3.24717C85.0033 3.26062 84.986 3.26978 84.9672 3.27349C84.9483 3.27721 84.9288 3.27535 84.9111 3.26806C84.8933 3.26078 84.8782 3.2484 84.8675 3.23258C84.8568 3.21676 84.8511 3.19817 84.8511 3.17914C84.8511 3.15362 84.8613 3.12916 84.8796 3.11112C84.8978 3.09307 84.9224 3.08293 84.9482 3.08293ZM80.4763 10.7162H86.7038V9.7981H80.7453C80.8866 9.35806 81.0597 8.92867 81.2631 8.51322H85.9635V7.59513H81.7344C81.9592 7.10482 82.2609 6.65289 82.6284 6.25611V6.31024H85.2213V5.57655H83.3807C83.8687 5.15271 84.394 4.77302 84.9503 4.442C88.5525 6.40644 89.4768 10.7162 89.6568 11.8187H80.2457C80.274 11.6363 80.3529 11.2674 80.4763 10.7162Z" fill="#1C1C1A"/>
<path d="M89.8509 66.5584V45.2362H121.027C121.15 45.2362 121.267 45.1879 121.354 45.1018C121.441 45.0157 121.49 44.8989 121.49 44.7772C121.49 44.6554 121.441 44.5387 121.354 44.4526C121.267 44.3665 121.15 44.3181 121.027 44.3181H89.8509V24.8562H90.221V23.9381H89.8509V13.6569H89.1106V23.9401H80.9597V13.6569H80.2174V21.1859H43.3499V13.6569H42.4235V23.9401H34.6427V13.6569H33.7164V23.9401H33.1621V24.8582H33.7164V44.5025H2.59302V45.4206H33.7164V66.5664L31.9628 70.8501L29.827 73.2556V75.9096H30.7533V74.2578H46.315V75.9096H47.0552V73.2616L45.1257 70.8701L43.3499 66.5724V45.4186H44.8324V44.5006H43.3499V42.6644H80.2174V44.3262H78.7348C78.612 44.3262 78.4941 44.3745 78.4072 44.4606C78.3204 44.5467 78.2717 44.6635 78.2717 44.7852C78.2717 44.907 78.3204 45.0237 78.4072 45.1098C78.4941 45.1959 78.612 45.2443 78.7348 45.2443H80.2174V66.5624L78.3525 70.5494L76.33 72.9549V75.9136H77.2563V73.895H92.6279V73.1914L92.8139 73.2736V76.2804H93.7403V72.9469L91.6004 70.5414L89.8509 66.5584ZM90.3282 70.0222H79.647L80.3023 68.5549H85.2192V67.6369H80.7088L80.9597 66.7469V66.1755H89.1106V66.7489L90.3282 70.0222ZM83.7366 60.4747V49.4498H86.1394V60.4747H87.0658V49.4498H89.1046V65.2415H87.0658V64.139H86.1394V65.2415H83.7305V63.9706H82.8062V65.2554H80.9535V49.4578H82.8062V60.4827L83.7366 60.4747ZM82.8123 24.8562V31.2807H83.7366V24.8562H86.1394V31.2807H87.0658V24.8562H89.1046V41.3795H80.9535V34.5861H88.9185V33.6681H80.9535V24.8482L82.8123 24.8562ZM43.3499 22.1019H44.4623V23.02H45.3886V22.1019H47.2413V23.02H48.1676V22.1019H50.0203V23.02H50.9467V22.1019H52.9834V23.2025H53.9097V22.1019H55.7624V23.2025H56.6888V22.1019H58.5414V23.2025H59.4677V22.1019H61.5065V23.2025H62.4329V22.1019H64.0934V23.2025H65.0197V22.1019H67.0585V23.2025H67.9849V22.1019H70.0216V23.2025H70.9479V22.1019H72.6165V23.2025H73.5429V22.1019H75.5796V23.2025H76.506V22.1019H78.5447V23.2025H79.471V22.1019H80.2113V23.9381H78.5447V24.8562H80.2113V33.8525H43.3499V24.8562H65.3959V23.9381H43.3499V22.1019ZM36.6754 24.8562V31.4711H37.6017V24.8562H39.8265V31.4711H40.7529V24.8562H42.4195V33.8525H34.8247V34.7706H42.4195V41.7463H34.6387V24.8562H36.6754ZM37.6017 60.8415V49.4578H39.6384V60.8415H40.5648V49.4578H42.4175V65.9751H40.5648V64.3234H39.6384V65.9751H37.6017V64.5058H36.6754V65.9751H34.6366V49.4578H36.6754V60.8415H37.6017ZM44.7838 71.8664H40.0248V72.7845H45.3967V72.4697L46.0803 73.5201H31.0344L31.5643 72.9689H37.4298V72.0508H32.339L32.7718 71.5417L32.8568 71.3171H44.3368L44.4299 71.4815L44.7838 71.8664ZM43.9506 70.3991H33.2046L33.777 68.9298H38.7121V68.0117H34.139L34.5658 66.9092H42.5146L43.9506 70.3991ZM42.4175 48.5497H40.5648V45.7975H39.6384V48.5357H37.6017V45.7835H36.6754V48.5357H34.6366V45.4146H42.4175V48.5497ZM42.4175 44.5106H34.6366V42.6744H42.4175V44.5106ZM43.3438 41.7563V34.7806H45.7527V39.5534H46.679V34.7806H50.1983V39.5534H51.1246V34.7806H54.646V39.5534H55.3963V34.7806H59.1016V39.5534H60.028V34.7806H63.5473V39.5534H64.2956V34.7806H67.8149V39.5534H68.7413V34.7806H72.2605V39.5534H73.1889V34.7806H76.7082V39.5534H77.6346V34.7806H80.2275V41.7563H43.3438ZM80.9637 42.3076H89.1146V44.3262H80.9637V42.3076ZM89.1146 45.2463V48.5357H87.0759V45.5991H86.1394V48.5357H83.7305V45.5991H82.8062V48.5357H80.9535V45.2322L89.1146 45.2463ZM77.503 73.1553L78.0026 72.6041H83.7407V71.686H78.7368L79.1413 71.1869L79.2445 70.9504H90.7145L90.8076 71.1809L91.2383 71.686H86.3417V72.59H92.0252L92.553 73.1413L77.503 73.1553Z" fill="#1C1C1A"/>
<path d="M87.8142 22.1019H82.0701V22.8356H87.8142V22.1019Z" fill="#1C1C1A"/>
<path d="M87.0738 13.2881H86.1475V21.3663H87.0738V13.2881Z" fill="#1C1C1A"/>
<path d="M83.9227 13.2881H82.9963V21.3663H83.9227V13.2881Z" fill="#1C1C1A"/>
<path d="M88.5543 15.3086H87.6279V19.1653H88.5543V15.3086Z" fill="#1C1C1A"/>
<path d="M85.4053 15.3086H84.479V19.1653H85.4053V15.3086Z" fill="#1C1C1A"/>
<path d="M82.4422 15.491H81.5159V19.3477H82.4422V15.491Z" fill="#1C1C1A"/>
<path d="M123.557 45.9698H90.8035C90.6807 45.9698 90.5629 46.0182 90.476 46.1043C90.3892 46.1904 90.3403 46.3072 90.3403 46.4289C90.3403 46.5506 90.3892 46.6674 90.476 46.7535C90.5629 46.8396 90.6807 46.8879 90.8035 46.8879H91.5195V48.9225C91.5195 49.0443 91.5682 49.1611 91.6551 49.2471C91.742 49.3332 91.8598 49.3816 91.9827 49.3816C92.1055 49.3816 92.2233 49.3332 92.3102 49.2471C92.397 49.1611 92.4459 49.0443 92.4459 48.9225V46.8879H95.1015L95.0488 49.0789C95.0488 49.3275 95.2411 49.4578 95.4919 49.4578H95.5019C95.7487 49.4578 95.9509 49.3435 95.955 49.099L96.0076 46.894H98.7016L98.5964 49.139C98.5944 49.1957 98.6043 49.2522 98.6254 49.3049C98.6465 49.3577 98.6783 49.4055 98.719 49.4454C98.7597 49.4853 98.8082 49.5165 98.8616 49.5369C98.915 49.5573 98.9721 49.5665 99.0293 49.564C99.0293 49.564 99.0435 49.542 99.0496 49.542C99.2902 49.542 99.4924 49.4317 99.5026 49.1912L99.6098 46.894H102.302L102.144 49.2012C102.141 49.2578 102.15 49.3143 102.17 49.3674C102.19 49.4205 102.22 49.469 102.26 49.5097C102.3 49.5505 102.347 49.5828 102.4 49.6045C102.453 49.6263 102.51 49.6371 102.567 49.6362C102.577 49.6362 102.587 49.6141 102.597 49.6141C102.834 49.6141 103.034 49.5099 103.048 49.2713L103.21 46.894H105.902L105.7 49.2653C105.694 49.3221 105.7 49.3794 105.719 49.4335C105.737 49.4876 105.767 49.5372 105.806 49.5789C105.846 49.6206 105.893 49.6536 105.946 49.6756C106 49.6976 106.057 49.7081 106.114 49.7063C106.126 49.7063 106.141 49.6863 106.153 49.6863C106.385 49.6863 106.584 49.5861 106.604 49.3515L106.82 46.894H109.512L109.247 49.3295C109.242 49.3857 109.249 49.4424 109.266 49.4961C109.284 49.5498 109.313 49.5992 109.351 49.6413C109.389 49.6834 109.435 49.7174 109.487 49.741C109.539 49.7646 109.595 49.7773 109.652 49.7785C109.668 49.7785 109.684 49.7585 109.7 49.7585C109.929 49.7585 110.125 49.6622 110.149 49.4317L110.422 46.894H113.628L113.011 48.9987C112.988 49.0623 112.983 49.1309 112.995 49.1973C113.007 49.2638 113.037 49.3258 113.082 49.3771C113.126 49.4284 113.183 49.4672 113.248 49.4894C113.312 49.5117 113.381 49.5167 113.448 49.5039C113.548 49.5013 113.645 49.4667 113.724 49.4053C113.802 49.3439 113.859 49.2589 113.885 49.1631L114.544 46.9C114.544 46.8699 114.557 46.9 114.559 46.9H118.335L116.86 48.8343C116.826 48.8783 116.801 48.929 116.787 48.983C116.774 49.037 116.772 49.0932 116.781 49.1481C116.791 49.203 116.812 49.2553 116.843 49.3017C116.874 49.3481 116.914 49.3876 116.961 49.4176C117.041 49.4655 117.134 49.4873 117.226 49.4798C117.368 49.4798 117.506 49.4918 117.595 49.3715L119.453 46.9H123.557C123.68 46.9 123.798 46.8516 123.885 46.7655C123.971 46.6794 124.02 46.5627 124.02 46.4409C124.02 46.3192 123.971 46.2024 123.885 46.1163C123.798 46.0302 123.68 45.9819 123.557 45.9819V45.9698Z" fill="#1C1C1A"/>
<path d="M121.965 47.2107L119.16 50.017H92.4458V50.9351H118.942V54.0562H116.903V54.9743H118.942V58.4641H116.903V59.3822H118.942V63.0545H116.903V63.9706H118.942V67.4584H116.903V68.3805H118.942V72.0528H116.903V72.9709H118.942V76.124C118.942 76.2458 118.99 76.3625 119.077 76.4486C119.164 76.5347 119.282 76.5831 119.405 76.5831C119.528 76.5831 119.645 76.5347 119.732 76.4486C119.819 76.3625 119.868 76.2458 119.868 76.124V50.6104L122.643 47.8301C122.684 47.788 122.716 47.7383 122.737 47.6839C122.758 47.6295 122.769 47.5714 122.767 47.513C122.766 47.4547 122.752 47.3972 122.728 47.3439C122.704 47.2906 122.67 47.2426 122.627 47.2027C122.537 47.1182 122.418 47.0717 122.294 47.0732C122.171 47.0747 122.053 47.124 121.965 47.2107Z" fill="#1C1C1A"/>
<path d="M82.6301 61.914L83.2794 62.5414L83.427 62.3891C83.4877 62.3249 83.5666 62.2427 83.8093 61.9882L83.162 61.3607C82.9112 61.6153 82.8304 61.6995 82.7677 61.7616C82.705 61.8238 82.7009 61.8478 82.6301 61.914Z" fill="#1C1C1A"/>
<path d="M86.6006 62.391C86.6613 62.3248 86.7382 62.2446 86.9849 61.9901L86.3417 61.3646C86.0889 61.6232 86.01 61.7054 85.9473 61.7655L85.8098 61.9058L86.461 62.5333L86.6006 62.391Z" fill="#1C1C1A"/>
<path d="M83.2794 33.3674L83.4291 33.213C83.4898 33.1489 83.5666 33.0667 83.8093 32.8121L83.162 32.1847C82.9112 32.4393 82.8304 32.5235 82.7677 32.5856L82.6301 32.7279L83.2794 33.3674Z" fill="#1C1C1A"/>
<path d="M86.6005 33.2151C86.6612 33.151 86.7381 33.0708 86.9848 32.8142L86.3356 32.1868C86.0828 32.4433 86.0039 32.5255 85.9412 32.5877L85.8057 32.728L86.4549 33.3554L86.6005 33.2151Z" fill="#1C1C1A"/>
<path d="M87.9151 47.3911C88.0296 47.3911 88.1416 47.3574 88.2368 47.2943C88.3319 47.2313 88.4061 47.1416 88.4498 47.0367C88.4935 46.9319 88.5048 46.8165 88.4824 46.7052C88.4599 46.594 88.4046 46.4918 88.3235 46.4117C88.2424 46.3316 88.1391 46.2772 88.0268 46.2553C87.9145 46.2334 87.7981 46.245 87.6924 46.2887C87.5867 46.3324 87.4965 46.4062 87.4332 46.5008C87.3698 46.5953 87.3363 46.7063 87.3367 46.8198C87.3372 46.9715 87.3984 47.1168 87.5068 47.2239C87.6153 47.331 87.762 47.3911 87.9151 47.3911Z" fill="#1C1C1A"/>
<path d="M84.7661 47.3911C84.8807 47.3915 84.9929 47.3582 85.0883 47.2953C85.1837 47.2325 85.2582 47.1429 85.3022 47.0381C85.3462 46.9333 85.3578 46.8178 85.3356 46.7065C85.3133 46.5951 85.2582 46.4927 85.1772 46.4124C85.0962 46.3321 84.9929 46.2775 84.8805 46.2554C84.7681 46.2334 84.6517 46.2449 84.5459 46.2885C84.4401 46.3322 84.3498 46.406 84.2864 46.5006C84.223 46.5951 84.1893 46.7062 84.1897 46.8198C84.1897 46.9713 84.2505 47.1166 84.3586 47.2238C84.4667 47.3309 84.6133 47.3911 84.7661 47.3911Z" fill="#1C1C1A"/>
<path d="M81.8274 47.3911C81.942 47.3915 82.054 47.3582 82.1495 47.2953C82.2449 47.2325 82.3195 47.1429 82.3635 47.0381C82.4075 46.9333 82.4191 46.8178 82.3969 46.7065C82.3746 46.5951 82.3195 46.4927 82.2385 46.4124C82.1574 46.3321 82.0542 46.2775 81.9418 46.2554C81.8294 46.2334 81.7129 46.2449 81.6071 46.2885C81.5013 46.3322 81.411 46.406 81.3476 46.5006C81.2842 46.5951 81.2506 46.7062 81.251 46.8198C81.2515 46.9711 81.3124 47.1162 81.4204 47.2232C81.5283 47.3302 81.6747 47.3906 81.8274 47.3911Z" fill="#1C1C1A"/>
<path d="M88.3684 35.6886H81.7V36.6067H88.3684V35.6886Z" fill="#1C1C1A"/>
<path d="M112.083 53.4989H111.157V75.5327H112.083V53.4989Z" fill="#1C1C1A"/>
<path d="M90.7773 33.3013V34.2194H118.381V34.953H110.325C110.203 34.953 110.085 35.0014 109.998 35.0874C109.911 35.1735 109.862 35.2903 109.862 35.412C109.862 35.5338 109.911 35.6505 109.998 35.7366C110.085 35.8227 110.203 35.8711 110.325 35.8711H118.381V37.158H90.7773V38.0761H119.577L118.938 39.0623V43.2157H119.864V39.3149L121.213 37.152H119.31V35.8651H120.24C120.363 35.8651 120.481 35.8167 120.568 35.7306C120.655 35.6446 120.703 35.5278 120.703 35.406C120.703 35.2843 120.655 35.1675 120.568 35.0814C120.481 34.9953 120.363 34.947 120.24 34.947H119.31V33.3013H90.7773Z" fill="#1C1C1A"/>
<path d="M112.269 39.9122H111.343V43.2177H112.269V39.9122Z" fill="#1C1C1A"/>
<path d="M109.304 40.8303V39.9122H93.7422V43.4001H108.748V42.482H94.6685V40.8303H109.304Z" fill="#1C1C1A"/>
<path d="M109.725 53.0398C109.725 52.9196 109.678 52.8041 109.593 52.7182C109.509 52.6322 109.393 52.5829 109.272 52.5808H92.7959C92.7387 52.5736 92.6806 52.5787 92.6255 52.5956C92.5704 52.6125 92.5196 52.6409 92.4765 52.6789C92.4334 52.7169 92.399 52.7635 92.3756 52.8157C92.3521 52.868 92.3403 52.9245 92.3408 52.9817L92.2356 70.4772C92.2344 70.5986 92.2808 70.7157 92.3649 70.8039C92.449 70.8921 92.5643 70.9446 92.6866 70.9503C92.7451 70.9522 92.8034 70.9425 92.858 70.9217C92.9126 70.9009 92.9625 70.8695 93.0047 70.8294C93.047 70.7892 93.0806 70.7411 93.1038 70.6879C93.127 70.6346 93.1391 70.5773 93.1397 70.5193L93.2408 53.5089H109.268C109.329 53.5081 109.389 53.4953 109.445 53.4713C109.502 53.4472 109.552 53.4124 109.595 53.3688C109.637 53.3252 109.671 53.2736 109.693 53.2172C109.715 53.1607 109.726 53.1004 109.725 53.0398Z" fill="#1C1C1A"/>
<path d="M94.6687 76.2664H95.595V63.5978H106.525V75.8996H107.267V62.6797H94.6687V76.2664Z" fill="#1C1C1A"/>
<path d="M109.211 56.8384C109.09 56.8384 108.974 56.8854 108.887 56.9693C108.8 57.0532 108.75 57.1674 108.748 57.2874V75.699C108.748 75.8208 108.797 75.9375 108.883 76.0236C108.97 76.1097 109.088 76.1581 109.211 76.1581C109.334 76.1581 109.452 76.1097 109.539 76.0236C109.625 75.9375 109.674 75.8208 109.674 75.699V57.2874C109.672 57.1674 109.622 57.0532 109.535 56.9693C109.448 56.8854 109.332 56.8384 109.211 56.8384Z" fill="#1C1C1A"/>
<path d="M100.807 54.3488C100.577 54.5054 100.337 54.648 100.089 54.7757C98.3599 55.7319 94.7596 57.7203 94.6686 61.543C94.6656 61.6621 94.7105 61.7774 94.7934 61.8637C94.8763 61.95 94.9904 62.0001 95.1105 62.0031C95.2307 62.006 95.3471 61.9615 95.4342 61.8793C95.5212 61.7972 95.5718 61.6841 95.5747 61.5651C95.6536 58.2556 98.9484 56.4355 100.532 55.5515C100.771 55.4192 100.971 55.3089 101.139 55.2107C104.417 57.0529 106.341 59.4342 106.43 61.7715C106.435 61.8875 106.484 61.9971 106.569 62.0774C106.653 62.1578 106.766 62.2026 106.883 62.2025H106.901C107.021 62.1978 107.134 62.1462 107.216 62.059C107.297 61.9719 107.34 61.8562 107.336 61.7375C107.233 59.0193 105.042 56.3032 101.329 54.2866C101.246 54.2419 101.152 54.2239 101.058 54.235C100.964 54.2462 100.877 54.2859 100.807 54.3488Z" fill="#1C1C1A"/>
<path d="M109.211 56.1268C109.332 56.1274 109.449 56.0805 109.536 55.9965C109.622 55.9125 109.672 55.7979 109.674 55.6778V54.3247C109.674 54.203 109.625 54.0862 109.539 54.0002C109.452 53.9141 109.334 53.8657 109.211 53.8657C109.088 53.8657 108.97 53.9141 108.883 54.0002C108.797 54.0862 108.748 54.203 108.748 54.3247V55.6778C108.75 55.7979 108.8 55.9125 108.886 55.9965C108.973 56.0805 109.09 56.1274 109.211 56.1268Z" fill="#1C1C1A"/>
<path d="M101.254 64.5117L101.001 64.3394L100.746 64.5097C100.423 64.7222 97.5709 66.6566 97.399 68.4807C97.2392 70.1525 97.4213 76.0979 97.4273 76.3424L98.3354 76.3164C98.3354 76.2543 98.1473 70.1825 98.3011 68.5649C98.4022 67.4884 100.095 66.0733 100.995 65.4318C102.085 66.2156 103.604 67.5887 103.695 68.4646C103.849 69.932 103.804 76.0317 103.804 76.0818H104.711C104.711 75.8293 104.755 69.8678 104.597 68.3544C104.423 66.7047 101.578 64.7322 101.254 64.5117Z" fill="#1C1C1A"/>
<path d="M76.8841 45.9719H75.9578V68.7394H76.8841V45.9719Z" fill="#1C1C1A"/>
<path d="M104.658 35.8711C104.781 35.8711 104.899 35.8227 104.986 35.7366C105.072 35.6505 105.121 35.5338 105.121 35.412C105.121 35.2903 105.072 35.1735 104.986 35.0874C104.899 35.0014 104.781 34.953 104.658 34.953H95.0508C94.928 34.953 94.8102 35.0014 94.7233 35.0874C94.6365 35.1735 94.5876 35.2903 94.5876 35.412C94.5876 35.5338 94.6365 35.6505 94.7233 35.7366C94.8102 35.8227 94.928 35.8711 95.0508 35.8711H104.658Z" fill="#1C1C1A"/>
<path d="M107.138 35.8711C107.261 35.8711 107.379 35.8227 107.465 35.7366C107.552 35.6505 107.601 35.5338 107.601 35.412C107.601 35.2903 107.552 35.1735 107.465 35.0874C107.379 35.0014 107.261 34.953 107.138 34.953H106.758C106.635 34.953 106.517 35.0014 106.43 35.0874C106.343 35.1735 106.294 35.2903 106.294 35.412C106.294 35.5338 106.343 35.6505 106.43 35.7366C106.517 35.8227 106.635 35.8711 106.758 35.8711H107.138Z" fill="#1C1C1A"/>
<path d="M115.788 54.0502H115.048V54.9682H115.788V54.0502Z" fill="#1C1C1A"/>
<path d="M115.788 58.4561H115.048V59.3741H115.788V58.4561Z" fill="#1C1C1A"/>
<path d="M115.788 63.0465H114.862V63.9646H115.788V63.0465Z" fill="#1C1C1A"/>
<path d="M115.788 67.4524H114.862V68.3705H115.788V67.4524Z" fill="#1C1C1A"/>
<path d="M115.602 72.0427H114.862V72.9608H115.602V72.0427Z" fill="#1C1C1A"/>
<path d="M9.44957 54.7838H8.33716V55.7019H9.44957V54.7838Z" fill="#1C1C1A"/>
<path d="M9.44957 59.1918H8.33716V60.1098H9.44957V59.1918Z" fill="#1C1C1A"/>
<path d="M9.44733 63.7802H8.521V64.6982H9.44733V63.7802Z" fill="#1C1C1A"/>
<path d="M7.22465 64.6983V63.7822H4.63171V60.1079H7.22465V59.1918H4.63171V55.7019H7.22465V54.7839H4.63171V51.296H31.1234V50.3779H4.40923L1.60392 47.5515L1.02344 48.1649L3.88943 50.9231V76.4508H4.63171V64.6983H7.22465Z" fill="#1C1C1A"/>
<path d="M9.44733 68.1881H8.521V69.1062H9.44733V68.1881Z" fill="#1C1C1A"/>
<path d="M7.41061 68.1881H4.63159V69.1062H7.41061V68.1881Z" fill="#1C1C1A"/>
<path d="M9.44733 72.7784H8.521V73.5121H9.44733V72.7784Z" fill="#1C1C1A"/>
<path d="M7.41061 72.7784H4.63159V73.5121H7.41061V72.7784Z" fill="#1C1C1A"/>
<path d="M50.3905 46.5312H49.5592C49.4364 46.5312 49.3185 46.5796 49.2316 46.6656C49.1448 46.7517 49.096 46.8685 49.096 46.9903C49.096 47.112 49.1448 47.2287 49.2316 47.3148C49.3185 47.4009 49.4364 47.4493 49.5592 47.4493H54.5205C54.6434 47.4493 54.7612 47.4009 54.848 47.3148C54.9349 47.2287 54.9837 47.112 54.9837 46.9903C54.9837 46.8685 54.9349 46.7517 54.848 46.6656C54.7612 46.5796 54.6434 46.5312 54.5205 46.5312H51.3168V45.2463H53.3737C53.4966 45.2463 53.6144 45.1979 53.7012 45.1118C53.7881 45.0257 53.8369 44.909 53.8369 44.7873C53.8369 44.6655 53.7881 44.5487 53.7012 44.4627C53.6144 44.3766 53.4966 44.3282 53.3737 44.3282H48.3497V43.0153C48.3419 42.899 48.2899 42.7901 48.204 42.7105C48.1182 42.6309 48.0051 42.5865 47.8875 42.5865C47.77 42.5865 47.6568 42.6309 47.571 42.7105C47.4852 42.7901 47.4331 42.899 47.4253 43.0153V44.3262H46.6993C46.5764 44.3262 46.4586 44.3746 46.3718 44.4607C46.2849 44.5467 46.2361 44.6635 46.2361 44.7853C46.2361 44.907 46.2849 45.0237 46.3718 45.1098C46.4586 45.1959 46.5764 45.2443 46.6993 45.2443H50.3905V46.5312Z" fill="#1C1C1A"/>
<path d="M51.7313 48.9987C51.7313 48.8783 51.6837 48.7628 51.5985 48.6769C51.5134 48.591 51.3976 48.5418 51.2762 48.5397H48.7015C48.5786 48.5397 48.4608 48.588 48.374 48.6741C48.2871 48.7602 48.2383 48.877 48.2383 48.9987C48.2383 49.1205 48.2871 49.2372 48.374 49.3233C48.4608 49.4094 48.5786 49.4578 48.7015 49.4578H51.2762C51.3976 49.4557 51.5134 49.4063 51.5985 49.3205C51.6837 49.2346 51.7313 49.1191 51.7313 48.9987Z" fill="#1C1C1A"/>
<path d="M55.8553 46.3828C55.9766 46.3833 56.0932 46.3365 56.1799 46.2525C56.2665 46.1684 56.3164 46.0539 56.3185 45.9338V45.2362H57.0951C57.218 45.2362 57.3358 45.1879 57.4226 45.1018C57.5095 45.0157 57.5583 44.8989 57.5583 44.7772C57.5583 44.6554 57.5095 44.5386 57.4226 44.4525C57.3358 44.3665 57.218 44.3181 57.0951 44.3181H54.6155C54.4927 44.3181 54.3748 44.3665 54.2879 44.4525C54.2011 44.5386 54.1523 44.6554 54.1523 44.7772C54.1523 44.8989 54.2011 45.0157 54.2879 45.1018C54.3748 45.1879 54.4927 45.2362 54.6155 45.2362H55.3962V45.9298C55.3973 46.0499 55.4461 46.1648 55.532 46.2496C55.6179 46.3344 55.7341 46.3823 55.8553 46.3828Z" fill="#1C1C1A"/>
<path d="M67.0847 30.3626H68.4843C68.4661 30.3626 68.547 30.2443 68.547 30.2984V31.3929C68.542 31.4491 68.5487 31.5057 68.5667 31.5592C68.5846 31.6127 68.6134 31.6621 68.6513 31.7042C68.6892 31.7462 68.7353 31.7801 68.787 31.8038C68.8386 31.8275 68.8946 31.8405 68.9515 31.8419C68.9657 31.8419 68.9515 31.8099 68.9697 31.8079C68.9709 31.8617 68.9832 31.9148 69.0056 31.9639C69.0281 32.013 69.0602 32.0571 69.1002 32.0936C69.1403 32.1301 69.1874 32.1582 69.2386 32.1763C69.2899 32.1943 69.3442 32.202 69.3985 32.1987H75.0476C75.1704 32.1987 75.2882 32.1504 75.3751 32.0643C75.4619 31.9782 75.5108 31.8614 75.5108 31.7397C75.5108 31.6179 75.4619 31.5012 75.3751 31.4151C75.2882 31.329 75.1704 31.2806 75.0476 31.2806H69.3985C69.3843 31.2806 69.4713 31.3609 69.4713 31.3629V30.2944C69.4713 30.2403 69.348 30.3586 69.3298 30.3586H76.3077C76.4305 30.3586 76.5483 30.3102 76.6351 30.2241C76.722 30.138 76.7708 30.0213 76.7708 29.8995C76.7708 29.7778 76.722 29.661 76.6351 29.5749C76.5483 29.4888 76.4305 29.4405 76.3077 29.4405H72.0602V27.9732H73.9331C74.0559 27.9732 74.1737 27.9248 74.2606 27.8387C74.3474 27.7526 74.3963 27.6359 74.3963 27.5141C74.3963 27.3924 74.3474 27.2756 74.2606 27.1896C74.1737 27.1035 74.0559 27.0551 73.9331 27.0551H69.2812V25.3032C69.2812 25.1814 69.2324 25.0646 69.1456 24.9786C69.0587 24.8925 68.9408 24.8441 68.818 24.8441C68.6952 24.8441 68.5774 24.8925 68.4905 24.9786C68.4036 25.0646 68.3548 25.1814 68.3548 25.3032V27.0551H67.4487C67.3259 27.0551 67.2081 27.1035 67.1212 27.1896C67.0344 27.2756 66.9855 27.3924 66.9855 27.5141C66.9855 27.6359 67.0344 27.7526 67.1212 27.8387C67.2081 27.9248 67.3259 27.9732 67.4487 27.9732H71.1339V29.4405H67.0786C66.9557 29.4405 66.8379 29.4888 66.7511 29.5749C66.6642 29.661 66.6155 29.7778 66.6155 29.8995C66.6155 30.0213 66.6642 30.138 66.7511 30.2241C66.8379 30.3102 66.9557 30.3586 67.0786 30.3586L67.0847 30.3626Z" fill="#1C1C1A"/>
<path d="M75.1448 27.0592C75.022 27.0592 74.9041 27.1076 74.8172 27.1936C74.7304 27.2797 74.6816 27.3965 74.6816 27.5182C74.6816 27.6399 74.7304 27.7567 74.8172 27.8428C74.9041 27.9289 75.022 27.9772 75.1448 27.9772H75.9538V28.7791C75.9538 28.9008 76.0026 29.0176 76.0894 29.1037C76.1763 29.1898 76.2942 29.2381 76.417 29.2381C76.5399 29.2381 76.6576 29.1898 76.7445 29.1037C76.8314 29.0176 76.8802 28.9008 76.8802 28.7791V27.9772H77.5496C77.6724 27.9772 77.7903 27.9289 77.8772 27.8428C77.964 27.7567 78.0128 27.6399 78.0128 27.5182C78.0128 27.3965 77.964 27.2797 77.8772 27.1936C77.7903 27.1076 77.6724 27.0592 77.5496 27.0592H75.1448Z" fill="#1C1C1A"/>
<path d="M53.5133 29.8134H50.7606V28.5265H52.5161C52.6389 28.5265 52.7568 28.4781 52.8437 28.392C52.9305 28.3059 52.9793 28.1892 52.9793 28.0674C52.9793 27.9457 52.9305 27.8289 52.8437 27.7429C52.7568 27.6568 52.6389 27.6084 52.5161 27.6084H47.9815V25.9306C47.9815 25.8089 47.9328 25.6921 47.8459 25.606C47.7591 25.52 47.6412 25.4716 47.5183 25.4716C47.3955 25.4716 47.2777 25.52 47.1908 25.606C47.104 25.6921 47.0552 25.8089 47.0552 25.9306V27.6084H46.3433C46.2205 27.6084 46.1026 27.6568 46.0157 27.7429C45.9289 27.8289 45.8801 27.9457 45.8801 28.0674C45.8801 28.1892 45.9289 28.3059 46.0157 28.392C46.1026 28.4781 46.2205 28.5265 46.3433 28.5265H49.8342V29.8134H47.8804C47.7575 29.8134 47.6398 29.8618 47.5529 29.9478C47.466 30.0339 47.4172 30.1507 47.4172 30.2724C47.4172 30.3942 47.466 30.5109 47.5529 30.597C47.6398 30.6831 47.7575 30.7315 47.8804 30.7315H53.5133C53.6361 30.7315 53.7539 30.6831 53.8407 30.597C53.9276 30.5109 53.9764 30.3942 53.9764 30.2724C53.9764 30.1507 53.9276 30.0339 53.8407 29.9478C53.7539 29.8618 53.6361 29.8134 53.5133 29.8134Z" fill="#1C1C1A"/>
<path d="M55.9565 27.6084H53.6629C53.54 27.6084 53.4222 27.6567 53.3353 27.7428C53.2484 27.8289 53.1997 27.9457 53.1997 28.0674C53.1997 28.1891 53.2484 28.3059 53.3353 28.392C53.4222 28.4781 53.54 28.5264 53.6629 28.5264H54.4719V29.234C54.4719 29.4826 54.5932 29.6831 54.842 29.6831C55.0907 29.6831 55.2142 29.4826 55.2142 29.234V28.5264H55.9625C56.0853 28.5264 56.2032 28.4781 56.2901 28.392C56.3769 28.3059 56.4257 28.1891 56.4257 28.0674C56.4257 27.9457 56.3769 27.8289 56.2901 27.7428C56.2032 27.6567 56.0853 27.6084 55.9625 27.6084H55.9565Z" fill="#1C1C1A"/>
</g>
<defs>
<clipPath id="clip0_87_43468">
<rect width="124" height="77" fill="white"/>
</clipPath>
</defs>
</svg>
