<svg preserveAspectRatio="xMidYMax meet" width="124" height="34" viewBox="0 0 124 34" fill="none" xmlns="http://www.w3.org/2000/svg">
<g clip-path="url(#clip0_87_43566)">
<path d="M0.574823 34H0V19.7371H0.719678V19H6.1759V19.7371H6.89557V25.8989H12V26.4802H6.32075V20.3184H5.60107V19.5813H1.2945V20.3184H0.574823V34Z" fill="#1C1C1A"/>
<path d="M121.217 25.432H120.748V19.3902C120.252 19.3241 118.902 19.2354 118.435 20.187L118.014 19.9774C118.752 18.4802 120.94 18.9409 121.033 18.9598L121.221 19.0013L121.217 25.432Z" fill="#1C1C1A"/>
<path d="M121.217 17.2738H120.748V19.1958H121.217V17.2738Z" fill="#1C1C1A"/>
<path d="M123.532 20.1927C122.954 19.0202 121.052 19.4224 121.034 19.4281L120.932 18.9655C121.026 18.9466 123.213 18.4859 123.953 19.9832L123.532 20.1927Z" fill="#1C1C1A"/>
<path d="M119.811 20.5306L119.396 20.3078C119.742 19.6527 120.579 19.1505 120.814 19.0202C121.018 18.686 122.029 17.253 123.835 18.0365L123.647 18.4708C122.017 17.7627 121.221 19.243 121.189 19.3053L121.155 19.3714L121.09 19.4053C121.082 19.411 120.138 19.9095 119.811 20.5306Z" fill="#1C1C1A"/>
<path d="M122.154 20.5287C121.828 19.9095 120.885 19.411 120.876 19.4053L120.81 19.3714L120.774 19.3053C120.742 19.243 119.939 17.7665 118.317 18.4708L118.129 18.0365C119.935 17.253 120.945 18.686 121.15 19.0202C121.384 19.1505 122.222 19.6527 122.567 20.3078L122.154 20.5287Z" fill="#1C1C1A"/>
<path d="M124 34H123.531V25.6681H118.493V12.2988H113.801V24.439H112.498V23.9669H113.332V11.8268H118.963V25.1961H124V34Z" fill="#1C1C1A"/>
<path d="M33 34H32.5245V5.34178H30.6075V0.569972H23.8579V14.8877H18.3882V17.1698H16.4845V19.6709H12.4755V34H12V19.1009H16.0091V16.5999H17.9128V14.3177H23.3824V0H31.083V4.77181H33V34Z" fill="#1C1C1A"/>
<path d="M113 34H112.53V6.50126H109.073V8.98442H108.067V12.4982H107.108V15.736H104.579V14.6351H103.047V5.67624H99.3491V17.478H97.2039V13.9102H95.9575V13.1879H93.7936V14.1834H92.47V34H92V13.5071H93.3235V12.5117H96.4275V13.2339H97.6739V16.8018H98.8791V5H103.517V13.9589H105.049V15.0598H106.638V11.8219H107.597V8.30818H108.603V5.82502H113V34Z" fill="#1C1C1A"/>
<path d="M63.0053 19.9737C58.7678 19.9737 54.7556 17.4437 51.4061 12.6593C49.8447 10.4023 48.5647 7.96101 47.5947 5.39035L48.0378 5.23364C48.0885 5.37525 53.1202 19.5016 63.0053 19.5016V19.9737Z" fill="#1C1C1A"/>
<path d="M67.6749 19.9736C59.0233 19.9736 54.0254 9.65732 52.698 6.49484L53.1317 6.30603C54.429 9.40054 59.3125 19.4959 67.6749 19.4959V19.9736Z" fill="#1C1C1A"/>
<path d="M91.7707 20.7233H32.8677V21.1953H91.7707V20.7233Z" fill="#1C1C1A"/>
<path d="M38.1679 18.2537C36.3085 18.2566 34.4639 17.9215 32.7231 17.2643L32.8884 16.8225C34.5786 17.461 36.3699 17.7859 38.1754 17.7817C41.6504 17.8025 45.0194 16.5791 47.6794 14.3303L47.9835 14.6891C45.2366 17.012 41.757 18.2756 38.1679 18.2537Z" fill="#1C1C1A"/>
<path d="M33.5849 17.6967C33.3164 17.6967 33.0442 17.6967 32.7776 17.6759L32.802 17.2039C33.0611 17.2171 33.3239 17.2247 33.5849 17.2247C37.0752 17.2466 40.4582 16.0123 43.1227 13.745C45.7061 11.519 47.287 8.50189 47.578 5.24878L48.0455 5.29031C47.7432 8.66614 46.1041 11.7965 43.4287 14.1037C40.6779 16.4418 37.1866 17.7141 33.5849 17.691V17.6967Z" fill="#1C1C1A"/>
<path d="M48.8339 34H48.3645V17.1208C48.3645 17.0582 48.3893 16.9982 48.4333 16.9539C48.4773 16.9097 48.537 16.8848 48.5992 16.8848H52.0933C52.1242 16.8846 52.1548 16.8905 52.1834 16.9023C52.212 16.914 52.2379 16.9314 52.2598 16.9534C52.2816 16.9753 52.2989 17.0014 52.3106 17.0302C52.3223 17.0589 52.3282 17.0898 52.328 17.1208V34H51.8586V17.3568H48.8339V34ZM48.0509 34.0359H47.5815L47.5816 2.82072C47.5816 2.75813 47.6063 2.69811 47.6503 2.65385C47.6944 2.60959 47.754 2.58472 47.8163 2.58472H48.5992C48.6615 2.58472 48.7211 2.60959 48.7652 2.65385C48.8092 2.69811 48.8339 2.75813 48.8339 2.82072V3.88559H51.8586V2.82072C51.8586 2.75813 51.8833 2.69811 51.9273 2.65385C51.9713 2.60959 52.031 2.58472 52.0933 2.58472H52.8781C52.9403 2.58472 53 2.60959 53.044 2.65385C53.088 2.69811 53.1127 2.75813 53.1127 2.82072L53.1127 34H52.6433L52.6434 3.05673H52.328V4.12159C52.3282 4.15265 52.3223 4.18346 52.3106 4.2122C52.2989 4.24095 52.2816 4.26707 52.2598 4.28903C52.2379 4.311 52.212 4.32838 52.1834 4.34015C52.1548 4.35192 52.1242 4.35785 52.0933 4.3576H48.5992C48.537 4.3576 48.4773 4.33274 48.4333 4.28848C48.3893 4.24422 48.3645 4.18418 48.3645 4.12159V3.05673H48.051L48.0509 34.0359ZM52.0933 16.6677H48.5992C48.537 16.6677 48.4773 16.6428 48.4333 16.5986C48.3893 16.5543 48.3645 16.4943 48.3645 16.4317V13.0181C48.3645 12.9555 48.3893 12.8955 48.4333 12.8512C48.4773 12.8069 48.537 12.7821 48.5992 12.7821H52.0933C52.1242 12.7818 52.1548 12.7878 52.1834 12.7995C52.212 12.8113 52.2379 12.8287 52.2598 12.8506C52.2816 12.8726 52.2989 12.8987 52.3106 12.9275C52.3223 12.9562 52.3282 12.987 52.328 13.0181V16.4317C52.3282 16.4627 52.3223 16.4935 52.3106 16.5223C52.2989 16.551 52.2816 16.5771 52.2598 16.5991C52.2379 16.6211 52.212 16.6384 52.1834 16.6502C52.1548 16.662 52.1242 16.6679 52.0933 16.6677ZM48.8339 16.1957H51.8586V13.2541H48.8339V16.1957ZM52.0933 12.565H48.5992C48.537 12.565 48.4773 12.5401 48.4333 12.4958C48.3893 12.4516 48.3645 12.3915 48.3645 12.3289V8.91346C48.3645 8.85087 48.3893 8.79084 48.4333 8.74659C48.4773 8.70233 48.537 8.67745 48.5992 8.67745H52.0933C52.1242 8.6772 52.1548 8.68314 52.1834 8.69491C52.212 8.70668 52.2379 8.72406 52.2598 8.74602C52.2816 8.76799 52.2989 8.7941 52.3106 8.82285C52.3223 8.8516 52.3282 8.8824 52.328 8.91346V12.3289C52.3282 12.36 52.3223 12.3908 52.3106 12.4196C52.2989 12.4483 52.2816 12.4744 52.2598 12.4964C52.2379 12.5184 52.212 12.5357 52.1834 12.5475C52.1548 12.5593 52.1242 12.5652 52.0933 12.565ZM48.8339 12.0929H51.8586V9.14947H48.8339V12.0929ZM52.0933 8.46032H48.5992C48.537 8.46032 48.4773 8.43546 48.4333 8.3912C48.3893 8.34695 48.3645 8.28691 48.3645 8.22432V4.81073C48.3645 4.74814 48.3893 4.68811 48.4333 4.64385C48.4773 4.59959 48.537 4.57473 48.5992 4.57473H52.0933C52.1242 4.57448 52.1548 4.5804 52.1834 4.59217C52.212 4.60395 52.2379 4.62133 52.2598 4.64329C52.2816 4.66526 52.2989 4.69138 52.3106 4.72012C52.3223 4.74887 52.3282 4.77967 52.328 4.81073V8.22432C52.3282 8.25538 52.3223 8.28619 52.3106 8.31494C52.2989 8.34369 52.2816 8.3698 52.2598 8.39177C52.2379 8.41373 52.212 8.43111 52.1834 8.44288C52.1548 8.45465 52.1242 8.46058 52.0933 8.46032ZM48.8339 7.98831H51.8586V5.04674H48.8339V7.98831Z" fill="#1C1C1A"/>
<path d="M66.9895 19.9737V19.5016C76.8783 19.5016 81.9063 5.37525 81.957 5.23364L82.4001 5.39035C81.4301 7.96101 80.1501 10.4023 78.5888 12.6593C75.2374 17.4437 71.227 19.9737 66.9895 19.9737Z" fill="#1C1C1A"/>
<path d="M62.3201 19.9737V19.5017C70.6825 19.5017 75.5659 9.40628 76.8632 6.31177L77.2969 6.50057C75.9696 9.65739 70.9716 19.9737 62.3201 19.9737Z" fill="#1C1C1A"/>
<path d="M91.8345 18.2537C88.248 18.2738 84.7714 17.0103 82.0264 14.6891L82.3305 14.3303C84.9905 16.5791 88.3595 17.8025 91.8345 17.7817V18.2537Z" fill="#1C1C1A"/>
<path d="M91.6993 16.9698C86.2545 15.2271 82.4207 10.6429 81.9363 5.29031L82.4038 5.24878C82.8638 10.4107 86.5662 14.8344 91.8345 16.5185L91.6993 16.9698Z" fill="#1C1C1A"/>
<path d="M81.6284 34H81.1628V17.3568H78.1381V34H77.6688V17.1208C77.6688 17.0582 77.6935 16.9982 77.7375 16.9539C77.7815 16.9097 77.8412 16.8848 77.9035 16.8848H81.3975C81.4284 16.8846 81.459 16.8905 81.4876 16.9023C81.5162 16.914 81.5422 16.9314 81.564 16.9534C81.5859 16.9753 81.6031 17.0015 81.6149 17.0302C81.6266 17.0589 81.6325 17.0898 81.6322 17.1208L81.6284 34ZM77.3515 34H76.8821V2.82072C76.8821 2.75813 76.9068 2.69811 76.9508 2.65385C76.9948 2.60959 77.0545 2.58472 77.1168 2.58472H77.8997C77.9619 2.58472 78.0216 2.60959 78.0657 2.65385C78.1097 2.69811 78.1344 2.75813 78.1344 2.82072V3.88559H81.1628V2.82072C81.1628 2.75813 81.1875 2.69811 81.2316 2.65385C81.2756 2.60959 81.3353 2.58472 81.3975 2.58472H82.1823C82.2446 2.58472 82.3042 2.60959 82.3483 2.65385C82.3923 2.69811 82.417 2.75813 82.417 2.82072V34H81.9476L81.9476 3.05673H81.6322V4.12159C81.6325 4.15266 81.6266 4.18346 81.6149 4.2122C81.6031 4.24095 81.5859 4.26707 81.564 4.28903C81.5422 4.311 81.5162 4.32838 81.4876 4.34015C81.459 4.35192 81.4284 4.35785 81.3975 4.3576H77.9035C77.8412 4.3576 77.7815 4.33274 77.7375 4.28848C77.6935 4.24422 77.6688 4.18419 77.6688 4.12159V3.05673H77.3552L77.3515 34ZM81.3938 16.6715H77.8997C77.8375 16.6715 77.7778 16.6466 77.7337 16.6023C77.6897 16.5581 77.665 16.4981 77.665 16.4355V13.0181C77.665 12.9555 77.6897 12.8955 77.7337 12.8512C77.7778 12.8069 77.8375 12.7821 77.8997 12.7821H81.3938C81.4246 12.7818 81.4553 12.7878 81.4839 12.7995C81.5125 12.8113 81.5384 12.8287 81.5603 12.8506C81.5821 12.8726 81.5994 12.8987 81.6111 12.9275C81.6228 12.9562 81.6287 12.987 81.6284 13.0181V16.4317C81.6287 16.4627 81.6228 16.4935 81.6111 16.5223C81.5994 16.551 81.5821 16.5772 81.5603 16.5991C81.5384 16.6211 81.5125 16.6385 81.4839 16.6502C81.4553 16.662 81.4246 16.6679 81.3938 16.6677V16.6715ZM78.1344 16.1995H81.1628V13.2541H78.1381L78.1344 16.1995ZM81.3938 12.5687H77.8997C77.8375 12.5687 77.7778 12.5439 77.7337 12.4996C77.6897 12.4553 77.665 12.3953 77.665 12.3327V8.91346C77.665 8.85087 77.6897 8.79085 77.7337 8.74659C77.7778 8.70233 77.8375 8.67746 77.8997 8.67746H81.3938C81.4246 8.67721 81.4553 8.68315 81.4839 8.69492C81.5125 8.70669 81.5384 8.72406 81.5603 8.74602C81.5821 8.76799 81.5994 8.79411 81.6111 8.82285C81.6228 8.8516 81.6287 8.8824 81.6284 8.91346V12.329C81.6287 12.36 81.6228 12.3908 81.6111 12.4196C81.5994 12.4483 81.5821 12.4744 81.5603 12.4964C81.5384 12.5184 81.5125 12.5357 81.4839 12.5475C81.4553 12.5593 81.4246 12.5652 81.3938 12.565V12.5687ZM78.1344 12.0967H81.1628V9.14947H78.1381L78.1344 12.0967ZM81.3938 8.46411H77.8997C77.8375 8.46411 77.7778 8.43925 77.7337 8.39499C77.6897 8.35073 77.665 8.29069 77.665 8.2281V4.81074C77.665 4.74814 77.6897 4.68811 77.7337 4.64385C77.7778 4.59959 77.8375 4.57473 77.8997 4.57473H81.3938C81.4246 4.57448 81.4553 4.5804 81.4839 4.59218C81.5125 4.60395 81.5384 4.62133 81.5603 4.6433C81.5821 4.66526 81.5994 4.69138 81.6111 4.72012C81.6228 4.74887 81.6287 4.77967 81.6284 4.81074V8.22432C81.6287 8.25538 81.6228 8.2862 81.6111 8.31494C81.5994 8.34369 81.5821 8.36981 81.5603 8.39177C81.5384 8.41374 81.5125 8.43111 81.4839 8.44288C81.4553 8.45465 81.4246 8.46058 81.3938 8.46033V8.46411ZM78.1344 7.99209H81.1628V5.04674H78.1381L78.1344 7.99209Z" fill="#1C1C1A"/>
</g>
<defs>
<clipPath id="clip0_87_43566">
<rect width="124" height="34" fill="white"/>
</clipPath>
</defs>
</svg>
