<svg preserveAspectRatio="xMidYMax meet" width="124" height="46" viewBox="0 0 124 46" fill="none" xmlns="http://www.w3.org/2000/svg">
<g clip-path="url(#clip0_87_43624)">
<path d="M100.716 43.1291C100.378 43.1286 100.046 43.0344 99.756 42.8566C99.4663 42.6789 99.2299 42.4243 99.0723 42.1203C98.9151 42.4243 98.6791 42.6789 98.3896 42.8567C98.1001 43.0345 97.7683 43.1286 97.4299 43.1291C97.0917 43.1288 96.76 43.0349 96.4705 42.8574C96.1811 42.68 95.9449 42.4257 95.7875 42.1221C95.6294 42.4259 95.3926 42.6802 95.1026 42.8576C94.8125 43.035 94.4803 43.1289 94.1416 43.1291C93.8035 43.1286 93.4718 43.0346 93.1824 42.8572C92.893 42.6797 92.6568 42.4256 92.4993 42.1221C92.3416 42.4259 92.1051 42.6802 91.8154 42.8576C91.5256 43.0351 91.1936 43.1289 90.8551 43.1291C90.517 43.1286 90.1853 43.0346 89.8959 42.8572C89.6065 42.6797 89.3703 42.4256 89.2128 42.1221C89.0552 42.4256 88.819 42.6797 88.5296 42.8572C88.2402 43.0346 87.9086 43.1286 87.5704 43.1291C87.2319 43.1289 86.8999 43.0351 86.6102 42.8576C86.3204 42.6802 86.084 42.4259 85.9263 42.1221C85.7686 42.4259 85.5321 42.6802 85.2423 42.8576C84.9526 43.0351 84.6206 43.1289 84.2821 43.1291C83.9438 43.1284 83.612 43.0342 83.3226 42.8564C83.0332 42.6787 82.7971 42.4242 82.6398 42.1203C82.4821 42.4243 82.2457 42.6789 81.956 42.8566C81.6663 43.0344 81.3342 43.1286 80.9956 43.1291C80.6572 43.1286 80.3254 43.0345 80.0359 42.8567C79.7465 42.6789 79.5104 42.4243 79.3532 42.1203C79.1956 42.4243 78.9592 42.6789 78.6695 42.8566C78.3798 43.0344 78.0477 43.1286 77.7091 43.1291C77.3709 43.129 77.0391 43.0352 76.7496 42.8577C76.4601 42.6802 76.224 42.4259 76.0667 42.1221C75.9087 42.4256 75.6722 42.6797 75.3825 42.8571C75.0929 43.0345 74.761 43.1286 74.4226 43.1291V42.6827C74.7968 42.6823 75.1556 42.5319 75.421 42.2644C75.6864 41.9969 75.8369 41.6339 75.8397 41.2544C75.8397 41.1952 75.8628 41.1385 75.9041 41.0966C75.9454 41.0548 76.0013 41.0313 76.0597 41.0313C76.1194 41.0307 76.1769 41.0537 76.2203 41.0953C76.2636 41.1369 76.2893 41.194 76.2921 41.2544C76.2948 41.6339 76.4453 41.9969 76.7107 42.2644C76.9761 42.5319 77.335 42.6823 77.7091 42.6827C78.0818 42.6799 78.4383 42.5285 78.7018 42.2613C78.9653 41.994 79.1146 41.6324 79.1174 41.2544C79.1174 41.1952 79.1405 41.1385 79.1818 41.0966C79.2231 41.0548 79.279 41.0313 79.3374 41.0313C79.3974 41.0307 79.4554 41.0535 79.4993 41.0951C79.5432 41.1366 79.5697 41.1937 79.5733 41.2544C79.576 41.6324 79.7253 41.994 79.9888 42.2613C80.2523 42.5285 80.6089 42.6799 80.9815 42.6827C81.3557 42.6823 81.7145 42.5319 81.9799 42.2644C82.2453 41.9969 82.3958 41.6339 82.3986 41.2544C82.3986 41.1952 82.4218 41.1385 82.463 41.0966C82.5043 41.0548 82.5603 41.0313 82.6186 41.0313C82.6785 41.0307 82.7362 41.0536 82.7798 41.0952C82.8235 41.1368 82.8496 41.1938 82.8528 41.2544C82.8555 41.6324 83.0048 41.994 83.2683 42.2613C83.5318 42.5285 83.8884 42.6799 84.261 42.6827C84.6352 42.6823 84.994 42.5319 85.2594 42.2644C85.5248 41.9969 85.6753 41.6339 85.6781 41.2544C85.6781 41.1952 85.7012 41.1385 85.7425 41.0966C85.7838 41.0548 85.8397 41.0313 85.8981 41.0313C85.9578 41.0307 86.0153 41.0537 86.0587 41.0953C86.102 41.1369 86.1277 41.194 86.1305 41.2544C86.1337 41.6341 86.2846 41.9971 86.5502 42.2645C86.8159 42.532 87.1749 42.6823 87.5493 42.6827C87.9219 42.6799 88.2785 42.5285 88.542 42.2613C88.8055 41.994 88.9548 41.6324 88.9575 41.2544C88.9575 41.1952 88.9807 41.1385 89.022 41.0966C89.0632 41.0548 89.1192 41.0313 89.1776 41.0313C89.2374 41.0307 89.2952 41.0536 89.3388 41.0952C89.3824 41.1368 89.4085 41.1938 89.4117 41.2544C89.4144 41.6324 89.5637 41.994 89.8272 42.2613C90.0907 42.5285 90.4473 42.6799 90.8199 42.6827C91.1943 42.6823 91.5533 42.532 91.819 42.2645C92.0846 41.9971 92.2355 41.6341 92.2387 41.2544C92.2387 41.1952 92.2619 41.1385 92.3032 41.0966C92.3445 41.0548 92.4004 41.0313 92.4588 41.0313C92.5185 41.0307 92.576 41.0537 92.6193 41.0953C92.6627 41.1369 92.6884 41.194 92.6911 41.2544C92.6939 41.6324 92.8432 41.994 93.1067 42.2613C93.3702 42.5285 93.7268 42.6799 94.0994 42.6827C94.4739 42.6827 94.8332 42.5326 95.0989 42.265C95.3647 41.9975 95.5154 41.6342 95.5182 41.2544C95.5182 41.1952 95.5414 41.1385 95.5827 41.0966C95.6239 41.0548 95.6799 41.0313 95.7382 41.0313C95.7979 41.0307 95.8555 41.0537 95.8988 41.0953C95.9421 41.1369 95.9679 41.194 95.9706 41.2544C95.9734 41.6324 96.1226 41.994 96.3861 42.2613C96.6496 42.5285 97.0062 42.6799 97.3789 42.6827C97.7515 42.6799 98.1081 42.5285 98.3716 42.2613C98.6351 41.994 98.7843 41.6324 98.7871 41.2544C98.7871 41.1952 98.8103 41.1385 98.8516 41.0966C98.8928 41.0548 98.9488 41.0313 99.0072 41.0313C99.0672 41.0307 99.1251 41.0535 99.169 41.0951C99.2129 41.1366 99.2394 41.1937 99.243 41.2544C99.2458 41.6324 99.3951 41.994 99.6586 42.2613C99.9221 42.5285 100.279 42.6799 100.651 42.6827L100.716 43.1291Z" fill="black"/>
<path d="M68.3283 42.2507H54.5503C54.5079 42.2507 54.4664 42.2382 54.4307 42.2148C54.3951 42.1913 54.367 42.1579 54.3497 42.1186C54.3327 42.0791 54.3275 42.0354 54.3347 41.9929C54.3419 41.9504 54.3612 41.9109 54.3901 41.8794C54.3901 41.8794 55.0943 41.0635 55.992 38.996C56.8159 37.1107 57.99 33.7649 58.9247 28.5016C58.9027 28.4778 58.8854 28.4499 58.8737 28.4195L58.0692 26.1985C58.0572 26.1646 58.0533 26.1283 58.0579 26.0926C58.0625 26.0569 58.0754 26.0228 58.0956 25.9932C58.1156 25.9646 58.142 25.9411 58.1725 25.9247C58.2031 25.9083 58.237 25.8993 58.2716 25.8986H59.3384C60.1288 20.4496 60.5283 14.1151 60.5301 7.07007C60.5301 7.02178 60.5455 6.97479 60.5741 6.93616C60.6027 6.89753 60.6428 6.86934 60.6885 6.85582V4.76515C60.6885 4.70597 60.7117 4.6492 60.753 4.60735C60.7942 4.5655 60.8502 4.54198 60.9086 4.54198V2.48702C60.9089 2.43362 60.928 2.38209 60.9626 2.34179C60.9972 2.3015 61.0448 2.27511 61.0969 2.26742V0.223178C61.0967 0.193805 61.1022 0.164679 61.1132 0.137495C61.1242 0.110311 61.1404 0.08561 61.1608 0.0648391C61.1813 0.0440682 61.2057 0.027642 61.2325 0.0165108C61.2593 0.00537964 61.288 -0.000230596 61.317 7.25827e-06H61.537C61.5955 -0.000184476 61.6517 0.0228879 61.6937 0.0642779C61.7345 0.106794 61.7572 0.163843 61.757 0.223178V2.26742C61.8037 2.27409 61.847 2.29603 61.8803 2.32991C61.9009 2.35037 61.9173 2.37482 61.9285 2.4018C61.9397 2.42878 61.9454 2.45775 61.9454 2.48702V4.54198C62.0034 4.54188 62.059 4.56497 62.1003 4.60625C62.1413 4.6488 62.1646 4.70568 62.1654 4.76515V6.84868C62.2121 6.85534 62.2554 6.87729 62.2887 6.91117C62.3303 6.95328 62.3537 7.01044 62.3538 7.07007C62.3538 14.1169 62.7516 20.4496 63.5402 25.8986H64.607C64.6415 25.8995 64.6754 25.9085 64.706 25.9249C64.7365 25.9413 64.7629 25.9647 64.783 25.9932C64.8032 26.0228 64.8161 26.0569 64.8207 26.0926C64.8253 26.1283 64.8214 26.1646 64.8094 26.1985L64.0032 28.4195C63.9928 28.4506 63.9753 28.4787 63.9521 28.5016C64.8869 33.7649 66.0645 37.1107 66.8831 38.996C67.7879 41.0653 68.4779 41.8722 68.4849 41.8794C68.5127 41.9117 68.5307 41.9514 68.5369 41.9938C68.5432 42.0362 68.5374 42.0795 68.5202 42.1186C68.5035 42.1566 68.4767 42.1891 68.4428 42.2124C68.4089 42.2357 68.3692 42.249 68.3283 42.2507ZM54.9922 41.8044H67.8864C67.3484 40.9861 66.8863 40.1188 66.5064 39.2138C65.6561 37.2785 64.445 33.8292 63.4927 28.382C63.488 28.3505 63.4898 28.3184 63.498 28.2877C63.5062 28.257 63.5206 28.2283 63.5402 28.2035C63.5692 28.1697 63.6071 28.1449 63.6494 28.1321L64.2954 26.3467H63.3536C63.3008 26.3464 63.2497 26.3271 63.2097 26.292C63.1697 26.257 63.1433 26.2086 63.1354 26.1556C62.3344 20.7014 61.9243 14.3544 61.9172 7.29145C61.8707 7.28441 61.8275 7.26253 61.794 7.22896C61.7528 7.18728 61.7294 7.13086 61.7289 7.07185V4.99011C61.6701 4.99002 61.6137 4.96626 61.5722 4.92405C61.5315 4.88219 61.5087 4.82573 61.5088 4.76694V2.70841C61.4811 2.70408 61.4543 2.69503 61.4296 2.68163C61.4056 2.69531 61.3794 2.70439 61.3522 2.70841V4.76515C61.3522 4.82434 61.329 4.88111 61.2877 4.92296C61.2465 4.96481 61.1905 4.98833 61.1321 4.98833V7.07007C61.1321 7.11835 61.1167 7.16534 61.0881 7.20397C61.0596 7.2426 61.0194 7.27079 60.9737 7.28431C60.9649 14.349 60.553 20.696 59.7503 26.1539C59.742 26.2067 59.7155 26.2549 59.6756 26.2898C59.6356 26.3248 59.5848 26.3443 59.532 26.3449H58.5902L59.2363 28.1303C59.2781 28.1432 59.3153 28.168 59.3437 28.2017C59.364 28.2261 59.3788 28.2547 59.387 28.2856C59.3952 28.3164 59.3967 28.3487 59.3912 28.3802C58.4389 33.8274 57.226 37.2767 56.3758 39.212C55.9942 40.1175 55.5311 40.9853 54.9922 41.8044Z" fill="black"/>
<path d="M0.440181 44.086H-0.00341797V34.5932C-0.00341797 34.534 0.0197645 34.4773 0.0610298 34.4354C0.102295 34.3936 0.158263 34.3701 0.216621 34.3701H0.54756V34.0273C0.54756 33.9681 0.570743 33.9113 0.612008 33.8695C0.653273 33.8276 0.709241 33.8041 0.767599 33.8041H4.50826C4.56662 33.8041 4.62259 33.8276 4.66386 33.8695C4.70512 33.9113 4.7283 33.9681 4.7283 34.0273V34.3701H5.05924C5.11729 34.3705 5.17281 34.3942 5.2137 34.436C5.25458 34.4778 5.27752 34.5343 5.27752 34.5932V39.1031H5.65071V28.6337C5.65071 28.5745 5.67389 28.5177 5.71515 28.4759C5.75642 28.434 5.81239 28.4105 5.87075 28.4105H10.7116C10.77 28.4105 10.8259 28.434 10.8672 28.4759C10.9085 28.5177 10.9316 28.5745 10.9316 28.6337V37.9408H11.1411V25.1004C11.1409 25.0711 11.1464 25.0419 11.1574 25.0147C11.1684 24.9876 11.1846 24.9629 11.205 24.9421C11.2255 24.9213 11.2499 24.9049 11.2767 24.8938C11.3035 24.8826 11.3322 24.877 11.3612 24.8773H11.6921V24.5398C11.6921 24.5105 11.6978 24.4815 11.7088 24.4544C11.7199 24.4273 11.7361 24.4027 11.7565 24.382C11.777 24.3613 11.8012 24.3449 11.8279 24.3336C11.8546 24.3224 11.8832 24.3167 11.9121 24.3167H15.6493C15.6782 24.3167 15.7068 24.3224 15.7335 24.3336C15.7602 24.3449 15.7844 24.3613 15.8049 24.382C15.8253 24.4027 15.8415 24.4273 15.8526 24.4544C15.8636 24.4815 15.8693 24.5105 15.8693 24.5398V24.8773H16.2003C16.2292 24.877 16.2579 24.8826 16.2847 24.8938C16.3115 24.9049 16.3359 24.9213 16.3564 24.9421C16.3769 24.9629 16.3931 24.9876 16.404 25.0147C16.415 25.0419 16.4205 25.0711 16.4203 25.1004V36.5268H16.7196V32.2597C16.7196 32.2006 16.7427 32.1438 16.784 32.1019C16.8253 32.0601 16.8812 32.0366 16.9396 32.0366H17.2705V31.2474C17.2705 31.1883 17.2937 31.1315 17.335 31.0896C17.3762 31.0478 17.4322 31.0243 17.4906 31.0243H21.2277C21.2861 31.0243 21.342 31.0478 21.3833 31.0896C21.4246 31.1315 21.4478 31.1883 21.4478 31.2474V32.0366H21.7787C21.8076 32.0366 21.8362 32.0423 21.8629 32.0536C21.8896 32.0648 21.9139 32.0812 21.9343 32.1019C21.9547 32.1227 21.9709 32.1473 21.982 32.1743C21.993 32.2014 21.9987 32.2304 21.9987 32.2597V35.4609H22.4793V34.0415C22.4793 33.9824 22.5025 33.9256 22.5437 33.8837C22.585 33.8419 22.641 33.8184 22.6993 33.8184H23.0303V33.4756C23.0303 33.4164 23.0535 33.3596 23.0947 33.3178C23.136 33.2759 23.192 33.2524 23.2503 33.2524H26.9875C27.0458 33.2524 27.1018 33.2759 27.1431 33.3178C27.1843 33.3596 27.2075 33.4164 27.2075 33.4756V33.8184H27.5384C27.5968 33.8184 27.6528 33.8419 27.694 33.8837C27.7353 33.9256 27.7585 33.9824 27.7585 34.0415V36.3411H29.9853C30.0436 36.3411 30.0996 36.3646 30.1409 36.4065C30.1821 36.4483 30.2053 36.5051 30.2053 36.5643V39.1048H31.1946V39.5512H29.9853C29.9269 39.5512 29.8709 39.5277 29.8297 39.4858C29.7884 39.444 29.7652 39.3872 29.7652 39.328V36.7857H27.542C27.4836 36.7857 27.4276 36.7621 27.3864 36.7203C27.3451 36.6784 27.3219 36.6217 27.3219 36.5625V34.2558H26.991C26.9326 34.2558 26.8767 34.2323 26.8354 34.1904C26.7941 34.1486 26.7709 34.0918 26.7709 34.0326V33.6898H23.4739V34.0326C23.4739 34.0918 23.4507 34.1486 23.4094 34.1904C23.3682 34.2323 23.3122 34.2558 23.2538 34.2558H22.9229V35.6841C22.9224 35.7427 22.8993 35.7987 22.8585 35.8401C22.8176 35.8815 22.7624 35.905 22.7046 35.9055H21.784C21.7551 35.9057 21.7264 35.9002 21.6996 35.8892C21.6728 35.8782 21.6485 35.8619 21.6279 35.8414C21.6073 35.8208 21.5909 35.7963 21.5796 35.7694C21.5683 35.7424 21.5624 35.7134 21.5622 35.6841V32.4829H21.2312C21.2023 32.4832 21.1736 32.4775 21.1468 32.4664C21.12 32.4553 21.0956 32.4389 21.0751 32.4181C21.0546 32.3973 21.0384 32.3726 21.0275 32.3454C21.0165 32.3182 21.011 32.2891 21.0112 32.2597V31.4706H17.7141V32.2597C17.7144 32.2891 17.7088 32.3182 17.6979 32.3454C17.6869 32.3726 17.6707 32.3973 17.6502 32.4181C17.6297 32.4389 17.6054 32.4553 17.5786 32.4664C17.5518 32.4775 17.5231 32.4832 17.4941 32.4829H17.1632V36.7553C17.1632 36.8145 17.14 36.8713 17.0987 36.9131C17.0574 36.955 17.0015 36.9785 16.9431 36.9785H16.2003C16.1714 36.9785 16.1428 36.9727 16.1161 36.9615C16.0894 36.9503 16.0651 36.9338 16.0447 36.9131C16.0242 36.8924 16.008 36.8678 15.997 36.8407C15.9859 36.8136 15.9802 36.7846 15.9802 36.7553V25.329H15.6493C15.5909 25.329 15.535 25.3054 15.4937 25.2636C15.4524 25.2217 15.4292 25.165 15.4292 25.1058V24.7683H12.1322V25.1058C12.1322 25.165 12.109 25.2217 12.0677 25.2636C12.0265 25.3054 11.9705 25.329 11.9121 25.329H11.5812V38.1693C11.5812 38.2285 11.558 38.2853 11.5168 38.3271C11.4755 38.369 11.4195 38.3925 11.3612 38.3925H10.7116C10.6532 38.3925 10.5973 38.369 10.556 38.3271C10.5147 38.2853 10.4916 38.2285 10.4916 38.1693V28.8622H6.09079V39.3262C6.09079 39.3854 6.0676 39.4422 6.02634 39.484C5.98507 39.5259 5.9291 39.5494 5.87075 39.5494H5.05924C5.00088 39.5494 4.94492 39.5259 4.90365 39.484C4.86239 39.4422 4.8392 39.3854 4.8392 39.3262V34.8164H4.50826C4.4793 34.8166 4.45058 34.811 4.42378 34.7999C4.39698 34.7888 4.37263 34.7723 4.35215 34.7516C4.33167 34.7308 4.31547 34.7061 4.3045 34.6789C4.29352 34.6517 4.28799 34.6226 4.28823 34.5932V34.2558H0.991159V34.5986C0.991394 34.628 0.985862 34.6571 0.974887 34.6843C0.963912 34.7114 0.947713 34.7361 0.927234 34.7569C0.906754 34.7777 0.882404 34.7941 0.855601 34.8052C0.828799 34.8164 0.800081 34.822 0.77112 34.8217H0.440181V44.086Z" fill="black"/>
<path d="M37.5722 42.906H37.1392V36.8928C37.1392 36.8337 37.1623 36.7769 37.2036 36.735C37.2449 36.6932 37.3008 36.6697 37.3592 36.6697H37.6901V36.3269C37.6899 36.2975 37.6954 36.2684 37.7064 36.2412C37.7174 36.214 37.7336 36.1893 37.7541 36.1685C37.7745 36.1478 37.7989 36.1313 37.8257 36.1202C37.8525 36.1091 37.8812 36.1035 37.9102 36.1037H41.6473C41.7057 36.1037 41.7616 36.1272 41.8029 36.1691C41.8442 36.2109 41.8674 36.2677 41.8674 36.3269V36.6697H42.1983C42.2273 36.6694 42.2561 36.675 42.283 36.6861C42.3099 36.6973 42.3344 36.7137 42.355 36.7344C42.3756 36.7551 42.392 36.7798 42.4032 36.807C42.4143 36.8342 42.4201 36.8634 42.4201 36.8928V41.3973H42.7933V30.9297C42.7933 30.8705 42.8165 30.8138 42.8577 30.7719C42.899 30.7301 42.955 30.7065 43.0133 30.7065H47.8524C47.9108 30.7065 47.9668 30.7301 48.008 30.7719C48.0493 30.8138 48.0725 30.8705 48.0725 30.9297V40.2351H48.2819V32.4883C48.2819 32.4292 48.3051 32.3724 48.3464 32.3305C48.3876 32.2887 48.4436 32.2652 48.502 32.2652H48.8329V31.9349C48.8329 31.8757 48.8561 31.8189 48.8974 31.7771C48.9386 31.7352 48.9946 31.7117 49.053 31.7117H52.7901C52.8485 31.7117 52.9044 31.7352 52.9457 31.7771C52.987 31.8189 53.0101 31.8757 53.0101 31.9349V32.2705H53.334C53.3924 32.2705 53.4484 32.294 53.4896 32.3359C53.5309 32.3777 53.5541 32.4345 53.5541 32.4937V38.8246H56.0854V39.271H53.334C53.2757 39.271 53.2197 39.2474 53.1784 39.2056C53.1372 39.1637 53.114 39.107 53.114 39.0478V32.7169H52.7831C52.7247 32.7169 52.6687 32.6934 52.6275 32.6515C52.5862 32.6096 52.563 32.5529 52.563 32.4937V32.158H49.2642V32.4937C49.2642 32.5529 49.241 32.6096 49.1997 32.6515C49.1585 32.6934 49.1025 32.7169 49.0442 32.7169H48.7132V40.4636C48.7123 40.5221 48.6887 40.578 48.6475 40.6191C48.6064 40.6602 48.5509 40.6832 48.4932 40.6832H47.8436C47.7853 40.6832 47.7293 40.6597 47.688 40.6178C47.6468 40.576 47.6236 40.5192 47.6236 40.46V31.1547H43.2228V41.6223C43.2228 41.6815 43.1996 41.7382 43.1584 41.7801C43.1171 41.8219 43.0611 41.8455 43.0028 41.8455H42.1913C42.1329 41.8455 42.0769 41.8219 42.0357 41.7801C41.9944 41.7382 41.9712 41.6815 41.9712 41.6223V37.1124H41.6403C41.5819 37.1124 41.526 37.0889 41.4847 37.0471C41.4434 37.0052 41.4202 36.9485 41.4202 36.8893V36.5465H38.1232V36.8893C38.1232 36.9485 38.1 37.0052 38.0587 37.0471C38.0175 37.0889 37.9615 37.1124 37.9031 37.1124H37.5722V42.906Z" fill="black"/>
<path d="M76.403 23.283H75.9629V42.0775H76.403V23.283Z" fill="black"/>
<path d="M79.3832 23.283H78.9431V42.0757H79.3832V23.283Z" fill="black"/>
<path d="M85.9842 38.0962C83.2258 38.0962 80.6188 36.4393 78.443 33.306C77.5753 32.0374 76.8408 30.6803 76.2514 29.2568C75.9522 30.4709 75.1213 32.874 73.0019 34.4344L72.7449 34.0773C75.4628 32.083 75.9592 28.4927 75.9645 28.457C75.9712 28.4073 75.9941 28.3614 76.0295 28.3265C76.0649 28.2916 76.1108 28.2696 76.1599 28.2641C76.2091 28.2595 76.2584 28.2716 76.3001 28.2984C76.3418 28.3252 76.3736 28.3653 76.3905 28.4123C76.4222 28.5052 79.6541 37.6534 85.9842 37.6534V38.0962Z" fill="black"/>
<path d="M88.9979 38.0962C86.2395 38.0962 83.6325 36.4393 81.4567 33.306C80.5893 32.037 79.8543 30.68 79.2634 29.2568C78.9659 30.4709 78.1333 32.874 76.0156 34.4344L75.7568 34.0773C78.4748 32.0831 78.9729 28.4927 78.9782 28.457C78.9844 28.4071 79.0071 28.3609 79.0426 28.3258C79.0781 28.2908 79.1243 28.269 79.1736 28.2642C79.2227 28.2599 79.2719 28.272 79.3136 28.2988C79.3552 28.3256 79.3871 28.3654 79.4042 28.4123C79.4359 28.5052 82.6678 37.6534 88.9979 37.6534V38.0962Z" fill="black"/>
<path d="M79.1631 26.6395H76.1829V27.0859H79.1631V26.6395Z" fill="black"/>
<path d="M104.547 38.4462H66.5347V38.8925H104.547V38.4462Z" fill="black"/>
<path d="M79.163 35.3914H76.2937V35.8377H79.163V35.3914Z" fill="black"/>
<path d="M98.7218 23.283H98.2817V42.4989H98.7218V23.283Z" fill="black"/>
<path d="M95.7416 23.283H95.3015V42.0775H95.7416V23.283Z" fill="black"/>
<path d="M88.7004 38.0962V37.648C95.0376 37.648 98.2625 28.4998 98.2942 28.407C98.3116 28.3603 98.3435 28.3205 98.3851 28.2938C98.4267 28.2671 98.4757 28.2548 98.5248 28.2588C98.5739 28.2643 98.6197 28.2862 98.6551 28.3212C98.6905 28.3561 98.7134 28.402 98.7202 28.4516C98.7202 28.4873 99.2271 32.0813 101.942 34.072L101.683 34.429C99.5704 32.8758 98.7325 30.4727 98.4332 29.2515C97.8434 30.6725 97.1089 32.0272 96.2416 33.2935C94.0659 36.4393 91.4589 38.0962 88.7004 38.0962Z" fill="black"/>
<path d="M85.6885 38.0962V37.6481C92.0256 37.6481 95.2488 28.4999 95.2822 28.407C95.299 28.3603 95.3306 28.3205 95.3719 28.2937C95.4133 28.2669 95.4622 28.2547 95.5111 28.2589C95.5604 28.2637 95.6066 28.2855 95.6421 28.3205C95.6776 28.3556 95.7003 28.4018 95.7065 28.4517C95.7065 28.4874 96.2152 32.0813 98.9278 34.072L98.6691 34.4291C96.5567 32.8758 95.7188 30.4727 95.4213 29.2515C94.8307 30.6722 94.0963 32.0268 93.2297 33.2936C91.0539 36.4394 88.4451 38.0962 85.6885 38.0962Z" fill="black"/>
<path d="M98.5019 26.6395H95.5217V27.0859H98.5019V26.6395Z" fill="black"/>
<path d="M98.391 35.3914H95.5217V35.8377H98.391V35.3914Z" fill="black"/>
<path d="M31.418 41.2456H30.9779V34.272H29.9903C29.244 34.272 28.8127 34.188 28.4501 33.9702C28.4071 33.944 28.3743 33.9037 28.357 33.856C28.3397 33.8082 28.339 33.756 28.355 33.7078C28.3709 33.6595 28.4026 33.6182 28.4449 33.5909C28.4873 33.5636 28.5376 33.5519 28.5874 33.5578C28.5874 33.5578 28.8127 33.5828 29.1155 33.5828C29.4675 33.5828 30.2878 33.1793 30.9832 32.758V31.0422H29.9956C29.2457 31.0422 28.8145 30.9583 28.4554 30.7405C28.412 30.7142 28.3789 30.6736 28.3616 30.6255C28.3443 30.5774 28.3438 30.5247 28.3603 30.4763C28.3762 30.4278 28.4083 30.3865 28.4511 30.3594C28.4938 30.3324 28.5445 30.3213 28.5944 30.3281C28.7699 30.3464 28.9461 30.3554 29.1225 30.3549C29.4746 30.3549 30.3142 29.9389 30.9902 29.53V27.8446H30.0027C29.244 27.8446 28.7863 27.6947 28.4184 27.3233C28.3849 27.2892 28.3631 27.2452 28.3562 27.1976C28.3492 27.1501 28.3574 27.1015 28.3797 27.0591C28.4019 27.0167 28.4371 26.9829 28.48 26.9626C28.5228 26.9423 28.571 26.9367 28.6173 26.9466C28.7836 26.9755 28.952 26.9898 29.1208 26.9894C30.3248 26.9894 32.6942 25.288 33.7873 24.3828C33.8052 24.3649 33.8261 24.3504 33.849 24.34C33.8866 24.3245 33.9277 24.3195 33.9679 24.3254C34.0081 24.3314 34.0461 24.3481 34.0778 24.3739C35.1657 25.2791 37.5439 26.9894 38.7549 26.9894C38.9216 26.9859 39.0877 26.968 39.2514 26.9359C39.2976 26.926 39.3458 26.9316 39.3887 26.9519C39.4315 26.9722 39.4668 27.006 39.489 27.0484C39.5112 27.0908 39.5195 27.1394 39.5125 27.1869C39.5055 27.2345 39.4837 27.2785 39.4503 27.3126C39.0841 27.6839 38.6247 27.8339 37.866 27.8339H36.8098V29.4997C37.2745 29.7818 38.2867 30.3441 38.7127 30.3441C38.8891 30.3445 39.0653 30.3355 39.2408 30.3174C39.2907 30.3106 39.3414 30.3217 39.3841 30.3487C39.4269 30.3758 39.459 30.4171 39.4749 30.4655C39.4914 30.514 39.4909 30.5667 39.4736 30.6148C39.4563 30.6629 39.4232 30.7035 39.3799 30.7298C39.0278 30.9476 38.5895 31.0315 37.8396 31.0315H36.8168V32.733C37.2816 33.0151 38.2937 33.5774 38.7197 33.5774C39.0155 33.5774 39.239 33.5525 39.2478 33.5525C39.2977 33.5466 39.348 33.5583 39.3903 33.5856C39.4326 33.6129 39.4644 33.6542 39.4802 33.7024C39.4964 33.7508 39.4956 33.8033 39.4779 33.8512C39.4603 33.899 39.4269 33.9392 39.3834 33.9649C39.0208 34.1827 38.5895 34.2666 37.8449 34.2666H36.8221V39.3263H36.382V34.0488C36.382 33.9896 36.4052 33.9328 36.4465 33.891C36.4878 33.8491 36.5437 33.8256 36.6021 33.8256H37.9487C37.4488 33.6086 36.9657 33.3538 36.5035 33.0633C36.4672 33.0448 36.4366 33.0165 36.4152 32.9816C36.3938 32.9466 36.3823 32.9063 36.382 32.8651V30.8137C36.382 30.7545 36.4052 30.6977 36.4465 30.6559C36.4878 30.614 36.5437 30.5905 36.6021 30.5905H37.9434C37.4454 30.3738 36.9641 30.1196 36.5035 29.83C36.4671 29.8117 36.4364 29.7834 36.4149 29.7484C36.3935 29.7134 36.3821 29.673 36.382 29.6318V27.6161C36.382 27.5569 36.4052 27.5002 36.4465 27.4583C36.4878 27.4164 36.5437 27.3929 36.6021 27.3929H37.8783C38.0315 27.3929 38.167 27.3929 38.2902 27.3751C36.7623 27.0448 34.5619 25.3308 33.9405 24.8274C33.3191 25.3308 31.124 27.0448 29.5925 27.3751C29.7157 27.3876 29.8513 27.3929 30.0044 27.3929H31.212C31.2704 27.3929 31.3263 27.4164 31.3676 27.4583C31.4089 27.5002 31.432 27.5569 31.432 27.6161V29.6514C31.432 29.6895 31.4222 29.727 31.4037 29.7601C31.3852 29.7933 31.3586 29.821 31.3264 29.8407C30.8716 30.1254 30.3968 30.376 29.9059 30.5905H31.212C31.2704 30.5905 31.3263 30.614 31.3676 30.6559C31.4089 30.6977 31.432 30.7545 31.432 30.8137V32.8847C31.432 32.9228 31.4222 32.9603 31.4037 32.9934C31.3852 33.0266 31.3586 33.0543 31.3264 33.074C30.8699 33.3596 30.3934 33.6108 29.9006 33.8256H31.212C31.2704 33.8256 31.3263 33.8491 31.3676 33.891C31.4089 33.9328 31.432 33.9896 31.432 34.0488L31.418 41.2456Z" fill="black"/>
<path d="M124 45.9983H123.56V35.0129H123.24C123.181 35.0129 123.125 34.9894 123.084 34.9475C123.043 34.9057 123.02 34.8489 123.02 34.7897V34.4559H119.775V34.7915C119.775 34.8507 119.752 34.9075 119.711 34.9493C119.67 34.9912 119.614 35.0147 119.555 35.0147H119.233V39.4549C119.233 39.5141 119.21 39.5708 119.169 39.6127C119.127 39.6545 119.071 39.6781 119.013 39.6781H118.212C118.154 39.6781 118.098 39.6545 118.057 39.6127C118.015 39.5708 117.992 39.5141 117.992 39.4549V29.1426H113.663V42.9096C113.664 42.9389 113.658 42.9679 113.647 42.9949C113.636 43.0219 113.619 43.0463 113.598 43.0667C113.557 43.1085 113.502 43.1322 113.443 43.1327H110.131C110.072 43.1327 110.016 43.1092 109.975 43.0674C109.934 43.0255 109.911 42.9688 109.911 42.9096V36.2448C109.911 36.1856 109.934 36.1288 109.975 36.087C110.016 36.0451 110.072 36.0216 110.131 36.0216H111.373C111.669 36.0092 111.95 35.8894 112.165 35.6842C111.486 35.6181 110.229 34.8486 110.032 34.7219C109.996 34.7039 109.965 34.676 109.944 34.6413C109.922 34.6066 109.911 34.5665 109.911 34.5255V32.8276C109.911 32.7684 109.934 32.7116 109.975 32.6698C110.016 32.6279 110.072 32.6044 110.131 32.6044H111.373C111.612 32.6036 111.846 32.5422 112.055 32.4259C111.35 32.2973 110.222 31.5993 110.032 31.4814C109.996 31.463 109.965 31.4347 109.944 31.3997C109.922 31.3647 109.911 31.3244 109.911 31.2833V29.6246C109.911 29.5655 109.934 29.5087 109.975 29.4668C110.016 29.425 110.072 29.4015 110.131 29.4015H111.407C111.714 29.3991 112.01 29.285 112.241 29.0801C110.731 29.039 108.15 27.0305 107.469 26.4788C106.788 27.0305 104.211 29.039 102.698 29.0801C102.93 29.285 103.226 29.3991 103.533 29.4015H104.735C104.794 29.4015 104.85 29.425 104.891 29.4668C104.932 29.5087 104.955 29.5655 104.955 29.6246V31.3011C104.955 31.3394 104.945 31.3771 104.927 31.4105C104.908 31.444 104.882 31.4721 104.85 31.4921C104.524 31.6939 103.496 32.3063 102.846 32.4259C103.055 32.5422 103.289 32.6036 103.528 32.6044H104.735C104.794 32.6044 104.85 32.6279 104.891 32.6698C104.932 32.7116 104.955 32.7684 104.955 32.8276V34.5398C104.955 34.5781 104.945 34.6158 104.927 34.6492C104.908 34.6826 104.882 34.7107 104.85 34.7308C104.498 34.9433 103.371 35.6235 102.737 35.6806C102.953 35.8858 103.234 36.0056 103.529 36.0181L104.74 36.0377C104.798 36.0386 104.853 36.0626 104.894 36.1043C104.934 36.1461 104.957 36.2023 104.957 36.2609V42.2061H104.517V36.484L103.526 36.468C102.933 36.468 102.537 36.1109 102.248 35.8431C102.168 35.765 102.082 35.6939 101.991 35.6306C101.947 35.6046 101.914 35.5641 101.896 35.516C101.878 35.4678 101.878 35.415 101.894 35.3664C101.91 35.3183 101.942 35.2772 101.984 35.25C102.026 35.2227 102.077 35.2109 102.126 35.2164C102.126 35.2164 102.352 35.2414 102.654 35.2414C103.007 35.2414 103.827 34.8379 104.522 34.4166V33.0543H103.535C103.045 33.0405 102.575 32.8586 102.2 32.5384C102.126 32.4848 102.06 32.433 101.994 32.3938C101.951 32.3678 101.918 32.3275 101.901 32.2797C101.884 32.2319 101.883 32.1795 101.899 32.1313C101.916 32.0826 101.948 32.041 101.991 32.0137C102.034 31.9863 102.085 31.9749 102.135 31.9813C102.308 32.0008 102.481 32.0103 102.654 32.0099C103.052 32.0099 103.969 31.5171 104.522 31.1833V29.8567H103.535C102.799 29.8567 102.364 29.405 102.045 29.0748L101.952 28.9766C101.921 28.9427 101.901 28.9 101.895 28.8543C101.889 28.8086 101.898 28.7621 101.919 28.7213C101.941 28.6788 101.976 28.6447 102.019 28.6241C102.062 28.6036 102.11 28.5975 102.156 28.607C102.323 28.6359 102.491 28.6502 102.66 28.6498C103.869 28.6498 106.235 26.9502 107.326 26.0432C107.344 26.0265 107.364 26.0127 107.386 26.0021C107.426 25.9849 107.47 25.9798 107.513 25.9874C107.556 25.995 107.596 26.015 107.627 26.045C108.705 26.9377 111.083 28.6498 112.294 28.6498C112.463 28.6502 112.631 28.6359 112.797 28.607C112.844 28.5975 112.892 28.6036 112.935 28.6241C112.978 28.6447 113.013 28.6788 113.035 28.7213C113.057 28.7634 113.065 28.8117 113.058 28.8589C113.051 28.9062 113.03 28.9499 112.996 28.9837L112.901 29.0819C112.584 29.4122 112.15 29.8639 111.414 29.8639H110.358V31.1708C110.822 31.4547 111.835 32.017 112.261 32.017C112.437 32.0174 112.613 32.0079 112.789 31.9885C112.839 31.9825 112.889 31.9941 112.932 32.0214C112.974 32.0487 113.007 32.09 113.023 32.1384C113.039 32.1866 113.039 32.2391 113.022 32.287C113.004 32.3349 112.971 32.3752 112.928 32.4009C112.863 32.4402 112.796 32.492 112.722 32.5455C112.347 32.8657 111.877 33.0476 111.387 33.0615H110.351V34.4041C110.815 34.688 111.827 35.2486 112.253 35.2486C112.549 35.2486 112.773 35.2236 112.782 35.2236C112.831 35.2183 112.881 35.2303 112.923 35.2575C112.966 35.2848 112.998 35.3256 113.014 35.3735C113.03 35.4222 113.03 35.475 113.012 35.5231C112.994 35.5713 112.961 35.6117 112.917 35.6378C112.825 35.6987 112.738 35.7673 112.657 35.8431C112.368 36.1073 111.972 36.468 111.375 36.468H110.351V42.6828H113.223V28.9176C113.223 28.8585 113.247 28.8017 113.288 28.7598C113.329 28.718 113.385 28.6945 113.443 28.6945H118.212C118.271 28.6945 118.326 28.718 118.368 28.7598C118.409 28.8017 118.432 28.8585 118.432 28.9176V39.2299H118.793V34.7915C118.793 34.7323 118.816 34.6756 118.857 34.6337C118.899 34.5918 118.955 34.5683 119.013 34.5683H119.335V34.2345C119.335 34.1753 119.358 34.1185 119.4 34.0767C119.441 34.0348 119.497 34.0113 119.555 34.0113H123.24C123.298 34.0113 123.354 34.0348 123.395 34.0767C123.436 34.1185 123.46 34.1753 123.46 34.2345V34.5683H123.78C123.838 34.5683 123.894 34.5918 123.936 34.6337C123.977 34.6756 124 34.7323 124 34.7915V45.9983Z" fill="black"/>
<path d="M51.1212 28.4177H50.6812V31.8671H51.1212V28.4177Z" fill="black"/>
<path d="M68.8141 38.8085C68.5135 38.808 68.2255 38.6867 68.013 38.4712C67.8005 38.2557 67.6809 37.9635 67.6804 37.6587C67.6809 37.3541 67.8005 37.0621 68.0131 36.8469C68.2256 36.6316 68.5137 36.5107 68.8141 36.5107C69.1144 36.5107 69.4025 36.6316 69.615 36.8469C69.8276 37.0621 69.9472 37.3541 69.9477 37.6587C69.9472 37.9635 69.8277 38.2557 69.6152 38.4712C69.4027 38.6867 69.1146 38.808 68.8141 38.8085ZM68.8141 36.9571C68.6304 36.9571 68.4543 37.0309 68.3243 37.1625C68.1942 37.294 68.121 37.4725 68.1205 37.6587C68.1232 37.8444 68.1972 38.0217 68.3267 38.1531C68.4561 38.2844 68.631 38.3594 68.8141 38.3622C68.9972 38.3594 69.172 38.2844 69.3015 38.1531C69.431 38.0217 69.5049 37.8444 69.5076 37.6587C69.5072 37.4725 69.4339 37.294 69.3039 37.1625C69.1738 37.0309 68.9977 36.9571 68.8141 36.9571Z" fill="black"/>
<path d="M72.1148 38.8085C71.8143 38.808 71.5262 38.6867 71.3138 38.4712C71.1013 38.2557 70.9817 37.9635 70.9812 37.6587C70.9817 37.3541 71.1013 37.0621 71.3139 36.8469C71.5264 36.6316 71.8145 36.5107 72.1148 36.5107C72.4152 36.5107 72.7033 36.6316 72.9158 36.8469C73.1284 37.0621 73.248 37.3541 73.2485 37.6587C73.248 37.9635 73.1284 38.2557 72.9159 38.4712C72.7034 38.6867 72.4154 38.808 72.1148 38.8085ZM72.1148 36.9571C71.9312 36.9571 71.7551 37.0309 71.625 37.1625C71.495 37.294 71.4217 37.4725 71.4213 37.6587C71.424 37.8444 71.498 38.0217 71.6274 38.1531C71.7569 38.2844 71.9317 38.3594 72.1148 38.3622C72.2979 38.3594 72.4728 38.2844 72.6022 38.1531C72.7317 38.0217 72.8057 37.8444 72.8084 37.6587C72.8079 37.4725 72.7347 37.294 72.6046 37.1625C72.4746 37.0309 72.2985 36.9571 72.1148 36.9571Z" fill="black"/>
<path d="M73.8682 37.8819H73.0285V37.4356H73.6481V36.1858H67.1085V37.4356H67.9007V37.8819H66.8885C66.8595 37.8822 66.8308 37.8765 66.804 37.8654C66.7772 37.8543 66.7529 37.8379 66.7324 37.8171C66.7119 37.7963 66.6957 37.7716 66.6847 37.7444C66.6738 37.7173 66.6682 37.6881 66.6685 37.6587V35.9716C66.6685 35.9423 66.6742 35.9133 66.6852 35.8862C66.6963 35.8591 66.7125 35.8345 66.7329 35.8138C66.7533 35.7931 66.7776 35.7766 66.8043 35.7654C66.831 35.7542 66.8596 35.7484 66.8885 35.7484H73.8682C73.8971 35.7484 73.9257 35.7542 73.9524 35.7654C73.9791 35.7766 74.0033 35.7931 74.0238 35.8138C74.0442 35.8345 74.0604 35.8591 74.0715 35.8862C74.0825 35.9133 74.0882 35.9423 74.0882 35.9716V37.6587C74.0884 37.6881 74.0829 37.7173 74.0719 37.7444C74.061 37.7716 74.0448 37.7963 74.0243 37.8171C74.0038 37.8379 73.9794 37.8543 73.9526 37.8654C73.9258 37.8765 73.8971 37.8822 73.8682 37.8819Z" fill="black"/>
<path d="M71.2012 37.4374H69.7261V37.8837H71.2012V37.4374Z" fill="black"/>
<path d="M72.2662 36.1948H68.4903C68.432 36.1948 68.376 36.1713 68.3347 36.1294C68.2935 36.0876 68.2703 36.0308 68.2703 35.9716V34.1238C68.27 34.0943 68.2756 34.0651 68.2865 34.0378C68.2975 34.0105 68.3136 33.9857 68.3341 33.9648C68.3545 33.9439 68.3789 33.9273 68.4057 33.916C68.4325 33.9046 68.4613 33.8988 68.4903 33.8988H72.2662C72.3245 33.8988 72.3805 33.9223 72.4218 33.9642C72.463 34.006 72.4862 34.0628 72.4862 34.122V35.9698C72.4864 35.9993 72.4809 36.0285 72.47 36.0558C72.459 36.0831 72.4428 36.1079 72.4224 36.1288C72.4019 36.1497 72.3776 36.1663 72.3508 36.1776C72.324 36.189 72.2952 36.1948 72.2662 36.1948ZM68.7103 35.7484H72.0461V34.3469H68.7103V35.7484Z" fill="black"/>
<path d="M107.689 24.738H107.249V26.2003H107.689V24.738Z" fill="black"/>
<path d="M34.1466 22.9669H33.7065V24.5434H34.1466V22.9669Z" fill="black"/>
<path d="M58.0007 13.0313H51.0897C51.0313 13.0313 50.9753 13.0078 50.9341 12.966C50.8928 12.9241 50.8696 12.8674 50.8696 12.8082C50.8701 12.3504 51.0496 11.9116 51.3687 11.5879C51.6878 11.2642 52.1205 11.0822 52.5719 11.0817C52.7284 11.0814 52.8841 11.103 53.0348 11.146C53.2823 10.7214 53.6352 10.37 54.0584 10.1269C54.4815 9.8838 54.9601 9.75748 55.4464 9.76055C56.1871 9.7615 56.8971 10.0603 57.4208 10.5915C57.9445 11.1226 58.2391 11.8428 58.2401 12.5939C58.2401 12.6725 58.2365 12.751 58.2295 12.8296C58.2233 12.8862 58.1964 12.9384 58.154 12.9758C58.1115 13.0132 58.0568 13.033 58.0007 13.0313ZM51.3291 12.585H57.7912C57.7884 11.9552 57.5405 11.3519 57.1014 10.9065C56.6622 10.4612 56.0675 10.2097 55.4464 10.2069C55.0086 10.2036 54.5787 10.3248 54.2053 10.5567C53.8319 10.7887 53.5301 11.1221 53.3341 11.5191C53.3087 11.5693 53.2656 11.608 53.2135 11.6275C53.1613 11.647 53.1038 11.6459 53.0524 11.6245C52.8995 11.5604 52.7356 11.5276 52.5701 11.5281C52.2739 11.5288 51.9874 11.6351 51.7606 11.8283C51.5338 12.0214 51.381 12.2893 51.3291 12.585Z" fill="black"/>
<path d="M70.6151 22.4724H64.88C64.8216 22.4724 64.7656 22.4489 64.7244 22.407C64.6831 22.3652 64.6599 22.3084 64.6599 22.2492C64.66 21.9667 64.7613 21.6939 64.9449 21.4814C65.1285 21.2689 65.3819 21.1313 65.658 21.0941C65.7649 20.7139 65.9913 20.3796 66.3026 20.1418C66.614 19.904 66.9934 19.7757 67.3831 19.7765C67.7781 19.7757 68.1622 19.9075 68.4755 20.1513C68.7889 20.3951 69.0138 20.7373 69.1153 21.1244C69.2254 21.0974 69.3382 21.0836 69.4515 21.0834C69.7724 21.0825 70.084 21.1928 70.3347 21.3961C70.5853 21.5993 70.76 21.8833 70.8298 22.201C70.8369 22.2336 70.8366 22.2674 70.829 22.2999C70.8214 22.3323 70.8066 22.3626 70.7858 22.3885C70.7656 22.4148 70.7397 22.4361 70.7101 22.4506C70.6805 22.4652 70.648 22.4726 70.6151 22.4724ZM65.1282 22.0261H70.2894C70.2047 21.8747 70.0818 21.7489 69.9333 21.6617C69.7848 21.5745 69.6161 21.5289 69.4445 21.5297C69.3021 21.5297 69.1615 21.5614 69.0325 21.6226C69.0012 21.6389 68.9665 21.6474 68.9313 21.6474C68.8961 21.6474 68.8614 21.6389 68.8301 21.6226C68.7999 21.605 68.7741 21.5805 68.7548 21.5511C68.7356 21.5216 68.7234 21.488 68.7192 21.453C68.6843 21.1166 68.5277 20.8054 68.2796 20.5795C68.0314 20.3535 67.7095 20.229 67.3761 20.23C67.0592 20.2287 66.7521 20.3408 66.5087 20.5465C66.2653 20.7523 66.1012 21.0384 66.0453 21.3548C66.0403 21.384 66.0294 21.412 66.0134 21.4369C65.9973 21.4617 65.9764 21.483 65.952 21.4994C65.9081 21.531 65.8539 21.5444 65.8006 21.5369C65.652 21.536 65.5068 21.5828 65.386 21.6707C65.2653 21.7586 65.175 21.883 65.1282 22.0261Z" fill="black"/>
</g>
<defs>
<clipPath id="clip0_87_43624">
<rect width="124" height="46" fill="white"/>
</clipPath>
</defs>
</svg>
