<svg preserveAspectRatio="xMidYMax meet" width="124" height="64" viewBox="0 0 124 64" fill="none" xmlns="http://www.w3.org/2000/svg">
<path d="M82.9205 46.0823L59.1805 51.8279L59.3453 52.5239L83.0852 46.7784L82.9205 46.0823Z" fill="black"/>
<path d="M90.7637 46.0802L90.599 46.7762L114.339 52.5218L114.504 51.8258L90.7637 46.0802Z" fill="black"/>
<path d="M115.535 63.9972H114.827V60.8337L114.136 60.6762V54.083L90.3967 48.34V44.624L86.8407 42.8862L83.3584 44.6154V48.34L59.6161 54.083V60.6762L58.9281 60.8366V63.9972H58.2203V60.264L58.9083 60.1065V53.519L82.6506 47.7732V45.0935H80.7905L86.8379 42.0903L92.9872 45.0935H91.1045V47.7732L114.844 53.519V60.1037L115.535 60.264V63.9972Z" fill="black"/>
<path d="M104.456 63.9084C100.957 59.259 94.2189 56.3704 86.8748 56.3704C79.5307 56.3704 72.7953 59.259 69.2932 63.9084L68.7269 63.4732C72.3622 58.6493 79.3127 55.6547 86.8719 55.6547C94.4312 55.6547 101.385 58.6493 105.017 63.4732L104.456 63.9084Z" fill="black"/>
<path d="M63.9337 56.1185C63.9186 55.8034 63.7842 55.5062 63.5584 55.2886C63.3325 55.071 63.0325 54.9496 62.7205 54.9496C62.4085 54.9496 62.1085 55.071 61.8826 55.2886C61.6568 55.5062 61.5224 55.8034 61.5074 56.1185H60.7996C60.8186 55.6162 61.0293 55.1409 61.3875 54.7924C61.7457 54.4439 62.2234 54.2491 62.7205 54.2491C63.2176 54.2491 63.6953 54.4439 64.0535 54.7924C64.4117 55.1409 64.6224 55.6162 64.6415 56.1185H63.9337Z" fill="black"/>
<path d="M60.7968 60.3785V55.9496H64.6443V59.4337L60.7968 60.3785ZM61.5045 56.6567V59.4595L63.9337 58.8612V56.6567H61.5045Z" fill="black"/>
<path d="M69.7659 54.9246C69.7508 54.6095 69.6164 54.3124 69.3906 54.0947C69.1647 53.8771 68.8647 53.7557 68.5527 53.7557C68.2408 53.7557 67.9407 53.8771 67.7149 54.0947C67.489 54.3124 67.3546 54.6095 67.3396 54.9246H66.6261C66.6452 54.4223 66.8559 53.9471 67.2141 53.5985C67.5722 53.25 68.05 53.0553 68.5471 53.0553C69.0441 53.0553 69.5219 53.25 69.8801 53.5985C70.2382 53.9471 70.4489 54.4223 70.468 54.9246H69.7659Z" fill="black"/>
<path d="M66.6261 58.9413V54.7557H70.4708V57.9908L66.6261 58.9413ZM67.3339 55.4715V58.028L69.763 57.4297V55.4715H67.3339Z" fill="black"/>
<path d="M75.601 53.7337C75.5859 53.4186 75.4516 53.1214 75.2257 52.9038C74.9999 52.6862 74.6999 52.5648 74.3879 52.5648C74.0759 52.5648 73.7759 52.6862 73.55 52.9038C73.3241 53.1214 73.1898 53.4186 73.1747 53.7337H72.4669C72.486 53.2314 72.6967 52.7561 73.0549 52.4076C73.4131 52.0591 73.8908 51.8644 74.3879 51.8644C74.8849 51.8644 75.3627 52.0591 75.7209 52.4076C76.079 52.7561 76.2897 53.2314 76.3088 53.7337H75.601Z" fill="black"/>
<path d="M72.464 57.4983V53.5704H76.3087V56.5478L72.464 57.4983ZM73.1718 54.2804V56.5708L75.6009 55.9724V54.2547L73.1718 54.2804Z" fill="black"/>
<path d="M81.4332 52.0961C81.4411 51.93 81.4156 51.7641 81.3582 51.6082C81.3009 51.4524 81.2128 51.31 81.0994 51.1896C80.9859 51.0692 80.8495 50.9734 80.6983 50.9079C80.5472 50.8424 80.3845 50.8087 80.22 50.8087C80.0556 50.8087 79.8929 50.8424 79.7417 50.9079C79.5906 50.9734 79.4542 51.0692 79.3407 51.1896C79.2273 51.31 79.1392 51.4524 79.0818 51.6082C79.0244 51.7641 78.9989 51.93 79.0069 52.0961H78.2991C78.3181 51.5939 78.5289 51.1186 78.887 50.77C79.2452 50.4215 79.723 50.2268 80.22 50.2268C80.7171 50.2268 81.1949 50.4215 81.553 50.77C81.9112 51.1186 82.1219 51.5939 82.141 52.0961H81.4332Z" fill="black"/>
<path d="M78.2991 56.0554V51.9271H82.141V55.1107L78.2991 56.0554ZM79.0069 52.6428V55.145L81.4332 54.5467V52.6428H79.0069Z" fill="black"/>
<path d="M112.169 56.1185C112.153 55.8034 112.019 55.5062 111.793 55.2886C111.567 55.071 111.267 54.9496 110.955 54.9496C110.643 54.9496 110.343 55.071 110.118 55.2886C109.892 55.5062 109.757 55.8034 109.742 56.1185H109.034C109.053 55.6162 109.264 55.1409 109.622 54.7924C109.981 54.4439 110.458 54.2491 110.955 54.2491C111.452 54.2491 111.93 54.4439 112.288 54.7924C112.647 55.1409 112.857 55.6162 112.876 56.1185H112.169Z" fill="black"/>
<path d="M112.876 60.3785L109.034 59.4337V55.9496H112.876V60.3785ZM109.742 58.8697L112.169 59.4681V56.6653H109.742V58.8697Z" fill="black"/>
<path d="M106.336 54.9246C106.336 54.5989 106.208 54.2865 105.981 54.0562C105.753 53.8258 105.444 53.6964 105.122 53.6964C104.8 53.6964 104.491 53.8258 104.263 54.0562C104.035 54.2865 103.907 54.5989 103.907 54.9246H103.199C103.199 54.4091 103.402 53.9146 103.762 53.5501C104.123 53.1855 104.612 52.9807 105.122 52.9807C105.632 52.9807 106.12 53.1855 106.481 53.5501C106.842 53.9146 107.044 54.4091 107.044 54.9246H106.336Z" fill="black"/>
<path d="M107.041 58.9413L103.199 57.9908V54.7557H107.041V58.9413ZM103.907 57.4297L106.333 58.028V55.4715H103.907V57.4297Z" fill="black"/>
<path d="M100.501 53.7337C100.486 53.4186 100.352 53.1214 100.126 52.9038C99.9 52.6862 99.6 52.5648 99.288 52.5648C98.9761 52.5648 98.676 52.6862 98.4502 52.9038C98.2243 53.1214 98.0899 53.4186 98.0749 53.7337H97.3671C97.3861 53.2314 97.5969 52.7561 97.955 52.4076C98.3132 52.0591 98.791 51.8644 99.288 51.8644C99.7851 51.8644 100.263 52.0591 100.621 52.4076C100.979 52.7561 101.19 53.2314 101.209 53.7337H100.501Z" fill="black"/>
<path d="M101.212 57.4983L97.3671 56.5478V53.5704H101.212V57.4983ZM98.0749 55.9867L100.504 56.5851V54.2947H98.0749V55.9867Z" fill="black"/>
<path d="M94.669 52.0961C94.6769 51.93 94.6514 51.7641 94.594 51.6082C94.5366 51.4524 94.4486 51.31 94.3351 51.1896C94.2217 51.0692 94.0853 50.9734 93.9341 50.9079C93.783 50.8424 93.6203 50.8087 93.4558 50.8087C93.2914 50.8087 93.1287 50.8424 92.9775 50.9079C92.8264 50.9734 92.6899 51.0692 92.5765 51.1896C92.4631 51.31 92.375 51.4524 92.3176 51.6082C92.2602 51.7641 92.2347 51.93 92.2427 52.0961H91.5405C91.5596 51.5939 91.7703 51.1186 92.1285 50.77C92.4867 50.4215 92.9644 50.2268 93.4615 50.2268C93.9586 50.2268 94.4363 50.4215 94.7945 50.77C95.1526 51.1186 95.3634 51.5939 95.3824 52.0961H94.669Z" fill="black"/>
<path d="M95.3768 56.0554L91.5349 55.1107V51.9271H95.3768V56.0554ZM92.2427 54.5467L94.6691 55.145V52.6428H92.2427V54.5467Z" fill="black"/>
<path d="M89.7597 53.8883H83.9897V48.0995C83.9897 47.3258 84.2937 46.5838 84.8347 46.0367C85.3758 45.4896 86.1096 45.1823 86.8747 45.1823C87.6399 45.1823 88.3737 45.4896 88.9147 46.0367C89.4558 46.5838 89.7597 47.3258 89.7597 48.0995V53.8883ZM84.6975 53.1726H89.0519V48.0995C89.0519 47.5156 88.8225 46.9557 88.4142 46.5428C88.0059 46.1299 87.4522 45.898 86.8747 45.898C86.2973 45.898 85.7435 46.1299 85.3352 46.5428C84.9269 46.9557 84.6975 47.5156 84.6975 48.0995V53.1726Z" fill="black"/>
<path d="M57.1643 62.1391H56.4565V40.0547H49.6617V31.3429H48.13V28.2424H47.4732V27.8903C47.4561 25.6431 46.7641 23.4542 45.489 21.6136C44.2139 19.773 42.4158 18.3677 40.333 17.5839L40.0498 17.4722L40.2593 16.5819V15.2449H39.3817V9.78821H38.9796V9.43035C38.9796 9.09462 38.9143 8.76217 38.7872 8.45199C38.6602 8.14182 38.4739 7.85998 38.2392 7.62259C38.0044 7.38519 37.7257 7.19687 37.4189 7.06839C37.1122 6.93991 36.7834 6.87378 36.4514 6.87378C36.1194 6.87378 35.7906 6.93991 35.4839 7.06839C35.1772 7.19687 34.8984 7.38519 34.6637 7.62259C34.4289 7.85998 34.2427 8.14182 34.1156 8.45199C33.9886 8.76217 33.9232 9.09462 33.9232 9.43035V9.76817H33.5211V15.2306H32.6435V16.5675L32.853 17.4579L32.5698 17.5696C30.487 18.3534 28.6889 19.7587 27.4138 21.5993C26.1387 23.4398 25.4467 25.6288 25.4296 27.876V28.2281H24.7728V31.3286H23.2411V39.6826H22.5333V30.6272H24.065V27.5181H24.7247C24.8103 25.2435 25.545 23.0426 26.8401 21.1808C28.1352 19.319 29.9354 17.8759 32.0234 17.0256L31.9385 16.6219V14.5263H32.8162V9.07249H33.2182C33.3032 8.26955 33.6789 7.52677 34.2729 6.98702C34.8669 6.44727 35.6372 6.14868 36.4358 6.14868C37.2344 6.14868 38.0048 6.44727 38.5988 6.98702C39.1928 7.52677 39.5684 8.26955 39.6535 9.07249H40.0725V14.5349H40.9502V16.7136L40.8766 17.0342C42.9628 17.8843 44.7615 19.3263 46.056 21.1864C47.3505 23.0465 48.0855 25.2453 48.1725 27.5181H48.8435V30.6186H50.3751V39.3304H57.17L57.1643 62.1391Z" fill="black"/>
<path d="M36.7968 0H36.089V6.65623H36.7968V0Z" fill="black"/>
<path d="M38.9145 1.98108H33.9769V2.6968H38.9145V1.98108Z" fill="black"/>
<path d="M35.537 10.6443H34.8292V14.3918H35.537V10.6443Z" fill="black"/>
<path d="M38.0596 10.6443H37.3518V14.3918H38.0596V10.6443Z" fill="black"/>
<path d="M28.8497 32.9777V38.2998H27.3435V32.9777C27.3435 32.8777 27.363 32.7787 27.4008 32.6863C27.4387 32.5939 27.4941 32.5099 27.5641 32.4392C27.634 32.3685 27.717 32.3124 27.8084 32.2742C27.8998 32.2359 27.9977 32.2162 28.0966 32.2162C28.1955 32.2162 28.2934 32.2359 28.3848 32.2742C28.4762 32.3124 28.5592 32.3685 28.6291 32.4392C28.699 32.5099 28.7545 32.5939 28.7924 32.6863C28.8302 32.7787 28.8497 32.8777 28.8497 32.9777Z" fill="black"/>
<path d="M33.0229 32.9777V38.2998H31.5195V32.9777C31.5195 32.7757 31.5989 32.582 31.7401 32.4392C31.8813 32.2964 32.0729 32.2162 32.2726 32.2162C32.4724 32.2162 32.6639 32.2964 32.8051 32.4392C32.9464 32.582 33.0257 32.7757 33.0257 32.9777H33.0229Z" fill="black"/>
<path d="M37.196 32.9777V38.2998H35.6898V32.9777C35.6898 32.7757 35.7692 32.582 35.9104 32.4392C36.0517 32.2964 36.2432 32.2162 36.4429 32.2162C36.6427 32.2162 36.8342 32.2964 36.9754 32.4392C37.1167 32.582 37.196 32.7757 37.196 32.9777Z" fill="black"/>
<path d="M41.3692 32.9777V38.2998H39.863V32.9777C39.863 32.8777 39.8825 32.7787 39.9204 32.6863C39.9582 32.5939 40.0137 32.5099 40.0836 32.4392C40.1536 32.3685 40.2366 32.3124 40.3279 32.2742C40.4193 32.2359 40.5172 32.2162 40.6161 32.2162C40.715 32.2162 40.813 32.2359 40.9043 32.2742C40.9957 32.3124 41.0787 32.3685 41.1486 32.4392C41.2186 32.5099 41.2741 32.5939 41.3119 32.6863C41.3498 32.7787 41.3692 32.8777 41.3692 32.9777Z" fill="black"/>
<path d="M45.5423 32.9777V38.2998H44.0361V32.9777C44.0361 32.7757 44.1155 32.582 44.2567 32.4392C44.398 32.2964 44.5895 32.2162 44.7892 32.2162C44.989 32.2162 45.1805 32.2964 45.3217 32.4392C45.463 32.582 45.5423 32.7757 45.5423 32.9777Z" fill="black"/>
<path d="M21.5509 41.658H11.1208V42.3737H21.5509V41.658Z" fill="black"/>
<path d="M21.5509 49.0729H11.1208V49.7886H21.5509V49.0729Z" fill="black"/>
<path d="M21.5509 49.0729H11.1208V49.7886H21.5509V49.0729Z" fill="black"/>
<path d="M21.5509 56.4878H11.1208V57.2035H21.5509V56.4878Z" fill="black"/>
<path d="M22.0294 35.5399L16.3359 31.1024L10.6452 35.5399L10.212 34.9731L16.3359 30.1978L22.4597 34.9731L22.0294 35.5399Z" fill="black"/>
<path d="M14.2494 36.8884V39.8887H13.4V36.8884C13.4 36.7745 13.4448 36.6653 13.5244 36.5848C13.604 36.5042 13.7121 36.459 13.8247 36.459C13.9373 36.459 14.0454 36.5042 14.125 36.5848C14.2046 36.6653 14.2494 36.7745 14.2494 36.8884Z" fill="black"/>
<path d="M15.5602 36.8884V39.8887H14.7108V36.8884C14.7108 36.7745 14.7556 36.6653 14.8352 36.5848C14.9148 36.5042 15.0229 36.459 15.1355 36.459C15.2481 36.459 15.3561 36.5042 15.4358 36.5848C15.5154 36.6653 15.5602 36.7745 15.5602 36.8884Z" fill="black"/>
<path d="M18.0006 36.8884V39.8887H17.1512V36.8884C17.1512 36.7745 17.196 36.6653 17.2756 36.5848C17.3553 36.5042 17.4633 36.459 17.5759 36.459C17.6886 36.459 17.7966 36.5042 17.8762 36.5848C17.9559 36.6653 18.0006 36.7745 18.0006 36.8884Z" fill="black"/>
<path d="M19.3086 36.8884V39.8887H18.4592V36.8884C18.4592 36.7745 18.504 36.6653 18.5836 36.5848C18.6633 36.5042 18.7713 36.459 18.8839 36.459C18.9965 36.459 19.1046 36.5042 19.1842 36.5848C19.2638 36.6653 19.3086 36.7745 19.3086 36.8884Z" fill="black"/>
<path d="M14.2494 44.3462V47.3465H13.4V44.3462C13.4 44.2323 13.4448 44.1231 13.5244 44.0425C13.604 43.962 13.7121 43.9167 13.8247 43.9167C13.9373 43.9167 14.0454 43.962 14.125 44.0425C14.2046 44.1231 14.2494 44.2323 14.2494 44.3462Z" fill="black"/>
<path d="M15.5602 44.3462V47.3465H14.7108V44.3462C14.7108 44.2323 14.7556 44.1231 14.8352 44.0425C14.9148 43.962 15.0229 43.9167 15.1355 43.9167C15.2481 43.9167 15.3561 43.962 15.4358 44.0425C15.5154 44.1231 15.5602 44.2323 15.5602 44.3462Z" fill="black"/>
<path d="M18.0006 44.3462V47.3465H17.1512V44.3462C17.1512 44.2323 17.196 44.1231 17.2756 44.0425C17.3553 43.962 17.4633 43.9167 17.5759 43.9167C17.6886 43.9167 17.7966 43.962 17.8762 44.0425C17.9559 44.1231 18.0006 44.2323 18.0006 44.3462Z" fill="black"/>
<path d="M19.3086 44.3462V47.3465H18.4592V44.3462C18.4592 44.2323 18.504 44.1231 18.5836 44.0425C18.6633 43.962 18.7713 43.9167 18.8839 43.9167C18.9965 43.9167 19.1046 43.962 19.1842 44.0425C19.2638 44.1231 19.3086 44.2323 19.3086 44.3462Z" fill="black"/>
<path d="M14.2494 51.8041V54.8044H13.4V51.8041C13.4 51.6902 13.4448 51.581 13.5244 51.5004C13.604 51.4199 13.7121 51.3746 13.8247 51.3746C13.9373 51.3746 14.0454 51.4199 14.125 51.5004C14.2046 51.581 14.2494 51.6902 14.2494 51.8041Z" fill="black"/>
<path d="M15.5602 51.8041V54.8044H14.7108V51.8041C14.7108 51.6902 14.7556 51.581 14.8352 51.5004C14.9148 51.4199 15.0229 51.3746 15.1355 51.3746C15.2481 51.3746 15.3561 51.4199 15.4358 51.5004C15.5154 51.581 15.5602 51.6902 15.5602 51.8041Z" fill="black"/>
<path d="M18.0006 51.8041V54.8044H17.1512V51.8041C17.1512 51.6902 17.196 51.581 17.2756 51.5004C17.3553 51.4199 17.4633 51.3746 17.5759 51.3746C17.6886 51.3746 17.7966 51.4199 17.8762 51.5004C17.9559 51.581 18.0006 51.6902 18.0006 51.8041Z" fill="black"/>
<path d="M19.3086 51.8041V54.8044H18.4592V51.8041C18.4592 51.6902 18.504 51.581 18.5836 51.5004C18.6633 51.4199 18.7713 51.3746 18.8839 51.3746C18.9965 51.3746 19.1046 51.4199 19.1842 51.5004C19.2638 51.581 19.3086 51.6902 19.3086 51.8041Z" fill="black"/>
<path d="M15.2545 58.5605V62.0905H13.7086V58.5605C13.7086 58.3532 13.7901 58.1544 13.935 58.0078C14.08 57.8613 14.2765 57.7789 14.4815 57.7789C14.6865 57.7789 14.8831 57.8613 15.0281 58.0078C15.173 58.1544 15.2545 58.3532 15.2545 58.5605Z" fill="black"/>
<path d="M18.9491 58.5605V62.0905H17.4033V58.5605C17.4033 58.3532 17.4847 58.1544 17.6297 58.0078C17.7746 57.8613 17.9712 57.7789 18.1762 57.7789C18.3812 57.7789 18.5778 57.8613 18.7228 58.0078C18.8677 58.1544 18.9491 58.3532 18.9491 58.5605Z" fill="black"/>
<path d="M16.6898 28.5859H15.9821V30.9908H16.6898V28.5859Z" fill="black"/>
<path d="M7.64139 59.4451H7.61872L7.59609 59.0872L7.57345 59.4451C6.22014 59.4451 5.34814 59.1015 5.34814 54.5094C5.37101 51.887 5.56014 49.2688 5.91438 46.6708C6.56272 42.033 7.26768 42.033 7.61309 42.033C7.95849 42.033 8.65496 42.033 9.3118 46.6708C9.666 49.2688 9.85514 51.887 9.87803 54.5094C9.87803 56.6938 9.69682 57.9821 9.28913 58.6835C8.81632 59.4451 8.16516 59.4451 7.64139 59.4451ZM7.59609 58.7294H7.64139C8.1595 58.7294 8.41995 58.7122 8.64644 58.32C8.97769 57.7474 9.13906 56.5049 9.13906 54.5094C9.13906 49.4221 8.25009 43.4386 7.59609 42.7716C6.94491 43.43 6.05594 49.4106 6.05594 54.5094C6.05594 58.7294 6.71558 58.7294 7.55078 58.7294H7.59609Z" fill="black"/>
<path d="M7.95279 59.0873H7.245V62.3825H7.95279V59.0873Z" fill="black"/>
<path d="M33.9544 41.658H23.5243V42.3737H33.9544V41.658Z" fill="black"/>
<path d="M33.9544 49.0729H23.5243V49.7886H33.9544V49.0729Z" fill="black"/>
<path d="M33.9544 49.0729H23.5243V49.7886H33.9544V49.0729Z" fill="black"/>
<path d="M33.9544 56.4878H23.5243V57.2035H33.9544V56.4878Z" fill="black"/>
<path d="M26.6584 44.3462V47.3465H25.8091V44.3462C25.8091 44.2323 25.8538 44.1231 25.9335 44.0425C26.0131 43.962 26.1211 43.9167 26.2338 43.9167C26.3464 43.9167 26.4544 43.962 26.5341 44.0425C26.6137 44.1231 26.6584 44.2323 26.6584 44.3462Z" fill="black"/>
<path d="M27.9635 44.3462V47.3465H27.1141V44.3462C27.1141 44.2323 27.1589 44.1231 27.2386 44.0425C27.3182 43.962 27.4262 43.9167 27.5388 43.9167C27.6514 43.9167 27.7595 43.962 27.8391 44.0425C27.9187 44.1231 27.9635 44.2323 27.9635 44.3462Z" fill="black"/>
<path d="M30.4068 44.3462V47.3465H29.5575V44.3462C29.5575 44.2323 29.6023 44.1231 29.6819 44.0425C29.7616 43.962 29.8695 43.9167 29.9822 43.9167C30.0948 43.9167 30.2028 43.962 30.2825 44.0425C30.3621 44.1231 30.4068 44.2323 30.4068 44.3462Z" fill="black"/>
<path d="M31.712 44.3462V47.3465H30.8627V44.3462C30.8627 44.2323 30.9074 44.1231 30.9871 44.0425C31.0667 43.962 31.1747 43.9167 31.2873 43.9167C31.4 43.9167 31.508 43.962 31.5876 44.0425C31.6672 44.1231 31.712 44.2323 31.712 44.3462Z" fill="black"/>
<path d="M26.6584 51.8041V54.8044H25.8091V51.8041C25.8091 51.6902 25.8538 51.581 25.9335 51.5004C26.0131 51.4199 26.1211 51.3746 26.2338 51.3746C26.3464 51.3746 26.4544 51.4199 26.5341 51.5004C26.6137 51.581 26.6584 51.6902 26.6584 51.8041Z" fill="black"/>
<path d="M27.9635 51.8041V54.8044H27.1141V51.8041C27.1141 51.6902 27.1589 51.581 27.2386 51.5004C27.3182 51.4199 27.4262 51.3746 27.5388 51.3746C27.6514 51.3746 27.7595 51.4199 27.8391 51.5004C27.9187 51.581 27.9635 51.6902 27.9635 51.8041Z" fill="black"/>
<path d="M30.4068 51.8041V54.8044H29.5575V51.8041C29.5575 51.6902 29.6023 51.581 29.6819 51.5004C29.7616 51.4199 29.8695 51.3746 29.9822 51.3746C30.0948 51.3746 30.2028 51.4199 30.2825 51.5004C30.3621 51.581 30.4068 51.6902 30.4068 51.8041Z" fill="black"/>
<path d="M31.712 51.8041V54.8044H30.8627V51.8041C30.8627 51.6902 30.9074 51.581 30.9871 51.5004C31.0667 51.4199 31.1747 51.3746 31.2873 51.3746C31.4 51.3746 31.508 51.4199 31.5876 51.5004C31.6672 51.581 31.712 51.6902 31.712 51.8041Z" fill="black"/>
<path d="M27.6577 58.5605V62.0905H26.1119V58.5605C26.1119 58.3532 26.1934 58.1544 26.3383 58.0078C26.4833 57.8613 26.6799 57.7789 26.8848 57.7789C27.0898 57.7789 27.2864 57.8613 27.4314 58.0078C27.5763 58.1544 27.6577 58.3532 27.6577 58.5605Z" fill="black"/>
<path d="M31.3525 58.5605V62.0905H29.8208V58.5605C29.8208 58.3532 29.9022 58.1544 30.0472 58.0078C30.1921 57.8613 30.3887 57.7789 30.5937 57.7789C30.7987 57.7789 30.9953 57.8613 31.1402 58.0078C31.2852 58.1544 31.3666 58.3532 31.3666 58.5605H31.3525Z" fill="black"/>
<path d="M0.707795 62.7603H12.2222V35.56H20.4496V62.4483H24.6256V42.3736H32.853V62.4483H36.4429V61.7325H33.5608V41.6579H23.9178V61.7325H21.1574V34.8442H11.5144V62.0446H0V64H0.693639L0.707795 62.7603Z" fill="black"/>
<path d="M45.7688 41.658H35.3387V42.3737H45.7688V41.658Z" fill="black"/>
<path d="M45.7688 49.0729H35.3387V49.7886H45.7688V49.0729Z" fill="black"/>
<path d="M45.7688 49.0729H35.3387V49.7886H45.7688V49.0729Z" fill="black"/>
<path d="M45.7688 56.4878H35.3387V57.2035H45.7688V56.4878Z" fill="black"/>
<path d="M38.4701 44.3462V47.3465H37.6207V44.3462C37.6207 44.2323 37.6655 44.1231 37.7451 44.0425C37.8248 43.962 37.9328 43.9167 38.0454 43.9167C38.158 43.9167 38.2661 43.962 38.3457 44.0425C38.4253 44.1231 38.4701 44.2323 38.4701 44.3462Z" fill="black"/>
<path d="M39.7753 44.3462V47.3465H38.9259V44.3462C38.9259 44.2323 38.9706 44.1231 39.0503 44.0425C39.1299 43.962 39.2379 43.9167 39.3506 43.9167C39.4632 43.9167 39.5712 43.962 39.6509 44.0425C39.7305 44.1231 39.7753 44.2323 39.7753 44.3462Z" fill="black"/>
<path d="M42.2186 44.3462V47.3465H41.3693V44.3462C41.3693 44.2323 41.414 44.1231 41.4936 44.0425C41.5733 43.962 41.6813 43.9167 41.7939 43.9167C41.9066 43.9167 42.0146 43.962 42.0942 44.0425C42.1739 44.1231 42.2186 44.2323 42.2186 44.3462Z" fill="black"/>
<path d="M43.5237 44.3462V47.3465H42.6743V44.3462C42.6743 44.2323 42.7191 44.1231 42.7987 44.0425C42.8783 43.962 42.9864 43.9167 43.099 43.9167C43.2116 43.9167 43.3196 43.962 43.3993 44.0425C43.4789 44.1231 43.5237 44.2323 43.5237 44.3462Z" fill="black"/>
<path d="M38.4701 51.8041V54.8044H37.6207V51.8041C37.6207 51.6902 37.6655 51.581 37.7451 51.5004C37.8248 51.4199 37.9328 51.3746 38.0454 51.3746C38.158 51.3746 38.2661 51.4199 38.3457 51.5004C38.4253 51.581 38.4701 51.6902 38.4701 51.8041Z" fill="black"/>
<path d="M39.7753 51.8041V54.8044H38.9259V51.8041C38.9259 51.6902 38.9706 51.581 39.0503 51.5004C39.1299 51.4199 39.2379 51.3746 39.3506 51.3746C39.4632 51.3746 39.5712 51.4199 39.6509 51.5004C39.7305 51.581 39.7753 51.6902 39.7753 51.8041Z" fill="black"/>
<path d="M42.2186 51.8041V54.8044H41.3693V51.8041C41.3693 51.6902 41.414 51.581 41.4936 51.5004C41.5733 51.4199 41.6813 51.3746 41.7939 51.3746C41.9066 51.3746 42.0146 51.4199 42.0942 51.5004C42.1739 51.581 42.2186 51.6902 42.2186 51.8041Z" fill="black"/>
<path d="M43.5237 51.8041V54.8044H42.6743V51.8041C42.6743 51.6902 42.7191 51.581 42.7987 51.5004C42.8783 51.4199 42.9864 51.3746 43.099 51.3746C43.2116 51.3746 43.3196 51.4199 43.3993 51.5004C43.4789 51.581 43.5237 51.6902 43.5237 51.8041Z" fill="black"/>
<path d="M39.4695 58.5605V62.0905H37.9237V58.5605C37.9237 58.3532 38.0051 58.1544 38.1501 58.0078C38.295 57.8613 38.4916 57.7789 38.6966 57.7789C38.9016 57.7789 39.0982 57.8613 39.2431 58.0078C39.3881 58.1544 39.4695 58.3532 39.4695 58.5605Z" fill="black"/>
<path d="M43.1642 58.5605V62.0905H41.6184V58.5605C41.6184 58.3532 41.6998 58.1544 41.8448 58.0078C41.9897 57.8613 42.1863 57.7789 42.3913 57.7789C42.5963 57.7789 42.7929 57.8613 42.9379 58.0078C43.0828 58.1544 43.1642 58.3532 43.1642 58.5605Z" fill="black"/>
<path d="M58.5743 62.4483H44.6675V42.3737H36.4401V62.0904H35.7323V41.658H45.3753V61.7326H58.5743V62.4483Z" fill="black"/>
<path d="M122.508 64V42.8747L122.862 42.0359H122.508V37.5641L122.8 37.0287H116.959L117.251 37.5641V42.0359H116.894L117.251 42.8747V60.7621H114.49V60.0464H116.543V43.0236L115.824 41.3202H116.543V37.7473L115.758 36.313H124L123.216 37.7473V41.3202H123.935L123.216 43.0236V64" fill="black"/>
<path d="M122.882 33.4443H116.874L116.095 31.4575H117.2L119.779 20.8905L122.548 31.4575H123.66L122.882 33.4443ZM117.355 32.7286H122.4L122.618 32.1732H122.004L119.804 23.7763L117.754 32.1732H117.137L117.355 32.7286Z" fill="black"/>
<path d="M123.213 36.9399H116.543V35.5342H117.109V32.8259H122.658V35.5342H123.224L123.213 36.9399ZM117.811 36.2242H121.945V33.5302H117.811V36.2242Z" fill="black"/>
<path d="M119.433 39.1386V41.8956H118.301V39.1386C118.301 38.9868 118.36 38.8411 118.467 38.7337C118.573 38.6264 118.717 38.566 118.867 38.566C119.017 38.566 119.161 38.6264 119.267 38.7337C119.374 38.8411 119.433 38.9868 119.433 39.1386Z" fill="black"/>
<path d="M121.452 39.1386V41.8956H120.319V39.1386C120.319 38.9868 120.379 38.8411 120.485 38.7337C120.592 38.6264 120.736 38.566 120.886 38.566C121.036 38.566 121.18 38.6264 121.286 38.7337C121.392 38.8411 121.452 38.9868 121.452 39.1386Z" fill="black"/>
</svg>
