    <svg
      class="jar-mask"
      width="610"
      height="730"
      viewBox="0 0 857 1019"
      fill="none"
      xmlns="http://www.w3.org/2000/svg"
    >
      <polygon fill="white" points="856.9932250976562,474.69329833984375 856.910400390625,458.9488830566406 856.4957885742188,443.21014404296875 855.668701171875,427.487548828125 854.3482666015625,411.7993469238281 853.5399780273438,404.4840087890625 851.3171997070312,388.898681640625 848.317138671875,373.44403076171875 772.7127075195312,38.818782806396484 767.0201416015625,24.296628952026367 756.3659057617188,12.91066837310791 740.693603515625,11.558097839355469 724.9880981445312,10.447686195373535 709.2789306640625,9.38977336883545 693.56591796875,8.389657020568848 677.8495483398438,7.44514799118042 662.1298828125,6.556318759918213 646.4071655273438,5.723286151885986 630.6815185546875,4.9474053382873535 614.9533081054688,4.227413177490234 599.2225341796875,3.5620901584625244 583.4895629882812,2.9538204669952393 567.75439453125,2.404022216796875 552.0174560546875,1.9075047969818115 536.2787475585938,1.4701215028762817 520.5386352539062,1.0876085758209229 504.7972106933594,0.7628712058067322 489.05474853515625,0.49594253301620483 473.3114318847656,0.28571560978889465 457.5672912597656,0.13424241542816162 441.8229064941406,0.03805544227361679 426.07818603515625,0.0006883997702971101 410.33343505859375,0.021722417324781418 394.5888671875,0.10113079845905304 378.8447265625,0.23889288306236267 363.10113525390625,0.4352496862411499 347.3584899902344,0.6908268928527832 331.6168518066406,1.0048034191131592 315.87652587890625,1.3789422512054443 300.1377258300781,1.8128831386566162 284.40069580078125,2.306750774383545 268.6656494140625,2.8608450889587402 252.9329071044922,3.475480318069458 190.0167694091797,6.173855304718018 174.28775024414062,6.852637767791748 158.56253051757812,7.629326820373535 142.86077880859375,8.78719425201416 127.25463104248047,10.83454418182373 111.88800048828125,14.241329193115234 98.3660659790039,20.877216339111328 13.232067108154297,369.925537109375 9.87318229675293,385.3061828613281 7.245197296142578,400.828857421875 5.19512414932251,416.4386901855469 3.6364550590515137,432.105712890625 2.4891300201416016,447.8081970214844 1.6718380451202393,463.531494140625 1.1051111221313477,479.2659606933594 0.7073403000831604,495.005615234375 0.42584413290023804,510.747802734375 0.0008481768891215324,857.0970458984375 0.4548451900482178,872.8328247070312 2.171008825302124,888.4771118164062 5.747790336608887,903.7970581054688 11.637158393859863,918.37890625 19.947324752807617,931.728515625 30.382976531982422,943.495361328125 42.377166748046875,953.6810302734375 55.42184066772461,962.4852294921875 69.22757720947266,970.045166015625 83.57449340820312,976.5228881835938 98.3050765991211,982.0765380859375 113.30862426757812,986.8458251953125 128.50791931152344,990.94921875 143.84974670410156,994.4848022460938 159.2935333251953,997.544677734375 174.81524658203125,1000.1831665039062 190.39585876464844,1002.44921875 206.0198974609375,1004.3924560546875 221.6761474609375,1006.0596923828125 237.35499572753906,1007.4955444335938 253.0500030517578,1008.744873046875 268.7555236816406,1009.85498046875 363.01055908203125,1016.1842041015625 378.721923828125,1017.2072143554688 394.44659423828125,1017.9993896484375 410.18121337890625,1018.5619506835938 425.9220886230469,1018.8952026367188 441.66656494140625,1019.0001220703125 457.41064453125,1018.8914184570312 473.15283203125,1018.6033935546875 488.89068603515625,1018.13720703125 504.6220703125,1017.4933471679688 520.3453369140625,1016.6718139648438 536.0581665039062,1015.6724243164062 551.7588500976562,1014.493896484375 567.4451293945312,1013.1371459960938 583.1070556640625,1011.528564453125 598.7406616210938,1009.662353515625 614.3465576171875,1007.5771484375 629.9273681640625,1005.3108520507812 645.4863891601562,1002.9010620117188 661.028564453125,1000.3828125 676.5593872070312,997.795166015625 723.1448974609375,989.9962158203125 738.556396484375,986.7818603515625 753.7741088867188,982.7496337890625 768.7124633789062,977.7860717773438 783.2254638671875,971.6935424804688 797.0452270507812,964.1688842773438 809.6603393554688,954.7789306640625 820.0775756835938,943.027099609375 827.5040283203125,929.1694946289062 832.8486328125,914.3687744140625 836.6356811523438,899.0929565429688 838.9669189453125,883.52685546875 844.6134643554688,820.830810546875 845.58056640625,805.120361328125 856.0282592773438,521.9163818359375 856.4823608398438,506.177978515625 856.8240966796875,490.4372253417969"></polygon>
    </svg>