<svg width="857" height="1019" viewBox="0 0 857 1019" fill="none" xmlns="http://www.w3.org/2000/svg">
<path d="M184.609 115.633C188.434 115.825 192.288 115.899 196.113 115.899C205.359 115.899 214.663 115.453 223.765 115.017C229.287 114.751 234.996 114.485 240.546 114.315C259.096 113.772 277.933 113.39 296.354 113.198C314.343 113.017 332.548 113.007 350.494 113.198C358.863 113.273 367.749 113.411 378.448 113.645C380.461 113.645 382.503 113.772 384.545 113.847C391.505 114.113 398.695 114.389 405.64 113.358C406.5 113.237 407.277 112.897 407.836 112.399C408.395 111.9 408.702 111.273 408.703 110.625C408.762 109.944 408.51 109.268 407.989 108.706C407.468 108.143 406.707 107.725 405.827 107.52C399.198 106.159 392.123 106.148 385.278 106.148C383.294 106.148 381.324 106.148 379.397 106.148C370.395 105.989 361.278 105.872 352.277 105.787C333.18 105.627 313.797 105.648 294.671 105.872C276.567 106.074 256.479 106.584 233.227 107.446C224.196 107.775 214.634 108.158 202.195 108.679C200.527 108.753 198.845 108.796 197.148 108.838C193.668 108.924 190.073 109.019 186.579 109.36L185.846 109.413C185.065 109.388 184.288 109.508 183.586 109.76C182.883 110.013 182.276 110.39 181.819 110.859C181.375 111.337 181.107 111.892 181.041 112.47C180.976 113.048 181.115 113.629 181.445 114.155C181.749 114.586 182.202 114.95 182.758 115.209C183.313 115.469 183.952 115.615 184.609 115.633V115.633Z" fill="black"/>
<path d="M565.873 107.499C567.196 107.499 568.49 107.435 569.612 107.382H570.777C575.091 107.222 579.721 107.02 585.027 106.733C589.916 106.478 594.82 106.18 599.709 105.893C609.775 105.297 620.07 104.691 630.266 104.362L639.037 104.085C655.445 103.596 672.413 103.086 689.007 101.427C690.135 101.326 691.164 100.899 691.87 100.24C692.575 99.5808 692.9 98.7425 692.774 97.9071C692.739 96.9617 692.222 96.0611 691.325 95.3865C690.429 94.7118 689.221 94.3131 687.943 94.2704C660.765 94.0578 633.142 95.7166 606.424 97.3329C593.367 98.1198 579.879 98.9386 566.635 99.5234C566.549 99.5234 558.396 100.108 557.015 102.958C556.779 103.523 556.79 104.129 557.049 104.689C557.307 105.249 557.799 105.734 558.453 106.074C560.107 107.233 563.069 107.499 565.873 107.499Z" fill="black"/>
<path d="M136.163 48.9927C135.364 44.2991 135.51 39.544 136.594 34.8819C136.594 34.6161 136.81 34.0844 137.026 33.3932C138.838 27.4384 139.47 23.9506 137.63 22.5576C137.309 22.3151 136.908 22.1378 136.468 22.0429C136.027 21.9479 135.56 21.9384 135.113 22.0153C130.799 22.6533 126.773 30.0436 126.327 30.8837C123.451 36.3813 122.761 42.9953 124.314 51.0875C124.388 51.7843 124.723 52.4521 125.282 53.0157C125.84 53.5793 126.601 54.0164 127.478 54.2776C128.145 54.4739 128.859 54.5714 129.577 54.5647C131.147 54.5643 132.669 54.1665 133.891 53.4375C134.782 52.9202 135.464 52.2326 135.865 51.4492C136.265 50.6658 136.368 49.8163 136.163 48.9927V48.9927Z" fill="black"/>
<path d="M154.181 54.1075C154.489 54.1106 154.798 54.0928 155.102 54.0544C156.234 53.926 157.294 53.5633 158.159 53.0082C159.024 52.4531 159.659 51.7282 159.991 50.9175C160.88 48.3848 161.099 45.7491 160.638 43.1549C160.473 41.7797 160.42 40.3984 160.48 39.0185C160.687 37.1345 161.033 35.2603 161.515 33.4039C162.088 31.2596 162.463 29.0889 162.636 26.9068C162.718 26.0858 162.431 25.2679 161.82 24.5797C161.209 23.8915 160.308 23.3714 159.257 23.1C158.038 22.801 156.723 22.7876 155.493 23.0616C154.263 23.3357 153.177 23.8838 152.384 24.6312C148.458 28.5019 147.265 33.5422 146.632 37.9551C146.028 41.9427 145.194 47.9719 148.99 52.0127C149.569 52.6412 150.341 53.1589 151.244 53.5231C152.147 53.8874 153.153 54.0877 154.181 54.1075V54.1075Z" fill="black"/>
<path d="M176.959 56.1065H177.678C179.52 56.1408 181.312 55.661 182.698 54.7625C184.083 53.864 184.961 52.6127 185.155 51.2576C185.371 49.5775 185.644 47.8655 185.917 46.1109C187.168 38.2208 188.463 30.0436 186.406 22.5363C186.247 21.8528 185.784 21.2281 185.092 20.7603C184.399 20.2925 183.516 20.0083 182.581 19.9523C181.461 19.887 180.342 20.0812 179.378 20.5081C178.414 20.935 177.654 21.5732 177.203 22.3342C173.349 29.2992 172.515 37.9124 171.782 45.5155C171.609 47.4082 171.423 49.2585 171.207 51.0343C171.096 51.6515 171.161 52.279 171.396 52.8768C171.631 53.4746 172.032 54.0297 172.573 54.5067C173.114 54.9838 173.783 55.3724 174.538 55.6478C175.293 55.9232 176.118 56.0794 176.959 56.1065Z" fill="black"/>
<path d="M202.224 45.6326C202.382 47.1425 202.54 48.6525 202.684 50.1518C202.749 51.0955 203.16 52.0082 203.875 52.7915C204.59 53.5748 205.58 54.199 206.739 54.5966C207.823 54.9747 209.006 55.1708 210.205 55.1709C211.698 55.1827 213.162 54.8602 214.404 54.2458C215.305 53.7722 216.016 53.1262 216.459 52.377C216.902 51.6277 217.062 50.8034 216.92 49.9923C216.719 48.493 216.546 46.9936 216.359 45.4943C215.956 42.1766 215.54 38.7526 214.993 35.3818V35.2435C214.519 32.3831 213.44 25.6733 207.444 25.6733C206.767 25.6678 206.096 25.7671 205.475 25.9649C204.853 26.1627 204.294 26.4546 203.834 26.8217C201.217 28.874 201.145 33.0637 201.404 36.5621C201.577 39.5714 201.907 42.7083 202.224 45.6326Z" fill="black"/>
<path d="M222.586 47.4297C222.547 48.3462 222.844 49.2535 223.447 50.0549C224.049 50.8563 224.935 51.5219 226.008 51.9809C227.222 52.4796 228.588 52.7396 229.977 52.7359C231.379 52.7453 232.759 52.4773 233.974 51.9596C235.037 51.4981 235.909 50.8319 236.499 50.0322C237.09 49.2325 237.375 48.3293 237.325 47.4191C237.325 45.6326 237.325 43.793 237.325 41.9534C237.454 35.2224 237.598 28.2574 234.737 21.9091C234.407 21.1256 233.745 20.4411 232.849 19.9567C231.953 19.4723 230.871 19.2137 229.761 19.2188V19.2188C228.658 19.2171 227.583 19.4777 226.695 19.9621C225.807 20.4464 225.153 21.129 224.829 21.9091C222.039 28.2893 222.241 35.2436 222.442 41.9747C222.543 43.8249 222.6 45.6433 222.586 47.4297Z" fill="black"/>
<path d="M251.604 56.7976C252.861 56.7856 254.074 56.4553 255.041 55.8619V55.8619C260.217 52.6718 260.232 47.153 260.246 42.2615C260.246 41.0068 260.246 39.8264 260.347 38.7737C260.447 37.721 260.591 36.4237 260.721 35.2115C261.382 29.5012 262.072 23.5996 259.283 18.2722C258.971 17.6858 258.444 17.1757 257.76 16.7998C257.076 16.4239 256.264 16.1972 255.415 16.1454C254.646 16.1031 253.876 16.2248 253.198 16.4963C252.52 16.7677 251.962 17.1774 251.589 17.6767C247.75 22.6 247.276 28.4166 246.7 34.0418C246.6 35.1796 246.485 36.2961 246.355 37.3807C246.226 38.4653 245.967 39.7839 245.708 41.0918C244.687 46.1002 243.537 51.7254 248.383 55.7555C248.791 56.0867 249.288 56.3507 249.843 56.5302C250.398 56.7098 250.998 56.8009 251.604 56.7976V56.7976Z" fill="black"/>
<path d="M274.051 53.0015C275.484 53.7833 277.216 54.2078 278.997 54.2138C280.055 54.2159 281.101 54.0453 282.06 53.714C283.196 53.2903 284.143 52.6339 284.788 51.8232C285.433 51.0124 285.749 50.0815 285.698 49.1416C285.813 47.0148 285.971 44.9838 286.13 42.889C286.823 36.5192 286.823 30.1184 286.13 23.7486C285.911 22.5836 285.149 21.5117 283.975 20.7178C282.802 19.9238 281.29 19.4576 279.702 19.3994C278.372 19.3458 277.062 19.6602 276.028 20.2813C274.994 20.9025 274.31 21.7859 274.108 22.7597C272.311 29.3312 271.966 36.1899 271.62 42.8358C271.52 44.7818 271.419 46.7171 271.304 48.5248C271.153 49.3861 271.331 50.2613 271.816 51.0522C272.301 51.843 273.075 52.5181 274.051 53.0015V53.0015Z" fill="black"/>
<path d="M296.498 52.5762C297.728 53.1402 299.149 53.4352 300.596 53.4269C301.893 53.4311 303.171 53.2011 304.32 52.757C305.437 52.3282 306.376 51.6835 307.037 50.8915C307.698 50.0994 308.056 49.1896 308.074 48.259V48.259C308.174 45.909 308.419 43.4951 308.663 40.9537C309.411 33.2656 310.187 25.3117 307.556 18.1766C307.307 17.4086 306.722 16.7227 305.893 16.2249C305.064 15.7271 304.036 15.4451 302.969 15.4225C301.807 15.3937 300.662 15.6345 299.695 16.1113C298.728 16.5881 297.987 17.2768 297.576 18.0809C294.125 24.9821 293.981 32.9679 293.838 40.6879C293.838 43.3037 293.751 45.7601 293.579 48.1314C293.471 48.9987 293.686 49.8713 294.2 50.6548C294.715 51.4382 295.509 52.1027 296.498 52.5762V52.5762Z" fill="black"/>
<path d="M317.751 47.2596C317.742 48.1824 318.077 49.0891 318.718 49.8806C319.36 50.6721 320.284 51.3177 321.389 51.7469C322.441 52.1547 323.597 52.3973 324.782 52.4594C325.957 52.4111 327.099 52.1598 328.118 51.7257C329.219 51.2806 330.133 50.6211 330.762 49.8186C331.39 49.0162 331.709 48.1017 331.684 47.1745C331.555 45.0478 331.684 42.9211 331.684 40.7943C331.684 38.3167 331.814 35.754 331.598 33.202C330.994 25.9818 329.341 21.7921 326.407 20.0376C325.837 19.6265 325.113 19.3503 324.33 19.2443C323.546 19.1382 322.738 19.2071 322.007 19.4421C316.902 21.2179 316.658 32.6703 316.658 32.7873C316.658 35.5201 316.917 38.2635 317.204 40.9113C317.492 42.9849 317.751 45.1435 317.751 47.2596Z" fill="black"/>
<path d="M345.072 36.3281C345.127 40.4631 344.786 44.5957 344.051 48.695C343.591 51.8106 343.706 53.1292 346.726 55.7238C347.142 56.0684 347.655 56.3419 348.229 56.5255C348.802 56.7091 349.423 56.7984 350.048 56.7871C350.894 56.7836 351.728 56.642 352.492 56.3724C362.27 52.9484 359.855 39.6139 358.819 33.9249C358.733 33.4358 356.59 21.9302 351.299 20.1544C350.67 19.9439 349.978 19.8595 349.291 19.91C348.604 19.9604 347.948 20.1437 347.387 20.4415C342.527 22.8128 343.649 28.4167 344.511 32.9254C344.781 34.0513 344.969 35.1872 345.072 36.3281Z" fill="black"/>
<path d="M375.27 49.8754C375.452 50.705 375.939 51.4818 376.677 52.1212C377.414 52.7606 378.375 53.238 379.455 53.5014C380.153 53.6628 380.88 53.7453 381.612 53.746C383.515 53.7322 385.348 53.2112 386.774 52.2786C387.714 51.6643 388.412 50.8736 388.794 49.9901C389.176 49.1066 389.229 48.1632 388.945 47.2595L388.097 44.2289C386.141 37.1682 384.099 29.8524 380.231 23.1107C379.808 22.3115 379.004 21.6542 377.971 21.2626C376.938 20.8709 375.748 20.7718 374.623 20.9839C373.343 21.1587 372.181 21.6492 371.327 22.3754C370.473 23.1017 369.977 24.0206 369.921 24.9822C370.022 32.0748 372.107 39.1886 374.134 46.0686C374.537 47.3659 374.911 48.6206 375.27 49.8754Z" fill="black"/>
<path d="M397.486 48.5887C397.539 49.7034 398.065 50.7776 398.989 51.6592C399.912 52.5409 401.188 53.1853 402.634 53.5014V53.5014C403.293 53.6468 403.975 53.7255 404.662 53.7354C405.812 53.6974 406.932 53.4529 407.926 53.0229C409.055 52.5767 409.99 51.9037 410.623 51.0815C411.257 50.2593 411.563 49.3214 411.507 48.376C411.262 46.5152 411.061 44.633 410.86 42.7402C410.141 36.1049 409.422 29.2462 406.704 22.8661C406.401 22.0193 405.704 21.2784 404.737 20.7729C403.77 20.2675 402.593 20.0298 401.412 20.1014C400.123 20.1947 398.916 20.6118 397.993 21.2832C397.069 21.9546 396.484 22.8398 396.336 23.7912C395.214 30.1714 396.048 36.8386 396.854 43.2507C397.084 45.0477 397.314 46.8235 397.486 48.5887Z" fill="black"/>
<path d="M422.723 46.3664C422.687 47.2247 422.968 48.0741 423.536 48.8234C424.103 49.5727 424.935 50.1937 425.944 50.6198C427.056 51.0776 428.309 51.3156 429.582 51.311C430.868 51.3204 432.135 51.0743 433.249 50.5985C434.242 50.1654 435.056 49.5408 435.606 48.7916C436.156 48.0423 436.419 47.1967 436.369 46.3451C436.369 44.9627 436.369 43.5272 436.369 42.0917C436.513 36.2857 436.671 30.2778 433.968 25.0779C433.626 24.3663 432.998 23.7491 432.168 23.3099C431.337 22.8706 430.344 22.6304 429.323 22.6216V22.6216C428.308 22.6281 427.321 22.8696 426.501 23.312C425.681 23.7545 425.069 24.3757 424.75 25.0886C422.119 30.4054 422.349 36.3495 422.579 42.1555C422.723 43.5591 422.723 44.9946 422.723 46.3664Z" fill="black"/>
<path d="M449.814 46.3236C449.897 47.4022 450.413 48.4379 451.297 49.2981C452.181 50.1582 453.392 50.8035 454.775 51.1513V51.1513C455.497 51.3713 456.267 51.4903 457.047 51.5022C458.243 51.4628 459.397 51.1673 460.369 50.6515C461.447 50.1895 462.335 49.5206 462.94 48.7156C463.545 47.9106 463.844 46.9996 463.806 46.0791C463.59 44.4096 463.418 42.6976 463.231 40.9749C462.526 34.1056 461.793 27.0024 458.989 20.4947C458.672 19.5937 457.929 18.8066 456.895 18.2759C455.861 17.7453 454.604 17.5063 453.352 17.6023C452.001 17.7008 450.739 18.1425 449.779 18.8521C448.819 19.5618 448.222 20.4955 448.089 21.4942C447.054 28.0551 448.089 34.8925 449.11 41.496C449.354 43.1229 449.599 44.7392 449.814 46.3236Z" fill="black"/>
<path d="M477.697 49.3224C478.854 49.8087 480.163 50.0618 481.493 50.0561C482.824 50.0643 484.134 49.8111 485.289 49.3224C486.31 48.8877 487.15 48.2544 487.718 47.4913C488.286 46.7283 488.56 45.8647 488.511 44.9945C488.511 44.9945 486.641 22.1111 483.521 20.6649C483.113 20.4667 482.642 20.3515 482.154 20.331C481.667 20.3104 481.181 20.3853 480.745 20.5479C476.431 22.0579 475.77 25.8647 475.296 28.6614L475.195 29.3207C474.595 33.3667 474.36 37.4376 474.49 41.5067C474.49 42.6658 474.49 43.8355 474.49 44.9945C474.444 45.8631 474.718 46.7246 475.283 47.4869C475.848 48.2492 476.682 48.8837 477.697 49.3224V49.3224Z" fill="black"/>
<path d="M504.846 49.7477C505.52 50.0499 506.293 50.2097 507.082 50.2097C507.87 50.2097 508.644 50.0499 509.318 49.7477C514.681 47.3552 514.264 42.8572 513.919 39.2417C513.833 38.3911 513.761 37.551 513.747 36.7535V35.4881C513.747 30.1713 513.661 24.7269 511.647 19.5377C511.349 18.8172 510.746 18.1864 509.927 17.7383C509.107 17.2902 508.115 17.0483 507.096 17.0483C506.077 17.0483 505.085 17.2902 504.266 17.7383C503.446 18.1864 502.843 18.8172 502.545 19.5377C500.532 24.7482 500.489 30.1713 500.445 35.4881V36.7535C500.445 37.5404 500.359 38.3804 500.273 39.2205C499.913 42.8465 499.482 47.3658 504.846 49.7477Z" fill="black"/>
<path d="M527.393 50.4071C528.634 50.3951 529.832 50.0685 530.787 49.4819V49.4819C535.316 46.6747 535.374 42.1341 535.417 38.1359C535.417 37.1576 535.417 36.19 535.518 35.2967V34.5737C535.992 29.2569 536.481 23.7912 534.943 18.3681C534.782 17.7079 534.329 17.106 533.654 16.6574C532.98 16.2088 532.123 15.9389 531.218 15.8905C530.167 15.8344 529.118 16.0252 528.222 16.4357C527.326 16.8463 526.629 17.4555 526.228 18.1767C523.64 23.1319 522.964 28.4275 522.332 33.5422L522.13 35.0947C522.015 35.9773 521.843 36.8811 521.656 37.785C520.922 41.5812 520.074 45.8984 524.1 49.3437C524.505 49.6931 525.012 49.9702 525.582 50.1543C526.152 50.3385 526.771 50.4249 527.393 50.4071Z" fill="black"/>
<path d="M546.748 43.8354C546.606 44.6039 546.75 45.3866 547.166 46.0988C547.581 46.8111 548.253 47.4257 549.107 47.8761C550.266 48.4521 551.636 48.7526 553.032 48.7375C554.144 48.739 555.244 48.5612 556.253 48.2164C557.343 47.8458 558.276 47.2632 558.952 46.5309C559.628 45.7985 560.023 44.944 560.093 44.0587C561.128 34.2014 559.331 26.7578 554.686 21.4411C554.077 20.7635 553.187 20.2501 552.15 19.9779C551.113 19.7057 549.985 19.6892 548.934 19.9311C547.943 20.1451 547.076 20.5965 546.47 21.2143C545.863 21.8322 545.552 22.5814 545.584 23.3445C545.584 26.0667 545.972 28.757 546.303 31.3516C546.993 35.4926 547.142 39.6732 546.748 43.8354V43.8354Z" fill="black"/>
<path d="M575.45 47.472C575.494 48.5529 575.993 49.5968 576.877 50.4583C577.761 51.3197 578.986 51.9559 580.382 52.2783C581.014 52.449 581.68 52.5389 582.352 52.5442C583.486 52.4912 584.59 52.2553 585.588 51.853C586.687 51.4224 587.6 50.7728 588.226 49.9778C588.851 49.1828 589.162 48.2742 589.125 47.355C588.996 45.4941 588.938 43.5907 588.881 41.581C588.694 34.8818 588.507 27.97 585.3 21.9088C584.922 21.1797 584.244 20.5567 583.362 20.1275C582.479 19.6983 581.437 19.4845 580.382 19.5163C579.416 19.5464 578.489 19.8057 577.738 20.2558C576.987 20.7058 576.452 21.3227 576.212 22.0152C573.739 28.289 574.386 35.1795 575.004 41.8574C575.148 43.7715 575.349 45.6536 575.45 47.472Z" fill="black"/>
<path d="M601.938 52.5232C603.133 53.0723 604.514 53.3599 605.921 53.3526C607.186 53.3551 608.434 53.1327 609.559 52.7039C610.663 52.2816 611.594 51.6469 612.252 50.8666C612.91 50.0862 613.271 49.1891 613.298 48.2697C613.413 46.3344 613.556 44.3885 613.7 42.4319C614.261 34.7438 614.836 26.7899 613.7 19.038C613.49 17.914 612.753 16.8802 611.618 16.1166C610.482 15.3531 609.021 14.908 607.488 14.859C606.205 14.8091 604.942 15.1149 603.948 15.7167C602.953 16.3184 602.298 17.1728 602.11 18.1129C600.025 26.0668 599.637 34.3823 599.234 42.4213C599.148 44.3353 599.062 46.2387 598.946 48.1315C598.855 48.9958 599.085 49.8621 599.612 50.6364C600.14 51.4107 600.944 52.0632 601.938 52.5232Z" fill="black"/>
<path d="M628.037 53.342C629.127 53.8571 630.396 54.1268 631.689 54.1183C632.818 54.1182 633.932 53.9215 634.939 53.5441C635.948 53.1678 636.801 52.5963 637.406 51.8905C638.011 51.1846 638.346 50.3707 638.376 49.5352C638.476 47.8657 638.62 46.1962 638.75 44.5161C639.296 37.9765 639.843 31.2242 638.52 24.6632C638.374 23.8776 637.851 23.1569 637.045 22.6335C636.24 22.1101 635.206 21.8189 634.134 21.8135C632.947 21.7452 631.763 21.9774 630.778 22.4721C629.793 22.9667 629.065 23.6944 628.713 24.5357C626.513 30.8414 626.153 37.5299 625.837 43.9951C625.736 45.8028 625.65 47.6105 625.506 49.397C625.406 50.1623 625.589 50.9333 626.035 51.628C626.48 52.3226 627.172 52.915 628.037 53.342V53.342Z" fill="black"/>
<path d="M654.597 48.1951C654.559 48.9407 654.795 49.6798 655.282 50.3335C655.768 50.9872 656.486 51.5308 657.357 51.9062C658.347 52.318 659.464 52.5343 660.6 52.5343C661.736 52.5343 662.853 52.318 663.843 51.9062C664.713 51.5303 665.428 50.9863 665.912 50.3325C666.396 49.6787 666.63 48.9398 666.589 48.1951C666.589 46.1216 666.589 43.9417 666.589 41.815C666.719 35.6794 666.848 29.3311 665.151 23.3444C664.876 22.5877 664.271 21.9193 663.43 21.4426C662.589 20.9659 661.559 20.7075 660.499 20.7075C659.44 20.7075 658.41 20.9659 657.569 21.4426C656.728 21.9193 656.123 22.5877 655.848 23.3444C654.179 29.3311 654.323 35.6794 654.41 41.815C654.582 43.9523 654.64 46.1216 654.597 48.1951Z" fill="black"/>
<path d="M678.869 48.2058C680.029 48.7723 681.391 49.0686 682.781 49.0565C683.926 49.0548 685.057 48.8622 686.088 48.4929C687.161 48.1102 688.072 47.5193 688.725 46.7832C689.379 46.0472 689.75 45.1936 689.798 44.3139C689.884 43.1867 689.999 42.0596 690.1 40.9324C690.638 36.6911 690.768 32.427 690.488 28.1721C690.347 27.0728 689.68 26.0468 688.608 25.2787C687.535 24.5106 686.126 24.051 684.636 23.9825C683.318 23.8796 681.996 24.1523 680.941 24.7451C679.885 25.3379 679.175 26.206 678.956 27.1725C677.786 31.6332 677.046 36.1497 676.741 40.6878L676.396 44.1544C676.263 44.9327 676.424 45.723 676.86 46.438C677.297 47.153 677.992 47.7648 678.869 48.2058V48.2058Z" fill="black"/>
<path d="M696.441 48.546C696.534 49.4113 696.898 50.2488 697.505 50.9917C698.12 51.6659 698.955 52.2143 699.933 52.5861C700.911 52.9579 702 53.141 703.099 53.1184C703.92 53.1158 704.734 53.019 705.515 52.8313C706.515 52.6203 707.431 52.232 708.183 51.7002C708.934 51.1685 709.499 50.5092 709.829 49.7795C710.08 48.8387 710.08 47.8705 709.829 46.9297C709.829 46.5894 709.728 46.2492 709.714 45.9514C709.714 44.4734 709.714 42.9634 709.714 41.5066C709.714 40.4432 709.714 39.2842 709.714 38.1676C709.739 34.9602 709.378 31.7575 708.635 28.5974C708.377 27.6892 707.689 26.8788 706.696 26.3117C705.702 25.7446 704.468 25.4579 703.214 25.503V25.503C701.956 25.4549 700.717 25.74 699.718 26.3072C698.719 26.8744 698.026 27.6864 697.764 28.5974C696.63 33.67 696.197 38.8148 696.47 43.9523C696.47 44.3989 696.47 44.8881 696.47 45.3985C696.345 46.4598 696.345 47.5272 696.47 48.5885L696.441 48.546Z" fill="black"/>
<path d="M717.349 52.7145C718.496 53.3332 719.885 53.658 721.304 53.6396C722.348 53.6414 723.382 53.482 724.338 53.1717C725.453 52.8259 726.419 52.2621 727.134 51.5408C727.848 50.8196 728.283 49.9681 728.393 49.0778C728.623 47.4721 728.954 45.8026 729.313 44.0268C730.406 38.5612 731.657 32.3299 729.63 27.0769C729.367 26.418 728.845 25.8317 728.131 25.3925C727.416 24.9533 726.542 24.6809 725.618 24.6099C724.723 24.5188 723.812 24.6294 723.004 24.9272C722.196 25.2251 721.528 25.6963 721.088 26.2794C717.378 31.2134 716.63 37.753 715.969 43.527C715.753 45.3879 715.552 47.1425 715.264 48.78C715.089 49.5142 715.19 50.27 715.558 50.9642C715.926 51.6584 716.546 52.264 717.349 52.7145V52.7145Z" fill="black"/>
<path d="M744.182 52.9697C745.037 52.9866 745.888 52.8773 746.685 52.6481C747.482 52.4188 748.21 52.0742 748.824 51.6346C749.439 51.1949 749.929 50.6689 750.265 50.0874C750.601 49.506 750.777 48.8808 750.783 48.2484C751.142 42.0202 750.732 35.7809 749.56 29.6077C749.261 28.7194 748.568 27.9308 747.592 27.3672C746.616 26.8037 745.413 26.4976 744.175 26.4976C742.937 26.4976 741.735 26.8037 740.759 27.3672C739.783 27.9308 739.09 28.7194 738.79 29.6077C737.625 35.7814 737.216 42.0203 737.568 48.2484C737.573 48.8817 737.75 49.5078 738.087 50.09C738.424 50.6721 738.915 51.1986 739.531 51.6384C740.148 52.0783 740.876 52.4226 741.675 52.6512C742.474 52.8798 743.326 52.9881 744.182 52.9697V52.9697Z" fill="black"/>
<path d="M853.54 404.484C852.102 392.138 849.902 379.899 847.098 368.117C844.222 355.952 840.569 343.947 836.299 332.442C831.963 320.746 826.823 309.222 820.898 297.914C818.151 292.714 814.916 287.228 810.717 280.667C809.022 277.944 807.101 275.302 804.965 272.755C802.578 269.948 800.306 267.438 798.02 264.929C794.885 261.558 791.721 258.336 788.572 255.359C786.717 253.593 784.833 251.85 782.95 250.095C776.52 244.341 770.515 238.335 764.961 232.103C760.78 227.32 757.286 222.227 754.535 216.908C753.164 214.234 752.04 211.495 751.17 208.709C750.841 207.366 750.744 205.998 750.883 204.636C750.974 203.502 750.949 202.365 750.811 201.234H754.995C759.309 201.234 763.71 201.149 768.052 201.149C770.475 201.189 772.838 200.591 774.719 199.461C776.6 198.331 777.876 196.743 778.319 194.981C779.657 190.994 777.888 185.624 772.568 183.539C770.472 182.756 768.219 182.228 765.895 181.976C765.622 181.594 765.335 181.211 765.061 180.817C763.466 178.978 762.458 176.894 762.114 174.724C761.951 171.264 762.648 167.811 764.17 164.537C765.78 164.537 767.391 164.442 769.001 164.356C780.505 163.782 788.184 160.688 791.779 155.169C794.281 151.309 794.367 147.864 792.038 144.918C788.069 139.921 777.917 137.666 769.49 137.198C764.586 133.468 760.682 129.084 757.987 124.279C755.47 119.557 756.002 115.176 756.664 110.115C764.5 108.722 769.188 105.734 770.626 101.225C772.064 96.7163 770.971 92.0269 769.85 87.9117C769.29 85.3549 768.054 82.905 766.212 80.7021C765.225 79.5354 763.892 78.55 762.315 77.8204C760.689 77.1674 758.835 76.8931 756.994 77.0335H756.822C756.007 76.1622 755.129 75.3245 754.19 74.524C752.677 73.3242 751.404 71.9707 750.408 70.5045C750.075 69.3777 750.237 68.2016 750.87 67.1476C751.504 66.0936 752.577 65.217 753.931 64.6454C754.319 64.542 754.727 64.4881 755.139 64.4859C755.484 64.4859 755.844 64.4859 756.203 64.4008C757.64 64.1804 759.032 63.823 760.345 63.3375C763.067 62.4308 765.367 60.9514 766.959 59.084C768.524 57.0239 769.773 54.8412 770.684 52.5763L770.842 52.2466C771.778 50.3111 772.411 48.3023 772.726 46.2599C773.429 40.5859 772.493 34.8662 769.979 29.4801C768.709 26.7617 767.066 24.1464 765.076 21.6751C764.256 20.6117 763.336 19.7185 762.444 18.7934C761.811 18.1341 761.164 17.4748 760.575 16.7943C760.316 16.5072 760.086 16.1775 759.856 15.8585C758.936 14.5719 757.685 12.828 754.809 12.6047C576.744 -0.889361 398.737 -3.57966 225.72 4.68263L219.551 4.96974C212.563 5.29584 205.565 5.65029 198.557 6.0331C194.482 5.98417 190.406 6.10131 186.348 6.384C184.148 6.50097 182.035 6.61795 180.122 6.67111C167.784 6.99012 155.188 7.73447 142.735 8.79783C134.789 9.49965 126.942 10.7129 119.281 12.4239C115.543 13.2639 111.761 14.2316 108.079 15.3056C107.605 15.4438 107.073 15.582 106.512 15.7203C103.737 16.4327 100.286 17.3153 98.9052 19.4952C98.3435 20.5873 98.0843 21.7517 98.1431 22.9192C98.1431 23.2701 98.1431 23.5998 98.1431 23.8975C97.7836 26.9493 97.6254 30.0012 97.6398 32.9892C97.6369 39.106 98.5191 45.2054 100.271 51.1833C100.717 52.6295 101.206 54.0437 101.709 55.4367C102.802 58.2227 104.815 62.1571 109.676 64.0818C110.66 64.4282 111.735 64.6098 112.825 64.6135C112.783 67.6618 113.888 70.6587 116.017 73.2692C117.639 74.9011 119.464 76.4176 121.467 77.7991C126.327 81.4465 133.675 86.9759 132.755 90.1128C132.654 90.4531 132.338 91.5058 129.347 92.3459C128.528 92.5743 127.79 92.938 127.19 93.4092H125.378C123.696 93.4092 121.999 93.4943 120.317 93.5581H119.511C118.569 93.4766 117.613 93.5559 116.718 93.79C115.823 94.0241 115.013 94.4068 114.349 94.9086C113.05 96.2507 112.175 97.7915 111.789 99.4172C111.531 100.247 111.257 101.076 110.97 101.895C109.647 105.808 108.281 109.838 108.813 114.123C109.331 117.973 112.106 125.246 117.297 128.383C118.184 128.958 119.221 129.393 120.344 129.66C121.466 129.927 122.651 130.021 123.825 129.936H123.955C126.759 133.126 128.139 137.889 123.538 141.569C122.287 141.93 116.923 141.25 114.32 140.92C112.736 140.676 111.132 140.512 109.517 140.431C103.507 140.431 99.3509 142.324 97.1796 146.014C96.0752 147.64 95.5241 149.441 95.5743 151.261C95.6244 153.081 96.2741 154.864 97.4672 156.456C101.781 162.06 112.25 165.133 120.662 166.196C119.91 170.276 119.712 174.401 120.072 178.51C120.072 179.297 120.144 180.073 120.173 180.839C113.918 180.349 109.431 181.03 106.483 182.965C103.996 184.571 102.759 186.974 102.816 190.122C102.946 196.97 108.396 201.489 119.022 203.594L118.649 204.445C118.404 204.977 118.188 205.434 118.16 205.508C114.777 211.905 110.359 217.975 105.002 223.586C99.3567 229.472 93.2643 235.117 86.7543 240.493C81.1893 245.257 75.4374 250.191 70.347 255.38C43.6726 282.719 29.9543 316.661 20.9813 343.181C15.4011 359.788 11.1944 376.631 8.38465 393.616C2.25888 430.281 1.19479 467.701 0.490187 506.013C0.145073 526.217 0.691517 546.666 1.22357 566.476C1.74124 585.978 2.2733 606.15 1.95695 625.971L0.274499 730.914C0.274499 742.93 0.274496 754.797 0.360774 766.611C0.447053 788.324 0.533331 810.761 0.360774 833.283L0.231362 839.865C-0.530765 876.222 -1.32165 913.811 31.5073 944.564C55.1332 966.681 90.68 982.749 140.189 993.691C191.957 1005.14 246.499 1008.58 299.201 1011.77C317.707 1012.92 336.861 1014.1 355.584 1015.62C384.483 1017.92 413.53 1019.04 442.596 1019C482.689 1018.92 522.743 1017.11 562.551 1013.58C604.253 1009.94 646.126 1002.94 686.548 996.115C696.959 994.371 707.355 992.617 717.752 990.926C740.055 987.3 794.439 975.688 817.619 946.393C828.318 932.867 833.883 911.706 835.766 903.231C838.47 891.183 839.893 878.189 840.426 861.101C840.699 852.402 841.863 843.523 842.942 834.942C844.02 826.361 845.2 817.397 845.473 808.592L850.793 636.892C851.412 617.198 852.461 597.175 853.468 577.801C854.503 557.863 855.582 537.244 856.186 516.955C857.293 478.685 857.94 441.276 853.54 404.484ZM756.779 137.007C725.877 136.837 694.514 137.198 664.144 137.549C647.564 137.741 630.409 137.943 613.556 138.049L423.974 139.282C327.716 139.906 231.448 140.548 135.171 141.207C136.148 139.192 136.566 137.052 136.4 134.914C136.235 132.777 135.489 130.686 134.207 128.766C170.157 129.967 206.724 129.734 242.056 129.521H250.611C293.751 129.255 337.149 128.766 379.77 128.053C465.445 126.607 552.327 124.247 637.93 121.014C644.861 120.759 652.08 120.567 659.068 120.387C688.36 119.632 718.615 118.845 746.44 112.582C745.324 117.373 745.99 122.298 748.366 126.831C750.248 130.595 753.106 134.052 756.779 137.007ZM120.072 57.5103C118.106 57.0541 116.316 56.2575 114.85 55.1866C113.385 54.1158 112.286 52.8016 111.646 51.3534C110.488 48.1741 109.908 44.895 109.92 41.6024L109.848 40.4434C109.604 36.5834 109.776 32.6277 109.949 28.8102V27.8745C109.949 26.6835 110.078 26.6516 110.553 26.4496C111.027 26.2475 111.761 25.9817 112.365 25.7584C112.969 25.5351 113.314 25.4288 113.803 25.248C115.179 24.7 116.624 24.2514 118.117 23.9082C121.165 23.2276 124.113 22.3237 126.974 21.4624C129.592 20.6649 132.309 19.8461 135.027 19.2081C143.323 17.4071 151.856 16.2699 160.479 15.816C173.752 14.9228 187.283 14.2741 200.369 13.6893L212.491 13.1044C214.13 13.03 215.755 12.9237 217.38 12.8173C219.005 12.711 220.802 12.6046 222.513 12.5302C265.164 10.4779 308.648 9.06366 351.744 8.27678C437.059 6.78808 523.496 7.90461 608.71 11.6051C626.34 12.3707 644.041 13.2427 661.311 14.2103C678.97 15.2099 696.743 16.337 714.128 17.5174L717.421 17.7513C722.353 18.0916 727.271 18.4319 732.189 18.8147C735.223 19.0486 738.272 19.2825 741.306 19.5484C742.873 19.676 744.441 19.8142 745.994 19.9631L746.957 20.0269C747.629 20.004 748.298 20.1103 748.899 20.3353C749.352 20.745 749.698 21.2138 749.919 21.7176C750.121 22.0579 750.308 22.3982 750.523 22.6853C750.969 23.3127 751.444 23.9294 751.961 24.5462C752.767 25.6095 753.543 26.5772 754.176 27.6193C754.981 28.9591 755.7 30.3202 756.304 31.66C756.433 31.9471 756.577 32.2661 756.75 32.5851C757.263 33.4802 757.598 34.4259 757.742 35.3924V35.6689C759.439 41.4004 758.576 46.7172 757.383 51.6193C757.193 52.6925 756.65 53.7148 755.801 54.5967C754.981 55.3835 754.363 55.4367 752.321 55.5218L731.916 56.415C723.077 56.812 714.234 57.1948 705.385 57.5634C685.254 58.4247 668.343 59.1266 652.324 59.7433C633.314 60.4877 615.972 61.1151 599.277 61.6574C580.584 62.2635 563.256 62.7207 546.187 63.1673C533.677 63.4651 521.44 63.7096 509.792 63.901C428.662 65.2196 342.786 64.8687 254.552 62.8377C237.555 62.4442 221.191 61.8594 201.577 61.1363L199.348 61.0512C191.252 60.7535 183.142 60.4451 175.046 60.1687L161.773 59.7433C158.696 59.6476 155.533 59.4349 152.47 59.2329C148.242 58.9458 143.842 58.6587 139.528 58.6587C138.536 58.6587 137.558 58.6587 136.652 58.6587C131.346 58.9033 125.191 58.9033 120.072 57.5103ZM132.295 74.8962L131.562 74.3964C127.78 71.8337 125.206 69.6963 123.969 67.1124C126.676 67.3317 129.399 67.4311 132.122 67.4101L160.22 67.6653C169.639 67.7504 178.842 68.0375 186.607 68.314C189.483 68.4097 192.474 68.5479 195.408 68.6968C201.16 68.9626 207.113 69.2497 212.965 69.2497H213.066C219.422 69.2497 225.921 69.4518 232.205 69.6432C234.564 69.7176 236.922 69.7921 239.28 69.8452C280.766 70.9086 322.87 71.6955 364.384 71.9719C448.017 72.6312 533.936 71.5891 619.768 68.8669C624.643 68.7181 629.518 68.5267 634.393 68.3353C638.347 68.1864 642.287 68.0269 646.241 67.8993C651.03 67.7398 655.919 67.7079 660.621 67.676C664.173 67.676 667.811 67.676 671.478 67.559C677.316 67.4243 683.169 67.2719 689.036 67.1018C700.309 66.804 712.043 66.485 723.389 66.4106H727.976C731.772 66.4106 735.669 66.4106 739.48 66.2617C738.593 68.0835 738.379 70.0474 738.861 71.9507C739.386 73.7612 740.48 75.4551 742.054 76.8953C716.774 76.8953 691.106 77.7672 666.258 78.586C655.631 78.9369 644.689 79.2985 633.875 79.5962L619.826 79.979L508.268 82.999C425.651 85.2107 343.045 87.4509 260.447 89.7194C220.989 90.7898 181.531 91.8745 142.073 92.9733C143.255 90.0978 143.205 87.0222 141.929 84.1687C140.276 80.2874 136.048 77.427 132.252 74.8962H132.295ZM124.631 122.747C124.299 122.63 123.998 122.472 123.739 122.279C122.977 121.682 122.346 121.001 121.87 120.259C121.711 120.025 121.539 119.791 121.366 119.568C120.161 118.041 119.288 116.383 118.778 114.655C117.34 109.913 119.051 105.999 121.194 102.118C236.678 98.9812 354.146 95.738 467.602 92.5479L617.151 88.3689C630.021 88.0074 643.15 87.7309 655.862 87.4651C689.294 86.7632 723.863 86.0402 757.627 83.7327C757.871 84.5515 758.145 85.349 758.418 86.1359C759.327 88.4169 759.872 90.7687 760.043 93.1434C760.078 94.7867 759.895 96.4286 759.496 98.0455C759.424 98.3113 759.381 98.5771 759.338 98.8324C759.18 99.6937 759.094 100.087 758.533 100.47C757.255 101.163 755.779 101.628 754.219 101.831C753.529 101.969 752.781 102.107 752.206 102.267C749.416 102.969 746.526 103.649 743.578 104.266C735.753 105.905 727.807 107.208 719.78 108.169C703.583 110 687.26 111.154 670.888 111.625L658.953 112.061L646.198 112.518C603.951 114.155 561.113 115.602 518.909 116.771C435.161 119.164 349.443 120.727 264.128 121.429C250.41 121.535 236.447 121.578 222.945 121.62H211.297C194.344 121.673 176.168 121.769 158.164 122.067C151.104 122.184 144.59 122.311 138.248 122.481C136.681 122.481 135.085 122.609 133.488 122.694C131.245 122.811 128.959 122.949 126.73 122.928C126.019 122.973 125.303 122.904 124.631 122.726V122.747ZM106.785 154.361C105.347 152.862 103.507 150.107 106.426 148.385C108.223 147.321 110.28 147.715 113.457 148.491C114.401 148.738 115.361 148.947 116.333 149.119C120.425 149.673 124.594 149.844 128.743 149.629C129.865 149.629 130.972 149.629 132.079 149.629L211.944 149.076L318.426 148.321L531.376 146.758L753.198 145.12C754.981 145.12 756.994 145.003 759.122 144.908C766.384 144.567 775.429 144.131 780.419 146.907C782.777 148.225 783.755 149.491 783.295 150.66C782.101 153.659 773.071 156.307 768.814 156.541C765.119 156.743 761.279 156.722 757.555 156.7C755.988 156.7 754.42 156.7 752.867 156.7L698.555 156.934L651.016 157.126L334.661 158.402C300.926 158.529 267.191 158.668 233.456 158.816L182.725 159.061L160.177 159.167C155.863 159.167 151.42 159.274 147.135 159.359C139.528 159.508 131.648 159.656 123.983 159.454C118.433 159.22 110.682 158.54 106.785 154.361ZM750.883 175.469C751.04 177.586 751.562 179.68 752.436 181.7H752.235C750.265 181.753 748.41 181.796 746.713 181.806H736.935C727.703 181.806 718.471 181.721 709.239 181.721H628.037H566.204C466.797 181.657 368.295 181.657 276.668 181.721H249.346C231.189 181.721 213.023 181.721 194.847 181.721C189.569 181.721 184.307 181.721 179.029 181.721C163.413 181.668 147.293 181.615 131.447 182.253C131.447 181.083 131.447 179.892 131.447 178.68C131.714 174.775 131.507 170.86 130.828 166.983C145.395 167.419 160.22 167.217 174.6 166.983C181.603 166.887 188.865 166.781 195.954 166.76L274.036 166.473L579.591 165.25L734.073 164.644C737.668 164.644 741.263 164.644 744.901 164.644H754.435C754.118 164.959 753.829 165.289 753.572 165.633C751.459 168.656 750.528 172.054 750.883 175.447V175.469ZM112.422 191.355C111.718 190.068 111.43 188.452 112.192 187.835C112.688 187.545 113.318 187.412 113.946 187.463C115.208 187.505 116.46 187.641 117.685 187.867C118.534 187.995 119.324 188.123 120.015 188.176C123.149 188.42 126.342 188.559 129.419 188.697L132.295 188.824C137.903 189.09 143.626 189.282 149.781 189.42C159.99 189.664 171.149 189.728 184.867 189.643C192.862 189.643 200.858 189.505 208.838 189.409L219.896 189.282C226.08 189.218 234.276 189.143 242.501 189.143H271.922H371.948C457.105 189.101 542.261 189.041 627.418 188.963L687.022 188.909H698.943C711.406 188.909 723.897 188.87 736.417 188.792C741.335 188.792 746.382 188.675 751.429 188.516L753.184 188.463C755.761 188.42 758.333 188.281 760.891 188.048C763.566 187.761 765.335 187.793 767.046 188.771C768.757 189.749 770.425 192.652 769.562 194.088C769.367 194.334 769.101 194.546 768.783 194.707C768.465 194.869 768.102 194.977 767.722 195.024C766.444 195.19 765.14 195.211 763.853 195.088C762.897 195.025 761.937 195 760.977 195.013C759.539 195.013 758.217 195.013 756.836 195.013H754.622L661.369 195.321L394.927 196.332L172.86 197.395C166.361 197.395 159.918 197.491 153.361 197.544C147.394 197.597 141.426 197.661 135.459 197.693H134.021C129.218 197.693 124.257 197.767 119.928 196.555C118.27 196.1 116.753 195.404 115.466 194.507C114.179 193.61 113.149 192.531 112.437 191.334L112.422 191.355ZM840.67 511.213C840.152 522.315 839.606 533.788 839.232 545.06C838.273 574.898 837.315 604.746 836.356 634.605L832.258 766.238C831.251 800.883 828.232 836.069 825.356 870.097L825.068 873.361C822.609 902.359 819.819 935.227 786.243 955.41C753.802 974.944 710.375 983.004 668.688 989.586C555.52 1007.45 432.156 1011.09 302.005 1000.38C292.528 999.592 282.477 998.88 271.807 998.125C183.401 991.819 62.3231 983.174 26.4888 918.958C10.3691 890.056 11.4332 824.776 12.109 781.572L14.1797 651.119C14.4817 631.607 13.9209 611.775 13.3744 592.635C12.828 573.494 12.2816 553.843 12.5836 534.458C12.6507 529.624 12.7178 524.785 12.7849 519.943C13.2163 488.521 13.6477 456.014 16.8256 424.167C20.5212 386.949 27.7686 355.368 38.9848 327.603C44.8851 312.655 52.3813 298.076 61.4028 284.006C65.9755 276.916 71.049 270.009 76.6022 263.313C81.1992 258.078 86.3744 253.135 92.0748 248.532C93.3258 247.469 94.5912 246.405 95.8423 245.342L97.194 244.172C104.456 237.792 112.063 231.04 118.059 223.628C120.299 220.922 122.329 218.124 124.142 215.249C125.811 212.349 127.129 209.346 128.082 206.274L128.24 205.774C128.341 205.508 128.441 205.211 128.527 204.913C132.956 205.211 137.04 205.211 140.678 205.2H142.318C177.289 205.2 212.879 204.977 247.29 204.732C262.753 204.612 278.211 204.505 293.664 204.413C342.469 204.137 392.094 203.775 440.079 203.424C491.846 203.041 545.368 202.648 598.026 202.361C646.27 202.106 694.658 201.765 740.199 201.425C738.444 205.849 740.199 211.187 742.14 215.961C749.632 233.868 764.285 249.127 778.463 263.887C790.815 276.753 803.599 290.045 811.537 304.996C813.09 307.931 814.6 310.93 816.038 313.907C846.925 377.783 843.762 445.615 840.67 511.213Z" fill="black"/>
<path d="M65.0696 528.886C66.3714 528.834 67.6252 528.505 68.6809 527.939C69.7367 527.373 70.5497 526.595 71.0229 525.696H71.2241L71.4111 524.186C71.9883 518.103 72.0988 512 71.7418 505.907C71.6268 502.643 71.5261 499.272 71.5692 495.997C71.6987 486.692 72.0294 477.26 72.5471 467.967C73.5537 450.368 75.423 431.961 77.9395 413.257C80.3841 395.573 83.6914 377.305 88.0053 357.42C90.3492 346.786 92.8944 336.153 95.0801 327.114C95.454 325.562 95.7991 324.009 96.1299 322.446C96.9064 318.894 97.6972 315.215 98.9339 311.738C99.0777 311.334 99.2934 310.855 99.5379 310.324C100.818 307.453 102.745 303.114 98.5888 301.104C98.1289 300.871 97.5987 300.725 97.0446 300.679C96.4906 300.632 95.9296 300.687 95.4109 300.839C92.8225 301.594 90.7375 304.741 88.638 311.036L88.5086 311.387C87.2432 315.056 86.0928 318.831 84.9856 322.457C84.3385 324.583 83.6914 326.71 83.0156 328.837C80.456 336.876 78.0402 345.489 75.6387 355.166C71.3248 372.594 67.7011 390.724 64.6382 410.577C61.8486 428.718 59.821 447.593 58.6131 466.659C58.0379 476.006 57.6497 485.459 57.4627 494.763C57.4627 496.986 57.3333 499.229 57.247 501.484C56.9594 509.012 56.6574 516.807 57.9516 524.25C58.0296 525.498 58.7571 526.675 59.9819 527.535C61.2068 528.395 62.834 528.872 64.5232 528.865L65.0696 528.886Z" fill="black"/>
<path d="M124.113 913.131C105.837 902.082 94.7212 890.268 88.164 874.85C80.8591 857.836 78.8172 840.089 77.7818 824.946C75.0209 784.688 73.8706 741.43 74.1438 688.837C74.1438 675.725 74.4026 662.38 74.6039 649.918C74.7333 642.751 74.8052 635.584 74.8771 628.427C74.8771 627.364 74.9778 626.173 75.0641 624.95C75.4105 622.395 75.367 619.82 74.9347 617.273C74.5968 615.587 73.5967 614.012 72.0587 612.743C71.6413 612.411 71.1143 612.164 70.5295 612.028C69.9446 611.892 69.322 611.871 68.7226 611.966C66.882 612.328 66.1918 613.88 65.631 615.156L65.4152 615.624C63.9583 619.186 63.3168 622.902 63.5172 626.619C63.5172 627.981 63.5171 629.384 63.359 630.788C62.9995 635.041 62.8413 639.454 62.6831 643.676C62.6831 645.122 62.5825 646.557 62.525 648.004C62.0504 659.381 61.7197 670.961 61.5471 682.414C61.1588 708.711 61.2451 732.54 61.7916 755.264C62.338 777.988 63.0857 802.052 64.7825 825.85C65.8754 841.237 67.9748 859.303 75.2079 876.562C81.348 891.225 93.5277 910.717 116.737 920.33C117.612 920.701 118.604 920.895 119.613 920.893C120.726 920.874 121.817 920.659 122.795 920.265C123.773 919.871 124.61 919.31 125.235 918.628C125.655 918.214 125.959 917.743 126.129 917.241C126.3 916.739 126.334 916.217 126.23 915.706C126.126 915.194 125.885 914.703 125.521 914.261C125.158 913.819 124.679 913.435 124.113 913.131V913.131Z" fill="black"/>
</svg>
