<svg width="205" height="73" viewBox="0 0 205 73" fill="none" xmlns="http://www.w3.org/2000/svg">
<path d="M200.853 16.6635H7.2998V56.5194H200.853V16.6635Z" fill="#1D1D1B" stroke="white" stroke-miterlimit="10"/>
<path d="M9.79452 0.724365H1.96261C1.43098 0.724365 1 1.14682 1 1.6679V71.5205C1 72.0416 1.43098 72.464 1.96261 72.464H9.79452C10.3262 72.464 10.7571 72.0416 10.7571 71.5205V1.6679C10.7571 1.14682 10.3262 0.724365 9.79452 0.724365Z" fill="#1D1D1B" stroke="white" stroke-miterlimit="10"/>
<path d="M14.4653 6.45801V9.67932H16.0146C16.0842 9.6779 16.1524 9.66072 16.214 9.6291C16.2648 9.60706 16.3126 9.57892 16.3564 9.54534C16.4402 9.46726 16.4979 9.36599 16.5216 9.25502C16.5247 9.22159 16.5247 9.188 16.5216 9.15457V6.97724C16.5223 6.89971 16.5046 6.82304 16.47 6.7533C16.4354 6.68357 16.3848 6.62261 16.3222 6.57523V6.57523C16.259 6.52689 16.1847 6.49436 16.1058 6.48036H15.9862L14.4653 6.45801Z" fill="#1D1D1B" stroke="white" stroke-miterlimit="10"/>
<path d="M10.7742 12.0408H14.2829C14.3549 12.0394 14.4236 12.0107 14.4746 11.9607C14.5255 11.9108 14.5548 11.8435 14.5563 11.7728V4.35879C14.5548 4.28816 14.5255 4.22085 14.4746 4.1709C14.4236 4.12095 14.3549 4.09225 14.2829 4.09082H10.7742V12.0408Z" fill="#1D1D1B" stroke="white" stroke-miterlimit="10"/>
<path d="M16.1113 6.47473C16.1315 7.50207 16.2132 8.52736 16.3559 9.5453C16.4397 9.46721 16.4973 9.36594 16.5209 9.25498C16.4074 8.36579 16.3428 7.47121 16.3275 6.57518V6.57518C16.2649 6.52485 16.1907 6.49038 16.1113 6.47473V6.47473Z" fill="#1D1D1B" stroke="white" stroke-miterlimit="10"/>
<path d="M15.7581 6.45801C15.776 7.53591 15.8615 8.61173 16.0141 9.67932C16.0835 9.6779 16.1516 9.66072 16.2132 9.6291C16.0574 8.57886 15.9757 7.51929 15.9685 6.45801H15.7581Z" fill="#1D1D1B" stroke="white" stroke-miterlimit="10"/>
<path d="M15.3821 6.45801C15.4032 7.53617 15.4925 8.61202 15.6494 9.67932H15.8542C15.6964 8.61212 15.6071 7.53621 15.5869 6.45801H15.3821Z" fill="#1D1D1B" stroke="white" stroke-miterlimit="10"/>
<path d="M15.0234 6.45801C15.0395 7.53621 15.1269 8.61225 15.2851 9.67932H15.4956C15.3377 8.61212 15.2485 7.53621 15.2282 6.45801H15.0234Z" fill="#1D1D1B" stroke="white" stroke-miterlimit="10"/>
<path d="M14.6189 6.45801C14.6382 7.53626 14.7276 8.61222 14.8863 9.67932H15.0911C14.9299 8.6124 14.8387 7.5364 14.818 6.45801H14.6189Z" fill="#1D1D1B" stroke="white" stroke-miterlimit="10"/>
<path d="M14.4653 26.3832V29.6044H16.0146C16.0833 29.6014 16.1508 29.5863 16.214 29.5598C16.265 29.5359 16.3129 29.5059 16.3564 29.4704C16.441 29.3952 16.4989 29.2955 16.5216 29.1857C16.5246 29.1504 16.5246 29.115 16.5216 29.0797V26.9023C16.5223 26.8256 16.5045 26.7498 16.4699 26.6809C16.4353 26.6121 16.3847 26.5522 16.3222 26.506V26.506C16.2577 26.4598 16.1839 26.4275 16.1058 26.4111H15.9862L14.4653 26.3832Z" fill="#1D1D1B" stroke="white" stroke-miterlimit="10"/>
<path d="M10.7742 31.9661H14.2829C14.3554 31.9661 14.4249 31.9378 14.4762 31.8876C14.5275 31.8373 14.5563 31.7691 14.5563 31.6981V24.2897C14.5563 24.2181 14.5277 24.1493 14.4766 24.0982C14.4254 24.047 14.3559 24.0176 14.2829 24.0161H10.7742V31.9661Z" fill="#1D1D1B" stroke="white" stroke-miterlimit="10"/>
<path d="M16.1113 26.4279C16.1311 27.4552 16.2128 28.4805 16.3559 29.4984C16.4405 29.4232 16.4983 29.3234 16.5209 29.2137C16.4077 28.3245 16.3431 27.4299 16.3275 26.5339C16.264 26.4838 16.1903 26.4476 16.1113 26.4279Z" fill="#1D1D1B" stroke="white" stroke-miterlimit="10"/>
<path d="M15.7581 26.3832C15.7758 27.4611 15.8613 28.5369 16.0141 29.6044C16.0826 29.6014 16.1501 29.5863 16.2132 29.5598C16.0576 28.5077 15.9758 27.4463 15.9685 26.3832H15.7581Z" fill="#1D1D1B" stroke="white" stroke-miterlimit="10"/>
<path d="M15.3821 26.3832C15.4032 27.4613 15.4925 28.5371 15.6494 29.6044H15.8542C15.6962 28.5372 15.6069 27.4614 15.5869 26.3832H15.3821Z" fill="#1D1D1B" stroke="white" stroke-miterlimit="10"/>
<path d="M15.0234 26.3832C15.0395 27.4614 15.1269 28.5374 15.2851 29.6044H15.4956C15.3375 28.5372 15.2483 27.4614 15.2282 26.3832H15.0234Z" fill="#1D1D1B" stroke="white" stroke-miterlimit="10"/>
<path d="M14.6189 26.3832C14.6378 27.4615 14.7271 28.5374 14.8863 29.6044H15.0911C14.9295 28.5375 14.8383 27.4616 14.818 26.3832H14.6189Z" fill="#1D1D1B" stroke="white" stroke-miterlimit="10"/>
<path d="M14.4653 62.2531V65.4743H16.0146C16.0833 65.4713 16.1508 65.4562 16.214 65.4297C16.265 65.4058 16.3129 65.3758 16.3564 65.3403C16.441 65.2651 16.4989 65.1653 16.5216 65.0556C16.5246 65.0203 16.5246 64.9848 16.5216 64.9495V62.7722C16.5227 62.6954 16.5052 62.6194 16.4706 62.5505C16.4359 62.4816 16.3851 62.4218 16.3222 62.3759C16.2577 62.3297 16.1839 62.2973 16.1058 62.2809H15.9862L14.4653 62.2531Z" fill="#1D1D1B" stroke="white" stroke-miterlimit="10"/>
<path d="M10.7742 67.8358H14.2829C14.3554 67.8358 14.4249 67.8076 14.4762 67.7573C14.5275 67.7071 14.5563 67.6389 14.5563 67.5678V60.1594C14.5563 60.0878 14.5277 60.0191 14.4766 59.9679C14.4254 59.9168 14.3559 59.8873 14.2829 59.8859H10.7742V67.8358Z" fill="#1D1D1B" stroke="white" stroke-miterlimit="10"/>
<path d="M16.1113 62.2697C16.1311 63.297 16.2128 64.3223 16.3559 65.3402C16.4405 65.265 16.4983 65.1652 16.5209 65.0555C16.4077 64.1663 16.3431 63.2718 16.3275 62.3758V62.3758C16.264 62.3256 16.1903 62.2894 16.1113 62.2697Z" fill="#1D1D1B" stroke="white" stroke-miterlimit="10"/>
<path d="M15.7581 62.2531C15.7758 63.331 15.8613 64.4067 16.0141 65.4743C16.0826 65.4713 16.1501 65.4562 16.2132 65.4297C16.0576 64.3775 15.9758 63.3162 15.9685 62.2531H15.7581Z" fill="#1D1D1B" stroke="white" stroke-miterlimit="10"/>
<path d="M15.3821 62.2531C15.4032 63.3312 15.4925 64.407 15.6494 65.4743H15.8542C15.6962 64.4071 15.6069 63.3313 15.5869 62.2531H15.3821Z" fill="#1D1D1B" stroke="white" stroke-miterlimit="10"/>
<path d="M15.0234 62.2531C15.0395 63.3312 15.1269 64.4072 15.2851 65.4743H15.4956C15.3375 64.4071 15.2483 63.3313 15.2282 62.2531H15.0234Z" fill="#1D1D1B" stroke="white" stroke-miterlimit="10"/>
<path d="M14.6189 62.2531C14.6378 63.3313 14.7271 64.4072 14.8863 65.4743H15.0911C14.9295 64.4074 14.8383 63.3315 14.818 62.2531H14.6189Z" fill="#1D1D1B" stroke="white" stroke-miterlimit="10"/>
<path d="M14.4653 42.3278V45.5491H16.0146C16.0837 45.5443 16.1512 45.5273 16.214 45.4988C16.2662 45.4771 16.3144 45.4469 16.3564 45.4095C16.441 45.3343 16.4989 45.2345 16.5216 45.1248C16.5247 45.0913 16.5247 45.0577 16.5216 45.0243V42.847C16.5223 42.7695 16.5046 42.6928 16.47 42.6231C16.4354 42.5533 16.3848 42.4924 16.3222 42.445V42.445C16.259 42.3966 16.1847 42.3641 16.1058 42.3501H15.9862L14.4653 42.3278Z" fill="#1D1D1B" stroke="white" stroke-miterlimit="10"/>
<path d="M10.7742 47.9107H14.2829C14.3549 47.9092 14.4236 47.8805 14.4746 47.8306C14.5255 47.7806 14.5548 47.7133 14.5563 47.6427V40.2287C14.5548 40.158 14.5255 40.0907 14.4746 40.0408C14.4236 39.9908 14.3549 39.9621 14.2829 39.9607H10.7742V47.9107Z" fill="#1D1D1B" stroke="white" stroke-miterlimit="10"/>
<path d="M16.1113 42.3445C16.1351 43.3702 16.2206 44.3936 16.3673 45.4095C16.4519 45.3343 16.5097 45.2345 16.5323 45.1247C16.4187 44.2355 16.3542 43.341 16.3389 42.4449C16.273 42.3929 16.1947 42.3584 16.1113 42.3445V42.3445Z" fill="#1D1D1B" stroke="white" stroke-miterlimit="10"/>
<path d="M15.7581 42.3278C15.776 43.4057 15.8615 44.4815 16.0141 45.5491C16.083 45.5443 16.1504 45.5273 16.2132 45.4988C16.0574 44.4486 15.9757 43.389 15.9685 42.3278H15.7581Z" fill="#1D1D1B" stroke="white" stroke-miterlimit="10"/>
<path d="M15.3821 42.3278C15.4032 43.4059 15.4925 44.4818 15.6494 45.5491H15.8542C15.6964 44.4819 15.6071 43.406 15.5869 42.3278H15.3821Z" fill="#1D1D1B" stroke="white" stroke-miterlimit="10"/>
<path d="M15.0234 42.3278C15.0395 43.406 15.1269 44.482 15.2851 45.5491H15.4956C15.3377 44.4819 15.2485 43.406 15.2282 42.3278H15.0234Z" fill="#1D1D1B" stroke="white" stroke-miterlimit="10"/>
<path d="M14.6189 42.3278C14.6382 43.406 14.7276 44.482 14.8863 45.5491H15.0911C14.9299 44.4821 14.8387 43.4062 14.818 42.3278H14.6189Z" fill="#1D1D1B" stroke="white" stroke-miterlimit="10"/>
<path d="M202.932 0.724365H195.101C194.569 0.724365 194.138 1.14682 194.138 1.6679V71.5205C194.138 72.0416 194.569 72.464 195.101 72.464H202.932C203.464 72.464 203.895 72.0416 203.895 71.5205V1.6679C203.895 1.14682 203.464 0.724365 202.932 0.724365Z" fill="#1D1D1B" stroke="white" stroke-miterlimit="10"/>
<path d="M190.435 6.45801V9.67932H188.88C188.813 9.67725 188.746 9.66008 188.687 9.6291C188.635 9.60576 188.585 9.57772 188.538 9.54534C188.458 9.46534 188.403 9.36465 188.379 9.25502C188.373 9.22178 188.373 9.18781 188.379 9.15457V6.97724C188.379 6.89932 188.398 6.82253 188.434 6.75282C188.469 6.68312 188.521 6.62232 188.584 6.57523C188.646 6.52805 188.718 6.49561 188.795 6.48036C188.836 6.47491 188.879 6.47491 188.92 6.48036L190.435 6.45801Z" fill="#1D1D1B" stroke="white" stroke-miterlimit="10"/>
<path d="M194.126 12.0408H190.617C190.545 12.0408 190.475 12.0125 190.424 11.9623C190.373 11.912 190.344 11.8439 190.344 11.7728V4.35879C190.344 4.28771 190.373 4.21958 190.424 4.16933C190.475 4.11907 190.545 4.09082 190.617 4.09082H194.126V12.0408Z" fill="#1D1D1B" stroke="white" stroke-miterlimit="10"/>
<path d="M188.783 6.47473C188.763 7.50207 188.681 8.52736 188.538 9.5453C188.458 9.46529 188.403 9.36461 188.379 9.25498C188.49 8.36552 188.554 7.47108 188.572 6.57518V6.57518C188.634 6.52601 188.706 6.49163 188.783 6.47473V6.47473Z" fill="#1D1D1B" stroke="white" stroke-miterlimit="10"/>
<path d="M189.142 6.45801C189.122 7.53601 189.034 8.6118 188.88 9.67932C188.813 9.67725 188.747 9.66008 188.687 9.6291C188.843 8.57886 188.924 7.51929 188.931 6.45801H189.142Z" fill="#1D1D1B" stroke="white" stroke-miterlimit="10"/>
<path d="M189.523 6.45801C189.502 7.53617 189.413 8.61202 189.256 9.67932H189.051C189.209 8.61212 189.298 7.53621 189.318 6.45801H189.523Z" fill="#1D1D1B" stroke="white" stroke-miterlimit="10"/>
<path d="M189.877 6.45801C189.861 7.53621 189.773 8.61225 189.615 9.67932H189.405C189.562 8.61212 189.652 7.53621 189.672 6.45801H189.877Z" fill="#1D1D1B" stroke="white" stroke-miterlimit="10"/>
<path d="M190.281 6.45801C190.261 7.53626 190.172 8.61222 190.013 9.67932H189.809C189.968 8.61231 190.057 7.5363 190.076 6.45801H190.281Z" fill="#1D1D1B" stroke="white" stroke-miterlimit="10"/>
<path d="M190.435 26.3832V29.6044H188.88C188.813 29.6015 188.748 29.5864 188.687 29.5598C188.634 29.5346 188.585 29.5047 188.538 29.4704C188.458 29.3931 188.402 29.294 188.379 29.1857C188.373 29.1506 188.373 29.1148 188.379 29.0797V26.9023C188.379 26.8252 188.398 26.7492 188.434 26.6804C188.469 26.6116 188.521 26.5519 188.584 26.506V26.506C188.647 26.4605 188.719 26.4282 188.795 26.4111H188.92L190.435 26.3832Z" fill="#1D1D1B" stroke="white" stroke-miterlimit="10"/>
<path d="M194.126 31.9661H190.617C190.581 31.9669 190.545 31.9604 190.512 31.9472C190.478 31.934 190.448 31.9143 190.422 31.8893C190.397 31.8642 190.377 31.8344 190.363 31.8015C190.35 31.7687 190.343 31.7335 190.344 31.6981V24.2897C190.343 24.254 190.35 24.2186 190.363 24.1854C190.377 24.1522 190.397 24.122 190.422 24.0965C190.448 24.0711 190.478 24.0509 190.511 24.037C190.545 24.0232 190.581 24.0161 190.617 24.0161H194.126V31.9661Z" fill="#1D1D1B" stroke="white" stroke-miterlimit="10"/>
<path d="M188.783 26.4279C188.763 27.4552 188.681 28.4805 188.538 29.4984C188.458 29.4211 188.402 29.322 188.379 29.2137C188.489 28.3242 188.554 27.4298 188.572 26.5339V26.5339C188.634 26.4845 188.706 26.4483 188.783 26.4279Z" fill="#1D1D1B" stroke="white" stroke-miterlimit="10"/>
<path d="M189.142 26.3832C189.122 27.4612 189.035 28.5369 188.88 29.6044C188.813 29.6015 188.748 29.5864 188.687 29.5598C188.842 28.5077 188.924 27.4463 188.931 26.3832H189.142Z" fill="#1D1D1B" stroke="white" stroke-miterlimit="10"/>
<path d="M189.523 26.3832C189.502 27.4613 189.413 28.5371 189.256 29.6044H189.051C189.209 28.5372 189.298 27.4614 189.318 26.3832H189.523Z" fill="#1D1D1B" stroke="white" stroke-miterlimit="10"/>
<path d="M189.877 26.3832C189.861 27.4614 189.773 28.5374 189.615 29.6044H189.405C189.563 28.5372 189.652 27.4614 189.672 26.3832H189.877Z" fill="#1D1D1B" stroke="white" stroke-miterlimit="10"/>
<path d="M190.281 26.3832C190.262 27.4615 190.173 28.5374 190.013 29.6044H189.809C189.969 28.5375 190.058 27.4615 190.076 26.3832H190.281Z" fill="#1D1D1B" stroke="white" stroke-miterlimit="10"/>
<path d="M190.435 62.2531V65.4743H188.88C188.813 65.4714 188.748 65.4563 188.687 65.4297C188.634 65.4045 188.585 65.3745 188.538 65.3403C188.458 65.263 188.402 65.1639 188.379 65.0556C188.373 65.0205 188.373 64.9847 188.379 64.9495V62.7722C188.379 62.6949 188.397 62.6187 188.433 62.5497C188.468 62.4808 188.52 62.4212 188.584 62.3759V62.3759C188.647 62.3304 188.719 62.2981 188.795 62.2809H188.92L190.435 62.2531Z" fill="#1D1D1B" stroke="white" stroke-miterlimit="10"/>
<path d="M194.126 67.8358H190.617C190.581 67.8366 190.545 67.8302 190.512 67.817C190.478 67.8038 190.448 67.7841 190.422 67.759C190.397 67.734 190.377 67.7041 190.363 67.6713C190.35 67.6384 190.343 67.6032 190.344 67.5678V60.1594C190.343 60.1238 190.35 60.0883 190.363 60.0551C190.377 60.022 190.397 59.9918 190.422 59.9663C190.448 59.9408 190.478 59.9206 190.511 59.9068C190.545 59.893 190.581 59.8859 190.617 59.8859H194.126V67.8358Z" fill="#1D1D1B" stroke="white" stroke-miterlimit="10"/>
<path d="M188.783 62.2697C188.763 63.297 188.681 64.3223 188.538 65.3402C188.458 65.2629 188.402 65.1638 188.379 65.0555C188.489 64.166 188.554 63.2716 188.572 62.3758V62.3758C188.634 62.3263 188.706 62.2901 188.783 62.2697Z" fill="#1D1D1B" stroke="white" stroke-miterlimit="10"/>
<path d="M189.142 62.2531C189.122 63.3311 189.035 64.4068 188.88 65.4743C188.813 65.4714 188.748 65.4563 188.687 65.4297C188.842 64.3775 188.924 63.3162 188.931 62.2531H189.142Z" fill="#1D1D1B" stroke="white" stroke-miterlimit="10"/>
<path d="M189.523 62.2531C189.502 63.3312 189.413 64.407 189.256 65.4743H189.051C189.209 64.4071 189.298 63.3313 189.318 62.2531H189.523Z" fill="#1D1D1B" stroke="white" stroke-miterlimit="10"/>
<path d="M189.877 62.2531C189.861 63.3312 189.773 64.4072 189.615 65.4743H189.405C189.563 64.4071 189.652 63.3313 189.672 62.2531H189.877Z" fill="#1D1D1B" stroke="white" stroke-miterlimit="10"/>
<path d="M190.281 62.2531C190.262 63.3313 190.173 64.4072 190.013 65.4743H189.809C189.969 64.4073 190.058 63.3314 190.076 62.2531H190.281Z" fill="#1D1D1B" stroke="white" stroke-miterlimit="10"/>
<path d="M190.435 42.3278V45.5491H188.88C188.813 45.5437 188.748 45.5267 188.687 45.4988C188.633 45.4758 188.583 45.4457 188.538 45.4095C188.458 45.3322 188.402 45.2331 188.379 45.1248C188.373 45.0915 188.373 45.0576 188.379 45.0243V42.847C188.379 42.7691 188.398 42.6923 188.434 42.6226C188.469 42.5529 188.521 42.4921 188.584 42.445V42.445C188.646 42.3978 188.718 42.3654 188.795 42.3501C188.836 42.3447 188.879 42.3447 188.92 42.3501L190.435 42.3278Z" fill="#1D1D1B" stroke="white" stroke-miterlimit="10"/>
<path d="M194.126 47.9107H190.617C190.545 47.9107 190.475 47.8824 190.424 47.8322C190.373 47.7819 190.344 47.7138 190.344 47.6427V40.2287C190.344 40.1935 190.351 40.1586 190.365 40.1261C190.379 40.0936 190.399 40.0641 190.424 40.0392C190.449 40.0143 190.48 39.9945 190.513 39.9811C190.546 39.9676 190.581 39.9607 190.617 39.9607H194.126V47.9107Z" fill="#1D1D1B" stroke="white" stroke-miterlimit="10"/>
<path d="M188.783 42.3445C188.763 43.37 188.681 44.3934 188.538 45.4095C188.458 45.3321 188.402 45.233 188.379 45.1247C188.49 44.2353 188.554 43.3408 188.572 42.4449V42.4449C188.634 42.3958 188.706 42.3614 188.783 42.3445V42.3445Z" fill="#1D1D1B" stroke="white" stroke-miterlimit="10"/>
<path d="M189.142 42.3278C189.122 43.4058 189.034 44.4816 188.88 45.5491C188.813 45.5437 188.748 45.5267 188.687 45.4988C188.843 44.4486 188.924 43.389 188.931 42.3278H189.142Z" fill="#1D1D1B" stroke="white" stroke-miterlimit="10"/>
<path d="M189.523 42.3278C189.502 43.4059 189.413 44.4818 189.256 45.5491H189.051C189.209 44.4819 189.298 43.406 189.318 42.3278H189.523Z" fill="#1D1D1B" stroke="white" stroke-miterlimit="10"/>
<path d="M189.877 42.3278C189.861 43.406 189.773 44.482 189.615 45.5491H189.405C189.562 44.4819 189.652 43.406 189.672 42.3278H189.877Z" fill="#1D1D1B" stroke="white" stroke-miterlimit="10"/>
<path d="M190.281 42.3278C190.261 43.406 190.172 44.482 190.013 45.5491H189.809C189.968 44.4821 190.057 43.4061 190.076 42.3278H190.281Z" fill="#1D1D1B" stroke="white" stroke-miterlimit="10"/>
</svg>
