<svg preserveAspectRatio="xMidYMax meet" width="124" height="122" viewBox="0 0 124 122" fill="none" xmlns="http://www.w3.org/2000/svg">
<g clip-path="url(#clip0_87_42379)">
<path fill-rule="evenodd" clip-rule="evenodd" d="M17.6658 81.4382C16.3379 82.0694 15.6647 82.8291 15.4677 83.6213C15.2702 84.4157 15.5088 85.4127 16.3848 86.6106C17.2562 87.8019 18.6824 89.0796 20.6001 90.3544C24.4284 92.8994 30.048 95.3226 36.5501 96.9872C43.0522 98.6519 49.1325 99.2232 53.692 98.8254C55.9762 98.6261 57.8276 98.1879 59.1495 97.5595C60.4775 96.9283 61.1508 96.1686 61.3479 95.3762L61.3479 95.3761C61.5455 94.5819 61.3071 93.5849 60.4313 92.3871C59.5601 91.1957 58.1341 89.9179 56.2165 88.643C52.3884 86.0979 46.7688 83.6743 40.2662 82.0097C33.7634 80.345 27.6829 79.774 23.1233 80.1721C20.8391 80.3714 18.9876 80.8098 17.6658 81.4382ZM22.9687 78.4012C27.7765 77.9815 34.0634 78.5869 40.707 80.2876C47.3508 81.9883 53.1667 84.4807 57.2007 87.1627C59.2141 88.5014 60.8258 89.915 61.8662 91.3379C62.9019 92.7543 63.4488 94.2944 63.0729 95.8053C62.6964 97.3187 61.491 98.4147 59.9127 99.1649C58.3284 99.918 56.246 100.387 53.8465 100.596C49.0387 101.016 42.7522 100.41 36.1092 98.7093C29.4661 97.0086 23.6503 94.5166 19.616 91.8348C17.6025 90.4963 15.9906 89.0827 14.95 87.6599C13.9142 86.2435 13.367 84.7034 13.7427 83.1923C14.119 81.679 15.3243 80.583 16.9026 79.8328C18.4868 79.0797 20.5692 78.6107 22.9687 78.4012Z" fill="#1D1D1B"/>
<path fill-rule="evenodd" clip-rule="evenodd" d="M20.7738 83.4508C19.6767 83.7741 19.3947 84.1585 19.3467 84.3513C19.2976 84.5484 19.3701 85.0283 20.1863 85.8426C20.9538 86.6084 22.1865 87.4684 23.832 88.3591C27.111 90.134 31.851 91.9362 37.2707 93.3233C42.6905 94.7105 47.7058 95.406 51.4219 95.4222C53.2871 95.4304 54.7732 95.2667 55.8051 94.9626C56.902 94.6393 57.1842 94.2548 57.2323 94.0613L57.2323 94.061C57.2815 93.8635 57.209 93.3836 56.3931 92.5696C55.6257 91.8039 54.3931 90.9442 52.7475 90.0537C49.4685 88.2792 44.7284 86.4775 39.3083 85.0897C33.8882 83.7019 28.8729 83.0069 25.1569 82.991C23.2918 82.983 21.8057 83.1467 20.7738 83.4508ZM25.1645 81.2134C29.0651 81.2301 34.2302 81.9546 39.7492 83.3677C45.2681 84.7808 50.1532 86.6285 53.5935 88.4903C55.3076 89.4179 56.7082 90.373 57.6486 91.3112C58.5404 92.2009 59.2501 93.3137 58.9573 94.4903M25.1645 81.2134C23.2214 81.2051 21.5401 81.3719 20.2714 81.7457L25.1645 81.2134ZM20.2714 81.7457C19.0678 82.1004 17.9156 82.7413 17.6217 83.922L20.2714 81.7457ZM17.6217 83.922C17.3289 85.0984 18.039 86.2112 18.9308 87.101L17.6217 83.922ZM18.9308 87.101C19.8712 88.0392 21.2718 88.9945 22.9859 89.9224L18.9308 87.101ZM22.9859 89.9224C26.4263 91.7846 31.3112 93.6329 36.8299 95.0454L22.9859 89.9224ZM36.8299 95.0454C42.3484 96.4578 47.5135 97.1828 51.4142 97.1998L36.8299 95.0454ZM51.4142 97.1998C53.3574 97.2082 55.0387 97.0416 56.3076 96.6677L51.4142 97.1998ZM56.3076 96.6677C57.5114 96.3129 58.6634 95.6716 58.9572 94.4905L56.3076 96.6677Z" fill="#1D1D1B"/>
<path fill-rule="evenodd" clip-rule="evenodd" d="M14.411 83.0203C14.9019 83.0203 15.2998 83.4182 15.2998 83.909V114.318H39.9953C40.4862 114.318 40.8841 114.716 40.8841 115.207C40.8841 115.698 40.4862 116.096 39.9953 116.096H14.411C13.9201 116.096 13.5222 115.698 13.5222 115.207V83.909C13.5222 83.4182 13.9201 83.0203 14.411 83.0203Z" fill="#1D1D1B"/>
<path fill-rule="evenodd" clip-rule="evenodd" d="M39.1064 103.971C39.1064 103.48 39.5044 103.082 39.9952 103.082H69.4521C69.9429 103.082 70.3409 103.48 70.3409 103.971V107.399C70.3409 107.89 69.9429 108.288 69.4521 108.288H66.4683V110.89H69.4521C69.9429 110.89 70.3409 111.288 70.3409 111.779V115.207C70.3409 115.698 69.9429 116.096 69.4521 116.096H66.4683V121.111C66.4683 121.602 66.0704 122 65.5795 122H44.3757C43.8848 122 43.4869 121.602 43.4869 121.111V116.096H39.9952C39.5044 116.096 39.1064 115.698 39.1064 115.207V111.779C39.1064 111.288 39.5044 110.89 39.9952 110.89H43.4869V108.288H39.9952C39.5044 108.288 39.1064 107.89 39.1064 107.399V103.971ZM48.6291 120.223H52.1843V116.096H48.6291V120.223ZM53.9618 120.223V115.207C53.9618 114.716 53.5639 114.319 53.0731 114.319H47.7403C47.2495 114.319 46.8516 114.716 46.8516 115.207V120.223H45.2645V115.207C45.2645 114.716 44.8665 114.319 44.3757 114.319H40.884V112.668H44.3757C44.8665 112.668 45.2645 112.27 45.2645 111.779V107.399C45.2645 106.908 44.8665 106.51 44.3757 106.51H40.884V104.859H68.5633V106.51H65.5795C65.0887 106.51 64.6907 106.908 64.6907 107.399V111.779C64.6907 112.27 65.0887 112.668 65.5795 112.668H68.5633V114.319H65.5795C65.0887 114.319 64.6907 114.716 64.6907 115.207V120.223H62.6592V115.207C62.6592 114.716 62.2613 114.319 61.7704 114.319H56.9456C56.4548 114.319 56.0568 114.716 56.0568 115.207V120.223H53.9618ZM57.8344 120.223H60.8817V116.096H57.8344V120.223ZM46.8516 107.399C46.8516 106.908 47.2495 106.51 47.7403 106.51H53.0731C53.5639 106.51 53.9618 106.908 53.9618 107.399V111.779C53.9618 112.27 53.5639 112.668 53.0731 112.668H47.7403C47.2495 112.668 46.8516 112.27 46.8516 111.779V107.399ZM48.6291 108.288V110.89H52.1843V108.288H48.6291ZM56.0568 107.399C56.0568 106.908 56.4548 106.51 56.9456 106.51H61.7704C62.2613 106.51 62.6592 106.908 62.6592 107.399V111.779C62.6592 112.27 62.2613 112.668 61.7704 112.668H56.9456C56.4548 112.668 56.0568 112.27 56.0568 111.779V107.399ZM57.8344 108.288V110.89H60.8817V108.288H57.8344Z" fill="#1D1D1B"/>
<path fill-rule="evenodd" clip-rule="evenodd" d="M62.215 93.3049C62.7058 93.3049 63.1037 93.7029 63.1037 94.1937V102.51C63.1037 103.001 62.7058 103.399 62.215 103.399C61.7241 103.399 61.3262 103.001 61.3262 102.51V94.1937C61.3262 93.7029 61.7241 93.3049 62.215 93.3049Z" fill="#1D1D1B"/>
<path fill-rule="evenodd" clip-rule="evenodd" d="M16.379 114.827C16.8699 114.827 17.2678 115.225 17.2678 115.715V120.604C17.2678 121.095 16.8699 121.493 16.379 121.493C15.8882 121.493 15.4902 121.095 15.4902 120.604V115.715C15.4902 115.225 15.8882 114.827 16.379 114.827Z" fill="#1D1D1B"/>
<path fill-rule="evenodd" clip-rule="evenodd" d="M19.7436 114.827C20.2345 114.827 20.6324 115.225 20.6324 115.715V120.604C20.6324 121.095 20.2345 121.493 19.7436 121.493C19.2528 121.493 18.8549 121.095 18.8549 120.604V115.715C18.8549 115.225 19.2528 114.827 19.7436 114.827Z" fill="#1D1D1B"/>
<path fill-rule="evenodd" clip-rule="evenodd" d="M25.0764 114.827C25.5673 114.827 25.9652 115.225 25.9652 115.715V120.604C25.9652 121.095 25.5673 121.493 25.0764 121.493C24.5855 121.493 24.1876 121.095 24.1876 120.604V115.715C24.1876 115.225 24.5855 114.827 25.0764 114.827Z" fill="#1D1D1B"/>
<path fill-rule="evenodd" clip-rule="evenodd" d="M28.4412 114.827C28.932 114.827 29.3299 115.225 29.3299 115.715V120.604C29.3299 121.095 28.932 121.493 28.4412 121.493C27.9503 121.493 27.5524 121.095 27.5524 120.604V115.715C27.5524 115.225 27.9503 114.827 28.4412 114.827Z" fill="#1D1D1B"/>
<path fill-rule="evenodd" clip-rule="evenodd" d="M33.7738 114.827C34.2647 114.827 34.6626 115.225 34.6626 115.715V120.604C34.6626 121.095 34.2647 121.493 33.7738 121.493C33.2829 121.493 32.885 121.095 32.885 120.604V115.715C32.885 115.225 33.2829 114.827 33.7738 114.827Z" fill="#1D1D1B"/>
<path fill-rule="evenodd" clip-rule="evenodd" d="M37.1385 114.827C37.6294 114.827 38.0273 115.225 38.0273 115.715V120.604C38.0273 121.095 37.6294 121.493 37.1385 121.493C36.6477 121.493 36.2498 121.095 36.2498 120.604V115.715C36.2498 115.225 36.6477 114.827 37.1385 114.827Z" fill="#1D1D1B"/>
<path fill-rule="evenodd" clip-rule="evenodd" d="M0 103.462C0 102.971 0.397922 102.573 0.888784 102.573H13.9666C14.2756 102.573 14.5624 102.734 14.724 102.997C14.8857 103.261 14.899 103.589 14.7592 103.864L13.6748 106.002H13.9666C14.4575 106.002 14.8554 106.4 14.8554 106.89C14.8554 107.381 14.4575 107.779 13.9666 107.779H12.7728L11.4199 110.446H13.9666C14.4575 110.446 14.8554 110.843 14.8554 111.334C14.8554 111.825 14.4575 112.223 13.9666 112.223H10.5179L9.6804 113.874H13.9666C14.3188 113.874 14.6377 114.082 14.7798 114.404C14.9219 114.726 14.8604 115.102 14.623 115.362L9.29026 121.202C9.04291 121.473 8.65453 121.564 8.31252 121.432C7.9705 121.299 7.74512 120.97 7.74512 120.603V117.688L6.06181 121.005C5.87574 121.372 5.4624 121.563 5.06247 121.468C4.66253 121.372 4.38044 121.014 4.38044 120.603V115.651H0.888784C0.397922 115.651 0 115.253 0 114.763V111.334C0 110.843 0.397922 110.446 0.888784 110.446H4.38044V107.779H0.888784C0.397922 107.779 0 107.381 0 106.89V103.462ZM9.52269 115.651V118.312L11.9516 115.651H9.52269ZM9.52269 110.256L10.7795 107.779H9.52269V110.256ZM11.6815 106.002H8.6339C8.14304 106.002 7.74512 106.4 7.74512 106.89V111.334C7.74512 111.789 8.08696 112.164 8.52781 112.217L6.15801 116.887V114.763C6.15801 114.272 5.76008 113.874 5.26922 113.874H1.77757V112.223H5.26922C5.76008 112.223 6.15801 111.825 6.15801 111.334V106.89C6.15801 106.4 5.76008 106.002 5.26922 106.002H1.77757V104.351H12.519L11.6815 106.002Z" fill="#1D1D1B"/>
<path fill-rule="evenodd" clip-rule="evenodd" d="M26.0922 5.56945C26.0922 5.07859 26.4901 4.68066 26.9809 4.68066H58.8502C59.3411 4.68066 59.739 5.07859 59.739 5.56945V88.7977C59.739 89.2886 59.3411 89.6865 58.8502 89.6865C58.3594 89.6865 57.9614 89.2886 57.9614 88.7977V6.45823H27.8697V78.5132C27.8697 79.0041 27.4718 79.402 26.9809 79.402C26.4901 79.402 26.0922 79.0041 26.0922 78.5132V5.56945Z" fill="#1D1D1B"/>
<path fill-rule="evenodd" clip-rule="evenodd" d="M31.8058 8.61646C32.2966 8.61646 32.6946 9.01438 32.6946 9.50524V12.4255C32.6946 12.9164 32.2966 13.3143 31.8058 13.3143C31.3149 13.3143 30.917 12.9164 30.917 12.4255V9.50524C30.917 9.01438 31.3149 8.61646 31.8058 8.61646Z" fill="#1D1D1B"/>
<path fill-rule="evenodd" clip-rule="evenodd" d="M36.1861 8.61646C36.677 8.61646 37.0749 9.01438 37.0749 9.50524V12.4255C37.0749 12.9164 36.677 13.3143 36.1861 13.3143C35.6953 13.3143 35.2974 12.9164 35.2974 12.4255V9.50524C35.2974 9.01438 35.6953 8.61646 36.1861 8.61646Z" fill="#1D1D1B"/>
<path fill-rule="evenodd" clip-rule="evenodd" d="M40.5032 8.61646C40.994 8.61646 41.3919 9.01438 41.3919 9.50524V12.4255C41.3919 12.9164 40.994 13.3143 40.5032 13.3143C40.0123 13.3143 39.6144 12.9164 39.6144 12.4255V9.50524C39.6144 9.01438 40.0123 8.61646 40.5032 8.61646Z" fill="#1D1D1B"/>
<path fill-rule="evenodd" clip-rule="evenodd" d="M44.8202 8.61646C45.311 8.61646 45.709 9.01438 45.709 9.50524V12.4255C45.709 12.9164 45.311 13.3143 44.8202 13.3143C44.3293 13.3143 43.9314 12.9164 43.9314 12.4255V9.50524C43.9314 9.01438 44.3293 8.61646 44.8202 8.61646Z" fill="#1D1D1B"/>
<path fill-rule="evenodd" clip-rule="evenodd" d="M49.2006 8.61646C49.6914 8.61646 50.0893 9.01438 50.0893 9.50524V12.4255C50.0893 12.9164 49.6914 13.3143 49.2006 13.3143C48.7097 13.3143 48.3118 12.9164 48.3118 12.4255V9.50524C48.3118 9.01438 48.7097 8.61646 49.2006 8.61646Z" fill="#1D1D1B"/>
<path fill-rule="evenodd" clip-rule="evenodd" d="M53.5174 8.61646C54.0083 8.61646 54.4062 9.01438 54.4062 9.50524V12.4255C54.4062 12.9164 54.0083 13.3143 53.5174 13.3143C53.0266 13.3143 52.6287 12.9164 52.6287 12.4255V9.50524C52.6287 9.01438 53.0266 8.61646 53.5174 8.61646Z" fill="#1D1D1B"/>
<path fill-rule="evenodd" clip-rule="evenodd" d="M31.8058 15.9172C32.2966 15.9172 32.6946 16.3152 32.6946 16.806V17.8218C32.6946 18.3126 32.2966 18.7106 31.8058 18.7106C31.3149 18.7106 30.917 18.3126 30.917 17.8218V16.806C30.917 16.3152 31.3149 15.9172 31.8058 15.9172Z" fill="#1D1D1B"/>
<path fill-rule="evenodd" clip-rule="evenodd" d="M36.1861 15.9172C36.677 15.9172 37.0749 16.3152 37.0749 16.806V17.8218C37.0749 18.3126 36.677 18.7106 36.1861 18.7106C35.6953 18.7106 35.2974 18.3126 35.2974 17.8218V16.806C35.2974 16.3152 35.6953 15.9172 36.1861 15.9172Z" fill="#1D1D1B"/>
<path fill-rule="evenodd" clip-rule="evenodd" d="M40.5032 15.9172C40.994 15.9172 41.3919 16.3152 41.3919 16.806V17.8218C41.3919 18.3126 40.994 18.7106 40.5032 18.7106C40.0123 18.7106 39.6144 18.3126 39.6144 17.8218V16.806C39.6144 16.3152 40.0123 15.9172 40.5032 15.9172Z" fill="#1D1D1B"/>
<path fill-rule="evenodd" clip-rule="evenodd" d="M44.8202 15.9172C45.311 15.9172 45.709 16.3152 45.709 16.806V17.8218C45.709 18.3126 45.311 18.7106 44.8202 18.7106C44.3293 18.7106 43.9314 18.3126 43.9314 17.8218V16.806C43.9314 16.3152 44.3293 15.9172 44.8202 15.9172Z" fill="#1D1D1B"/>
<path fill-rule="evenodd" clip-rule="evenodd" d="M49.2006 15.9172C49.6914 15.9172 50.0893 16.3152 50.0893 16.806V17.8218C50.0893 18.3126 49.6914 18.7106 49.2006 18.7106C48.7097 18.7106 48.3118 18.3126 48.3118 17.8218V16.806C48.3118 16.3152 48.7097 15.9172 49.2006 15.9172Z" fill="#1D1D1B"/>
<path fill-rule="evenodd" clip-rule="evenodd" d="M53.5174 15.9172C54.0083 15.9172 54.4062 16.3152 54.4062 16.806V17.8218C54.4062 18.3126 54.0083 18.7106 53.5174 18.7106C53.0266 18.7106 52.6287 18.3126 52.6287 17.8218V16.806C52.6287 16.3152 53.0266 15.9172 53.5174 15.9172Z" fill="#1D1D1B"/>
<path fill-rule="evenodd" clip-rule="evenodd" d="M31.8058 20.3611C32.2966 20.3611 32.6946 20.759 32.6946 21.2499V22.2021C32.6946 22.693 32.2966 23.0909 31.8058 23.0909C31.3149 23.0909 30.917 22.693 30.917 22.2021V21.2499C30.917 20.759 31.3149 20.3611 31.8058 20.3611Z" fill="#1D1D1B"/>
<path fill-rule="evenodd" clip-rule="evenodd" d="M36.1861 20.3611C36.677 20.3611 37.0749 20.759 37.0749 21.2499V22.2021C37.0749 22.693 36.677 23.0909 36.1861 23.0909C35.6953 23.0909 35.2974 22.693 35.2974 22.2021V21.2499C35.2974 20.759 35.6953 20.3611 36.1861 20.3611Z" fill="#1D1D1B"/>
<path fill-rule="evenodd" clip-rule="evenodd" d="M40.5032 20.3611C40.994 20.3611 41.3919 20.759 41.3919 21.2499V22.2021C41.3919 22.693 40.994 23.0909 40.5032 23.0909C40.0123 23.0909 39.6144 22.693 39.6144 22.2021V21.2499C39.6144 20.759 40.0123 20.3611 40.5032 20.3611Z" fill="#1D1D1B"/>
<path fill-rule="evenodd" clip-rule="evenodd" d="M44.8202 20.3611C45.311 20.3611 45.709 20.759 45.709 21.2499V22.2021C45.709 22.693 45.311 23.0909 44.8202 23.0909C44.3293 23.0909 43.9314 22.693 43.9314 22.2021V21.2499C43.9314 20.759 44.3293 20.3611 44.8202 20.3611Z" fill="#1D1D1B"/>
<path fill-rule="evenodd" clip-rule="evenodd" d="M49.2006 20.3611C49.6914 20.3611 50.0893 20.759 50.0893 21.2499V22.2021C50.0893 22.693 49.6914 23.0909 49.2006 23.0909C48.7097 23.0909 48.3118 22.693 48.3118 22.2021V21.2499C48.3118 20.759 48.7097 20.3611 49.2006 20.3611Z" fill="#1D1D1B"/>
<path fill-rule="evenodd" clip-rule="evenodd" d="M53.5174 20.3611C54.0083 20.3611 54.4062 20.759 54.4062 21.2499V22.2021C54.4062 22.693 54.0083 23.0909 53.5174 23.0909C53.0266 23.0909 52.6287 22.693 52.6287 22.2021V21.2499C52.6287 20.759 53.0266 20.3611 53.5174 20.3611Z" fill="#1D1D1B"/>
<path fill-rule="evenodd" clip-rule="evenodd" d="M31.8058 24.7415C32.2966 24.7415 32.6946 25.1394 32.6946 25.6302V26.5825C32.6946 27.0734 32.2966 27.4713 31.8058 27.4713C31.3149 27.4713 30.917 27.0734 30.917 26.5825V25.6302C30.917 25.1394 31.3149 24.7415 31.8058 24.7415Z" fill="#1D1D1B"/>
<path fill-rule="evenodd" clip-rule="evenodd" d="M36.1861 24.7415C36.677 24.7415 37.0749 25.1394 37.0749 25.6302V26.5825C37.0749 27.0734 36.677 27.4713 36.1861 27.4713C35.6953 27.4713 35.2974 27.0734 35.2974 26.5825V25.6302C35.2974 25.1394 35.6953 24.7415 36.1861 24.7415Z" fill="#1D1D1B"/>
<path fill-rule="evenodd" clip-rule="evenodd" d="M40.5032 24.7415C40.994 24.7415 41.3919 25.1394 41.3919 25.6302V26.5825C41.3919 27.0734 40.994 27.4713 40.5032 27.4713C40.0123 27.4713 39.6144 27.0734 39.6144 26.5825V25.6302C39.6144 25.1394 40.0123 24.7415 40.5032 24.7415Z" fill="#1D1D1B"/>
<path fill-rule="evenodd" clip-rule="evenodd" d="M44.8202 24.7415C45.311 24.7415 45.709 25.1394 45.709 25.6302V26.5825C45.709 27.0734 45.311 27.4713 44.8202 27.4713C44.3293 27.4713 43.9314 27.0734 43.9314 26.5825V25.6302C43.9314 25.1394 44.3293 24.7415 44.8202 24.7415Z" fill="#1D1D1B"/>
<path fill-rule="evenodd" clip-rule="evenodd" d="M49.2006 24.7415C49.6914 24.7415 50.0893 25.1394 50.0893 25.6302V26.5825C50.0893 27.0734 49.6914 27.4713 49.2006 27.4713C48.7097 27.4713 48.3118 27.0734 48.3118 26.5825V25.6302C48.3118 25.1394 48.7097 24.7415 49.2006 24.7415Z" fill="#1D1D1B"/>
<path fill-rule="evenodd" clip-rule="evenodd" d="M53.5174 24.7415C54.0083 24.7415 54.4062 25.1394 54.4062 25.6302V26.5825C54.4062 27.0734 54.0083 27.4713 53.5174 27.4713C53.0266 27.4713 52.6287 27.0734 52.6287 26.5825V25.6302C52.6287 25.1394 53.0266 24.7415 53.5174 24.7415Z" fill="#1D1D1B"/>
<path fill-rule="evenodd" clip-rule="evenodd" d="M31.8058 29.1221C32.2966 29.1221 32.6946 29.52 32.6946 30.0109V31.0266C32.6946 31.5175 32.2966 31.9154 31.8058 31.9154C31.3149 31.9154 30.917 31.5175 30.917 31.0266V30.0109C30.917 29.52 31.3149 29.1221 31.8058 29.1221Z" fill="#1D1D1B"/>
<path fill-rule="evenodd" clip-rule="evenodd" d="M36.1861 29.1221C36.677 29.1221 37.0749 29.52 37.0749 30.0109V31.0266C37.0749 31.5175 36.677 31.9154 36.1861 31.9154C35.6953 31.9154 35.2974 31.5175 35.2974 31.0266V30.0109C35.2974 29.52 35.6953 29.1221 36.1861 29.1221Z" fill="#1D1D1B"/>
<path fill-rule="evenodd" clip-rule="evenodd" d="M40.5032 29.1221C40.994 29.1221 41.3919 29.52 41.3919 30.0109V31.0266C41.3919 31.5175 40.994 31.9154 40.5032 31.9154C40.0123 31.9154 39.6144 31.5175 39.6144 31.0266V30.0109C39.6144 29.52 40.0123 29.1221 40.5032 29.1221Z" fill="#1D1D1B"/>
<path fill-rule="evenodd" clip-rule="evenodd" d="M44.8202 29.1221C45.311 29.1221 45.709 29.52 45.709 30.0109V31.0266C45.709 31.5175 45.311 31.9154 44.8202 31.9154C44.3293 31.9154 43.9314 31.5175 43.9314 31.0266V30.0109C43.9314 29.52 44.3293 29.1221 44.8202 29.1221Z" fill="#1D1D1B"/>
<path fill-rule="evenodd" clip-rule="evenodd" d="M49.2006 29.1221C49.6914 29.1221 50.0893 29.52 50.0893 30.0109V31.0266C50.0893 31.5175 49.6914 31.9154 49.2006 31.9154C48.7097 31.9154 48.3118 31.5175 48.3118 31.0266V30.0109C48.3118 29.52 48.7097 29.1221 49.2006 29.1221Z" fill="#1D1D1B"/>
<path fill-rule="evenodd" clip-rule="evenodd" d="M53.5174 29.1221C54.0083 29.1221 54.4062 29.52 54.4062 30.0109V31.0266C54.4062 31.5175 54.0083 31.9154 53.5174 31.9154C53.0266 31.9154 52.6287 31.5175 52.6287 31.0266V30.0109C52.6287 29.52 53.0266 29.1221 53.5174 29.1221Z" fill="#1D1D1B"/>
<path fill-rule="evenodd" clip-rule="evenodd" d="M31.8058 33.5659C32.2966 33.5659 32.6946 33.9638 32.6946 34.4547V35.407C32.6946 35.8978 32.2966 36.2958 31.8058 36.2958C31.3149 36.2958 30.917 35.8978 30.917 35.407V34.4547C30.917 33.9638 31.3149 33.5659 31.8058 33.5659Z" fill="#1D1D1B"/>
<path fill-rule="evenodd" clip-rule="evenodd" d="M36.1861 33.5659C36.677 33.5659 37.0749 33.9638 37.0749 34.4547V35.407C37.0749 35.8978 36.677 36.2958 36.1861 36.2958C35.6953 36.2958 35.2974 35.8978 35.2974 35.407V34.4547C35.2974 33.9638 35.6953 33.5659 36.1861 33.5659Z" fill="#1D1D1B"/>
<path fill-rule="evenodd" clip-rule="evenodd" d="M40.5032 33.5659C40.994 33.5659 41.3919 33.9638 41.3919 34.4547V35.407C41.3919 35.8978 40.994 36.2958 40.5032 36.2958C40.0123 36.2958 39.6144 35.8978 39.6144 35.407V34.4547C39.6144 33.9638 40.0123 33.5659 40.5032 33.5659Z" fill="#1D1D1B"/>
<path fill-rule="evenodd" clip-rule="evenodd" d="M44.8202 33.5659C45.311 33.5659 45.709 33.9638 45.709 34.4547V35.407C45.709 35.8978 45.311 36.2958 44.8202 36.2958C44.3293 36.2958 43.9314 35.8978 43.9314 35.407V34.4547C43.9314 33.9638 44.3293 33.5659 44.8202 33.5659Z" fill="#1D1D1B"/>
<path fill-rule="evenodd" clip-rule="evenodd" d="M49.2006 33.5659C49.6914 33.5659 50.0893 33.9638 50.0893 34.4547V35.407C50.0893 35.8978 49.6914 36.2958 49.2006 36.2958C48.7097 36.2958 48.3118 35.8978 48.3118 35.407V34.4547C48.3118 33.9638 48.7097 33.5659 49.2006 33.5659Z" fill="#1D1D1B"/>
<path fill-rule="evenodd" clip-rule="evenodd" d="M53.5174 33.5659C54.0083 33.5659 54.4062 33.9638 54.4062 34.4547V35.407C54.4062 35.8978 54.0083 36.2958 53.5174 36.2958C53.0266 36.2958 52.6287 35.8978 52.6287 35.407V34.4547C52.6287 33.9638 53.0266 33.5659 53.5174 33.5659Z" fill="#1D1D1B"/>
<path fill-rule="evenodd" clip-rule="evenodd" d="M31.8058 37.9465C32.2966 37.9465 32.6946 38.3445 32.6946 38.8353V39.8511C32.6946 40.3419 32.2966 40.7399 31.8058 40.7399C31.3149 40.7399 30.917 40.3419 30.917 39.8511V38.8353C30.917 38.3445 31.3149 37.9465 31.8058 37.9465Z" fill="#1D1D1B"/>
<path fill-rule="evenodd" clip-rule="evenodd" d="M36.1861 37.9465C36.677 37.9465 37.0749 38.3445 37.0749 38.8353V39.8511C37.0749 40.3419 36.677 40.7399 36.1861 40.7399C35.6953 40.7399 35.2974 40.3419 35.2974 39.8511V38.8353C35.2974 38.3445 35.6953 37.9465 36.1861 37.9465Z" fill="#1D1D1B"/>
<path fill-rule="evenodd" clip-rule="evenodd" d="M40.5032 37.9465C40.994 37.9465 41.3919 38.3445 41.3919 38.8353V39.8511C41.3919 40.3419 40.994 40.7399 40.5032 40.7399C40.0123 40.7399 39.6144 40.3419 39.6144 39.8511V38.8353C39.6144 38.3445 40.0123 37.9465 40.5032 37.9465Z" fill="#1D1D1B"/>
<path fill-rule="evenodd" clip-rule="evenodd" d="M44.8202 37.9465C45.311 37.9465 45.709 38.3445 45.709 38.8353V39.8511C45.709 40.3419 45.311 40.7399 44.8202 40.7399C44.3293 40.7399 43.9314 40.3419 43.9314 39.8511V38.8353C43.9314 38.3445 44.3293 37.9465 44.8202 37.9465Z" fill="#1D1D1B"/>
<path fill-rule="evenodd" clip-rule="evenodd" d="M49.2006 37.9465C49.6914 37.9465 50.0893 38.3445 50.0893 38.8353V39.8511C50.0893 40.3419 49.6914 40.7399 49.2006 40.7399C48.7097 40.7399 48.3118 40.3419 48.3118 39.8511V38.8353C48.3118 38.3445 48.7097 37.9465 49.2006 37.9465Z" fill="#1D1D1B"/>
<path fill-rule="evenodd" clip-rule="evenodd" d="M53.5174 37.9465C54.0083 37.9465 54.4062 38.3445 54.4062 38.8353V39.8511C54.4062 40.3419 54.0083 40.7399 53.5174 40.7399C53.0266 40.7399 52.6287 40.3419 52.6287 39.8511V38.8353C52.6287 38.3445 53.0266 37.9465 53.5174 37.9465Z" fill="#1D1D1B"/>
<path fill-rule="evenodd" clip-rule="evenodd" d="M31.8058 42.3901C32.2966 42.3901 32.6946 42.7881 32.6946 43.2789V44.2312C32.6946 44.7221 32.2966 45.12 31.8058 45.12C31.3149 45.12 30.917 44.7221 30.917 44.2312V43.2789C30.917 42.7881 31.3149 42.3901 31.8058 42.3901Z" fill="#1D1D1B"/>
<path fill-rule="evenodd" clip-rule="evenodd" d="M36.1861 42.3901C36.677 42.3901 37.0749 42.7881 37.0749 43.2789V44.2312C37.0749 44.7221 36.677 45.12 36.1861 45.12C35.6953 45.12 35.2974 44.7221 35.2974 44.2312V43.2789C35.2974 42.7881 35.6953 42.3901 36.1861 42.3901Z" fill="#1D1D1B"/>
<path fill-rule="evenodd" clip-rule="evenodd" d="M40.5032 42.3901C40.994 42.3901 41.3919 42.7881 41.3919 43.2789V44.2312C41.3919 44.7221 40.994 45.12 40.5032 45.12C40.0123 45.12 39.6144 44.7221 39.6144 44.2312V43.2789C39.6144 42.7881 40.0123 42.3901 40.5032 42.3901Z" fill="#1D1D1B"/>
<path fill-rule="evenodd" clip-rule="evenodd" d="M44.8202 42.3901C45.311 42.3901 45.709 42.7881 45.709 43.2789V44.2312C45.709 44.7221 45.311 45.12 44.8202 45.12C44.3293 45.12 43.9314 44.7221 43.9314 44.2312V43.2789C43.9314 42.7881 44.3293 42.3901 44.8202 42.3901Z" fill="#1D1D1B"/>
<path fill-rule="evenodd" clip-rule="evenodd" d="M49.2006 42.3901C49.6914 42.3901 50.0893 42.7881 50.0893 43.2789V44.2312C50.0893 44.7221 49.6914 45.12 49.2006 45.12C48.7097 45.12 48.3118 44.7221 48.3118 44.2312V43.2789C48.3118 42.7881 48.7097 42.3901 49.2006 42.3901Z" fill="#1D1D1B"/>
<path fill-rule="evenodd" clip-rule="evenodd" d="M53.5174 42.3901C54.0083 42.3901 54.4062 42.7881 54.4062 43.2789V44.2312C54.4062 44.7221 54.0083 45.12 53.5174 45.12C53.0266 45.12 52.6287 44.7221 52.6287 44.2312V43.2789C52.6287 42.7881 53.0266 42.3901 53.5174 42.3901Z" fill="#1D1D1B"/>
<path fill-rule="evenodd" clip-rule="evenodd" d="M31.8058 46.7708C32.2966 46.7708 32.6946 47.1687 32.6946 47.6595V48.6753C32.6946 49.1662 32.2966 49.5641 31.8058 49.5641C31.3149 49.5641 30.917 49.1662 30.917 48.6753V47.6595C30.917 47.1687 31.3149 46.7708 31.8058 46.7708Z" fill="#1D1D1B"/>
<path fill-rule="evenodd" clip-rule="evenodd" d="M36.1861 46.7708C36.677 46.7708 37.0749 47.1687 37.0749 47.6595V48.6753C37.0749 49.1662 36.677 49.5641 36.1861 49.5641C35.6953 49.5641 35.2974 49.1662 35.2974 48.6753V47.6595C35.2974 47.1687 35.6953 46.7708 36.1861 46.7708Z" fill="#1D1D1B"/>
<path fill-rule="evenodd" clip-rule="evenodd" d="M40.5032 46.7708C40.994 46.7708 41.3919 47.1687 41.3919 47.6595V48.6753C41.3919 49.1662 40.994 49.5641 40.5032 49.5641C40.0123 49.5641 39.6144 49.1662 39.6144 48.6753V47.6595C39.6144 47.1687 40.0123 46.7708 40.5032 46.7708Z" fill="#1D1D1B"/>
<path fill-rule="evenodd" clip-rule="evenodd" d="M44.8202 46.7708C45.311 46.7708 45.709 47.1687 45.709 47.6595V48.6753C45.709 49.1662 45.311 49.5641 44.8202 49.5641C44.3293 49.5641 43.9314 49.1662 43.9314 48.6753V47.6595C43.9314 47.1687 44.3293 46.7708 44.8202 46.7708Z" fill="#1D1D1B"/>
<path fill-rule="evenodd" clip-rule="evenodd" d="M49.2006 46.7708C49.6914 46.7708 50.0893 47.1687 50.0893 47.6595V48.6753C50.0893 49.1662 49.6914 49.5641 49.2006 49.5641C48.7097 49.5641 48.3118 49.1662 48.3118 48.6753V47.6595C48.3118 47.1687 48.7097 46.7708 49.2006 46.7708Z" fill="#1D1D1B"/>
<path fill-rule="evenodd" clip-rule="evenodd" d="M53.5174 46.7708C54.0083 46.7708 54.4062 47.1687 54.4062 47.6595V48.6753C54.4062 49.1662 54.0083 49.5641 53.5174 49.5641C53.0266 49.5641 52.6287 49.1662 52.6287 48.6753V47.6595C52.6287 47.1687 53.0266 46.7708 53.5174 46.7708Z" fill="#1D1D1B"/>
<path fill-rule="evenodd" clip-rule="evenodd" d="M31.8058 51.1514C32.2966 51.1514 32.6946 51.5493 32.6946 52.0402V53.0559C32.6946 53.5468 32.2966 53.9447 31.8058 53.9447C31.3149 53.9447 30.917 53.5468 30.917 53.0559V52.0402C30.917 51.5493 31.3149 51.1514 31.8058 51.1514Z" fill="#1D1D1B"/>
<path fill-rule="evenodd" clip-rule="evenodd" d="M36.1861 51.1514C36.677 51.1514 37.0749 51.5493 37.0749 52.0402V53.0559C37.0749 53.5468 36.677 53.9447 36.1861 53.9447C35.6953 53.9447 35.2974 53.5468 35.2974 53.0559V52.0402C35.2974 51.5493 35.6953 51.1514 36.1861 51.1514Z" fill="#1D1D1B"/>
<path fill-rule="evenodd" clip-rule="evenodd" d="M40.5032 51.1514C40.994 51.1514 41.3919 51.5493 41.3919 52.0402V53.0559C41.3919 53.5468 40.994 53.9447 40.5032 53.9447C40.0123 53.9447 39.6144 53.5468 39.6144 53.0559V52.0402C39.6144 51.5493 40.0123 51.1514 40.5032 51.1514Z" fill="#1D1D1B"/>
<path fill-rule="evenodd" clip-rule="evenodd" d="M44.8202 51.1514C45.311 51.1514 45.709 51.5493 45.709 52.0402V53.0559C45.709 53.5468 45.311 53.9447 44.8202 53.9447C44.3293 53.9447 43.9314 53.5468 43.9314 53.0559V52.0402C43.9314 51.5493 44.3293 51.1514 44.8202 51.1514Z" fill="#1D1D1B"/>
<path fill-rule="evenodd" clip-rule="evenodd" d="M49.2006 51.1514C49.6914 51.1514 50.0893 51.5493 50.0893 52.0402V53.0559C50.0893 53.5468 49.6914 53.9447 49.2006 53.9447C48.7097 53.9447 48.3118 53.5468 48.3118 53.0559V52.0402C48.3118 51.5493 48.7097 51.1514 49.2006 51.1514Z" fill="#1D1D1B"/>
<path fill-rule="evenodd" clip-rule="evenodd" d="M53.5174 51.1514C54.0083 51.1514 54.4062 51.5493 54.4062 52.0402V53.0559C54.4062 53.5468 54.0083 53.9447 53.5174 53.9447C53.0266 53.9447 52.6287 53.5468 52.6287 53.0559V52.0402C52.6287 51.5493 53.0266 51.1514 53.5174 51.1514Z" fill="#1D1D1B"/>
<path fill-rule="evenodd" clip-rule="evenodd" d="M31.8058 55.5952C32.2966 55.5952 32.6946 55.9931 32.6946 56.484V57.4363C32.6946 57.9271 32.2966 58.3251 31.8058 58.3251C31.3149 58.3251 30.917 57.9271 30.917 57.4363V56.484C30.917 55.9931 31.3149 55.5952 31.8058 55.5952Z" fill="#1D1D1B"/>
<path fill-rule="evenodd" clip-rule="evenodd" d="M36.1861 55.5952C36.677 55.5952 37.0749 55.9931 37.0749 56.484V57.4363C37.0749 57.9271 36.677 58.3251 36.1861 58.3251C35.6953 58.3251 35.2974 57.9271 35.2974 57.4363V56.484C35.2974 55.9931 35.6953 55.5952 36.1861 55.5952Z" fill="#1D1D1B"/>
<path fill-rule="evenodd" clip-rule="evenodd" d="M40.5032 55.5952C40.994 55.5952 41.3919 55.9931 41.3919 56.484V57.4363C41.3919 57.9271 40.994 58.3251 40.5032 58.3251C40.0123 58.3251 39.6144 57.9271 39.6144 57.4363V56.484C39.6144 55.9931 40.0123 55.5952 40.5032 55.5952Z" fill="#1D1D1B"/>
<path fill-rule="evenodd" clip-rule="evenodd" d="M44.8202 55.5952C45.311 55.5952 45.709 55.9931 45.709 56.484V57.4363C45.709 57.9271 45.311 58.3251 44.8202 58.3251C44.3293 58.3251 43.9314 57.9271 43.9314 57.4363V56.484C43.9314 55.9931 44.3293 55.5952 44.8202 55.5952Z" fill="#1D1D1B"/>
<path fill-rule="evenodd" clip-rule="evenodd" d="M49.2006 55.5952C49.6914 55.5952 50.0893 55.9931 50.0893 56.484V57.4363C50.0893 57.9271 49.6914 58.3251 49.2006 58.3251C48.7097 58.3251 48.3118 57.9271 48.3118 57.4363V56.484C48.3118 55.9931 48.7097 55.5952 49.2006 55.5952Z" fill="#1D1D1B"/>
<path fill-rule="evenodd" clip-rule="evenodd" d="M53.5174 55.5952C54.0083 55.5952 54.4062 55.9931 54.4062 56.484V57.4363C54.4062 57.9271 54.0083 58.3251 53.5174 58.3251C53.0266 58.3251 52.6287 57.9271 52.6287 57.4363V56.484C52.6287 55.9931 53.0266 55.5952 53.5174 55.5952Z" fill="#1D1D1B"/>
<path fill-rule="evenodd" clip-rule="evenodd" d="M31.8058 59.9753C32.2966 59.9753 32.6946 60.3733 32.6946 60.8641V61.8799C32.6946 62.3707 32.2966 62.7687 31.8058 62.7687C31.3149 62.7687 30.917 62.3707 30.917 61.8799V60.8641C30.917 60.3733 31.3149 59.9753 31.8058 59.9753Z" fill="#1D1D1B"/>
<path fill-rule="evenodd" clip-rule="evenodd" d="M36.1861 59.9753C36.677 59.9753 37.0749 60.3733 37.0749 60.8641V61.8799C37.0749 62.3707 36.677 62.7687 36.1861 62.7687C35.6953 62.7687 35.2974 62.3707 35.2974 61.8799V60.8641C35.2974 60.3733 35.6953 59.9753 36.1861 59.9753Z" fill="#1D1D1B"/>
<path fill-rule="evenodd" clip-rule="evenodd" d="M40.5032 59.9753C40.994 59.9753 41.3919 60.3733 41.3919 60.8641V61.8799C41.3919 62.3707 40.994 62.7687 40.5032 62.7687C40.0123 62.7687 39.6144 62.3707 39.6144 61.8799V60.8641C39.6144 60.3733 40.0123 59.9753 40.5032 59.9753Z" fill="#1D1D1B"/>
<path fill-rule="evenodd" clip-rule="evenodd" d="M44.8202 59.9753C45.311 59.9753 45.709 60.3733 45.709 60.8641V61.8799C45.709 62.3707 45.311 62.7687 44.8202 62.7687C44.3293 62.7687 43.9314 62.3707 43.9314 61.8799V60.8641C43.9314 60.3733 44.3293 59.9753 44.8202 59.9753Z" fill="#1D1D1B"/>
<path fill-rule="evenodd" clip-rule="evenodd" d="M49.2006 59.9753C49.6914 59.9753 50.0893 60.3733 50.0893 60.8641V61.8799C50.0893 62.3707 49.6914 62.7687 49.2006 62.7687C48.7097 62.7687 48.3118 62.3707 48.3118 61.8799V60.8641C48.3118 60.3733 48.7097 59.9753 49.2006 59.9753Z" fill="#1D1D1B"/>
<path fill-rule="evenodd" clip-rule="evenodd" d="M53.5174 59.9753C54.0083 59.9753 54.4062 60.3733 54.4062 60.8641V61.8799C54.4062 62.3707 54.0083 62.7687 53.5174 62.7687C53.0266 62.7687 52.6287 62.3707 52.6287 61.8799V60.8641C52.6287 60.3733 53.0266 59.9753 53.5174 59.9753Z" fill="#1D1D1B"/>
<path fill-rule="evenodd" clip-rule="evenodd" d="M31.8058 64.4194C32.2966 64.4194 32.6946 64.8174 32.6946 65.3082V66.2605C32.6946 66.7513 32.2966 67.1493 31.8058 67.1493C31.3149 67.1493 30.917 66.7513 30.917 66.2605V65.3082C30.917 64.8174 31.3149 64.4194 31.8058 64.4194Z" fill="#1D1D1B"/>
<path fill-rule="evenodd" clip-rule="evenodd" d="M36.1861 64.4194C36.677 64.4194 37.0749 64.8174 37.0749 65.3082V66.2605C37.0749 66.7513 36.677 67.1493 36.1861 67.1493C35.6953 67.1493 35.2974 66.7513 35.2974 66.2605V65.3082C35.2974 64.8174 35.6953 64.4194 36.1861 64.4194Z" fill="#1D1D1B"/>
<path fill-rule="evenodd" clip-rule="evenodd" d="M40.5032 64.4194C40.994 64.4194 41.3919 64.8174 41.3919 65.3082V66.2605C41.3919 66.7513 40.994 67.1493 40.5032 67.1493C40.0123 67.1493 39.6144 66.7513 39.6144 66.2605V65.3082C39.6144 64.8174 40.0123 64.4194 40.5032 64.4194Z" fill="#1D1D1B"/>
<path fill-rule="evenodd" clip-rule="evenodd" d="M44.8202 64.4194C45.311 64.4194 45.709 64.8174 45.709 65.3082V66.2605C45.709 66.7513 45.311 67.1493 44.8202 67.1493C44.3293 67.1493 43.9314 66.7513 43.9314 66.2605V65.3082C43.9314 64.8174 44.3293 64.4194 44.8202 64.4194Z" fill="#1D1D1B"/>
<path fill-rule="evenodd" clip-rule="evenodd" d="M49.2006 64.4194C49.6914 64.4194 50.0893 64.8174 50.0893 65.3082V66.2605C50.0893 66.7513 49.6914 67.1493 49.2006 67.1493C48.7097 67.1493 48.3118 66.7513 48.3118 66.2605V65.3082C48.3118 64.8174 48.7097 64.4194 49.2006 64.4194Z" fill="#1D1D1B"/>
<path fill-rule="evenodd" clip-rule="evenodd" d="M53.5174 64.4194C54.0083 64.4194 54.4062 64.8174 54.4062 65.3082V66.2605C54.4062 66.7513 54.0083 67.1493 53.5174 67.1493C53.0266 67.1493 52.6287 66.7513 52.6287 66.2605V65.3082C52.6287 64.8174 53.0266 64.4194 53.5174 64.4194Z" fill="#1D1D1B"/>
<path fill-rule="evenodd" clip-rule="evenodd" d="M31.8058 68.7998C32.2966 68.7998 32.6946 69.1977 32.6946 69.6886V70.7043C32.6946 71.1952 32.2966 71.5931 31.8058 71.5931C31.3149 71.5931 30.917 71.1952 30.917 70.7043V69.6886C30.917 69.1977 31.3149 68.7998 31.8058 68.7998Z" fill="#1D1D1B"/>
<path fill-rule="evenodd" clip-rule="evenodd" d="M36.1861 68.7998C36.677 68.7998 37.0749 69.1977 37.0749 69.6886V70.7043C37.0749 71.1952 36.677 71.5931 36.1861 71.5931C35.6953 71.5931 35.2974 71.1952 35.2974 70.7043V69.6886C35.2974 69.1977 35.6953 68.7998 36.1861 68.7998Z" fill="#1D1D1B"/>
<path fill-rule="evenodd" clip-rule="evenodd" d="M40.5032 68.7998C40.994 68.7998 41.3919 69.1977 41.3919 69.6886V70.7043C41.3919 71.1952 40.994 71.5931 40.5032 71.5931C40.0123 71.5931 39.6144 71.1952 39.6144 70.7043V69.6886C39.6144 69.1977 40.0123 68.7998 40.5032 68.7998Z" fill="#1D1D1B"/>
<path fill-rule="evenodd" clip-rule="evenodd" d="M44.8202 68.7998C45.311 68.7998 45.709 69.1977 45.709 69.6886V70.7043C45.709 71.1952 45.311 71.5931 44.8202 71.5931C44.3293 71.5931 43.9314 71.1952 43.9314 70.7043V69.6886C43.9314 69.1977 44.3293 68.7998 44.8202 68.7998Z" fill="#1D1D1B"/>
<path fill-rule="evenodd" clip-rule="evenodd" d="M49.2006 68.7998C49.6914 68.7998 50.0893 69.1977 50.0893 69.6886V70.7043C50.0893 71.1952 49.6914 71.5931 49.2006 71.5931C48.7097 71.5931 48.3118 71.1952 48.3118 70.7043V69.6886C48.3118 69.1977 48.7097 68.7998 49.2006 68.7998Z" fill="#1D1D1B"/>
<path fill-rule="evenodd" clip-rule="evenodd" d="M53.5174 68.7998C54.0083 68.7998 54.4062 69.1977 54.4062 69.6886V70.7043C54.4062 71.1952 54.0083 71.5931 53.5174 71.5931C53.0266 71.5931 52.6287 71.1952 52.6287 70.7043V69.6886C52.6287 69.1977 53.0266 68.7998 53.5174 68.7998Z" fill="#1D1D1B"/>
<path fill-rule="evenodd" clip-rule="evenodd" d="M31.8058 73.1804C32.2966 73.1804 32.6946 73.5783 32.6946 74.0692V75.085C32.6946 75.5758 32.2966 75.9737 31.8058 75.9737C31.3149 75.9737 30.917 75.5758 30.917 75.085V74.0692C30.917 73.5783 31.3149 73.1804 31.8058 73.1804Z" fill="#1D1D1B"/>
<path fill-rule="evenodd" clip-rule="evenodd" d="M36.1861 73.1804C36.677 73.1804 37.0749 73.5783 37.0749 74.0692V75.085C37.0749 75.5758 36.677 75.9737 36.1861 75.9737C35.6953 75.9737 35.2974 75.5758 35.2974 75.085V74.0692C35.2974 73.5783 35.6953 73.1804 36.1861 73.1804Z" fill="#1D1D1B"/>
<path fill-rule="evenodd" clip-rule="evenodd" d="M40.5032 73.1804C40.994 73.1804 41.3919 73.5783 41.3919 74.0692V75.085C41.3919 75.5758 40.994 75.9737 40.5032 75.9737C40.0123 75.9737 39.6144 75.5758 39.6144 75.085V74.0692C39.6144 73.5783 40.0123 73.1804 40.5032 73.1804Z" fill="#1D1D1B"/>
<path fill-rule="evenodd" clip-rule="evenodd" d="M44.8202 73.1804C45.311 73.1804 45.709 73.5783 45.709 74.0692V75.085C45.709 75.5758 45.311 75.9737 44.8202 75.9737C44.3293 75.9737 43.9314 75.5758 43.9314 75.085V74.0692C43.9314 73.5783 44.3293 73.1804 44.8202 73.1804Z" fill="#1D1D1B"/>
<path fill-rule="evenodd" clip-rule="evenodd" d="M49.2006 73.1804C49.6914 73.1804 50.0893 73.5783 50.0893 74.0692V75.085C50.0893 75.5758 49.6914 75.9737 49.2006 75.9737C48.7097 75.9737 48.3118 75.5758 48.3118 75.085V74.0692C48.3118 73.5783 48.7097 73.1804 49.2006 73.1804Z" fill="#1D1D1B"/>
<path fill-rule="evenodd" clip-rule="evenodd" d="M53.5174 73.1804C54.0083 73.1804 54.4062 73.5783 54.4062 74.0692V75.085C54.4062 75.5758 54.0083 75.9737 53.5174 75.9737C53.0266 75.9737 52.6287 75.5758 52.6287 75.085V74.0692C52.6287 73.5783 53.0266 73.1804 53.5174 73.1804Z" fill="#1D1D1B"/>
<path fill-rule="evenodd" clip-rule="evenodd" d="M49.2006 77.624C49.6914 77.624 50.0893 78.0219 50.0893 78.5128V79.4651C50.0893 79.9559 49.6914 80.3539 49.2006 80.3539C48.7097 80.3539 48.3118 79.9559 48.3118 79.4651V78.5128C48.3118 78.0219 48.7097 77.624 49.2006 77.624Z" fill="#1D1D1B"/>
<path fill-rule="evenodd" clip-rule="evenodd" d="M53.5174 77.624C54.0083 77.624 54.4062 78.0219 54.4062 78.5128V79.4651C54.4062 79.9559 54.0083 80.3539 53.5174 80.3539C53.0266 80.3539 52.6287 79.9559 52.6287 79.4651V78.5128C52.6287 78.0219 53.0266 77.624 53.5174 77.624Z" fill="#1D1D1B"/>
<path fill-rule="evenodd" clip-rule="evenodd" d="M33.3293 1.12536C33.3293 0.634495 33.7273 0.236572 34.2181 0.236572H51.6129C52.1038 0.236572 52.5017 0.634495 52.5017 1.12536V5.56928C52.5017 6.06014 52.1038 6.45806 51.6129 6.45806C51.122 6.45806 50.7241 6.06014 50.7241 5.56928V2.01414H35.1069V5.0614C35.1069 5.55226 34.709 5.95018 34.2181 5.95018C33.7273 5.95018 33.3293 5.55226 33.3293 5.0614V1.12536Z" fill="#1D1D1B"/>
<path fill-rule="evenodd" clip-rule="evenodd" d="M37.5829 2.71265C38.0737 2.71265 38.4717 3.11057 38.4717 3.60143V5.06158C38.4717 5.55244 38.0737 5.95036 37.5829 5.95036C37.092 5.95036 36.6941 5.55244 36.6941 5.06158V3.60143C36.6941 3.11057 37.092 2.71265 37.5829 2.71265Z" fill="#1D1D1B"/>
<path fill-rule="evenodd" clip-rule="evenodd" d="M48.2483 2.71265C48.7391 2.71265 49.1371 3.11057 49.1371 3.60143V5.06158C49.1371 5.55244 48.7391 5.95036 48.2483 5.95036C47.7574 5.95036 47.3595 5.55244 47.3595 5.06158V3.60143C47.3595 3.11057 47.7574 2.71265 48.2483 2.71265Z" fill="#1D1D1B"/>
<path fill-rule="evenodd" clip-rule="evenodd" d="M66.6588 22.2023C66.6588 21.7114 67.0567 21.3135 67.5476 21.3135H99.8613C100.352 21.3135 100.75 21.7114 100.75 22.2023V100.542C100.75 101.033 100.352 101.431 99.8613 101.431C99.3704 101.431 98.9725 101.033 98.9725 100.542V23.091H68.4364V103.463C68.4364 103.953 68.0385 104.351 67.5476 104.351C67.0567 104.351 66.6588 103.953 66.6588 103.463V22.2023Z" fill="#1D1D1B"/>
<path fill-rule="evenodd" clip-rule="evenodd" d="M69.0713 18.2662C69.0713 17.7754 69.4692 17.3774 69.9601 17.3774H97.4489C97.9398 17.3774 98.3377 17.7754 98.3377 18.2662V21.6944C98.3377 22.1853 97.9398 22.5832 97.4489 22.5832C96.958 22.5832 96.5601 22.1853 96.5601 21.6944V19.155H70.8489V21.6944C70.8489 22.1853 70.4509 22.5832 69.9601 22.5832C69.4692 22.5832 69.0713 22.1853 69.0713 21.6944V18.2662Z" fill="#1D1D1B"/>
<path fill-rule="evenodd" clip-rule="evenodd" d="M71.928 14.3937C71.928 13.9028 72.3259 13.5049 72.8168 13.5049H94.592C95.0828 13.5049 95.4808 13.9028 95.4808 14.3937V17.8218C95.4808 18.3127 95.0828 18.7106 94.592 18.7106C94.1011 18.7106 93.7032 18.3127 93.7032 17.8218V15.2825H73.7055V17.8218C73.7055 18.3127 73.3076 18.7106 72.8168 18.7106C72.3259 18.7106 71.928 18.3127 71.928 17.8218V14.3937Z" fill="#1D1D1B"/>
<path fill-rule="evenodd" clip-rule="evenodd" d="M74.4039 8.99743C74.4039 8.50656 74.8019 8.10864 75.2927 8.10864H92.624C93.1149 8.10864 93.5128 8.50656 93.5128 8.99743V13.8857C93.5128 14.3766 93.1149 14.7745 92.624 14.7745C92.1331 14.7745 91.7352 14.3766 91.7352 13.8857V9.88621H76.1815V13.8857C76.1815 14.3766 75.7836 14.7745 75.2927 14.7745C74.8019 14.7745 74.4039 14.3766 74.4039 13.8857V8.99743Z" fill="#1D1D1B"/>
<path fill-rule="evenodd" clip-rule="evenodd" d="M70.9758 26.1383C70.9758 25.6474 71.3738 25.2495 71.8646 25.2495H73.8326C74.3235 25.2495 74.7214 25.6474 74.7214 26.1383C74.7214 26.6292 74.3235 27.0271 73.8326 27.0271H71.8646C71.3738 27.0271 70.9758 26.6292 70.9758 26.1383Z" fill="#1D1D1B"/>
<path fill-rule="evenodd" clip-rule="evenodd" d="M76.3085 26.1383C76.3085 25.6474 76.7064 25.2495 77.1973 25.2495H79.1018C79.5927 25.2495 79.9906 25.6474 79.9906 26.1383C79.9906 26.6292 79.5927 27.0271 79.1018 27.0271H77.1973C76.7064 27.0271 76.3085 26.6292 76.3085 26.1383Z" fill="#1D1D1B"/>
<path fill-rule="evenodd" clip-rule="evenodd" d="M81.6411 26.1383C81.6411 25.6474 82.039 25.2495 82.5299 25.2495H84.4344C84.9253 25.2495 85.3232 25.6474 85.3232 26.1383C85.3232 26.6292 84.9253 27.0271 84.4344 27.0271H82.5299C82.039 27.0271 81.6411 26.6292 81.6411 26.1383Z" fill="#1D1D1B"/>
<path fill-rule="evenodd" clip-rule="evenodd" d="M86.9104 26.1383C86.9104 25.6474 87.3083 25.2495 87.7992 25.2495H89.7672C90.2581 25.2495 90.656 25.6474 90.656 26.1383C90.656 26.6292 90.2581 27.0271 89.7672 27.0271H87.7992C87.3083 27.0271 86.9104 26.6292 86.9104 26.1383Z" fill="#1D1D1B"/>
<path fill-rule="evenodd" clip-rule="evenodd" d="M92.2432 26.1383C92.2432 25.6474 92.6411 25.2495 93.1319 25.2495H95.0365C95.5273 25.2495 95.9253 25.6474 95.9253 26.1383C95.9253 26.6292 95.5273 27.0271 95.0365 27.0271H93.1319C92.6411 27.0271 92.2432 26.6292 92.2432 26.1383Z" fill="#1D1D1B"/>
<path fill-rule="evenodd" clip-rule="evenodd" d="M70.9758 30.0109C70.9758 29.52 71.3738 29.1221 71.8646 29.1221H73.8326C74.3235 29.1221 74.7214 29.52 74.7214 30.0109C74.7214 30.5017 74.3235 30.8996 73.8326 30.8996H71.8646C71.3738 30.8996 70.9758 30.5017 70.9758 30.0109Z" fill="#1D1D1B"/>
<path fill-rule="evenodd" clip-rule="evenodd" d="M76.3085 30.0109C76.3085 29.52 76.7064 29.1221 77.1973 29.1221H79.1018C79.5927 29.1221 79.9906 29.52 79.9906 30.0109C79.9906 30.5017 79.5927 30.8996 79.1018 30.8996H77.1973C76.7064 30.8996 76.3085 30.5017 76.3085 30.0109Z" fill="#1D1D1B"/>
<path fill-rule="evenodd" clip-rule="evenodd" d="M81.6411 30.0109C81.6411 29.52 82.039 29.1221 82.5299 29.1221H84.4344C84.9253 29.1221 85.3232 29.52 85.3232 30.0109C85.3232 30.5017 84.9253 30.8996 84.4344 30.8996H82.5299C82.039 30.8996 81.6411 30.5017 81.6411 30.0109Z" fill="#1D1D1B"/>
<path fill-rule="evenodd" clip-rule="evenodd" d="M86.9104 30.0109C86.9104 29.52 87.3083 29.1221 87.7992 29.1221H89.7672C90.2581 29.1221 90.656 29.52 90.656 30.0109C90.656 30.5017 90.2581 30.8996 89.7672 30.8996H87.7992C87.3083 30.8996 86.9104 30.5017 86.9104 30.0109Z" fill="#1D1D1B"/>
<path fill-rule="evenodd" clip-rule="evenodd" d="M92.2432 30.0109C92.2432 29.52 92.6411 29.1221 93.1319 29.1221H95.0365C95.5273 29.1221 95.9253 29.52 95.9253 30.0109C95.9253 30.5017 95.5273 30.8996 95.0365 30.8996H93.1319C92.6411 30.8996 92.2432 30.5017 92.2432 30.0109Z" fill="#1D1D1B"/>
<path fill-rule="evenodd" clip-rule="evenodd" d="M70.9758 33.9469C70.9758 33.456 71.3738 33.0581 71.8646 33.0581H73.8326C74.3235 33.0581 74.7214 33.456 74.7214 33.9469C74.7214 34.4378 74.3235 34.8357 73.8326 34.8357H71.8646C71.3738 34.8357 70.9758 34.4378 70.9758 33.9469Z" fill="#1D1D1B"/>
<path fill-rule="evenodd" clip-rule="evenodd" d="M76.3085 33.9469C76.3085 33.456 76.7064 33.0581 77.1973 33.0581H79.1018C79.5927 33.0581 79.9906 33.456 79.9906 33.9469C79.9906 34.4378 79.5927 34.8357 79.1018 34.8357H77.1973C76.7064 34.8357 76.3085 34.4378 76.3085 33.9469Z" fill="#1D1D1B"/>
<path fill-rule="evenodd" clip-rule="evenodd" d="M81.6411 33.9469C81.6411 33.456 82.039 33.0581 82.5299 33.0581H84.4344C84.9253 33.0581 85.3232 33.456 85.3232 33.9469C85.3232 34.4378 84.9253 34.8357 84.4344 34.8357H82.5299C82.039 34.8357 81.6411 34.4378 81.6411 33.9469Z" fill="#1D1D1B"/>
<path fill-rule="evenodd" clip-rule="evenodd" d="M86.9104 33.9469C86.9104 33.456 87.3083 33.0581 87.7992 33.0581H89.7672C90.2581 33.0581 90.656 33.456 90.656 33.9469C90.656 34.4378 90.2581 34.8357 89.7672 34.8357H87.7992C87.3083 34.8357 86.9104 34.4378 86.9104 33.9469Z" fill="#1D1D1B"/>
<path fill-rule="evenodd" clip-rule="evenodd" d="M92.2432 33.9469C92.2432 33.456 92.6411 33.0581 93.1319 33.0581H95.0365C95.5273 33.0581 95.9253 33.456 95.9253 33.9469C95.9253 34.4378 95.5273 34.8357 95.0365 34.8357H93.1319C92.6411 34.8357 92.2432 34.4378 92.2432 33.9469Z" fill="#1D1D1B"/>
<path fill-rule="evenodd" clip-rule="evenodd" d="M70.9758 37.8827C70.9758 37.3918 71.3738 36.9939 71.8646 36.9939H73.8326C74.3235 36.9939 74.7214 37.3918 74.7214 37.8827C74.7214 38.3735 74.3235 38.7715 73.8326 38.7715H71.8646C71.3738 38.7715 70.9758 38.3735 70.9758 37.8827Z" fill="#1D1D1B"/>
<path fill-rule="evenodd" clip-rule="evenodd" d="M76.3085 37.8827C76.3085 37.3918 76.7064 36.9939 77.1973 36.9939H79.1018C79.5927 36.9939 79.9906 37.3918 79.9906 37.8827C79.9906 38.3735 79.5927 38.7715 79.1018 38.7715H77.1973C76.7064 38.7715 76.3085 38.3735 76.3085 37.8827Z" fill="#1D1D1B"/>
<path fill-rule="evenodd" clip-rule="evenodd" d="M81.6411 37.8827C81.6411 37.3918 82.039 36.9939 82.5299 36.9939H84.4344C84.9253 36.9939 85.3232 37.3918 85.3232 37.8827C85.3232 38.3735 84.9253 38.7715 84.4344 38.7715H82.5299C82.039 38.7715 81.6411 38.3735 81.6411 37.8827Z" fill="#1D1D1B"/>
<path fill-rule="evenodd" clip-rule="evenodd" d="M86.9104 37.8827C86.9104 37.3918 87.3083 36.9939 87.7992 36.9939H89.7672C90.2581 36.9939 90.656 37.3918 90.656 37.8827C90.656 38.3735 90.2581 38.7715 89.7672 38.7715H87.7992C87.3083 38.7715 86.9104 38.3735 86.9104 37.8827Z" fill="#1D1D1B"/>
<path fill-rule="evenodd" clip-rule="evenodd" d="M92.2432 37.8827C92.2432 37.3918 92.6411 36.9939 93.1319 36.9939H95.0365C95.5273 36.9939 95.9253 37.3918 95.9253 37.8827C95.9253 38.3735 95.5273 38.7715 95.0365 38.7715H93.1319C92.6411 38.7715 92.2432 38.3735 92.2432 37.8827Z" fill="#1D1D1B"/>
<path fill-rule="evenodd" clip-rule="evenodd" d="M70.9758 41.819C70.9758 41.3281 71.3738 40.9302 71.8646 40.9302H73.8326C74.3235 40.9302 74.7214 41.3281 74.7214 41.819C74.7214 42.3098 74.3235 42.7077 73.8326 42.7077H71.8646C71.3738 42.7077 70.9758 42.3098 70.9758 41.819Z" fill="#1D1D1B"/>
<path fill-rule="evenodd" clip-rule="evenodd" d="M76.3085 41.819C76.3085 41.3281 76.7064 40.9302 77.1973 40.9302H79.1018C79.5927 40.9302 79.9906 41.3281 79.9906 41.819C79.9906 42.3098 79.5927 42.7077 79.1018 42.7077H77.1973C76.7064 42.7077 76.3085 42.3098 76.3085 41.819Z" fill="#1D1D1B"/>
<path fill-rule="evenodd" clip-rule="evenodd" d="M81.6411 41.819C81.6411 41.3281 82.039 40.9302 82.5299 40.9302H84.4344C84.9253 40.9302 85.3232 41.3281 85.3232 41.819C85.3232 42.3098 84.9253 42.7077 84.4344 42.7077H82.5299C82.039 42.7077 81.6411 42.3098 81.6411 41.819Z" fill="#1D1D1B"/>
<path fill-rule="evenodd" clip-rule="evenodd" d="M86.9104 41.819C86.9104 41.3281 87.3083 40.9302 87.7992 40.9302H89.7672C90.2581 40.9302 90.656 41.3281 90.656 41.819C90.656 42.3098 90.2581 42.7077 89.7672 42.7077H87.7992C87.3083 42.7077 86.9104 42.3098 86.9104 41.819Z" fill="#1D1D1B"/>
<path fill-rule="evenodd" clip-rule="evenodd" d="M92.2432 41.819C92.2432 41.3281 92.6411 40.9302 93.1319 40.9302H95.0365C95.5273 40.9302 95.9253 41.3281 95.9253 41.819C95.9253 42.3098 95.5273 42.7077 95.0365 42.7077H93.1319C92.6411 42.7077 92.2432 42.3098 92.2432 41.819Z" fill="#1D1D1B"/>
<path fill-rule="evenodd" clip-rule="evenodd" d="M70.9758 45.6915C70.9758 45.2007 71.3738 44.8027 71.8646 44.8027H73.8326C74.3235 44.8027 74.7214 45.2007 74.7214 45.6915C74.7214 46.1824 74.3235 46.5803 73.8326 46.5803H71.8646C71.3738 46.5803 70.9758 46.1824 70.9758 45.6915Z" fill="#1D1D1B"/>
<path fill-rule="evenodd" clip-rule="evenodd" d="M76.3085 45.6915C76.3085 45.2007 76.7064 44.8027 77.1973 44.8027H79.1018C79.5927 44.8027 79.9906 45.2007 79.9906 45.6915C79.9906 46.1824 79.5927 46.5803 79.1018 46.5803H77.1973C76.7064 46.5803 76.3085 46.1824 76.3085 45.6915Z" fill="#1D1D1B"/>
<path fill-rule="evenodd" clip-rule="evenodd" d="M81.6411 45.6915C81.6411 45.2007 82.039 44.8027 82.5299 44.8027H84.4344C84.9253 44.8027 85.3232 45.2007 85.3232 45.6915C85.3232 46.1824 84.9253 46.5803 84.4344 46.5803H82.5299C82.039 46.5803 81.6411 46.1824 81.6411 45.6915Z" fill="#1D1D1B"/>
<path fill-rule="evenodd" clip-rule="evenodd" d="M86.9104 45.6915C86.9104 45.2007 87.3083 44.8027 87.7992 44.8027H89.7672C90.2581 44.8027 90.656 45.2007 90.656 45.6915C90.656 46.1824 90.2581 46.5803 89.7672 46.5803H87.7992C87.3083 46.5803 86.9104 46.1824 86.9104 45.6915Z" fill="#1D1D1B"/>
<path fill-rule="evenodd" clip-rule="evenodd" d="M92.2432 45.6915C92.2432 45.2007 92.6411 44.8027 93.1319 44.8027H95.0365C95.5273 44.8027 95.9253 45.2007 95.9253 45.6915C95.9253 46.1824 95.5273 46.5803 95.0365 46.5803H93.1319C92.6411 46.5803 92.2432 46.1824 92.2432 45.6915Z" fill="#1D1D1B"/>
<path fill-rule="evenodd" clip-rule="evenodd" d="M70.9758 49.6276C70.9758 49.1367 71.3738 48.7388 71.8646 48.7388H73.8326C74.3235 48.7388 74.7214 49.1367 74.7214 49.6276C74.7214 50.1184 74.3235 50.5163 73.8326 50.5163H71.8646C71.3738 50.5163 70.9758 50.1184 70.9758 49.6276Z" fill="#1D1D1B"/>
<path fill-rule="evenodd" clip-rule="evenodd" d="M76.3085 49.6276C76.3085 49.1367 76.7064 48.7388 77.1973 48.7388H79.1018C79.5927 48.7388 79.9906 49.1367 79.9906 49.6276C79.9906 50.1184 79.5927 50.5163 79.1018 50.5163H77.1973C76.7064 50.5163 76.3085 50.1184 76.3085 49.6276Z" fill="#1D1D1B"/>
<path fill-rule="evenodd" clip-rule="evenodd" d="M81.6411 49.6276C81.6411 49.1367 82.039 48.7388 82.5299 48.7388H84.4344C84.9253 48.7388 85.3232 49.1367 85.3232 49.6276C85.3232 50.1184 84.9253 50.5163 84.4344 50.5163H82.5299C82.039 50.5163 81.6411 50.1184 81.6411 49.6276Z" fill="#1D1D1B"/>
<path fill-rule="evenodd" clip-rule="evenodd" d="M86.9104 49.6276C86.9104 49.1367 87.3083 48.7388 87.7992 48.7388H89.7672C90.2581 48.7388 90.656 49.1367 90.656 49.6276C90.656 50.1184 90.2581 50.5163 89.7672 50.5163H87.7992C87.3083 50.5163 86.9104 50.1184 86.9104 49.6276Z" fill="#1D1D1B"/>
<path fill-rule="evenodd" clip-rule="evenodd" d="M92.2432 49.6276C92.2432 49.1367 92.6411 48.7388 93.1319 48.7388H95.0365C95.5273 48.7388 95.9253 49.1367 95.9253 49.6276C95.9253 50.1184 95.5273 50.5163 95.0365 50.5163H93.1319C92.6411 50.5163 92.2432 50.1184 92.2432 49.6276Z" fill="#1D1D1B"/>
<path fill-rule="evenodd" clip-rule="evenodd" d="M70.9758 53.5636C70.9758 53.0727 71.3738 52.6748 71.8646 52.6748H73.8326C74.3235 52.6748 74.7214 53.0727 74.7214 53.5636C74.7214 54.0545 74.3235 54.4524 73.8326 54.4524H71.8646C71.3738 54.4524 70.9758 54.0545 70.9758 53.5636Z" fill="#1D1D1B"/>
<path fill-rule="evenodd" clip-rule="evenodd" d="M76.3085 53.5636C76.3085 53.0727 76.7064 52.6748 77.1973 52.6748H79.1018C79.5927 52.6748 79.9906 53.0727 79.9906 53.5636C79.9906 54.0545 79.5927 54.4524 79.1018 54.4524H77.1973C76.7064 54.4524 76.3085 54.0545 76.3085 53.5636Z" fill="#1D1D1B"/>
<path fill-rule="evenodd" clip-rule="evenodd" d="M81.6411 53.5636C81.6411 53.0727 82.039 52.6748 82.5299 52.6748H84.4344C84.9253 52.6748 85.3232 53.0727 85.3232 53.5636C85.3232 54.0545 84.9253 54.4524 84.4344 54.4524H82.5299C82.039 54.4524 81.6411 54.0545 81.6411 53.5636Z" fill="#1D1D1B"/>
<path fill-rule="evenodd" clip-rule="evenodd" d="M86.9104 53.5636C86.9104 53.0727 87.3083 52.6748 87.7992 52.6748H89.7672C90.2581 52.6748 90.656 53.0727 90.656 53.5636C90.656 54.0545 90.2581 54.4524 89.7672 54.4524H87.7992C87.3083 54.4524 86.9104 54.0545 86.9104 53.5636Z" fill="#1D1D1B"/>
<path fill-rule="evenodd" clip-rule="evenodd" d="M92.2432 53.5636C92.2432 53.0727 92.6411 52.6748 93.1319 52.6748H95.0365C95.5273 52.6748 95.9253 53.0727 95.9253 53.5636C95.9253 54.0545 95.5273 54.4524 95.0365 54.4524H93.1319C92.6411 54.4524 92.2432 54.0545 92.2432 53.5636Z" fill="#1D1D1B"/>
<path fill-rule="evenodd" clip-rule="evenodd" d="M70.9758 57.4361C70.9758 56.9453 71.3738 56.5474 71.8646 56.5474H73.8326C74.3235 56.5474 74.7214 56.9453 74.7214 57.4361C74.7214 57.927 74.3235 58.3249 73.8326 58.3249H71.8646C71.3738 58.3249 70.9758 57.927 70.9758 57.4361Z" fill="#1D1D1B"/>
<path fill-rule="evenodd" clip-rule="evenodd" d="M76.3085 57.4361C76.3085 56.9453 76.7064 56.5474 77.1973 56.5474H79.1018C79.5927 56.5474 79.9906 56.9453 79.9906 57.4361C79.9906 57.927 79.5927 58.3249 79.1018 58.3249H77.1973C76.7064 58.3249 76.3085 57.927 76.3085 57.4361Z" fill="#1D1D1B"/>
<path fill-rule="evenodd" clip-rule="evenodd" d="M81.6411 57.4361C81.6411 56.9453 82.039 56.5474 82.5299 56.5474H84.4344C84.9253 56.5474 85.3232 56.9453 85.3232 57.4361C85.3232 57.927 84.9253 58.3249 84.4344 58.3249H82.5299C82.039 58.3249 81.6411 57.927 81.6411 57.4361Z" fill="#1D1D1B"/>
<path fill-rule="evenodd" clip-rule="evenodd" d="M86.9104 57.4361C86.9104 56.9453 87.3083 56.5474 87.7992 56.5474H89.7672C90.2581 56.5474 90.656 56.9453 90.656 57.4361C90.656 57.927 90.2581 58.3249 89.7672 58.3249H87.7992C87.3083 58.3249 86.9104 57.927 86.9104 57.4361Z" fill="#1D1D1B"/>
<path fill-rule="evenodd" clip-rule="evenodd" d="M92.2432 57.4361C92.2432 56.9453 92.6411 56.5474 93.1319 56.5474H95.0365C95.5273 56.5474 95.9253 56.9453 95.9253 57.4361C95.9253 57.927 95.5273 58.3249 95.0365 58.3249H93.1319C92.6411 58.3249 92.2432 57.927 92.2432 57.4361Z" fill="#1D1D1B"/>
<path fill-rule="evenodd" clip-rule="evenodd" d="M70.9758 61.3722C70.9758 60.8813 71.3738 60.4834 71.8646 60.4834H73.8326C74.3235 60.4834 74.7214 60.8813 74.7214 61.3722C74.7214 61.863 74.3235 62.261 73.8326 62.261H71.8646C71.3738 62.261 70.9758 61.863 70.9758 61.3722Z" fill="#1D1D1B"/>
<path fill-rule="evenodd" clip-rule="evenodd" d="M76.3085 61.3722C76.3085 60.8813 76.7064 60.4834 77.1973 60.4834H79.1018C79.5927 60.4834 79.9906 60.8813 79.9906 61.3722C79.9906 61.863 79.5927 62.261 79.1018 62.261H77.1973C76.7064 62.261 76.3085 61.863 76.3085 61.3722Z" fill="#1D1D1B"/>
<path fill-rule="evenodd" clip-rule="evenodd" d="M81.6411 61.3722C81.6411 60.8813 82.039 60.4834 82.5299 60.4834H84.4344C84.9253 60.4834 85.3232 60.8813 85.3232 61.3722C85.3232 61.863 84.9253 62.261 84.4344 62.261H82.5299C82.039 62.261 81.6411 61.863 81.6411 61.3722Z" fill="#1D1D1B"/>
<path fill-rule="evenodd" clip-rule="evenodd" d="M86.9104 61.3722C86.9104 60.8813 87.3083 60.4834 87.7992 60.4834H89.7672C90.2581 60.4834 90.656 60.8813 90.656 61.3722C90.656 61.863 90.2581 62.261 89.7672 62.261H87.7992C87.3083 62.261 86.9104 61.863 86.9104 61.3722Z" fill="#1D1D1B"/>
<path fill-rule="evenodd" clip-rule="evenodd" d="M92.2432 61.3722C92.2432 60.8813 92.6411 60.4834 93.1319 60.4834H95.0365C95.5273 60.4834 95.9253 60.8813 95.9253 61.3722C95.9253 61.863 95.5273 62.261 95.0365 62.261H93.1319C92.6411 62.261 92.2432 61.863 92.2432 61.3722Z" fill="#1D1D1B"/>
<path fill-rule="evenodd" clip-rule="evenodd" d="M70.9758 65.3082C70.9758 64.8174 71.3738 64.4194 71.8646 64.4194H73.8326C74.3235 64.4194 74.7214 64.8174 74.7214 65.3082C74.7214 65.7991 74.3235 66.197 73.8326 66.197H71.8646C71.3738 66.197 70.9758 65.7991 70.9758 65.3082Z" fill="#1D1D1B"/>
<path fill-rule="evenodd" clip-rule="evenodd" d="M76.3085 65.3082C76.3085 64.8174 76.7064 64.4194 77.1973 64.4194H79.1018C79.5927 64.4194 79.9906 64.8174 79.9906 65.3082C79.9906 65.7991 79.5927 66.197 79.1018 66.197H77.1973C76.7064 66.197 76.3085 65.7991 76.3085 65.3082Z" fill="#1D1D1B"/>
<path fill-rule="evenodd" clip-rule="evenodd" d="M81.6411 65.3082C81.6411 64.8174 82.039 64.4194 82.5299 64.4194H84.4344C84.9253 64.4194 85.3232 64.8174 85.3232 65.3082C85.3232 65.7991 84.9253 66.197 84.4344 66.197H82.5299C82.039 66.197 81.6411 65.7991 81.6411 65.3082Z" fill="#1D1D1B"/>
<path fill-rule="evenodd" clip-rule="evenodd" d="M86.9104 65.3082C86.9104 64.8174 87.3083 64.4194 87.7992 64.4194H89.7672C90.2581 64.4194 90.656 64.8174 90.656 65.3082C90.656 65.7991 90.2581 66.197 89.7672 66.197H87.7992C87.3083 66.197 86.9104 65.7991 86.9104 65.3082Z" fill="#1D1D1B"/>
<path fill-rule="evenodd" clip-rule="evenodd" d="M92.2432 65.3082C92.2432 64.8174 92.6411 64.4194 93.1319 64.4194H95.0365C95.5273 64.4194 95.9253 64.8174 95.9253 65.3082C95.9253 65.7991 95.5273 66.197 95.0365 66.197H93.1319C92.6411 66.197 92.2432 65.7991 92.2432 65.3082Z" fill="#1D1D1B"/>
<path fill-rule="evenodd" clip-rule="evenodd" d="M70.9758 69.1808C70.9758 68.6899 71.3738 68.292 71.8646 68.292H73.8326C74.3235 68.292 74.7214 68.6899 74.7214 69.1808C74.7214 69.6716 74.3235 70.0696 73.8326 70.0696H71.8646C71.3738 70.0696 70.9758 69.6716 70.9758 69.1808Z" fill="#1D1D1B"/>
<path fill-rule="evenodd" clip-rule="evenodd" d="M76.3085 69.1808C76.3085 68.6899 76.7064 68.292 77.1973 68.292H79.1018C79.5927 68.292 79.9906 68.6899 79.9906 69.1808C79.9906 69.6716 79.5927 70.0696 79.1018 70.0696H77.1973C76.7064 70.0696 76.3085 69.6716 76.3085 69.1808Z" fill="#1D1D1B"/>
<path fill-rule="evenodd" clip-rule="evenodd" d="M81.6411 69.1808C81.6411 68.6899 82.039 68.292 82.5299 68.292H84.4344C84.9253 68.292 85.3232 68.6899 85.3232 69.1808C85.3232 69.6716 84.9253 70.0696 84.4344 70.0696H82.5299C82.039 70.0696 81.6411 69.6716 81.6411 69.1808Z" fill="#1D1D1B"/>
<path fill-rule="evenodd" clip-rule="evenodd" d="M86.9104 69.1808C86.9104 68.6899 87.3083 68.292 87.7992 68.292H89.7672C90.2581 68.292 90.656 68.6899 90.656 69.1808C90.656 69.6716 90.2581 70.0696 89.7672 70.0696H87.7992C87.3083 70.0696 86.9104 69.6716 86.9104 69.1808Z" fill="#1D1D1B"/>
<path fill-rule="evenodd" clip-rule="evenodd" d="M92.2432 69.1808C92.2432 68.6899 92.6411 68.292 93.1319 68.292H95.0365C95.5273 68.292 95.9253 68.6899 95.9253 69.1808C95.9253 69.6716 95.5273 70.0696 95.0365 70.0696H93.1319C92.6411 70.0696 92.2432 69.6716 92.2432 69.1808Z" fill="#1D1D1B"/>
<path fill-rule="evenodd" clip-rule="evenodd" d="M70.9758 73.1171C70.9758 72.6262 71.3738 72.2283 71.8646 72.2283H73.8326C74.3235 72.2283 74.7214 72.6262 74.7214 73.1171C74.7214 73.6079 74.3235 74.0058 73.8326 74.0058H71.8646C71.3738 74.0058 70.9758 73.6079 70.9758 73.1171Z" fill="#1D1D1B"/>
<path fill-rule="evenodd" clip-rule="evenodd" d="M76.3085 73.1171C76.3085 72.6262 76.7064 72.2283 77.1973 72.2283H79.1018C79.5927 72.2283 79.9906 72.6262 79.9906 73.1171C79.9906 73.6079 79.5927 74.0058 79.1018 74.0058H77.1973C76.7064 74.0058 76.3085 73.6079 76.3085 73.1171Z" fill="#1D1D1B"/>
<path fill-rule="evenodd" clip-rule="evenodd" d="M81.6411 73.1171C81.6411 72.6262 82.039 72.2283 82.5299 72.2283H84.4344C84.9253 72.2283 85.3232 72.6262 85.3232 73.1171C85.3232 73.6079 84.9253 74.0058 84.4344 74.0058H82.5299C82.039 74.0058 81.6411 73.6079 81.6411 73.1171Z" fill="#1D1D1B"/>
<path fill-rule="evenodd" clip-rule="evenodd" d="M86.9104 73.1171C86.9104 72.6262 87.3083 72.2283 87.7992 72.2283H89.7672C90.2581 72.2283 90.656 72.6262 90.656 73.1171C90.656 73.6079 90.2581 74.0058 89.7672 74.0058H87.7992C87.3083 74.0058 86.9104 73.6079 86.9104 73.1171Z" fill="#1D1D1B"/>
<path fill-rule="evenodd" clip-rule="evenodd" d="M92.2432 73.1171C92.2432 72.6262 92.6411 72.2283 93.1319 72.2283H95.0365C95.5273 72.2283 95.9253 72.6262 95.9253 73.1171C95.9253 73.6079 95.5273 74.0058 95.0365 74.0058H93.1319C92.6411 74.0058 92.2432 73.6079 92.2432 73.1171Z" fill="#1D1D1B"/>
<path fill-rule="evenodd" clip-rule="evenodd" d="M70.9758 77.0528C70.9758 76.562 71.3738 76.1641 71.8646 76.1641H73.8326C74.3235 76.1641 74.7214 76.562 74.7214 77.0528C74.7214 77.5437 74.3235 77.9416 73.8326 77.9416H71.8646C71.3738 77.9416 70.9758 77.5437 70.9758 77.0528Z" fill="#1D1D1B"/>
<path fill-rule="evenodd" clip-rule="evenodd" d="M76.3085 77.0528C76.3085 76.562 76.7064 76.1641 77.1973 76.1641H79.1018C79.5927 76.1641 79.9906 76.562 79.9906 77.0528C79.9906 77.5437 79.5927 77.9416 79.1018 77.9416H77.1973C76.7064 77.9416 76.3085 77.5437 76.3085 77.0528Z" fill="#1D1D1B"/>
<path fill-rule="evenodd" clip-rule="evenodd" d="M81.6411 77.0528C81.6411 76.562 82.039 76.1641 82.5299 76.1641H84.4344C84.9253 76.1641 85.3232 76.562 85.3232 77.0528C85.3232 77.5437 84.9253 77.9416 84.4344 77.9416H82.5299C82.039 77.9416 81.6411 77.5437 81.6411 77.0528Z" fill="#1D1D1B"/>
<path fill-rule="evenodd" clip-rule="evenodd" d="M86.9104 77.0528C86.9104 76.562 87.3083 76.1641 87.7992 76.1641H89.7672C90.2581 76.1641 90.656 76.562 90.656 77.0528C90.656 77.5437 90.2581 77.9416 89.7672 77.9416H87.7992C87.3083 77.9416 86.9104 77.5437 86.9104 77.0528Z" fill="#1D1D1B"/>
<path fill-rule="evenodd" clip-rule="evenodd" d="M92.2432 77.0528C92.2432 76.562 92.6411 76.1641 93.1319 76.1641H95.0365C95.5273 76.1641 95.9253 76.562 95.9253 77.0528C95.9253 77.5437 95.5273 77.9416 95.0365 77.9416H93.1319C92.6411 77.9416 92.2432 77.5437 92.2432 77.0528Z" fill="#1D1D1B"/>
<path fill-rule="evenodd" clip-rule="evenodd" d="M70.9758 80.9254C70.9758 80.4345 71.3738 80.0366 71.8646 80.0366H73.8326C74.3235 80.0366 74.7214 80.4345 74.7214 80.9254C74.7214 81.4163 74.3235 81.8142 73.8326 81.8142H71.8646C71.3738 81.8142 70.9758 81.4163 70.9758 80.9254Z" fill="#1D1D1B"/>
<path fill-rule="evenodd" clip-rule="evenodd" d="M76.3085 80.9254C76.3085 80.4345 76.7064 80.0366 77.1973 80.0366H79.1018C79.5927 80.0366 79.9906 80.4345 79.9906 80.9254C79.9906 81.4163 79.5927 81.8142 79.1018 81.8142H77.1973C76.7064 81.8142 76.3085 81.4163 76.3085 80.9254Z" fill="#1D1D1B"/>
<path fill-rule="evenodd" clip-rule="evenodd" d="M81.6411 80.9254C81.6411 80.4345 82.039 80.0366 82.5299 80.0366H84.4344C84.9253 80.0366 85.3232 80.4345 85.3232 80.9254C85.3232 81.4163 84.9253 81.8142 84.4344 81.8142H82.5299C82.039 81.8142 81.6411 81.4163 81.6411 80.9254Z" fill="#1D1D1B"/>
<path fill-rule="evenodd" clip-rule="evenodd" d="M86.9104 80.9254C86.9104 80.4345 87.3083 80.0366 87.7992 80.0366H89.7672C90.2581 80.0366 90.656 80.4345 90.656 80.9254C90.656 81.4163 90.2581 81.8142 89.7672 81.8142H87.7992C87.3083 81.8142 86.9104 81.4163 86.9104 80.9254Z" fill="#1D1D1B"/>
<path fill-rule="evenodd" clip-rule="evenodd" d="M92.2432 80.9254C92.2432 80.4345 92.6411 80.0366 93.1319 80.0366H95.0365C95.5273 80.0366 95.9253 80.4345 95.9253 80.9254C95.9253 81.4163 95.5273 81.8142 95.0365 81.8142H93.1319C92.6411 81.8142 92.2432 81.4163 92.2432 80.9254Z" fill="#1D1D1B"/>
<path fill-rule="evenodd" clip-rule="evenodd" d="M70.9758 84.8614C70.9758 84.3706 71.3738 83.9727 71.8646 83.9727H73.8326C74.3235 83.9727 74.7214 84.3706 74.7214 84.8614C74.7214 85.3523 74.3235 85.7502 73.8326 85.7502H71.8646C71.3738 85.7502 70.9758 85.3523 70.9758 84.8614Z" fill="#1D1D1B"/>
<path fill-rule="evenodd" clip-rule="evenodd" d="M76.3085 84.8614C76.3085 84.3706 76.7064 83.9727 77.1973 83.9727H79.1018C79.5927 83.9727 79.9906 84.3706 79.9906 84.8614C79.9906 85.3523 79.5927 85.7502 79.1018 85.7502H77.1973C76.7064 85.7502 76.3085 85.3523 76.3085 84.8614Z" fill="#1D1D1B"/>
<path fill-rule="evenodd" clip-rule="evenodd" d="M81.6411 84.8614C81.6411 84.3706 82.039 83.9727 82.5299 83.9727H84.4344C84.9253 83.9727 85.3232 84.3706 85.3232 84.8614C85.3232 85.3523 84.9253 85.7502 84.4344 85.7502H82.5299C82.039 85.7502 81.6411 85.3523 81.6411 84.8614Z" fill="#1D1D1B"/>
<path fill-rule="evenodd" clip-rule="evenodd" d="M86.9104 84.8614C86.9104 84.3706 87.3083 83.9727 87.7992 83.9727H89.7672C90.2581 83.9727 90.656 84.3706 90.656 84.8614C90.656 85.3523 90.2581 85.7502 89.7672 85.7502H87.7992C87.3083 85.7502 86.9104 85.3523 86.9104 84.8614Z" fill="#1D1D1B"/>
<path fill-rule="evenodd" clip-rule="evenodd" d="M92.2432 84.8614C92.2432 84.3706 92.6411 83.9727 93.1319 83.9727H95.0365C95.5273 83.9727 95.9253 84.3706 95.9253 84.8614C95.9253 85.3523 95.5273 85.7502 95.0365 85.7502H93.1319C92.6411 85.7502 92.2432 85.3523 92.2432 84.8614Z" fill="#1D1D1B"/>
<path fill-rule="evenodd" clip-rule="evenodd" d="M70.9758 88.7977C70.9758 88.3069 71.3738 87.9089 71.8646 87.9089H73.8326C74.3235 87.9089 74.7214 88.3069 74.7214 88.7977C74.7214 89.2886 74.3235 89.6865 73.8326 89.6865H71.8646C71.3738 89.6865 70.9758 89.2886 70.9758 88.7977Z" fill="#1D1D1B"/>
<path fill-rule="evenodd" clip-rule="evenodd" d="M76.3085 88.7977C76.3085 88.3069 76.7064 87.9089 77.1973 87.9089H79.1018C79.5927 87.9089 79.9906 88.3069 79.9906 88.7977C79.9906 89.2886 79.5927 89.6865 79.1018 89.6865H77.1973C76.7064 89.6865 76.3085 89.2886 76.3085 88.7977Z" fill="#1D1D1B"/>
<path fill-rule="evenodd" clip-rule="evenodd" d="M81.6411 88.7977C81.6411 88.3069 82.039 87.9089 82.5299 87.9089H84.4344C84.9253 87.9089 85.3232 88.3069 85.3232 88.7977C85.3232 89.2886 84.9253 89.6865 84.4344 89.6865H82.5299C82.039 89.6865 81.6411 89.2886 81.6411 88.7977Z" fill="#1D1D1B"/>
<path fill-rule="evenodd" clip-rule="evenodd" d="M86.9104 88.7977C86.9104 88.3069 87.3083 87.9089 87.7992 87.9089H89.7672C90.2581 87.9089 90.656 88.3069 90.656 88.7977C90.656 89.2886 90.2581 89.6865 89.7672 89.6865H87.7992C87.3083 89.6865 86.9104 89.2886 86.9104 88.7977Z" fill="#1D1D1B"/>
<path fill-rule="evenodd" clip-rule="evenodd" d="M92.2432 88.7977C92.2432 88.3069 92.6411 87.9089 93.1319 87.9089H95.0365C95.5273 87.9089 95.9253 88.3069 95.9253 88.7977C95.9253 89.2886 95.5273 89.6865 95.0365 89.6865H93.1319C92.6411 89.6865 92.2432 89.2886 92.2432 88.7977Z" fill="#1D1D1B"/>
<path fill-rule="evenodd" clip-rule="evenodd" d="M70.9758 92.7335C70.9758 92.2426 71.3738 91.8447 71.8646 91.8447H73.8326C74.3235 91.8447 74.7214 92.2426 74.7214 92.7335C74.7214 93.2244 74.3235 93.6223 73.8326 93.6223H71.8646C71.3738 93.6223 70.9758 93.2244 70.9758 92.7335Z" fill="#1D1D1B"/>
<path fill-rule="evenodd" clip-rule="evenodd" d="M76.3085 92.7335C76.3085 92.2426 76.7064 91.8447 77.1973 91.8447H79.1018C79.5927 91.8447 79.9906 92.2426 79.9906 92.7335C79.9906 93.2244 79.5927 93.6223 79.1018 93.6223H77.1973C76.7064 93.6223 76.3085 93.2244 76.3085 92.7335Z" fill="#1D1D1B"/>
<path fill-rule="evenodd" clip-rule="evenodd" d="M70.9758 96.6063C70.9758 96.1155 71.3738 95.7175 71.8646 95.7175H73.8326C74.3235 95.7175 74.7214 96.1155 74.7214 96.6063C74.7214 97.0972 74.3235 97.4951 73.8326 97.4951H71.8646C71.3738 97.4951 70.9758 97.0972 70.9758 96.6063Z" fill="#1D1D1B"/>
<path fill-rule="evenodd" clip-rule="evenodd" d="M92.2432 92.7335C92.2432 92.2426 92.6411 91.8447 93.1319 91.8447H95.0365C95.5273 91.8447 95.9253 92.2426 95.9253 92.7335C95.9253 93.2244 95.5273 93.6223 95.0365 93.6223H93.1319C92.6411 93.6223 92.2432 93.2244 92.2432 92.7335Z" fill="#1D1D1B"/>
<path fill-rule="evenodd" clip-rule="evenodd" d="M76.3085 96.6063C76.3085 96.1155 76.7064 95.7175 77.1973 95.7175H79.1018C79.5927 95.7175 79.9906 96.1155 79.9906 96.6063C79.9906 97.0972 79.5927 97.4951 79.1018 97.4951H77.1973C76.7064 97.4951 76.3085 97.0972 76.3085 96.6063Z" fill="#1D1D1B"/>
<path fill-rule="evenodd" clip-rule="evenodd" d="M76.3085 100.542C76.3085 100.051 76.7064 99.6536 77.1973 99.6536H79.1018C79.5927 99.6536 79.9906 100.051 79.9906 100.542C79.9906 101.033 79.5927 101.431 79.1018 101.431H77.1973C76.7064 101.431 76.3085 101.033 76.3085 100.542Z" fill="#1D1D1B"/>
<path fill-rule="evenodd" clip-rule="evenodd" d="M76.3085 104.478C76.3085 103.988 76.7064 103.59 77.1973 103.59H79.1018C79.5927 103.59 79.9906 103.988 79.9906 104.478C79.9906 104.969 79.5927 105.367 79.1018 105.367H77.1973C76.7064 105.367 76.3085 104.969 76.3085 104.478Z" fill="#1D1D1B"/>
<path fill-rule="evenodd" clip-rule="evenodd" d="M76.3085 108.351C76.3085 107.86 76.7064 107.462 77.1973 107.462H79.1018C79.5927 107.462 79.9906 107.86 79.9906 108.351C79.9906 108.842 79.5927 109.24 79.1018 109.24H77.1973C76.7064 109.24 76.3085 108.842 76.3085 108.351Z" fill="#1D1D1B"/>
<path fill-rule="evenodd" clip-rule="evenodd" d="M78.1495 9.06079C78.6404 9.06079 79.0383 9.45871 79.0383 9.94958V13.8856C79.0383 14.3765 78.6404 14.7744 78.1495 14.7744C77.6587 14.7744 77.2607 14.3765 77.2607 13.8856V9.94958C77.2607 9.45871 77.6587 9.06079 78.1495 9.06079Z" fill="#1D1D1B"/>
<path fill-rule="evenodd" clip-rule="evenodd" d="M86.339 9.06079C86.8298 9.06079 87.2278 9.45871 87.2278 9.94958V13.8856C87.2278 14.3765 86.8298 14.7744 86.339 14.7744C85.8481 14.7744 85.4502 14.3765 85.4502 13.8856V9.94958C85.4502 9.45871 85.8481 9.06079 86.339 9.06079Z" fill="#1D1D1B"/>
<path fill-rule="evenodd" clip-rule="evenodd" d="M89.2594 9.06079C89.7503 9.06079 90.1482 9.45871 90.1482 9.94958V13.8856C90.1482 14.3765 89.7503 14.7744 89.2594 14.7744C88.7685 14.7744 88.3706 14.3765 88.3706 13.8856V9.94958C88.3706 9.45871 88.7685 9.06079 89.2594 9.06079Z" fill="#1D1D1B"/>
<path fill-rule="evenodd" clip-rule="evenodd" d="M84.889 103.829C85.054 103.674 85.2722 103.587 85.4991 103.587H120.035C120.238 103.587 120.435 103.656 120.593 103.784L123.425 106.069C123.43 106.073 123.435 106.078 123.44 106.082C123.897 106.467 124.145 107.094 123.907 107.764L123.905 107.771C123.793 108.075 123.589 108.336 123.321 108.517C123.058 108.695 122.746 108.786 122.429 108.779L83.7164 108.805L83.7138 108.805C83.3816 108.805 83.0572 108.704 82.7827 108.517C82.5088 108.33 82.297 108.066 82.1746 107.758C82.0562 107.461 82.0137 107.132 82.1002 106.795C82.1839 106.469 82.3668 106.22 82.5499 106.038C82.5557 106.032 82.5615 106.026 82.5674 106.021L84.889 103.829ZM85.8523 105.364L84.0905 107.028L121.751 107.002L119.721 105.364H85.8523ZM83.7891 107.314C83.7891 107.314 83.7892 107.314 83.7895 107.313L83.7891 107.314Z" fill="#1D1D1B"/>
<path fill-rule="evenodd" clip-rule="evenodd" d="M84.498 101.05C84.498 100.559 84.896 100.161 85.3868 100.161H119.161C119.651 100.161 120.049 100.559 120.049 101.05V104.478C120.049 104.969 119.651 105.367 119.161 105.367C118.67 105.367 118.272 104.969 118.272 104.478V101.939H86.2756V104.478C86.2756 104.969 85.8777 105.367 85.3868 105.367C84.896 105.367 84.498 104.969 84.498 104.478V101.05Z" fill="#1D1D1B"/>
<path fill-rule="evenodd" clip-rule="evenodd" d="M89.2594 100.606C89.7503 100.606 90.1482 101.004 90.1482 101.494V103.463C90.1482 103.953 89.7503 104.351 89.2594 104.351C88.7685 104.351 88.3706 103.953 88.3706 103.463V101.494C88.3706 101.004 88.7685 100.606 89.2594 100.606Z" fill="#1D1D1B"/>
<path fill-rule="evenodd" clip-rule="evenodd" d="M93.1319 100.606C93.6228 100.606 94.0207 101.004 94.0207 101.494V103.463C94.0207 103.953 93.6228 104.351 93.1319 104.351C92.6411 104.351 92.2432 103.953 92.2432 103.463V101.494C92.2432 101.004 92.6411 100.606 93.1319 100.606Z" fill="#1D1D1B"/>
<path fill-rule="evenodd" clip-rule="evenodd" d="M97.0045 100.606C97.4954 100.606 97.8933 101.004 97.8933 101.494V103.463C97.8933 103.953 97.4954 104.351 97.0045 104.351C96.5136 104.351 96.1157 103.953 96.1157 103.463V101.494C96.1157 101.004 96.5136 100.606 97.0045 100.606Z" fill="#1D1D1B"/>
<path fill-rule="evenodd" clip-rule="evenodd" d="M100.877 100.606C101.368 100.606 101.766 101.004 101.766 101.494V103.463C101.766 103.953 101.368 104.351 100.877 104.351C100.386 104.351 99.9883 103.953 99.9883 103.463V101.494C99.9883 101.004 100.386 100.606 100.877 100.606Z" fill="#1D1D1B"/>
<path fill-rule="evenodd" clip-rule="evenodd" d="M104.242 100.606C104.733 100.606 105.13 101.004 105.13 101.494V103.463C105.13 103.953 104.733 104.351 104.242 104.351C103.751 104.351 103.353 103.953 103.353 103.463V101.494C103.353 101.004 103.751 100.606 104.242 100.606Z" fill="#1D1D1B"/>
<path fill-rule="evenodd" clip-rule="evenodd" d="M108.114 100.606C108.605 100.606 109.003 101.004 109.003 101.494V103.463C109.003 103.953 108.605 104.351 108.114 104.351C107.623 104.351 107.225 103.953 107.225 103.463V101.494C107.225 101.004 107.623 100.606 108.114 100.606Z" fill="#1D1D1B"/>
<path fill-rule="evenodd" clip-rule="evenodd" d="M111.923 100.606C112.414 100.606 112.812 101.004 112.812 101.494V103.463C112.812 103.953 112.414 104.351 111.923 104.351C111.432 104.351 111.035 103.953 111.035 103.463V101.494C111.035 101.004 111.432 100.606 111.923 100.606Z" fill="#1D1D1B"/>
<path fill-rule="evenodd" clip-rule="evenodd" d="M115.796 100.606C116.287 100.606 116.685 101.004 116.685 101.494V103.463C116.685 103.953 116.287 104.351 115.796 104.351C115.305 104.351 114.907 103.953 114.907 103.463V101.494C114.907 101.004 115.305 100.606 115.796 100.606Z" fill="#1D1D1B"/>
<path fill-rule="evenodd" clip-rule="evenodd" d="M86.0506 94.5332C86.3167 94.1208 86.8668 94.0022 87.2793 94.2683L96.4204 100.167C96.8328 100.433 96.9514 100.984 96.6853 101.396C96.4191 101.808 95.869 101.927 95.4566 101.661L86.3154 95.7619C85.903 95.4957 85.7844 94.9456 86.0506 94.5332Z" fill="#1D1D1B"/>
<path fill-rule="evenodd" clip-rule="evenodd" d="M83.4823 107.018C83.9732 107.018 84.3711 107.416 84.3711 107.906V117.302H88.129L89.6443 115.994C89.8057 115.855 90.0118 115.778 90.225 115.778H117.128C117.276 115.778 117.422 115.816 117.552 115.886L120.158 117.302H121.192V107.906C121.192 107.416 121.59 107.018 122.081 107.018C122.572 107.018 122.97 107.416 122.97 107.906V118.191C122.97 118.682 122.572 119.08 122.081 119.08H119.933C119.784 119.08 119.639 119.043 119.508 118.972L116.902 117.556H90.5555L89.0402 118.864C88.8788 119.003 88.6727 119.08 88.4595 119.08H83.4823C82.9914 119.08 82.5935 118.682 82.5935 118.191V107.906C82.5935 107.416 82.9914 107.018 83.4823 107.018Z" fill="#1D1D1B"/>
<path fill-rule="evenodd" clip-rule="evenodd" d="M91.3646 117.773C91.1846 117.773 91.0087 117.827 90.8587 117.927C90.708 118.027 90.5902 118.17 90.5203 118.337C90.4504 118.504 90.4315 118.688 90.4659 118.866C90.5003 119.044 90.5866 119.207 90.7137 119.336C90.8409 119.465 91.0034 119.554 91.1807 119.591C91.3581 119.628 91.5423 119.611 91.7104 119.544C91.8785 119.476 92.0228 119.36 92.1253 119.211C92.2272 119.063 92.2832 118.887 92.2863 118.707C92.2867 118.586 92.2635 118.466 92.2179 118.354C92.1719 118.24 92.104 118.137 92.0181 118.05C91.9322 117.963 91.83 117.894 91.7174 117.846C91.6057 117.799 91.4858 117.774 91.3646 117.773ZM89.8736 116.447C90.3162 116.152 90.8359 115.995 91.3676 115.995L91.3738 115.995C91.7296 115.998 92.0813 116.07 92.409 116.209C92.7368 116.347 93.034 116.549 93.2838 116.802C93.5336 117.055 93.731 117.355 93.8649 117.685C93.9987 118.014 94.0663 118.367 94.0638 118.723L94.0637 118.729C94.0563 119.261 93.8918 119.778 93.5911 120.217C93.2903 120.655 92.8666 120.995 92.3734 121.193C91.8801 121.391 91.3392 121.439 90.8187 121.331C90.2982 121.223 89.8214 120.963 89.4481 120.584C89.0748 120.206 88.8217 119.726 88.7207 119.204C88.6197 118.682 88.6753 118.141 88.8804 117.651C89.0856 117.16 89.4311 116.742 89.8736 116.447Z" fill="#1D1D1B"/>
<path fill-rule="evenodd" clip-rule="evenodd" d="M97.1815 117.773C97.0014 117.773 96.8254 117.827 96.6754 117.926C96.5246 118.027 96.4068 118.17 96.3368 118.337C96.2669 118.504 96.2479 118.688 96.2823 118.866C96.3167 119.043 96.4029 119.207 96.53 119.336C96.6572 119.465 96.8197 119.554 96.997 119.591C97.1744 119.628 97.3587 119.611 97.5268 119.544C97.6948 119.476 97.8392 119.36 97.9417 119.211C98.0436 119.062 98.0996 118.887 98.1027 118.707C98.1032 118.586 98.08 118.466 98.0344 118.353C97.9885 118.24 97.9206 118.137 97.8348 118.05C97.749 117.963 97.6469 117.894 97.5342 117.846C97.4225 117.799 97.3027 117.774 97.1815 117.773ZM95.6907 116.447C96.1334 116.152 96.6532 115.995 97.1849 115.995L97.1909 115.995C97.5466 115.998 97.8984 116.07 98.2261 116.209C98.5537 116.347 98.851 116.549 99.1007 116.802C99.3504 117.055 99.5478 117.355 99.6816 117.685C99.8153 118.015 99.8828 118.368 99.8802 118.723L99.8802 118.729C99.8727 119.261 99.7082 119.778 99.4074 120.217C99.1066 120.655 98.6829 120.995 98.1896 121.193C97.6962 121.391 97.1553 121.439 96.6348 121.331C96.1143 121.223 95.6374 120.963 95.2642 120.584C94.8909 120.206 94.6379 119.725 94.537 119.203C94.4361 118.681 94.4918 118.141 94.6971 117.65C94.9024 117.16 95.2481 116.741 95.6907 116.447Z" fill="#1D1D1B"/>
<path fill-rule="evenodd" clip-rule="evenodd" d="M110.477 117.773C110.297 117.773 110.121 117.827 109.971 117.927C109.82 118.027 109.703 118.17 109.633 118.337C109.563 118.504 109.544 118.688 109.579 118.866C109.613 119.044 109.699 119.208 109.827 119.336C109.954 119.465 110.116 119.554 110.294 119.591C110.471 119.628 110.655 119.611 110.823 119.544C110.991 119.476 111.136 119.36 111.238 119.211C111.34 119.062 111.396 118.887 111.399 118.707C111.399 118.586 111.376 118.466 111.331 118.354C111.284 118.24 111.217 118.137 111.131 118.05C111.045 117.963 110.943 117.894 110.83 117.846C110.718 117.799 110.598 117.774 110.477 117.773ZM108.986 116.447C109.428 116.153 109.948 115.995 110.479 115.995L110.486 115.995C110.841 115.997 111.193 116.07 111.521 116.208C111.849 116.347 112.146 116.548 112.396 116.802C112.646 117.055 112.844 117.355 112.977 117.685C113.111 118.014 113.179 118.367 113.176 118.723L113.176 118.729C113.169 119.261 113.005 119.778 112.704 120.217C112.403 120.655 111.979 120.995 111.486 121.193C110.993 121.391 110.452 121.439 109.932 121.331C109.411 121.223 108.934 120.963 108.561 120.585C108.188 120.206 107.935 119.726 107.834 119.204C107.732 118.682 107.788 118.142 107.993 117.652C108.198 117.161 108.543 116.742 108.986 116.447Z" fill="#1D1D1B"/>
<path fill-rule="evenodd" clip-rule="evenodd" d="M116.294 117.773C116.114 117.773 115.938 117.827 115.788 117.927C115.637 118.027 115.519 118.17 115.45 118.337C115.38 118.504 115.361 118.688 115.395 118.866C115.43 119.044 115.516 119.207 115.643 119.336C115.77 119.465 115.933 119.554 116.11 119.591C116.287 119.628 116.472 119.611 116.64 119.544C116.808 119.476 116.952 119.36 117.054 119.211C117.156 119.062 117.212 118.887 117.216 118.707C117.216 118.586 117.193 118.466 117.147 118.354C117.101 118.24 117.033 118.137 116.947 118.05C116.861 117.963 116.759 117.894 116.647 117.846C116.535 117.799 116.415 117.774 116.294 117.773ZM118.104 118.717L118.993 118.723C118.996 118.367 118.928 118.014 118.794 117.685C118.66 117.355 118.463 117.055 118.213 116.802C117.963 116.549 117.666 116.347 117.338 116.209C117.011 116.07 116.659 115.998 116.303 115.995L116.297 115.995C115.765 115.995 115.245 116.152 114.803 116.447C114.36 116.742 114.015 117.161 113.81 117.651C113.604 118.141 113.549 118.682 113.65 119.204C113.751 119.725 114.004 120.206 114.377 120.584C114.751 120.963 115.227 121.223 115.748 121.331C116.268 121.439 116.809 121.391 117.303 121.193C117.796 120.995 118.219 120.655 118.52 120.217C118.821 119.778 118.985 119.261 118.993 118.729L118.104 118.717Z" fill="#1D1D1B"/>
<path fill-rule="evenodd" clip-rule="evenodd" d="M85.4502 110.319C85.4502 109.828 85.8481 109.43 86.339 109.43H89.2593C89.7501 109.43 90.1481 109.828 90.1481 110.319V113.747C90.1481 114.238 89.7501 114.636 89.2593 114.636H86.339C85.8481 114.636 85.4502 114.238 85.4502 113.747V110.319ZM87.2278 111.208V112.858H88.3705V111.208H87.2278Z" fill="#1D1D1B"/>
<path fill-rule="evenodd" clip-rule="evenodd" d="M91.7352 110.319C91.7352 109.828 92.1332 109.43 92.624 109.43H95.5443C96.0352 109.43 96.4331 109.828 96.4331 110.319V113.747C96.4331 114.238 96.0352 114.636 95.5443 114.636H92.624C92.1332 114.636 91.7352 114.238 91.7352 113.747V110.319ZM93.5128 111.208V112.858H94.6555V111.208H93.5128Z" fill="#1D1D1B"/>
<path fill-rule="evenodd" clip-rule="evenodd" d="M97.5123 110.319C97.5123 109.828 97.9103 109.43 98.4011 109.43H101.321C101.812 109.43 102.21 109.828 102.21 110.319V113.747C102.21 114.238 101.812 114.636 101.321 114.636H98.4011C97.9103 114.636 97.5123 114.238 97.5123 113.747V110.319ZM99.2899 111.208V112.858H100.433V111.208H99.2899Z" fill="#1D1D1B"/>
<path fill-rule="evenodd" clip-rule="evenodd" d="M103.353 110.319C103.353 109.828 103.751 109.43 104.242 109.43H107.098C107.589 109.43 107.987 109.828 107.987 110.319V113.747C107.987 114.238 107.589 114.636 107.098 114.636H104.242C103.751 114.636 103.353 114.238 103.353 113.747V110.319ZM105.13 111.208V112.858H106.21V111.208H105.13Z" fill="#1D1D1B"/>
<path fill-rule="evenodd" clip-rule="evenodd" d="M109.13 110.319C109.13 109.828 109.528 109.43 110.019 109.43H112.939C113.43 109.43 113.828 109.828 113.828 110.319V113.747C113.828 114.238 113.43 114.636 112.939 114.636H110.019C109.528 114.636 109.13 114.238 109.13 113.747V110.319ZM110.908 111.208V112.858H112.05V111.208H110.908Z" fill="#1D1D1B"/>
<path fill-rule="evenodd" clip-rule="evenodd" d="M114.907 110.319C114.907 109.828 115.305 109.43 115.796 109.43H118.716C119.207 109.43 119.605 109.828 119.605 110.319V113.747C119.605 114.238 119.207 114.636 118.716 114.636H115.796C115.305 114.636 114.907 114.238 114.907 113.747V110.319ZM116.685 111.208V112.858H117.827V111.208H116.685Z" fill="#1D1D1B"/>
</g>
<defs>
<clipPath id="clip0_87_42379">
<rect width="124" height="121.763" fill="white" transform="translate(0 0.236572)"/>
</clipPath>
</defs>
</svg>
