<svg preserveAspectRatio="xMidYMax meet" width="124" height="60" viewBox="0 0 124 60" fill="none" xmlns="http://www.w3.org/2000/svg">
<g clip-path="url(#clip0_87_42995)">
<path d="M123.792 59.4771H4.26917V60H123.792V59.4771Z" fill="black"/>
<path d="M8.53826 60H0V37.6992H8.53826V60ZM0.519359 59.4771H8.0189V38.2179H0.519359V59.4771Z" fill="black"/>
<path d="M7.67825 38.218H0.860107V35.6892H7.67825V38.218ZM1.37947 37.6992H7.15889V36.2163H1.37947V37.6992Z" fill="black"/>
<path d="M4.52876 33.196H4.0094V35.9507H4.52876V33.196Z" fill="black"/>
<path d="M1.87593 39.4143H1.35657V59.3934H1.87593V39.4143Z" fill="black"/>
<path d="M3.20137 39.4143H2.68201V59.3934H3.20137V39.4143Z" fill="black"/>
<path d="M4.52876 39.4143H4.0094V59.3934H4.52876V39.4143Z" fill="black"/>
<path d="M5.8542 39.4143H5.33484V59.3934H5.8542V39.4143Z" fill="black"/>
<path d="M7.18171 39.4143H6.66235V59.3934H7.18171V39.4143Z" fill="black"/>
<path d="M50.5689 49.979C49.7681 49.979 48.9853 49.7399 48.3195 49.292C47.6536 48.8441 47.1347 48.2074 46.8282 47.4625C46.5218 46.7176 46.4416 45.898 46.5978 45.1072C46.754 44.3164 47.1397 43.59 47.7059 43.0199C48.2722 42.4498 48.9936 42.0616 49.779 41.9043C50.5644 41.747 51.3786 41.8277 52.1184 42.1362C52.8582 42.4448 53.4906 42.9673 53.9355 43.6377C54.3804 44.3081 54.6179 45.0962 54.6179 45.9025C54.6168 46.9833 54.1898 48.0195 53.4307 48.7838C52.6717 49.5481 51.6424 49.9779 50.5689 49.979ZM50.5689 42.3488C49.8705 42.3488 49.1876 42.5574 48.6069 42.9481C48.0261 43.3388 47.5734 43.8941 47.3061 44.5438C47.0388 45.1936 46.9689 45.9085 47.1052 46.5983C47.2414 47.288 47.5778 47.9216 48.0717 48.4189C48.5656 48.9161 49.1949 49.2548 49.8799 49.392C50.565 49.5292 51.2751 49.4588 51.9204 49.1896C52.5658 48.9205 53.1173 48.4648 53.5054 47.88C53.8935 47.2953 54.1006 46.6078 54.1006 45.9046C54.1006 44.9615 53.7285 44.0571 53.0662 43.3903C52.4039 42.7235 51.5056 42.3488 50.5689 42.3488Z" fill="black"/>
<path d="M54.2501 44.6371H46.9147V45.16H54.2501V44.6371Z" fill="black"/>
<path d="M54.2501 46.5426H46.9147V47.0655H54.2501V46.5426Z" fill="black"/>
<path d="M50.569 26.233C49.9878 26.233 49.4197 26.0596 48.9365 25.7346C48.4532 25.4097 48.0764 24.9478 47.8538 24.4074C47.6311 23.867 47.5725 23.2722 47.6854 22.6983C47.7983 22.1243 48.0777 21.597 48.4882 21.1828C48.8987 20.7686 49.4219 20.4863 49.9917 20.3714C50.5615 20.2565 51.1523 20.3142 51.6896 20.5372C52.2268 20.7603 52.6863 21.1386 53.0101 21.6245C53.3338 22.1104 53.5073 22.682 53.5085 23.2671C53.5091 23.6562 53.4335 24.0416 53.286 24.4013C53.1385 24.761 52.9221 25.0879 52.6492 25.3633C52.3762 25.6387 52.0519 25.8573 51.695 26.0065C51.3381 26.1558 50.9554 26.2327 50.569 26.233ZM50.569 20.8387C50.0899 20.8387 49.6217 20.9818 49.2235 21.25C48.8253 21.5181 48.5151 21.8991 48.3322 22.3449C48.1493 22.7906 48.1018 23.281 48.1959 23.7539C48.2899 24.2268 48.5213 24.661 48.8606 25.0014C49.1999 25.3419 49.6319 25.5733 50.1019 25.6664C50.5719 25.7594 51.0588 25.71 51.5009 25.5243C51.943 25.3386 52.3204 25.0249 52.5853 24.6231C52.8503 24.2213 52.9908 23.7494 52.9892 23.2671C52.987 22.6223 52.731 22.0046 52.2774 21.5495C51.8237 21.0943 51.2094 20.8387 50.569 20.8387Z" fill="black"/>
<path d="M53.1616 22.3029H47.9742V22.8258H53.1616V22.3029Z" fill="black"/>
<path d="M53.1616 23.6478H47.9742V24.1707H53.1616V23.6478Z" fill="black"/>
<path d="M51.4602 15.4738H50.9408V20.5773H51.4602V15.4738Z" fill="black"/>
<path d="M50.1971 15.4738H49.6777V20.5773H50.1971V15.4738Z" fill="black"/>
<path d="M50.5689 16.0573C50.2446 16.0573 49.9277 15.9604 49.6581 15.779C49.3885 15.5976 49.1784 15.3397 49.0544 15.0381C48.9304 14.7364 48.898 14.4045 48.9615 14.0843C49.0249 13.7641 49.1812 13.47 49.4106 13.2393C49.6401 13.0086 49.9323 12.8516 50.2504 12.7882C50.5685 12.7247 50.8981 12.7577 51.1976 12.8829C51.4971 13.0082 51.7529 13.22 51.9328 13.4917C52.1126 13.7633 52.2084 14.0826 52.208 14.4091C52.2069 14.8462 52.0338 15.2651 51.7266 15.5741C51.4194 15.883 51.0031 16.0567 50.5689 16.0573ZM50.5689 13.2817C50.3474 13.2817 50.131 13.3478 49.9468 13.4717C49.7627 13.5956 49.6192 13.7717 49.5344 13.9777C49.4497 14.1837 49.4275 14.4103 49.4707 14.629C49.5139 14.8477 49.6205 15.0486 49.7771 15.2063C49.9337 15.3639 50.1333 15.4713 50.3505 15.5148C50.5677 15.5583 50.7928 15.536 50.9974 15.4507C51.202 15.3653 51.3769 15.2208 51.4999 15.0354C51.623 14.85 51.6886 14.6321 51.6886 14.4091C51.6886 14.1101 51.5707 13.8233 51.3607 13.6119C51.1507 13.4005 50.8659 13.2817 50.5689 13.2817Z" fill="black"/>
<path d="M50.8286 0H50.3092V13.0203H50.8286V0Z" fill="black"/>
<path d="M52.4906 42.3865H51.9712V25.5051H52.4906V42.3865ZM49.1667 42.3865H48.6473V25.5051H49.1667V42.3865ZM51.3646 42.0916H50.8453V40.4685H50.3031V42.0916H49.7837V39.9414H51.3646V42.0916ZM51.3646 39.4123H49.7837V37.1512H51.3646V39.4123ZM50.3031 38.8894H50.8453V37.6783H50.3031V38.8894ZM51.3646 36.62H49.7837V34.3631H51.3646V36.62ZM50.3031 36.0971H50.8453V34.886H50.3031V36.0971ZM51.3646 33.8318H49.7837V31.575H51.3646V33.8318ZM50.3031 33.3089H50.8453V32.0979H50.3031V33.3089ZM51.3646 31.0437H49.7837V28.7869H51.3646V31.0437ZM50.3031 30.5208H50.8453V29.3098H50.3031V30.5208ZM51.3646 28.2535H49.7837V25.9716H50.3031V27.7306H50.8453V25.9716H51.3646V28.2535Z" fill="black"/>
<path d="M51.0987 5.95483H49.9374V6.47774H51.0987V5.95483Z" fill="black"/>
<path d="M51.9483 18.3894H49.4741V18.9123H51.9483V18.3894Z" fill="black"/>
<path d="M51.9483 14.1456H49.1915V14.6685H51.9483V14.1456Z" fill="black"/>
<path d="M52.4885 55.8419H48.3627V49.1738H48.882V55.319H51.9691V49.1738H52.4885V55.8419Z" fill="black"/>
<path d="M50.6853 50.1025H50.1659V51.8804H50.6853V50.1025Z" fill="black"/>
<path d="M50.6853 52.8739H50.1659V54.6518H50.6853V52.8739Z" fill="black"/>
<path d="M53.0725 48.8313L52.6144 49.0776L56.2703 55.9683L56.7284 55.722L53.0725 48.8313Z" fill="black"/>
<path d="M47.7823 48.8358L44.1265 55.7264L44.5846 55.9728L48.2404 49.0821L47.7823 48.8358Z" fill="black"/>
<path d="M58.5006 60H42.5438V55.319H58.5006V60ZM43.0549 59.4771H57.9729V55.8419H43.0549V59.4771Z" fill="black"/>
<path d="M44.6108 55.5804H44.0914V59.7386H44.6108V55.5804Z" fill="black"/>
<path d="M46.3476 55.5804H45.8282V59.7386H46.3476V55.5804Z" fill="black"/>
<path d="M48.0822 55.5804H47.5629V59.7386H48.0822V55.5804Z" fill="black"/>
<path d="M49.8168 55.5804H49.2975V59.7386H49.8168V55.5804Z" fill="black"/>
<path d="M51.5537 55.5804H51.0343V59.7386H51.5537V55.5804Z" fill="black"/>
<path d="M53.2883 55.5804H52.7689V59.7386H53.2883V55.5804Z" fill="black"/>
<path d="M55.0229 55.5804H54.5035V59.7386H55.0229V55.5804Z" fill="black"/>
<path d="M56.7597 55.5804H56.2404V59.7386H56.7597V55.5804Z" fill="black"/>
<path d="M40.2815 60H30.5529V34.704L35.4182 38.0192L40.2815 34.704V60ZM31.0722 59.4771H39.7621V35.6891L35.4182 38.6488L31.0722 35.6891V59.4771Z" fill="black"/>
<path d="M35.414 40.546L30.719 37.2496L31.0161 36.8208L35.4182 39.9101L39.8763 36.8752L40.1672 37.3081L35.414 40.546Z" fill="black"/>
<path d="M23.2798 60H17.6188V42.8822L23.2798 38.2179V60ZM18.1381 59.4771H22.7604V39.3223L18.1381 43.1374V59.4771Z" fill="black"/>
<path d="M23.2797 35.8942H22.7604V39.3307H23.2797V35.8942Z" fill="black"/>
<path d="M29.431 60H23.77V41.757L29.431 46.4213V60ZM24.2894 59.4771H28.9117V46.6681L24.2894 42.8613V59.4771Z" fill="black"/>
<path d="M24.2894 39.4332H23.77V42.8698H24.2894V39.4332Z" fill="black"/>
<path d="M19.5072 43.2295H18.9878V47.5424H19.5072V43.2295Z" fill="black"/>
<path d="M20.7078 42.6019H20.1885V47.5423H20.7078V42.6019Z" fill="black"/>
<path d="M21.9107 41.9745H21.3914V47.5424H21.9107V41.9745Z" fill="black"/>
<path d="M19.5072 48.6886H18.9878V53.0015H19.5072V48.6886Z" fill="black"/>
<path d="M20.7078 48.6886H20.1885V53.0015H20.7078V48.6886Z" fill="black"/>
<path d="M21.9107 48.6886H21.3914V53.0015H21.9107V48.6886Z" fill="black"/>
<path d="M19.5072 54.1456H18.9878V58.4585H19.5072V54.1456Z" fill="black"/>
<path d="M20.7078 54.1456H20.1885V58.4585H20.7078V54.1456Z" fill="black"/>
<path d="M21.9107 54.1456H21.3914V58.4585H21.9107V54.1456Z" fill="black"/>
<path d="M25.6584 45.5491H25.139V50.1046H25.6584V45.5491Z" fill="black"/>
<path d="M26.8592 46.1765H26.3398V50.1046H26.8592V46.1765Z" fill="black"/>
<path d="M28.062 46.804H27.5426V50.1045H28.062V46.804Z" fill="black"/>
<path d="M25.6584 50.981H25.139V54.2815H25.6584V50.981Z" fill="black"/>
<path d="M26.8592 50.981H26.3398V54.2815H26.8592V50.981Z" fill="black"/>
<path d="M28.062 50.981H27.5426V54.2815H28.062V50.981Z" fill="black"/>
<path d="M25.6584 55.158H25.139V58.4585H25.6584V55.158Z" fill="black"/>
<path d="M26.8592 55.158H26.3398V58.4585H26.8592V55.158Z" fill="black"/>
<path d="M28.062 55.158H27.5426V58.4585H28.062V55.158Z" fill="black"/>
<path d="M16.2767 60H10.2189V45.9862H16.2767V60ZM10.7382 59.4771H15.7573V46.5091H10.7382V59.4771Z" fill="black"/>
<path d="M15.2048 46.507H11.2909V44.5576H15.2048V46.507ZM11.8103 45.9841H14.6854V45.0805H11.8103V45.9841Z" fill="black"/>
<path d="M15.8446 44.5555H10.651V45.0784H15.8446V44.5555Z" fill="black"/>
<path d="M15.1051 44.8107H14.594C14.594 44.5639 14.085 44.2209 13.2562 44.2209C12.4273 44.2209 11.9183 44.5639 11.9183 44.8107H11.3989C11.3989 44.1833 12.1967 43.698 13.2562 43.698C14.3156 43.698 15.1051 44.1833 15.1051 44.8107Z" fill="black"/>
<path d="M13.5075 40.3682H12.9882V43.9741H13.5075V40.3682Z" fill="black"/>
<path d="M14.943 47.7975H11.5505V48.3204H14.943V47.7975Z" fill="black"/>
<path d="M14.943 49.4186H11.5505V49.9415H14.943V49.4186Z" fill="black"/>
<path d="M14.943 51.0396H11.5505V51.5625H14.943V51.0396Z" fill="black"/>
<path d="M14.943 52.6605H11.5505V53.1834H14.943V52.6605Z" fill="black"/>
<path d="M14.943 54.2815H11.5505V54.8044H14.943V54.2815Z" fill="black"/>
<path d="M14.943 55.9026H11.5505V56.4255H14.943V55.9026Z" fill="black"/>
<path d="M14.943 57.5236H11.5505V58.0465H14.943V57.5236Z" fill="black"/>
<path d="M68.0194 60.0001H60.2062V39.3726H68.0194V60.0001ZM60.7255 59.4772H67.5001V39.885H60.7255V59.4772Z" fill="black"/>
<path d="M68.8151 39.0315H59.4043V37.4712H68.8151V39.0315ZM59.9174 38.5086H68.2957V37.9941H59.9237L59.9174 38.5086Z" fill="black"/>
<path d="M66.2183 37.7683H61.8058V35.8H66.2183V37.7683ZM62.3251 37.2454H65.6989V36.323H62.3251V37.2454Z" fill="black"/>
<path d="M66.0666 36.323H61.9595L59.3564 33.7252H68.6675L66.0666 36.323ZM62.1672 35.8001H65.8484L67.4003 34.2523H60.6174L62.1672 35.8001Z" fill="black"/>
<path d="M62.3231 41.5917H61.8037V58.1844H62.3231V41.5917Z" fill="black"/>
<path d="M64.2717 41.5917H63.7523V58.1844H64.2717V41.5917Z" fill="black"/>
<path d="M66.2182 41.5917H65.6989V58.1844H66.2182V41.5917Z" fill="black"/>
<path d="M81.3586 60H72.7102V23.1876H81.3586V60ZM73.2296 59.4771H80.8392V23.7105H73.2296V59.4771Z" fill="black"/>
<path d="M76.9877 40.6274L74.1375 24.7186H79.84L76.9877 40.6274ZM74.7586 25.2415L76.9877 37.6845L79.2189 25.2415H74.7586Z" fill="black"/>
<path d="M77.2474 39.1571H76.728V59.7386H77.2474V39.1571Z" fill="black"/>
<path d="M79.1649 28.4961H74.8022L74.1271 24.7312H79.8296L79.1649 28.4961ZM75.2551 27.969H78.739L79.2272 25.2499H74.7586L75.2551 27.969Z" fill="black"/>
<path d="M80.3843 33.7273H77.9142V34.2502H80.3843V33.7273Z" fill="black"/>
<path d="M76.0632 33.7273H73.7302V34.2502H76.0632V33.7273Z" fill="black"/>
<path d="M80.3863 36.0134H77.5049V36.5363H80.3863V36.0134Z" fill="black"/>
<path d="M76.4724 36.0134H73.7302V36.5363H76.4724V36.0134Z" fill="black"/>
<path d="M80.3863 38.2975H73.7302V38.8204H80.3863V38.2975Z" fill="black"/>
<path d="M80.3863 40.5836H73.7302V41.1065H80.3863V40.5836Z" fill="black"/>
<path d="M80.3863 42.8698H73.7302V43.3927H80.3863V42.8698Z" fill="black"/>
<path d="M80.3863 45.1537H73.7302V45.6766H80.3863V45.1537Z" fill="black"/>
<path d="M80.3863 47.4398H73.7302V47.9627H80.3863V47.4398Z" fill="black"/>
<path d="M80.3863 49.726H73.7302V50.2489H80.3863V49.726Z" fill="black"/>
<path d="M80.3863 52.01H73.7302V52.5329H80.3863V52.01Z" fill="black"/>
<path d="M80.3863 54.2961H73.7302V54.819H80.3863V54.2961Z" fill="black"/>
<path d="M80.3863 56.5802H73.7302V57.1031H80.3863V56.5802Z" fill="black"/>
<path d="M91.619 60H84.1112V38.7115H85.26V39.2345H84.6306V59.4771H91.0997V39.2345H87.5701V38.7115H91.619V60Z" fill="black"/>
<path d="M87.8298 60H85.0004V37.7118H87.8298V60ZM85.5197 59.4771H87.3042V38.2347H85.5135L85.5197 59.4771Z" fill="black"/>
<path d="M92.1903 39.8285H87.5701V40.3514H92.1903V39.8285Z" fill="black"/>
<path d="M92.1903 41.5457H87.5701V42.0686H92.1903V41.5457Z" fill="black"/>
<path d="M86.6748 37.9733H86.1554V59.7386H86.6748V37.9733Z" fill="black"/>
<path d="M100.105 60H92.5975V38.7115H93.7464V39.2345H93.1169V59.4771H99.586V39.2345H96.0565V38.7115H100.105V60Z" fill="black"/>
<path d="M96.316 60H93.4866V37.7118H96.316V60ZM94.0059 59.4771H95.7967V38.2347H94.0059V59.4771Z" fill="black"/>
<path d="M100.677 39.8285H96.0564V40.3514H100.677V39.8285Z" fill="black"/>
<path d="M100.677 41.5457H96.0564V42.0686H100.677V41.5457Z" fill="black"/>
<path d="M95.1611 37.9733H94.6417V59.7386H95.1611V37.9733Z" fill="black"/>
<path d="M33.7542 42.1251H32.1255V42.648H33.7542V42.1251Z" fill="black"/>
<path d="M36.2326 42.1251H34.6039V42.648H36.2326V42.1251Z" fill="black"/>
<path d="M38.7109 42.1251H37.0822V42.648H38.7109V42.1251Z" fill="black"/>
<path d="M33.7542 44.5555H32.1255V45.0784H33.7542V44.5555Z" fill="black"/>
<path d="M36.2326 44.5555H34.6039V45.0784H36.2326V44.5555Z" fill="black"/>
<path d="M38.7109 44.5555H37.0822V45.0784H38.7109V44.5555Z" fill="black"/>
<path d="M33.7542 46.988H32.1255V47.511H33.7542V46.988Z" fill="black"/>
<path d="M36.2326 46.988H34.6039V47.511H36.2326V46.988Z" fill="black"/>
<path d="M38.7109 46.988H37.0822V47.511H38.7109V46.988Z" fill="black"/>
<path d="M33.7542 49.4186H32.1255V49.9415H33.7542V49.4186Z" fill="black"/>
<path d="M36.2326 49.4186H34.6039V49.9415H36.2326V49.4186Z" fill="black"/>
<path d="M38.7109 49.4186H37.0822V49.9415H38.7109V49.4186Z" fill="black"/>
<path d="M33.7542 51.849H32.1255V52.3719H33.7542V51.849Z" fill="black"/>
<path d="M36.2326 51.849H34.6039V52.3719H36.2326V51.849Z" fill="black"/>
<path d="M38.7109 51.849H37.0822V52.3719H38.7109V51.849Z" fill="black"/>
<path d="M33.7542 54.2794H32.1255V54.8023H33.7542V54.2794Z" fill="black"/>
<path d="M36.2326 54.2794H34.6039V54.8023H36.2326V54.2794Z" fill="black"/>
<path d="M38.7109 54.2794H37.0822V54.8023H38.7109V54.2794Z" fill="black"/>
<path d="M33.7542 56.71H32.1255V57.2329H33.7542V56.71Z" fill="black"/>
<path d="M36.2326 56.71H34.6039V57.2329H36.2326V56.71Z" fill="black"/>
<path d="M38.7109 56.71H37.0822V57.2329H38.7109V56.71Z" fill="black"/>
<path d="M124 59.9979H123.481V52.3092H116.683V38.4773H111.492V51.0396H109.79V44.8191H109.14V44.2063H105.249V44.8191H104.599V49.4897H102.791V59.8013H102.272V49.0023H104.079V44.3297H104.73V43.7189H109.659V44.3297H110.31V50.5501H110.972V37.99H117.203V51.8218H124V59.9979Z" fill="black"/>
<path d="M0.519359 50.5836V59.9959V50.5836ZM0 59.473V51.1065V59.473Z" fill="black"/>
<path d="M46.6051 47.0655H43.4682V42.2359H40.0217V41.713H43.9875V46.5426H46.6051V47.0655Z" fill="black"/>
<path d="M57.8773 53.7628H57.358V39.885H53.8741V43.5746H53.3547V39.3621H57.8773V53.7628Z" fill="black"/>
<path d="M60.4201 45.915H57.6177V46.4379H60.4201V45.915Z" fill="black"/>
<path d="M72.9699 50.3661H70.1903V43.3927H68.036V42.8698H70.7097V49.8432H72.9699V50.3661Z" fill="black"/>
<path d="M84.3708 44.4969H81.0989V45.0199H84.3708V44.4969Z" fill="black"/>
<path d="M104.339 46.4318H99.8457V46.9547H104.339V46.4318Z" fill="black"/>
<path d="M30.8126 51.0396H29.1714V51.5625H30.8126V51.0396Z" fill="black"/>
<path d="M10.6489 49.4186H8.27649V49.9415H10.6489V49.4186Z" fill="black"/>
<path d="M17.8784 54.02H15.8446V54.5429H17.8784V54.02Z" fill="black"/>
</g>
<defs>
<clipPath id="clip0_87_42995">
<rect width="124" height="60" fill="white"/>
</clipPath>
</defs>
</svg>
