<svg preserveAspectRatio="xMidYMax meet" width="123" height="65" viewBox="0 0 123 65" fill="none" xmlns="http://www.w3.org/2000/svg">
<g clip-path="url(#clip0_87_42975)">
<path d="M30.0393 64.0804H31.8267V62.6626H30.0393V64.0804ZM30.2746 62.8979H31.5913V63.8451H30.2746V62.8979Z" fill="#1C1C1A"/>
<path d="M32.1205 64.0804H33.9048V62.6626H32.1205V64.0804ZM32.3543 62.8979H33.6694V63.8451H32.3543V62.8979Z" fill="#1C1C1A"/>
<path d="M34.2063 64.0804H35.9906V62.6626H34.2063V64.0804ZM34.4416 62.8979H35.7568V63.8451H34.4416V62.8979Z" fill="#1C1C1A"/>
<path d="M36.2905 64.0804H38.0764V62.6626H36.2905V64.0804ZM36.5259 62.8979H37.8426V63.8451H36.5259V62.8979Z" fill="#1C1C1A"/>
<path d="M38.3779 64.0804H40.1622V62.6626H38.3779V64.0804ZM38.6117 62.8979H39.9269V63.8451H38.6117V62.8979Z" fill="#1C1C1A"/>
<path d="M40.4636 64.0804H42.2479V62.6626H40.4636V64.0804ZM40.6974 62.8979H42.0126V63.8451H40.6974V62.8979Z" fill="#1C1C1A"/>
<path d="M42.5464 64.0804H44.3338V62.6626H42.5464V64.0804ZM42.7817 62.8979H44.1V63.8451H42.7817V62.8979Z" fill="#1C1C1A"/>
<path d="M44.6337 64.0804H46.4195V62.6626H44.6337V64.0804ZM44.8675 62.8979H46.1903V63.8451H44.8675V62.8979Z" fill="#1C1C1A"/>
<path d="M77.691 61.2002C77.1526 61.2002 77.1142 61.4693 77.1111 61.5077V64.4633H78.2693V61.5001C78.2663 61.4693 78.2309 61.2002 77.691 61.2002ZM78.034 64.2296H77.3449V61.5293C77.3541 61.5031 77.4372 61.4355 77.6941 61.4355C77.9509 61.4355 78.0294 61.5108 78.0371 61.5108L78.034 64.2296Z" fill="#1C1C1A"/>
<path d="M70.9383 43.9864C70.9383 43.8494 70.8839 43.718 70.7869 43.6211C70.69 43.5242 70.5586 43.4697 70.4215 43.4697C70.2844 43.4697 70.153 43.5242 70.056 43.6211C69.9591 43.718 69.9047 43.8494 69.9047 43.9864V45.2166H70.9383V43.9864ZM70.7045 44.9829H70.1385V43.9864C70.1385 43.9114 70.1683 43.8394 70.2214 43.7863C70.2744 43.7333 70.3464 43.7035 70.4215 43.7035C70.4966 43.7035 70.5685 43.7333 70.6216 43.7863C70.6747 43.8394 70.7045 43.9114 70.7045 43.9864V44.9829Z" fill="#1C1C1A"/>
<path d="M87.1479 41.3953H84.6667V42.5732H87.1479V41.3953ZM86.9125 42.3333H84.9005V41.6244H86.9125V42.3333Z" fill="#1C1C1A"/>
<path d="M116.753 61.2002C116.138 61.2002 116.069 61.4278 116.061 61.4954V64.4633H117.446V61.5077C117.439 61.4278 117.369 61.2002 116.753 61.2002ZM117.215 64.2296H116.292V61.5324C116.312 61.5108 116.406 61.4355 116.753 61.4355C117.101 61.4355 117.193 61.5108 117.215 61.5324V64.2296Z" fill="#1C1C1A"/>
<path d="M114.794 61.2002C114.179 61.2002 114.108 61.4293 114.103 61.497V64.4633H115.488V61.5077C115.472 61.4278 115.409 61.2002 114.794 61.2002ZM115.255 64.2296H114.332V61.5324C114.352 61.5108 114.446 61.4355 114.794 61.4355C115.141 61.4355 115.232 61.5108 115.255 61.5324V64.2296Z" fill="#1C1C1A"/>
<path d="M109.079 61.5077C109.079 61.4693 109.036 61.2002 108.5 61.2002C107.963 61.2002 107.924 61.4693 107.921 61.5001V64.4633H109.079V61.5077ZM108.846 64.2296H108.156V61.5108C108.156 61.5108 108.223 61.4355 108.5 61.4355C108.776 61.4355 108.838 61.5031 108.847 61.5293L108.846 64.2296Z" fill="#1C1C1A"/>
<path d="M116.286 43.9863C116.279 43.854 116.221 43.7294 116.125 43.6383C116.028 43.5471 115.901 43.4963 115.768 43.4963C115.636 43.4963 115.508 43.5471 115.412 43.6383C115.316 43.7294 115.258 43.854 115.251 43.9863V45.2166H116.286V43.9863ZM116.052 44.9828H115.486V43.9863C115.486 43.9113 115.516 43.8393 115.569 43.7863C115.622 43.7332 115.694 43.7034 115.769 43.7034C115.844 43.7034 115.916 43.7332 115.969 43.7863C116.022 43.8393 116.052 43.9113 116.052 43.9863V44.9828Z" fill="#1C1C1A"/>
<path d="M121.036 60.1468V46.5621L121.959 45.5641H121.036V44.4139V42.5809L121.01 42.5486C120.814 42.3607 120.561 42.2451 120.291 42.221C120.332 42.1797 120.356 42.125 120.359 42.0672C120.357 42.0243 120.342 41.983 120.317 41.9481C120.292 41.9132 120.257 41.8862 120.217 41.8704V41.6105H120.388L120.11 41.1492L119.833 41.6105H120.004V41.8689C119.963 41.8847 119.928 41.9119 119.903 41.947C119.878 41.9822 119.863 42.0239 119.861 42.0672C119.864 42.1254 119.888 42.1802 119.93 42.221C119.728 42.245 119.535 42.3178 119.368 42.4332C119.263 42.2192 119.141 42.0135 119.004 41.8181C118.953 41.7477 118.9 41.68 118.842 41.6151C118.842 41.6151 118.304 40.8709 118.215 40.1419H118.368V39.247H113.169V40.1419H113.323C113.236 40.8739 112.691 41.6167 112.685 41.6244V41.6351C112.478 41.8776 112.305 42.1471 112.171 42.4363C112.114 42.3961 112.052 42.3616 111.988 42.3333C111.87 42.279 111.744 42.2432 111.614 42.2272C111.656 42.1864 111.681 42.1315 111.684 42.0734C111.681 42.0305 111.667 41.9891 111.642 41.9542C111.617 41.9193 111.582 41.8924 111.542 41.8766V41.6167H111.713L111.434 41.1553L111.157 41.6167H111.328V41.875C111.288 41.8909 111.253 41.918 111.228 41.9532C111.202 41.9884 111.187 42.0301 111.185 42.0734C111.188 42.1315 111.213 42.1864 111.254 42.2272C110.984 42.2515 110.73 42.367 110.534 42.5547L110.508 42.587V44.42H103.708L104.477 43.6035H102.939V41.0969H103.334V40.3649H102.939V39.919H102.442C102.517 39.8725 102.579 39.8081 102.622 39.7315C102.666 39.655 102.69 39.5688 102.691 39.4807C102.688 39.3505 102.639 39.2257 102.551 39.1293C102.463 39.033 102.344 38.9715 102.214 38.9563V38.9056C102.344 38.8794 102.447 38.8133 102.447 38.7195C102.447 38.6257 102.344 38.558 102.214 38.5334V38.1813H102.397L102.133 37.743L101.871 38.1813H102.053V38.5411C101.925 38.5657 101.822 38.6334 101.822 38.7272C101.822 38.821 101.925 38.881 102.053 38.9133V38.9502C101.924 38.9654 101.804 39.0269 101.717 39.1233C101.63 39.2197 101.58 39.3445 101.578 39.4746C101.579 39.5624 101.603 39.6484 101.646 39.7249C101.689 39.8014 101.751 39.866 101.825 39.9128H98.7535C98.8278 39.866 98.8894 39.8014 98.9326 39.7249C98.9758 39.6484 98.9994 39.5624 99.0011 39.4746C98.9987 39.3445 98.9492 39.2197 98.8618 39.1233C98.7744 39.0269 98.655 38.9654 98.5258 38.9502V38.8994C98.655 38.8718 98.7565 38.8072 98.7565 38.7134C98.7565 38.6196 98.655 38.5519 98.5258 38.5273V38.1813H98.7073L98.4458 37.743L98.1813 38.1813H98.3643V38.5411C98.2351 38.5657 98.132 38.6334 98.132 38.7272C98.132 38.821 98.2351 38.881 98.3643 38.9133V38.9502C98.2772 38.9654 98.1954 39.0025 98.1266 39.0579C98.0577 39.1133 98.004 39.1852 97.9705 39.267V35.2595H98.292V34.3092H97.1461V29.6913H97.2906L98.1182 28.784H95.9647V23.5433H95.7201L95.6094 23.3264C95.7417 23.2895 95.8494 23.2173 95.8494 23.1081C95.8494 22.9989 95.7524 22.9358 95.6325 22.8959L95.4986 22.2546L95.3664 22.8959C95.2464 22.9358 95.151 23.0066 95.151 23.1081C95.151 23.2096 95.2571 23.2926 95.3894 23.3264L95.2802 23.5433H95.2587C95.2068 23.4387 95.1466 23.3384 95.0787 23.2434V21.6011H94.7019V20.6138H94.5388V18.7116H94.7434V17.9427C94.7265 17.8474 94.3742 16.1697 93.5128 15.3393C93.5345 15.3174 93.5476 15.2885 93.5498 15.2578C93.5498 15.217 93.5336 15.1779 93.5047 15.149C93.4759 15.1202 93.4367 15.104 93.3959 15.104H93.1883V13.0249C93.1883 13.0045 93.1802 12.985 93.1658 12.9705C93.1513 12.9561 93.1318 12.948 93.1114 12.948C93.091 12.948 93.0714 12.9561 93.057 12.9705C93.0426 12.985 93.0345 13.0045 93.0345 13.0249V15.1147H92.813C92.7722 15.1147 92.733 15.1309 92.7042 15.1598C92.6754 15.1886 92.6591 15.2277 92.6591 15.2685C92.6613 15.2992 92.6744 15.3281 92.6961 15.35C91.8285 16.1804 91.4747 17.8581 91.4655 17.9535V18.7224H91.6716V20.6246H91.5086V21.6118H91.1302V23.2542C91.0628 23.3492 91.0031 23.4494 90.9518 23.554H90.9302L90.8195 23.3372C90.9533 23.3034 91.0594 23.228 91.0594 23.1188C91.0594 23.0097 90.9625 22.9466 90.8441 22.9066L90.7118 22.2654L90.578 22.9066C90.458 22.9466 90.3611 23.0173 90.3611 23.1188C90.3611 23.2203 90.4672 23.3003 90.601 23.3372L90.4888 23.554H90.2427V28.7947H88.0892L88.9167 29.702H89.0613V34.3246H87.9154V35.2595H88.2368V39.2731C88.2029 39.1913 88.149 39.1194 88.0798 39.064C88.0107 39.0086 87.9288 38.9716 87.8415 38.9563V38.9056C87.9723 38.8794 88.0753 38.8133 88.0753 38.7195C88.0753 38.6257 87.9723 38.558 87.8415 38.5334V38.1813H88.0246L87.7615 37.743L87.5001 38.1813H87.68V38.5411C87.5523 38.5657 87.4508 38.6334 87.4508 38.7272C87.4508 38.821 87.5523 38.881 87.68 38.9133V38.9502C87.5508 38.9654 87.4314 39.0269 87.344 39.1233C87.2567 39.2197 87.2072 39.3445 87.2047 39.4746C87.2068 39.5625 87.2306 39.6486 87.2741 39.7251C87.3176 39.8016 87.3794 39.8661 87.4539 39.9128H84.3929C84.4677 39.8664 84.5297 39.8019 84.5733 39.7254C84.6168 39.6488 84.6404 39.5626 84.6421 39.4746C84.6396 39.3445 84.5901 39.2197 84.5028 39.1233C84.4154 39.0269 84.296 38.9654 84.1668 38.9502V38.8994C84.2945 38.8718 84.396 38.8072 84.396 38.7134C84.396 38.6196 84.2945 38.5519 84.1668 38.5273V38.1813H84.3375L84.0745 37.743L83.8053 38.1813H83.9884V38.5411C83.8591 38.5657 83.7546 38.6334 83.7546 38.7272C83.7546 38.821 83.8591 38.881 83.9884 38.9133V38.9502C83.8588 38.965 83.7391 39.0264 83.6514 39.1228C83.5637 39.2193 83.514 39.3442 83.5115 39.4746C83.5133 39.5624 83.5368 39.6484 83.58 39.7249C83.6233 39.8014 83.6848 39.866 83.7592 39.9128H83.2608V40.3526H82.867V41.0846H83.2608V43.5912H81.7226L82.4917 44.4077H75.6852V42.5809L75.6606 42.5486C75.4648 42.3609 75.2109 42.2454 74.9407 42.221C74.9818 42.1801 75.006 42.1252 75.0084 42.0672C75.0063 42.0239 74.9916 41.9821 74.9663 41.9469C74.9409 41.9117 74.9058 41.8846 74.8653 41.8689V41.6105H75.0376L74.7607 41.1492L74.4823 41.6105H74.6469V41.8704C74.607 41.8862 74.5724 41.9132 74.5473 41.9481C74.5222 41.983 74.5077 42.0243 74.5054 42.0672C74.5078 42.1252 74.532 42.1801 74.5731 42.221C74.4439 42.2375 74.3179 42.2733 74.1993 42.3271C74.1354 42.3561 74.0742 42.3906 74.0163 42.4302C73.8834 42.1407 73.711 41.8711 73.504 41.629L73.4964 41.6182C73.4964 41.6105 72.9457 40.8678 72.858 40.1358H73.0118V39.2408H67.8189V40.1358H67.9727C67.885 40.8647 67.3436 41.609 67.3436 41.609C67.2897 41.6659 67.239 41.7428 67.1898 41.812C67.0527 42.0077 66.9304 42.2133 66.8237 42.4271C66.775 42.3927 66.7235 42.3624 66.6699 42.3363C66.5422 42.2736 66.4049 42.2326 66.2638 42.2149C66.3044 42.1736 66.3285 42.1189 66.3315 42.0611C66.3293 42.0177 66.3147 41.9759 66.2893 41.9407C66.2639 41.9055 66.2289 41.8784 66.1884 41.8627V41.6044H66.3607L66.0838 41.143L65.8054 41.6044H65.9761V41.8643C65.936 41.88 65.9012 41.9069 65.8759 41.9418C65.8505 41.9767 65.8357 42.0181 65.8331 42.0611C65.8361 42.1192 65.8608 42.1741 65.9023 42.2149C65.6321 42.2392 65.3783 42.3547 65.1824 42.5424L65.1578 42.5747V44.4077V45.5626H64.2349L65.1578 46.5606V48.2737C63.6915 48.5234 62.2774 49.0167 60.9739 49.733L61.6938 44.7783L61.7107 44.6645L61.5954 44.6461C60.8626 44.5308 60.1221 44.4717 59.3804 44.4692C55.7472 44.4692 53.4752 45.9886 52.3508 47.0035C53.4799 42.5547 54.6843 38.9794 54.7104 38.9056L54.775 38.7149L54.5781 38.7518C41.362 41.2461 37.3581 50.7464 36.8597 52.0674C36.2521 51.5691 32.8419 49.0257 27.4767 48.7212V46.799H28.5412V45.6041H27.4767V32.1379H28.2627V31.0937H27.4767V21.8302H28.5412V20.6384H27.4767V20.234H29.744L31.0423 14.0183L31.0715 13.8768H29.5333V9.13897H27.4844L26.8092 1.37169C26.961 1.33682 27.0967 1.25187 27.1943 1.13052C27.292 1.00918 27.3459 0.858501 27.3475 0.702761C27.3475 0.516377 27.2735 0.337627 27.1416 0.205834C27.0098 0.074041 26.831 0 26.6446 0C26.4581 0 26.2793 0.074041 26.1475 0.205834C26.0157 0.337627 25.9416 0.516377 25.9416 0.702761C25.9432 0.858501 25.9971 1.00918 26.0948 1.13052C26.1925 1.25187 26.3281 1.33682 26.48 1.37169L25.8001 9.13897H23.7543V13.8845H22.2161L23.5236 20.1463L23.5436 20.2417H25.8109V20.6461H24.7464V21.8379H25.8109V31.1014H25.0248V32.1455H25.8109V45.6133H24.7464V46.8082H25.8109V48.715C24.3052 48.7617 22.8092 48.9741 21.3501 49.3486L21.1963 49.3886L24.5019 54.8292L20.5026 55.9318C18.2908 54.3602 15.6404 53.5247 12.927 53.5436C11.4267 53.5317 9.93529 53.7756 8.51697 54.2648L8.33085 54.3386L13.0593 58.1139L9.17685 60.479H11.8887V61.2801H11.9764V61.9075H7.91707L5.08372 63.2469H4.1885L0 65H123L121.036 60.1468ZM119.418 42.6685C119.615 42.5136 119.859 42.4294 120.11 42.4294C120.361 42.4294 120.604 42.5136 120.802 42.6685V44.4139H120.567V43.3374C120.55 43.2285 120.495 43.1293 120.411 43.0575C120.327 42.9858 120.221 42.9464 120.11 42.9464C120 42.9464 119.894 42.9858 119.81 43.0575C119.726 43.1293 119.671 43.2285 119.654 43.3374V44.4139H119.419L119.418 42.6685ZM120.33 43.3359V44.4123H119.887V43.3359C119.888 43.2787 119.912 43.2244 119.954 43.1849C119.995 43.1454 120.051 43.124 120.108 43.1252C120.137 43.124 120.165 43.1285 120.192 43.1385C120.219 43.1485 120.243 43.1638 120.264 43.1834C120.285 43.2031 120.302 43.2267 120.313 43.2529C120.325 43.2791 120.331 43.3073 120.331 43.3359H120.33ZM120.802 44.6492V45.5626H118.227V44.6476L120.802 44.6492ZM118.665 41.7612C118.739 41.84 118.806 41.9243 118.867 42.0134C118.985 42.1951 119.091 42.3847 119.184 42.5809V44.4139H118.227V44.4016H117.882V44.2755H118.004C118.02 44.2761 118.035 44.2736 118.05 44.2681C118.065 44.2626 118.078 44.2543 118.09 44.2435C118.101 44.2328 118.11 44.2199 118.117 44.2056C118.123 44.1913 118.127 44.1758 118.127 44.1601C118.127 44.1444 118.123 44.1289 118.117 44.1145C118.11 44.1001 118.101 44.0871 118.09 44.0762C118.078 44.0654 118.065 44.0569 118.05 44.0512C118.035 44.0456 118.02 44.0429 118.004 44.0433H117.882V43.8895H117.929L117.749 43.6804L117.562 43.8833H117.61V44.0371H117.489C117.473 44.0365 117.457 44.0391 117.442 44.0446C117.427 44.0502 117.413 44.0586 117.402 44.0695C117.39 44.0804 117.381 44.0934 117.374 44.1079C117.368 44.1225 117.364 44.1381 117.364 44.154C117.365 44.1697 117.368 44.1852 117.375 44.1996C117.382 44.2139 117.391 44.2268 117.402 44.2375C117.414 44.2482 117.428 44.2565 117.442 44.262C117.457 44.2674 117.473 44.2699 117.489 44.2693H117.61V44.3954H117.336L117.246 44.3724V40.1358H117.959C118.05 40.937 118.639 41.7259 118.665 41.7612ZM115.897 42.9622C115.929 42.9299 115.974 42.9069 115.974 42.8546C115.972 42.8181 115.959 42.7829 115.938 42.7532C115.917 42.7234 115.888 42.7005 115.854 42.687V42.464H116.007L115.77 42.0718L115.537 42.464H115.681V42.687C115.647 42.7001 115.617 42.7229 115.596 42.7527C115.574 42.7824 115.562 42.8179 115.56 42.8546C115.56 42.9069 115.604 42.9299 115.638 42.9622C115.435 42.9879 115.248 43.0854 115.11 43.2372C114.973 43.389 114.894 43.5849 114.889 43.7895V43.8941C114.889 44.0879 114.706 44.217 114.526 44.2955V40.1358H117.018V44.2955C116.838 44.217 116.652 44.0879 116.652 43.8941V43.7895C116.647 43.5848 116.568 43.3887 116.431 43.2369C116.293 43.085 116.106 42.9876 115.903 42.9622H115.897ZM114.851 44.3462C114.929 44.2963 114.993 44.2283 115.039 44.148C115.086 44.0676 115.112 43.9774 115.115 43.8849V43.7803C115.123 43.6143 115.195 43.4577 115.315 43.3431C115.436 43.2284 115.596 43.1645 115.762 43.1645C115.928 43.1645 116.088 43.2284 116.209 43.3431C116.329 43.4577 116.401 43.6143 116.409 43.7803V43.8849C116.412 43.9973 116.453 44.1054 116.524 44.1924C116.752 44.5215 117.293 44.6276 117.315 44.6322L117.29 44.6461H117.987V45.5626H113.548V44.6476H114.095L114.12 44.6353H114.2C114.436 44.5856 114.659 44.4888 114.857 44.3508L114.851 44.3462ZM113.409 39.4746H118.141V39.9005H113.409V39.4746ZM112.842 41.8058C112.85 41.7935 112.859 41.7816 112.869 41.7704C112.905 41.7274 113.495 40.937 113.582 40.1358H114.294V44.3785C114.258 44.3896 114.222 44.3983 114.185 44.4046H113.929V44.277H114.054C114.069 44.2774 114.085 44.2748 114.099 44.2692C114.114 44.2636 114.127 44.2552 114.139 44.2445C114.15 44.2338 114.159 44.221 114.165 44.2068C114.172 44.1926 114.175 44.1772 114.175 44.1617C114.175 44.1301 114.161 44.1002 114.139 44.0783C114.116 44.0564 114.085 44.0444 114.054 44.0448H113.929V43.891H113.977L113.795 43.6819L113.614 43.891H113.663V44.0448H113.539C113.523 44.0444 113.507 44.0471 113.493 44.0528C113.478 44.0585 113.465 44.067 113.454 44.0779C113.443 44.0888 113.434 44.1018 113.428 44.1162C113.422 44.1306 113.419 44.1461 113.419 44.1617C113.419 44.1772 113.422 44.1924 113.428 44.2066C113.434 44.2209 113.443 44.2337 113.454 44.2444C113.466 44.2552 113.479 44.2636 113.493 44.2692C113.508 44.2748 113.523 44.2774 113.539 44.277H113.663V44.4031H113.317V44.4154H112.36V42.5809C112.485 42.3031 112.645 42.0426 112.837 41.8058H112.842ZM110.744 42.6685C110.941 42.5134 111.185 42.429 111.436 42.429C111.687 42.429 111.931 42.5134 112.128 42.6685V44.4139H111.887V43.3374C111.871 43.2275 111.816 43.1269 111.732 43.0541C111.648 42.9813 111.541 42.9412 111.43 42.9412C111.319 42.9412 111.211 42.9813 111.127 43.0541C111.043 43.1269 110.989 43.2275 110.973 43.3374V44.4139H110.739L110.744 42.6685ZM111.656 43.3359V44.4123H111.213V43.3359C111.214 43.2787 111.239 43.2244 111.28 43.1849C111.322 43.1454 111.377 43.124 111.434 43.1252C111.462 43.1248 111.49 43.1299 111.516 43.1403C111.542 43.1507 111.566 43.1661 111.586 43.1856C111.607 43.2052 111.623 43.2285 111.634 43.2543C111.645 43.2801 111.651 43.3078 111.651 43.3359H111.656ZM110.744 44.6492H113.317V45.5626H110.739L110.744 44.6492ZM121.431 45.7994L120.793 46.4853H103.208V45.8317H103.245V45.7994H121.431ZM112.906 55.1121V59.0519H110.739V55.1121H112.906ZM110.739 54.8784V53.905H112.585V54.8784H110.739ZM112.823 54.8784V53.905H118.713V54.8784H112.823ZM118.395 55.1121V59.0519H117.795V55.1121H118.395ZM115.769 55.3413C115.647 55.3388 115.526 55.3605 115.413 55.405C115.3 55.4495 115.196 55.516 115.109 55.6006C115.021 55.6852 114.951 55.7863 114.903 55.898C114.855 56.0098 114.829 56.1299 114.828 56.2516V59.0519H113.975V55.1121H117.562V59.0519H116.715V56.2516C116.713 56.1295 116.688 56.009 116.639 55.8969C116.59 55.7849 116.52 55.6836 116.432 55.5989C116.344 55.5142 116.24 55.4479 116.126 55.4036C116.013 55.3594 115.891 55.3382 115.769 55.3413ZM116.477 56.2516V59.0519H115.063V56.2516C115.071 56.0699 115.15 55.8985 115.281 55.7729C115.413 55.6473 115.588 55.5772 115.77 55.5772C115.952 55.5772 116.127 55.6473 116.258 55.7729C116.39 55.8985 116.468 56.0699 116.477 56.2516ZM113.742 55.1121V59.0519H113.14V55.1121H113.742ZM120.802 59.2872V60.0561H110.739V59.2872H120.802ZM118.63 59.0519V55.1121H120.802V59.0519H118.63ZM118.947 54.8784V53.905H120.793V54.8784H118.947ZM110.738 53.6697V52.6563H120.8V53.6697H110.738ZM112.905 47.9461V52.4226H110.739V46.719H112.585V47.9492L112.905 47.9461ZM112.822 47.7109V46.719H118.712V47.7155L112.822 47.7109ZM118.393 47.9461V52.4226H117.793V47.9461H118.393ZM115.767 48.715C115.645 48.7126 115.524 48.7343 115.411 48.779C115.297 48.8237 115.194 48.8905 115.106 48.9754C115.019 49.0604 114.949 49.1618 114.901 49.2739C114.853 49.386 114.827 49.5065 114.826 49.6285V52.4272H113.974V47.9461H117.562V52.4226H116.715V49.6238C116.714 49.5015 116.688 49.3806 116.64 49.2682C116.592 49.1558 116.521 49.0541 116.433 48.9691C116.345 48.8841 116.241 48.8175 116.127 48.7731C116.013 48.7286 115.891 48.7073 115.769 48.7104L115.767 48.715ZM116.475 49.6285V52.4272H115.061V49.6285C115.07 49.4468 115.148 49.2753 115.28 49.1497C115.411 49.0241 115.586 48.9541 115.768 48.9541C115.95 48.9541 116.125 49.0241 116.257 49.1497C116.388 49.2753 116.466 49.4468 116.475 49.6285ZM113.742 47.9461V52.4226H113.14V47.9461H113.742ZM118.63 52.4226V47.9461H118.947V46.7159H120.793V52.4195L118.63 52.4226ZM110.504 44.6492V45.5626H103.245V44.6476L110.504 44.6492ZM103.933 43.8326L103.533 44.2586H99.9825L100.195 43.8326H103.933ZM105.565 51.6998H80.629L80.3213 51.2508H105.872L105.565 51.6998ZM105.872 51.6568V52.4257H105.657V51.9382H105.683L105.872 51.6568ZM98.4889 59.1918L98.3551 58.8597H105.534L105.422 59.1918H98.4889ZM105.411 59.4364V60.0515H98.535V59.4364H105.411ZM98.2905 59.3318V60.0453H97.1968V58.6167H96.417V53.2807H98.6027V58.6336H98.0182L98.2905 59.3318ZM91.061 58.6167V53.2807H95.1141V58.6229H94.3358V60.0515H91.8516V58.6229L91.061 58.6167ZM87.58 58.6259V53.2745H89.7658V58.6167H88.9844V60.0453H87.8815V59.3318L88.163 58.6259H87.58ZM80.7597 59.1918L80.6489 58.8597H87.82L87.6846 59.1918H80.7597ZM87.6462 59.4364V60.0515H80.7674V59.4364H87.6462ZM80.7597 53.0408V51.929H105.422V53.0408H80.7597ZM105.414 53.2745V58.6336H105.238V53.2822L105.414 53.2745ZM105.005 53.2745V58.6336H103.996V53.2822L105.005 53.2745ZM102.188 53.2745H103.76V58.6336H103.116V54.3817C103.111 54.1209 103.017 53.8696 102.85 53.6694C102.682 53.4692 102.452 53.3321 102.196 53.2807L102.188 53.2745ZM100.958 54.3755C100.972 54.1308 101.079 53.9007 101.257 53.7324C101.435 53.5641 101.671 53.4703 101.916 53.4703C102.161 53.4703 102.397 53.5641 102.575 53.7324C102.753 53.9007 102.86 54.1308 102.874 54.3755V58.6167H100.973L100.958 54.3755ZM100.724 54.3755V58.6336H100.066V53.2822H101.65C101.396 53.3354 101.168 53.4731 101.002 53.6728C100.837 53.8726 100.744 54.1225 100.739 54.3817L100.724 54.3755ZM99.8302 53.2745V58.6336H98.8211V53.2822L99.8302 53.2745ZM96.1662 53.2745V58.6167H95.3418V53.2807L96.1662 53.2745ZM90.8179 53.2745V58.6167H89.9919V53.2807L90.8179 53.2745ZM87.337 53.2745V58.6336H86.3295V53.2822L87.337 53.2745ZM84.5098 53.2745H86.0941V58.6336H85.4358V54.3817C85.4309 54.1223 85.3382 53.8721 85.1729 53.6722C85.0075 53.4722 84.7792 53.3342 84.5252 53.2807L84.5098 53.2745ZM83.2793 54.3755C83.2892 54.1283 83.3944 53.8945 83.5729 53.7231C83.7514 53.5516 83.9893 53.4559 84.2368 53.4559C84.4843 53.4559 84.7222 53.5516 84.9007 53.7231C85.0792 53.8945 85.1844 54.1283 85.1943 54.3755V58.6167H83.3008L83.2793 54.3755ZM83.0454 54.3755V58.6336H82.3994V53.2822H83.973C83.72 53.3363 83.4928 53.4744 83.3283 53.6741C83.1638 53.8737 83.0717 54.1231 83.067 54.3817L83.0454 54.3755ZM82.1841 53.2807V58.6336H81.175V53.2822L82.1841 53.2807ZM80.9397 53.2807V58.6336H80.7643V53.2822L80.9397 53.2807ZM89.2244 58.8566H91.6132V60.0392H89.2274L89.2244 58.8566ZM94.5696 58.8566H96.9599V60.0392H94.5727L94.5696 58.8566ZM80.4921 59.2872L80.5151 59.341V60.0515H75.6852V59.2826L80.4921 59.2872ZM77.3418 59.0519V56.8437H78.0309V59.0519H77.3418ZM78.6616 59.0519V56.2516C78.6616 56.064 78.7362 55.8841 78.8688 55.7514C79.0015 55.6188 79.1815 55.5443 79.3692 55.5443C79.5568 55.5443 79.7368 55.6188 79.8695 55.7514C80.0022 55.8841 80.0767 56.064 80.0767 56.2516V59.0519H78.6616ZM80.3105 59.0519V58.8305L80.3998 59.0519H80.3105ZM80.3105 58.6321V56.2516C80.3105 56.002 80.2114 55.7627 80.0348 55.5862C79.8583 55.4097 79.6188 55.3105 79.3692 55.3105C79.1195 55.3105 78.8801 55.4097 78.7035 55.5862C78.527 55.7627 78.4278 56.002 78.4278 56.2516V59.0519H78.2663V56.6084H77.108V59.0519H75.6821V55.1121H80.5305V58.6336L80.3105 58.6321ZM75.6821 54.8784V53.905H80.5305V54.8784H75.6821ZM75.6821 53.6697V52.6563H80.5305V53.6697H75.6821ZM79.3738 48.7104C79.2519 48.7082 79.1309 48.7301 79.0175 48.7749C78.9042 48.8196 78.8009 48.8864 78.7135 48.9714C78.6261 49.0563 78.5564 49.1577 78.5084 49.2696C78.4605 49.3816 78.4352 49.502 78.434 49.6238V52.4226H78.2724V49.9775H77.108V52.4226H75.6821V46.719H82.9793V49.7945H80.5336V51.0247H80.3136V49.6408C80.3147 49.5172 80.2909 49.3948 80.2438 49.2806C80.1966 49.1665 80.127 49.0629 80.039 48.9762C79.9511 48.8894 79.8466 48.8212 79.7318 48.7755C79.617 48.7299 79.4942 48.7077 79.3707 48.7104H79.3738ZM80.0829 51.3246V52.4226H78.6678V49.6238C78.6678 49.4362 78.7423 49.2563 78.875 49.1237C79.0077 48.991 79.1877 48.9165 79.3753 48.9165C79.563 48.9165 79.743 48.991 79.8756 49.1237C80.0083 49.2563 80.0829 49.4362 80.0829 49.6238V51.0078H79.866L80.0829 51.3246ZM78.0309 50.2128V52.4226H77.3418V50.2128H78.0309ZM80.3105 52.4226V51.6537L80.5044 51.932H80.5305V52.4195L80.3105 52.4226ZM105.418 51.0155H80.7674V50.0221H105.422L105.418 51.0155ZM83.2131 49.7853V45.8317H84.3114V49.7899L83.2131 49.7853ZM85.8865 46.7728C85.6377 46.7691 85.3977 46.8642 85.2189 47.0371C85.0401 47.2101 84.9373 47.4468 84.9328 47.6955V49.7853H84.5452V45.8317H87.2293V49.7899H86.8386V47.7001C86.8342 47.4522 86.7319 47.2162 86.5542 47.0434C86.3764 46.8705 86.1375 46.775 85.8896 46.7774L85.8865 46.7728ZM86.6033 47.6955V49.7853H85.1682V47.7001C85.1767 47.5156 85.256 47.3415 85.3897 47.2139C85.5233 47.0863 85.701 47.0152 85.8857 47.0152C86.0705 47.0152 86.2481 47.0863 86.3818 47.2139C86.5154 47.3415 86.5947 47.5156 86.6033 47.7001V47.6955ZM87.4647 49.7853V45.8317H88.1446V49.7899L87.4647 49.7853ZM88.3799 49.7853V45.8317H90.3103V49.7899L88.3799 49.7853ZM90.5457 49.7853V45.8317H91.2256V49.7899L90.5457 49.7853ZM91.4594 49.7853V45.8317H94.7234V49.7899L91.4594 49.7853ZM94.9587 49.7853V45.8317H95.6386V49.7899L94.9587 49.7853ZM95.8724 49.7853V45.8317H97.8044V49.7899L95.8724 49.7853ZM98.0382 49.7853V45.8317H98.7196V49.7899L98.0382 49.7853ZM100.298 46.7728C100.049 46.7695 99.8097 46.8647 99.6312 47.0377C99.4528 47.2106 99.3501 47.4471 99.3457 47.6955V49.7853H98.955V45.8317H101.638V49.7899H101.258V47.7001C101.255 47.5767 101.229 47.4549 101.18 47.3418C101.13 47.2286 101.059 47.1263 100.97 47.0406C100.882 46.9549 100.777 46.8876 100.662 46.8424C100.547 46.7973 100.424 46.7752 100.301 46.7774L100.298 46.7728ZM101.016 47.6955V49.7853H99.581V47.7001C99.5896 47.5156 99.6689 47.3415 99.8025 47.2139C99.9362 47.0863 100.114 47.0152 100.299 47.0152C100.483 47.0152 100.661 47.0863 100.795 47.2139C100.928 47.3415 101.008 47.5156 101.016 47.7001V47.6955ZM101.873 49.7899V45.8317H102.97V49.7899H101.873ZM103.011 45.5626H102.973V45.5949H83.2162V45.5626H83.1793V44.4861H103.011V45.5626ZM86.2572 43.7634L86.6125 43.6219L89.0736 42.6362H89.0828L89.6058 42.4255L90.7549 41.9642L90.9887 41.8704L92.9514 41.0831H93.2314L95.2018 41.8719L95.4371 41.9657L96.5862 42.4271L97.1045 42.6408H97.1137L99.5749 43.6265L99.9302 43.768V43.8357L99.7194 44.2586H86.4695L86.2572 43.8326V43.7634ZM86.0449 43.5958H83.4977V41.0892H88.3168V42.687L86.6125 43.3697L86.0449 43.5958ZM88.5506 40.3572V39.919H88.4553V35.2595H90.7533V41.7182L89.6043 42.1795L88.5506 42.6024V41.0984H88.9521V40.3665L88.5506 40.3572ZM94.5927 41.0815V37.5662C94.5927 36.8465 93.9205 36.2591 93.0945 36.2591C92.2684 36.2591 91.5963 36.8465 91.5963 37.5662V41.0908H92.3269L90.9871 41.6259V35.2595H95.2018V41.6136L93.8635 41.0785L94.5927 41.0815ZM93.2775 40.8462L93.0945 40.774L92.9129 40.8462H91.8362V37.5662C91.8362 36.9757 92.4038 36.4897 93.0991 36.4897C93.7943 36.4897 94.3635 36.9711 94.3635 37.5662V40.8555L93.2775 40.8462ZM97.6398 41.0892V42.5932L96.5862 42.1795L95.4371 41.7182V35.2595H97.7352V39.919H97.6398V40.3588H97.2445V41.0908L97.6398 41.0892ZM97.8736 42.6885V41.0908H102.693V43.5973H100.144L99.5779 43.3713L97.8736 42.6885ZM101.799 39.4807C101.796 39.4162 101.812 39.3523 101.846 39.2971C101.88 39.242 101.929 39.1982 101.988 39.1715C102.047 39.1447 102.112 39.1362 102.176 39.1469C102.239 39.1577 102.298 39.1874 102.345 39.232C102.392 39.2767 102.424 39.3343 102.438 39.3974C102.451 39.4605 102.445 39.5263 102.421 39.5862C102.397 39.6461 102.356 39.6973 102.302 39.7333C102.248 39.7694 102.185 39.7885 102.121 39.7883C102.079 39.7901 102.038 39.7836 101.999 39.7689C101.96 39.7543 101.924 39.732 101.894 39.7032C101.864 39.6745 101.84 39.6399 101.824 39.6017C101.807 39.5634 101.799 39.5223 101.799 39.4807ZM102.693 40.1527V40.5941H103.087V40.8555H97.4798V40.5941H97.8736V40.1527H102.693ZM98.4458 39.1732C98.5059 39.1762 98.5638 39.1967 98.6124 39.2323C98.6609 39.2679 98.6979 39.3169 98.7188 39.3733C98.7398 39.4297 98.7437 39.491 98.7302 39.5496C98.7166 39.6082 98.6862 39.6615 98.6426 39.703C98.599 39.7445 98.5442 39.7723 98.485 39.783C98.4258 39.7937 98.3648 39.7868 98.3094 39.7631C98.2541 39.7394 98.2069 39.7001 98.1738 39.6499C98.1406 39.5997 98.1229 39.5409 98.1228 39.4807C98.1227 39.439 98.1312 39.3977 98.1476 39.3593C98.164 39.321 98.1881 39.2864 98.2183 39.2576C98.2485 39.2288 98.2842 39.2065 98.3234 39.192C98.3625 39.1775 98.4041 39.1711 98.4458 39.1732ZM98.1382 39.919H97.9721V39.7467C98.0142 39.8151 98.0703 39.8737 98.1367 39.919H98.1382ZM92.833 15.5269H93.3575C94.1604 16.3157 94.5034 17.9535 94.5065 17.9688V18.4763H91.687V17.9688C91.687 17.9535 92.0285 16.3157 92.833 15.5269ZM94.4604 20.8491V21.6011H91.7301V20.8491H94.4604ZM91.8931 20.6138V18.7116H92.5392V20.6138H91.8931ZM92.773 20.6138V18.7116H93.4129V20.6138H92.773ZM93.6513 20.6138V18.7116H94.2973V20.6138H93.6513ZM91.3517 21.844H94.8388V22.9312C94.6204 22.6843 94.352 22.4866 94.0514 22.3511C93.7508 22.2157 93.4249 22.1457 93.0952 22.1457C92.7655 22.1457 92.4396 22.2157 92.139 22.3511C91.8384 22.4866 91.5701 22.6843 91.3517 22.9312V21.844ZM91.524 23.0742C91.724 22.8571 91.967 22.6839 92.2374 22.5653C92.5079 22.4468 92.7999 22.3856 93.0952 22.3856C93.3905 22.3856 93.6826 22.4468 93.953 22.5653C94.2235 22.6839 94.4664 22.8571 94.6665 23.0742C94.7992 23.2198 94.9129 23.3815 95.0049 23.5556H91.1856C91.2761 23.3768 91.3899 23.2109 91.524 23.0619V23.0742ZM90.4641 23.7893H95.7201V28.7963H90.4595L90.4641 23.7893ZM89.0029 29.4698L88.6029 29.03H97.5875L97.1876 29.4698H89.0029ZM94.4065 30.9938C94.345 30.9923 94.2839 31.0032 94.2266 31.0257C94.1694 31.0483 94.1172 31.082 94.0732 31.125C94.0293 31.168 93.9943 31.2193 93.9704 31.276C93.9466 31.3327 93.9343 31.3936 93.9343 31.4551V34.3276H93.5667V31.4412C93.5667 31.316 93.5169 31.196 93.4284 31.1074C93.3398 31.0189 93.2197 30.9692 93.0945 30.9692C92.9692 30.9692 92.8491 31.0189 92.7605 31.1074C92.672 31.196 92.6222 31.316 92.6222 31.4412V34.3138H92.2546V31.4412C92.2546 31.316 92.2048 31.196 92.1163 31.1074C92.0277 31.0189 91.9076 30.9692 91.7824 30.9692C91.6571 30.9692 91.537 31.0189 91.4485 31.1074C91.3599 31.196 91.3102 31.316 91.3102 31.4412V34.3138H89.2797V30.3802H96.9107V34.3138H94.8803V31.4412C94.8801 31.3797 94.8676 31.3189 94.8436 31.2623C94.8195 31.2057 94.7844 31.1544 94.7403 31.1116C94.6961 31.0688 94.6439 31.0352 94.5865 31.0128C94.5292 30.9905 94.468 30.9798 94.4065 30.9815V30.9938ZM94.645 31.4551V34.3276H94.1696V31.4412C94.1745 31.3815 94.2016 31.3258 94.2456 31.2852C94.2897 31.2446 94.3474 31.222 94.4073 31.222C94.4672 31.222 94.5249 31.2446 94.569 31.2852C94.613 31.3258 94.6401 31.3815 94.645 31.4412V31.4551ZM93.3329 31.4551V34.3276H92.8576V31.4412C92.8624 31.3815 92.8895 31.3258 92.9335 31.2852C92.9776 31.2446 93.0353 31.222 93.0952 31.222C93.1551 31.222 93.2129 31.2446 93.2569 31.2852C93.3009 31.3258 93.3281 31.3815 93.3329 31.4412V31.4551ZM92.0208 31.4551V34.3276H91.5455V31.4412C91.5503 31.3815 91.5774 31.3258 91.6215 31.2852C91.6655 31.2446 91.7232 31.222 91.7831 31.222C91.8431 31.222 91.9008 31.2446 91.9448 31.2852C91.9889 31.3258 92.016 31.3815 92.0208 31.4412V31.4551ZM89.2797 30.1587V29.6974H96.9107V30.1587H89.2797ZM88.1338 35.0442V34.5614H98.0567V35.0442H88.1338ZM87.4231 39.4945C87.4201 39.43 87.4364 39.3661 87.47 39.311C87.5037 39.2559 87.5531 39.2121 87.6119 39.1853C87.6706 39.1585 87.7361 39.15 87.7998 39.1608C87.8635 39.1716 87.9225 39.2012 87.9691 39.2459C88.0158 39.2905 88.048 39.3481 88.0616 39.4112C88.0752 39.4744 88.0695 39.5401 88.0453 39.6C88.0212 39.6599 87.9796 39.7112 87.926 39.7472C87.8724 39.7832 87.8092 39.8023 87.7446 39.8021C87.7019 39.8041 87.6592 39.7971 87.6193 39.7817C87.5794 39.7662 87.5432 39.7426 87.5129 39.7123C87.4827 39.6821 87.4591 39.6459 87.4436 39.606C87.4281 39.5661 87.4212 39.5234 87.4231 39.4807V39.4945ZM88.2199 39.7606V39.9328H88.0538C88.1218 39.8833 88.1784 39.8199 88.2199 39.7467V39.7606ZM83.7453 39.4945C83.7423 39.4301 83.7586 39.3662 83.7921 39.3111C83.8257 39.2561 83.875 39.2123 83.9337 39.1855C83.9924 39.1586 84.0578 39.15 84.1214 39.1607C84.185 39.1714 84.244 39.2008 84.2908 39.2453C84.3375 39.2898 84.3698 39.3473 84.3836 39.4103C84.3973 39.4733 84.3919 39.539 84.368 39.5989C84.344 39.6588 84.3027 39.7102 84.2493 39.7464C84.1959 39.7826 84.1329 39.802 84.0683 39.8021C84.0255 39.8043 83.9826 39.7975 83.9426 39.7821C83.9025 39.7668 83.866 39.7432 83.8356 39.7129C83.8052 39.6827 83.7814 39.6464 83.7659 39.6064C83.7503 39.5664 83.7433 39.5236 83.7453 39.4807V39.4945ZM83.107 40.8555V40.5941H83.5023V40.1527H88.3214V40.5941H88.7152V40.8555H83.107ZM82.261 43.8326H86.0003L86.211 44.2586H82.6578L82.261 43.8326ZM75.6898 44.6492H82.9485V45.5626H75.6852L75.6898 44.6492ZM74.0732 42.6685C74.2706 42.5136 74.5144 42.4294 74.7654 42.4294C75.0163 42.4294 75.2601 42.5136 75.4576 42.6685V44.4139H75.2161V43.3374C75.1993 43.2285 75.1441 43.1293 75.0604 43.0575C74.9768 42.9858 74.8702 42.9464 74.76 42.9464C74.6498 42.9464 74.5432 42.9858 74.4596 43.0575C74.3759 43.1293 74.3207 43.2285 74.3039 43.3374V44.4139H74.0686L74.0732 42.6685ZM74.9869 43.3359V44.4123H74.5423V43.3359C74.5429 43.3074 74.5492 43.2792 74.5608 43.2531C74.5723 43.227 74.589 43.2035 74.6097 43.1839C74.6305 43.1643 74.6549 43.149 74.6817 43.1389C74.7084 43.1289 74.7368 43.1242 74.7654 43.1252C74.8218 43.1252 74.8761 43.1472 74.9166 43.1865C74.9571 43.2259 74.9806 43.2795 74.9822 43.3359H74.9869ZM75.456 44.6492V45.5626H72.8765V44.6476L75.456 44.6492ZM73.3302 41.7704C73.3402 41.7816 73.3494 41.7935 73.3579 41.8058C73.5513 42.0406 73.7141 42.299 73.8424 42.5747V44.4077H72.8842V44.3954H72.5396V44.2693H72.6642C72.6797 44.2697 72.6951 44.2671 72.7095 44.2615C72.724 44.2559 72.7371 44.2475 72.7483 44.2367C72.7595 44.226 72.7684 44.2132 72.7745 44.199C72.7807 44.1848 72.784 44.1695 72.7842 44.154C72.784 44.1384 72.7807 44.1231 72.7746 44.1088C72.7684 44.0945 72.7595 44.0816 72.7484 44.0707C72.7373 44.0599 72.7241 44.0513 72.7096 44.0455C72.6952 44.0398 72.6797 44.0369 72.6642 44.0371H72.5396V43.8833H72.5873L72.4058 43.6742L72.2243 43.8833H72.272V44.0371H72.1489C72.1332 44.0367 72.1176 44.0394 72.103 44.0451C72.0884 44.0508 72.075 44.0593 72.0637 44.0702C72.0524 44.081 72.0434 44.094 72.0371 44.1084C72.0309 44.1228 72.0276 44.1383 72.0274 44.154C72.0276 44.1696 72.0309 44.185 72.0371 44.1993C72.0434 44.2136 72.0525 44.2266 72.0638 44.2373C72.0751 44.2481 72.0885 44.2564 72.1031 44.2619C72.1177 44.2674 72.1333 44.2699 72.1489 44.2693H72.272V44.397H72.0182C71.9807 44.3905 71.9437 44.3818 71.9074 44.3708V40.1358H72.6211C72.698 40.937 73.2902 41.7274 73.3256 41.7704H73.3302ZM68.8695 44.6353C68.8987 44.6353 69.4309 44.5246 69.6601 44.1955C69.7308 44.1083 69.7709 44.0002 69.7739 43.888V43.7834C69.782 43.6173 69.8537 43.4608 69.9741 43.3461C70.0945 43.2315 70.2545 43.1675 70.4207 43.1675C70.587 43.1675 70.7469 43.2315 70.8674 43.3461C70.9878 43.4608 71.0594 43.6173 71.0676 43.7834V43.888C71.0715 43.9806 71.0978 44.0709 71.1441 44.1512C71.1905 44.2315 71.2555 44.2994 71.3337 44.3493C71.531 44.4881 71.7544 44.5854 71.9905 44.6353H72.0689L72.0951 44.6476H72.6473V45.5626H68.2019V44.6476H68.8987L68.8695 44.6353ZM70.5538 42.9622C70.5861 42.9299 70.6307 42.9069 70.6307 42.8546C70.6289 42.8181 70.6166 42.7829 70.5953 42.7532C70.5741 42.7234 70.5447 42.7005 70.5107 42.687V42.464H70.6553L70.42 42.0718L70.1862 42.464H70.3323V42.687C70.2981 42.7001 70.2685 42.723 70.2472 42.7528C70.2259 42.7826 70.2138 42.818 70.2123 42.8546C70.2123 42.9069 70.2569 42.9299 70.2892 42.9622C70.0862 42.9879 69.8992 43.0855 69.762 43.2373C69.6248 43.3891 69.5467 43.585 69.5417 43.7895V43.8941C69.5417 44.0879 69.3555 44.217 69.1756 44.2955V40.1358H71.6674V44.2955C71.4875 44.217 71.3044 44.0879 71.3044 43.8941V43.7895C71.299 43.5847 71.2203 43.3885 71.0826 43.2367C70.9448 43.0849 70.7572 42.9875 70.5538 42.9622ZM68.0542 39.4746H72.7857V39.9005H68.0542V39.4746ZM67.3221 42.0134C67.3831 41.9243 67.451 41.8399 67.5251 41.7612C67.5512 41.7259 68.1404 40.937 68.2265 40.1358H68.9387V44.3785L68.8479 44.4016H68.5757V44.2755H68.6972C68.713 44.2761 68.7287 44.2736 68.7435 44.2681C68.7583 44.2627 68.7718 44.2543 68.7834 44.2436C68.795 44.2329 68.8043 44.22 68.8109 44.2057C68.8175 44.1914 68.8212 44.1759 68.8218 44.1601C68.8214 44.1443 68.8178 44.1286 68.8113 44.1141C68.8048 44.0996 68.7955 44.0865 68.7839 44.0757C68.7723 44.0648 68.7587 44.0563 68.7438 44.0508C68.7289 44.0452 68.7131 44.0427 68.6972 44.0433H68.5757V43.8895H68.6218L68.4419 43.6804L68.2619 43.8895H68.3065V44.0433H68.1865C68.1707 44.0427 68.1549 44.0452 68.1401 44.0508C68.1253 44.0564 68.1118 44.0649 68.1003 44.0757C68.0888 44.0866 68.0797 44.0997 68.0733 44.1142C68.067 44.1287 68.0637 44.1443 68.0635 44.1601C68.0636 44.1759 68.067 44.1914 68.0734 44.2059C68.0797 44.2203 68.0889 44.2333 68.1004 44.244C68.1119 44.2548 68.1255 44.2631 68.1402 44.2685C68.155 44.2739 68.1708 44.2763 68.1865 44.2755H68.3065V44.4016H67.9619V44.4139H67.0067V42.5809C67.1 42.3854 67.2053 42.1959 67.3221 42.0134ZM65.3901 42.6685C65.5875 42.5136 65.8313 42.4294 66.0823 42.4294C66.3333 42.4294 66.577 42.5136 66.7745 42.6685V44.4139H66.5391V43.3374C66.5223 43.2285 66.4671 43.1293 66.3835 43.0575C66.2998 42.9858 66.1932 42.9464 66.083 42.9464C65.9728 42.9464 65.8663 42.9858 65.7826 43.0575C65.699 43.1293 65.6437 43.2285 65.627 43.3374V44.4139H65.3916L65.3901 42.6685ZM66.3022 43.3359V44.4123H65.8592V43.3359C65.8592 43.2772 65.8826 43.2208 65.9241 43.1793C65.9656 43.1378 66.022 43.1145 66.0807 43.1145C66.1395 43.1145 66.1958 43.1378 66.2374 43.1793C66.2789 43.2208 66.3022 43.2772 66.3022 43.3359ZM65.3885 44.6492H67.9619V45.5626H65.3885V44.6492ZM64.764 45.7994H82.9439V45.8317H82.9824V46.4853H65.4009L64.764 45.7994ZM67.4759 47.7155V46.7236H73.3656V47.7155H67.4759ZM73.0487 47.9507V52.4272H72.4488V47.9461L73.0487 47.9507ZM70.6907 48.7673L70.7122 48.7104L70.5938 48.672C69.9521 48.4746 69.2951 48.3311 68.6295 48.2429V47.9507H72.215V52.4272H71.3629V49.6285C71.3598 49.4308 71.2926 49.2395 71.1714 49.0834C71.0502 48.9272 70.8815 48.8147 70.6907 48.7627V48.7673ZM69.5709 51.7229L70.6046 48.9826C70.7502 49.0164 70.8804 49.0979 70.9746 49.214C71.0688 49.3301 71.1215 49.4744 71.1245 49.6238V52.4226H69.7109V51.3461L69.5709 51.7229ZM68.3926 48.2199C68.1927 48.1953 67.9927 48.1845 67.7912 48.1706V47.9461H68.3926V48.2199ZM65.3855 46.719H67.239V47.9492H67.5574V48.1568C67.3913 48.1568 67.2282 48.1184 67.0621 48.1184C66.5007 48.1224 65.9403 48.1676 65.3855 48.2537V46.719ZM67.0621 48.3475C68.1947 48.3488 69.3208 48.5194 70.4031 48.8534L68.6618 53.4667V53.4775L68.3896 54.2033L68.2957 54.4417L67.2051 57.3311H66.7252L60.8032 50.914L60.9309 50.0267C62.2091 49.3024 64.3887 48.3475 67.0652 48.3475H67.0621ZM69.4755 51.9705V52.4226H69.3063L69.2694 52.521L69.4755 51.9705ZM69.0633 54.8784L68.5665 54.3817L68.7464 53.905H73.361V54.8784H69.0633ZM73.0457 55.1121V59.0519H72.4458V55.1121H73.0457ZM70.4169 55.3413C70.18 55.3417 69.9518 55.4305 69.777 55.5904L69.9431 55.7565C70.0736 55.6403 70.2421 55.5757 70.4169 55.575C70.5078 55.573 70.5982 55.5889 70.683 55.6218C70.7677 55.6547 70.8452 55.7039 70.9109 55.7668C70.9766 55.8296 71.0293 55.9048 71.0659 55.988C71.1026 56.0711 71.1225 56.1608 71.1245 56.2516V59.0519H70.6476V57.9755H70.0323V56.8837H71.0799L69.777 55.5827L69.2971 55.1045H72.212V59.0442H71.3598V56.2516C71.3582 56.1301 71.3326 56.01 71.2844 55.8984C71.2363 55.7867 71.1665 55.6857 71.0792 55.6011C70.9918 55.5165 70.8886 55.45 70.7755 55.4054C70.6624 55.3608 70.5416 55.339 70.42 55.3413H70.4169ZM67.7066 56.6576L68.4757 54.6201L70.5153 56.6576H67.7066ZM69.797 56.8913V57.9785H68.0988L67.4174 57.4496L67.6282 56.8913H69.797ZM61.3569 54.4632L60.5509 52.6179L60.754 51.217L66.4053 57.3342H66.3191L61.3569 54.4632ZM65.8515 57.3281H61.4062L59.7772 57.9432L60.4956 53.0515L61.1677 54.5893L61.1831 54.6247L65.8515 57.3281ZM59.3742 44.7045C60.0651 44.7052 60.7551 44.7566 61.4385 44.8583L60.7663 49.4885L59.5726 58.0185L58.6359 58.3738H57.4053L57.2638 58.1154L57.7853 58.0278L57.9391 58.0016L52.3108 47.3418C53.3245 46.373 55.601 44.7045 59.3773 44.7045H59.3742ZM56.8962 57.9386L54.2813 58.3753H54.2228L53.2353 58.5368L53.1938 58.5567L50.425 59.0181C50.4327 55.6965 51.2633 51.3984 52.1985 47.614L57.5914 57.8232L57.1469 57.897L56.8962 57.9386ZM57.1346 58.3768H55.7056L57.0162 58.16L57.1346 58.3768ZM52.4154 58.9258L51.9432 59.1503H51.0757L52.4154 58.9258ZM54.4151 39.0209C54.1474 39.8252 53.0984 43.0637 52.1078 46.9743L52.0217 47.3156L52.0017 47.4002C52.0017 47.4171 52.0017 47.4341 51.9894 47.451L51.914 47.7508L51.8632 47.96C51.2426 50.4515 50.7624 52.9758 50.425 55.5212C50.2753 56.6944 50.1957 57.8754 50.1866 59.0581L49.6375 59.1503H41.0236L46.0042 57.3711L46.2288 57.2896L38.2548 52.1904L38.2287 52.1719L37.1012 52.1473H37.0781C37.538 50.914 41.4358 41.5644 54.4212 39.0209H54.4151ZM37.1566 52.3995V52.3918L38.1533 52.4118L45.7043 57.2373L45.0413 57.4757L43.114 58.1569L41.5481 58.7151L40.3345 59.1503L40.2083 59.1934L38.9378 59.6455L38.6194 58.3445L37.215 52.604L37.255 52.6317L37.1566 52.3995ZM22.8852 15.9728H30.3947L29.9978 17.8827H23.2836L22.8852 15.9728ZM26.1723 0.702761C26.1723 0.611519 26.1994 0.522325 26.2501 0.446459C26.3008 0.370594 26.3729 0.311464 26.4572 0.276547C26.5415 0.24163 26.6343 0.232494 26.7238 0.250294C26.8133 0.268095 26.8956 0.312033 26.9601 0.376551C27.0246 0.441069 27.0686 0.52327 27.0864 0.61276C27.1042 0.702249 27.0951 0.795008 27.0601 0.879305C27.0252 0.963602 26.9661 1.03565 26.8902 1.08634C26.8143 1.13704 26.7251 1.16409 26.6338 1.16409C26.5732 1.16409 26.5132 1.15216 26.4572 1.12898C26.4012 1.10579 26.3503 1.07181 26.3075 1.02897C26.2646 0.986133 26.2307 0.935276 26.2075 0.879305C26.1843 0.823334 26.1723 0.763344 26.1723 0.702761ZM26.6338 2.18671L27.2414 9.13897H26.0401L26.6338 2.18671ZM23.9881 9.37425H29.2918V10.4891H23.9881V9.37425ZM23.9881 10.7244H29.2918V13.8845H23.9881V10.7244ZM23.7543 14.1075H30.7838L30.4439 15.7345H22.836L22.5022 14.1121L23.7543 14.1075ZM23.7328 19.9987L23.3375 18.1119H29.9517L29.5564 19.9987H23.7328ZM26.0401 20.234H27.2398V20.6384H26.0401V20.234ZM24.9741 20.8737H28.3058V21.5949H24.9741V20.8737ZM26.0401 21.8302H27.2398V31.0937H26.0401V21.8302ZM25.6632 31.9041H25.254V31.329H28.0228V31.9041H25.6632ZM26.0401 32.1379H27.2398V45.6056H26.0401V32.1379ZM25.4678 46.5652H24.9741V45.8409H28.3058V46.5652H25.4678ZM26.0401 46.8005H27.2398V48.7089C26.9768 48.6981 26.7322 48.6627 26.4584 48.6627C26.32 48.6627 26.1785 48.6889 26.0401 48.692V46.8005ZM21.5547 49.5285C22.8451 49.2088 24.1642 49.0187 25.4925 48.9611C25.8139 48.9441 26.14 48.8965 26.4584 48.8965C26.9568 48.8965 27.4152 48.9457 27.8813 48.9826C33.0634 49.4009 36.3167 51.9197 36.7736 52.2996V52.3119L36.8443 52.3565L36.8674 52.3795H36.8766L36.9181 52.4072L38.4917 58.7997L38.5056 58.8566L38.6194 59.3272L38.6794 59.5701C38.5256 59.4979 38.361 59.4363 38.1948 59.3718C38.0287 59.3072 37.8226 59.2349 37.6257 59.1734L37.5703 59.1503H37.5303C35.7107 58.6198 33.3926 58.5168 31.9775 58.5168C31.4145 58.5168 31.0546 58.5321 31.0546 58.5337H31.0038L30.4839 59.1488L30.2916 59.3748L29.2395 60.6174H28.2904L27.4537 59.2334L27.3983 59.1442L26.4477 57.5756L26.3554 57.4219L24.8633 54.9614L24.8495 54.9384L24.5957 54.5201L21.5547 49.5285ZM36.5305 59.1503H30.7854L31.1099 58.7659C31.2253 58.7659 31.5376 58.7505 31.9729 58.7505C33.5011 58.7442 35.0267 58.878 36.5305 59.1503ZM27.1183 59.1503H25.9324C26.1031 58.7397 26.2631 58.3276 26.3938 57.9647L27.1183 59.1503ZM20.6072 56.1486L24.6218 55.0368L26.2446 57.711C26.0908 58.1262 25.9047 58.6152 25.6924 59.1211V59.1288C25.6883 59.1367 25.6847 59.145 25.6817 59.1534L25.6063 59.3272C25.5971 59.3466 25.5878 59.3682 25.5786 59.3918C25.4049 59.8187 25.1955 60.2303 24.9526 60.622H19.9088C20.3303 59.1665 20.565 57.6633 20.6072 56.1486ZM10.0121 60.2437L13.2592 58.2692L15.7342 60.2437H10.0121ZM16.0264 60.479L16.7063 61.0203H12.1194V60.479H16.0264ZM15.4111 64.7647H8.85076V62.8979H15.4096L15.4111 64.7647ZM15.8926 64.7647H15.645V62.6626H8.61695V64.7647H1.15518L4.21311 63.473H5.10987L7.94322 62.1413H12.2071V61.2801H17.0324L18.7629 62.6641H15.888L15.8926 64.7647ZM18.8321 64.7647H16.1249V62.8979H18.8305L18.8321 64.7647ZM17.3785 61.2555L17.0832 61.0203L16.4017 60.479L16.1079 60.2437L13.4715 58.14L13.4592 58.1292L8.80307 54.4125C10.1377 53.9868 11.5307 53.772 12.9316 53.7758C15.5868 53.7567 18.181 54.571 20.3487 56.104L20.338 56.1332V56.8421C20.2816 57.6063 20.1789 58.3663 20.0303 59.118C20.0119 59.2072 19.9996 59.2964 19.9796 59.3887C19.8919 59.79 19.7888 60.1975 19.6612 60.6097C19.6335 60.6973 19.5966 60.785 19.5658 60.8742C19.3884 61.4229 19.1576 61.9529 18.8767 62.4565L17.3785 61.2555ZM19.0705 64.7647V62.6626H19.0382C19.3692 62.0898 19.6374 61.483 19.8381 60.8526H25.0756L25.1094 60.805C25.4005 60.357 25.6458 59.881 25.8416 59.3841H27.266L28.1243 60.7973L28.1597 60.8526H29.3502L30.5931 59.3841H37.4919C37.9433 59.5054 38.3798 59.6766 38.7932 59.8946L38.8363 59.9361L38.8563 59.9284L39.0378 60.0299L39.0009 59.8762L40.5144 59.3349L48.9853 59.3718V59.3841H49.6759L49.7328 59.3748H50.1943V59.3841H50.4158V59.3764L51.9755 59.3841L53.2291 58.7905L54.3059 58.6121H58.6497L59.0327 58.4676L59.2912 58.3691L59.3327 58.3538L59.5296 58.2799L61.4308 57.5572H67.1713L67.9635 58.1723L67.9927 58.2154H68.0189H70.4031V61.2171H67.6835L66.0792 62.2689H64.8025L61.0062 64.7632L19.0705 64.7647ZM72.0474 64.7647H61.4339L64.8732 62.5042H66.1576L67.762 61.4539H72.0489L72.0474 64.7647ZM75.4576 64.7647H72.275V61.2186H71.5782C71.5208 61.2086 71.4627 61.2025 71.4044 61.2002C71.3456 61.2025 71.287 61.2086 71.2291 61.2186H70.6476V60.2867H75.4545L75.4576 64.7647ZM75.4576 60.0515H70.6476V59.2826H75.4545L75.4576 60.0515ZM75.4576 59.0519H73.2841V55.1121H75.4514L75.4576 59.0519ZM75.4576 54.8784H73.6117V53.905H75.4576V54.8784ZM75.4576 53.6697H68.8433L69.2263 52.6563H75.4576V53.6697ZM75.4576 52.4226H73.2841V47.9461H73.601V46.7159H75.4468L75.4576 52.4226ZM79.4568 64.7647H75.6883V60.2867H80.4674L79.9983 62.3673V61.5077C79.9891 61.4293 79.9137 61.2125 79.3384 61.2002C78.7631 61.1879 78.6878 61.4262 78.6785 61.5077V64.4633H79.5245L79.4568 64.7647ZM78.9139 64.2296V61.5323C78.9339 61.5108 79.0277 61.4431 79.3384 61.4385C79.6491 61.4339 79.7445 61.5108 79.7645 61.5323V63.4007L79.5691 64.2296H78.9139ZM79.6968 64.7647L79.7353 64.5925C79.7353 64.5679 79.7522 64.5202 79.7645 64.4633C79.7891 64.3511 79.826 64.1896 79.866 64.0143C79.9521 63.6283 80.0537 63.1808 80.1029 62.964L80.1321 62.8302L80.7074 60.2867H105.486L106.06 62.8302L106.091 62.964C106.14 63.1808 106.244 63.6283 106.328 64.0143C106.368 64.1896 106.403 64.3511 106.427 64.4633C106.44 64.5202 106.451 64.5679 106.457 64.5925L106.495 64.7647H79.6968ZM106.429 63.4007V61.5323C106.449 61.5108 106.543 61.4431 106.855 61.4385C107.167 61.4339 107.26 61.5108 107.28 61.5323V64.2296H106.615L106.429 63.4007ZM110.504 64.7586H106.735L106.669 64.451H107.513V61.5077C107.513 61.4293 107.429 61.2125 106.855 61.2002C106.281 61.1879 106.204 61.4262 106.195 61.5077V62.3673L105.718 60.2867H110.498L110.504 64.7586ZM110.504 60.0453H105.672V59.341L105.695 59.2872H110.504V60.0453ZM105.788 59.0458L105.875 58.8243V59.0458H105.788ZM106.111 59.0458V56.2516C106.119 56.0699 106.197 55.8985 106.329 55.7729C106.461 55.6473 106.635 55.5772 106.817 55.5772C106.999 55.5772 107.174 55.6473 107.306 55.7729C107.438 55.8985 107.516 56.0699 107.524 56.2516V59.0519L106.111 59.0458ZM108.156 59.0458V56.8437H108.846V59.0519L108.156 59.0458ZM110.504 59.0458H109.079V56.6084H107.921V59.0519H107.76V56.2516C107.75 56.0084 107.646 55.7784 107.471 55.6098C107.295 55.4412 107.061 55.347 106.817 55.347C106.574 55.347 106.34 55.4412 106.164 55.6098C105.989 55.7784 105.885 56.0084 105.875 56.2516V58.6336H105.657V55.1121H110.504V59.0458ZM110.504 54.8722H105.657V53.8988H110.504V54.8722ZM110.504 53.6636H105.657V52.6502H110.504V53.6636ZM106.111 51.0094V49.6254C106.119 49.4437 106.197 49.2722 106.329 49.1466C106.461 49.021 106.635 48.951 106.817 48.951C106.999 48.951 107.174 49.021 107.306 49.1466C107.438 49.2722 107.516 49.4437 107.524 49.6254V52.4241H106.111V51.3262L106.328 51.0186L106.111 51.0094ZM108.156 52.4164V50.2128H108.846V52.4226L108.156 52.4164ZM110.504 52.4164H109.079V49.9714H107.921V52.4164H107.76V49.6177C107.75 49.3745 107.646 49.1445 107.471 48.9759C107.295 48.8073 107.061 48.7131 106.817 48.7131C106.574 48.7131 106.34 48.8073 106.164 48.9759C105.989 49.1445 105.885 49.3745 105.875 49.6177V51.0017H105.657V49.7715H103.208V46.6959H110.504V52.4164ZM110.739 60.2806H120.839L122.652 64.7586H110.739V60.2806Z" fill="#1C1C1A"/>
<path d="M101.524 41.3953H99.0426V42.5732H101.524V41.3953ZM101.288 42.3333H99.278V41.6244H101.288V42.3333Z" fill="#1C1C1A"/>
<path d="M91.4025 28.0321H94.7865V24.7612H91.4025V28.0321ZM91.6363 24.998H94.5588V27.7983H91.6363V24.998Z" fill="#1C1C1A"/>
<path d="M93.0945 25.0657C92.8331 25.0756 92.5803 25.1623 92.3678 25.3147C92.1552 25.4672 91.9922 25.6788 91.899 25.9233C91.8059 26.1677 91.7867 26.4341 91.8439 26.6893C91.901 26.9445 92.0321 27.1773 92.2206 27.3587C92.4091 27.54 92.6468 27.6619 92.9041 27.7092C93.1614 27.7565 93.427 27.7271 93.6677 27.6246C93.9084 27.5222 94.1137 27.3512 94.2579 27.133C94.4021 26.9148 94.479 26.6589 94.4789 26.3974C94.4755 26.2191 94.4369 26.0432 94.3655 25.8797C94.2941 25.7163 94.1912 25.5685 94.0626 25.4448C93.9341 25.3212 93.7824 25.224 93.6163 25.159C93.4502 25.0939 93.2729 25.0622 93.0945 25.0657ZM93.0945 27.4938C92.8793 27.4851 92.6715 27.4133 92.4968 27.2874C92.3221 27.1615 92.1883 26.987 92.112 26.7857C92.0358 26.5844 92.0204 26.3651 92.0678 26.1551C92.1152 25.9451 92.2233 25.7536 92.3787 25.6046C92.534 25.4555 92.7298 25.3554 92.9417 25.3167C93.1535 25.278 93.372 25.3024 93.5701 25.3869C93.7682 25.4714 93.937 25.6122 94.0557 25.7919C94.1743 25.9715 94.2375 26.1821 94.2374 26.3974C94.2305 26.6941 94.1064 26.9759 93.8923 27.1814C93.6781 27.3869 93.3913 27.4992 93.0945 27.4938Z" fill="#1C1C1A"/>
</g>
<defs>
<clipPath id="clip0_87_42975">
<rect width="123" height="65" fill="white"/>
</clipPath>
</defs>
</svg>
