<svg preserveAspectRatio="xMidYMax meet" width="123" height="95" viewBox="0 0 123 95" fill="none" xmlns="http://www.w3.org/2000/svg">
<g clip-path="url(#clip0_87_43743)">
<path d="M82.8731 94.9937C82.6639 94.9937 82.4632 94.9109 82.3153 94.7636C82.1673 94.6163 82.0842 94.4165 82.0842 94.2082V0.785539C82.0842 0.577201 82.1673 0.377398 82.3153 0.230081C82.4632 0.0827637 82.6639 0 82.8731 0C83.0824 0 83.283 0.0827637 83.4309 0.230081C83.5789 0.377398 83.662 0.577201 83.662 0.785539V94.2082C83.662 94.4165 83.5789 94.6163 83.4309 94.7636C83.283 94.9109 83.0824 94.9937 82.8731 94.9937Z" fill="#1C1C1A"/>
<path d="M40.1395 94.9937C39.9303 94.9937 39.7297 94.9109 39.5817 94.7636C39.4338 94.6163 39.3506 94.4165 39.3506 94.2082V0.785539C39.3506 0.577201 39.4338 0.377398 39.5817 0.230081C39.7297 0.0827637 39.9303 0 40.1395 0C40.3487 0 40.5494 0.0827637 40.6974 0.230081C40.8453 0.377398 40.9284 0.577201 40.9284 0.785539V94.2082C40.9284 94.4165 40.8453 94.6163 40.6974 94.7636C40.5494 94.9109 40.3487 94.9937 40.1395 94.9937Z" fill="#1C1C1A"/>
<path d="M72.3585 29.0901H72.024C71.8148 29.0901 71.6141 29.0074 71.4662 28.86C71.3182 28.7127 71.2351 28.5129 71.2351 28.3046C71.2351 28.0962 71.3182 27.8964 71.4662 27.7491C71.6141 27.6018 71.8148 27.519 72.024 27.519H72.3585C72.5678 27.519 72.7684 27.6018 72.9164 27.7491C73.0643 27.8964 73.1474 28.0962 73.1474 28.3046C73.1474 28.5129 73.0643 28.7127 72.9164 28.86C72.7684 29.0074 72.5678 29.0901 72.3585 29.0901ZM68.1047 29.0901H67.7639C67.5547 29.0901 67.354 29.0074 67.2061 28.86C67.0581 28.7127 66.975 28.5129 66.975 28.3046C66.975 28.0962 67.0581 27.8964 67.2061 27.7491C67.354 27.6018 67.5547 27.519 67.7639 27.519H68.1047C68.314 27.519 68.5147 27.6018 68.6626 27.7491C68.8106 27.8964 68.8937 28.0962 68.8937 28.3046C68.8937 28.5129 68.8106 28.7127 68.6626 28.86C68.5147 29.0074 68.314 29.0901 68.1047 29.0901ZM63.8447 29.0901H63.5101C63.3009 29.0901 63.1002 29.0074 62.9523 28.86C62.8043 28.7127 62.7212 28.5129 62.7212 28.3046C62.7212 28.0962 62.8043 27.8964 62.9523 27.7491C63.1002 27.6018 63.3009 27.519 63.5101 27.519H63.8447C64.0539 27.519 64.2546 27.6018 64.4025 27.7491C64.5505 27.8964 64.6336 28.0962 64.6336 28.3046C64.6336 28.5129 64.5505 28.7127 64.4025 28.86C64.2546 29.0074 64.0539 29.0901 63.8447 29.0901ZM59.5846 29.0901H59.25C59.0408 29.0901 58.8401 29.0074 58.6922 28.86C58.5442 28.7127 58.4611 28.5129 58.4611 28.3046C58.4611 28.0962 58.5442 27.8964 58.6922 27.7491C58.8401 27.6018 59.0408 27.519 59.25 27.519H59.5846C59.7938 27.519 59.9945 27.6018 60.1424 27.7491C60.2904 27.8964 60.3735 28.0962 60.3735 28.3046C60.3735 28.5129 60.2904 28.7127 60.1424 28.86C59.9945 29.0074 59.7938 29.0901 59.5846 29.0901ZM55.3308 29.0901H54.9963C54.787 29.0901 54.5864 29.0074 54.4384 28.86C54.2905 28.7127 54.2074 28.5129 54.2074 28.3046C54.2074 28.0962 54.2905 27.8964 54.4384 27.7491C54.5864 27.6018 54.787 27.519 54.9963 27.519H55.3308C55.54 27.519 55.7407 27.6018 55.8886 27.7491C56.0366 27.8964 56.1197 28.0962 56.1197 28.3046C56.1197 28.5129 56.0366 28.7127 55.8886 28.86C55.7407 29.0074 55.54 29.0901 55.3308 29.0901ZM51.0707 29.0901H50.7362C50.5269 29.0901 50.3263 29.0074 50.1783 28.86C50.0304 28.7127 49.9473 28.5129 49.9473 28.3046C49.9473 28.0962 50.0304 27.8964 50.1783 27.7491C50.3263 27.6018 50.5269 27.519 50.7362 27.519H51.0707C51.2799 27.519 51.4806 27.6018 51.6285 27.7491C51.7765 27.8964 51.8596 28.0962 51.8596 28.3046C51.8596 28.5129 51.7765 28.7127 51.6285 28.86C51.4806 29.0074 51.2799 29.0901 51.0707 29.0901Z" fill="#1C1C1A"/>
<path d="M72.3585 37.0461H72.024C71.8148 37.0461 71.6141 36.9633 71.4662 36.816C71.3182 36.6687 71.2351 36.4689 71.2351 36.2605C71.2351 36.0522 71.3182 35.8524 71.4662 35.7051C71.6141 35.5577 71.8148 35.475 72.024 35.475H72.3585C72.5678 35.475 72.7684 35.5577 72.9164 35.7051C73.0643 35.8524 73.1474 36.0522 73.1474 36.2605C73.1474 36.4689 73.0643 36.6687 72.9164 36.816C72.7684 36.9633 72.5678 37.0461 72.3585 37.0461ZM68.1047 37.0461H67.7639C67.5547 37.0461 67.354 36.9633 67.2061 36.816C67.0581 36.6687 66.975 36.4689 66.975 36.2605C66.975 36.0522 67.0581 35.8524 67.2061 35.7051C67.354 35.5577 67.5547 35.475 67.7639 35.475H68.1047C68.314 35.475 68.5147 35.5577 68.6626 35.7051C68.8106 35.8524 68.8937 36.0522 68.8937 36.2605C68.8937 36.4689 68.8106 36.6687 68.6626 36.816C68.5147 36.9633 68.314 37.0461 68.1047 37.0461ZM63.8447 37.0461H63.5101C63.3009 37.0461 63.1002 36.9633 62.9523 36.816C62.8043 36.6687 62.7212 36.4689 62.7212 36.2605C62.7212 36.0522 62.8043 35.8524 62.9523 35.7051C63.1002 35.5577 63.3009 35.475 63.5101 35.475H63.8447C64.0539 35.475 64.2546 35.5577 64.4025 35.7051C64.5505 35.8524 64.6336 36.0522 64.6336 36.2605C64.6336 36.4689 64.5505 36.6687 64.4025 36.816C64.2546 36.9633 64.0539 37.0461 63.8447 37.0461ZM59.5846 37.0461H59.25C59.0408 37.0461 58.8401 36.9633 58.6922 36.816C58.5442 36.6687 58.4611 36.4689 58.4611 36.2605C58.4611 36.0522 58.5442 35.8524 58.6922 35.7051C58.8401 35.5577 59.0408 35.475 59.25 35.475H59.5846C59.7938 35.475 59.9945 35.5577 60.1424 35.7051C60.2904 35.8524 60.3735 36.0522 60.3735 36.2605C60.3735 36.4689 60.2904 36.6687 60.1424 36.816C59.9945 36.9633 59.7938 37.0461 59.5846 37.0461ZM55.3308 37.0461H54.9963C54.787 37.0461 54.5864 36.9633 54.4384 36.816C54.2905 36.6687 54.2074 36.4689 54.2074 36.2605C54.2074 36.0522 54.2905 35.8524 54.4384 35.7051C54.5864 35.5577 54.787 35.475 54.9963 35.475H55.3308C55.54 35.475 55.7407 35.5577 55.8886 35.7051C56.0366 35.8524 56.1197 36.0522 56.1197 36.2605C56.1197 36.4689 56.0366 36.6687 55.8886 36.816C55.7407 36.9633 55.54 37.0461 55.3308 37.0461ZM51.0707 37.0461H50.7362C50.5269 37.0461 50.3263 36.9633 50.1783 36.816C50.0304 36.6687 49.9473 36.4689 49.9473 36.2605C49.9473 36.0522 50.0304 35.8524 50.1783 35.7051C50.3263 35.5577 50.5269 35.475 50.7362 35.475H51.0707C51.2799 35.475 51.4806 35.5577 51.6285 35.7051C51.7765 35.8524 51.8596 36.0522 51.8596 36.2605C51.8596 36.4689 51.7765 36.6687 51.6285 36.816C51.4806 36.9633 51.2799 37.0461 51.0707 37.0461Z" fill="#1C1C1A"/>
<path d="M72.3585 45.0083H72.024C71.8148 45.0083 71.6141 44.9256 71.4662 44.7783C71.3182 44.6309 71.2351 44.4311 71.2351 44.2228C71.2351 44.0145 71.3182 43.8146 71.4662 43.6673C71.6141 43.52 71.8148 43.4373 72.024 43.4373H72.3585C72.5678 43.4373 72.7684 43.52 72.9164 43.6673C73.0643 43.8146 73.1474 44.0145 73.1474 44.2228C73.1474 44.4311 73.0643 44.6309 72.9164 44.7783C72.7684 44.9256 72.5678 45.0083 72.3585 45.0083ZM68.1047 45.0083H67.7639C67.5547 45.0083 67.354 44.9256 67.2061 44.7783C67.0581 44.6309 66.975 44.4311 66.975 44.2228C66.975 44.0145 67.0581 43.8146 67.2061 43.6673C67.354 43.52 67.5547 43.4373 67.7639 43.4373H68.1047C68.314 43.4373 68.5147 43.52 68.6626 43.6673C68.8106 43.8146 68.8937 44.0145 68.8937 44.2228C68.8937 44.4311 68.8106 44.6309 68.6626 44.7783C68.5147 44.9256 68.314 45.0083 68.1047 45.0083ZM63.8447 45.0083H63.5101C63.3009 45.0083 63.1002 44.9256 62.9523 44.7783C62.8043 44.6309 62.7212 44.4311 62.7212 44.2228C62.7212 44.0145 62.8043 43.8146 62.9523 43.6673C63.1002 43.52 63.3009 43.4373 63.5101 43.4373H63.8447C64.0539 43.4373 64.2546 43.52 64.4025 43.6673C64.5505 43.8146 64.6336 44.0145 64.6336 44.2228C64.6336 44.4311 64.5505 44.6309 64.4025 44.7783C64.2546 44.9256 64.0539 45.0083 63.8447 45.0083ZM59.5846 45.0083H59.25C59.0408 45.0083 58.8401 44.9256 58.6922 44.7783C58.5442 44.6309 58.4611 44.4311 58.4611 44.2228C58.4611 44.0145 58.5442 43.8146 58.6922 43.6673C58.8401 43.52 59.0408 43.4373 59.25 43.4373H59.5846C59.7938 43.4373 59.9945 43.52 60.1424 43.6673C60.2904 43.8146 60.3735 44.0145 60.3735 44.2228C60.3735 44.4311 60.2904 44.6309 60.1424 44.7783C59.9945 44.9256 59.7938 45.0083 59.5846 45.0083ZM55.3308 45.0083H54.9963C54.787 45.0083 54.5864 44.9256 54.4384 44.7783C54.2905 44.6309 54.2074 44.4311 54.2074 44.2228C54.2074 44.0145 54.2905 43.8146 54.4384 43.6673C54.5864 43.52 54.787 43.4373 54.9963 43.4373H55.3308C55.54 43.4373 55.7407 43.52 55.8886 43.6673C56.0366 43.8146 56.1197 44.0145 56.1197 44.2228C56.1197 44.4311 56.0366 44.6309 55.8886 44.7783C55.7407 44.9256 55.54 45.0083 55.3308 45.0083ZM51.0707 45.0083H50.7362C50.5269 45.0083 50.3263 44.9256 50.1783 44.7783C50.0304 44.6309 49.9473 44.4311 49.9473 44.2228C49.9473 44.0145 50.0304 43.8146 50.1783 43.6673C50.3263 43.52 50.5269 43.4373 50.7362 43.4373H51.0707C51.2799 43.4373 51.4806 43.52 51.6285 43.6673C51.7765 43.8146 51.8596 44.0145 51.8596 44.2228C51.8596 44.4311 51.7765 44.6309 51.6285 44.7783C51.4806 44.9256 51.2799 45.0083 51.0707 45.0083Z" fill="#1C1C1A"/>
<path d="M72.3585 52.9643H72.024C71.8148 52.9643 71.6141 52.8815 71.4662 52.7342C71.3182 52.5869 71.2351 52.3871 71.2351 52.1787C71.2351 51.9704 71.3182 51.7706 71.4662 51.6233C71.6141 51.476 71.8148 51.3932 72.024 51.3932H72.3585C72.5678 51.3932 72.7684 51.476 72.9164 51.6233C73.0643 51.7706 73.1474 51.9704 73.1474 52.1787C73.1474 52.3871 73.0643 52.5869 72.9164 52.7342C72.7684 52.8815 72.5678 52.9643 72.3585 52.9643ZM68.1047 52.9643H67.7639C67.5547 52.9643 67.354 52.8815 67.2061 52.7342C67.0581 52.5869 66.975 52.3871 66.975 52.1787C66.975 51.9704 67.0581 51.7706 67.2061 51.6233C67.354 51.476 67.5547 51.3932 67.7639 51.3932H68.1047C68.314 51.3932 68.5147 51.476 68.6626 51.6233C68.8106 51.7706 68.8937 51.9704 68.8937 52.1787C68.8937 52.3871 68.8106 52.5869 68.6626 52.7342C68.5147 52.8815 68.314 52.9643 68.1047 52.9643ZM63.8447 52.9643H63.5101C63.3009 52.9643 63.1002 52.8815 62.9523 52.7342C62.8043 52.5869 62.7212 52.3871 62.7212 52.1787C62.7212 51.9704 62.8043 51.7706 62.9523 51.6233C63.1002 51.476 63.3009 51.3932 63.5101 51.3932H63.8447C64.0539 51.3932 64.2546 51.476 64.4025 51.6233C64.5505 51.7706 64.6336 51.9704 64.6336 52.1787C64.6336 52.3871 64.5505 52.5869 64.4025 52.7342C64.2546 52.8815 64.0539 52.9643 63.8447 52.9643ZM59.5846 52.9643H59.25C59.0408 52.9643 58.8401 52.8815 58.6922 52.7342C58.5442 52.5869 58.4611 52.3871 58.4611 52.1787C58.4611 51.9704 58.5442 51.7706 58.6922 51.6233C58.8401 51.476 59.0408 51.3932 59.25 51.3932H59.5846C59.7938 51.3932 59.9945 51.476 60.1424 51.6233C60.2904 51.7706 60.3735 51.9704 60.3735 52.1787C60.3735 52.3871 60.2904 52.5869 60.1424 52.7342C59.9945 52.8815 59.7938 52.9643 59.5846 52.9643ZM55.3308 52.9643H54.9963C54.787 52.9643 54.5864 52.8815 54.4384 52.7342C54.2905 52.5869 54.2074 52.3871 54.2074 52.1787C54.2074 51.9704 54.2905 51.7706 54.4384 51.6233C54.5864 51.476 54.787 51.3932 54.9963 51.3932H55.3308C55.54 51.3932 55.7407 51.476 55.8886 51.6233C56.0366 51.7706 56.1197 51.9704 56.1197 52.1787C56.1197 52.3871 56.0366 52.5869 55.8886 52.7342C55.7407 52.8815 55.54 52.9643 55.3308 52.9643ZM51.0707 52.9643H50.7362C50.5269 52.9643 50.3263 52.8815 50.1783 52.7342C50.0304 52.5869 49.9473 52.3871 49.9473 52.1787C49.9473 51.9704 50.0304 51.7706 50.1783 51.6233C50.3263 51.476 50.5269 51.3932 50.7362 51.3932H51.0707C51.2799 51.3932 51.4806 51.476 51.6285 51.6233C51.7765 51.7706 51.8596 51.9704 51.8596 52.1787C51.8596 52.3871 51.7765 52.5869 51.6285 52.7342C51.4806 52.8815 51.2799 52.9643 51.0707 52.9643Z" fill="#1C1C1A"/>
<path d="M72.3585 60.9202H72.024C71.8148 60.9202 71.6141 60.8374 71.4662 60.6901C71.3182 60.5428 71.2351 60.343 71.2351 60.1347C71.2351 59.9263 71.3182 59.7265 71.4662 59.5792C71.6141 59.4319 71.8148 59.3491 72.024 59.3491H72.3585C72.5678 59.3491 72.7684 59.4319 72.9164 59.5792C73.0643 59.7265 73.1474 59.9263 73.1474 60.1347C73.1474 60.343 73.0643 60.5428 72.9164 60.6901C72.7684 60.8374 72.5678 60.9202 72.3585 60.9202ZM68.1047 60.9202H67.7639C67.5547 60.9202 67.354 60.8374 67.2061 60.6901C67.0581 60.5428 66.975 60.343 66.975 60.1347C66.975 59.9263 67.0581 59.7265 67.2061 59.5792C67.354 59.4319 67.5547 59.3491 67.7639 59.3491H68.1047C68.314 59.3491 68.5147 59.4319 68.6626 59.5792C68.8106 59.7265 68.8937 59.9263 68.8937 60.1347C68.8937 60.343 68.8106 60.5428 68.6626 60.6901C68.5147 60.8374 68.314 60.9202 68.1047 60.9202ZM63.8447 60.9202H63.5101C63.3009 60.9202 63.1002 60.8374 62.9523 60.6901C62.8043 60.5428 62.7212 60.343 62.7212 60.1347C62.7212 59.9263 62.8043 59.7265 62.9523 59.5792C63.1002 59.4319 63.3009 59.3491 63.5101 59.3491H63.8447C64.0539 59.3491 64.2546 59.4319 64.4025 59.5792C64.5505 59.7265 64.6336 59.9263 64.6336 60.1347C64.6336 60.343 64.5505 60.5428 64.4025 60.6901C64.2546 60.8374 64.0539 60.9202 63.8447 60.9202ZM59.5846 60.9202H59.25C59.0408 60.9202 58.8401 60.8374 58.6922 60.6901C58.5442 60.5428 58.4611 60.343 58.4611 60.1347C58.4611 59.9263 58.5442 59.7265 58.6922 59.5792C58.8401 59.4319 59.0408 59.3491 59.25 59.3491H59.5846C59.7938 59.3491 59.9945 59.4319 60.1424 59.5792C60.2904 59.7265 60.3735 59.9263 60.3735 60.1347C60.3735 60.343 60.2904 60.5428 60.1424 60.6901C59.9945 60.8374 59.7938 60.9202 59.5846 60.9202ZM55.3308 60.9202H54.9963C54.787 60.9202 54.5864 60.8374 54.4384 60.6901C54.2905 60.5428 54.2074 60.343 54.2074 60.1347C54.2074 59.9263 54.2905 59.7265 54.4384 59.5792C54.5864 59.4319 54.787 59.3491 54.9963 59.3491H55.3308C55.54 59.3491 55.7407 59.4319 55.8886 59.5792C56.0366 59.7265 56.1197 59.9263 56.1197 60.1347C56.1197 60.343 56.0366 60.5428 55.8886 60.6901C55.7407 60.8374 55.54 60.9202 55.3308 60.9202ZM51.0707 60.9202H50.7362C50.5269 60.9202 50.3263 60.8374 50.1783 60.6901C50.0304 60.5428 49.9473 60.343 49.9473 60.1347C49.9473 59.9263 50.0304 59.7265 50.1783 59.5792C50.3263 59.4319 50.5269 59.3491 50.7362 59.3491H51.0707C51.2799 59.3491 51.4806 59.4319 51.6285 59.5792C51.7765 59.7265 51.8596 59.9263 51.8596 60.1347C51.8596 60.343 51.7765 60.5428 51.6285 60.6901C51.4806 60.8374 51.2799 60.9202 51.0707 60.9202Z" fill="#1C1C1A"/>
<path d="M72.3585 68.8761H72.024C71.8148 68.8761 71.6141 68.7934 71.4662 68.6461C71.3182 68.4987 71.2351 68.2989 71.2351 68.0906C71.2351 67.8823 71.3182 67.6825 71.4662 67.5351C71.6141 67.3878 71.8148 67.3051 72.024 67.3051H72.3585C72.5678 67.3051 72.7684 67.3878 72.9164 67.5351C73.0643 67.6825 73.1474 67.8823 73.1474 68.0906C73.1474 68.2989 73.0643 68.4987 72.9164 68.6461C72.7684 68.7934 72.5678 68.8761 72.3585 68.8761ZM68.1047 68.8761H67.7639C67.5547 68.8761 67.354 68.7934 67.2061 68.6461C67.0581 68.4987 66.975 68.2989 66.975 68.0906C66.975 67.8823 67.0581 67.6825 67.2061 67.5351C67.354 67.3878 67.5547 67.3051 67.7639 67.3051H68.1047C68.314 67.3051 68.5147 67.3878 68.6626 67.5351C68.8106 67.6825 68.8937 67.8823 68.8937 68.0906C68.8937 68.2989 68.8106 68.4987 68.6626 68.6461C68.5147 68.7934 68.314 68.8761 68.1047 68.8761ZM63.8447 68.8761H63.5101C63.3009 68.8761 63.1002 68.7934 62.9523 68.6461C62.8043 68.4987 62.7212 68.2989 62.7212 68.0906C62.7212 67.8823 62.8043 67.6825 62.9523 67.5351C63.1002 67.3878 63.3009 67.3051 63.5101 67.3051H63.8447C64.0539 67.3051 64.2546 67.3878 64.4025 67.5351C64.5505 67.6825 64.6336 67.8823 64.6336 68.0906C64.6336 68.2989 64.5505 68.4987 64.4025 68.6461C64.2546 68.7934 64.0539 68.8761 63.8447 68.8761ZM59.5846 68.8761H59.25C59.0408 68.8761 58.8401 68.7934 58.6922 68.6461C58.5442 68.4987 58.4611 68.2989 58.4611 68.0906C58.4611 67.8823 58.5442 67.6825 58.6922 67.5351C58.8401 67.3878 59.0408 67.3051 59.25 67.3051H59.5846C59.7938 67.3051 59.9945 67.3878 60.1424 67.5351C60.2904 67.6825 60.3735 67.8823 60.3735 68.0906C60.3735 68.2989 60.2904 68.4987 60.1424 68.6461C59.9945 68.7934 59.7938 68.8761 59.5846 68.8761ZM55.3308 68.8761H54.9963C54.787 68.8761 54.5864 68.7934 54.4384 68.6461C54.2905 68.4987 54.2074 68.2989 54.2074 68.0906C54.2074 67.8823 54.2905 67.6825 54.4384 67.5351C54.5864 67.3878 54.787 67.3051 54.9963 67.3051H55.3308C55.54 67.3051 55.7407 67.3878 55.8886 67.5351C56.0366 67.6825 56.1197 67.8823 56.1197 68.0906C56.1197 68.2989 56.0366 68.4987 55.8886 68.6461C55.7407 68.7934 55.54 68.8761 55.3308 68.8761ZM51.0707 68.8761H50.7362C50.5269 68.8761 50.3263 68.7934 50.1783 68.6461C50.0304 68.4987 49.9473 68.2989 49.9473 68.0906C49.9473 67.8823 50.0304 67.6825 50.1783 67.5351C50.3263 67.3878 50.5269 67.3051 50.7362 67.3051H51.0707C51.2799 67.3051 51.4806 67.3878 51.6285 67.5351C51.7765 67.6825 51.8596 67.8823 51.8596 68.0906C51.8596 68.2989 51.7765 68.4987 51.6285 68.6461C51.4806 68.7934 51.2799 68.8761 51.0707 68.8761Z" fill="#1C1C1A"/>
<path d="M66.893 94.9937C66.6838 94.9937 66.4831 94.911 66.3351 94.7636C66.1872 94.6163 66.1041 94.4165 66.1041 94.2082V78.6545H56.9086V94.2396C56.9086 94.4479 56.8255 94.6477 56.6776 94.795C56.5296 94.9424 56.3289 95.0251 56.1197 95.0251C55.9105 95.0251 55.7098 94.9424 55.5619 94.795C55.4139 94.6477 55.3308 94.4479 55.3308 94.2396V77.8375C55.3308 77.6292 55.4139 77.4294 55.5619 77.2821C55.7098 77.1348 55.9105 77.052 56.1197 77.052H66.893C67.1022 77.052 67.3029 77.1348 67.4509 77.2821C67.5988 77.4294 67.6819 77.6292 67.6819 77.8375V94.2082C67.6819 94.4165 67.5988 94.6163 67.4509 94.7636C67.3029 94.911 67.1022 94.9937 66.893 94.9937Z" fill="#1C1C1A"/>
<path d="M11.3856 94.9938C11.1764 94.9938 10.9757 94.911 10.8277 94.7637C10.6798 94.6164 10.5967 94.4166 10.5967 94.2082V42.7083C10.5967 42.4999 10.6798 42.3001 10.8277 42.1528C10.9757 42.0055 11.1764 41.9227 11.3856 41.9227C11.5948 41.9227 11.7955 42.0055 11.9434 42.1528C12.0914 42.3001 12.1745 42.4999 12.1745 42.7083V94.2082C12.1745 94.4166 12.0914 94.6164 11.9434 94.7637C11.7955 94.911 11.5948 94.9938 11.3856 94.9938Z" fill="#1C1C1A"/>
<path d="M31.411 52.9643H31.0702C30.861 52.9643 30.6604 52.8815 30.5124 52.7342C30.3645 52.5869 30.2813 52.3871 30.2813 52.1787C30.2813 51.9704 30.3645 51.7706 30.5124 51.6233C30.6604 51.476 30.861 51.3932 31.0702 51.3932H31.411C31.6203 51.3932 31.8209 51.476 31.9689 51.6233C32.1168 51.7706 32.1999 51.9704 32.1999 52.1787C32.1999 52.3871 32.1168 52.5869 31.9689 52.7342C31.8209 52.8815 31.6203 52.9643 31.411 52.9643ZM27.1509 52.9643H26.8164C26.6072 52.9643 26.4065 52.8815 26.2586 52.7342C26.1106 52.5869 26.0275 52.3871 26.0275 52.1787C26.0275 51.9704 26.1106 51.7706 26.2586 51.6233C26.4065 51.476 26.6072 51.3932 26.8164 51.3932H27.1509C27.3602 51.3932 27.5609 51.476 27.7088 51.6233C27.8567 51.7706 27.9398 51.9704 27.9398 52.1787C27.9398 52.3871 27.8567 52.5869 27.7088 52.7342C27.5609 52.8815 27.3602 52.9643 27.1509 52.9643ZM22.8908 52.9643H22.5753C22.3661 52.9643 22.1654 52.8815 22.0174 52.7342C21.8695 52.5869 21.7864 52.3871 21.7864 52.1787C21.7864 51.9704 21.8695 51.7706 22.0174 51.6233C22.1654 51.476 22.3661 51.3932 22.5753 51.3932H22.9098C23.119 51.3932 23.3197 51.476 23.4677 51.6233C23.6156 51.7706 23.6987 51.9704 23.6987 52.1787C23.6987 52.3871 23.6156 52.5869 23.4677 52.7342C23.3197 52.8815 23.119 52.9643 22.9098 52.9643H22.8908Z" fill="#1C1C1A"/>
<path d="M31.411 60.9202H31.0702C30.861 60.9202 30.6604 60.8374 30.5124 60.6901C30.3645 60.5428 30.2813 60.343 30.2813 60.1347C30.2813 59.9263 30.3645 59.7265 30.5124 59.5792C30.6604 59.4319 30.861 59.3491 31.0702 59.3491H31.411C31.6203 59.3491 31.8209 59.4319 31.9689 59.5792C32.1168 59.7265 32.1999 59.9263 32.1999 60.1347C32.1999 60.343 32.1168 60.5428 31.9689 60.6901C31.8209 60.8374 31.6203 60.9202 31.411 60.9202ZM27.1509 60.9202H26.8164C26.6072 60.9202 26.4065 60.8374 26.2586 60.6901C26.1106 60.5428 26.0275 60.343 26.0275 60.1347C26.0275 59.9263 26.1106 59.7265 26.2586 59.5792C26.4065 59.4319 26.6072 59.3491 26.8164 59.3491H27.1509C27.3602 59.3491 27.5609 59.4319 27.7088 59.5792C27.8567 59.7265 27.9398 59.9263 27.9398 60.1347C27.9398 60.343 27.8567 60.5428 27.7088 60.6901C27.5609 60.8374 27.3602 60.9202 27.1509 60.9202ZM22.8908 60.9202H22.5753C22.3661 60.9202 22.1654 60.8374 22.0174 60.6901C21.8695 60.5428 21.7864 60.343 21.7864 60.1347C21.7864 59.9263 21.8695 59.7265 22.0174 59.5792C22.1654 59.4319 22.3661 59.3491 22.5753 59.3491H22.9098C23.119 59.3491 23.3197 59.4319 23.4677 59.5792C23.6156 59.7265 23.6987 59.9263 23.6987 60.1347C23.6987 60.343 23.6156 60.5428 23.4677 60.6901C23.3197 60.8374 23.119 60.9202 22.9098 60.9202H22.8908Z" fill="#1C1C1A"/>
<path d="M31.411 68.8761H31.0702C30.861 68.8761 30.6604 68.7934 30.5124 68.6461C30.3645 68.4987 30.2813 68.2989 30.2813 68.0906C30.2813 67.8823 30.3645 67.6825 30.5124 67.5351C30.6604 67.3878 30.861 67.3051 31.0702 67.3051H31.411C31.6203 67.3051 31.8209 67.3878 31.9689 67.5351C32.1168 67.6825 32.1999 67.8823 32.1999 68.0906C32.1999 68.2989 32.1168 68.4987 31.9689 68.6461C31.8209 68.7934 31.6203 68.8761 31.411 68.8761ZM27.1509 68.8761H26.8164C26.6072 68.8761 26.4065 68.7934 26.2586 68.6461C26.1106 68.4987 26.0275 68.2989 26.0275 68.0906C26.0275 67.8823 26.1106 67.6825 26.2586 67.5351C26.4065 67.3878 26.6072 67.3051 26.8164 67.3051H27.1509C27.3602 67.3051 27.5609 67.3878 27.7088 67.5351C27.8567 67.6825 27.9398 67.8823 27.9398 68.0906C27.9398 68.2989 27.8567 68.4987 27.7088 68.6461C27.5609 68.7934 27.3602 68.8761 27.1509 68.8761ZM22.8908 68.8761H22.5753C22.3661 68.8761 22.1654 68.7934 22.0174 68.6461C21.8695 68.4987 21.7864 68.2989 21.7864 68.0906C21.7864 67.8823 21.8695 67.6825 22.0174 67.5351C22.1654 67.3878 22.3661 67.3051 22.5753 67.3051H22.9098C23.119 67.3051 23.3197 67.3878 23.4677 67.5351C23.6156 67.6825 23.6987 67.8823 23.6987 68.0906C23.6987 68.2989 23.6156 68.4987 23.4677 68.6461C23.3197 68.7934 23.119 68.8761 22.9098 68.8761H22.8908Z" fill="#1C1C1A"/>
<path d="M31.411 76.8321H31.0702C30.861 76.8321 30.6604 76.7493 30.5124 76.602C30.3645 76.4547 30.2813 76.2549 30.2813 76.0465C30.2813 75.8382 30.3645 75.6384 30.5124 75.4911C30.6604 75.3438 30.861 75.261 31.0702 75.261H31.411C31.6203 75.261 31.8209 75.3438 31.9689 75.4911C32.1168 75.6384 32.1999 75.8382 32.1999 76.0465C32.1999 76.2549 32.1168 76.4547 31.9689 76.602C31.8209 76.7493 31.6203 76.8321 31.411 76.8321ZM27.1509 76.8321H26.8164C26.6072 76.8321 26.4065 76.7493 26.2586 76.602C26.1106 76.4547 26.0275 76.2549 26.0275 76.0465C26.0275 75.8382 26.1106 75.6384 26.2586 75.4911C26.4065 75.3438 26.6072 75.261 26.8164 75.261H27.1509C27.3602 75.261 27.5609 75.3438 27.7088 75.4911C27.8567 75.6384 27.9398 75.8382 27.9398 76.0465C27.9398 76.2549 27.8567 76.4547 27.7088 76.602C27.5609 76.7493 27.3602 76.8321 27.1509 76.8321ZM22.8908 76.8321H22.5753C22.3661 76.8321 22.1654 76.7493 22.0174 76.602C21.8695 76.4547 21.7864 76.2549 21.7864 76.0465C21.7864 75.8382 21.8695 75.6384 22.0174 75.4911C22.1654 75.3438 22.3661 75.261 22.5753 75.261H22.9098C23.119 75.261 23.3197 75.3438 23.4677 75.4911C23.6156 75.6384 23.6987 75.8382 23.6987 76.0465C23.6987 76.2549 23.6156 76.4547 23.4677 76.602C23.3197 76.7493 23.119 76.8321 22.9098 76.8321H22.8908Z" fill="#1C1C1A"/>
<path d="M31.411 84.7942H31.0702C30.861 84.7942 30.6604 84.7115 30.5124 84.5641C30.3645 84.4168 30.2813 84.217 30.2813 84.0087C30.2813 83.8003 30.3645 83.6005 30.5124 83.4532C30.6604 83.3059 30.861 83.2231 31.0702 83.2231H31.411C31.6203 83.2231 31.8209 83.3059 31.9689 83.4532C32.1168 83.6005 32.1999 83.8003 32.1999 84.0087C32.1999 84.217 32.1168 84.4168 31.9689 84.5641C31.8209 84.7115 31.6203 84.7942 31.411 84.7942ZM27.1509 84.7942H26.8164C26.6072 84.7942 26.4065 84.7115 26.2586 84.5641C26.1106 84.4168 26.0275 84.217 26.0275 84.0087C26.0275 83.8003 26.1106 83.6005 26.2586 83.4532C26.4065 83.3059 26.6072 83.2231 26.8164 83.2231H27.1509C27.3602 83.2231 27.5609 83.3059 27.7088 83.4532C27.8567 83.6005 27.9398 83.8003 27.9398 84.0087C27.9398 84.217 27.8567 84.4168 27.7088 84.5641C27.5609 84.7115 27.3602 84.7942 27.1509 84.7942ZM22.8908 84.7942H22.5753C22.3661 84.7942 22.1654 84.7115 22.0174 84.5641C21.8695 84.4168 21.7864 84.217 21.7864 84.0087C21.7864 83.8003 21.8695 83.6005 22.0174 83.4532C22.1654 83.3059 22.3661 83.2231 22.5753 83.2231H22.9098C23.119 83.2231 23.3197 83.3059 23.4677 83.4532C23.6156 83.6005 23.6987 83.8003 23.6987 84.0087C23.6987 84.217 23.6156 84.4168 23.4677 84.5641C23.3197 84.7115 23.119 84.7942 22.9098 84.7942H22.8908Z" fill="#1C1C1A"/>
<path d="M122.211 94.9937H0.788907C0.579676 94.9937 0.378997 94.9109 0.231048 94.7636C0.0830992 94.6163 0 94.4165 0 94.2081C0 93.9998 0.0830992 93.8 0.231048 93.6527C0.378997 93.5054 0.579676 93.4226 0.788907 93.4226H122.211C122.42 93.4226 122.621 93.5054 122.769 93.6527C122.917 93.8 123 93.9998 123 94.2081C123 94.4165 122.917 94.6163 122.769 94.7636C122.621 94.9109 122.42 94.9937 122.211 94.9937Z" fill="#1C1C1A"/>
<path d="M72.3585 13.1783H72.024C71.8148 13.1783 71.6141 13.0955 71.4662 12.9482C71.3182 12.8009 71.2351 12.6011 71.2351 12.3927C71.2351 12.1844 71.3182 11.9846 71.4662 11.8373C71.6141 11.6899 71.8148 11.6072 72.024 11.6072H72.3585C72.5678 11.6072 72.7684 11.6899 72.9164 11.8373C73.0643 11.9846 73.1474 12.1844 73.1474 12.3927C73.1474 12.6011 73.0643 12.8009 72.9164 12.9482C72.7684 13.0955 72.5678 13.1783 72.3585 13.1783ZM68.1047 13.1783H67.7639C67.5547 13.1783 67.354 13.0955 67.2061 12.9482C67.0581 12.8009 66.975 12.6011 66.975 12.3927C66.975 12.1844 67.0581 11.9846 67.2061 11.8373C67.354 11.6899 67.5547 11.6072 67.7639 11.6072H68.1047C68.314 11.6072 68.5147 11.6899 68.6626 11.8373C68.8106 11.9846 68.8937 12.1844 68.8937 12.3927C68.8937 12.6011 68.8106 12.8009 68.6626 12.9482C68.5147 13.0955 68.314 13.1783 68.1047 13.1783ZM63.8447 13.1783H63.5101C63.3009 13.1783 63.1002 13.0955 62.9523 12.9482C62.8043 12.8009 62.7212 12.6011 62.7212 12.3927C62.7212 12.1844 62.8043 11.9846 62.9523 11.8373C63.1002 11.6899 63.3009 11.6072 63.5101 11.6072H63.8447C64.0539 11.6072 64.2546 11.6899 64.4025 11.8373C64.5505 11.9846 64.6336 12.1844 64.6336 12.3927C64.6336 12.6011 64.5505 12.8009 64.4025 12.9482C64.2546 13.0955 64.0539 13.1783 63.8447 13.1783ZM59.5846 13.1783H59.25C59.0408 13.1783 58.8401 13.0955 58.6922 12.9482C58.5442 12.8009 58.4611 12.6011 58.4611 12.3927C58.4611 12.1844 58.5442 11.9846 58.6922 11.8373C58.8401 11.6899 59.0408 11.6072 59.25 11.6072H59.5846C59.7938 11.6072 59.9945 11.6899 60.1424 11.8373C60.2904 11.9846 60.3735 12.1844 60.3735 12.3927C60.3735 12.6011 60.2904 12.8009 60.1424 12.9482C59.9945 13.0955 59.7938 13.1783 59.5846 13.1783ZM55.3308 13.1783H54.9963C54.787 13.1783 54.5864 13.0955 54.4384 12.9482C54.2905 12.8009 54.2074 12.6011 54.2074 12.3927C54.2074 12.1844 54.2905 11.9846 54.4384 11.8373C54.5864 11.6899 54.787 11.6072 54.9963 11.6072H55.3308C55.54 11.6072 55.7407 11.6899 55.8886 11.8373C56.0366 11.9846 56.1197 12.1844 56.1197 12.3927C56.1197 12.6011 56.0366 12.8009 55.8886 12.9482C55.7407 13.0955 55.54 13.1783 55.3308 13.1783ZM51.0707 13.1783H50.7362C50.5269 13.1783 50.3263 13.0955 50.1783 12.9482C50.0304 12.8009 49.9473 12.6011 49.9473 12.3927C49.9473 12.1844 50.0304 11.9846 50.1783 11.8373C50.3263 11.6899 50.5269 11.6072 50.7362 11.6072H51.0707C51.2799 11.6072 51.4806 11.6899 51.6285 11.8373C51.7765 11.9846 51.8596 12.1844 51.8596 12.3927C51.8596 12.6011 51.7765 12.8009 51.6285 12.9482C51.4806 13.0955 51.2799 13.1783 51.0707 13.1783Z" fill="#1C1C1A"/>
<path d="M72.3585 21.1342H72.024C71.8148 21.1342 71.6141 21.0514 71.4662 20.9041C71.3182 20.7568 71.2351 20.557 71.2351 20.3487C71.2351 20.1403 71.3182 19.9405 71.4662 19.7932C71.6141 19.6459 71.8148 19.5631 72.024 19.5631H72.3585C72.5678 19.5631 72.7684 19.6459 72.9164 19.7932C73.0643 19.9405 73.1474 20.1403 73.1474 20.3487C73.1474 20.557 73.0643 20.7568 72.9164 20.9041C72.7684 21.0514 72.5678 21.1342 72.3585 21.1342ZM68.1047 21.1342H67.7639C67.5547 21.1342 67.354 21.0514 67.2061 20.9041C67.0581 20.7568 66.975 20.557 66.975 20.3487C66.975 20.1403 67.0581 19.9405 67.2061 19.7932C67.354 19.6459 67.5547 19.5631 67.7639 19.5631H68.1047C68.314 19.5631 68.5147 19.6459 68.6626 19.7932C68.8106 19.9405 68.8937 20.1403 68.8937 20.3487C68.8937 20.557 68.8106 20.7568 68.6626 20.9041C68.5147 21.0514 68.314 21.1342 68.1047 21.1342ZM63.8447 21.1342H63.5101C63.3009 21.1342 63.1002 21.0514 62.9523 20.9041C62.8043 20.7568 62.7212 20.557 62.7212 20.3487C62.7212 20.1403 62.8043 19.9405 62.9523 19.7932C63.1002 19.6459 63.3009 19.5631 63.5101 19.5631H63.8447C64.0539 19.5631 64.2546 19.6459 64.4025 19.7932C64.5505 19.9405 64.6336 20.1403 64.6336 20.3487C64.6336 20.557 64.5505 20.7568 64.4025 20.9041C64.2546 21.0514 64.0539 21.1342 63.8447 21.1342ZM59.5846 21.1342H59.25C59.0408 21.1342 58.8401 21.0514 58.6922 20.9041C58.5442 20.7568 58.4611 20.557 58.4611 20.3487C58.4611 20.1403 58.5442 19.9405 58.6922 19.7932C58.8401 19.6459 59.0408 19.5631 59.25 19.5631H59.5846C59.7938 19.5631 59.9945 19.6459 60.1424 19.7932C60.2904 19.9405 60.3735 20.1403 60.3735 20.3487C60.3735 20.557 60.2904 20.7568 60.1424 20.9041C59.9945 21.0514 59.7938 21.1342 59.5846 21.1342ZM55.3308 21.1342H54.9963C54.787 21.1342 54.5864 21.0514 54.4384 20.9041C54.2905 20.7568 54.2074 20.557 54.2074 20.3487C54.2074 20.1403 54.2905 19.9405 54.4384 19.7932C54.5864 19.6459 54.787 19.5631 54.9963 19.5631H55.3308C55.54 19.5631 55.7407 19.6459 55.8886 19.7932C56.0366 19.9405 56.1197 20.1403 56.1197 20.3487C56.1197 20.557 56.0366 20.7568 55.8886 20.9041C55.7407 21.0514 55.54 21.1342 55.3308 21.1342ZM51.0707 21.1342H50.7362C50.5269 21.1342 50.3263 21.0514 50.1783 20.9041C50.0304 20.7568 49.9473 20.557 49.9473 20.3487C49.9473 20.1403 50.0304 19.9405 50.1783 19.7932C50.3263 19.6459 50.5269 19.5631 50.7362 19.5631H51.0707C51.2799 19.5631 51.4806 19.6459 51.6285 19.7932C51.7765 19.9405 51.8596 20.1403 51.8596 20.3487C51.8596 20.557 51.7765 20.7568 51.6285 20.9041C51.4806 21.0514 51.2799 21.1342 51.0707 21.1342Z" fill="#1C1C1A"/>
<path d="M111.627 94.9938C111.418 94.9938 111.217 94.911 111.069 94.7637C110.921 94.6164 110.838 94.4166 110.838 94.2082V42.7083C110.838 42.4999 110.921 42.3001 111.069 42.1528C111.217 42.0055 111.418 41.9227 111.627 41.9227C111.836 41.9227 112.037 42.0055 112.185 42.1528C112.333 42.3001 112.416 42.4999 112.416 42.7083V94.2082C112.416 94.4166 112.333 94.6164 112.185 94.7637C112.037 94.911 111.836 94.9938 111.627 94.9938Z" fill="#1C1C1A"/>
<path d="M100.444 52.9643H100.103C99.8936 52.9643 99.693 52.8815 99.545 52.7342C99.3971 52.5869 99.3139 52.3871 99.3139 52.1787C99.3139 51.9704 99.3971 51.7706 99.545 51.6233C99.693 51.476 99.8936 51.3932 100.103 51.3932H100.444C100.653 51.3932 100.854 51.476 101.002 51.6233C101.149 51.7706 101.233 51.9704 101.233 52.1787C101.233 52.3871 101.149 52.5869 101.002 52.7342C100.854 52.8815 100.653 52.9643 100.444 52.9643ZM96.1836 52.9643H95.8491C95.6398 52.9643 95.4391 52.8815 95.2912 52.7342C95.1432 52.5869 95.0601 52.3871 95.0601 52.1787C95.0601 51.9704 95.1432 51.7706 95.2912 51.6233C95.4391 51.476 95.6398 51.3932 95.8491 51.3932H96.1836C96.3928 51.3932 96.5935 51.476 96.7414 51.6233C96.8894 51.7706 96.9725 51.9704 96.9725 52.1787C96.9725 52.3871 96.8894 52.5869 96.7414 52.7342C96.5935 52.8815 96.3928 52.9643 96.1836 52.9643ZM91.9235 52.9643H91.589C91.3797 52.9643 91.179 52.8815 91.0311 52.7342C90.8831 52.5869 90.8 52.3871 90.8 52.1787C90.8 51.9704 90.8831 51.7706 91.0311 51.6233C91.179 51.476 91.3797 51.3932 91.589 51.3932H91.9235C92.1327 51.3932 92.3334 51.476 92.4813 51.6233C92.6293 51.7706 92.7124 51.9704 92.7124 52.1787C92.7124 52.3871 92.6293 52.5869 92.4813 52.7342C92.3334 52.8815 92.1327 52.9643 91.9235 52.9643Z" fill="#1C1C1A"/>
<path d="M100.444 60.9202H100.103C99.8936 60.9202 99.693 60.8374 99.545 60.6901C99.3971 60.5428 99.3139 60.343 99.3139 60.1347C99.3139 59.9263 99.3971 59.7265 99.545 59.5792C99.693 59.4319 99.8936 59.3491 100.103 59.3491H100.444C100.653 59.3491 100.854 59.4319 101.002 59.5792C101.149 59.7265 101.233 59.9263 101.233 60.1347C101.233 60.343 101.149 60.5428 101.002 60.6901C100.854 60.8374 100.653 60.9202 100.444 60.9202ZM96.1836 60.9202H95.8491C95.6398 60.9202 95.4391 60.8374 95.2912 60.6901C95.1432 60.5428 95.0601 60.343 95.0601 60.1347C95.0601 59.9263 95.1432 59.7265 95.2912 59.5792C95.4391 59.4319 95.6398 59.3491 95.8491 59.3491H96.1836C96.3928 59.3491 96.5935 59.4319 96.7414 59.5792C96.8894 59.7265 96.9725 59.9263 96.9725 60.1347C96.9725 60.343 96.8894 60.5428 96.7414 60.6901C96.5935 60.8374 96.3928 60.9202 96.1836 60.9202ZM91.9235 60.9202H91.589C91.3797 60.9202 91.179 60.8374 91.0311 60.6901C90.8831 60.5428 90.8 60.343 90.8 60.1347C90.8 59.9263 90.8831 59.7265 91.0311 59.5792C91.179 59.4319 91.3797 59.3491 91.589 59.3491H91.9235C92.1327 59.3491 92.3334 59.4319 92.4813 59.5792C92.6293 59.7265 92.7124 59.9263 92.7124 60.1347C92.7124 60.343 92.6293 60.5428 92.4813 60.6901C92.3334 60.8374 92.1327 60.9202 91.9235 60.9202Z" fill="#1C1C1A"/>
<path d="M100.444 68.8761H100.103C99.8936 68.8761 99.693 68.7934 99.545 68.6461C99.3971 68.4987 99.3139 68.2989 99.3139 68.0906C99.3139 67.8823 99.3971 67.6825 99.545 67.5351C99.693 67.3878 99.8936 67.3051 100.103 67.3051H100.444C100.653 67.3051 100.854 67.3878 101.002 67.5351C101.149 67.6825 101.233 67.8823 101.233 68.0906C101.233 68.2989 101.149 68.4987 101.002 68.6461C100.854 68.7934 100.653 68.8761 100.444 68.8761ZM96.1836 68.8761H95.8491C95.6398 68.8761 95.4391 68.7934 95.2912 68.6461C95.1432 68.4987 95.0601 68.2989 95.0601 68.0906C95.0601 67.8823 95.1432 67.6825 95.2912 67.5351C95.4391 67.3878 95.6398 67.3051 95.8491 67.3051H96.1836C96.3928 67.3051 96.5935 67.3878 96.7414 67.5351C96.8894 67.6825 96.9725 67.8823 96.9725 68.0906C96.9725 68.2989 96.8894 68.4987 96.7414 68.6461C96.5935 68.7934 96.3928 68.8761 96.1836 68.8761ZM91.9235 68.8761H91.589C91.3797 68.8761 91.179 68.7934 91.0311 68.6461C90.8831 68.4987 90.8 68.2989 90.8 68.0906C90.8 67.8823 90.8831 67.6825 91.0311 67.5351C91.179 67.3878 91.3797 67.3051 91.589 67.3051H91.9235C92.1327 67.3051 92.3334 67.3878 92.4813 67.5351C92.6293 67.6825 92.7124 67.8823 92.7124 68.0906C92.7124 68.2989 92.6293 68.4987 92.4813 68.6461C92.3334 68.7934 92.1327 68.8761 91.9235 68.8761Z" fill="#1C1C1A"/>
<path d="M100.444 76.8321H100.103C99.8936 76.8321 99.693 76.7493 99.545 76.602C99.3971 76.4547 99.3139 76.2549 99.3139 76.0465C99.3139 75.8382 99.3971 75.6384 99.545 75.4911C99.693 75.3438 99.8936 75.261 100.103 75.261H100.444C100.653 75.261 100.854 75.3438 101.002 75.4911C101.149 75.6384 101.233 75.8382 101.233 76.0465C101.233 76.2549 101.149 76.4547 101.002 76.602C100.854 76.7493 100.653 76.8321 100.444 76.8321ZM96.1836 76.8321H95.8491C95.6398 76.8321 95.4391 76.7493 95.2912 76.602C95.1432 76.4547 95.0601 76.2549 95.0601 76.0465C95.0601 75.8382 95.1432 75.6384 95.2912 75.4911C95.4391 75.3438 95.6398 75.261 95.8491 75.261H96.1836C96.3928 75.261 96.5935 75.3438 96.7414 75.4911C96.8894 75.6384 96.9725 75.8382 96.9725 76.0465C96.9725 76.2549 96.8894 76.4547 96.7414 76.602C96.5935 76.7493 96.3928 76.8321 96.1836 76.8321ZM91.9235 76.8321H91.589C91.3797 76.8321 91.179 76.7493 91.0311 76.602C90.8831 76.4547 90.8 76.2549 90.8 76.0465C90.8 75.8382 90.8831 75.6384 91.0311 75.4911C91.179 75.3438 91.3797 75.261 91.589 75.261H91.9235C92.1327 75.261 92.3334 75.3438 92.4813 75.4911C92.6293 75.6384 92.7124 75.8382 92.7124 76.0465C92.7124 76.2549 92.6293 76.4547 92.4813 76.602C92.3334 76.7493 92.1327 76.8321 91.9235 76.8321Z" fill="#1C1C1A"/>
<path d="M100.444 84.7942H100.103C99.8936 84.7942 99.693 84.7115 99.545 84.5641C99.3971 84.4168 99.3139 84.217 99.3139 84.0087C99.3139 83.8003 99.3971 83.6005 99.545 83.4532C99.693 83.3059 99.8936 83.2231 100.103 83.2231H100.444C100.653 83.2231 100.854 83.3059 101.002 83.4532C101.149 83.6005 101.233 83.8003 101.233 84.0087C101.233 84.217 101.149 84.4168 101.002 84.5641C100.854 84.7115 100.653 84.7942 100.444 84.7942ZM96.1836 84.7942H95.8491C95.6398 84.7942 95.4391 84.7115 95.2912 84.5641C95.1432 84.4168 95.0601 84.217 95.0601 84.0087C95.0601 83.8003 95.1432 83.6005 95.2912 83.4532C95.4391 83.3059 95.6398 83.2231 95.8491 83.2231H96.1836C96.3928 83.2231 96.5935 83.3059 96.7414 83.4532C96.8894 83.6005 96.9725 83.8003 96.9725 84.0087C96.9725 84.217 96.8894 84.4168 96.7414 84.5641C96.5935 84.7115 96.3928 84.7942 96.1836 84.7942ZM91.9235 84.7942H91.589C91.3797 84.7942 91.179 84.7115 91.0311 84.5641C90.8831 84.4168 90.8 84.217 90.8 84.0087C90.8 83.8003 90.8831 83.6005 91.0311 83.4532C91.179 83.3059 91.3797 83.2231 91.589 83.2231H91.9235C92.1327 83.2231 92.3334 83.3059 92.4813 83.4532C92.6293 83.6005 92.7124 83.8003 92.7124 84.0087C92.7124 84.217 92.6293 84.4168 92.4813 84.5641C92.3334 84.7115 92.1327 84.7942 91.9235 84.7942Z" fill="#1C1C1A"/>
<path d="M116.178 43.4938H82.8731C82.6639 43.4938 82.4632 43.411 82.3153 43.2637C82.1673 43.1164 82.0842 42.9166 82.0842 42.7083C82.0842 42.4999 82.1673 42.3001 82.3153 42.1528C82.4632 42.0055 82.6639 41.9227 82.8731 41.9227H116.178C116.387 41.9227 116.587 42.0055 116.735 42.1528C116.883 42.3001 116.967 42.4999 116.967 42.7083C116.967 42.9166 116.883 43.1164 116.735 43.2637C116.587 43.411 116.387 43.4938 116.178 43.4938Z" fill="#1C1C1A"/>
<path d="M40.1395 43.4938H6.83505C6.62582 43.4938 6.42514 43.411 6.27719 43.2637C6.12924 43.1164 6.04614 42.9166 6.04614 42.7083C6.04614 42.4999 6.12924 42.3001 6.27719 42.1528C6.42514 42.0055 6.62582 41.9227 6.83505 41.9227H40.1395C40.3487 41.9227 40.5494 42.0055 40.6973 42.1528C40.8453 42.3001 40.9284 42.4999 40.9284 42.7083C40.9284 42.9166 40.8453 43.1164 40.6973 43.2637C40.5494 43.411 40.3487 43.4938 40.1395 43.4938Z" fill="#1C1C1A"/>
<path d="M87.4235 1.57108H35.5829C35.3736 1.57108 35.1729 1.48832 35.025 1.341C34.877 1.19368 34.7939 0.993877 34.7939 0.785539C34.7939 0.577201 34.877 0.377398 35.025 0.230081C35.1729 0.0827637 35.3736 0 35.5829 0H87.4235C87.6327 0 87.8334 0.0827637 87.9813 0.230081C88.1293 0.377398 88.2124 0.577201 88.2124 0.785539C88.2124 0.993877 88.1293 1.19368 87.9813 1.341C87.8334 1.48832 87.6327 1.57108 87.4235 1.57108Z" fill="#1C1C1A"/>
</g>
<defs>
<clipPath id="clip0_87_43743">
<rect width="123" height="95" fill="white"/>
</clipPath>
</defs>
</svg>
