<svg preserveAspectRatio="xMidYMax meet" width="124" height="50" viewBox="0 0 124 50" fill="none" xmlns="http://www.w3.org/2000/svg">
<path d="M124 46.7922H123.893L122.916 46.0193V38.3633C122.916 38.301 122.895 38.2405 122.857 38.1917C122.818 38.1429 122.764 38.1089 122.703 38.0951V38.0243C122.703 37.969 122.686 37.915 122.655 37.8692C122.624 37.8234 122.58 37.788 122.529 37.7676V37.553C122.529 37.5168 122.522 37.481 122.508 37.4476C122.494 37.4142 122.474 37.3838 122.449 37.3583C122.423 37.3328 122.393 37.3125 122.359 37.2988C122.326 37.285 122.29 37.278 122.254 37.2781H122.201C122.131 37.278 122.063 37.3048 122.012 37.3531C121.961 37.4013 121.93 37.4674 121.926 37.5377H121.902C121.864 37.5379 121.826 37.5457 121.791 37.5607V26.7985C121.791 26.7255 121.762 26.6555 121.711 26.6038C121.659 26.5521 121.59 26.5229 121.517 26.5227H121.44C121.424 26.4631 121.39 26.4102 121.341 26.3724C121.293 26.3347 121.234 26.314 121.172 26.3138H116.813C116.751 26.3139 116.692 26.3345 116.643 26.3723C116.595 26.4102 116.561 26.4631 116.546 26.5227H116.47C116.397 26.5227 116.327 26.5517 116.275 26.6035C116.224 26.6552 116.195 26.7254 116.195 26.7985V37.3988H113.197V36.0396C113.197 35.9667 113.168 35.8966 113.117 35.8449C113.065 35.7932 112.995 35.764 112.923 35.7638H112.463V34.6278C112.463 34.5775 112.45 34.5281 112.424 34.485C112.398 34.442 112.361 34.4069 112.316 34.3836V33.4535C112.316 33.4173 112.309 33.3815 112.296 33.348C112.282 33.3146 112.262 33.2841 112.236 33.2585C112.211 33.2329 112.181 33.2126 112.147 33.1987C112.114 33.1848 112.078 33.1777 112.042 33.1777H111.851V22.4845C111.851 22.4189 111.833 22.3546 111.8 22.2984C111.766 22.2422 111.718 22.1963 111.66 22.1655V19.9548C111.66 19.8964 111.642 19.8394 111.608 19.792C111.546 19.7081 111.457 19.6477 111.356 19.6205V17.9616C111.341 17.8724 111.301 17.7894 111.241 17.7218C111.18 17.6541 111.103 17.6045 111.016 17.5785H110.997V17.4932C110.979 17.4044 110.937 17.3224 110.875 17.2565C110.813 17.1905 110.734 17.1431 110.647 17.1197H110.485L110.279 16.6015V16.3591C110.242 16.2373 110.19 16.1208 110.124 16.0124C110.108 15.9812 110.088 15.953 110.062 15.9291V14.8008C110.063 14.7505 110.049 14.7011 110.023 14.658L109.965 14.5623V12.5977C109.965 12.5364 109.945 12.4769 109.907 12.4285C109.87 12.3801 109.817 12.3456 109.758 12.3305V9.91582C109.758 9.84266 109.729 9.7725 109.677 9.72076C109.626 9.66903 109.556 9.63997 109.483 9.63997H109.146C109.11 9.63997 109.074 9.64712 109.04 9.66099C109.007 9.67487 108.977 9.69519 108.951 9.72082C108.926 9.74645 108.906 9.77688 108.892 9.81034C108.878 9.8438 108.871 9.87964 108.871 9.91582V12.3343C108.816 12.3523 108.767 12.3876 108.733 12.4351C108.698 12.4827 108.68 12.54 108.68 12.5987V14.5785L108.626 14.6628C108.598 14.7076 108.583 14.7594 108.583 14.8122V15.9568C108.553 15.9849 108.529 16.0196 108.514 16.0584C108.467 16.109 108.441 16.1758 108.441 16.2452V16.2557C108.405 16.3028 108.386 16.3604 108.386 16.4195V16.611L108.171 16.9942C108.161 17.0134 108.153 17.0336 108.147 17.0545C108.123 17.0716 108.102 17.0919 108.084 17.1149H107.999C107.913 17.1409 107.837 17.1907 107.779 17.2586C107.72 17.3264 107.682 17.4094 107.669 17.498V17.5775C107.508 17.6377 107.376 17.7572 107.3 17.9118V19.6359C107.203 19.6538 107.115 19.7029 107.049 19.7757C107 19.8331 106.973 19.9066 106.973 19.9826V22.1425C106.878 22.2113 106.813 22.3143 106.792 22.4299C106.791 22.4448 106.791 22.4599 106.792 22.4749V33.1911H106.589C106.516 33.1911 106.446 33.22 106.395 33.2715C106.343 33.323 106.314 33.393 106.314 33.466V33.5665C106.27 33.59 106.233 33.6251 106.208 33.668C106.182 33.7108 106.169 33.7599 106.169 33.8098V34.3539H105.924C105.852 34.3541 105.782 34.3833 105.73 34.435C105.679 34.4867 105.65 34.5567 105.65 34.6297V35.7791C105.594 35.7963 105.544 35.8311 105.509 35.8785C105.474 35.9259 105.455 35.9834 105.454 36.0425V37.3682C105.398 37.3864 105.349 37.4222 105.315 37.4702C105.281 37.5183 105.263 37.5762 105.263 37.6354C105.263 37.645 105.263 37.6545 105.263 37.6584C105.263 37.9084 105.263 38.1689 105.263 38.4342C105.221 38.4572 105.185 38.4913 105.159 38.5329C105.134 38.5744 105.12 38.6221 105.119 38.6708H103.287C103.25 38.6708 103.215 38.6779 103.181 38.6918C103.148 38.7057 103.118 38.726 103.092 38.7517C103.067 38.7773 103.047 38.8077 103.033 38.8412C103.019 38.8746 103.012 38.9105 103.012 38.9467V39.1047C102.976 39.1047 102.941 39.1118 102.907 39.1257C102.874 39.1396 102.843 39.1599 102.818 39.1855C102.792 39.2111 102.772 39.2415 102.758 39.275C102.745 39.3085 102.737 39.3443 102.737 39.3806V41.302H99.943V23.4423C99.943 23.4061 99.9359 23.3703 99.922 23.3369C99.9082 23.3034 99.8879 23.2731 99.8624 23.2476C99.8368 23.222 99.8065 23.2018 99.7731 23.188C99.7398 23.1743 99.704 23.1673 99.668 23.1674H98.4598V22.7364C98.4599 22.5643 98.401 22.3974 98.293 22.2637C98.1851 22.13 98.0346 22.0375 97.8668 22.0017L97.84 21.9644C97.8334 21.9567 97.8276 21.9481 97.82 21.9404C97.8095 21.9193 97.7964 21.8997 97.7808 21.882L97.6576 21.7096C97.6219 21.6594 97.5704 21.6227 97.5115 21.6052C97.5344 21.5639 97.5466 21.5174 97.5468 21.4701V21.427C97.5737 21.3832 97.5879 21.3328 97.5879 21.2814V21.2335C97.5879 21.1974 97.5808 21.1615 97.567 21.1281C97.5531 21.0947 97.5328 21.0644 97.5073 21.0388C97.4817 21.0133 97.4514 20.993 97.4181 20.9793C97.3847 20.9655 97.3489 20.9585 97.3129 20.9586H96.9308C96.8948 20.9585 96.859 20.9655 96.8257 20.9793C96.7923 20.993 96.762 21.0133 96.7364 21.0388C96.7109 21.0644 96.6906 21.0947 96.6768 21.1281C96.6629 21.1615 96.6558 21.1974 96.6558 21.2335V21.2814C96.6558 21.3328 96.67 21.3832 96.6969 21.427V21.4701C96.6968 21.517 96.7087 21.5632 96.7313 21.6042C96.6676 21.6198 96.6116 21.6579 96.5737 21.7115L96.5192 21.7881C96.4935 21.7551 96.4605 21.7284 96.423 21.71C96.3855 21.6916 96.3443 21.682 96.3025 21.6818H96.0771V20.6014C96.0771 20.5282 96.0481 20.458 95.9965 20.4063C95.9449 20.3546 95.875 20.3255 95.802 20.3255H95.6473C95.6112 20.3255 95.5755 20.3326 95.5422 20.3465C95.5089 20.3604 95.4786 20.3807 95.4532 20.4064C95.4277 20.432 95.4075 20.4624 95.3938 20.4959C95.3801 20.5293 95.3731 20.5652 95.3732 20.6014V23.4749L95.0046 26.0811C94.9839 26.0764 94.9628 26.0741 94.9416 26.0744H94.7859C94.7498 26.0743 94.7141 26.0813 94.6807 26.0951C94.6473 26.1088 94.617 26.129 94.5914 26.1546C94.5659 26.1801 94.5456 26.2105 94.5318 26.2439C94.5179 26.2773 94.5108 26.3131 94.5108 26.3493V26.6778H93.6169C93.5809 26.6778 93.5451 26.685 93.5118 26.6988C93.4785 26.7127 93.4482 26.7331 93.4228 26.7587C93.3973 26.7843 93.3772 26.8147 93.3634 26.8482C93.3497 26.8817 93.3427 26.9175 93.3428 26.9537V26.9834H93.2894C93.0029 26.9834 92.8529 27.2104 92.6839 28.6117C92.6017 29.2984 92.5435 30.0714 92.5435 30.2295V30.6605H91.3268C91.2538 30.6605 91.1839 30.6895 91.1323 30.7413C91.0807 30.793 91.0518 30.8632 91.0518 30.9363V45.0873C91.0518 45.0988 91.0518 45.1103 91.0518 45.1218V45.2453C91.0518 45.2568 91.0518 45.2674 91.0518 45.2789V46.8535H89.3786V45.2453C89.3785 45.1915 89.3627 45.1389 89.3332 45.094C89.3036 45.0491 89.2617 45.0138 89.2124 44.9925V43.5969C89.2134 43.5258 89.1867 43.457 89.1379 43.4053V42.7425H89.1446C89.2175 42.7425 89.2875 42.7135 89.3391 42.6617C89.3906 42.61 89.4196 42.5398 89.4196 42.4667V41.8441C89.4196 41.7709 89.3906 41.7008 89.3391 41.649C89.2875 41.5973 89.2175 41.5682 89.1446 41.5682H87.6022V40.8364C87.6022 40.7904 87.5908 40.7451 87.5689 40.7047C87.5471 40.6642 87.5155 40.6298 87.4771 40.6047L86.8086 40.1669V34.4592H86.9814C87.0175 34.4594 87.0533 34.4523 87.0866 34.4386C87.12 34.4248 87.1503 34.4046 87.1759 34.3791C87.2014 34.3535 87.2217 34.3232 87.2355 34.2897C87.2494 34.2563 87.2565 34.2205 87.2565 34.1843V32.8079C87.2565 32.7356 87.2282 32.6661 87.1776 32.6145C87.1271 32.5629 87.0583 32.5333 86.9862 32.5321L86.0312 32.5168V31.2754C86.0312 31.2392 86.0241 31.2034 86.0102 31.17C85.9964 31.1366 85.9761 31.1062 85.9506 31.0807C85.925 31.0551 85.8947 31.0349 85.8614 31.0212C85.828 31.0074 85.7922 31.0004 85.7561 31.0005H85.7046C85.6863 30.958 85.6659 30.9164 85.6435 30.876C85.6014 30.7984 85.569 30.7381 85.5795 30.3894C85.6014 29.739 85.3665 29.3291 85.1659 29.1002C85.3426 28.8648 85.4351 28.5767 85.4286 28.2822C85.4215 27.9957 85.3873 27.7106 85.3264 27.4307C85.3073 27.3226 85.2684 27.219 85.2118 27.1251C85.4028 26.9259 85.61 26.652 85.61 26.3819C85.61 25.992 85.5031 25.8263 85.4391 25.7621C85.421 25.6893 85.3913 25.5447 85.3493 25.2641C85.2977 24.9135 85.2538 24.402 85.2166 23.9078L85.2099 23.812C85.1535 23.1147 85.1077 22.6042 85.0351 22.3858C84.9876 22.226 84.9512 22.0631 84.9262 21.8983C84.935 21.8579 84.935 21.816 84.9262 21.7757C84.8822 21.4814 84.8079 21.1925 84.7047 20.9136C84.6426 20.722 84.5824 20.5439 84.5433 20.3677C84.6225 20.3449 84.6953 20.3036 84.7556 20.2471C84.8158 20.1907 84.8619 20.1207 84.89 20.0429C85.0074 19.768 84.9941 19.4874 84.9855 19.2384C84.9855 19.1512 84.9769 19.066 84.9788 18.9865C85.0485 18.8907 85.1163 18.7949 85.185 18.7068C85.3216 18.52 85.463 18.3236 85.6062 18.1426L85.6702 18.1148C85.7617 18.0814 85.8479 18.035 85.9261 17.9769C85.9728 17.94 86.0063 17.8889 86.0216 17.8313L86.0341 17.7863L86.1238 17.7288C86.188 17.626 86.2806 17.5442 86.3903 17.4932C86.4232 17.4456 86.4507 17.3946 86.4724 17.3409L86.5163 17.3285C86.5573 17.3181 86.5952 17.2983 86.6272 17.2708C86.6592 17.2432 86.6843 17.2085 86.7007 17.1695C86.7327 17.0913 86.748 17.0073 86.7457 16.9228C86.7434 16.8384 86.7235 16.7553 86.6873 16.6791L86.7064 16.6503L86.8248 16.4674C86.8462 16.4348 86.8603 16.3981 86.8664 16.3596C86.8725 16.3211 86.8704 16.2818 86.8602 16.2442H86.8716H86.8831C86.9178 16.2317 86.9497 16.2123 86.9768 16.1871C87.0039 16.1619 87.0256 16.1315 87.0407 16.0977C87.0558 16.0639 87.0639 16.0273 87.0645 15.9903C87.0652 15.9532 87.0583 15.9165 87.0445 15.8821C87.0235 15.8304 87.0034 15.7787 86.9824 15.726C86.9614 15.6733 86.9308 15.5938 86.9041 15.5287C86.8832 15.4755 86.8457 15.4304 86.7971 15.4004C86.1945 15.0172 85.5336 14.591 84.7171 14.0594C84.6796 14.0353 84.6369 14.0208 84.5926 14.0169C84.5482 14.0131 84.5036 14.0201 84.4626 14.0373C84.4216 14.0545 84.3853 14.0815 84.3569 14.1159C84.3286 14.1503 84.3089 14.191 84.2997 14.2347C84.2997 14.2586 84.2892 14.2826 84.2845 14.3065C84.2411 14.3042 84.1978 14.3123 84.1582 14.3303C84.1186 14.3483 84.084 14.3757 84.0572 14.41C84.019 14.4569 83.9712 14.5057 83.9196 14.5575C83.8148 14.6545 83.7235 14.7653 83.6484 14.887C83.47 14.5435 83.3266 14.1828 83.2206 13.8104L83.2149 13.7941C83.2072 13.7711 83.1996 13.7462 83.1919 13.7203C83.1375 13.547 83.0544 13.2836 82.7889 13.1657C82.701 13.1265 82.6141 13.0815 82.5234 13.0345L82.3926 12.9675C82.3351 12.8653 82.2566 12.7765 82.1624 12.7069C82.1327 12.5808 82.1116 12.4528 82.0994 12.3238C82.1366 12.2903 82.171 12.2577 82.2035 12.228C82.2313 12.2011 82.2531 12.1686 82.2674 12.1326C82.2818 12.0966 82.2883 12.0579 82.2866 12.0192C82.2691 11.7859 82.2196 11.5561 82.1395 11.3363C82.1261 11.2922 82.1127 11.2501 82.0994 11.2079C82.1368 11.1701 82.1627 11.1222 82.1739 11.07C82.1981 10.9189 82.1826 10.7641 82.129 10.6208C82.1153 10.5794 82.1044 10.5372 82.0965 10.4944C82.5982 10.4414 83.0993 10.3877 83.5997 10.3334C83.6718 10.3252 83.7378 10.2889 83.7834 10.2322C83.829 10.1756 83.8505 10.1032 83.8432 10.0308L83.8356 9.95702C83.8286 9.89211 83.799 9.83177 83.752 9.78658C83.705 9.74139 83.6437 9.71423 83.5787 9.70989L83.1184 9.68307L82.4499 9.64381L83.3848 9.20321C83.4475 9.17405 83.4969 9.12222 83.5231 9.05811C83.5493 8.99399 83.5504 8.92231 83.5262 8.85742L83.4994 8.78558C83.4759 8.72254 83.4302 8.67031 83.3709 8.63873C83.3116 8.60715 83.2429 8.59841 83.1776 8.61414L82.4355 8.79517L82.0803 8.88137C82.2063 8.73769 82.3315 8.59402 82.4556 8.44938C82.6036 8.27889 82.7517 8.10744 82.9006 7.93695C82.9434 7.8885 82.9674 7.82634 82.9684 7.76167V7.64864C82.9694 7.59634 82.9556 7.54484 82.9285 7.50014C82.9014 7.45544 82.8622 7.41939 82.8154 7.39619C82.7686 7.373 82.7163 7.36361 82.6644 7.36914C82.6125 7.37466 82.5633 7.39486 82.5225 7.42739C82.2961 7.60842 82.0707 7.79423 81.8539 7.97526C81.6372 8.15629 81.3965 8.35169 81.1654 8.53751C81.1023 8.51931 81.0393 8.50111 80.9744 8.48674C80.9486 8.16108 80.9199 7.83542 80.8922 7.50976C80.875 7.31819 80.8585 7.12344 80.8426 6.92549C80.8454 6.84011 80.8183 6.75643 80.7659 6.68905C80.7136 6.62166 80.6393 6.57484 80.5561 6.55673C80.5181 6.5472 80.4784 6.54592 80.4399 6.55298C80.4014 6.56005 80.3648 6.57529 80.3326 6.59769C80.3004 6.62009 80.2733 6.64914 80.2533 6.68287C80.2332 6.71661 80.2205 6.75426 80.2161 6.79331C80.1597 7.30191 80.1024 7.84691 80.0365 8.48578C79.984 8.49632 79.9334 8.50877 79.8828 8.52122L79.2802 8.10553C79.0108 7.91843 78.7406 7.7323 78.4694 7.54712C78.4202 7.51293 78.361 7.49608 78.3013 7.49923L78.1828 7.50497C78.1399 7.50699 78.098 7.51904 78.0606 7.54016C78.0231 7.56128 77.9911 7.59088 77.967 7.62661C77.967 7.61608 77.967 7.60459 77.9594 7.59405L77.881 7.28275C77.7404 6.72969 77.6651 6.16194 77.6566 5.59123C77.6683 5.42876 77.6981 5.26812 77.7454 5.11231C77.7801 4.9881 77.8082 4.86213 77.8295 4.73493C77.8309 4.71868 77.8309 4.70233 77.8295 4.68608C77.8246 4.5743 77.8125 4.46296 77.7932 4.35276C77.7755 4.25794 77.7652 4.16185 77.7626 4.06541C77.766 3.9879 77.7535 3.9105 77.7259 3.83802C77.6983 3.76554 77.6562 3.6995 77.6022 3.64396L77.6089 3.60661C77.8146 3.51342 77.9776 3.3458 78.0654 3.13727C78.0785 3.10014 78.0837 3.06066 78.0807 3.02138C78.073 2.93134 78.073 2.83747 78.073 2.73403C78.0732 2.66302 78.0466 2.59457 77.9985 2.54246C77.9985 2.4984 77.9985 2.45625 77.9985 2.41602C78.0549 2.34993 78.1141 2.28194 78.1714 2.21106C78.2087 2.16496 78.2302 2.108 78.2327 2.04865C78.2352 1.98931 78.2185 1.93074 78.1851 1.88167C78.1518 1.8326 78.1035 1.79564 78.0475 1.77629C77.9915 1.75694 77.9308 1.75624 77.8744 1.77428L77.8371 1.78673C77.8273 1.71584 77.7903 1.65158 77.734 1.60762C77.8295 1.38061 77.819 1.11051 77.7053 0.805917C77.7015 0.795456 77.697 0.785216 77.6919 0.77526C77.6375 0.669899 77.5773 0.570295 77.52 0.474512C77.4627 0.378729 77.4083 0.282941 77.3606 0.193863C77.342 0.157894 77.3158 0.126464 77.2838 0.101798C77.2518 0.0771333 77.2147 0.0598397 77.1753 0.0511477C77.1399 0.0264527 77.0994 0.0100824 77.0569 0.00325623C77.0037 -0.00498484 76.9492 0.00249802 76.9002 0.0247817C76.8512 0.0470653 76.8097 0.0831782 76.7809 0.128726C76.7259 0.199344 76.6578 0.258562 76.5803 0.303057C76.5364 0.33275 76.4896 0.365316 76.4428 0.39884C76.403 0.372338 76.3571 0.356701 76.3095 0.353474C76.2619 0.350247 76.2143 0.359537 76.1713 0.380436C76.1284 0.401335 76.0917 0.433116 76.0647 0.47263C76.0378 0.512143 76.0216 0.558028 76.0178 0.605734C76.0178 0.628722 76.0178 0.651708 76.0178 0.675654C76.0176 0.712081 76.0135 0.74838 76.0054 0.783889C75.8582 1.03661 75.7963 1.33019 75.8287 1.62103C75.8092 1.62686 75.7904 1.63456 75.7723 1.64402C75.7307 1.66745 75.6958 1.70128 75.671 1.74223C75.6463 1.78318 75.6325 1.82985 75.631 1.87772C75.6043 1.87772 75.5785 1.87773 75.5518 1.87198L75.4333 1.86336C75.3751 1.85961 75.3172 1.87451 75.268 1.90592C75.2188 1.93734 75.1808 1.98362 75.1596 2.0381C75.1383 2.09259 75.1348 2.15244 75.1497 2.20901C75.1646 2.26558 75.197 2.31594 75.2423 2.35281C75.2662 2.37293 75.292 2.39208 75.3168 2.41124L75.3703 2.45338C75.3703 2.4984 75.3751 2.54917 75.376 2.59323C75.3252 2.64412 75.2961 2.7128 75.2948 2.78479C75.2948 2.88058 75.2948 2.98689 75.2948 3.08746C75.295 3.14135 75.3102 3.19413 75.3388 3.23976C75.4059 3.34282 75.4894 3.43408 75.5861 3.50987C75.5745 3.56363 75.5703 3.61874 75.5737 3.67365C75.5747 3.68718 75.5766 3.70063 75.5795 3.71388C75.5906 3.76154 75.6052 3.80828 75.6234 3.85372C75.6301 3.87288 75.6406 3.90066 75.6444 3.91503C75.6283 4.00875 75.6329 4.10487 75.6578 4.19663C75.6306 4.29369 75.6273 4.39591 75.6482 4.49452C75.5661 4.72918 75.6406 4.96481 75.6883 5.11423C75.6883 5.12381 75.695 5.13339 75.6988 5.14297C75.7608 5.27143 75.8363 5.39281 75.9242 5.50502C75.9462 5.53471 75.9672 5.56345 75.9872 5.59218C75.9537 5.639 75.9303 5.69231 75.9184 5.74871C75.9066 5.80511 75.9066 5.86337 75.9185 5.91977C75.9269 5.98934 75.9494 6.05646 75.9846 6.11705C76.0197 6.17764 76.0668 6.23044 76.1229 6.27224C76.1229 6.2981 76.1171 6.32301 76.1123 6.346C76.0829 6.52998 76.1071 6.71859 76.1821 6.88909C76.2095 6.97903 76.2681 7.05616 76.3473 7.10652C76.3406 7.30575 76.331 7.50497 76.3224 7.70037C76.311 7.96664 76.2986 8.24154 76.2919 8.51356C76.268 8.87447 76.2953 9.23696 76.3731 9.59016C76.3848 9.64527 76.4008 9.6994 76.4208 9.75204C76.4365 9.78928 76.4464 9.82867 76.4504 9.86889C76.4504 9.86889 76.4504 9.8756 76.4504 9.87847C76.44 10.0298 76.4559 10.1818 76.4972 10.3277C76.4714 10.3564 76.4437 10.3861 76.4151 10.4158C76.3486 10.4825 76.2873 10.5542 76.2317 10.6304C76.2251 10.6402 76.2191 10.6505 76.2136 10.661C76.202 10.9902 76.0969 11.3092 75.9108 11.5805C75.8906 11.7035 75.8958 11.8294 75.9261 11.9503L75.9347 11.9914V12.0077C75.9902 12.2688 76.0745 12.5229 76.1859 12.7654C76.2391 12.8649 76.3201 12.9468 76.4189 13.001C76.3988 13.0747 76.3769 13.1485 76.3549 13.2232C76.3501 13.2392 76.3466 13.2555 76.3444 13.2721C76.3343 13.38 76.348 13.4888 76.3847 13.5908C76.4213 13.6928 76.48 13.7854 76.5564 13.8621C76.5873 13.8932 76.6249 13.9168 76.6663 13.931C76.7236 13.9502 76.7809 13.9703 76.8372 13.9914C76.8105 14.1399 76.7809 14.2883 76.7512 14.4339C76.7216 14.5795 76.6892 14.7385 76.6615 14.8917C76.6313 15.0309 76.6343 15.1752 76.6701 15.313C76.7059 15.4508 76.7737 15.5782 76.8678 15.6848L77.0865 15.9281L77.2718 16.1331C77.2495 16.1898 77.2304 16.2477 77.2144 16.3065V16.3189C77.1839 16.4774 77.1865 16.6404 77.2221 16.7978C77.1266 17.0022 77.0311 17.2052 76.9356 17.407L76.7713 17.7537C76.6567 17.9807 76.5087 18.3284 76.5517 18.7116C76.5723 18.8453 76.6287 18.9709 76.7148 19.0751C76.8009 19.1794 76.9135 19.2583 77.0406 19.3035C77.0539 19.3093 77.0676 19.3138 77.0817 19.3169C77.099 19.3217 77.1165 19.3255 77.1342 19.3284C77.161 19.3336 77.1875 19.3403 77.2135 19.3485C77.2247 19.3636 77.2375 19.3774 77.2517 19.3897C77.2956 19.429 77.2784 19.543 77.2374 19.634C77.1724 19.7412 77.1065 19.8485 77.0406 19.9548C76.9976 20.0238 76.9547 20.0928 76.9127 20.1617C76.8818 20.2125 76.868 20.272 76.8735 20.3313C76.8735 20.3542 76.8735 20.3772 76.8783 20.4012C76.8801 20.4655 76.8871 20.5296 76.8993 20.5927C76.9004 20.5995 76.902 20.6063 76.9041 20.6129C76.9289 20.7 76.885 20.8188 76.8324 20.9558C76.7646 21.1377 76.6806 21.3609 76.7369 21.608C76.7369 21.6741 76.7369 21.7345 76.7274 21.7919C76.7259 21.8085 76.7259 21.8252 76.7274 21.8418C76.6808 22.0692 76.6596 22.3011 76.6643 22.5333C76.6806 22.9567 76.82 23.2833 76.9509 23.5984L76.9747 23.653C77.0359 23.7986 77.0234 23.9691 77.0053 24.2047C76.9895 24.3738 76.9832 24.5436 76.9862 24.7133C77.0043 25.3033 76.9509 25.4049 76.883 25.5332C76.8195 25.6473 76.7704 25.7689 76.7369 25.8953C76.6969 26.0502 76.6988 26.2131 76.7422 26.3671C76.7857 26.5211 76.8693 26.6607 76.9843 26.7717C76.8764 27.0313 76.7274 27.4872 76.8019 27.8856C76.8372 28.0772 76.7551 28.3722 76.6834 28.6328C76.5975 28.9441 76.5163 29.2381 76.5774 29.4843C76.6117 29.6292 76.6677 29.7681 76.7436 29.8961C76.8016 29.9924 76.8423 30.0981 76.864 30.2084C76.8915 30.302 76.9085 30.3983 76.9146 30.4957C76.8821 30.5605 76.8417 30.621 76.7942 30.6758C76.7322 30.7553 76.6424 30.8597 76.5326 30.9804H76.4437C76.4077 30.9803 76.3719 30.9873 76.3386 31.001C76.3052 31.0148 76.2749 31.035 76.2493 31.0606C76.2237 31.0861 76.2035 31.1165 76.1897 31.1499C76.1758 31.1833 76.1687 31.2191 76.1687 31.2553V31.3721C76.147 31.4087 76.134 31.4497 76.1307 31.492C76.1274 31.5344 76.1339 31.5769 76.1496 31.6164C76.155 31.6296 76.1614 31.6424 76.1687 31.6547V32.4928L75.2137 32.5081C75.1416 32.5094 75.0728 32.539 75.0223 32.5906C74.9717 32.6422 74.9434 32.7116 74.9434 32.784V34.1652C74.9434 34.2014 74.9505 34.2372 74.9644 34.2706C74.9782 34.304 74.9985 34.3344 75.024 34.3599C75.0496 34.3854 75.0799 34.4057 75.1133 34.4194C75.1466 34.4332 75.1824 34.4402 75.2185 34.4401H75.3913V40.1478L74.7228 40.5855C74.6842 40.6107 74.6526 40.6453 74.6307 40.6859C74.6089 40.7266 74.5975 40.7721 74.5977 40.8183L74.6168 44.3967H74.2844C74.2115 44.3967 74.1415 44.4258 74.0899 44.4775C74.0384 44.5292 74.0094 44.5994 74.0094 44.6726V45.3689H73.6952V45.2837C73.7041 45.2558 73.7086 45.2267 73.7086 45.1974V33.6891C73.7086 33.6265 73.6873 33.5657 73.6482 33.5167C73.6092 33.4678 73.5547 33.4337 73.4937 33.42V30.0618C73.4937 30.0067 73.4773 29.9529 73.4465 29.9073C73.4156 29.8617 73.3719 29.8264 73.3208 29.8061V29.5915C73.3208 29.5184 73.2918 29.4482 73.2403 29.3965C73.1887 29.3448 73.1187 29.3157 73.0458 29.3157H72.9904C72.9203 29.3156 72.8528 29.3424 72.8018 29.3907C72.7508 29.439 72.7202 29.505 72.7163 29.5753H72.6915C72.6298 29.5752 72.5699 29.596 72.5214 29.6342C72.4729 29.6724 72.4386 29.7259 72.4241 29.786H71.046C71.0098 29.786 70.9741 29.7931 70.9407 29.807C70.9073 29.8208 70.877 29.8412 70.8515 29.8668C70.8259 29.8924 70.8057 29.9228 70.7919 29.9563C70.778 29.9897 70.7709 30.0256 70.7709 30.0618V33.42C70.7101 33.4339 70.6558 33.4681 70.617 33.517C70.5781 33.5659 70.5569 33.6266 70.557 33.6891V45.0547C70.5212 45.1022 70.5018 45.16 70.5016 45.2195V46.3133H70.323L70.2848 37.6775C70.2845 37.6048 70.2556 37.5351 70.2042 37.4838C70.1528 37.4324 70.0833 37.4036 70.0107 37.4036H66.3052V22.1933C66.3052 22.1201 66.2763 22.0499 66.2247 21.9982C66.1731 21.9465 66.1031 21.9174 66.0302 21.9174H65.9089V20.4519C65.9087 20.3789 65.8796 20.309 65.828 20.2575C65.7765 20.206 65.7066 20.177 65.6339 20.177H65.589V19.8514C65.589 19.8152 65.5818 19.7794 65.568 19.746C65.5542 19.7125 65.5339 19.6822 65.5083 19.6567C65.4828 19.6311 65.4525 19.6109 65.4191 19.5971C65.3857 19.5834 65.35 19.5764 65.3139 19.5765H65.2184C65.1457 19.5765 65.076 19.6054 65.0246 19.657C64.9732 19.7086 64.9443 19.7785 64.9443 19.8514V19.973C64.8948 19.9306 64.8318 19.9075 64.7667 19.9079H64.6712C64.6345 19.908 64.5982 19.9151 64.5642 19.929C64.4477 19.4443 63.9301 18.3179 63.2043 18.3179C62.3763 18.3179 61.8195 19.7862 61.8195 20.0908V20.177H61.6285C61.5557 20.177 61.4859 20.206 61.4343 20.2575C61.3828 20.309 61.3537 20.3789 61.3534 20.4519V21.6971H61.2885C61.2696 21.697 61.2507 21.699 61.2321 21.7029H61.1605C61.1417 21.6991 61.1225 21.6971 61.1032 21.6971H60.6849C60.666 21.697 60.6471 21.699 60.6286 21.7029H60.5579C60.5391 21.6991 60.5199 21.6971 60.5006 21.6971H60.1463C60.0734 21.6971 60.0034 21.7262 59.9518 21.7779C59.9002 21.8296 59.8712 21.8998 59.8712 21.973V44.5298C59.8269 44.58 59.8024 44.6448 59.8025 44.7118V45.0614C59.8024 45.1288 59.8268 45.1939 59.8712 45.2444V47.3784H59.1158V41.2301C59.1407 41.2049 59.1603 41.175 59.1736 41.1421C59.1869 41.1092 59.1935 41.074 59.1932 41.0386V40.3259C59.1933 40.2898 59.1863 40.254 59.1726 40.2206C59.1588 40.1872 59.1387 40.1568 59.1132 40.1313C59.0877 40.1057 59.0574 40.0855 59.0241 40.0717C58.9908 40.0579 58.9551 40.0509 58.9191 40.051H58.7577L57.328 37.4055C57.3046 37.3617 57.2698 37.325 57.2272 37.2994C57.1847 37.2739 57.136 37.2604 57.0864 37.2604C57.0368 37.2604 56.9882 37.2739 56.9456 37.2994C56.9031 37.325 56.8682 37.3617 56.8448 37.4055L55.4247 40.0462H55.2633C55.2272 40.0461 55.1914 40.0531 55.1581 40.0669C55.1247 40.0807 55.0944 40.1009 55.0689 40.1264C55.0433 40.152 55.023 40.1823 55.0092 40.2157C54.9954 40.2491 54.9882 40.285 54.9882 40.3211V41.0338C54.988 41.1053 55.0158 41.1741 55.0656 41.2253V47.5345H54.3178V46.6227C54.3176 46.5685 54.3016 46.5156 54.2717 46.4705C54.2418 46.4254 54.1994 46.39 54.1497 46.3689V36.7044C54.1497 36.6312 54.1207 36.5611 54.0692 36.5093C54.0176 36.4576 53.9476 36.4285 53.8747 36.4285H52.7926V34.6671C52.7926 34.5939 52.7637 34.5238 52.7121 34.472C52.6605 34.4203 52.5905 34.3912 52.5176 34.3912H52.2368V32.5417C52.2368 32.5054 52.2297 32.4696 52.2159 32.4361C52.202 32.4026 52.1818 32.3722 52.1562 32.3466C52.1307 32.321 52.1004 32.3007 52.067 32.2868C52.0336 32.2729 51.9979 32.2658 51.9618 32.2658H51.6829V30.2113C51.6834 30.202 51.6834 30.1927 51.6829 30.1835C51.6759 30.1012 51.6485 30.0219 51.6031 29.953C51.5577 29.8841 51.4959 29.8276 51.4231 29.7889V29.1758C51.4231 29.1033 51.3947 29.0337 51.3439 28.9821C51.2932 28.9305 51.2242 28.901 51.1519 28.9V28.5236C51.1947 28.4998 51.2304 28.465 51.2552 28.4227C51.2801 28.3804 51.2932 28.3322 51.2933 28.2831V27.8473C51.2933 27.8112 51.2861 27.7753 51.2723 27.7419C51.2585 27.7085 51.2382 27.6782 51.2126 27.6526C51.1871 27.6271 51.1568 27.6068 51.1234 27.5931C51.09 27.5793 51.0543 27.5723 51.0182 27.5724H50.8692V20.3111C50.9178 20.2895 50.9591 20.2542 50.9881 20.2094C51.0171 20.1647 51.0325 20.1126 51.0325 20.0592V19.8523C51.0325 19.7792 51.0036 19.709 50.952 19.6573C50.9004 19.6055 50.8304 19.5765 50.7575 19.5765H50.62V18.4549C50.5173 18.3187 50.416 18.1814 50.3163 18.043V17.725C50.3163 17.6718 50.3007 17.6198 50.2714 17.5756C50.2674 17.5171 50.245 17.4615 50.2074 17.4166V16.9377C50.2074 16.8962 50.198 16.8553 50.18 16.8179C50.1619 16.7806 50.1357 16.7479 50.1033 16.7222C50.0922 16.6922 50.076 16.6643 50.0556 16.6398V16.2183C50.0563 16.146 50.0373 16.0748 50.0008 16.0124C49.9643 15.9499 49.9116 15.8986 49.8483 15.8639V15.4128C49.8483 15.3682 49.8376 15.3242 49.817 15.2847C49.7963 15.2451 49.7664 15.2112 49.7299 15.1858C49.7295 15.1265 49.7105 15.0688 49.6755 15.0211V14.6197C49.6755 14.5484 49.6481 14.4798 49.599 14.4282V14.4224C49.5988 14.3572 49.5758 14.2942 49.5341 14.2442V13.66C49.534 13.5948 49.511 13.5317 49.4692 13.4818V12.7558C49.4696 12.6844 49.4421 12.6157 49.3927 12.5642V10.9139C49.3931 10.8738 49.3848 10.834 49.3683 10.7975C49.3518 10.7609 49.3276 10.7284 49.2972 10.7022V10.1514C49.2974 10.1153 49.2904 10.0794 49.2767 10.046C49.2629 10.0125 49.2428 9.98208 49.2173 9.95646C49.1919 9.93083 49.1616 9.91049 49.1283 9.89662C49.095 9.88274 49.0592 9.87559 49.0232 9.87559H48.9582C48.8853 9.87559 48.8153 9.90466 48.7637 9.9564C48.7122 10.0081 48.6832 10.0783 48.6832 10.1514V10.7491C48.6476 10.7966 48.6285 10.8545 48.6287 10.9139V12.5642C48.58 12.616 48.5529 12.6846 48.5533 12.7558V13.4933C48.511 13.543 48.488 13.6062 48.4883 13.6715V14.2462C48.4457 14.2957 48.4224 14.3589 48.4225 14.4243V14.4406C48.3737 14.4924 48.3466 14.561 48.347 14.6322V15.0211C48.2939 15.1507 48.23 15.2757 48.156 15.3946V15.8678C48.0735 15.9169 48.0071 15.9892 47.965 16.0756C47.949 16.1115 47.9408 16.1503 47.9411 16.1896V16.6436C47.9254 16.6615 47.9122 16.6815 47.902 16.703C47.8723 16.7285 47.8485 16.7601 47.832 16.7956C47.8156 16.8311 47.8068 16.8698 47.8065 16.9089V17.4195C47.7598 17.5162 47.7164 17.6146 47.6766 17.7145V17.9855C47.5692 18.1511 47.4491 18.308 47.3175 18.4549V19.5899H47.1093C47.0732 19.5899 47.0374 19.597 47.0041 19.6109C46.9707 19.6248 46.9404 19.6451 46.9148 19.6707C46.8893 19.6963 46.869 19.7267 46.8552 19.7602C46.8414 19.7936 46.8343 19.8295 46.8343 19.8658V20.0573C46.8343 20.1147 46.8522 20.1706 46.8854 20.2173C46.9186 20.264 46.9655 20.2991 47.0195 20.3178V27.5916H46.9021C46.8293 27.5919 46.7596 27.621 46.7082 27.6727C46.6568 27.7244 46.628 27.7945 46.628 27.8675V28.2918C46.6281 28.3429 46.6423 28.393 46.6691 28.4364C46.6959 28.4799 46.7343 28.515 46.7798 28.5379V28.8808H46.7617C46.6889 28.8808 46.6191 28.9098 46.5675 28.9613C46.516 29.0128 46.4869 29.0827 46.4866 29.1557V29.7649C46.4192 29.8002 46.3606 29.8505 46.3154 29.9119C46.2703 29.9733 46.2396 30.0442 46.2259 30.1193C46.225 30.1321 46.225 30.1449 46.2259 30.1576V32.2869H45.9394C45.8665 32.2869 45.7965 32.3159 45.7449 32.3677C45.6933 32.4194 45.6644 32.4896 45.6644 32.5627V34.3931H45.5689C45.4959 34.3931 45.4259 34.4222 45.3744 34.4739C45.3228 34.5257 45.2938 34.5958 45.2938 34.669V36.2781C45.2938 36.3088 45.2938 36.3394 45.2871 36.3739C45.2826 36.4085 45.2849 36.4437 45.2938 36.4774V36.9697H43.7505V29.2467C43.7505 29.2105 43.7434 29.1746 43.7296 29.1412C43.7157 29.1077 43.6955 29.0773 43.6699 29.0517C43.6444 29.0261 43.6141 29.0057 43.5807 28.9919C43.5473 28.978 43.5116 28.9709 43.4754 28.9709H43.2176L43.1078 28.8885C43.0603 28.8531 43.0027 28.834 42.9435 28.8339H42.9149C42.8843 28.8223 42.852 28.8161 42.8194 28.8157H42.7239C42.6963 28.8154 42.6689 28.8196 42.6427 28.8281H42.5624V27.9968C42.5624 27.9605 42.5553 27.9247 42.5415 27.8912C42.5277 27.8577 42.5074 27.8273 42.4819 27.8017C42.4563 27.7761 42.426 27.7558 42.3926 27.7419C42.3593 27.728 42.3235 27.7209 42.2874 27.7209H42.1919C42.1658 27.721 42.1397 27.7245 42.1145 27.7314H39.2552C39.2191 27.7314 39.1834 27.7386 39.1501 27.7525C39.1168 27.7663 39.0865 27.7867 39.0611 27.8123C39.0356 27.8379 39.0154 27.8683 39.0017 27.9018C38.988 27.9353 38.981 27.9711 38.9811 28.0073V28.9718C38.9111 28.9757 38.8453 29.0064 38.7971 29.0576C38.749 29.1087 38.7222 29.1764 38.7223 29.2467V46.3133H37.9984V39.3212C37.9985 39.285 37.9915 39.2492 37.9778 39.2158C37.9641 39.1824 37.9439 39.1521 37.9184 39.1265C37.8929 39.101 37.8627 39.0807 37.8293 39.0669C37.796 39.0532 37.7603 39.0461 37.7243 39.0463H37.4989V36.6891C37.499 36.6172 37.471 36.5482 37.4211 36.4967C37.3711 36.4451 37.3031 36.4152 37.2315 36.4132L37.0634 35.1335C37.0558 35.0787 37.0322 35.0274 36.9956 34.986C36.9903 34.9479 36.9769 34.9113 36.9565 34.8788L36.7473 34.4372C36.7252 34.3902 36.6902 34.3504 36.6464 34.3226C36.6026 34.2948 36.5518 34.2801 36.5 34.2801H35.4838C35.4319 34.2801 35.381 34.2948 35.337 34.3227C35.2931 34.3505 35.2579 34.3902 35.2355 34.4372L35.013 34.9056C35.0016 34.9302 34.9939 34.9563 34.9901 34.9832C34.9515 35.0247 34.9268 35.0773 34.9194 35.1335L34.7504 36.4132C34.6787 36.4152 34.6107 36.4451 34.5608 36.4967C34.5109 36.5482 34.4829 36.6172 34.483 36.6891V39.0463H34.2585C34.1858 39.0463 34.1161 39.0752 34.0647 39.1268C34.0133 39.1783 33.9844 39.2483 33.9844 39.3212V46.3133H33.0972V31.7352C33.1393 31.711 33.1743 31.6762 33.1986 31.6341C33.2229 31.5921 33.2357 31.5443 33.2357 31.4957V30.1988C33.2355 30.1258 33.2064 30.0559 33.1548 30.0044C33.1033 29.9528 33.0334 29.9239 32.9607 29.9239H32.381V29.0178C32.3808 28.982 32.3737 28.9465 32.36 28.9134L31.4766 26.7458C31.4556 26.6953 31.4202 26.6522 31.3748 26.6218C31.3294 26.5915 31.2761 26.5753 31.2216 26.5753H30.5798L29.9552 21.36C29.9464 21.2937 29.914 21.2328 29.8638 21.1887C29.8136 21.1447 29.7492 21.1204 29.6826 21.1204C29.6159 21.1204 29.5514 21.1447 29.5013 21.1887C29.4511 21.2328 29.4187 21.2937 29.4099 21.36L28.7853 26.5753H28.1426C28.0881 26.5751 28.0348 26.5912 27.9896 26.6216C27.9443 26.652 27.9091 26.6952 27.8885 26.7458L27.0042 28.9134C26.9908 28.9466 26.984 28.982 26.9841 29.0178V29.9239H26.4035C26.3308 29.9239 26.2611 29.9529 26.2097 30.0044C26.1583 30.056 26.1294 30.1259 26.1294 30.1988V31.4957C26.1292 31.5444 26.1419 31.5922 26.1662 31.6343C26.1906 31.6763 26.2257 31.7112 26.2679 31.7352V44.4149L24.8497 44.3871H24.4944V31.2045C24.4944 31.1683 24.4873 31.1324 24.4735 31.099C24.4596 31.0655 24.4394 31.0351 24.4138 31.0095C24.3883 30.9839 24.358 30.9635 24.3246 30.9497C24.2912 30.9358 24.2555 30.9287 24.2193 30.9287H24.0455C24.0303 30.3952 23.3188 28.8119 22.3198 28.8119C21.3209 28.8119 20.6084 30.3952 20.5931 30.9287H20.4193C20.3832 30.9287 20.3474 30.9358 20.3141 30.9497C20.2807 30.9635 20.2504 30.9839 20.2248 31.0095C20.1993 31.0351 20.179 31.0655 20.1652 31.099C20.1514 31.1324 20.1443 31.1683 20.1443 31.2045V43.8354H18.4778V40.0721C18.478 40.0183 18.4624 39.9657 18.4329 39.9208L17.2868 38.1699C17.2619 38.1315 17.2277 38.1 17.1875 38.0783C17.1473 38.0565 17.1024 38.0452 17.0567 38.0453H16.8036V34.4152C16.8038 34.3704 16.793 34.3263 16.7721 34.2868L15.6261 32.1193C15.6027 32.0751 15.5678 32.0382 15.525 32.0125C15.4823 31.9869 15.4333 31.9734 15.3835 31.9737H14.8659V28.1088C14.8655 28.0612 14.8534 28.0145 14.8305 27.9728L13.7361 26.0466C13.7121 26.0043 13.6773 25.9691 13.6354 25.9445C13.5935 25.92 13.5459 25.907 13.4973 25.9068H13.2786C13.2301 25.9069 13.1824 25.9199 13.1405 25.9444C13.0985 25.969 13.0638 26.0042 13.0399 26.0466L11.9454 27.9728C11.9215 28.0141 11.909 28.0611 11.9091 28.1088V31.9737H11.3915C11.3417 31.9735 11.2928 31.987 11.2501 32.0127C11.2073 32.0383 11.1723 32.0752 11.1489 32.1193L10.0029 34.2868C9.98199 34.3263 9.97117 34.3704 9.97138 34.4152V38.0453H9.71926C9.67367 38.0451 9.62876 38.0563 9.58857 38.0779C9.54838 38.0994 9.51419 38.1307 9.48909 38.1689L8.34307 39.9208C8.31351 39.9657 8.2979 40.0183 8.29818 40.0721V48.5594L7.50647 48.5843V39.8413C7.50647 39.7683 7.47762 39.6983 7.42625 39.6466C7.37487 39.5948 7.30516 39.5657 7.23238 39.5654H6.68611C6.64999 39.5654 6.61423 39.5726 6.58086 39.5864C6.54749 39.6003 6.51716 39.6206 6.49162 39.6462C6.46608 39.6718 6.44582 39.7022 6.432 39.7357C6.41817 39.7692 6.41106 39.805 6.41106 39.8413V40.1286H1.09732V39.8413C1.09732 39.7681 1.06834 39.6979 1.01676 39.6462C0.965181 39.5945 0.895219 39.5654 0.822272 39.5654H0.275047C0.2021 39.5654 0.132138 39.5945 0.0805566 39.6462C0.0289755 39.6979 0 39.7681 0 39.8413V49.4492V50H0.276003C0.348706 49.9995 0.418274 49.9702 0.469595 49.9186C0.520916 49.8669 0.549843 49.7971 0.550093 49.7241V40.4332C0.558684 40.4995 0.591058 40.5604 0.641154 40.6044C0.69125 40.6485 0.755634 40.6728 0.822272 40.6727H6.68611C6.75186 40.6727 6.81544 40.649 6.86523 40.6059C6.91502 40.5628 6.94771 40.5032 6.95733 40.438V48.8669C6.95716 48.9041 6.96455 48.941 6.97904 48.9753C6.99352 49.0096 7.01481 49.0406 7.0416 49.0664C7.0684 49.0922 7.10015 49.1123 7.13491 49.1254C7.16968 49.1385 7.20673 49.1444 7.24384 49.1427L8.58087 49.1006C8.65223 49.0986 8.72 49.0688 8.76976 49.0174C8.81952 48.9661 8.84735 48.8973 8.84732 48.8257V40.1526L9.86729 38.5951H10.2493C10.2854 38.5951 10.3212 38.588 10.3545 38.5741C10.3879 38.5603 10.4182 38.5399 10.4438 38.5143C10.4693 38.4887 10.4896 38.4583 10.5034 38.4248C10.5172 38.3914 10.5243 38.3555 10.5243 38.3193V34.488L11.5605 32.5282H12.188C12.2608 32.528 12.3305 32.4988 12.3819 32.4471C12.4332 32.3954 12.4621 32.3254 12.4621 32.2524V28.1864L13.3913 26.5514L14.3206 28.1864V32.2524C14.3206 32.3256 14.3495 32.3957 14.4011 32.4474C14.4527 32.4992 14.5227 32.5282 14.5956 32.5282H15.2221L16.2583 34.488V38.3193C16.2583 38.3555 16.2654 38.3914 16.2792 38.4248C16.293 38.4583 16.3133 38.4887 16.3389 38.5143C16.3644 38.5399 16.3947 38.5603 16.4281 38.5741C16.4615 38.588 16.4972 38.5951 16.5333 38.5951H16.9153L17.9344 40.1526V44.1103C17.9346 44.1833 17.9637 44.2532 18.0152 44.3048C18.0668 44.3563 18.1366 44.3852 18.2094 44.3852H20.4136C20.4863 44.3852 20.556 44.3562 20.6074 44.3047C20.6588 44.2531 20.6877 44.1832 20.6877 44.1103V31.4794H20.8615C20.8975 31.463 20.9366 31.4545 20.9761 31.4545C21.0156 31.4545 21.0547 31.463 21.0907 31.4794H21.487C21.5302 31.4531 21.5798 31.4392 21.6303 31.4392C21.6808 31.4392 21.7304 31.4531 21.7735 31.4794H22.1708C22.2214 31.4796 22.271 31.4657 22.3141 31.4392C22.3568 31.4658 22.4061 31.4797 22.4564 31.4794H22.8518C22.8949 31.4531 22.9445 31.4392 22.995 31.4392C23.0455 31.4392 23.0951 31.4531 23.1383 31.4794H23.5346C23.5742 31.4797 23.6133 31.4712 23.6492 31.4545C23.6851 31.4711 23.7243 31.4796 23.7638 31.4794H23.9376V44.662C23.9375 44.6982 23.9445 44.734 23.9582 44.7674C23.972 44.8008 23.9921 44.8311 24.0176 44.8567C24.0431 44.8822 24.0734 44.9025 24.1067 44.9162C24.14 44.93 24.1757 44.937 24.2117 44.9369H24.8191L26.519 44.981C26.5561 44.9827 26.593 44.9768 26.6277 44.9637C26.6624 44.9507 26.6941 44.9307 26.7209 44.905C26.7477 44.8793 26.769 44.8484 26.7836 44.8142C26.7981 44.78 26.8056 44.7433 26.8055 44.7061V31.4957C26.8055 31.4471 26.7927 31.3993 26.7684 31.3573C26.7441 31.3152 26.7091 31.2804 26.6671 31.2563V30.4747H27.2449C27.3176 30.4744 27.3874 30.4452 27.4387 30.3935C27.4901 30.3418 27.5189 30.2718 27.5189 30.1988V29.0724L28.3126 27.127H29.0145C29.0816 27.1271 29.1463 27.1024 29.1965 27.0577C29.2467 27.0131 29.2787 26.9515 29.2867 26.8847L29.6687 23.7038L30.0507 26.8847C30.0589 26.9516 30.0912 27.0132 30.1415 27.0578C30.1918 27.1025 30.2567 27.1271 30.3238 27.127H31.0248L31.8185 29.0724V30.1998C31.8185 30.2729 31.8474 30.3431 31.899 30.3948C31.9506 30.4466 32.0206 30.4756 32.0935 30.4756H32.6741V31.2572C32.6321 31.2814 32.5971 31.3162 32.5728 31.3583C32.5485 31.4003 32.5357 31.4481 32.5357 31.4967V46.5853C32.5359 46.6583 32.565 46.7283 32.6166 46.7798C32.6681 46.8313 32.7379 46.8602 32.8107 46.8602H34.2433C34.316 46.8602 34.3859 46.8313 34.4374 46.7798C34.489 46.7283 34.518 46.6583 34.5183 46.5853V39.5932H34.7427C34.8155 39.5929 34.8852 39.5638 34.9366 39.5121C34.988 39.4604 35.0168 39.3903 35.0168 39.3173V36.9572C35.0758 36.9486 35.1303 36.9209 35.1722 36.8784C35.2141 36.8359 35.241 36.7809 35.2489 36.7216L35.4179 35.441H35.4409C35.4769 35.4411 35.5127 35.4341 35.546 35.4204C35.5794 35.4066 35.6097 35.3864 35.6353 35.3608C35.6608 35.3353 35.6811 35.3049 35.6949 35.2715C35.7088 35.2381 35.7159 35.2023 35.7159 35.1661V35.0196C35.7162 34.9483 35.6892 34.8797 35.6404 34.828H36.309C36.2602 34.8797 36.2332 34.9483 36.2335 35.0196V35.1661C36.2335 35.2023 36.2406 35.2381 36.2545 35.2715C36.2683 35.3049 36.2886 35.3353 36.3141 35.3608C36.3397 35.3864 36.37 35.4066 36.4034 35.4204C36.4367 35.4341 36.4725 35.4411 36.5086 35.441H36.5315L36.7005 36.7216C36.7084 36.7807 36.7351 36.8357 36.7768 36.8782C36.8185 36.9207 36.8728 36.9484 36.9316 36.9572V39.3173C36.9316 39.3536 36.9387 39.3894 36.9526 39.4229C36.9664 39.4564 36.9866 39.4868 37.0122 39.5124C37.0377 39.538 37.068 39.5583 37.1014 39.5722C37.1348 39.5861 37.1706 39.5932 37.2067 39.5932H37.4311V46.5853C37.4314 46.6583 37.4605 46.7283 37.512 46.7798C37.5636 46.8313 37.6334 46.8602 37.7062 46.8602H38.898C38.9241 46.8679 38.9511 46.8718 38.9783 46.8717C39.0143 46.8719 39.0501 46.8648 39.0834 46.8511C39.1168 46.8373 39.1471 46.8171 39.1727 46.7916C39.1982 46.766 39.2185 46.7357 39.2323 46.7023C39.2462 46.6688 39.2533 46.633 39.2533 46.5968V29.5207C39.3232 29.5165 39.389 29.4858 39.437 29.4347C39.4851 29.3836 39.512 29.316 39.5121 29.2458V28.2822H41.9952V29.1021C41.9952 29.1753 42.0241 29.2454 42.0757 29.2971C42.1273 29.3489 42.1973 29.3779 42.2702 29.3779H42.7162H42.7477C42.769 29.383 42.7908 29.3856 42.8127 29.3856H42.848L42.9578 29.468C43.0053 29.5034 43.0629 29.5225 43.1221 29.5226H43.1966V37.2455C43.1966 37.3187 43.2256 37.3889 43.2771 37.4406C43.3287 37.4923 43.3987 37.5214 43.4716 37.5214H45.565C45.6011 37.5214 45.6368 37.5143 45.6701 37.5004C45.7035 37.4865 45.7337 37.4662 45.7592 37.4406C45.7847 37.4149 45.8048 37.3845 45.8185 37.351C45.8322 37.3176 45.8392 37.2817 45.8391 37.2455V36.4084C45.8406 36.3928 45.8406 36.3771 45.8391 36.3615C45.8391 36.3433 45.8391 36.3241 45.8391 36.305V34.9477H45.9346C46.0074 34.9477 46.0772 34.9188 46.1288 34.8673C46.1803 34.8157 46.2094 34.7458 46.2097 34.6728V32.8415H46.4962C46.569 32.8415 46.6388 32.8125 46.6903 32.761C46.7419 32.7095 46.771 32.6396 46.7712 32.5666V30.2515C46.8416 30.248 46.9079 30.2176 46.9564 30.1664C47.005 30.1152 47.032 30.0472 47.0319 29.9766V29.4354H47.051C47.0872 29.4354 47.1229 29.4283 47.1563 29.4144C47.1897 29.4006 47.22 29.3802 47.2455 29.3546C47.2711 29.329 47.2913 29.2986 47.3052 29.2651C47.319 29.2317 47.3261 29.1958 47.3261 29.1596V28.2975C47.3262 28.2445 47.3109 28.1926 47.2822 28.1481H47.2898C47.3259 28.1482 47.3616 28.1412 47.395 28.1274C47.4284 28.1137 47.4587 28.0935 47.4842 28.0679C47.5098 28.0424 47.5301 28.012 47.5439 27.9786C47.5577 27.9452 47.5648 27.9094 47.5648 27.8732V20.1426H47.583C47.6191 20.1426 47.6549 20.1354 47.6882 20.1216C47.7216 20.1077 47.7519 20.0874 47.7775 20.0618C47.803 20.0362 47.8233 20.0057 47.8371 19.9723C47.8509 19.9388 47.858 19.9029 47.858 19.8667V18.7278C48.0048 18.5831 48.1259 18.4143 48.2162 18.2288V17.9079C48.272 17.8065 48.3156 17.6988 48.3461 17.5871V17.09C48.3617 17.0717 48.3749 17.0514 48.3852 17.0296C48.4148 17.004 48.4385 16.9724 48.455 16.9369C48.4714 16.9014 48.4802 16.8628 48.4807 16.8237V16.3448C48.5423 16.3318 48.5976 16.298 48.6372 16.249C48.6769 16.1999 48.6985 16.1387 48.6984 16.0756V15.635C48.7382 15.6102 48.7709 15.5756 48.7936 15.5345C48.8164 15.4935 48.8283 15.4473 48.8283 15.4004V15.3821C48.8702 15.3323 48.8932 15.2692 48.8933 15.204V14.8285C48.9423 14.7769 48.9697 14.7083 48.9697 14.637V14.6082C48.9667 14.6015 48.9654 14.5942 48.966 14.5868C48.9666 14.5795 48.969 14.5725 48.9729 14.5663C48.9769 14.5601 48.9824 14.5551 48.9888 14.5515C48.9953 14.548 49.0025 14.5462 49.0098 14.5462C49.0171 14.5462 49.0243 14.548 49.0308 14.5515C49.0372 14.5551 49.0427 14.5601 49.0466 14.5663C49.0506 14.5725 49.053 14.5795 49.0536 14.5868C49.0542 14.5942 49.0529 14.6015 49.0499 14.6082V14.6264C49.0496 14.6976 49.0766 14.7663 49.1254 14.818V15.1935C49.1257 15.2528 49.1447 15.3104 49.1798 15.3582V15.4224C49.1798 15.4671 49.1908 15.5111 49.2116 15.5507C49.2324 15.5902 49.2624 15.6241 49.2992 15.6494V16.0756C49.301 16.1363 49.3219 16.1949 49.359 16.2429C49.396 16.2909 49.4473 16.3259 49.5055 16.3429V16.8275C49.505 16.8984 49.5312 16.9668 49.579 17.0191C49.5921 17.0702 49.6196 17.1164 49.6582 17.1522V17.6043C49.6578 17.6725 49.6827 17.7384 49.728 17.7892C49.7348 17.8232 49.7478 17.8556 49.7662 17.885V18.2805C49.7664 18.326 49.7777 18.3708 49.7992 18.4109C49.8207 18.451 49.8516 18.4852 49.8894 18.5104C49.8974 18.5594 49.9185 18.6054 49.9504 18.6433C49.9824 18.6812 50.024 18.7098 50.0708 18.7259V19.8629C50.071 19.9315 50.0966 19.9977 50.1426 20.0485C50.1887 20.0993 50.252 20.1311 50.3201 20.1378V27.8579C50.3201 27.931 50.3491 28.0012 50.4007 28.0529C50.4522 28.1047 50.5222 28.1337 50.5951 28.1337H50.6534C50.6204 28.1805 50.6027 28.2364 50.6028 28.2937V29.1864C50.6028 29.2589 50.6312 29.3285 50.682 29.3801C50.7327 29.4317 50.8017 29.4612 50.874 29.4622V30.0034C50.8717 30.0403 50.8772 30.0773 50.89 30.1119C50.9028 30.1465 50.9227 30.1781 50.9485 30.2045C50.9729 30.2302 51.0027 30.2502 51.0357 30.2631C51.0687 30.276 51.1041 30.2815 51.1395 30.2793V32.5522C51.1395 32.6251 51.1684 32.695 51.2198 32.7466C51.2712 32.7981 51.3409 32.8271 51.4136 32.8271H51.6934V34.6776C51.6934 34.7505 51.7223 34.8204 51.7737 34.872C51.8251 34.9236 51.8948 34.9525 51.9675 34.9525H52.2492V36.7149C52.2492 36.7878 52.2781 36.8577 52.3295 36.9093C52.3809 36.9608 52.4506 36.9898 52.5233 36.9898H53.6034V46.6332C53.6035 46.6877 53.6196 46.7409 53.6497 46.7862C53.6797 46.8315 53.7225 46.8669 53.7725 46.888V47.8209C53.7725 47.8938 53.8014 47.9638 53.8528 48.0153C53.9042 48.0669 53.9739 48.0958 54.0466 48.0958H55.3444C55.3805 48.096 55.4162 48.0889 55.4495 48.0752C55.4828 48.0614 55.5131 48.0412 55.5386 48.0156C55.564 47.9901 55.5842 47.9597 55.5979 47.9263C55.6117 47.8929 55.6187 47.8571 55.6186 47.8209V41.0443C55.6184 40.9728 55.5907 40.9042 55.5412 40.8527V40.6075H55.5918C55.6414 40.6076 55.69 40.5942 55.7325 40.5687C55.7751 40.5432 55.81 40.5067 55.8334 40.4629L57.0902 38.1268L58.347 40.4629C58.3705 40.5067 58.4054 40.5432 58.4479 40.5687C58.4905 40.5942 58.5391 40.6076 58.5887 40.6075H58.6393V40.8527C58.5896 40.9041 58.5619 40.9728 58.5619 41.0443V47.6543C58.5619 47.6905 58.569 47.7263 58.5829 47.7597C58.5967 47.7931 58.617 47.8235 58.6425 47.849C58.6681 47.8745 58.6984 47.8948 58.7318 47.9085C58.7652 47.9223 58.8009 47.9293 58.837 47.9292H59.6201C59.6419 47.9771 59.677 48.0178 59.7212 48.0463C59.7654 48.0749 59.8168 48.0901 59.8694 48.0901H60.1358C60.1718 48.0902 60.2075 48.0832 60.2408 48.0694C60.2741 48.0557 60.3044 48.0354 60.3299 48.0099C60.3554 47.9843 60.3755 47.954 60.3893 47.9205C60.403 47.8871 60.41 47.8513 60.4099 47.8152V45.0614C60.41 44.9944 60.3856 44.9296 60.3411 44.8795V44.8431C60.3855 44.7925 60.4099 44.7274 60.4099 44.6601V22.2469H60.4328C60.4517 22.2508 60.4709 22.2527 60.4901 22.2527H60.6744C60.693 22.2527 60.7116 22.2508 60.7298 22.2469H61.0354C61.0543 22.2508 61.0735 22.2527 61.0927 22.2527H61.1156C61.1298 22.3129 61.1639 22.3665 61.2122 22.4049C61.2606 22.4433 61.3204 22.4643 61.3821 22.4643H61.6256C61.6617 22.4643 61.6975 22.4572 61.7309 22.4433C61.7642 22.4295 61.7946 22.4092 61.8201 22.3835C61.8456 22.3579 61.8659 22.3275 61.8797 22.2941C61.8936 22.2606 61.9007 22.2247 61.9007 22.1885V20.7278H62.0917C62.1277 20.7278 62.1635 20.7206 62.1968 20.7068C62.2301 20.6929 62.2604 20.6726 62.2858 20.6469C62.3113 20.6213 62.3315 20.5909 62.3452 20.5574C62.3589 20.524 62.3659 20.4881 62.3658 20.4519V20.0975C62.3877 19.8447 62.8528 18.8686 63.2014 18.8686C63.55 18.8686 64.0151 19.8447 64.0371 20.0908V20.4519C64.0371 20.4882 64.0442 20.524 64.058 20.5575C64.0718 20.591 64.0921 20.6214 64.1176 20.647C64.1432 20.6726 64.1735 20.6929 64.2068 20.7068C64.2402 20.7207 64.276 20.7278 64.3121 20.7278H64.6683C64.685 20.7277 64.7016 20.726 64.718 20.723C64.7344 20.726 64.751 20.7276 64.7676 20.7278H65.2194C65.2363 20.7277 65.2533 20.7261 65.27 20.723C65.2864 20.726 65.303 20.7277 65.3196 20.7278H65.3655V22.1885C65.3654 22.2247 65.3724 22.2605 65.3861 22.294C65.3998 22.3274 65.42 22.3579 65.4454 22.3835C65.4709 22.4091 65.5012 22.4294 65.5345 22.4433C65.5678 22.4572 65.6035 22.4643 65.6396 22.4643H65.7609V37.6737C65.7609 37.7469 65.7898 37.817 65.8414 37.8688C65.893 37.9205 65.963 37.9496 66.0359 37.9496H69.7462L69.7844 46.5853C69.7846 46.6581 69.8136 46.7278 69.865 46.7791C69.9164 46.8304 69.9859 46.8593 70.0585 46.8593H70.7862C70.859 46.8593 70.9288 46.8303 70.9803 46.7788C71.0319 46.7273 71.061 46.6574 71.0612 46.5844V45.3852C71.0968 45.3373 71.116 45.2792 71.1157 45.2195V33.9573C71.1765 33.9434 71.2308 33.9092 71.2696 33.8603C71.3085 33.8114 71.3297 33.7507 71.3296 33.6882V30.3358H72.701H72.7278H72.7554H72.9522V33.6882C72.9522 33.7508 72.9735 33.8117 73.0125 33.8606C73.0516 33.9095 73.1061 33.9436 73.1671 33.9573V45.1323C73.1583 45.1602 73.1537 45.1893 73.1537 45.2185V45.6658C73.1536 45.702 73.1606 45.7378 73.1743 45.7712C73.188 45.8046 73.2082 45.8349 73.2337 45.8605C73.2592 45.886 73.2894 45.9063 73.3228 45.92C73.3561 45.9338 73.3918 45.9408 73.4278 45.9407H74.2921C74.3281 45.9408 74.3638 45.9338 74.3971 45.92C74.4304 45.9063 74.4607 45.886 74.4862 45.8605C74.5117 45.8349 74.5318 45.8046 74.5456 45.7712C74.5593 45.7378 74.5663 45.702 74.5662 45.6658V44.9724H74.9004C74.9723 44.9717 75.041 44.9424 75.0914 44.8909C75.1421 44.8401 75.1709 44.7713 75.1717 44.6994L75.1516 40.9945L75.7198 40.6248C75.7835 40.6133 75.8411 40.5798 75.8827 40.5301C75.9242 40.4804 75.947 40.4176 75.9471 40.3528V34.1939C75.9471 34.1209 75.9183 34.0509 75.8669 33.9992C75.8155 33.9475 75.7458 33.9183 75.673 33.9181H75.5002V33.0838L76.4552 33.0685C76.5273 33.0672 76.5961 33.0376 76.6466 32.986C76.6972 32.9344 76.7255 32.8649 76.7255 32.7926V31.5474C76.777 31.5344 76.8238 31.5068 76.8601 31.4679C77.0206 31.2965 77.1466 31.1518 77.2355 31.0379C77.5095 30.6844 77.5124 30.5647 77.4074 30.1097C77.3735 29.9475 77.3135 29.7919 77.2297 29.649C77.1781 29.5643 77.1404 29.4718 77.118 29.3751C77.0922 29.2697 77.1629 29.0121 77.2202 28.8004C77.309 28.4814 77.4112 28.1203 77.3491 27.8042C77.287 27.4882 77.4904 27.0025 77.5735 26.8464C77.6048 26.785 77.6123 26.7142 77.5947 26.6475C77.5771 26.5809 77.5355 26.5231 77.478 26.4853C77.4503 26.4681 77.2116 26.3052 77.2765 26.06C77.2993 25.9743 77.333 25.8919 77.3768 25.8148C77.4952 25.5907 77.5678 25.4058 77.5439 24.72C77.5416 24.5701 77.5474 24.4201 77.5611 24.2708C77.5831 23.9921 77.6031 23.7296 77.4885 23.4605L77.4647 23.4049C77.3386 23.1109 77.2307 22.857 77.2183 22.5352C77.2159 22.3207 77.2386 22.1065 77.2861 21.8973C77.2937 21.8613 77.2937 21.8241 77.2861 21.7881C77.2861 21.7268 77.2918 21.6626 77.2918 21.5965C77.2919 21.5689 77.2877 21.5415 77.2794 21.5151C77.2536 21.4308 77.2985 21.3121 77.35 21.1751C77.4198 20.9835 77.5076 20.7565 77.4389 20.4979C77.4333 20.464 77.4301 20.4298 77.4293 20.3954L77.5096 20.2661C77.5802 20.1531 77.6499 20.0391 77.7187 19.9242C77.723 19.9179 77.7265 19.9112 77.7292 19.9041C77.8897 19.5746 77.8553 19.2336 77.6452 19.0229C77.5446 18.9052 77.404 18.8294 77.2507 18.8102H77.2335C77.1695 18.7796 77.1065 18.7278 77.1008 18.6742C77.0807 18.4951 77.1323 18.2911 77.267 18.0229L77.4341 17.6714C77.5439 17.4396 77.6547 17.2078 77.7626 16.9741C77.7884 16.9187 77.7951 16.8564 77.7817 16.7969C77.7511 16.6899 77.742 16.5779 77.755 16.4674C77.7728 16.4075 77.7939 16.3487 77.818 16.2911C77.8295 16.2605 77.8419 16.2298 77.8533 16.1954C77.8706 16.1485 77.8749 16.0979 77.8658 16.0489C77.8568 15.9998 77.8346 15.9541 77.8018 15.9166C77.7024 15.8049 77.6022 15.6935 77.5009 15.5823L77.2822 15.3391C77.2465 15.297 77.221 15.2471 77.2079 15.1933C77.1948 15.1396 77.1944 15.0836 77.2068 15.0297V15.0191C77.2335 14.8688 77.2641 14.7184 77.2947 14.568C77.3405 14.3439 77.3902 14.1111 77.4236 13.8784C77.4334 13.8152 77.4211 13.7506 77.3887 13.6956C77.3563 13.6406 77.3058 13.5985 77.246 13.5766L77.139 13.5374L76.9222 13.4579C76.9067 13.4334 76.8975 13.4054 76.8955 13.3765C76.9413 13.2223 76.9824 13.07 77.0177 12.9234C77.0342 12.8545 77.0236 12.7819 76.988 12.7207C76.9524 12.6595 76.8946 12.6144 76.8267 12.5949C76.7756 12.5824 76.7262 12.5637 76.6796 12.5393C76.5887 12.3366 76.5199 12.1247 76.4743 11.9072L76.4667 11.8688C76.4531 11.818 76.4476 11.7653 76.4504 11.7127C76.4504 11.7031 76.4504 11.6936 76.4552 11.684C76.484 11.588 76.5385 11.5019 76.6128 11.4349C76.6576 11.3863 76.6834 11.323 76.6854 11.2568C76.6854 11.2166 76.6854 11.1754 76.6854 11.1342C76.6805 11.0733 76.6843 11.012 76.6968 10.9522C76.7332 10.9061 76.7725 10.8622 76.8143 10.821C76.8941 10.7417 76.9654 10.6544 77.0273 10.5604C77.0637 10.5012 77.0766 10.4305 77.0635 10.3622C77.0549 10.32 77.0454 10.2788 77.0359 10.2367C77.0098 10.1481 76.9972 10.0561 76.9986 9.96372C77.0095 9.83836 76.9901 9.71222 76.9423 9.59591C76.9305 9.56476 76.9213 9.53273 76.9146 9.50013V9.4915C76.848 9.18694 76.8251 8.87441 76.8467 8.56337V8.5538C76.8534 8.28465 76.8659 8.0107 76.8773 7.74538C76.8888 7.48006 76.9002 7.22911 76.9069 6.96954C76.9082 6.92096 76.8967 6.87289 76.8735 6.83018C76.8504 6.78748 76.8165 6.75163 76.7751 6.72625C76.7481 6.71029 76.72 6.69622 76.6911 6.68411C76.6636 6.62047 76.6512 6.55129 76.6548 6.48201C76.6753 6.3744 76.6846 6.26493 76.6825 6.15539C76.6815 6.10829 76.6689 6.06216 76.6459 6.02107C76.6229 5.97998 76.5902 5.9452 76.5507 5.91977C76.5272 5.90543 76.5046 5.88976 76.4829 5.87283C76.5509 5.78798 76.585 5.68075 76.5784 5.57207C76.5746 5.53307 76.5629 5.49526 76.544 5.46096C76.4915 5.37058 76.4335 5.28357 76.3702 5.20044C76.309 5.12306 76.2552 5.03999 76.2098 4.95236C76.1802 4.85658 76.1439 4.7378 76.1763 4.68321C76.1961 4.65048 76.2088 4.61396 76.2135 4.57601C76.2183 4.53806 76.215 4.49952 76.204 4.4629C76.1945 4.43571 76.1888 4.40735 76.1868 4.37861C76.2067 4.34504 76.2193 4.30764 76.2237 4.26884C76.2282 4.23005 76.2244 4.19074 76.2126 4.15352C76.1983 4.11546 76.1899 4.07539 76.1878 4.03475C76.2067 3.91479 76.1901 3.79191 76.14 3.68132L76.1267 3.64301C76.1267 3.62289 76.1401 3.59128 76.1477 3.56637C76.1553 3.54147 76.1658 3.50796 76.1735 3.47922C76.1884 3.41998 76.1832 3.35744 76.1588 3.30145C76.1345 3.24546 76.0922 3.19916 76.0388 3.16983C75.9671 3.13165 75.9025 3.08144 75.8478 3.02138V2.92559C75.8739 2.89929 75.8945 2.86805 75.9084 2.83368C75.9224 2.79931 75.9294 2.76251 75.929 2.72541V2.66793C75.929 2.57215 75.929 2.48308 75.9175 2.38633C75.9404 2.37388 75.9605 2.36143 75.9796 2.34994C75.9987 2.33844 76.013 2.32982 76.0302 2.3212C76.0433 2.31467 76.0558 2.30698 76.0675 2.29821C76.0843 2.30011 76.1013 2.30011 76.1181 2.29821L76.2556 2.28002C76.2914 2.27541 76.3259 2.26377 76.3571 2.24577C76.3884 2.22777 76.4158 2.20374 76.4378 2.17509C76.4598 2.14644 76.476 2.11373 76.4854 2.07881C76.4947 2.04388 76.4971 2.00745 76.4924 1.9716C76.4759 1.86699 76.4461 1.76494 76.4036 1.66796L76.3769 1.59613C76.3531 1.41349 76.3926 1.22822 76.4886 1.07124V1.06261C76.5291 1.05975 76.5685 1.04786 76.6039 1.02781C76.6392 1.00776 76.6697 0.980058 76.693 0.946715C76.7471 0.882019 76.8116 0.82697 76.884 0.783889C76.9203 0.758985 76.9585 0.733116 76.9967 0.703423L77.0454 0.784848C77.0979 0.872968 77.1476 0.956292 77.1925 1.04058C77.249 1.16031 77.2593 1.29685 77.2211 1.42371L77.2125 1.44766C77.1919 1.50253 77.1676 1.55597 77.1399 1.60762C77.0652 1.7347 77.0162 1.87531 76.9957 2.0214C76.9917 2.05976 76.9958 2.09853 77.0077 2.13521C77.0196 2.17189 77.0391 2.20564 77.0648 2.23428C77.0906 2.26291 77.1221 2.2858 77.1572 2.30144C77.1924 2.31707 77.2304 2.32511 77.2689 2.32503C77.298 2.32503 77.3271 2.32247 77.3558 2.31737C77.3697 2.32743 77.3844 2.33638 77.3997 2.34418L77.437 2.36239V2.37005C77.4446 2.46583 77.4475 2.57502 77.4465 2.70337C77.4457 2.77449 77.4724 2.84315 77.521 2.89494C77.521 2.93325 77.521 2.97157 77.521 3.00988C77.4443 3.08843 77.3523 3.15037 77.2507 3.19187L77.2297 3.20337C77.1917 3.22272 77.1588 3.25073 77.1336 3.28516C77.1084 3.3196 77.0916 3.35949 77.0846 3.40163C77.0731 3.46868 77.0616 3.53572 77.0492 3.60181L77.0311 3.6976C77.0238 3.73761 77.0256 3.77875 77.0361 3.81802C77.0467 3.85728 77.0658 3.89369 77.0922 3.9246C77.1084 3.94472 77.1266 3.96387 77.1447 3.98399C77.1675 4.00701 77.1885 4.03166 77.2077 4.05774C77.2077 4.05774 77.2077 4.05775 77.2077 4.06349C77.208 4.194 77.2205 4.3242 77.245 4.45237C77.2574 4.53474 77.2698 4.61329 77.2737 4.68704C77.2565 4.78282 77.2307 4.8834 77.2039 4.98684C77.1449 5.18471 77.1094 5.38885 77.0979 5.59506C77.1054 6.21293 77.1862 6.82771 77.3386 7.42643L77.4169 7.73868C77.5344 8.20802 77.6557 8.69651 77.7521 9.17543C77.7575 9.20041 77.7662 9.22457 77.7779 9.24726C77.7737 9.27921 77.7753 9.31168 77.7827 9.34305C77.7954 9.42348 77.7986 9.50515 77.7922 9.58634C77.7719 9.78303 77.8049 9.9816 77.8877 10.161C77.9153 10.2135 77.959 10.2557 78.0123 10.2814C78.0656 10.3071 78.1257 10.3149 78.1838 10.3038V10.3535C78.1805 10.4116 78.1955 10.4693 78.2268 10.5183C78.3067 10.618 78.3469 10.744 78.3395 10.8717C78.3328 10.9119 78.3352 10.953 78.3464 10.9921C78.3576 11.0313 78.3774 11.0673 78.4044 11.0978C78.4553 11.1852 78.4838 11.2839 78.4875 11.3851C78.4946 11.4342 78.5147 11.4804 78.5458 11.5189C78.5768 11.5575 78.6176 11.5869 78.6639 11.6042C78.7103 11.6214 78.7603 11.6258 78.809 11.6169C78.8576 11.6081 78.9029 11.5862 78.9402 11.5537L79.0032 11.4991C79.0831 11.4345 79.1578 11.3637 79.2267 11.2874C79.2657 11.243 79.2893 11.187 79.294 11.128C79.2986 11.0689 79.2841 11.0099 79.2525 10.9599C79.2295 10.9235 79.2687 10.8229 79.3031 10.7329C79.3184 10.6936 79.3336 10.6543 79.3461 10.616C79.3661 10.5548 79.3641 10.4884 79.3406 10.4284C79.3171 10.3685 79.2734 10.3186 79.2171 10.2875C79.1945 10.2606 79.1814 10.2269 79.1799 10.1917C79.1633 10.1746 79.1511 10.1536 79.1445 10.1307C79.1378 10.1077 79.1369 10.0835 79.1418 10.0601C79.1467 10.0367 79.1573 10.0149 79.1726 9.99661C79.1879 9.97829 79.2075 9.96404 79.2295 9.9551C79.2582 9.86506 79.2859 9.77311 79.3136 9.68116C79.3317 9.62139 79.329 9.5572 79.3059 9.49917C79.35 9.48569 79.3899 9.46093 79.4215 9.42733C79.4836 9.3622 79.5504 9.29707 79.6201 9.23577C79.6651 9.19607 79.6957 9.1425 79.7071 9.08348C79.7646 9.10931 79.8291 9.11536 79.8904 9.10071L79.9305 9.09018C80.0561 9.05543 80.1837 9.02824 80.3125 9.00876C80.3823 9.00073 80.4464 8.96651 80.4921 8.91298C80.5156 8.94382 80.5453 8.96926 80.5794 8.9876C80.6135 9.00594 80.6512 9.01674 80.6898 9.0193C80.8199 9.03319 80.9481 9.06178 81.0718 9.10455L81.1415 9.12466C81.1928 9.14047 81.2477 9.14047 81.2991 9.12466C81.3128 9.18479 81.3465 9.23847 81.3946 9.27695C81.4497 9.32277 81.4994 9.37484 81.5426 9.43212C81.5653 9.46148 81.5939 9.48565 81.6266 9.503C81.6013 9.55188 81.5913 9.60731 81.598 9.662C81.6114 9.76832 81.6305 9.86793 81.6505 9.96084C81.6583 10 81.6746 10.037 81.6983 10.0691L81.6906 10.0758L81.6811 10.0882C81.6261 10.1408 81.5844 10.2058 81.5595 10.2777C81.5346 10.3497 81.5272 10.4266 81.5378 10.502C81.5443 10.6032 81.5642 10.7031 81.597 10.7989C81.6056 10.8277 81.6133 10.8545 81.62 10.8804C81.575 10.9117 81.5404 10.9558 81.5207 11.007C81.5009 11.0582 81.4969 11.1142 81.5092 11.1677C81.5369 11.2903 81.5741 11.4081 81.6095 11.5211C81.6568 11.6587 81.6938 11.7995 81.7202 11.9426L81.6247 12.025C81.5911 12.0536 81.5648 12.09 81.5482 12.131C81.5315 12.1721 81.525 12.2165 81.5292 12.2606C81.5453 12.5038 81.5869 12.7445 81.6534 12.979C81.6734 13.0421 81.7154 13.0958 81.7718 13.1303C81.8327 13.1604 81.8815 13.2104 81.9103 13.2721C81.9217 13.3081 81.9404 13.3414 81.9652 13.3699C81.99 13.3985 82.0204 13.4215 82.0545 13.4378C82.1242 13.4713 82.193 13.5067 82.2617 13.5422C82.3572 13.591 82.4527 13.6379 82.5559 13.6878C82.595 13.705 82.6313 13.8199 82.6581 13.9042C82.6667 13.931 82.6743 13.9579 82.6839 13.9837C82.8009 14.4003 82.961 14.8035 83.1614 15.1868C83.17 15.2155 83.1843 15.2902 83.1938 15.341C83.2445 15.6034 83.3075 15.9291 83.5997 15.9291C83.8757 15.9291 83.9817 15.6283 84.0868 15.2347C84.1348 15.1302 84.2056 15.0378 84.294 14.9645L84.3332 14.9253L84.379 14.9435C84.4149 14.9573 84.4532 14.9634 84.4916 14.9614C84.53 14.9594 84.5676 14.9494 84.6018 14.932C84.6361 14.9146 84.6664 14.8902 84.6907 14.8603C84.715 14.8304 84.7328 14.7958 84.7429 14.7586C85.377 15.1676 85.9166 15.5134 86.4142 15.8304C86.4142 15.8304 86.4142 15.8381 86.4142 15.841L86.3817 15.8553C86.3198 15.8832 86.2704 15.9331 86.243 15.9953C86.2157 16.0576 86.2123 16.1279 86.2337 16.1925C86.2461 16.2289 86.2585 16.2662 86.2719 16.3036C86.2566 16.3266 86.2413 16.3496 86.227 16.3726L86.12 16.5373C86.0899 16.5827 86.0739 16.636 86.0739 16.6905C86.0739 16.7451 86.0899 16.7984 86.12 16.8438C86.1257 16.8515 86.1324 16.863 86.1401 16.8754C86.092 16.8912 86.0492 16.92 86.0164 16.9587C85.9837 16.9975 85.9624 17.0446 85.9548 17.0947H85.9472C85.8874 17.1013 85.8314 17.1273 85.7877 17.1688C85.7441 17.2104 85.7152 17.2651 85.7055 17.3246L85.7008 17.3543L85.6349 17.3945C85.5739 17.4311 85.5296 17.4903 85.5117 17.5593L85.5002 17.6024L85.4429 17.6263C85.3817 17.6503 85.3223 17.6788 85.2653 17.7116C85.2361 17.7289 85.2105 17.7517 85.1898 17.7786C85.0303 17.9836 84.8737 18.1963 84.7238 18.4012C84.6397 18.5162 84.5551 18.6308 84.4697 18.7451C84.4385 18.7869 84.4197 18.8367 84.4153 18.8888C84.4067 19.0211 84.4067 19.1539 84.4153 19.2863C84.4248 19.496 84.4344 19.6933 84.3637 19.8523C84.3637 19.8523 84.3637 19.86 84.3637 19.8638C84.315 19.8785 84.2652 19.8891 84.2148 19.8954L84.1718 19.9031C84.1032 19.9142 84.0415 19.9511 83.9991 20.0063C83.9567 20.0614 83.9368 20.1307 83.9435 20.2C83.9844 20.5102 84.06 20.8148 84.1689 21.1081C84.251 21.3307 84.3149 21.5598 84.3599 21.7929C84.3512 21.8286 84.3495 21.8657 84.3551 21.9021C84.3868 22.1319 84.436 22.3589 84.5022 22.5812C84.5595 22.7536 84.614 23.4298 84.6502 23.8781L84.6579 23.9739C84.698 24.4777 84.74 24.9978 84.7945 25.3666C84.8575 25.7899 84.8995 26.0754 85.0313 26.1989C85.0444 26.2664 85.0504 26.3351 85.0494 26.4039C85.0494 26.5054 84.8145 26.787 84.5652 26.9786C84.5188 27.0147 84.4852 27.0648 84.4692 27.1215C84.4532 27.1783 84.4558 27.2386 84.4765 27.2938C84.4972 27.3489 84.535 27.396 84.5843 27.428C84.6336 27.4601 84.6918 27.4754 84.7505 27.4719C84.7622 27.5009 84.7709 27.5311 84.7763 27.5619C84.8296 27.8066 84.86 28.0558 84.867 28.3061C84.867 28.7295 84.6235 28.8808 84.6178 28.8808C84.5755 28.904 84.54 28.9378 84.5149 28.979C84.4897 29.0202 84.4758 29.0672 84.4745 29.1155C84.4735 29.1642 84.4851 29.2123 84.5082 29.2551C84.5313 29.298 84.5651 29.334 84.6063 29.3597C84.6244 29.3703 85.0437 29.6404 85.0189 30.3913C85.0045 30.8549 85.0609 30.9957 85.1488 31.1576C85.1844 31.2184 85.2096 31.2848 85.2233 31.3539C85.2357 31.4119 85.2665 31.4642 85.3111 31.503C85.3557 31.5419 85.4117 31.5652 85.4706 31.5695V32.8031C85.4706 32.8755 85.4989 32.9449 85.5495 32.9965C85.6 33.0481 85.6688 33.0777 85.7409 33.079L86.6959 33.0943V33.9286H86.524C86.451 33.9286 86.3811 33.9577 86.3295 34.0094C86.2779 34.0611 86.249 34.1313 86.249 34.2044V40.3633C86.2491 40.4283 86.272 40.4912 86.3138 40.5409C86.3555 40.5906 86.4134 40.6241 86.4772 40.6353L87.0445 41.005L87.0397 41.8623C87.0396 41.8986 87.0466 41.9347 87.0603 41.9683C87.0741 42.0019 87.0943 42.0325 87.1199 42.0583C87.1454 42.0841 87.1758 42.1046 87.2092 42.1186C87.2426 42.1326 87.2785 42.1399 87.3148 42.1401H88.8571V42.2119H88.8504C88.8144 42.2118 88.7786 42.2188 88.7452 42.2325C88.7119 42.2463 88.6815 42.2665 88.656 42.2921C88.6304 42.3176 88.6102 42.348 88.5963 42.3814C88.5825 42.4148 88.5754 42.4506 88.5754 42.4868V43.6142C88.5749 43.6852 88.6015 43.7538 88.6499 43.8057V45.0011C88.6249 45.0438 88.6117 45.0924 88.6117 45.1419V45.2655C88.6118 45.3261 88.6318 45.3849 88.6686 45.433C88.7053 45.4811 88.7568 45.5158 88.8151 45.5317V47.1485C88.8151 47.2217 88.8441 47.2919 88.8956 47.3436C88.9472 47.3953 89.0172 47.4244 89.0901 47.4244H91.3268C91.3629 47.4244 91.3986 47.4173 91.4319 47.4034C91.4652 47.3895 91.4955 47.3692 91.521 47.3435C91.5464 47.3179 91.5666 47.2875 91.5803 47.254C91.594 47.2206 91.601 47.1847 91.6009 47.1485V45.2655C91.6019 45.2543 91.6019 45.2431 91.6009 45.2319V45.1754C91.6018 45.1643 91.6018 45.153 91.6009 45.1419V31.2342H92.809C92.8451 31.2343 92.8808 31.2273 92.9142 31.2136C92.9475 31.1998 92.9779 31.1796 93.0034 31.154C93.029 31.1285 93.0492 31.0982 93.0631 31.0647C93.0769 31.0313 93.084 30.9955 93.084 30.9593V30.2524C93.084 29.9028 93.2636 28.0236 93.4183 27.5552H93.6093C93.6822 27.5552 93.7522 27.5261 93.8038 27.4744C93.8554 27.4227 93.8843 27.3525 93.8843 27.2793V27.2487H94.6589V28.5082C94.6592 28.5778 94.6858 28.6447 94.7332 28.6955C94.7807 28.7463 94.8455 28.7772 94.9147 28.782C94.984 28.7869 95.0525 28.7653 95.1065 28.7216C95.1605 28.678 95.1961 28.6154 95.2061 28.5466L95.9118 23.5486C95.9128 23.5358 95.9128 23.523 95.9118 23.5103V22.2517H96.0169V22.2814C96.0169 22.3546 96.0459 22.4247 96.0975 22.4765C96.149 22.5282 96.219 22.5572 96.2919 22.5572H96.5068C96.5505 22.5572 96.5935 22.5467 96.6324 22.5268C96.6712 22.5068 96.7048 22.4778 96.7303 22.4423L96.7456 22.4203H96.7704C96.8398 22.4205 96.9066 22.3943 96.9575 22.347C97.0083 22.2997 97.0394 22.2349 97.0445 22.1655H97.0569C97.0752 22.1655 97.0935 22.1636 97.1114 22.1597C97.1289 22.1636 97.1468 22.1655 97.1648 22.1655C97.1699 22.2349 97.201 22.2997 97.2519 22.347C97.3027 22.3943 97.3696 22.4205 97.4389 22.4203H97.4628L97.4781 22.4423C97.5038 22.4779 97.5375 22.5069 97.5765 22.5269C97.6155 22.5468 97.6587 22.5573 97.7025 22.5572C97.7538 22.5595 97.8022 22.5814 97.8378 22.6185C97.8734 22.6556 97.8933 22.705 97.8935 22.7565V23.4624C97.8935 23.5354 97.9224 23.6054 97.9738 23.6571C98.0251 23.7088 98.0948 23.738 98.1676 23.7383H99.3757V41.5941C99.3757 41.6303 99.3828 41.6662 99.3967 41.6997C99.4105 41.7331 99.4307 41.7635 99.4563 41.7892C99.4818 41.8148 99.5121 41.8351 99.5455 41.8489C99.5789 41.8628 99.6146 41.8699 99.6508 41.8699H102.993C103.029 41.8699 103.065 41.8628 103.098 41.8489C103.132 41.8351 103.162 41.8147 103.187 41.7891C103.213 41.7635 103.233 41.7331 103.247 41.6996C103.261 41.6661 103.268 41.6303 103.267 41.5941V39.6727C103.34 39.6727 103.41 39.6438 103.462 39.5922C103.513 39.5407 103.542 39.4708 103.542 39.3978V39.2388H105.375H105.41H105.443H105.524C105.561 39.2388 105.597 39.2315 105.63 39.2174C105.664 39.2033 105.694 39.1826 105.72 39.1566C105.745 39.1306 105.765 39.0997 105.779 39.0658C105.792 39.0319 105.799 38.9956 105.798 38.9591C105.798 38.6057 105.793 38.2503 105.792 37.9055C105.847 37.8877 105.895 37.8528 105.929 37.8059C105.964 37.7589 105.982 37.7022 105.983 37.644V36.304C106.038 36.2859 106.087 36.2506 106.121 36.2031C106.155 36.1556 106.174 36.0983 106.174 36.0396V34.9046H106.417C106.454 34.9062 106.491 34.9002 106.526 34.8869C106.561 34.8737 106.592 34.8535 106.619 34.8276C106.646 34.8017 106.667 34.7707 106.681 34.7363C106.696 34.702 106.703 34.6651 106.703 34.6278V34.0531C106.747 34.0297 106.783 33.9946 106.809 33.9518C106.835 33.9089 106.848 33.8598 106.848 33.8098V33.7418H107.051C107.124 33.7418 107.194 33.7128 107.246 33.661C107.297 33.6093 107.326 33.5391 107.326 33.466V22.5812C107.38 22.5623 107.427 22.5271 107.46 22.4804C107.493 22.4337 107.511 22.3779 107.511 22.3207V20.1569H107.572C107.643 20.1547 107.71 20.1247 107.76 20.0734C107.81 20.0221 107.837 19.9535 107.837 19.882V18.1656C107.857 18.1554 107.876 18.1429 107.893 18.1282H107.932C107.968 18.1284 108.004 18.1214 108.037 18.1076C108.07 18.0938 108.101 18.0736 108.126 18.0481C108.152 18.0225 108.172 17.9922 108.186 17.9588C108.2 17.9254 108.207 17.8895 108.207 17.8534V17.6704H108.292C108.382 17.6439 108.465 17.5949 108.532 17.5279C108.599 17.461 108.647 17.3782 108.674 17.2873V17.2068L108.889 16.8237C108.911 16.7827 108.923 16.7365 108.923 16.6896V16.5938C108.959 16.5463 108.978 16.4885 108.978 16.4291V16.4195C108.982 16.4138 108.987 16.4077 108.991 16.4013C109.03 16.3765 109.063 16.342 109.085 16.3011C109.108 16.2602 109.12 16.2143 109.12 16.1676V14.8965L109.174 14.8132C109.202 14.7685 109.217 14.7167 109.217 14.6638V12.8544C109.254 12.8361 109.287 12.81 109.313 12.7778C109.337 12.8076 109.368 12.8318 109.402 12.8487V14.6417C109.403 14.6916 109.417 14.7405 109.442 14.7835L109.501 14.8793V16.1245C109.501 16.1712 109.513 16.2171 109.535 16.258C109.558 16.2989 109.59 16.3334 109.63 16.3582C109.637 16.3705 109.646 16.382 109.656 16.3927C109.663 16.4439 109.684 16.492 109.718 16.5315V16.6484C109.718 16.6831 109.724 16.7175 109.737 16.7499L109.968 17.3332V17.3898C109.968 17.426 109.975 17.4619 109.989 17.4953C110.003 17.5288 110.023 17.5592 110.048 17.5848C110.074 17.6104 110.104 17.6308 110.138 17.6446C110.171 17.6585 110.207 17.6656 110.243 17.6656H110.424L110.436 17.6781V17.8476C110.436 17.8838 110.443 17.9196 110.456 17.9531C110.47 17.9866 110.49 18.017 110.516 18.0426C110.541 18.0682 110.571 18.0886 110.605 18.1024C110.638 18.1163 110.674 18.1235 110.71 18.1235H110.784L110.795 18.1359V19.8772C110.795 19.9157 110.804 19.9536 110.82 19.9886C110.836 20.0236 110.858 20.0549 110.887 20.0806C110.916 20.1063 110.949 20.1257 110.986 20.1377C111.022 20.1497 111.06 20.1539 111.099 20.1502V22.3676C111.098 22.4262 111.117 22.4833 111.151 22.5307C111.185 22.5781 111.234 22.6132 111.29 22.631V33.4545C111.29 33.5275 111.319 33.5974 111.37 33.6489C111.422 33.7004 111.492 33.7294 111.565 33.7294H111.756V34.6278C111.756 34.6779 111.77 34.7271 111.796 34.7699C111.821 34.8128 111.858 34.8478 111.903 34.8711V36.0377C111.903 36.1109 111.932 36.1811 111.983 36.2328C112.035 36.2845 112.105 36.3136 112.178 36.3136H112.636V37.6718C112.636 37.7449 112.665 37.8151 112.717 37.8669C112.768 37.9186 112.838 37.9476 112.911 37.9476H116.459C116.532 37.9474 116.602 37.9182 116.653 37.8665C116.704 37.8148 116.733 37.7448 116.733 37.6718V27.0744H116.966C117.009 27.0481 117.059 27.0342 117.11 27.0342C117.16 27.0342 117.21 27.0481 117.253 27.0744H117.903C117.953 27.0741 118.003 27.0602 118.045 27.0341C118.089 27.0602 118.138 27.0741 118.189 27.0744H118.839C118.89 27.0743 118.939 27.06 118.982 27.0332C119.025 27.06 119.074 27.0742 119.125 27.0744H119.786C119.837 27.0741 119.886 27.0602 119.929 27.0341C119.972 27.0602 120.021 27.0741 120.072 27.0744H120.722C120.773 27.0743 120.823 27.06 120.866 27.0332C120.908 27.06 120.958 27.0742 121.008 27.0744H121.242V38.0262C121.242 38.0624 121.249 38.0982 121.263 38.1316C121.277 38.165 121.297 38.1954 121.323 38.2209C121.348 38.2464 121.378 38.2667 121.412 38.2804C121.445 38.2942 121.481 38.3012 121.517 38.3011H122.153V38.3653C122.153 38.4278 122.174 38.4885 122.213 38.5374C122.252 38.5863 122.306 38.6205 122.367 38.6344V46.1486C122.367 46.1903 122.377 46.2313 122.395 46.2688C122.413 46.3063 122.439 46.3392 122.472 46.365L124 47.5729V46.7922ZM78.35 9.69936C78.35 9.68499 78.35 9.66967 78.35 9.65434L78.4378 9.68307L78.35 9.69936ZM78.6021 8.57103L78.9612 8.92352L78.7301 8.90245L78.2602 8.85742C78.2019 8.5854 78.1379 8.31529 78.0692 8.0471C78.243 8.22238 78.4235 8.39671 78.6002 8.57487L78.6021 8.57103ZM22.3084 29.3597C22.7859 29.3597 23.2777 30.2113 23.4343 30.7007H23.1383C23.0951 30.727 23.0455 30.7409 22.995 30.7409C22.9445 30.7409 22.8949 30.727 22.8518 30.7007H22.4545C22.4042 30.7004 22.3549 30.7143 22.3122 30.7409C22.2691 30.7145 22.2195 30.7005 22.1689 30.7007H21.7716C21.7284 30.727 21.6789 30.7409 21.6284 30.7409C21.5778 30.7409 21.5283 30.727 21.4851 30.7007H21.1852C21.3381 30.2141 21.8299 29.3597 22.3084 29.3597Z" fill="#1C1C1A"/>
</svg>
